<svg id="Слой_1" data-name="Слой 1" xmlns="http://www.w3.org/2000/svg" viewBox="0 0 200 200"><defs><style>.cls-1{fill:#fff;}.cls-2{fill:#272626;}</style></defs><rect class="cls-1" x="49.79" y="74.68" width="81.02" height="52.94"/><path class="cls-1" d="M91.33,137.33a2.45,2.45,0,1,0,2.45,2.45A2.45,2.45,0,0,0,91.33,137.33Z"/><polygon class="cls-1" points="146.42 152.71 34.2 152.71 24 157.91 156.93 157.91 146.42 152.71"/><path class="cls-1" d="M144.45,64H36.16v83.53H144.45Zm-53.12,81.3a5.55,5.55,0,1,1,5.55-5.54A5.55,5.55,0,0,1,91.33,145.32ZM136,130.19a2.57,2.57,0,0,1-2.58,2.58H47.21a2.58,2.58,0,0,1-2.58-2.58V72.1a2.58,2.58,0,0,1,2.58-2.58h86.18A2.57,2.57,0,0,1,136,72.1Z"/><rect class="cls-1" x="15.85" y="163.07" width="149.54" height="1.84"/><path class="cls-2" d="M170.5,160.06a1.36,1.36,0,0,0,0-.17,2.29,2.29,0,0,0-.08-.28c0-.06,0-.12-.07-.17a2.19,2.19,0,0,0-.16-.3l-.06-.11a3.27,3.27,0,0,0-.3-.35.73.73,0,0,0-.09-.08,2.75,2.75,0,0,0-.26-.22l-.16-.1-.18-.1-19.5-9.65V61.44A2.58,2.58,0,0,0,147,58.86H33.58A2.59,2.59,0,0,0,31,61.44v87.11l-18.9,9.64-.16.1-.16.1-.24.2a.52.52,0,0,0-.11.1,2.34,2.34,0,0,0-.29.35s0,0,0,.05a1.78,1.78,0,0,0-.19.36.76.76,0,0,0-.06.16,1.52,1.52,0,0,0-.09.28,1.16,1.16,0,0,0,0,.18l0,.31s0,.07,0,.11v7a2.59,2.59,0,0,0,2.58,2.58H168a2.58,2.58,0,0,0,2.58-2.58v-7s0-.07,0-.11ZM36.16,64H144.45v83.53H36.16Zm-2,88.69H146.42l10.51,5.2H24Zm131.18,12.2H15.85v-1.84H165.38Z"/><path class="cls-2" d="M133.39,69.52H47.21a2.58,2.58,0,0,0-2.58,2.58v58.09a2.58,2.58,0,0,0,2.58,2.58h86.18a2.57,2.57,0,0,0,2.58-2.58V72.1A2.57,2.57,0,0,0,133.39,69.52Zm-2.58,58.09h-81V74.68h81Z"/><path class="cls-2" d="M91.33,134.23a5.55,5.55,0,1,0,5.55,5.55A5.55,5.55,0,0,0,91.33,134.23Zm0,8a2.45,2.45,0,1,1,2.45-2.44A2.45,2.45,0,0,1,91.33,142.22Z"/><path class="cls-1" d="M179.71,34H122.32a5.5,5.5,0,0,0-5.5,5.5v93.85a5.51,5.51,0,0,0,5.5,5.5h57.39a5.51,5.51,0,0,0,5.5-5.5V39.53A5.5,5.5,0,0,0,179.71,34Zm-28.7.49a1.06,1.06,0,1,1-1,1.06A1.05,1.05,0,0,1,151,34.52Zm-3.95,4.27H155a1.05,1.05,0,1,1,0,2.1h-7.91a1,1,0,0,1,0-2.1Zm-3.54.23a.82.82,0,1,1-.82.82A.82.82,0,0,1,143.52,39ZM151,138.1a6.31,6.31,0,1,1,6.31-6.3A6.31,6.31,0,0,1,151,138.1Zm28-14a1,1,0,0,1-1,1H124.09a1,1,0,0,1-1-1V44.31a1,1,0,0,1,1-1h53.85a1,1,0,0,1,1,1Z"/><path class="cls-1" d="M151,127.53a4.27,4.27,0,1,0,4.27,4.27A4.27,4.27,0,0,0,151,127.53Z"/><rect class="cls-1" x="125.12" y="45.33" width="51.8" height="77.71"/><path class="cls-2" d="M179.71,29.93H122.32a9.62,9.62,0,0,0-9.6,9.6v93.85a9.61,9.61,0,0,0,9.6,9.59h57.39a9.61,9.61,0,0,0,9.6-9.59V39.53A9.62,9.62,0,0,0,179.71,29.93Zm5.5,103.45a5.51,5.51,0,0,1-5.5,5.5H122.32a5.51,5.51,0,0,1-5.5-5.5V39.53a5.5,5.5,0,0,1,5.5-5.5h57.39a5.5,5.5,0,0,1,5.5,5.5Z"/><path class="cls-2" d="M151,36.63a1.06,1.06,0,1,0-1-1.05A1.05,1.05,0,0,0,151,36.63Z"/><path class="cls-2" d="M147.06,40.89H155a1,1,0,1,0,0-2.1h-7.91a1.05,1.05,0,0,0,0,2.1Z"/><path class="cls-2" d="M143.52,40.66a.82.82,0,1,0-.82-.82A.82.82,0,0,0,143.52,40.66Z"/><path class="cls-2" d="M151,125.48a6.31,6.31,0,1,0,6.31,6.32A6.32,6.32,0,0,0,151,125.48Zm0,10.58a4.27,4.27,0,1,1,4.27-4.26A4.26,4.26,0,0,1,151,136.06Z"/><path class="cls-2" d="M177.94,43.28H124.09a1,1,0,0,0-1,1v79.76a1,1,0,0,0,1,1h53.85a1,1,0,0,0,1-1V44.31A1,1,0,0,0,177.94,43.28Zm-1,79.76H125.12V45.33h51.79Z"/></svg>