<svg id="Слой_1" data-name="Слой 1" xmlns="http://www.w3.org/2000/svg" viewBox="0 0 200 200"><defs><style>.cls-1{fill:#fff;}.cls-2{fill:#272626;}</style></defs><polygon class="cls-1" points="140.13 25.95 82.53 38.73 140.13 38.73 140.13 25.95"/><path class="cls-1" d="M100,109.51A20.57,20.57,0,1,0,79.44,88.94,20.59,20.59,0,0,0,100,109.51Z"/><path class="cls-1" d="M77.83,139.7a2.23,2.23,0,0,0-2.24-2.23h-1.8v4.44h1.8A2.23,2.23,0,0,0,77.83,139.7Z"/><polygon class="cls-1" points="90.03 144.59 93.65 144.59 91.83 139.56 90.03 144.59"/><path class="cls-1" d="M48.8,175.08H151.2V47H48.8Zm48.74-19.76-2.27-6.25H88.4l-2.26,6.25H81.39L89.47,133h4.74l8.07,22.34Zm13.94,0a11.09,11.09,0,0,1-7.72-3.1l3.15-3.15a6.68,6.68,0,0,0,4.57,1.8,2.23,2.23,0,0,0,2.2-2.24,1.9,1.9,0,0,0-.88-1.71c-1.06-.62-2.83-.44-4-.71A6.71,6.71,0,0,1,110.44,133a11.15,11.15,0,0,1,6.87,2.36l-3.21,3.21a6.73,6.73,0,0,0-3.66-1.08,2.24,2.24,0,0,0-2.24,2.23,2.41,2.41,0,0,0,.53,1.45,4.15,4.15,0,0,0,3,1,6.4,6.4,0,0,1,6.45,6.48A6.7,6.7,0,0,1,111.48,155.32Zm13.14-14.17a4.11,4.11,0,0,0,3,1,6.39,6.39,0,0,1,6.45,6.48,6.7,6.7,0,0,1-6.69,6.69,11.08,11.08,0,0,1-7.71-3.1l3.15-3.15a6.67,6.67,0,0,0,4.56,1.8,2.23,2.23,0,0,0,2.21-2.24,1.9,1.9,0,0,0-.88-1.71c-1.06-.62-2.83-.44-4-.71A6.71,6.71,0,0,1,126.32,133a11.15,11.15,0,0,1,6.87,2.36L130,138.55a6.73,6.73,0,0,0-3.66-1.08,2.23,2.23,0,0,0-2.23,2.23A2.35,2.35,0,0,0,124.62,141.15ZM100,60.08A28.87,28.87,0,1,1,71.13,88.94,28.89,28.89,0,0,1,100,60.08ZM69.35,133h6.24a6.71,6.71,0,0,1,0,13.41H73.79v8.93H69.35Z"/><path class="cls-2" d="M155.35,38.73h-6.91v-18a4.17,4.17,0,0,0-5.06-4.06L43.81,38.81h-.06a3.92,3.92,0,0,0-.71.22l-.13.07a4.21,4.21,0,0,0-.55.3c-.07,0-.13.1-.2.15l-.39.32-.2.22c-.1.11-.2.23-.29.35l-.17.27a2.93,2.93,0,0,0-.21.39c0,.1-.09.19-.13.29a3.33,3.33,0,0,0-.13.45,1.37,1.37,0,0,0-.07.29,3.19,3.19,0,0,0-.06.53c0,.07,0,.14,0,.2V179.23a4.15,4.15,0,0,0,4.16,4.15h110.7a4.15,4.15,0,0,0,4.16-4.15V42.88A4.15,4.15,0,0,0,155.35,38.73ZM140.13,26V38.73H82.53ZM151.2,175.08H48.8V47H151.2Z"/><path class="cls-2" d="M73.79,146.39h1.83a6.71,6.71,0,0,0,0-13.41H69.35v22.34h4.44Zm0-8.92h1.8a2.22,2.22,0,1,1,0,4.44h-1.8Z"/><path class="cls-2" d="M89.47,133l-8.08,22.34h4.75l2.26-6.25h6.87l2.27,6.25h4.74L94.21,133ZM90,144.59l1.8-5,1.82,5Z"/><path class="cls-2" d="M111.71,142.15a4.15,4.15,0,0,1-3-1,2.41,2.41,0,0,1-.53-1.45,2.24,2.24,0,0,1,2.24-2.23,6.73,6.73,0,0,1,3.66,1.08l3.21-3.21a11.15,11.15,0,0,0-6.87-2.36,6.71,6.71,0,0,0-1.59,13.23c1.12.27,2.89.09,4,.71a1.9,1.9,0,0,1,.88,1.71,2.23,2.23,0,0,1-2.2,2.24,6.68,6.68,0,0,1-4.57-1.8l-3.15,3.15a11.09,11.09,0,0,0,7.72,3.1,6.7,6.7,0,0,0,6.68-6.69A6.4,6.4,0,0,0,111.71,142.15Z"/><path class="cls-2" d="M126.32,137.47a6.73,6.73,0,0,1,3.66,1.08l3.21-3.21a11.15,11.15,0,0,0-6.87-2.36,6.71,6.71,0,0,0-1.59,13.23c1.12.27,2.89.09,4,.71a1.9,1.9,0,0,1,.88,1.71,2.23,2.23,0,0,1-2.21,2.24,6.67,6.67,0,0,1-4.56-1.8l-3.15,3.15a11.08,11.08,0,0,0,7.71,3.1,6.7,6.7,0,0,0,6.69-6.69,6.39,6.39,0,0,0-6.45-6.48,4.11,4.11,0,0,1-3-1,2.35,2.35,0,0,1-.53-1.45A2.23,2.23,0,0,1,126.32,137.47Z"/><path class="cls-2" d="M100,117.81A28.87,28.87,0,1,0,71.13,88.94,28.9,28.9,0,0,0,100,117.81Zm0-49.43A20.57,20.57,0,1,1,79.44,88.94,20.58,20.58,0,0,1,100,68.38Z"/></svg>