<svg id="Слой_1" data-name="Слой 1" xmlns="http://www.w3.org/2000/svg" viewBox="0 0 200 200"><defs><style>.cls-1{fill:#fff;}.cls-2{fill:#272626;}</style></defs><path class="cls-1" d="M75.26,85.08a26.86,26.86,0,0,1,14,23.54c0,.78-.05,1.55-.11,2.32h21.64c-.06-.76-.11-1.52-.12-2.3a26.61,26.61,0,0,1,7.86-18.94c.25-.25.52-.47.77-.71a27.64,27.64,0,0,0-2.67-3.57C112.21,88,102,92.6,90.83,89.33a28.7,28.7,0,0,1-7.06-3.15l-.29-.28-4.49-7-17.48-27A3.32,3.32,0,0,0,57,51a3.22,3.22,0,0,0-1,4.47l18.8,29.07Z"/><path class="cls-1" d="M62.5,128.21h0a19.57,19.57,0,1,0-19.58-19.57A19.44,19.44,0,0,0,62.5,128.21Z"/><path class="cls-1" d="M137.5,128.21h0a19.57,19.57,0,1,0-19.58-19.57A19.4,19.4,0,0,0,137.5,128.21Z"/><path class="cls-1" d="M46,143.66c-3.11,3.64-8.9,12.09-10,25.45H89.09c-.39-5.76-2.08-17.43-9.19-25.52C72.35,148.1,58.7,152.08,46,143.66Z"/><path class="cls-1" d="M99.32,70A19.54,19.54,0,1,0,79.76,50.5,19.4,19.4,0,0,0,99.32,70Z"/><path class="cls-1" d="M121,143.66c-3.11,3.64-8.91,12.09-10,25.45h53.13c-.39-5.76-2.08-17.43-9.19-25.52C147.35,148.1,133.7,152.08,121,143.66Z"/><path class="cls-2" d="M62.5,135.42h0a26.81,26.81,0,0,0,25-17.22h25a26.83,26.83,0,0,0,25,17.22h0A26.79,26.79,0,1,0,125.29,84.8a35.2,35.2,0,0,0-5.65-6.7,3.63,3.63,0,0,0-4.66-.21C114.83,78,100.08,89,86,79L78.58,67.46A26.78,26.78,0,0,0,99.32,77.3h0a26.85,26.85,0,0,0,26.81-26.82A26.82,26.82,0,1,0,75.4,62.54L66.46,48.71a9.13,9.13,0,0,0-15.33,9.92L66.34,82.15a27,27,0,0,0-3.84-.31,26.79,26.79,0,1,0,0,53.58Zm23-98.75A19.54,19.54,0,1,1,79.76,50.5,19.47,19.47,0,0,1,85.49,36.67ZM123.66,94.8a19.56,19.56,0,1,1,13.84,33.41h0A19.57,19.57,0,0,1,123.66,94.8ZM56.08,55.42A3.22,3.22,0,0,1,57,51a3.32,3.32,0,0,1,4.47,1L79,78.94l4.49,7,.29.28a28.7,28.7,0,0,0,7.06,3.15C102,92.6,112.21,88,116.66,85.42A27.64,27.64,0,0,1,119.33,89c-.25.24-.52.46-.77.71a26.61,26.61,0,0,0-7.86,18.94c0,.78.06,1.54.12,2.3H89.18c.06-.77.11-1.54.11-2.32a26.86,26.86,0,0,0-14-23.54l-.38-.59ZM48.66,94.8A19.57,19.57,0,1,1,62.5,128.21h0A19.57,19.57,0,0,1,48.66,94.8Z"/><path class="cls-2" d="M82.81,136.26a3.63,3.63,0,0,0-4.63-.21c-.64.49-15.91,11.8-30.36,0a3.6,3.6,0,0,0-4.64.07c-.58.51-14.26,12.67-14.6,36.51a3.6,3.6,0,0,0,3.6,3.65H92.81a3.6,3.6,0,0,0,3.6-3.49C96.44,171.87,97,149.28,82.81,136.26ZM36,169.11c1.1-13.36,6.89-21.81,10-25.45,12.74,8.42,26.39,4.44,33.94-.08,7.11,8.09,8.8,19.76,9.19,25.52Z"/><path class="cls-2" d="M157.8,136.26a3.61,3.61,0,0,0-4.62-.21c-.64.49-15.91,11.8-30.36,0a3.6,3.6,0,0,0-4.64.07c-.58.51-14.26,12.67-14.6,36.51a3.61,3.61,0,0,0,1,2.58,3.65,3.65,0,0,0,2.57,1.07h60.63a3.6,3.6,0,0,0,3.6-3.49C171.44,171.87,172,149.28,157.8,136.26ZM111,169.11c1.09-13.36,6.89-21.81,10-25.45,12.74,8.42,26.39,4.44,33.94-.08,7.11,8.09,8.8,19.76,9.19,25.52Z"/></svg>