<svg id="Слой_1" data-name="Слой 1" xmlns="http://www.w3.org/2000/svg" viewBox="0 0 200 200"><defs><style>.cls-1{fill:#fff;}.cls-2{fill:#272626;}</style></defs><rect class="cls-1" x="79.79" y="38.34" width="40.41" height="13.41"/><path class="cls-1" d="M120.24,130.12A11.27,11.27,0,0,1,109,141.37H88.91a11.26,11.26,0,0,1-11.26-11.25V125H33.59v40.53c0,3.11,2,5.65,4.48,5.65H161.93c2.47,0,4.48-2.54,4.48-5.65V125H120.24Z"/><path class="cls-1" d="M74.19,56.8V35.54a2.8,2.8,0,0,1,2.8-2.8h46a2.8,2.8,0,0,1,2.8,2.8V56.8A2.59,2.59,0,0,0,127,57a2.35,2.35,0,0,0,1.13-.25V29.08a2.94,2.94,0,0,0-1.75-.18,3.08,3.08,0,0,1-1.21,0,1.72,1.72,0,0,0-.44-.06H73.79a2,2,0,0,1-.49,0,2.89,2.89,0,0,0-1.38.24V56.79a2.35,2.35,0,0,0,1.13.25A2.59,2.59,0,0,0,74.19,56.8Z"/><rect class="cls-1" x="83.25" y="108.61" width="31.38" height="27.15" rx="5.65"/><path class="cls-1" d="M171.33,57.36H133.67c-.1,3-3,5.29-6.72,5.29s-6.62-2.31-6.73-5.29H79.77c-.1,3-3,5.29-6.72,5.29s-6.62-2.31-6.72-5.29H28.67A5.66,5.66,0,0,0,23,63v50.73a5.65,5.65,0,0,0,5.65,5.64h49v-5.11A11.26,11.26,0,0,1,88.91,103H109a11.27,11.27,0,0,1,11.26,11.26v5.11h51.09a5.65,5.65,0,0,0,5.65-5.64V63A5.66,5.66,0,0,0,171.33,57.36Z"/><path class="cls-2" d="M171.33,51.75H133.69V28.67c0-3.05-3-5.45-6.74-5.45a9.23,9.23,0,0,0-1.18.08,8,8,0,0,0-1.09-.08H74l-.44,0-.47,0c-3.78,0-6.74,2.4-6.74,5.45V51.75H28.67A11.28,11.28,0,0,0,17.41,63v50.73A11.26,11.26,0,0,0,28,125v40.56c0,6.2,4.52,11.26,10.09,11.26H161.93c5.57,0,10.09-5.06,10.09-11.26V125a11.26,11.26,0,0,0,10.57-11.22V63A11.28,11.28,0,0,0,171.33,51.75ZM71.92,29.08a2.89,2.89,0,0,1,1.38-.24,2,2,0,0,0,.49,0h50.89a1.72,1.72,0,0,1,.44.06,3.08,3.08,0,0,0,1.21,0,2.94,2.94,0,0,1,1.75.18V56.79A2.35,2.35,0,0,1,127,57a2.59,2.59,0,0,1-1.14-.24V35.54a2.8,2.8,0,0,0-2.8-2.8H77a2.8,2.8,0,0,0-2.8,2.8V56.8a2.59,2.59,0,0,1-1.14.24,2.35,2.35,0,0,1-1.13-.25Zm48.28,9.26V51.75H79.79V38.34Zm46.21,127.18c0,3.11-2,5.65-4.48,5.65H38.07c-2.47,0-4.48-2.54-4.48-5.65V125H77.65v5.13a11.26,11.26,0,0,0,11.26,11.25H109a11.27,11.27,0,0,0,11.26-11.25V125h46.17Zm-83.16-35.4V114.27a5.67,5.67,0,0,1,5.66-5.66H109a5.66,5.66,0,0,1,5.65,5.66v15.85a5.66,5.66,0,0,1-5.65,5.65H88.91A5.67,5.67,0,0,1,83.25,130.12ZM177,113.74a5.65,5.65,0,0,1-5.65,5.64H120.24v-5.11A11.27,11.27,0,0,0,109,103H88.91a11.26,11.26,0,0,0-11.26,11.26v5.11h-49A5.65,5.65,0,0,1,23,113.74V63a5.66,5.66,0,0,1,5.65-5.65H66.33c.1,3,3,5.29,6.72,5.29s6.62-2.31,6.72-5.29h40.45c.11,3,3,5.29,6.73,5.29s6.62-2.31,6.72-5.29h37.66A5.66,5.66,0,0,1,177,63Z"/></svg>