<svg id="Слой_1" data-name="Слой 1" xmlns="http://www.w3.org/2000/svg" viewBox="0 0 200 200"><defs><style>.cls-1{fill:#fff;}.cls-2{fill:#272626;}</style></defs><path class="cls-1" d="M108.47,142.79a3.73,3.73,0,0,0,.53-2,2.42,2.42,0,0,0-.53-1.68Z"/><path class="cls-1" d="M54.61,42.62h89.61c7.63,0,13.32-3.64,13.32-6.9V29.84c0-3.25-5.69-6.89-13.32-6.89H54.61C47,23,41.29,26.59,41.29,29.84v5.88C41.29,39,47,42.62,54.61,42.62Z"/><path class="cls-1" d="M106.51,127.07a1.73,1.73,0,0,1-1.48-1.7v-9.25a1.69,1.69,0,0,1,.8-1.45,1.72,1.72,0,0,1,1.66-.11,16.37,16.37,0,0,1,3.74,2.47,1.83,1.83,0,0,0,1.17.41,3.58,3.58,0,0,0,.87-.3l5.4-3.39c.34-.22.34-.34.35-.39s0-.11-.16-.25l-.14-.14a20.57,20.57,0,0,0-12.26-6.71,1.72,1.72,0,0,1-1.43-1.7v-5.2a1,1,0,0,0-1-1H99.16a1,1,0,0,0-1,1v5.07a1.73,1.73,0,0,1-1.48,1.7,23.17,23.17,0,0,0-6.41,1.79c-6,2.73-8.83,6.61-8.73,11.89a11.39,11.39,0,0,0,2.3,6.8c2.58,3.46,6.9,5.68,12.86,6.59a1.72,1.72,0,0,1,1.46,1.71v11.54a1.72,1.72,0,0,1-2.29,1.63,21.61,21.61,0,0,1-8.59-6l-.1-.12a.89.89,0,0,0-.81-.38s-.39.12-.73.26l-4.89,2.87c-.41.24-.41.38-.41.46s0,.13.15.3l.12.15a23.35,23.35,0,0,0,4.88,4.85,24.48,24.48,0,0,0,11.22,4.81A1.71,1.71,0,0,1,98.2,157v4.56a1,1,0,0,0,1,.95h4.91a1,1,0,0,0,1-.95V157a1.72,1.72,0,0,1,1.47-1.71,24.15,24.15,0,0,0,8.58-2.89c.33-.19.67-.36,1-.56a15.83,15.83,0,0,0,2.7-2.22,12.1,12.1,0,0,0,3.12-5.53,14.5,14.5,0,0,0,.44-3.36,10.69,10.69,0,0,0-2.38-7.33C117.15,130.06,112.62,127.93,106.51,127.07Zm-8.31-3a1.74,1.74,0,0,1-.74,1.42,1.85,1.85,0,0,1-1,.3,1.67,1.67,0,0,1-.62-.12c-3.56-1.37-4.33-3.9-4.35-5.78,0-1.64.66-3.91,3.85-5.43l.49-.19a1.72,1.72,0,0,1,2.35,1.6Zm10.53,23.12a11.68,11.68,0,0,1-1.26.65,1.64,1.64,0,0,1-.72.16,1.8,1.8,0,0,1-.93-.27,1.72,1.72,0,0,1-.79-1.45V136.15a1.76,1.76,0,0,1,.71-1.4,1.73,1.73,0,0,1,1.53-.25c4.31,1.36,5.19,4.18,5.18,6.31A7.18,7.18,0,0,1,108.73,147.19Z"/><path class="cls-1" d="M144.94,62.35H57.78A13.79,13.79,0,0,0,44,76.12v87.16a13.79,13.79,0,0,0,13.78,13.77h87.16a13.79,13.79,0,0,0,13.77-13.77V76.12A13.79,13.79,0,0,0,144.94,62.35Zm-27,92.37a26.17,26.17,0,0,1-9.49,3.74v3.12a4.4,4.4,0,0,1-4.4,4.39H99.16a4.4,4.4,0,0,1-4.4-4.39v-3.13a27.76,27.76,0,0,1-11.32-5.2,26.66,26.66,0,0,1-5.55-5.53,3.75,3.75,0,0,1-1-2.46,3.8,3.8,0,0,1,2.12-3.48l5.19-3a6.26,6.26,0,0,1,2.16-.57,4.32,4.32,0,0,1,3.5,1.68,20.24,20.24,0,0,0,4.85,3.93v-7.42c-5.11-1-9.12-3-12-5.84a16.75,16.75,0,0,1-1.63-1.84,14.76,14.76,0,0,1-3-8.81c-.12-6.7,3.5-11.78,10.75-15.08A25.77,25.77,0,0,1,94.76,103v-3.6A4.41,4.41,0,0,1,99.16,95h4.91a4.41,4.41,0,0,1,4.4,4.41v3.79a23.69,23.69,0,0,1,12.8,7.5,3.62,3.62,0,0,1,1.19,2.76,3.8,3.8,0,0,1-1.95,3.25L115,120.12l-.2.11a6.17,6.17,0,0,1-2.39.65h0a5.25,5.25,0,0,1-3.39-1.23l-.53-.43v4.67c.49.09,1,.2,1.42.31,5.54,1.22,9.82,3.56,12.71,7h0a14.21,14.21,0,0,1,3.16,9.61A16.28,16.28,0,0,1,118,154.72Zm27.15-74a137.2,137.2,0,0,1-44.67,7.55c-25.34,0-42.13-7.21-43.17-7.67A4.14,4.14,0,0,1,60.61,73a80.47,80.47,0,0,0,12.45,3.79,125.93,125.93,0,0,0,55.47,0,132.44,132.44,0,0,0,13.9-3.91,4.13,4.13,0,1,1,2.68,7.82Z"/><path class="cls-2" d="M144.94,54.07H57.78A22.07,22.07,0,0,0,35.73,76.12v87.16a22.07,22.07,0,0,0,22.05,22.05h87.16a22.07,22.07,0,0,0,22-22.05V76.12A22.07,22.07,0,0,0,144.94,54.07Zm13.77,109.21a13.79,13.79,0,0,1-13.77,13.77H57.78A13.79,13.79,0,0,1,44,163.28V76.12A13.79,13.79,0,0,1,57.78,62.35h87.16a13.79,13.79,0,0,1,13.77,13.77Z"/><path class="cls-2" d="M54.61,50.9h89.61c12.11,0,21.6-6.67,21.6-15.18V29.84c0-8.5-9.49-15.17-21.6-15.17H54.61C42.51,14.67,33,21.34,33,29.84v5.88C33,44.23,42.51,50.9,54.61,50.9ZM41.29,29.84C41.29,26.59,47,23,54.61,23h89.61c7.63,0,13.32,3.64,13.32,6.89v5.88c0,3.26-5.69,6.9-13.32,6.9H54.61c-7.62,0-13.32-3.64-13.32-6.9Z"/><path class="cls-2" d="M142.43,72.92a132.44,132.44,0,0,1-13.9,3.91,125.93,125.93,0,0,1-55.47,0A80.47,80.47,0,0,1,60.61,73a4.14,4.14,0,0,0-3.34,7.58c1,.46,17.83,7.67,43.17,7.67a137.2,137.2,0,0,0,44.67-7.55,4.13,4.13,0,1,0-2.68-7.82Z"/><path class="cls-2" d="M122.6,131.2c-2.89-3.44-7.17-5.78-12.71-7-.47-.11-.93-.22-1.42-.31v-4.67l.53.43a5.25,5.25,0,0,0,3.39,1.23h0a6.17,6.17,0,0,0,2.39-.65l.2-.11,5.51-3.46a3.8,3.8,0,0,0,1.95-3.25,3.62,3.62,0,0,0-1.19-2.76,23.69,23.69,0,0,0-12.8-7.5V99.36a4.41,4.41,0,0,0-4.4-4.41H99.16a4.41,4.41,0,0,0-4.4,4.41V103a25.77,25.77,0,0,0-5.88,1.83c-7.25,3.3-10.87,8.38-10.75,15.08a14.76,14.76,0,0,0,3,8.81,16.75,16.75,0,0,0,1.63,1.84c2.89,2.88,6.9,4.84,12,5.84v7.42a20.24,20.24,0,0,1-4.85-3.93,4.32,4.32,0,0,0-3.5-1.68,6.26,6.26,0,0,0-2.16.57l-5.19,3a3.8,3.8,0,0,0-2.12,3.48,3.75,3.75,0,0,0,1,2.46,26.66,26.66,0,0,0,5.55,5.53,27.76,27.76,0,0,0,11.32,5.2v3.13a4.4,4.4,0,0,0,4.4,4.39h4.91a4.4,4.4,0,0,0,4.4-4.39v-3.12a26.17,26.17,0,0,0,9.49-3.74,16.28,16.28,0,0,0,7.81-13.91,14.21,14.21,0,0,0-3.16-9.61Zm-.71,12.9a12.1,12.1,0,0,1-3.12,5.53,15.83,15.83,0,0,1-2.7,2.22c-.32.2-.66.37-1,.56a24.15,24.15,0,0,1-8.58,2.89A1.72,1.72,0,0,0,105,157v4.57a1,1,0,0,1-1,.95H99.16a1,1,0,0,1-1-.95V157a1.71,1.71,0,0,0-1.45-1.7,24.48,24.48,0,0,1-11.22-4.81,23.35,23.35,0,0,1-4.88-4.85l-.12-.15c-.14-.17-.15-.25-.15-.3s0-.22.41-.46l4.89-2.87c.34-.14.7-.25.73-.26a.89.89,0,0,1,.81.38l.1.12a21.61,21.61,0,0,0,8.59,6,1.72,1.72,0,0,0,2.29-1.63V134.91a1.72,1.72,0,0,0-1.46-1.71c-6-.91-10.28-3.13-12.86-6.59a11.39,11.39,0,0,1-2.3-6.8c-.1-5.28,2.76-9.16,8.73-11.89a23.17,23.17,0,0,1,6.41-1.79,1.73,1.73,0,0,0,1.48-1.7V99.36a1,1,0,0,1,1-1h4.91a1,1,0,0,1,1,1v5.2a1.72,1.72,0,0,0,1.43,1.7A20.57,20.57,0,0,1,118.72,113l.14.14c.16.14.16.21.16.25s0,.17-.35.39l-5.4,3.39a3.58,3.58,0,0,1-.87.3,1.83,1.83,0,0,1-1.17-.41,16.37,16.37,0,0,0-3.74-2.47,1.72,1.72,0,0,0-1.66.11,1.69,1.69,0,0,0-.8,1.45v9.25a1.73,1.73,0,0,0,1.48,1.7c6.11.86,10.64,3,13.44,6.34a10.69,10.69,0,0,1,2.38,7.33A14.5,14.5,0,0,1,121.89,144.1Z"/><path class="cls-2" d="M97.45,114.45a1.72,1.72,0,0,0-1.6-.18l-.49.19c-3.19,1.52-3.86,3.79-3.85,5.43,0,1.88.79,4.41,4.35,5.78a1.67,1.67,0,0,0,.62.12,1.85,1.85,0,0,0,1-.3,1.74,1.74,0,0,0,.74-1.42v-8.2A1.71,1.71,0,0,0,97.45,114.45Z"/><path class="cls-2" d="M107.27,134.5a1.73,1.73,0,0,0-1.53.25,1.76,1.76,0,0,0-.71,1.4v10.13a1.72,1.72,0,0,0,.79,1.45,1.8,1.8,0,0,0,.93.27,1.64,1.64,0,0,0,.72-.16,11.68,11.68,0,0,0,1.26-.65,7.18,7.18,0,0,0,3.72-6.38C112.46,138.68,111.58,135.86,107.27,134.5Zm1.2,8.29v-3.68a2.42,2.42,0,0,1,.53,1.68A3.73,3.73,0,0,1,108.47,142.79Z"/></svg>