<svg id="Слой_1" data-name="Слой 1" xmlns="http://www.w3.org/2000/svg" viewBox="0 0 200 200"><defs><style>.cls-1{fill:#fff;}.cls-2{fill:#272626;}</style></defs><path class="cls-1" d="M120.7,91a2.76,2.76,0,0,1-1-.51c-.26-.11-.49-.19-.74-.28l-.25-.07a12.07,12.07,0,0,0-5.3-.41A11.88,11.88,0,0,0,119,91.07,15,15,0,0,0,120.7,91Z"/><path class="cls-1" d="M92,102.75a12,12,0,0,1-3.78,5.52l-7.38,6a11.79,11.79,0,0,0-4.31,9.12,11.66,11.66,0,0,0,2.66,7.45l1.63,2c4.87-.29,9.79-.44,14.68-.44,3,0,6,.06,9,.17l21.82-17.88a9.61,9.61,0,0,0,.82-.74,10.75,10.75,0,0,1-2.07.56A35.76,35.76,0,0,1,92,102.75Z"/><path class="cls-1" d="M114.45,155.38a35.78,35.78,0,0,1-50.32-5l-3.52-4.3a35.36,35.36,0,0,1-3.27-4.74,130.22,130.22,0,0,0-13.57,3.16c-14.51,4.3-19.69,9.42-19.69,12.78s5.18,8.47,19.69,12.77c13.77,4.07,32.12,6.31,51.69,6.31s37.92-2.24,51.69-6.31c14.51-4.3,19.68-9.42,19.68-12.77s-5.17-8.48-19.68-12.78a133.33,133.33,0,0,0-15.22-3.45Z"/><path class="cls-1" d="M155.05,49.72l-3.52-4.3a11.8,11.8,0,0,0-9.08-4.31h-.09A11.66,11.66,0,0,0,135,43.77L108,65.89c-.28.23-.55.48-.81.73a12.16,12.16,0,0,1,2.07-.56,35.77,35.77,0,0,1,15.41.77l.09,0a35.94,35.94,0,0,1,6.51,2.49l.06,0,.2.1c1,.5,2,1.07,3,1.69l.35.23.15.11c.71.45,1.46,1,2.3,1.63l.17.14.17.12c.92.75,1.72,1.45,2.54,2.24l.51.52c.6.61,1.12,1.17,1.6,1.71A12,12,0,0,1,146,72.34l7.37-6h0a11.79,11.79,0,0,0,1.65-16.57Z"/><path class="cls-1" d="M86.71,138.35a11.78,11.78,0,0,0,5.09,1.15,11.66,11.66,0,0,0,5.34-1.29l-1.68,0C92.51,138.19,89.59,138.25,86.71,138.35Z"/><path class="cls-1" d="M157.57,86.42l7.38-6a30.15,30.15,0,0,0,2.28-2.07,30,30,0,0,0,1.91-40.13l0-.06,0,0-3.44-4.19a30,30,0,0,0-42.2-4.2l-27,22.12a30,30,0,0,0-8.83,34.29,5.06,5.06,0,0,1-5.75,6.82,8.11,8.11,0,0,0-1.33-.14,6.19,6.19,0,0,0-3.88,1.41l-7.38,6a30,30,0,0,0-4.19,42.2l3.53,4.3a30,30,0,0,0,42.21,4.2l27-22.12a30,30,0,0,0,8.83-34.29,5.06,5.06,0,0,1,5.74-6.82,4.76,4.76,0,0,0,1.18.13h.18A6,6,0,0,0,157.57,86.42ZM134,114.32h0a17.55,17.55,0,0,1-4.09,4.85l-27,22.12a17.58,17.58,0,0,1-24.69-2.45l-3.52-4.31a17.54,17.54,0,0,1,2.45-24.68l7.38-6a6.34,6.34,0,0,0,2.15-3.58,5.05,5.05,0,0,1,8.87-2.19l.22.26A30,30,0,0,0,124,108.86a6.23,6.23,0,0,0,2.58-1.14A5.12,5.12,0,0,1,133,108,5,5,0,0,1,134,114.32ZM106.51,87.55a5.1,5.1,0,0,1,4.74-3.46,6.72,6.72,0,0,0,1-.07,17,17,0,0,1,5.2-.08,16.71,16.71,0,0,1,2.88.63l.3.09c.51.17.89.31,1.29.47l.68.31.12,0h0c.39.18.69.33.91.45a15.65,15.65,0,0,1,1.55,1l.5.36.16.12A5.19,5.19,0,0,1,127.62,93a5,5,0,0,1-4.71,3.51,6.4,6.4,0,0,0-1,.08l-.1,0a18.88,18.88,0,0,1-2.84.23,17.7,17.7,0,0,1-10.8-3.67A5.07,5.07,0,0,1,106.51,87.55ZM149.68,76.8a6.16,6.16,0,0,0-2.14,3.57,5.08,5.08,0,0,1-5,4,5,5,0,0,1-3.92-1.86l-.21-.25c-.54-.66-1.15-1.32-1.89-2.08l-.48-.47c-.66-.64-1.33-1.24-2-1.8l-.15-.1-.22-.18c-.72-.54-1.35-1-2-1.42l-.08-.06-.29-.19a27.7,27.7,0,0,0-2.42-1.37l-.15-.08-.08,0a30.68,30.68,0,0,0-5.51-2.11l-.07,0a30,30,0,0,0-12.9-.64,6.19,6.19,0,0,0-2.59,1.13,5.06,5.06,0,0,1-7.39-6.59,17.5,17.5,0,0,1,4.1-4.87l27-22.11a17.31,17.31,0,0,1,11.09-4h.15A17.6,17.6,0,0,1,156,41.76l3.52,4.31a17.29,17.29,0,0,1,4,11.1,17.52,17.52,0,0,1-6.42,13.59Z"/><path class="cls-2" d="M161.23,90.88l7.39-6c.94-.78,1.84-1.6,2.69-2.45a35.81,35.81,0,0,0,2.34-47.8l-.09-.11-3.49-4.25a35.79,35.79,0,0,0-50.31-5l-27,22.12a35.69,35.69,0,0,0-11,39.74C81.42,87,81,87,80.57,87A12,12,0,0,0,73,89.72l-7.38,6A35.71,35.71,0,0,0,54.82,136c-20.88,4-36.5,11.16-36.5,21.29,0,16.14,39.74,24.85,77.14,24.85s77.14-8.71,77.14-24.85c0-9.87-14.83-16.94-34.88-21l3.72-3a35.69,35.69,0,0,0,11-39.73,8.72,8.72,0,0,0,1.23.06A11.86,11.86,0,0,0,161.23,90.88Zm-14.08,53.63c14.51,4.3,19.68,9.42,19.68,12.78s-5.17,8.47-19.68,12.77c-13.77,4.07-32.13,6.31-51.69,6.31s-37.92-2.24-51.69-6.31c-14.51-4.3-19.69-9.42-19.69-12.77s5.18-8.48,19.69-12.78a130.22,130.22,0,0,1,13.57-3.16,35.36,35.36,0,0,0,3.27,4.74l3.52,4.3a35.78,35.78,0,0,0,50.32,5l17.48-14.32A133.33,133.33,0,0,1,147.15,144.51Zm5.2-56.81a5.06,5.06,0,0,0-5.74,6.82,30,30,0,0,1-8.83,34.29l-27,22.12a30,30,0,0,1-42.21-4.2l-3.53-4.3a30,30,0,0,1,4.19-42.2l7.38-6a6.19,6.19,0,0,1,3.88-1.41,8.11,8.11,0,0,1,1.33.14,5.06,5.06,0,0,0,5.75-6.82A30,30,0,0,1,96.42,51.8l27-22.12a30,30,0,0,1,42.2,4.2l3.44,4.19,0,0,0,.06A30,30,0,0,1,165,80.38l-7.38,6a6,6,0,0,1-3.86,1.41h-.18A4.76,4.76,0,0,1,152.35,87.7Z"/><path class="cls-2" d="M163.48,57.17a17.29,17.29,0,0,0-4-11.1L156,41.76a17.6,17.6,0,0,0-13.45-6.42h-.15a17.31,17.31,0,0,0-11.09,4l-27,22.11a17.5,17.5,0,0,0-4.1,4.87,5.06,5.06,0,0,0,7.39,6.59,6.19,6.19,0,0,1,2.59-1.13,30,30,0,0,1,12.9.64l.07,0a30.68,30.68,0,0,1,5.51,2.11l.08,0,.15.08A27.7,27.7,0,0,1,131.32,76l.29.19.08.06c.65.43,1.28.88,2,1.42l.22.18.15.1c.69.56,1.36,1.16,2,1.8l.48.47c.74.76,1.35,1.42,1.89,2.08l.21.25a5,5,0,0,0,5.13,1.71,5.1,5.1,0,0,0,3.75-3.9,6.16,6.16,0,0,1,2.14-3.57l7.38-6A17.52,17.52,0,0,0,163.48,57.17ZM153.4,66.29h0l-7.37,6a12,12,0,0,0-3.79,5.53c-.48-.54-1-1.1-1.6-1.71l-.51-.52c-.82-.79-1.62-1.49-2.54-2.24l-.17-.12-.17-.14c-.84-.64-1.59-1.18-2.3-1.63l-.15-.11-.35-.23c-1-.62-2-1.19-3-1.69l-.2-.1-.06,0a35.94,35.94,0,0,0-6.51-2.49l-.09,0a35.77,35.77,0,0,0-15.41-.77,12.16,12.16,0,0,0-2.07.56c.26-.25.53-.5.81-.73l27-22.12a11.66,11.66,0,0,1,7.41-2.66h.09a11.8,11.8,0,0,1,9.08,4.31l3.52,4.3a11.79,11.79,0,0,1-1.65,16.57Z"/><path class="cls-2" d="M119,96.84a18.88,18.88,0,0,0,2.84-.23l.1,0a6.4,6.4,0,0,1,1-.08A5,5,0,0,0,127.62,93a5.19,5.19,0,0,0-1.74-5.62l-.16-.12-.5-.36a15.65,15.65,0,0,0-1.55-1c-.22-.12-.52-.27-.91-.45h0l-.12,0-.68-.31c-.4-.16-.78-.3-1.29-.47l-.3-.09a16.71,16.71,0,0,0-2.88-.63,17,17,0,0,0-5.2.08,6.72,6.72,0,0,1-1,.07,5.07,5.07,0,0,0-3,9.08A17.7,17.7,0,0,0,119,96.84Zm-2.27-7.18a11.56,11.56,0,0,1,2,.43l.25.07c.25.09.48.17.74.28a2.76,2.76,0,0,0,1,.51,15,15,0,0,1-1.73.12,11.88,11.88,0,0,1-5.57-1.39A11.65,11.65,0,0,1,116.74,89.66Z"/><path class="cls-2" d="M126.6,107.72a6.23,6.23,0,0,1-2.58,1.14A30,30,0,0,1,95.76,98.31l-.22-.26a5.05,5.05,0,0,0-8.87,2.19,6.34,6.34,0,0,1-2.15,3.58l-7.38,6a17.54,17.54,0,0,0-2.45,24.68l3.52,4.31a17.58,17.58,0,0,0,24.69,2.45l27-22.12a17.55,17.55,0,0,0,4.09-4.85h0a5,5,0,0,0-1-6.29A5.12,5.12,0,0,0,126.6,107.72ZM91.8,139.5a11.78,11.78,0,0,1-5.09-1.15c2.88-.1,5.8-.16,8.75-.16l1.68,0A11.66,11.66,0,0,1,91.8,139.5Zm34.44-24.78L104.42,132.6c-3-.11-6-.17-9-.17-4.89,0-9.81.15-14.68.44l-1.63-2a11.66,11.66,0,0,1-2.66-7.45,11.79,11.79,0,0,1,4.31-9.12l7.38-6A12,12,0,0,0,92,102.75a35.76,35.76,0,0,0,33,11.79,10.75,10.75,0,0,0,2.07-.56A9.61,9.61,0,0,1,126.24,114.72Z"/></svg>