<svg id="Слой_1" data-name="Слой 1" xmlns="http://www.w3.org/2000/svg" viewBox="0 0 200 200"><defs><style>.cls-1{fill:#fff;}.cls-2{fill:#272626;}</style></defs><path class="cls-1" d="M87,20.43a2.71,2.71,0,0,0-2.71,2.72v24.4a2.71,2.71,0,1,0,5.42,0V23.15A2.72,2.72,0,0,0,87,20.43Z"/><path class="cls-1" d="M87,91.75a2.71,2.71,0,0,0-2.71,2.72v24.4a2.71,2.71,0,0,0,5.42,0V94.47A2.72,2.72,0,0,0,87,91.75Z"/><path class="cls-1" d="M55.07,35.25a2.69,2.69,0,0,0-3.83,0,2.69,2.69,0,0,0,0,3.83L68.49,56.34a2.79,2.79,0,0,0,3.84,0,2.73,2.73,0,0,0,0-3.84Z"/><path class="cls-1" d="M107.75,71a2.71,2.71,0,0,0,2.71,2.71h24.4a2.71,2.71,0,0,0,0-5.42h-24.4A2.71,2.71,0,0,0,107.75,71Z"/><path class="cls-1" d="M66.25,71a2.71,2.71,0,0,0-2.71-2.71H39.14a2.71,2.71,0,0,0,0,5.42h24.4A2.72,2.72,0,0,0,66.25,71Z"/><path class="cls-1" d="M70.41,84.89a2.69,2.69,0,0,0-1.92.79L51.24,102.93a2.7,2.7,0,0,0,0,3.84,2.78,2.78,0,0,0,3.83,0L72.33,89.51a2.71,2.71,0,0,0-1.92-4.62Z"/><path class="cls-1" d="M105.5,56.34l17.26-17.26a2.71,2.71,0,1,0-3.84-3.83L101.67,52.5a2.7,2.7,0,0,0,0,3.84A2.78,2.78,0,0,0,105.5,56.34Z"/><path class="cls-1" d="M156.65,135.56a2.68,2.68,0,0,1,1.06-1.79L176,120,105.27,89.4,115,165.88l18.32-13.76a2.7,2.7,0,0,1,3.8.54l20.82,27.71L178,165.28l-20.82-27.71A2.74,2.74,0,0,1,156.65,135.56Z"/><path class="cls-2" d="M87,16.37a6.79,6.79,0,0,0-6.78,6.78v24.4a6.78,6.78,0,1,0,13.56,0V23.15A6.79,6.79,0,0,0,87,16.37Zm2.71,31.18a2.71,2.71,0,1,1-5.42,0V23.15a2.71,2.71,0,1,1,5.42,0Z"/><path class="cls-2" d="M87,87.69a6.79,6.79,0,0,0-6.78,6.78v24.4a6.78,6.78,0,0,0,13.56,0V94.47A6.79,6.79,0,0,0,87,87.69Zm2.71,31.18a2.71,2.71,0,0,1-5.42,0V94.47a2.71,2.71,0,1,1,5.42,0Z"/><path class="cls-2" d="M108.38,59.21,125.63,42a6.77,6.77,0,1,0-9.58-9.58L98.79,49.63a6.78,6.78,0,1,0,9.59,9.58Zm-7.51-4.79a2.72,2.72,0,0,1,.8-1.92l17.25-17.25a2.71,2.71,0,0,1,3.84,3.83L105.5,56.34a2.78,2.78,0,0,1-3.83,0A2.74,2.74,0,0,1,100.87,54.42Z"/><path class="cls-2" d="M65.61,82.8,48.36,100.06a6.77,6.77,0,1,0,9.58,9.58L75.2,92.39a6.78,6.78,0,0,0-9.59-9.59Zm6.72,6.71L55.07,106.77a2.78,2.78,0,0,1-3.83,0,2.7,2.7,0,0,1,0-3.84L68.49,85.68a2.71,2.71,0,0,1,3.84,3.83Z"/><path class="cls-2" d="M103.68,71a6.79,6.79,0,0,0,6.78,6.78h24.4a6.78,6.78,0,0,0,0-13.56h-24.4A6.79,6.79,0,0,0,103.68,71Zm33.89,0a2.72,2.72,0,0,1-2.71,2.71h-24.4a2.71,2.71,0,0,1,0-5.42h24.4A2.71,2.71,0,0,1,137.57,71Z"/><path class="cls-2" d="M70.32,71a6.79,6.79,0,0,0-6.78-6.78H39.14a6.78,6.78,0,0,0,0,13.56h24.4A6.79,6.79,0,0,0,70.32,71ZM36.43,71a2.71,2.71,0,0,1,2.71-2.71h24.4a2.71,2.71,0,0,1,0,5.42H39.14A2.71,2.71,0,0,1,36.43,71Z"/><path class="cls-2" d="M58,32.37a6.8,6.8,0,0,0-9.59,0,6.78,6.78,0,0,0,0,9.58L65.61,59.21a6.78,6.78,0,1,0,9.59-9.58Zm14.38,24a2.79,2.79,0,0,1-3.84,0L51.24,39.08a2.69,2.69,0,0,1,0-3.83,2.69,2.69,0,0,1,3.83,0L72.33,52.5a2.73,2.73,0,0,1,0,3.84Z"/><path class="cls-2" d="M163.13,136.48,183,121.54a2.72,2.72,0,0,0-.55-4.66l-79.4-34.34a2.71,2.71,0,0,0-3.77,2.83l10.88,85.82a2.72,2.72,0,0,0,1.64,2.16,2.7,2.7,0,0,0,2.68-.33l19.88-14.94,20.82,27.72a2.75,2.75,0,0,0,2.17,1.08,2.69,2.69,0,0,0,1.63-.55L183.41,168a2.69,2.69,0,0,0,.54-3.79Zm-5.23,43.89-20.82-27.71a2.7,2.7,0,0,0-3.8-.54L115,165.88,105.27,89.4,176,120l-18.31,13.76a2.68,2.68,0,0,0-1.06,1.79,2.74,2.74,0,0,0,.52,2L178,165.28Z"/></svg>