<svg id="Слой_1" data-name="Слой 1" xmlns="http://www.w3.org/2000/svg" viewBox="0 0 200 200"><defs><style>.cls-1{fill:#fff;}.cls-2{fill:#272626;}</style></defs><path class="cls-1" d="M161.07,163.52a3.63,3.63,0,0,1-3.63,3.63H42.56a3.63,3.63,0,0,1-3.63-3.63V143.93H26.78v35.42H173.23V143.93H161.07Z"/><rect class="cls-1" x="77.86" y="20.65" width="44.29" height="10.8"/><path class="cls-1" d="M98,142.45a3,3,0,0,0,2,.6h0a3,3,0,0,0,2-.6l52.73-61.8a3.91,3.91,0,0,0-1.47-.26H125.35a3.63,3.63,0,0,1-3.63-3.63V52.22H77.48V76.76a3.62,3.62,0,0,1-3.62,3.63H46.73a4,4,0,0,0-1.48.26l26.1,30.58Z"/><path class="cls-2" d="M174.47,136.67H159.81a6,6,0,0,0-6,6V159.9H46.19V142.68a6,6,0,0,0-6-6H25.52a6,6,0,0,0-6,6V180.6a6,6,0,0,0,6,6h149a6,6,0,0,0,6-6V142.68A6,6,0,0,0,174.47,136.67Zm-1.24,42.68H26.78V143.93H38.93v19.59a3.63,3.63,0,0,0,3.63,3.63H157.44a3.63,3.63,0,0,0,3.63-3.63V143.93h12.16Z"/><path class="cls-2" d="M77,38.7h46a6.4,6.4,0,0,0,6.4-6.39V19.8a6.4,6.4,0,0,0-6.4-6.39H77a6.4,6.4,0,0,0-6.39,6.39V32.31A6.4,6.4,0,0,0,77,38.7Zm.86-18.05h44.29V31.46H77.86Z"/><path class="cls-2" d="M65.83,115.94l26.64,31.22A9.81,9.81,0,0,0,100,150.3h0a9.8,9.8,0,0,0,7.54-3.14l53.27-62.44a6.27,6.27,0,0,0,1-6.84c-1.33-2.89-4.69-4.74-8.56-4.74H129V51a6,6,0,0,0-6-6H76.23a6,6,0,0,0-6,6V73.14H46.73c-3.87,0-7.24,1.85-8.57,4.74a6.29,6.29,0,0,0,1,6.84ZM46.73,80.39H73.86a3.62,3.62,0,0,0,3.62-3.63V52.22h44.24V76.76a3.63,3.63,0,0,0,3.63,3.63h27.93a3.91,3.91,0,0,1,1.47.26L102,142.45a3,3,0,0,1-2,.6h0a3,3,0,0,1-2-.6L71.35,111.23,45.25,80.65A4,4,0,0,1,46.73,80.39Z"/></svg>