<svg id="Слой_1" data-name="Слой 1" xmlns="http://www.w3.org/2000/svg" viewBox="0 0 335.27 315.39"><defs><style>.cls-1{fill:#f3e600;}.cls-2{fill:#12100b;}</style></defs><path class="cls-1" d="M167.31,19.29A273.52,273.52,0,0,0,34.43,249.44C76.19,272.72,122,285,167.31,285s91.12-12.29,132.88-35.57A273.52,273.52,0,0,0,167.31,19.29Z"/><path class="cls-2" d="M299.33,185.05q-1.5-6-3.28-11.86-.45-1.53-.93-3-.89-2.83-1.83-5.65c-.45-1.36-.92-2.72-1.4-4.08q-3.66-10.37-8.1-20.39-2.67-6-5.61-11.92A281,281,0,0,0,167.31,10.4h0A281.05,281.05,0,0,0,56.44,128.12Q53.5,134,50.83,140q-4.44,10-8.1,20.39c-.48,1.35-.95,2.72-1.4,4.08q-.94,2.82-1.83,5.65-.48,1.5-.93,3-1.77,5.88-3.28,11.86t-2.72,11.86a281.49,281.49,0,0,0-5.83,57h0c43.49,25.11,92,38.78,140.57,38.78S264.39,279,307.88,253.88a281.49,281.49,0,0,0-5.83-57Q300.81,191,299.33,185.05Zm-132,100C122,285,76.19,272.72,34.43,249.44A273.52,273.52,0,0,1,167.31,19.29,273.52,273.52,0,0,1,300.19,249.44C258.43,272.72,212.58,285,167.31,285Z"/><path class="cls-2" d="M167.31,28.59h0A250.22,250.22,0,0,0,42.2,245.29h0a250.24,250.24,0,0,0,250.22,0h0A250.22,250.22,0,0,0,167.31,28.59ZM79.79,122.52A245.87,245.87,0,0,1,167.31,34,245.36,245.36,0,0,1,287.23,230.22H47.39A245.76,245.76,0,0,1,79.79,122.52Z"/><path class="cls-2" d="M124.44,149v5.1h1v-6.29h-.79a1.39,1.39,0,0,1-.45.54,1.43,1.43,0,0,1-.62.24v.71a1.29,1.29,0,0,0,.47-.08A.8.8,0,0,0,124.44,149Z"/><path class="cls-2" d="M126.93,149.53a3.28,3.28,0,0,1,0-.49c.05-.29.17-.45.38-.45s.37.27.37.81a2.29,2.29,0,0,1-.3,1.27c-.08.11-.21.3-.39.59l-.28.44a5.74,5.74,0,0,0-.54,1.09,2.69,2.69,0,0,0-.18,1v.37h2.53v-.75H127a4.66,4.66,0,0,1,.73-1.5,11.38,11.38,0,0,0,.63-1,2.74,2.74,0,0,0,.32-1.34,2.3,2.3,0,0,0-.3-1.24,1,1,0,0,0-.41-.37,1.11,1.11,0,0,0-.58-.14,2.29,2.29,0,0,0-.56.06,1.12,1.12,0,0,0-.65.53,3.68,3.68,0,0,0-.23,1.58v.38h1Z"/><path class="cls-2" d="M139.83,152.74v5.1h1v-6.29h-.8a1.37,1.37,0,0,1-.44.54,1.43,1.43,0,0,1-.62.25v.71a1.48,1.48,0,0,0,.46-.08A.84.84,0,0,0,139.83,152.74Z"/><path class="cls-2" d="M151.93,164.12a3.23,3.23,0,0,1,0-.48c0-.3.18-.45.38-.45s.37.27.37.81a2.32,2.32,0,0,1-.3,1.27,6.54,6.54,0,0,0-.38.58l-.28.45a6.9,6.9,0,0,0-.55,1.08,2.76,2.76,0,0,0-.17,1v.38h2.53V168H152a4.52,4.52,0,0,1,.74-1.5c.2-.3.41-.64.62-1a2.66,2.66,0,0,0,.32-1.34,2.3,2.3,0,0,0-.3-1.24,1,1,0,0,0-.4-.38,1.28,1.28,0,0,0-.59-.13,2.2,2.2,0,0,0-.55.06,1.06,1.06,0,0,0-.65.53,3.49,3.49,0,0,0-.24,1.58v.38h1Z"/><path class="cls-2" d="M155.86,185.34a1.35,1.35,0,0,0,1.14-.47,2.26,2.26,0,0,0,.35-1.4,2.64,2.64,0,0,0-.16-1,1,1,0,0,0-.54-.56.86.86,0,0,0,.52-.47,1.88,1.88,0,0,0,.17-.87,1.84,1.84,0,0,0-.36-1.24,1.39,1.39,0,0,0-1.12-.41,1.35,1.35,0,0,0-1.09.39,2,2,0,0,0-.32,1.26v.2h1v-.19a1.63,1.63,0,0,1,.09-.65.36.36,0,0,1,.35-.19.4.4,0,0,1,.36.18,1.53,1.53,0,0,1,.11.7,1.51,1.51,0,0,1-.14.74.52.52,0,0,1-.49.23h-.28v.73h.29a.49.49,0,0,1,.49.25,2,2,0,0,1,.13.87,2.36,2.36,0,0,1-.1.84.38.38,0,0,1-.39.24.37.37,0,0,1-.38-.2,2.23,2.23,0,0,1-.08-.71v-.44h-1v.41a2.26,2.26,0,0,0,.31,1.34A1.31,1.31,0,0,0,155.86,185.34Z"/><path class="cls-2" d="M153.63,200.94v-1.11h.52v-.78h-.52v-4.41h-1.1l-1.48,4.48v.71h1.66v1.11Zm-1.78-1.89.86-3.1v3.1Z"/><path class="cls-2" d="M142.23,211.9a1.22,1.22,0,0,0,1.07-.42,1.58,1.58,0,0,0,.23-.62,9.41,9.41,0,0,0,.08-1.47,3.82,3.82,0,0,0-.23-1.53.84.84,0,0,0-.82-.49.91.91,0,0,0-.41.09.5.5,0,0,0-.27.21V206.4h1.55v-.86h-2.49v3.21l.9,0c0-.41.13-.61.4-.61a.3.3,0,0,1,.3.17,1.35,1.35,0,0,1,.07.51v1.61c0,.41-.11.62-.33.62h0a.41.41,0,0,1-.22,0q-.18-.1-.18-.54v-.69h-1v.79A1.16,1.16,0,0,0,142.23,211.9Z"/><path class="cls-2" d="M125.1,211.64v2.58a3.58,3.58,0,0,0,.17,1.21,1.63,1.63,0,0,0,2.5.3,2.34,2.34,0,0,0,.31-1.35V214a3,3,0,0,0-.26-1.42.92.92,0,0,0-.86-.45,1,1,0,0,0-.84.3v-.89a2.29,2.29,0,0,1,.09-.79.35.35,0,0,1,.36-.21.32.32,0,0,1,.34.2,2.53,2.53,0,0,1,.07.76v.13h1v-.33a1.91,1.91,0,0,0-.32-1.23,1.23,1.23,0,0,0-1-.36,1.93,1.93,0,0,0-.86.18C125.32,210.16,125.1,210.73,125.1,211.64Zm1,1.69a.39.39,0,0,1,.17-.24.65.65,0,0,1,.37-.1.36.36,0,0,1,.33.22,2.16,2.16,0,0,1,.1.75v.59a1.44,1.44,0,0,1-.1.63.4.4,0,0,1-.37.17.4.4,0,0,1-.39-.21,1.58,1.58,0,0,1-.11-.68Z"/><path class="cls-2" d="M111.54,207c-.07.18-.18.49-.34.93s-.35,1-.55,1.67a11.46,11.46,0,0,0-.4,2.24h1.12a14.28,14.28,0,0,1,1.07-4.48l.27-.67a1.73,1.73,0,0,0,.12-.44v-.69h-3v.83h1.91l-.07.19Z"/><path class="cls-2" d="M99.41,197.53a1.13,1.13,0,0,0-.41.56,2.15,2.15,0,0,0-.16.85,3.93,3.93,0,0,0,0,.48,1.8,1.8,0,0,0,.37,1.22,1.45,1.45,0,0,0,1.1.39,1.36,1.36,0,0,0,1.09-.4,1.77,1.77,0,0,0,.36-1.23V199a2.75,2.75,0,0,0-.14-.88,1.11,1.11,0,0,0-.4-.56,1.52,1.52,0,0,0,.54-1.36,1.78,1.78,0,0,0-.34-1.21,1.44,1.44,0,0,0-1.1-.36,1.41,1.41,0,0,0-1.11.37,1.74,1.74,0,0,0-.35,1.2A1.53,1.53,0,0,0,99.41,197.53Zm.66-2.12a.37.37,0,0,1,.25-.07.32.32,0,0,1,.38.32,2.94,2.94,0,0,1,0,.59,2.65,2.65,0,0,1,0,.63.69.69,0,0,1-.14.31.34.34,0,0,1-.23.08h0a.33.33,0,0,1-.23-.07,1.38,1.38,0,0,1-.19-.91C99.9,195.79,100,195.5,100.07,195.41Zm-.2,3.46a1.73,1.73,0,0,1,.12-.72.37.37,0,0,1,.34-.25c.28,0,.42.32.42,1v.51a2,2,0,0,1-.08.66.34.34,0,0,1-.35.18A.36.36,0,0,1,100,200a1.66,1.66,0,0,1-.09-.65Z"/><path class="cls-2" d="M96.57,182.83a1.17,1.17,0,0,0,.62-.13v.94a2.6,2.6,0,0,1,0,.55l-.09.17c0,.06-.13.09-.28.09a.31.31,0,0,1-.32-.19,2.55,2.55,0,0,1-.08-.78v-.13h-1v.34a1.73,1.73,0,0,0,.34,1.21,1.33,1.33,0,0,0,1,.37,1.25,1.25,0,0,0,1.06-.45,2.51,2.51,0,0,0,.34-1.51V180.8a5.31,5.31,0,0,0-.09-1.08,1.14,1.14,0,0,0-.41-.65,1.61,1.61,0,0,0-1-.23,1.4,1.4,0,0,0-1,.33,2.14,2.14,0,0,0-.43,1.57V181a2.72,2.72,0,0,0,.28,1.4A1,1,0,0,0,96.57,182.83Zm-.25-2.28a1.81,1.81,0,0,1,.09-.67.35.35,0,0,1,.35-.21.33.33,0,0,1,.34.21,1.72,1.72,0,0,1,.09.66v1.2c0,.2-.18.3-.43.3a.34.34,0,0,1-.35-.2,2,2,0,0,1-.09-.72Z"/><path class="cls-2" d="M97.86,163.69v5.1h1V162.5h-.79a1.31,1.31,0,0,1-.45.54,1.43,1.43,0,0,1-.62.24V164a1.29,1.29,0,0,0,.47-.08A.89.89,0,0,0,97.86,163.69Z"/><path class="cls-2" d="M100.75,168.86a1.4,1.4,0,0,0,1.16-.45,2.08,2.08,0,0,0,.36-1.32v-3a1.81,1.81,0,0,0-.37-1.25,1.43,1.43,0,0,0-1.15-.41,1.45,1.45,0,0,0-1.16.41,1.86,1.86,0,0,0-.37,1.25v3a2.08,2.08,0,0,0,.37,1.32A1.39,1.39,0,0,0,100.75,168.86Zm-.5-4.82c0-.34,0-.56.14-.65a.42.42,0,0,1,.29-.14h.22c.23.06.34.32.34.79v3.06a1.4,1.4,0,0,1-.13.75.42.42,0,0,1-.37.18.44.44,0,0,1-.37-.17,1.55,1.55,0,0,1-.12-.76Z"/><path class="cls-2" d="M109.18,152.74v5.1h1v-6.29h-.79a1.31,1.31,0,0,1-.45.54,1.34,1.34,0,0,1-.62.25v.71a1.55,1.55,0,0,0,.47-.08A.9.9,0,0,0,109.18,152.74Z"/><path class="cls-2" d="M111.3,152.74v5.1h1v-6.29h-.8a1.37,1.37,0,0,1-1.06.79v.71a1.6,1.6,0,0,0,.47-.08A.9.9,0,0,0,111.3,152.74Z"/><rect class="cls-2" x="125.72" y="156.17" width="1.63" height="2.45"/><rect class="cls-2" x="127.89" y="157.25" width="2.45" height="0.54" transform="translate(-41.12 269.35) rotate(-83.96)"/><rect class="cls-2" x="130.44" y="157.66" width="2.45" height="0.54" transform="translate(-50.11 254.03) rotate(-78.05)"/><rect class="cls-2" x="132.93" y="158.32" width="2.44" height="0.54" transform="translate(-58.08 237.32) rotate(-72.04)"/><rect class="cls-2" x="135.34" y="159.25" width="2.45" height="0.54" transform="translate(-64.66 219.57) rotate(-66.05)"/><rect class="cls-2" x="137.64" y="159.88" width="2.45" height="1.63" transform="translate(-69.74 200.55) rotate(-59.98)"/><rect class="cls-2" x="139.81" y="161.83" width="2.45" height="0.54" transform="matrix(0.59, -0.81, 0.81, 0.59, -73.01, 180.89)"/><rect class="cls-2" x="141.81" y="163.45" width="2.45" height="0.54" transform="translate(-74.34 160.24) rotate(-47.94)"/><polygon class="cls-2" points="144.13 166.57 145.95 164.93 145.58 164.53 143.77 166.16 144.13 166.57"/><rect class="cls-2" x="145.26" y="167.28" width="2.44" height="0.54" transform="translate(-70.5 118.07) rotate(-35.99)"/><rect class="cls-2" x="146.66" y="168.9" width="2.45" height="1.63" transform="translate(-65.05 96.69) rotate(-30)"/><rect class="cls-2" x="147.84" y="171.74" width="2.44" height="0.54" transform="matrix(0.91, -0.41, 0.41, 0.91, -57.09, 75.52)"/><rect class="cls-2" x="148.76" y="174.15" width="2.45" height="0.54" transform="translate(-46.47 54.74) rotate(-17.96)"/><rect class="cls-2" x="149.43" y="176.65" width="2.45" height="0.54" transform="matrix(0.98, -0.21, 0.21, 0.98, -33.33, 34.97)"/><rect class="cls-2" x="149.83" y="179.19" width="2.44" height="0.54" transform="translate(-18.1 16.95) rotate(-6.06)"/><rect class="cls-2" x="149.97" y="181.23" width="2.45" height="1.63"/><rect class="cls-2" x="150.78" y="183.4" width="0.54" height="2.44" transform="translate(-48.33 315.57) rotate(-84.01)"/><rect class="cls-2" x="150.38" y="185.95" width="0.54" height="2.45" transform="translate(-63.74 295.63) rotate(-78)"/><rect class="cls-2" x="149.71" y="188.44" width="0.54" height="2.45" transform="translate(-76.74 273.69) rotate(-72)"/><rect class="cls-2" x="148.79" y="190.85" width="0.54" height="2.44" transform="translate(-87.04 250.1) rotate(-65.99)"/><rect class="cls-2" x="147.07" y="193.15" width="1.63" height="2.45" transform="translate(-94.39 225.25) rotate(-60)"/><rect class="cls-2" x="146.21" y="195.31" width="0.54" height="2.45" transform="translate(-98.62 199.51) rotate(-54)"/><polygon class="cls-2" points="143.77 197.93 145.58 199.56 145.95 199.16 144.13 197.52 143.77 197.93"/><rect class="cls-2" x="142.76" y="199.14" width="0.54" height="2.44" transform="translate(-97.34 147.21) rotate(-42.01)"/><rect class="cls-2" x="140.76" y="200.77" width="0.54" height="2.45" transform="translate(-91.8 121.48) rotate(-36)"/><rect class="cls-2" x="138.05" y="202.17" width="1.63" height="2.45" transform="matrix(0.87, -0.5, 0.5, 0.87, -83.09, 96.68)"/><rect class="cls-2" x="136.29" y="203.34" width="0.54" height="2.45" transform="translate(-71.38 73.21) rotate(-23.99)"/><rect class="cls-2" x="133.88" y="204.27" width="0.54" height="2.45" transform="translate(-56.82 51.37) rotate(-17.96)"/><polygon class="cls-2" points="131.65 207.41 132.18 207.3 131.67 204.91 131.14 205.02 131.65 207.41"/><rect class="cls-2" x="128.84" y="205.34" width="0.54" height="2.45" transform="translate(-21.09 14.79) rotate(-6.06)"/><rect class="cls-2" x="125.72" y="205.48" width="1.63" height="2.45"/><rect class="cls-2" x="122.74" y="206.29" width="2.45" height="0.54" transform="translate(-94.42 308.27) rotate(-84.01)"/><polygon class="cls-2" points="121.93 205.02 121.4 204.91 120.89 207.3 121.42 207.41 121.93 205.02"/><rect class="cls-2" x="117.69" y="205.22" width="2.45" height="0.54" transform="translate(-113.27 255.07) rotate(-71.99)"/><rect class="cls-2" x="115.29" y="204.3" width="2.45" height="0.54" transform="translate(-117.74 228.05) rotate(-66.06)"/><rect class="cls-2" x="112.99" y="202.58" width="2.45" height="1.63" transform="translate(-119.04 200.6) rotate(-60)"/><rect class="cls-2" x="110.82" y="201.72" width="2.45" height="0.54" transform="translate(-117.22 173.88) rotate(-53.99)"/><rect class="cls-2" x="108.82" y="200.09" width="2.45" height="0.54" transform="translate(-112.44 147.83) rotate(-47.94)"/><polygon class="cls-2" points="109.31 197.93 108.94 197.52 107.12 199.16 107.49 199.56 109.31 197.93"/><rect class="cls-2" x="105.37" y="196.26" width="2.45" height="0.54" transform="translate(-95.19 100.25) rotate(-36.02)"/><rect class="cls-2" x="103.96" y="193.56" width="2.45" height="1.63" transform="translate(-83.1 78.64) rotate(-30)"/><rect class="cls-2" x="102.79" y="191.8" width="2.44" height="0.54" transform="translate(-69.07 58.83) rotate(-23.97)"/><rect class="cls-2" x="101.87" y="189.39" width="2.45" height="0.54" transform="translate(-53.47 41.04) rotate(-17.96)"/><rect class="cls-2" x="101.2" y="186.9" width="2.44" height="0.54" transform="translate(-36.54 25.27) rotate(-11.95)"/><polygon class="cls-2" points="103.26 184.76 103.2 184.22 100.77 184.48 100.83 185.02 103.26 184.76"/><rect class="cls-2" x="100.66" y="181.23" width="2.45" height="1.63"/><rect class="cls-2" x="101.74" y="178.24" width="0.54" height="2.44" transform="translate(-87.14 262.14) rotate(-83.99)"/><polygon class="cls-2" points="101.17 176.93 103.56 177.44 103.62 177.17 103.67 176.91 101.28 176.4 101.17 176.93"/><rect class="cls-2" x="102.82" y="173.2" width="0.54" height="2.45" transform="translate(-94.65 218.58) rotate(-72)"/><polygon class="cls-2" points="105.13 172.51 105.24 172.26 103.01 171.27 102.9 171.52 102.79 171.77 105.02 172.76 105.13 172.51"/><polygon class="cls-2" points="106.65 169.62 104.53 168.4 104.13 169.1 103.72 169.81 105.84 171.03 106.65 169.62"/><polygon class="cls-2" points="107.58 168.27 107.74 168.05 105.76 166.61 105.44 167.05 107.42 168.49 107.58 168.27"/><polygon class="cls-2" points="109.12 166.36 109.31 166.16 107.49 164.53 107.31 164.73 107.12 164.93 108.94 166.57 109.12 166.36"/><polygon class="cls-2" points="111.06 164.45 109.42 162.63 109.02 163 110.66 164.81 110.86 164.63 111.06 164.45"/><polygon class="cls-2" points="112.98 162.93 111.55 160.95 111.33 161.11 111.11 161.27 112.54 163.25 112.98 162.93"/><polygon class="cls-2" points="114.82 161.75 115.53 161.34 114.3 159.22 112.89 160.04 114.11 162.16 114.82 161.75"/><polygon class="cls-2" points="117.25 160.53 116.26 158.29 116.01 158.4 115.76 158.51 116.76 160.75 117.25 160.53"/><polygon class="cls-2" points="119.3 159.76 119.55 159.68 118.8 157.35 118.54 157.43 118.28 157.52 119.04 159.84 119.3 159.76"/><rect class="cls-2" x="121.14" y="156.7" width="0.54" height="2.45" transform="translate(-30.18 28.69) rotate(-12)"/><polygon class="cls-2" points="124.36 158.71 124.1 156.28 123.83 156.31 123.56 156.34 123.82 158.77 124.36 158.71"/><path class="cls-2" d="M123.17,178.19a5.12,5.12,0,0,0,3.37,9,5,5,0,0,0,2.08-.45l7.9,12.35a.75.75,0,0,0,.65.35.77.77,0,0,0,.65-1.19l-7.9-12.34a5.12,5.12,0,0,0,0-7.69l3.89-16.65-1.31-.38-1.3-.38L125.45,177a5.38,5.38,0,0,0-1,.33l-1-1.58a.77.77,0,0,0-1.07-.23.76.76,0,0,0-.23,1.06Zm8.38-13.77-3,12.9a5.49,5.49,0,0,0-1.42-.37Zm-5,14.85a2.77,2.77,0,1,1-2.77,2.77A2.77,2.77,0,0,1,126.54,179.27Z"/><path class="cls-2" d="M126.54,184A1.94,1.94,0,1,0,124.6,182,1.94,1.94,0,0,0,126.54,184Z"/><path class="cls-2" d="M206,149v5.1h1v-6.29h-.8a1.31,1.31,0,0,1-.45.54,1.45,1.45,0,0,1-.61.24v.71a1.24,1.24,0,0,0,.46-.08A.8.8,0,0,0,206,149Z"/><path class="cls-2" d="M208.52,149.53a3.28,3.28,0,0,1,0-.49c0-.29.18-.45.38-.45s.37.27.37.81a2.29,2.29,0,0,1-.3,1.27c-.08.11-.21.3-.39.59l-.27.44a6.55,6.55,0,0,0-.55,1.09,2.68,2.68,0,0,0-.17,1v.37h2.52v-.75h-1.55a4.71,4.71,0,0,1,.74-1.5c.2-.3.41-.64.62-1a2.63,2.63,0,0,0,.32-1.34,2.3,2.3,0,0,0-.3-1.24,1,1,0,0,0-.4-.37,1.17,1.17,0,0,0-.59-.14,2.15,2.15,0,0,0-.55.06,1.06,1.06,0,0,0-.65.53,3.49,3.49,0,0,0-.24,1.58v.38h1Z"/><path class="cls-2" d="M221.43,152.74v5.1h1v-6.29h-.79a1.48,1.48,0,0,1-.45.54,1.38,1.38,0,0,1-.62.25v.71a1.6,1.6,0,0,0,.47-.08A.9.9,0,0,0,221.43,152.74Z"/><path class="cls-2" d="M233.53,164.12a3.23,3.23,0,0,1,0-.48c.05-.3.17-.45.38-.45s.36.27.36.81a2.32,2.32,0,0,1-.3,1.27,6.54,6.54,0,0,0-.38.58l-.28.45a6.9,6.9,0,0,0-.55,1.08,3,3,0,0,0-.17,1v.38h2.53V168H233.6a4.47,4.47,0,0,1,.73-1.5,11.38,11.38,0,0,0,.63-1,2.77,2.77,0,0,0,.32-1.34,2.3,2.3,0,0,0-.3-1.24,1.15,1.15,0,0,0-.41-.38,1.24,1.24,0,0,0-.58-.13,2.23,2.23,0,0,0-.56.06,1.09,1.09,0,0,0-.65.53,3.68,3.68,0,0,0-.23,1.58v.38h1Z"/><path class="cls-2" d="M237.45,185.34a1.35,1.35,0,0,0,1.14-.47,2.25,2.25,0,0,0,.36-1.4,2.85,2.85,0,0,0-.16-1,1,1,0,0,0-.55-.56.83.83,0,0,0,.52-.47,1.87,1.87,0,0,0,.18-.87,1.84,1.84,0,0,0-.36-1.24,1.41,1.41,0,0,0-1.13-.41,1.35,1.35,0,0,0-1.09.39,2,2,0,0,0-.32,1.26v.2h1v-.19a1.43,1.43,0,0,1,.1-.65.34.34,0,0,1,.34-.19.4.4,0,0,1,.36.18,2.22,2.22,0,0,1,0,1.44.54.54,0,0,1-.5.23H237v.73h.29a.48.48,0,0,1,.49.25,2,2,0,0,1,.13.87,2.36,2.36,0,0,1-.1.84.37.37,0,0,1-.38.24c-.2,0-.32-.06-.38-.2a1.92,1.92,0,0,1-.09-.71v-.44h-1v.41a2.26,2.26,0,0,0,.32,1.34A1.3,1.3,0,0,0,237.45,185.34Z"/><path class="cls-2" d="M235.22,200.94v-1.11h.52v-.78h-.52v-4.41h-1.09l-1.48,4.48v.71h1.66v1.11Zm-1.78-1.89.87-3.1v3.1Z"/><path class="cls-2" d="M223.83,211.9a1.2,1.2,0,0,0,1.06-.42,1.44,1.44,0,0,0,.23-.62,8.28,8.28,0,0,0,.08-1.47,3.65,3.65,0,0,0-.23-1.53.83.83,0,0,0-.82-.49,1,1,0,0,0-.41.09.47.47,0,0,0-.26.21V206.4H225v-.86h-2.49v3.21l.91,0c0-.41.13-.61.39-.61a.3.3,0,0,1,.3.17,1.32,1.32,0,0,1,.08.51v1.61c0,.41-.11.62-.34.62h0a.43.43,0,0,1-.22,0q-.18-.1-.18-.54v-.69h-1v.79A1.17,1.17,0,0,0,223.83,211.9Z"/><path class="cls-2" d="M206.69,211.64v2.58a3.32,3.32,0,0,0,.18,1.21,1.27,1.27,0,0,0,1.34.75,1.31,1.31,0,0,0,1.16-.45,2.43,2.43,0,0,0,.3-1.35V214a3,3,0,0,0-.26-1.42.91.91,0,0,0-.86-.45,1,1,0,0,0-.83.3v-.89a2.36,2.36,0,0,1,.08-.79.35.35,0,0,1,.36-.21.33.33,0,0,1,.35.2,2.93,2.93,0,0,1,.07.76v.13h.95v-.33a1.91,1.91,0,0,0-.31-1.23,1.26,1.26,0,0,0-1-.36,1.93,1.93,0,0,0-.86.18C206.92,210.16,206.69,210.73,206.69,211.64Zm1,1.69a.37.37,0,0,1,.16-.24.67.67,0,0,1,.37-.1.34.34,0,0,1,.33.22,1.94,1.94,0,0,1,.1.75v.59a1.31,1.31,0,0,1-.1.63.47.47,0,0,1-.75,0,1.44,1.44,0,0,1-.11-.68Z"/><path class="cls-2" d="M193.14,207c-.07.18-.19.49-.35.93s-.34,1-.55,1.67a10.77,10.77,0,0,0-.39,2.24H193a14,14,0,0,1,1.06-4.48l.27-.67a1.73,1.73,0,0,0,.12-.44v-.69h-3v.83h1.91a.71.71,0,0,1-.06.19C193.26,206.66,193.2,206.8,193.14,207Z"/><path class="cls-2" d="M181,197.53a1.08,1.08,0,0,0-.42.56,2.34,2.34,0,0,0-.16.85c0,.3,0,.46,0,.48a1.8,1.8,0,0,0,.38,1.22,1.43,1.43,0,0,0,1.1.39,1.34,1.34,0,0,0,1.08-.4,1.82,1.82,0,0,0,.37-1.23V199a2.5,2.5,0,0,0-.15-.88,1.11,1.11,0,0,0-.4-.56,1.52,1.52,0,0,0,.54-1.36A1.79,1.79,0,0,0,183,195a1.47,1.47,0,0,0-1.11-.36,1.44,1.44,0,0,0-1.11.37,1.74,1.74,0,0,0-.34,1.2A1.53,1.53,0,0,0,181,197.53Zm.66-2.12a.36.36,0,0,1,.25-.07.38.38,0,0,1,.24.06.42.42,0,0,1,.13.26,2.79,2.79,0,0,1,.05.59,2.57,2.57,0,0,1-.06.63.6.6,0,0,1-.14.31.31.31,0,0,1-.22.08h0a.35.35,0,0,1-.23-.07,1.44,1.44,0,0,1-.19-.91Q181.49,195.55,181.67,195.41Zm-.21,3.46a1.73,1.73,0,0,1,.12-.72.38.38,0,0,1,.34-.25c.28,0,.42.32.42,1v.51a1.73,1.73,0,0,1-.08.66c0,.12-.16.18-.35.18a.36.36,0,0,1-.36-.18,1.66,1.66,0,0,1-.09-.65Z"/><path class="cls-2" d="M178.16,182.83a1.15,1.15,0,0,0,.62-.13v.94a2.6,2.6,0,0,1,0,.55.56.56,0,0,1-.09.17c0,.06-.13.09-.28.09a.3.3,0,0,1-.31-.19,2.18,2.18,0,0,1-.09-.78v-.13h-1v.34a1.84,1.84,0,0,0,.34,1.21,1.33,1.33,0,0,0,1.05.37,1.25,1.25,0,0,0,1.06-.45,2.51,2.51,0,0,0,.34-1.51V180.8a5.31,5.31,0,0,0-.09-1.08,1.13,1.13,0,0,0-.4-.65,1.66,1.66,0,0,0-1-.23,1.43,1.43,0,0,0-1,.33,2.14,2.14,0,0,0-.43,1.57V181a2.72,2.72,0,0,0,.28,1.4A1.05,1.05,0,0,0,178.16,182.83Zm-.25-2.28a1.81,1.81,0,0,1,.09-.67.36.36,0,0,1,.35-.21.33.33,0,0,1,.34.21,1.72,1.72,0,0,1,.09.66v1.2c0,.2-.18.3-.43.3a.34.34,0,0,1-.35-.2,2,2,0,0,1-.09-.72Z"/><path class="cls-2" d="M179.45,163.69v5.1h1V162.5h-.8a1.37,1.37,0,0,1-.44.54,1.54,1.54,0,0,1-.62.24V164a1.24,1.24,0,0,0,.46-.08A.89.89,0,0,0,179.45,163.69Z"/><path class="cls-2" d="M182.34,168.86a1.4,1.4,0,0,0,1.16-.45,2.08,2.08,0,0,0,.36-1.32v-3a1.86,1.86,0,0,0-.36-1.25,1.85,1.85,0,0,0-2.32,0,1.86,1.86,0,0,0-.36,1.25v3a2.08,2.08,0,0,0,.36,1.32A1.4,1.4,0,0,0,182.34,168.86Zm-.5-4.82a1,1,0,0,1,.14-.65.42.42,0,0,1,.29-.14h.22c.23.06.35.32.35.79v3.06a1.5,1.5,0,0,1-.13.75.49.49,0,0,1-.75,0,1.55,1.55,0,0,1-.12-.76Z"/><path class="cls-2" d="M190.77,152.74v5.1h1v-6.29H191a1.37,1.37,0,0,1-.44.54,1.43,1.43,0,0,1-.62.25v.71a1.48,1.48,0,0,0,.46-.08A.84.84,0,0,0,190.77,152.74Z"/><path class="cls-2" d="M192.89,152.74v5.1h1v-6.29h-.79a1.31,1.31,0,0,1-.45.54,1.34,1.34,0,0,1-.62.25v.71a1.55,1.55,0,0,0,.47-.08A.9.9,0,0,0,192.89,152.74Z"/><rect class="cls-2" x="207.31" y="156.17" width="1.63" height="2.45"/><rect class="cls-2" x="209.48" y="157.25" width="2.45" height="0.54" transform="translate(31.9 350.5) rotate(-83.96)"/><rect class="cls-2" x="212.03" y="157.66" width="2.45" height="0.54" transform="translate(14.26 333.48) rotate(-77.94)"/><rect class="cls-2" x="214.53" y="158.32" width="2.44" height="0.54" transform="translate(-1.66 314.91) rotate(-72.04)"/><rect class="cls-2" x="216.93" y="159.25" width="2.45" height="0.54" transform="translate(-16.18 294.15) rotate(-66.05)"/><rect class="cls-2" x="219.23" y="159.88" width="2.45" height="1.63" transform="translate(-28.96 271.2) rotate(-59.98)"/><rect class="cls-2" x="221.4" y="161.83" width="2.44" height="0.54" transform="translate(-39.37 246.94) rotate(-54)"/><polygon class="cls-2" points="225.65 163 225.24 162.63 223.61 164.45 224.01 164.81 225.65 163"/><rect class="cls-2" x="225.23" y="165.27" width="2.45" height="0.54" transform="translate(-52.61 193.99) rotate(-41.99)"/><rect class="cls-2" x="226.85" y="167.28" width="2.44" height="0.54" transform="translate(-54.93 166.03) rotate(-35.99)"/><rect class="cls-2" x="228.26" y="168.9" width="2.44" height="1.63" transform="translate(-54.12 137.5) rotate(-30)"/><rect class="cls-2" x="229.43" y="171.74" width="2.45" height="0.54" transform="translate(-50.02 108.69) rotate(-24)"/><rect class="cls-2" x="230.35" y="174.15" width="2.44" height="0.54" transform="translate(-42.49 79.89) rotate(-17.96)"/><rect class="cls-2" x="231.02" y="176.65" width="2.44" height="0.54" transform="translate(-31.62 51.96) rotate(-11.96)"/><rect class="cls-2" x="231.43" y="179.19" width="2.45" height="0.54" transform="translate(-17.64 25.56) rotate(-6.06)"/><rect class="cls-2" x="231.56" y="181.23" width="2.45" height="1.63"/><rect class="cls-2" x="232.38" y="183.4" width="0.54" height="2.45" transform="translate(24.75 396.72) rotate(-84.01)"/><rect class="cls-2" x="231.97" y="185.95" width="0.54" height="2.44" transform="translate(0.88 375.43) rotate(-78)"/><rect class="cls-2" x="231.31" y="188.44" width="0.54" height="2.44" transform="translate(-20.38 351.27) rotate(-71.99)"/><rect class="cls-2" x="230.38" y="190.85" width="0.54" height="2.45" transform="translate(-38.63 324.66) rotate(-66)"/><rect class="cls-2" x="228.67" y="193.15" width="1.63" height="2.44" transform="translate(-53.6 295.9) rotate(-60)"/><rect class="cls-2" x="227.8" y="195.31" width="0.54" height="2.45" transform="translate(-64.99 265.52) rotate(-54)"/><rect class="cls-2" x="226.18" y="197.32" width="0.54" height="2.45" transform="translate(-72.61 234.01) rotate(-48.01)"/><polygon class="cls-2" points="225.65 201.09 224.01 199.28 223.61 199.64 225.24 201.46 225.65 201.09"/><rect class="cls-2" x="222.35" y="200.77" width="0.54" height="2.44" transform="translate(-76.21 169.4) rotate(-35.99)"/><rect class="cls-2" x="219.64" y="202.17" width="1.63" height="2.45" transform="translate(-72.16 137.47) rotate(-30)"/><rect class="cls-2" x="217.89" y="203.34" width="0.54" height="2.45" transform="translate(-64.25 106.16) rotate(-23.95)"/><rect class="cls-2" x="215.48" y="204.27" width="0.54" height="2.45" transform="translate(-52.86 76.56) rotate(-17.96)"/><rect class="cls-2" x="212.98" y="204.94" width="0.54" height="2.44" transform="translate(-38.3 48.99) rotate(-12.03)"/><rect class="cls-2" x="210.43" y="205.34" width="0.54" height="2.45" transform="translate(-20.64 23.41) rotate(-6.06)"/><rect class="cls-2" x="207.31" y="205.48" width="1.63" height="2.45"/><rect class="cls-2" x="204.33" y="206.29" width="2.45" height="0.54" transform="translate(-21.58 389.14) rotate(-83.93)"/><polygon class="cls-2" points="203.52 205.02 202.99 204.91 202.48 207.3 203.01 207.41 203.52 205.02"/><rect class="cls-2" x="199.29" y="205.22" width="2.45" height="0.54" transform="translate(-56.9 332.66) rotate(-71.99)"/><rect class="cls-2" x="196.88" y="204.3" width="2.45" height="0.54" transform="translate(-69.25 302.62) rotate(-66.06)"/><rect class="cls-2" x="194.58" y="202.58" width="2.45" height="1.63" transform="translate(-78.24 271.29) rotate(-60)"/><rect class="cls-2" x="192.42" y="201.72" width="2.45" height="0.54" transform="translate(-83.59 239.91) rotate(-54)"/><rect class="cls-2" x="190.41" y="200.09" width="2.44" height="0.54" transform="translate(-85.5 208.41) rotate(-47.94)"/><rect class="cls-2" x="188.58" y="198.27" width="2.45" height="0.54" transform="translate(-84.1 178.05) rotate(-42.01)"/><rect class="cls-2" x="186.96" y="196.26" width="2.45" height="0.54" transform="translate(-79.63 148.41) rotate(-36.06)"/><rect class="cls-2" x="185.56" y="193.56" width="2.44" height="1.63" transform="translate(-72.17 119.45) rotate(-30)"/><rect class="cls-2" x="184.38" y="191.8" width="2.45" height="0.54" transform="translate(-62.03 91.98) rotate(-23.97)"/><rect class="cls-2" x="183.46" y="189.39" width="2.44" height="0.54" transform="translate(-49.49 66.21) rotate(-17.96)"/><rect class="cls-2" x="182.79" y="186.9" width="2.44" height="0.54" transform="translate(-34.72 42.09) rotate(-11.93)"/><rect class="cls-2" x="182.39" y="184.35" width="2.45" height="0.54" transform="translate(-18.11 19.98) rotate(-5.94)"/><rect class="cls-2" x="182.25" y="181.23" width="2.45" height="1.63"/><polygon class="cls-2" points="182.37 179.61 184.8 179.87 184.85 179.32 182.42 179.07 182.37 179.61"/><polygon class="cls-2" points="182.82 176.66 182.76 176.93 185.15 177.44 185.21 177.17 185.26 176.91 182.87 176.4 182.82 176.66"/><polygon class="cls-2" points="185.84 174.8 185.93 174.54 183.6 173.79 183.52 174.05 183.44 174.31 185.76 175.06 185.84 174.8"/><polygon class="cls-2" points="186.72 172.51 186.83 172.26 184.6 171.27 184.38 171.77 186.61 172.76 186.72 172.51"/><polygon class="cls-2" points="187.84 170.33 188.24 169.62 186.13 168.4 185.72 169.1 185.31 169.81 187.43 171.03 187.84 170.33"/><polygon class="cls-2" points="189.17 168.27 189.33 168.05 187.35 166.61 187.19 166.83 187.03 167.05 189.01 168.49 189.17 168.27"/><rect class="cls-2" x="189.54" y="164.32" width="0.54" height="2.45" transform="translate(-60.22 195.86) rotate(-48.01)"/><polygon class="cls-2" points="192.65 164.45 191.02 162.63 190.61 163 192.25 164.81 192.45 164.63 192.65 164.45"/><polygon class="cls-2" points="194.58 162.93 193.14 160.95 192.92 161.11 192.7 161.27 194.14 163.25 194.58 162.93"/><polygon class="cls-2" points="196.41 161.75 197.12 161.34 195.9 159.22 194.49 160.04 195.71 162.16 196.41 161.75"/><rect class="cls-2" x="197.83" y="158.3" width="0.54" height="2.45" transform="translate(-47.77 94.41) rotate(-24.01)"/><polygon class="cls-2" points="200.89 159.76 201.15 159.68 200.39 157.35 200.13 157.43 199.87 157.52 200.63 159.84 200.89 159.76"/><rect class="cls-2" x="202.73" y="156.7" width="0.54" height="2.45" transform="translate(-28.39 45.64) rotate(-11.99)"/><polygon class="cls-2" points="205.95 158.71 205.69 156.28 205.43 156.31 205.15 156.34 205.41 158.77 205.95 158.71"/><path class="cls-2" d="M206.65,187l-2,14.51a.77.77,0,0,0,.66.88h.1a.78.78,0,0,0,.77-.66l2-14.51a5.11,5.11,0,0,0,4.76-6.89l11.8-12-.92-1-.92-1-13.32,10.88.26-1.83a.77.77,0,1,0-1.53-.21l-.26,1.85a5.12,5.12,0,0,0-1.4,10Zm14.67-17.43-9.17,9.35a5.24,5.24,0,0,0-1.05-1Zm-13.19,9.75a2.77,2.77,0,1,1-2.77,2.77A2.77,2.77,0,0,1,208.13,179.27Z"/><path class="cls-2" d="M208.13,184A1.94,1.94,0,1,0,206.2,182,1.93,1.93,0,0,0,208.13,184Z"/><path class="cls-2" d="M249,223.68h1.63V140.4H84v83.28H249ZM88.25,222.05V144.22H249v77.83Z"/><polygon class="cls-2" points="111.65 219.78 121.28 219.95 130.9 220.07 150.16 220.26 169.41 220.39 188.67 220.47 207.92 220.5 227.18 220.47 246.43 220.39 247.41 220.39 247.41 219.41 247.35 210.18 247.28 200.94 247.08 182.47 246.96 173.24 246.8 164 246.64 154.77 246.43 145.53 246.23 154.77 246.06 164 245.9 173.24 245.78 182.47 245.59 200.94 245.51 210.18 245.46 218.44 227.18 218.36 207.92 218.33 188.67 218.36 169.41 218.44 150.16 218.57 130.9 218.76 121.28 218.88 111.65 219.05 102.02 219.21 92.39 219.42 102.02 219.62 111.65 219.78"/><path class="cls-2" d="M243.21,228.1h8.93a3,3,0,0,0,3-2.94V138.93a3,3,0,0,0-3-3H211.87v-2.57h3.29v-1.6a2.57,2.57,0,0,0-2.57-2.57h-8.78a2.57,2.57,0,0,0-2.57,2.57v1.6h3.29V136H129.92v-9.09h3.29v-1.6a2.57,2.57,0,0,0-2.57-2.57h-8.78a2.57,2.57,0,0,0-2.56,2.57v1.6h3.28V136H82.48a3,3,0,0,0-3,3v86.23a3,3,0,0,0,3,2.94h8.93a2.57,2.57,0,0,0,2.52,2.12h8.78a2.57,2.57,0,0,0,2.52-2.12H229.39a2.57,2.57,0,0,0,2.52,2.12h8.78A2.57,2.57,0,0,0,243.21,228.1Zm-39.83-96.77a9.74,9.74,0,0,1,1.5-.31c.45-.07,1-.13,1.55-.17s1.17-.07,1.77-.07,1.2,0,1.77.07,1.09.09,1.54.16a10.37,10.37,0,0,1,1.51.32,11.41,11.41,0,0,1-1.51.31c-.45.07-1,.13-1.54.16s-1.17.07-1.77.07-1.21,0-1.77-.07a15.49,15.49,0,0,1-1.55-.16A11.46,11.46,0,0,1,203.38,131.33Zm-82.25-6.52a9.74,9.74,0,0,1,1.5-.31c.46-.07,1-.13,1.55-.17s1.17-.07,1.77-.07,1.21,0,1.77.07,1.09.09,1.54.16a10.37,10.37,0,0,1,1.51.32,11.41,11.41,0,0,1-1.51.31,15.27,15.27,0,0,1-1.54.16c-.56,0-1.17.07-1.77.07s-1.21,0-1.77-.07-1.09-.09-1.55-.16A11.46,11.46,0,0,1,121.13,124.81ZM82.48,225.16V138.93H252.14v86.23Z"/><rect class="cls-2" x="166.22" y="148.84" width="2.17" height="66.4"/><path class="cls-2" d="M186.06,269a1.26,1.26,0,0,0,.58-1.06,1.44,1.44,0,0,0-.36-.94,1.52,1.52,0,0,0-.92-.55l-1.78.2v2.78h.71A3,3,0,0,0,186.06,269Z"/><path class="cls-2" d="M185.16,273.51a2,2,0,0,0,1.4-.44,1.4,1.4,0,0,0,.49-1.07,1.56,1.56,0,0,0-.62-1.24,2.26,2.26,0,0,0-1.54-.52h-1.31v3.15l1.29.11Z"/></svg>