<svg id="Слой_1" data-name="Слой 1" xmlns="http://www.w3.org/2000/svg" viewBox="0 0 335.27 315.39"><defs><style>.cls-1{fill:#f3e600;}.cls-2{fill:#12100b;}</style></defs><path class="cls-1" d="M94.65,64.66c-.9,0-1.84,0-2.8,0s-1.9,0-2.84-.11a20.93,20.93,0,0,1-2.7-.36A11.67,11.67,0,0,1,84,63.52a4.32,4.32,0,0,0-2.35-.21,10,10,0,0,0-2.85.92,26.53,26.53,0,0,0-3,1.78,35.89,35.89,0,0,0-3,2.32,31.47,31.47,0,0,0-2.63,2.48c-.79.81-1.52,1.57-2.1,2.25-1.14,1.37-1.85,2.3-1.85,2.3A12.13,12.13,0,0,1,68.92,75a19.83,19.83,0,0,1,7,1,5,5,0,0,0,2.67-.1,18.07,18.07,0,0,0,3.54-1.28c1.26-.59,2.66-1.24,4-2,.68-.39,1.4-.75,2.11-1.14s1.41-.78,2.1-1.18l2.07-1.14,2-1.12c1.29-.68,2.45-1.33,3.44-1.89.49-.29,1-.51,1.36-.73l1-.56.89-.5s-.71.07-1.88.13c-.58,0-1.28.07-2.06.09S95.55,64.64,94.65,64.66Z"/><path class="cls-1" d="M113.38,45.26a4,4,0,0,0-2.16-.76,12.36,12.36,0,0,0-3,.18,19.25,19.25,0,0,0-3.39.91,32.57,32.57,0,0,0-3.49,1.4c-1.13.54-2.22,1.1-3.23,1.64s-1.87,1.13-2.63,1.61-1.37.88-1.79,1.18l-.65.48a10.14,10.14,0,0,1,2.62.29,19.21,19.21,0,0,1,6.2,2.54,4.88,4.88,0,0,0,2.54.56,13.4,13.4,0,0,0,1.73-.1c.61-.08,1.29-.15,2-.26s1.41-.25,2.15-.41,1.5-.33,2.28-.49,1.56-.36,2.34-.56,1.58-.37,2.36-.56l2.3-.58c.75-.2,1.5-.35,2.21-.52l2-.5c.64-.17,1.26-.29,1.81-.43l3.69-.84-1.84-.33c-1.13-.22-2.69-.53-4.41-.92a47,47,0,0,1-5.3-1.44A14.77,14.77,0,0,1,113.38,45.26Z"/><path class="cls-1" d="M285.16,195.29a7.25,7.25,0,0,1-1.53-.89,14.05,14.05,0,0,1-1.25-1.2v7.72a24,24,0,0,1,4.22,5.4,13.36,13.36,0,0,1,1.23,2.79s.58-1,1.36-2.61a30.48,30.48,0,0,0,1.17-2.84c.4-1.06.8-2.22,1.15-3.41a35.87,35.87,0,0,0,.72-3.69,15.78,15.78,0,0,0,.15-3.54c-.19-2.26-.87-4.14-2.33-5.21a22.33,22.33,0,0,1-4.2-4.34c-.66-.84-1.28-1.72-1.86-2.59l-1.61-2.47v3.82c.17.34.43.75.69,1.27s.7,1.18,1.06,1.85a16.53,16.53,0,0,0,1.31,2,18.1,18.1,0,0,0,1.4,2c.48.58.92,1.19,1.34,1.75a3.47,3.47,0,0,1,.63,1.57,2.16,2.16,0,0,1,0,.63,2.16,2.16,0,0,0-.28-.52,5,5,0,0,0-1-1,20.63,20.63,0,0,1-1.74-1.38,20.06,20.06,0,0,1-1.73-2,17.94,17.94,0,0,1-1.22-2.33,6.34,6.34,0,0,1-.38-1.11v5.42l.09.12a12.78,12.78,0,0,0,1.08,1.43,11.93,11.93,0,0,0,1.12,1.39c.4.41.71.88,1.06,1.2s.59.69.8.89l.31.36-.47-.06A5.36,5.36,0,0,1,285.16,195.29Z"/><path class="cls-1" d="M317.93,181.34l-3.52,2-4.12,2.39c-1.46.84-2.93,1.73-4.34,2.63s-2.72,1.85-4,2.79a21.66,21.66,0,0,0-3.24,2.89,11.52,11.52,0,0,0-1.12,1.51,7.56,7.56,0,0,0-.79,1.55c-.48,1.28-.93,2.45-1.4,3.5.1-.28.21-.55.3-.84.83-2.62,1.74-5.23,2.41-7.91a128.14,128.14,0,0,0,3.31-16.27l.24-2a28.66,28.66,0,0,0,5.89-1.79,15.82,15.82,0,0,0,5.37-3.67,9,9,0,0,0,2.61-6.12,30.86,30.86,0,0,1,.36-3.83c.21-1.32.38-2.68.65-4l.84-4.05c.28-1.33.58-2.63.88-3.86s.55-2.39.79-3.44.49-2,.68-2.78l.6-2.53s-1,1-2.51,2.65-3.63,3.85-5.74,6.24c-1.09,1.21-2.18,2.45-3.21,3.71-.52.63-1,1.26-1.49,1.89s-1,1.26-1.4,1.88a22.32,22.32,0,0,0-2.12,3.68,9,9,0,0,0-1,3.47c-.06,1.11-.12,2.16-.23,3.12q-.12.89-.27,1.68c.07-.88.14-1.76.16-2.64l.1-4.14c0-.7.05-1.36,0-2.09l0-2c0-1.36,0-2.71-.14-4.1s-.18-2.75-.26-4.12l-.42-4.08c-.22-1.84-.49-3.67-.78-5.5l.47-.25a25.18,25.18,0,0,0,4.31-3,15.32,15.32,0,0,0,3.87-5,10.51,10.51,0,0,0,.89-3.11,8.42,8.42,0,0,0-.25-3.43,34.25,34.25,0,0,1-.75-3.76c-.23-1.31-.41-2.66-.55-4s-.27-2.73-.41-4.09-.21-2.65-.3-3.91c-.24-2.47-.32-4.71-.48-6.28s-.18-2.56-.18-2.56-.61,1.23-1.51,3.17c-.45,1-1,2.13-1.57,3.38s-1.2,2.63-1.81,4-1.25,2.91-1.82,4.38-1.06,2.93-1.52,4.36a21.4,21.4,0,0,0-.89,4.09,10.59,10.59,0,0,0,.12,3.58,33.16,33.16,0,0,1,.78,4c-.15-.67-.29-1.34-.45-2a136.16,136.16,0,0,0-4.71-15.11q-1.85-4.83-4-9.37a24.69,24.69,0,0,0,3.25-4.25,14.51,14.51,0,0,0,2-5.7,9.65,9.65,0,0,0-1.33-6.36c-.61-1-1.22-2.17-1.81-3.35S291.3,80,290.74,78.8s-1.09-2.5-1.58-3.74l-1.46-3.58c-.46-1.14-.86-2.24-1.26-3.2l-1-2.57c-.28-.74-.51-1.33-.67-1.73l-.24-.63s-.18,1.32-.45,3.34c-.12,1-.26,2.24-.42,3.55s-.29,2.79-.44,4.26-.26,3-.33,4.56-.15,3.07-.1,4.51a27.36,27.36,0,0,0,.41,4.09A11.31,11.31,0,0,0,284.36,91c.33.57.63,1.12.91,1.66-1.54-2.65-3.16-5.22-4.83-7.67A123.81,123.81,0,0,0,272,74c-.68-.75-1.34-1.51-2-2.26,0-.07.07-.14.11-.22A21,21,0,0,0,271.63,67a14.89,14.89,0,0,0,.16-5.82,10.42,10.42,0,0,0-3.15-5.59A37.54,37.54,0,0,1,266,52.94c-.88-1-1.79-1.95-2.66-3L262,48.4l-1.29-1.53c-.83-1-1.64-2-2.41-3-1.56-1.85-2.88-3.58-3.87-4.75l-1.56-1.92s.21,1.23.6,3.15.9,4.6,1.57,7.38c.34,1.39.66,2.89,1.06,4.32s.83,2.82,1.29,4.18A22.91,22.91,0,0,0,259,60a11,11,0,0,0,2.1,2.86c.51.46,1,.92,1.41,1.38a120.21,120.21,0,0,0-17.29-13.59c-1.14-.73-2.24-1.41-3.34-2.06a20.26,20.26,0,0,0,.13-4.9,13.08,13.08,0,0,0-1.63-5.35,11,11,0,0,0-1.86-2.44A11.26,11.26,0,0,0,235.8,34c-.54-.27-1.08-.56-1.63-.86s-1.11-.6-1.68-.93c-1.12-.64-2.24-1.38-3.38-2.08s-2.26-1.43-3.35-2.16-2.17-1.39-3.17-2.07-1.93-1.32-2.79-1.87l-2.26-1.48-2-1.34s.57,1.05,1.51,2.68l1.65,2.85,2,3.43c.73,1.2,1.51,2.39,2.31,3.6s1.62,2.41,2.48,3.49a28.84,28.84,0,0,0,2.64,3A13.23,13.23,0,0,0,231,42.27a47.56,47.56,0,0,1,5,2.95l.06.05c-2.17-1.13-4.23-2.12-6.13-3-4.43-1.92-8-3.17-10.46-4-1.23-.39-2.18-.66-2.82-.85l-1-.29.93.41c.61.27,1.51.67,2.69,1.16,2.36,1,5.77,2.63,10,4.82A151.81,151.81,0,0,1,244,52.46a130.61,130.61,0,0,1,17.26,14l2.2,2.17c.74.73,1.44,1.51,2.17,2.27,1.48,1.52,2.87,3.18,4.32,4.82.72.84,1.39,1.71,2.1,2.57S273.48,80,274.15,81l2.06,2.74,2,2.85a126.37,126.37,0,0,1,13.6,25.92,132.35,132.35,0,0,1,4.67,14.77,129.44,129.44,0,0,1,2.8,15.62c.14,1.33.27,2.67.4,4s.17,2.67.25,4,.1,2.7.13,4.06l0,2c0,.63,0,1.34,0,2L300,163c0,1.35-.18,2.7-.27,4.05-.15,2.71-.55,5.4-.88,8.09a123.68,123.68,0,0,1-3.45,15.88c-.68,2.61-1.61,5.15-2.45,7.7-.43,1.27-1,2.51-1.43,3.76s-1,2.5-1.52,3.71-1.09,2.43-1.63,3.64-1.2,2.37-1.79,3.55c-1.15,2.38-2.53,4.62-3.8,6.9l-.35.55v6.46h0V98.85l-7-3.92-4.57-2.56,2.49.32a18.56,18.56,0,0,1,2.74.84,8.08,8.08,0,0,1,2.15,1.36,5.08,5.08,0,0,1,1.11,1.4c.19.39.27.61.27.61a4.38,4.38,0,0,0-.53-.38,7.68,7.68,0,0,0-1.41-.81,12.59,12.59,0,0,0-2.11-.74l-.14,0,7,3.92v4.8a21.83,21.83,0,0,1,3.24.66,10.76,10.76,0,0,1,2.58,1.06l-.28-.76c-.2-.47-.49-1.15-.86-2s-.81-1.77-1.35-2.77-1.17-2-1.84-3.1a31.93,31.93,0,0,0-2.23-3c-.39-.47-.79-.93-1.19-1.36s-.85-.81-1.27-1.16a11.13,11.13,0,0,0-2.53-1.65,4.39,4.39,0,0,0-2.43-.37,16.67,16.67,0,0,1-5.29-.25,46.62,46.62,0,0,1-5.64-1.28c-.6-.15-1.15-.31-1.69-.46h0L198.31,51.76c1.06-3.07,1.78-5.46,1.78-7.66,0-3-1.38-8.19-10.6-9.89q-.94-.18-2-.3c-2-.25-4.11-.37-6.16-.42l-.09-.18-3.44-7.62,3.47-7.88,3.26-7.43h-33.9L154,17.81l3.47,7.88L154,33.31l-.08.18c-2.06,0-4.17.17-6.17.42-.66.08-1.31.18-1.94.3-9.22,1.7-10.6,6.93-10.6,9.89,0,2.26.75,4.72,1.86,7.91L73.67,87.22c-.54.15-1.1.31-1.69.46A47.05,47.05,0,0,1,66.34,89a16.72,16.72,0,0,1-5.3.25,4.42,4.42,0,0,0-2.43.37,11.3,11.3,0,0,0-2.52,1.65c-.42.35-.85.74-1.27,1.16s-.8.89-1.19,1.36a30.29,30.29,0,0,0-2.23,3c-.67,1-1.29,2.11-1.84,3.1s-1,2-1.35,2.77-.67,1.49-.87,2l-.27.76a10.76,10.76,0,0,1,2.58-1.06,21.56,21.56,0,0,1,3.24-.66V118c-.43.21-.86.41-1.3.6a19.09,19.09,0,0,1-5.31,1.61,4.59,4.59,0,0,0-2.32,1,9.86,9.86,0,0,0-2.07,2.25,23.79,23.79,0,0,0-1.69,3.1,26.91,26.91,0,0,0-1.29,3.52,34.73,34.73,0,0,0-.9,3.5c-.22,1.11-.39,2.15-.53,3s-.18,1.62-.23,2.13l-.06.8a12.53,12.53,0,0,1,2.28-1.72,23.21,23.21,0,0,1,7.24-2.76,5.66,5.66,0,0,0,2.47-1.44,16.91,16.91,0,0,0,2.48-2.88c.41-.55.82-1.14,1.23-1.75v15.52c-.71.71-1.51,1.54-2.46,2.42l-2.2,2c-.76.69-1.56,1.36-2.37,2a20.81,20.81,0,0,1-4.93,3,5,5,0,0,0-2.08,1.62,8.87,8.87,0,0,0-1.42,2.74,21.54,21.54,0,0,0-.8,3.45c-.1.61-.18,1.24-.24,1.87s0,1.25,0,1.87c0,1.25,0,2.48.1,3.61a28.7,28.7,0,0,0,.35,3.05c.28,1.76.53,2.89.53,2.89a12.81,12.81,0,0,1,1.87-2.31,23.92,23.92,0,0,1,6.57-4.69A5.83,5.83,0,0,0,47.89,166a13.84,13.84,0,0,0,.88-1.59c.28-.58.5-1.2.79-1.86A37.47,37.47,0,0,0,51,158.28c.19-.75.42-1.52.65-2.28s.42-1.54.6-2.3.42-1.62.63-2.4v27.11l-1.62,2.47c-.58.87-1.2,1.75-1.85,2.59a22.33,22.33,0,0,1-4.2,4.34c-1.46,1.07-2.14,2.95-2.33,5.21a14.68,14.68,0,0,0,.15,3.54,33.38,33.38,0,0,0,.72,3.69c.35,1.19.75,2.35,1.14,3.41a30.34,30.34,0,0,0,1.18,2.84c.78,1.6,1.35,2.61,1.35,2.61a13.85,13.85,0,0,1,1.24-2.79,24,24,0,0,1,4.22-5.4v19.94c-.12-.18-.24-.36-.35-.55-1.27-2.28-2.66-4.52-3.81-6.9-.59-1.18-1.22-2.35-1.78-3.55l-1.63-3.64c-.57-1.21-1-2.47-1.52-3.71s-1-2.49-1.44-3.76c-.84-2.55-1.76-5.09-2.44-7.7a123.71,123.71,0,0,1-3.46-15.88c-.32-2.69-.73-5.38-.87-8.09-.09-1.35-.23-2.7-.28-4.05l-.1-4.06c0-.67-.05-1.38,0-2l0-2c0-1.36,0-2.74.13-4.06l.24-4c.14-1.33.27-2.67.4-4a131.44,131.44,0,0,1,2.81-15.62,134.44,134.44,0,0,1,4.66-14.77A126.39,126.39,0,0,1,57.07,86.54l2-2.85L61.12,81c.66-.92,1.37-1.79,2.08-2.66s1.38-1.73,2.1-2.57c1.45-1.64,2.83-3.3,4.31-4.82.74-.76,1.44-1.54,2.18-2.27L74,66.46a131.21,131.21,0,0,1,17.25-14A153,153,0,0,1,106,43.59c4.24-2.19,7.65-3.8,10-4.82,1.19-.49,2.09-.89,2.7-1.16l.93-.41-1,.29c-.64.19-1.59.46-2.82.85-2.45.79-6,2-10.47,4-1.89.85-4,1.84-6.12,3l.06-.05a47.56,47.56,0,0,1,5-2.95,13.23,13.23,0,0,0,2.86-2.08,30.06,30.06,0,0,0,2.64-3c.86-1.08,1.69-2.27,2.48-3.49s1.58-2.4,2.3-3.6l2-3.43,1.65-2.85c.94-1.63,1.51-2.68,1.51-2.68l-2,1.34L115.47,24c-.86.55-1.79,1.22-2.8,1.87s-2.08,1.33-3.16,2.07-2.22,1.46-3.35,2.16-2.26,1.44-3.39,2.08q-.84.5-1.68.93c-.54.3-1.09.59-1.62.86a11.32,11.32,0,0,0-2.77,1.91,11,11,0,0,0-1.86,2.44,13.4,13.4,0,0,0-1.63,5.35,20.18,20.18,0,0,0,.14,4.9c-1.1.65-2.21,1.33-3.34,2.06A120.26,120.26,0,0,0,72.71,64.2c.44-.46.9-.92,1.41-1.38A10.84,10.84,0,0,0,76.23,60a22.91,22.91,0,0,0,1.63-3.7c.45-1.36.9-2.75,1.29-4.18s.72-2.93,1.06-4.32c.67-2.78,1.16-5.48,1.57-7.38s.6-3.15.6-3.15l-1.56,1.92c-1,1.17-2.31,2.9-3.87,4.75-.78,1-1.59,2-2.41,3L73.25,48.4c-.43.52-.87,1-1.29,1.56-.87,1-1.78,2-2.67,3a35.48,35.48,0,0,1-2.66,2.68,10.35,10.35,0,0,0-3.15,5.59A14.7,14.7,0,0,0,63.64,67a21,21,0,0,0,1.55,4.49l.11.22c-.67.75-1.33,1.51-2,2.26a123.74,123.74,0,0,0-8.45,11c-1.68,2.45-3.29,5-4.84,7.67.29-.54.59-1.09.92-1.66a11.6,11.6,0,0,0,1.19-3.36,27.39,27.39,0,0,0,.4-4.09c0-1.44,0-3-.09-4.51s-.19-3.06-.33-4.56-.31-2.92-.45-4.26-.29-2.52-.41-3.55c-.27-2-.45-3.34-.45-3.34l-.25.63-.66,1.73-1,2.57c-.41,1-.81,2.06-1.27,3.2s-1,2.35-1.46,3.58-1,2.51-1.57,3.74-1.08,2.5-1.67,3.67-1.2,2.3-1.81,3.35A10.67,10.67,0,0,0,39.8,89a10.32,10.32,0,0,0-.08,3.18,14.36,14.36,0,0,0,2,5.7A24.69,24.69,0,0,0,45,102.13c-1.45,3-2.81,6.15-4,9.37a134.08,134.08,0,0,0-4.71,15.11c-.16.66-.3,1.33-.45,2a35.1,35.1,0,0,1,.77-4,10.33,10.33,0,0,0,.13-3.58,21.4,21.4,0,0,0-.89-4.09c-.46-1.43-.93-2.88-1.52-4.36s-1.23-3-1.82-4.38-1.23-2.79-1.82-4l-1.56-3.38c-.9-1.94-1.51-3.17-1.51-3.17s-.07,1-.19,2.56-.23,3.81-.47,6.28c-.1,1.26-.2,2.57-.3,3.91s-.27,2.73-.41,4.09-.32,2.72-.56,4a32.06,32.06,0,0,1-.75,3.76,8.41,8.41,0,0,0-.24,3.43,10.22,10.22,0,0,0,.89,3.11,15.19,15.19,0,0,0,3.87,5,25.18,25.18,0,0,0,4.31,3l.46.25c-.28,1.83-.55,3.66-.77,5.5L33,146.64c-.09,1.37-.17,2.75-.26,4.12s-.11,2.74-.14,4.1l0,2c0,.73,0,1.39,0,2.09l.09,4.14c0,.88.1,1.76.17,2.64-.1-.53-.19-1.09-.28-1.68-.1-1-.17-2-.22-3.12a9.21,9.21,0,0,0-1-3.47,22.32,22.32,0,0,0-2.12-3.68c-.44-.62-.91-1.25-1.4-1.88s-1-1.26-1.49-1.89c-1-1.26-2.12-2.5-3.21-3.71-2.12-2.39-4.19-4.61-5.74-6.24s-2.51-2.65-2.51-2.65.22,1,.59,2.53c.2.79.43,1.73.68,2.78s.51,2.21.79,3.44.61,2.53.88,3.86.57,2.7.85,4.05.44,2.72.65,4a30.86,30.86,0,0,1,.36,3.83,9.08,9.08,0,0,0,2.6,6.12,15.76,15.76,0,0,0,5.38,3.67,28.48,28.48,0,0,0,5.89,1.79l.24,2a126.42,126.42,0,0,0,3.31,16.27c.66,2.68,1.57,5.29,2.4,7.91.09.29.2.56.3.84-.46-1-.91-2.22-1.39-3.5a8.1,8.1,0,0,0-.79-1.55A10.78,10.78,0,0,0,36.54,194a21.56,21.56,0,0,0-3.23-2.89c-1.28-.94-2.56-1.88-4-2.79s-2.89-1.79-4.35-2.63l-4.11-2.39-3.52-2L14,179.52s.12.22.37.6l1,1.66,1.48,2.5c.56.94,1.11,2,1.79,3.09s1.35,2.27,2,3.48,1.34,2.45,2,3.68,1.29,2.47,1.83,3.71,1.05,2.43,1.44,3.6A9,9,0,0,0,30.28,207a17.51,17.51,0,0,0,6.5,1.9,29.81,29.81,0,0,0,5.85,0l.45-.05c.34.79.67,1.58,1,2.36.55,1.25,1.17,2.45,1.75,3.68,1.13,2.47,2.5,4.8,3.76,7.16q2.38,4.09,5,8l0,0a9.28,9.28,0,0,0-2.73-2.38,22.51,22.51,0,0,0-4.06-1.78c-1.47-.54-3.09-1-4.77-1.46s-3.44-.81-5.1-1.2c-3.33-.76-6.56-1.4-9-1.86L25,220.57l.53.47c.36.31.82.77,1.47,1.31,1.27,1.1,3,2.64,4.88,4.41.95.88,2,1.78,3,2.74s2,2,3,3,2,2,2.88,3,1.68,2.06,2.42,3.07A9,9,0,0,0,49,242.17a18.27,18.27,0,0,0,7-.19,31.46,31.46,0,0,0,5.83-1.84l.17-.08A128.92,128.92,0,0,0,78.2,256.41a9.12,9.12,0,0,0-2.26-.82,23.27,23.27,0,0,0-4.48-.49c-1.61-.06-3.35,0-5.13.08s-3.64.28-5.39.42c-3.53.3-6.92.7-9.44,1s-4.07.48-4.07.48l2.47,1.13c1.56.68,3.71,1.63,6.06,2.78,1.16.58,2.46,1.12,3.72,1.75s2.53,1.28,3.78,2S66,266,67.12,266.77s2.21,1.52,3.21,2.27A8.88,8.88,0,0,0,77,270.81a19.2,19.2,0,0,0,6.89-2.4,33.6,33.6,0,0,0,5.25-3.64l.07-.06,1,.68c1.88,1.24,3.8,2.36,5.65,3.51l5.62,3.07,5.53,2.66,3.11,1.34a8.11,8.11,0,0,0-3.13-.28,25.11,25.11,0,0,0-4.5.91c-1.59.44-3.28,1-5,1.68l-2.6,1.05-2.57,1c-1.69.7-3.34,1.42-4.88,2.09l-4.13,1.84c-2.36,1-3.89,1.75-3.89,1.75s1,.12,2.74.35l3,.37c1.13.14,2.38.31,3.69.5s2.71.38,4.12.6,2.85.47,4.25.78,2.81.55,4.14.92a34.32,34.32,0,0,1,3.75,1.27,9,9,0,0,0,7-.29,20.29,20.29,0,0,0,6-4.55,37.74,37.74,0,0,0,4.1-5.24l.25-.39.12,0a101,101,0,0,0,17.2,3.35c2.41.3,4.58.4,6.47.48.94,0,1.81.08,2.6.1l2.16,0c1.29,0,2.28-.07,3-.09l.46,0h0l1.32.74c-.46.12-1,.23-1.53.34s-1.45.19-2.29.26-1.74.11-2.72.12c-.49,0-1,0-1.52,0s-1.07-.08-1.63-.14a7.55,7.55,0,0,0-3.61.7,27.19,27.19,0,0,0-4.08,2.25c-1.41.94-2.88,2.05-4.37,3.25s-3,2.4-4.41,3.65-2.86,2.46-4.16,3.61l-3.5,3.08c-2,1.78-3.31,3-3.31,3s1-.22,2.77-.51c.85-.14,1.87-.31,3-.54s2.41-.43,3.74-.64,2.73-.39,4.16-.64,2.89-.42,4.33-.56l2.15-.17c.72-.06,1.42-.11,2.12-.14a24.72,24.72,0,0,1,4,.14,8.71,8.71,0,0,0,6.66-2.43,20,20,0,0,0,4.54-6.35,40.21,40.21,0,0,0,2.51-6.66l9,5,9-5a42.09,42.09,0,0,0,2.51,6.66,20.2,20.2,0,0,0,4.55,6.35,8.7,8.7,0,0,0,6.66,2.43,24.68,24.68,0,0,1,4-.14c.69,0,1.4.08,2.11.14l2.15.17c1.44.14,2.9.33,4.33.56s2.83.42,4.16.64,2.6.43,3.74.64,2.18.4,3,.54c1.72.29,2.77.51,2.77.51s-1.29-1.19-3.31-3l-3.5-3.08c-1.3-1.15-2.71-2.38-4.16-3.61s-2.93-2.43-4.42-3.65-3-2.31-4.37-3.25a26.64,26.64,0,0,0-4.07-2.25,7.57,7.57,0,0,0-3.62-.7c-.56.06-1.1.11-1.62.14s-1,0-1.52,0q-1.47,0-2.73-.12c-.83-.07-1.59-.15-2.28-.26s-1.07-.22-1.54-.34l1.32-.74h0l.46,0c.67,0,1.66.07,2.95.09l2.16,0c.79,0,1.66-.07,2.6-.1,1.88-.08,4.06-.18,6.46-.48a100.94,100.94,0,0,0,17.21-3.35l.12,0,.24.39a37.74,37.74,0,0,0,4.1,5.24,20.33,20.33,0,0,0,6.06,4.55,9,9,0,0,0,7,.29,33.61,33.61,0,0,1,3.75-1.27c1.32-.37,2.73-.65,4.14-.92s2.83-.56,4.24-.78,2.83-.38,4.12-.6,2.56-.36,3.7-.5l3-.37c1.69-.23,2.74-.35,2.74-.35s-1.53-.71-3.9-1.75l-4.13-1.84c-1.53-.67-3.18-1.39-4.88-2.09l-2.56-1-2.6-1.05c-1.73-.66-3.41-1.24-5-1.68a24.84,24.84,0,0,0-4.49-.91,8.09,8.09,0,0,0-3.13.28l3.11-1.34,5.53-2.66,5.62-3.07c1.85-1.15,3.76-2.27,5.65-3.51l1-.68.08.06a33.13,33.13,0,0,0,5.25,3.64,19.2,19.2,0,0,0,6.89,2.4,8.88,8.88,0,0,0,6.67-1.77c1-.75,2.05-1.55,3.21-2.27s2.39-1.41,3.66-2.06,2.51-1.35,3.78-2,2.56-1.17,3.72-1.75c2.35-1.15,4.5-2.1,6.06-2.78l2.47-1.13s-1.61-.22-4.08-.48-5.91-.7-9.43-1c-1.75-.14-3.61-.32-5.39-.42s-3.52-.14-5.13-.08a23.27,23.27,0,0,0-4.48.49,9.2,9.2,0,0,0-2.27.82,128.32,128.32,0,0,0,16.17-16.35l.17.08a31.46,31.46,0,0,0,5.83,1.84,18.27,18.27,0,0,0,7,.19,9,9,0,0,0,5.77-3.62c.74-1,1.54-2,2.42-3.07s1.86-2,2.88-3,2-2,3-3,2.05-1.86,3-2.74c1.87-1.77,3.61-3.31,4.88-4.41.64-.54,1.11-1,1.46-1.31l.54-.47-3.89.74c-2.4.46-5.62,1.1-9,1.86-1.65.39-3.43.76-5.09,1.2s-3.3.92-4.78,1.46a22.1,22.1,0,0,0-4.05,1.78,9.2,9.2,0,0,0-2.74,2.38v0c1.72-2.59,3.36-5.26,5-8,1.26-2.36,2.63-4.69,3.76-7.16.58-1.23,1.2-2.43,1.75-3.68l1-2.36.45.05a29.8,29.8,0,0,0,5.85,0A17.56,17.56,0,0,0,305,207a9,9,0,0,0,4.36-5.14c.4-1.17.93-2.36,1.45-3.6s1.16-2.48,1.83-3.71,1.33-2.46,2-3.68,1.35-2.37,2-3.48,1.23-2.15,1.8-3.09l1.48-2.5,1-1.66a6.6,6.6,0,0,0,.36-.6ZM56,96.29a4.89,4.89,0,0,1,1.11-1.4,7.92,7.92,0,0,1,2.15-1.36A18.56,18.56,0,0,1,62,92.69l2.49-.32L59.9,94.93l-.14,0a13,13,0,0,0-2.12.74,8,8,0,0,0-1.41.81,4.69,4.69,0,0,0-.52.38A4.5,4.5,0,0,1,56,96.29Z"/><path class="cls-1" d="M298,175.08s.25-1.13.52-2.89a26.16,26.16,0,0,0,.36-3.05c.07-1.13.11-2.36.1-3.61,0-.62,0-1.25-.05-1.87s-.15-1.26-.24-1.87a21.54,21.54,0,0,0-.8-3.45,8.87,8.87,0,0,0-1.42-2.74,5.05,5.05,0,0,0-2.08-1.62,20.81,20.81,0,0,1-4.93-3c-.82-.64-1.61-1.31-2.37-2l-2.21-2c-.94-.88-1.75-1.71-2.45-2.42v6.79c.21.78.43,1.59.62,2.4s.39,1.53.61,2.3.46,1.53.65,2.28a39.54,39.54,0,0,0,1.44,4.27c.29.66.51,1.28.8,1.86a12.48,12.48,0,0,0,.88,1.59,5.76,5.76,0,0,0,2.13,2.08,23.92,23.92,0,0,1,6.57,4.69A13.42,13.42,0,0,1,298,175.08Z"/><path class="cls-1" d="M297.79,136.61c-.14-.88-.32-1.92-.54-3a32.13,32.13,0,0,0-.89-3.5,27,27,0,0,0-1.3-3.52,22.64,22.64,0,0,0-1.68-3.1,9.86,9.86,0,0,0-2.07-2.25,4.62,4.62,0,0,0-2.32-1,19,19,0,0,1-5.31-1.61c-.44-.19-.87-.39-1.3-.6v2.88l.54.19a21.9,21.9,0,0,0,2.51.76c.87.31,1.76.62,2.59,1a9,9,0,0,1,2.11,1.35,5.37,5.37,0,0,1,1.13,1.37,5,5,0,0,1,.28.61,5.76,5.76,0,0,0-.53-.38,9.36,9.36,0,0,0-1.43-.77,18.06,18.06,0,0,0-2.11-.76c-.79-.27-1.66-.5-2.55-.72a24.87,24.87,0,0,1-2.54-1V129c.41.61.82,1.2,1.23,1.75a16.89,16.89,0,0,0,2.47,2.88,5.74,5.74,0,0,0,2.48,1.44,23.21,23.21,0,0,1,7.24,2.76,12.53,12.53,0,0,1,2.28,1.72s0-.29-.06-.8S297.93,137.49,297.79,136.61Z"/><path class="cls-1" d="M238.11,64.56c-.78,0-1.48,0-2.06-.09-1.17-.06-1.89-.13-1.89-.13l.9.5,1,.56c.4.22.87.44,1.36.73,1,.56,2.15,1.21,3.43,1.89l2,1.12,2.07,1.14c.69.4,1.39.8,2.1,1.18s1.43.75,2.11,1.14c1.37.77,2.78,1.42,4,2a18.07,18.07,0,0,0,3.54,1.28,5,5,0,0,0,2.66.1,19.91,19.91,0,0,1,7-1,12,12,0,0,1,2.67.38s-.7-.93-1.85-2.3c-.57-.68-1.31-1.44-2.1-2.25a30,30,0,0,0-2.63-2.48A34.15,34.15,0,0,0,259.49,66a25.79,25.79,0,0,0-3.05-1.78,9.86,9.86,0,0,0-2.84-.92,4.32,4.32,0,0,0-2.35.21,11.58,11.58,0,0,1-2.3.66,20.47,20.47,0,0,1-2.7.36c-.93.08-1.89.11-2.83.11s-1.91,0-2.8,0S238.87,64.6,238.11,64.56Z"/><path class="cls-1" d="M211.44,51.31l2,.5c.71.17,1.45.32,2.21.52l2.3.58c.78.19,1.58.34,2.36.56s1.56.39,2.34.56,1.55.32,2.28.49,1.46.3,2.15.41,1.36.18,2,.26a13.2,13.2,0,0,0,1.73.1,4.93,4.93,0,0,0,2.54-.56,19.21,19.21,0,0,1,6.2-2.54,10.08,10.08,0,0,1,2.61-.29l-.64-.48c-.42-.3-1-.7-1.79-1.18s-1.65-1-2.64-1.61S235,47.53,233.88,47a32.57,32.57,0,0,0-3.49-1.4,19.34,19.34,0,0,0-3.4-.91,12.3,12.3,0,0,0-3-.18,4,4,0,0,0-2.15.76,14.77,14.77,0,0,1-4.4,2.09,47.15,47.15,0,0,1-5.31,1.44c-1.71.39-3.27.7-4.41.92l-1.83.33,3.69.84C210.18,51,210.8,51.14,211.44,51.31Z"/><path class="cls-2" d="M144.84,278.79l-.43-.24h0Z"/><path class="cls-2" d="M154.27,285.27c-.69.11-1.45.19-2.29.26s-1.74.11-2.72.12c-.49,0-1,0-1.52,0s-1.07-.08-1.63-.14a7.55,7.55,0,0,0-3.61.7,27.19,27.19,0,0,0-4.08,2.25c-1.41.94-2.88,2.05-4.37,3.25s-3,2.4-4.41,3.65-2.86,2.46-4.16,3.61l-3.5,3.08c-2,1.78-3.31,3-3.31,3s1-.22,2.77-.51c.85-.14,1.87-.31,3-.54s2.41-.43,3.74-.64,2.73-.39,4.16-.64,2.89-.42,4.33-.56l2.15-.17c.72-.06,1.42-.11,2.12-.14a24.72,24.72,0,0,1,4,.14,8.71,8.71,0,0,0,6.66-2.43,20,20,0,0,0,4.54-6.35,40.21,40.21,0,0,0,2.51-6.66l-2.85-1.59C155.34,285.05,154.83,285.16,154.27,285.27Zm-3.56,9.21a6,6,0,0,1-.42.7,8.24,8.24,0,0,1-2.11,2,12.45,12.45,0,0,1-3.82,1.71,28.83,28.83,0,0,1-4.68.67c-1.59,0-3.14,0-4.58.11a28.43,28.43,0,0,0-3.88.37,15.8,15.8,0,0,0-2.69.69,9,9,0,0,0-1,.4,10.84,10.84,0,0,1,.84-.7,11.42,11.42,0,0,1,2.59-1.35,18.74,18.74,0,0,1,4-.93c1.49-.16,3.07-.23,4.61-.35a28.16,28.16,0,0,0,4.43-.4,15.76,15.76,0,0,0,3.67-1.08,11.08,11.08,0,0,0,2.35-1.42,7.47,7.47,0,0,0,.81-.71Zm.73-4.3a13.43,13.43,0,0,1-1.32,1.47,17.37,17.37,0,0,1-2.16,1.76,30.47,30.47,0,0,1-2.77,1.6c-1,.41-2,.78-3,1.07a17.61,17.61,0,0,1-2.74.48,12.58,12.58,0,0,1-2,.05l-.75-.06.69-.28c.45-.14,1.06-.42,1.81-.67s1.57-.65,2.48-1,1.84-.76,2.76-1.22a29.86,29.86,0,0,0,2.72-1.31c.84-.48,1.69-.84,2.36-1.25s1.29-.68,1.68-.93l.66-.34Z"/><path class="cls-2" d="M108.74,263.51a5.78,5.78,0,0,0,.36,3,9.49,9.49,0,0,0,1.74,2.72,14.4,14.4,0,0,0,2.69,2.38,29.79,29.79,0,0,0,3.23,1.91,22.64,22.64,0,0,0,3.3,1.42c1.06.39,2,.71,2.9,1a18.75,18.75,0,0,0,2.07.52l.79.14a14.2,14.2,0,0,1-1.19-3.09,30.13,30.13,0,0,1-.93-6.52l-7.93-4.44a11.12,11.12,0,0,1-.42,1.7,7.72,7.72,0,0,1-.56,1.25l-.29.44s0-.19,0-.52-.07-.79-.08-1.32-.1-1.14-.1-1.79c0-.2,0-.42,0-.63l-1.7-.95c-.08.62-.18,1.21-.27,1.72a14.73,14.73,0,0,1-.51,1.84c-.16.44-.26.69-.26.69l-.08-.73c0-.45-.12-1.11-.14-1.87s-.13-1.56-.16-2.44l-2.28-1.28A23.89,23.89,0,0,1,108.74,263.51Z"/><path class="cls-2" d="M154,284c-.65-.11-1.63-.3-2.9-.5l-2.14-.34c-.78-.13-1.62-.31-2.53-.49-1.82-.37-3.91-.7-6.22-1.29l-3.67-.83-4-1.07c-.69-.2-1.4-.34-2.11-.56l-2.17-.66c-1.47-.47-3-.88-4.56-1.46a133,133,0,0,1-20.35-8.55,130.92,130.92,0,0,1-21.76-14.39l-2.71-2.22-2.64-2.36c-1.81-1.55-3.47-3.31-5.23-5-.87-.85-1.67-1.78-2.52-2.68s-1.71-1.78-2.5-2.74c-1.59-1.91-3.26-3.79-4.77-5.83-.47-.58-.91-1.18-1.36-1.78l-7-3.93v-6.46c-.12-.18-.24-.36-.35-.55-1.27-2.28-2.66-4.52-3.81-6.9-.59-1.18-1.22-2.35-1.78-3.55s-1.08-2.43-1.63-3.64-1-2.47-1.52-3.71-1-2.49-1.44-3.76c-.84-2.55-1.76-5.09-2.44-7.7a123.71,123.71,0,0,1-3.46-15.88c-.32-2.69-.73-5.38-.87-8.09-.09-1.35-.23-2.7-.28-4.05l-.1-4.06c0-.67-.05-1.38,0-2l0-2c0-1.36,0-2.74.13-4.06l.24-4c.14-1.33.27-2.67.4-4a131.44,131.44,0,0,1,2.81-15.62,134.44,134.44,0,0,1,4.66-14.77A126.39,126.39,0,0,1,57.07,86.54l2-2.85L61.12,81c.66-.92,1.37-1.79,2.08-2.66s1.38-1.73,2.1-2.57c1.45-1.64,2.83-3.3,4.31-4.82.74-.76,1.44-1.54,2.18-2.27L74,66.46a131.21,131.21,0,0,1,17.25-14A153,153,0,0,1,106,43.59c4.24-2.19,7.65-3.8,10-4.82,1.19-.49,2.09-.89,2.7-1.16l.93-.41-1,.29c-.64.19-1.59.46-2.82.85-2.45.79-6,2-10.47,4-1.89.85-4,1.84-6.12,3l.06-.05a47.56,47.56,0,0,1,5-2.95,13.23,13.23,0,0,0,2.86-2.08,30.06,30.06,0,0,0,2.64-3c.86-1.08,1.69-2.27,2.48-3.49s1.58-2.4,2.3-3.6l2-3.43,1.65-2.85c.94-1.63,1.51-2.68,1.51-2.68l-2,1.34L115.47,24c-.86.54-1.79,1.21-2.8,1.86s-2.08,1.33-3.16,2.07-2.22,1.46-3.35,2.16-2.26,1.44-3.39,2.08q-.84.5-1.68.93c-.54.3-1.09.59-1.62.86a11.6,11.6,0,0,0-2.77,1.91,11,11,0,0,0-1.86,2.44,13.4,13.4,0,0,0-1.63,5.35,20.18,20.18,0,0,0,.14,4.9c-1.1.65-2.21,1.33-3.34,2.06A120.26,120.26,0,0,0,72.71,64.2c.44-.46.9-.92,1.41-1.38A10.84,10.84,0,0,0,76.23,60a22.91,22.91,0,0,0,1.63-3.7c.45-1.36.9-2.75,1.29-4.18s.72-2.93,1.06-4.32c.67-2.78,1.16-5.48,1.57-7.38s.6-3.15.6-3.15l-1.56,1.92c-1,1.17-2.31,2.9-3.87,4.75-.78,1-1.59,2-2.41,3L73.25,48.4c-.43.52-.87,1-1.29,1.56-.87,1-1.78,2-2.67,3a33.71,33.71,0,0,1-2.66,2.68,10.35,10.35,0,0,0-3.15,5.59A14.7,14.7,0,0,0,63.64,67a21,21,0,0,0,1.55,4.49l.11.22c-.67.75-1.33,1.51-2,2.26a123.74,123.74,0,0,0-8.45,11c-1.68,2.45-3.29,5-4.84,7.67.29-.54.59-1.09.92-1.66a11.6,11.6,0,0,0,1.19-3.36,27.26,27.26,0,0,0,.4-4.09c0-1.44,0-3-.09-4.51s-.19-3.06-.33-4.56-.31-2.92-.45-4.26-.29-2.52-.41-3.55c-.27-2-.45-3.34-.45-3.34l-.25.63-.66,1.73-1,2.57c-.41,1-.81,2.06-1.27,3.2s-1,2.35-1.46,3.58-1,2.51-1.57,3.74-1.08,2.5-1.67,3.67-1.2,2.3-1.81,3.36A10.52,10.52,0,0,0,39.8,89a10.32,10.32,0,0,0-.08,3.18,14.36,14.36,0,0,0,2,5.7A24.69,24.69,0,0,0,45,102.13c-1.45,3-2.81,6.15-4,9.37a134.08,134.08,0,0,0-4.71,15.11c-.16.66-.3,1.33-.45,2a34.82,34.82,0,0,1,.77-4,10.33,10.33,0,0,0,.13-3.58,21.4,21.4,0,0,0-.89-4.09c-.46-1.43-.93-2.88-1.52-4.36s-1.23-3-1.82-4.38-1.23-2.79-1.82-4l-1.56-3.38c-.9-1.94-1.51-3.17-1.51-3.17s-.07,1-.19,2.56-.23,3.81-.47,6.28c-.1,1.26-.2,2.57-.3,3.91s-.27,2.73-.41,4.09-.32,2.72-.56,4a32.06,32.06,0,0,1-.75,3.76,8.41,8.41,0,0,0-.24,3.43,10.22,10.22,0,0,0,.89,3.11,15.19,15.19,0,0,0,3.87,5,25.18,25.18,0,0,0,4.31,3l.46.25c-.28,1.83-.55,3.66-.77,5.5L33,146.64c-.09,1.37-.17,2.75-.26,4.12s-.11,2.74-.14,4.1l0,2c0,.73,0,1.39,0,2.09l.09,4.14c0,.88.1,1.76.17,2.64-.1-.53-.19-1.09-.28-1.68-.1-1-.17-2-.22-3.12a9.21,9.21,0,0,0-1-3.47,22.32,22.32,0,0,0-2.12-3.68c-.44-.62-.91-1.25-1.4-1.88s-1-1.26-1.49-1.89c-1-1.26-2.12-2.5-3.21-3.71-2.12-2.39-4.19-4.61-5.74-6.24s-2.51-2.65-2.51-2.65.22,1,.59,2.53c.2.79.43,1.73.68,2.78s.51,2.21.79,3.44.61,2.53.88,3.86.57,2.7.85,4.05.44,2.72.65,4a30.86,30.86,0,0,1,.36,3.83,9.08,9.08,0,0,0,2.6,6.12,15.76,15.76,0,0,0,5.38,3.67,28.48,28.48,0,0,0,5.89,1.79l.24,2a126.42,126.42,0,0,0,3.31,16.27c.66,2.68,1.57,5.29,2.4,7.91.09.29.2.56.3.84-.46-1-.91-2.22-1.39-3.5a8.1,8.1,0,0,0-.79-1.55A10.78,10.78,0,0,0,36.54,194a21.56,21.56,0,0,0-3.23-2.89c-1.28-.94-2.56-1.88-4-2.79s-2.89-1.79-4.35-2.63l-4.11-2.39-3.52-2L14,179.52s.12.22.37.61l1,1.65,1.48,2.5c.56.94,1.11,2,1.79,3.09s1.35,2.28,2,3.48,1.34,2.45,2,3.68,1.29,2.47,1.83,3.71,1.05,2.43,1.44,3.6A9,9,0,0,0,30.28,207a17.51,17.51,0,0,0,6.5,1.9,29.81,29.81,0,0,0,5.85,0l.45-.05c.34.79.67,1.58,1,2.36.55,1.25,1.17,2.46,1.75,3.68,1.13,2.47,2.5,4.8,3.76,7.16q2.38,4.09,5,8l0,0a9.28,9.28,0,0,0-2.73-2.38,22.51,22.51,0,0,0-4.06-1.78c-1.47-.54-3.09-1-4.77-1.46s-3.44-.81-5.1-1.2c-3.33-.76-6.56-1.4-9-1.85L25,220.57l.53.47c.36.31.82.77,1.47,1.31,1.27,1.1,3,2.64,4.88,4.41.95.88,2,1.78,3,2.74s2,2,3,3,2,2,2.88,3,1.68,2.06,2.42,3.07A9,9,0,0,0,49,242.17a18.22,18.22,0,0,0,7-.19,30.61,30.61,0,0,0,5.84-1.84l.17-.08A128.26,128.26,0,0,0,78.2,256.41a9.12,9.12,0,0,0-2.26-.82,23.27,23.27,0,0,0-4.48-.49c-1.61-.06-3.35,0-5.13.08s-3.64.28-5.39.42c-3.53.3-6.92.7-9.44,1s-4.07.48-4.07.48l2.47,1.13c1.56.68,3.71,1.63,6.06,2.78,1.16.58,2.46,1.12,3.72,1.75s2.53,1.28,3.78,2,2.51,1.34,3.66,2.06,2.21,1.52,3.21,2.27A8.88,8.88,0,0,0,77,270.81a19.2,19.2,0,0,0,6.89-2.4,33.6,33.6,0,0,0,5.25-3.64l.07-.06,1,.68c1.88,1.24,3.8,2.36,5.65,3.51l5.62,3.07,5.53,2.67,3.11,1.33a8.11,8.11,0,0,0-3.13-.28,25.11,25.11,0,0,0-4.5.91c-1.59.44-3.28,1-5,1.68l-2.6,1.05-2.57,1c-1.69.7-3.34,1.42-4.88,2.09l-4.13,1.84c-2.36,1-3.89,1.75-3.89,1.75s1,.12,2.74.35l3,.37c1.13.14,2.38.31,3.69.5s2.71.38,4.12.6,2.85.47,4.25.78,2.81.55,4.14.92a34.32,34.32,0,0,1,3.75,1.27,9,9,0,0,0,7-.29,20.29,20.29,0,0,0,6-4.55,37.74,37.74,0,0,0,4.1-5.24l.25-.39.12,0a101,101,0,0,0,17.2,3.35c2.41.3,4.58.4,6.47.48.94,0,1.81.08,2.6.1l2.16,0c1.29,0,2.28-.07,3-.09l.46,0-.31-.17ZM95.53,42.88a6,6,0,0,1,.2-.71,10.12,10.12,0,0,1,1.19-2.41,15.27,15.27,0,0,1,2.51-2.85,32.75,32.75,0,0,1,3.46-2.58l3.69-2.07c1.15-.66,2.28-1.19,3.18-1.75s1.68-1,2.19-1.37.82-.55.82-.55-.2.3-.59.81a15.38,15.38,0,0,1-1.84,1.91,29.37,29.37,0,0,1-3,2.26l-3.55,2.26a29.79,29.79,0,0,0-3.42,2.26,22.83,22.83,0,0,0-2.71,2.3A15.42,15.42,0,0,0,96,42.32a9.72,9.72,0,0,0-.57.82S95.49,43.05,95.53,42.88ZM66.72,61.67a9.49,9.49,0,0,1,1.11-3.48,21,21,0,0,1,2.4-3.35L73,52a31.8,31.8,0,0,0,2.27-2.48,15.45,15.45,0,0,0,1.37-2,8.53,8.53,0,0,0,.45-.82,8.62,8.62,0,0,1-.13.94,9.36,9.36,0,0,1-.85,2.38,16.93,16.93,0,0,1-2,3l-2.62,3A19.46,19.46,0,0,0,69.14,59a11.78,11.78,0,0,0-1.46,2.9,8.56,8.56,0,0,0-.44,2.31,5.64,5.64,0,0,0,0,.93,7,7,0,0,1-.34-.89A6.49,6.49,0,0,1,66.72,61.67ZM49,83.49c0-.8.05-1.65,0-2.5s.1-1.69.11-2.49.13-1.55.14-2.2.14-1.19.16-1.58.09-.61.09-.61l.25.57a13,13,0,0,1,.49,1.54,19.17,19.17,0,0,1,.4,2.23c.06.83.11,1.71.12,2.59s-.15,1.76-.26,2.58A17.13,17.13,0,0,1,50,85.83a12.08,12.08,0,0,1-.57,1.51l-.28.55s0-.22-.06-.61-.08-1-.07-1.59S49,84.28,49,83.49ZM44.25,95l-.38.51s0-.23.06-.63.09-1,.21-1.6.16-1.42.32-2.21.26-1.65.34-2.5.27-1.7.35-2.51.24-1.56.28-2.21.19-1.21.23-1.6l.11-.62.23.59a10.79,10.79,0,0,1,.42,1.6,15.13,15.13,0,0,1,.25,2.32c0,.85,0,1.76-.12,2.67s-.37,1.78-.6,2.6a15.09,15.09,0,0,1-.86,2.17A10.86,10.86,0,0,1,44.25,95ZM31.87,125.68a11.15,11.15,0,0,1-.25,1.55l-.16.58s-.07-.21-.18-.57-.27-.88-.4-1.49-.35-1.32-.48-2.07-.32-1.56-.52-2.35-.3-1.61-.48-2.36-.26-1.48-.41-2.09-.18-1.15-.25-1.52-.07-.6-.07-.6l.38.47a11.79,11.79,0,0,1,.87,1.31,14.48,14.48,0,0,1,.94,2c.26.76.52,1.59.74,2.42s.25,1.71.32,2.51A14.29,14.29,0,0,1,31.87,125.68Zm1-6.29-.32-.58c-.17-.38-.48-.9-.72-1.56s-.59-1.41-.83-2.24l-.76-2.63c-.19-.91-.37-1.82-.54-2.67s-.22-1.69-.31-2.38-.06-1.3-.09-1.71,0-.66,0-.66l.32.58c.17.37.47.9.72,1.55s.59,1.41.83,2.25.51,1.73.77,2.62.36,1.83.54,2.68.21,1.68.31,2.38a16.93,16.93,0,0,1,.08,1.71C32.84,119.15,32.84,119.39,32.84,119.39Zm-6.38,45.77c-.07.36-.1.57-.1.57l-.24-.52c-.12-.34-.36-.8-.56-1.36s-.5-1.2-.72-1.89-.52-1.41-.83-2.12-.52-1.46-.81-2.13-.49-1.34-.74-1.88-.37-1.05-.51-1.37l-.18-.55.46.35a9.45,9.45,0,0,1,1.07,1.06A11.86,11.86,0,0,1,24.56,157c.38.68.75,1.42,1.09,2.17s.49,1.59.66,2.35a12,12,0,0,1,.23,2.11A10.13,10.13,0,0,1,26.46,165.16Zm2-6.76c-.24-.31-.64-.72-1-1.26S26.47,156,26,155.36s-1-1.36-1.54-2-1-1.43-1.49-2.08-.89-1.32-1.3-1.84-.66-1-.89-1.36l-.32-.55.56.3a12,12,0,0,1,1.37.93,16.36,16.36,0,0,1,1.75,1.54c.57.62,1.16,1.31,1.74,2s1,1.52,1.41,2.26a17.09,17.09,0,0,1,.95,2.12,12.63,12.63,0,0,1,.48,1.58c.07.4.12.63.12.63Zm-5.15,29.9c-.63-.4-1.15-.79-1.53-1l-.58-.41.71.09a12.17,12.17,0,0,1,1.83.45,17.35,17.35,0,0,1,2.46,1c.85.48,1.74,1,2.6,1.62s1.57,1.38,2.25,2.07a15.35,15.35,0,0,1,1.64,2.1,11,11,0,0,1,.92,1.65l.28.66-.55-.46c-.32-.31-.84-.69-1.39-1.2s-1.27-1-1.95-1.64a27.86,27.86,0,0,0-2.27-1.77c-.76-.62-1.55-1.21-2.32-1.72S23.92,188.68,23.27,188.3Zm10.29,15.33c-.23-.31-.62-.7-1-1.21s-.91-1-1.37-1.69-1-1.27-1.55-1.9-1-1.31-1.55-1.9-1-1.2-1.39-1.67-.73-.94-1-1.22l-.36-.5.57.23a9.67,9.67,0,0,1,1.43.75,15.24,15.24,0,0,1,1.82,1.34c.61.57,1.23,1.2,1.83,1.86s1,1.45,1.46,2.15a14.22,14.22,0,0,1,1,2.06,9.86,9.86,0,0,1,.45,1.55l.11.6Zm.76,21h.73a15.54,15.54,0,0,1,1.91.19,22.09,22.09,0,0,1,2.64.58c.94.3,1.93.64,2.92,1s1.89.93,2.76,1.4a23.4,23.4,0,0,1,2.24,1.51A16.47,16.47,0,0,1,49,230.6l.51.52-.69-.23c-.42-.18-1.06-.37-1.77-.68s-1.57-.59-2.44-1-1.81-.79-2.76-1.15-1.86-.84-2.74-1.2-1.69-.79-2.41-1.07-1.29-.63-1.71-.81ZM52.7,239.46a6.19,6.19,0,0,1-2.52.11,9.06,9.06,0,0,1-3.39-1.22,19.22,19.22,0,0,1-3.17-2.56c-.92-1-1.76-2-2.58-2.94a31.93,31.93,0,0,0-2.24-2.46A17.06,17.06,0,0,0,37,228.85c-.47-.35-.76-.53-.76-.53s.33.06.91.22a10.15,10.15,0,0,1,2.24,1.07,17.74,17.74,0,0,1,2.74,2.19c.9.89,1.8,1.86,2.73,2.76a17.27,17.27,0,0,0,2.75,2.51,11.32,11.32,0,0,0,2.79,1.54,8.13,8.13,0,0,0,2.25.51,5.75,5.75,0,0,0,.91,0A5.84,5.84,0,0,1,52.7,239.46Zm27.05,25.67a5.92,5.92,0,0,1-.62.53,6.62,6.62,0,0,1-2.75,1.08,9.91,9.91,0,0,1-4.21-.24,21.11,21.11,0,0,1-4.35-1.94c-1.35-.84-2.62-1.73-3.85-2.47a23,23,0,0,0-3.41-1.82,12.59,12.59,0,0,0-2.63-.79,7.19,7.19,0,0,0-1.07-.14,7.94,7.94,0,0,1,1.08-.2,9.12,9.12,0,0,1,2.91.19,16,16,0,0,1,3.87,1.43c1.33.71,2.66,1.54,4,2.29a19.77,19.77,0,0,0,3.91,2,11.21,11.21,0,0,0,3.67.71,7.86,7.86,0,0,0,2.67-.4,6.45,6.45,0,0,0,.73-.29l.25-.13Zm1.67-3.27a5.49,5.49,0,0,1-1.16.72,7.09,7.09,0,0,1-1.84.62,13.38,13.38,0,0,1-2.23.16,13.35,13.35,0,0,1-2.18-.47,7.84,7.84,0,0,1-1.74-.86,5.65,5.65,0,0,1-1-.88l-.34-.4.51.1c.3.09.76.14,1.26.27s1.11.16,1.72.29a12.15,12.15,0,0,0,1.94.19,11.58,11.58,0,0,0,1.94.08c.62-.05,1.23,0,1.74-.05s1,0,1.29-.09l.52,0Zm21.32,22.05a10.07,10.07,0,0,1,1.11-.13,13.21,13.21,0,0,1,1.55,0l1.74.18,1.71.41a12.09,12.09,0,0,1,1.45.52,8.61,8.61,0,0,1,1,.5l.37.24-.43.1c-.27,0-.66.13-1.12.14a13.16,13.16,0,0,1-1.54,0l-1.74-.18-1.71-.41a12.09,12.09,0,0,1-1.45-.52,8.61,8.61,0,0,1-1-.5l-.37-.24Zm12.37,2.81a6.43,6.43,0,0,1-.64.55,8.42,8.42,0,0,1-2.77,1.31,12.64,12.64,0,0,1-4.36.34,27.65,27.65,0,0,1-4.82-1c-1.56-.54-3.08-1.12-4.51-1.57a28.13,28.13,0,0,0-3.92-1.09,16.62,16.62,0,0,0-2.88-.33,10.19,10.19,0,0,0-1.13,0,9.3,9.3,0,0,1,1.09-.35,11.21,11.21,0,0,1,3-.33,19.77,19.77,0,0,1,4.25.61c1.51.4,3.07.91,4.61,1.36a26.78,26.78,0,0,0,4.49,1.2,15.21,15.21,0,0,0,4,.19,10.84,10.84,0,0,0,2.79-.63,6.45,6.45,0,0,0,.76-.32l.27-.13Z"/><path class="cls-2" d="M81.22,250.76a13.86,13.86,0,0,0,2,3,34.88,34.88,0,0,0,2.57,2.74,28.13,28.13,0,0,0,2.78,2.28c.91.67,1.77,1.27,2.51,1.76,1.52.92,2.56,1.43,2.56,1.43a13.73,13.73,0,0,1-.33-3.2,29.08,29.08,0,0,1,1.26-8.15l-5.72-3.2c-.06.21-.13.41-.19.6a7,7,0,0,1-.51,1.08l-.25.39-.08-.46c0-.28-.12-.69-.14-1.15s0-.75-.08-1.16l-2.76-1.54c-.24.74-.53,1.34-.68,1.77s-.32.69-.32.69,0-.27,0-.75,0-1.17.07-2l0-.25-2.62-1.47a15.86,15.86,0,0,1-.6,1.64C79.83,246.69,80.22,248.7,81.22,250.76Z"/><path class="cls-2" d="M64.68,236.75c1.21,1.31,2.06,2.11,2.06,2.11a13.49,13.49,0,0,1,.49-3.1,2.8,2.8,0,0,1,.1-.36L61,231.88c.56.88,1.16,1.71,1.73,2.48S64.1,236.08,64.68,236.75Z"/><path class="cls-2" d="M51.64,194.4a7.3,7.3,0,0,1-1.54.89,5.16,5.16,0,0,1-1.2.38l-.48.06.32-.36c.21-.2.46-.55.8-.89s.66-.79,1.06-1.2a13.07,13.07,0,0,0,1.12-1.39,12.78,12.78,0,0,0,1.08-1.43l.09-.12v-5.42a7.29,7.29,0,0,1-.38,1.11,18,18,0,0,1-1.23,2.33,20,20,0,0,1-1.72,2,20.63,20.63,0,0,1-1.74,1.38,4.79,4.79,0,0,0-1,1,1.78,1.78,0,0,0-.28.52,1.91,1.91,0,0,1,0-.63,3.68,3.68,0,0,1,.64-1.57c.41-.56.86-1.17,1.34-1.75a18.1,18.1,0,0,0,1.4-2,17.81,17.81,0,0,0,1.31-2c.36-.67.79-1.28,1.06-1.85s.52-.93.69-1.27v-3.82l-1.62,2.47c-.58.87-1.2,1.75-1.85,2.59a22.33,22.33,0,0,1-4.2,4.34c-1.46,1.07-2.14,2.95-2.33,5.21a14.68,14.68,0,0,0,.15,3.54,33.38,33.38,0,0,0,.72,3.69c.35,1.19.75,2.35,1.14,3.41a30.34,30.34,0,0,0,1.18,2.84c.78,1.6,1.35,2.61,1.35,2.61a13.85,13.85,0,0,1,1.24-2.79,24,24,0,0,1,4.22-5.4V193.2C52.48,193.63,52.06,194,51.64,194.4Z"/><path class="cls-2" d="M50.43,146.93l-2.2,2c-.76.69-1.56,1.36-2.37,2a20.81,20.81,0,0,1-4.93,3,5,5,0,0,0-2.08,1.62,8.87,8.87,0,0,0-1.42,2.74,21.54,21.54,0,0,0-.8,3.45c-.1.61-.18,1.24-.24,1.87s0,1.25,0,1.87c0,1.25,0,2.48.1,3.61a28.7,28.7,0,0,0,.35,3.05c.28,1.76.53,2.89.53,2.89a12.81,12.81,0,0,1,1.87-2.31,23.92,23.92,0,0,1,6.57-4.69A5.83,5.83,0,0,0,47.89,166a13.84,13.84,0,0,0,.88-1.59c.28-.58.5-1.2.79-1.86A37.47,37.47,0,0,0,51,158.28c.19-.75.42-1.52.65-2.28s.42-1.54.6-2.29.42-1.63.63-2.41v-6.79C52.18,145.22,51.38,146.05,50.43,146.93Zm-2.32,10.49a4.27,4.27,0,0,1-.22.9,6.27,6.27,0,0,1-.58,1.16c-.28.37-.61.76-1,1.13s-.81.59-1.21.84a5,5,0,0,1-1.2.47,3.69,3.69,0,0,1-.92.15h-.36s.07-.11.21-.3.32-.44.56-.68.49-.59.81-.86.62-.59.92-.91.69-.56,1-.84.67-.49.93-.73a8.15,8.15,0,0,1,.73-.5l.31-.19S48.13,157.19,48.11,157.42Zm3-6.8a2.8,2.8,0,0,1-.08.54,5.29,5.29,0,0,1-.79,1.8,9.17,9.17,0,0,1-1.9,2,27.45,27.45,0,0,1-2.58,1.71c-.91.46-1.8.92-2.58,1.4a16.3,16.3,0,0,0-2.08,1.38,8.5,8.5,0,0,0-1.28,1.26,4.13,4.13,0,0,0-.44.56,4.58,4.58,0,0,1,.14-.72,5.61,5.61,0,0,1,.86-1.77,9.71,9.71,0,0,1,1.94-2c.81-.6,1.7-1.15,2.59-1.68a26.56,26.56,0,0,0,2.55-1.42,14.6,14.6,0,0,0,2-1.43A7.82,7.82,0,0,0,50.71,151a6.21,6.21,0,0,0,.42-.58Z"/><path class="cls-2" d="M50.35,123.5c-.89.23-1.76.45-2.55.72a18.27,18.27,0,0,0-2.12.76,9.69,9.69,0,0,0-1.42.77,5.76,5.76,0,0,0-.53.38,5,5,0,0,1,.28-.61,5.37,5.37,0,0,1,1.13-1.37,8.8,8.8,0,0,1,2.11-1.35c.82-.37,1.72-.68,2.59-1a23.19,23.19,0,0,0,2.51-.76l.54-.19V118l-1.3.61a19.38,19.38,0,0,1-5.31,1.6,4.59,4.59,0,0,0-2.32,1,9.86,9.86,0,0,0-2.07,2.25,23.79,23.79,0,0,0-1.69,3.1,26.91,26.91,0,0,0-1.29,3.52,34.73,34.73,0,0,0-.9,3.5c-.22,1.11-.39,2.15-.53,3s-.18,1.62-.23,2.13-.06.8-.06.8a12.53,12.53,0,0,1,2.28-1.72,23.21,23.21,0,0,1,7.24-2.76,5.66,5.66,0,0,0,2.47-1.44,16.91,16.91,0,0,0,2.48-2.88c.41-.55.82-1.14,1.23-1.75v-6.5A26.85,26.85,0,0,1,50.35,123.5Z"/><path class="cls-2" d="M59.9,94.93l-.14,0a13,13,0,0,0-2.12.74,8,8,0,0,0-1.41.81,4.69,4.69,0,0,0-.52.38,4.5,4.5,0,0,1,.27-.61,4.89,4.89,0,0,1,1.11-1.4,8.17,8.17,0,0,1,2.15-1.36A18.56,18.56,0,0,1,62,92.69l2.49-.32,9.2-5.15c-.54.15-1.1.31-1.69.46A47.05,47.05,0,0,1,66.34,89a16.72,16.72,0,0,1-5.3.25,4.42,4.42,0,0,0-2.43.37,11.3,11.3,0,0,0-2.52,1.65c-.42.35-.85.74-1.27,1.16s-.8.89-1.19,1.36a30.29,30.29,0,0,0-2.23,3c-.67,1-1.29,2.11-1.84,3.1s-1,2-1.35,2.77-.67,1.49-.87,2l-.27.76a10.76,10.76,0,0,1,2.58-1.06,21.56,21.56,0,0,1,3.24-.66v-4.8Z"/><path class="cls-2" d="M94.65,64.66c-.9,0-1.84,0-2.8,0s-1.9,0-2.84-.11a20.93,20.93,0,0,1-2.7-.36A11.67,11.67,0,0,1,84,63.52a4.32,4.32,0,0,0-2.35-.21,10,10,0,0,0-2.85.92,26.53,26.53,0,0,0-3,1.78,35.89,35.89,0,0,0-3,2.32,31.47,31.47,0,0,0-2.63,2.48c-.79.81-1.52,1.57-2.1,2.25-1.14,1.37-1.85,2.3-1.85,2.3A12.13,12.13,0,0,1,68.92,75a19.83,19.83,0,0,1,7,1,5.12,5.12,0,0,0,2.67-.09,18.83,18.83,0,0,0,3.54-1.29c1.26-.59,2.66-1.24,4-2,.68-.39,1.4-.75,2.11-1.14s1.41-.78,2.1-1.18l2.07-1.14,2-1.12c1.29-.68,2.45-1.33,3.44-1.89.49-.29,1-.51,1.36-.73l1-.56.89-.5s-.71.07-1.88.13c-.58,0-1.28.07-2.06.09S95.55,64.64,94.65,64.66Zm-2.08,3.18a5,5,0,0,1-1.73.51,8.4,8.4,0,0,1-2.53-.08c-.9-.18-1.81-.43-2.7-.64A15.47,15.47,0,0,0,83.08,67a14.8,14.8,0,0,0-2.25-.23,12.93,12.93,0,0,0-1.65.06c-.41,0-.65.07-.65.07s.18-.15.54-.39a6,6,0,0,1,1.63-.72,8.85,8.85,0,0,1,2.53-.31,16.65,16.65,0,0,1,2.85.43c.91.3,1.78.62,2.59.85a15.64,15.64,0,0,0,2.19.58,8.91,8.91,0,0,0,1.63.14,3.81,3.81,0,0,0,.65,0A5.28,5.28,0,0,1,92.57,67.84Z"/><path class="cls-2" d="M113.38,45.26a4,4,0,0,0-2.16-.76,11.9,11.9,0,0,0-3,.19,18.36,18.36,0,0,0-3.39.9,32.57,32.57,0,0,0-3.49,1.4c-1.13.54-2.22,1.1-3.23,1.64s-1.87,1.13-2.63,1.61-1.37.88-1.79,1.18l-.65.48a10,10,0,0,1,2.61.29,19.16,19.16,0,0,1,6.21,2.54,4.88,4.88,0,0,0,2.54.56,13.4,13.4,0,0,0,1.73-.1c.61-.08,1.29-.15,2-.26s1.41-.25,2.15-.41,1.5-.33,2.28-.49,1.56-.36,2.34-.56,1.58-.37,2.36-.56l2.3-.58c.75-.2,1.5-.35,2.21-.52l2-.5c.64-.17,1.26-.29,1.81-.43l3.69-.84-1.84-.33c-1.13-.22-2.69-.53-4.41-.92a47,47,0,0,1-5.3-1.44A14.77,14.77,0,0,1,113.38,45.26Zm6.52,5.43a5.2,5.2,0,0,0,.72.07,7.12,7.12,0,0,1-.68.28,7.76,7.76,0,0,1-1.92.34,12.76,12.76,0,0,1-2.74-.19c-1-.2-2-.45-3-.69a23.43,23.43,0,0,0-2.83-.76,17.36,17.36,0,0,0-2.47-.41,9.92,9.92,0,0,0-1.82,0,6.43,6.43,0,0,0-.71.08s.21-.16.61-.4a6.14,6.14,0,0,1,1.85-.67,10,10,0,0,1,2.78-.11,28.27,28.27,0,0,1,3.06.57c1,.32,2,.65,2.86.9s1.72.56,2.46.69A15.13,15.13,0,0,0,119.9,50.69Z"/><path class="cls-2" d="M190.86,278.55l-.47.26c.15-.09.32-.16.46-.25Z"/><path class="cls-2" d="M179.12,293.18a20.2,20.2,0,0,0,4.55,6.35,8.7,8.7,0,0,0,6.66,2.43,24.68,24.68,0,0,1,4-.14c.69,0,1.4.08,2.11.14l2.15.17c1.44.14,2.9.33,4.33.56s2.83.42,4.16.64,2.6.43,3.74.64,2.18.4,3,.54c1.72.29,2.77.51,2.77.51s-1.29-1.19-3.31-3l-3.5-3.08c-1.3-1.15-2.71-2.38-4.16-3.61s-2.93-2.43-4.42-3.65-3-2.31-4.37-3.25a26.64,26.64,0,0,0-4.07-2.25,7.57,7.57,0,0,0-3.62-.7c-.56.06-1.1.11-1.62.14s-1,0-1.53,0c-1,0-1.88,0-2.72-.12s-1.59-.15-2.28-.26-1.07-.22-1.54-.34l-2.85,1.59A42.09,42.09,0,0,0,179.12,293.18Zm25.19,5.94a11.42,11.42,0,0,1,2.59,1.35,10.84,10.84,0,0,1,.84.7,9,9,0,0,0-1-.4,16.32,16.32,0,0,0-2.69-.69,28.43,28.43,0,0,0-3.89-.37c-1.43-.08-3-.07-4.57-.11a28.68,28.68,0,0,1-4.68-.67,12.35,12.35,0,0,1-3.82-1.71,8.49,8.49,0,0,1-2.12-2c-.19-.3-.33-.53-.42-.7l-.13-.25a7.47,7.47,0,0,0,.81.71,10.82,10.82,0,0,0,2.35,1.42,15.52,15.52,0,0,0,3.66,1.08,28.4,28.4,0,0,0,4.44.4c1.54.12,3.12.19,4.61.35A18.88,18.88,0,0,1,204.31,299.12Zm-20.26-9.2c.4.25,1,.53,1.69.93s1.52.77,2.35,1.25,1.78.91,2.73,1.31,1.86.87,2.76,1.22,1.73.73,2.48,1,1.36.53,1.8.67l.7.28-.75.06a12.58,12.58,0,0,1-2-.05,17.61,17.61,0,0,1-2.74-.48c-1-.29-2-.66-3-1.07a30.47,30.47,0,0,1-2.77-1.6,17.37,17.37,0,0,1-2.16-1.76,12.45,12.45,0,0,1-1.32-1.47l-.44-.6Z"/><path class="cls-2" d="M209.45,276.57l.79-.14a18.75,18.75,0,0,0,2.07-.52c.84-.25,1.84-.57,2.9-1a23.12,23.12,0,0,0,3.3-1.42,29.79,29.79,0,0,0,3.23-1.91,14,14,0,0,0,2.68-2.38,9.28,9.28,0,0,0,1.74-2.72,5.78,5.78,0,0,0,.37-3,23.2,23.2,0,0,1-.09-4.88l-2.28,1.28c0,.88-.15,1.72-.16,2.44s-.13,1.42-.14,1.87l-.09.73s-.09-.25-.26-.69a15,15,0,0,1-.5-1.84c-.09-.51-.19-1.1-.27-1.72l-1.7.95c0,.21,0,.43,0,.63,0,.65-.11,1.26-.09,1.79s-.09,1-.09,1.32-.05.52-.05.52l-.28-.44a7.72,7.72,0,0,1-.56-1.25,11.12,11.12,0,0,1-.42-1.7L211.57,267a30,30,0,0,1-.94,6.52A14,14,0,0,1,209.45,276.57Z"/><path class="cls-2" d="M241.68,262s1-.51,2.56-1.43c.74-.49,1.6-1.09,2.51-1.76a28.13,28.13,0,0,0,2.78-2.28,34.88,34.88,0,0,0,2.57-2.74,14.25,14.25,0,0,0,2-3c1-2.06,1.38-4.07.56-5.93-.22-.52-.41-1.07-.59-1.64l-2.62,1.47a2.11,2.11,0,0,1,0,.25c.09.81.05,1.5.08,2s0,.75,0,.75l-.32-.69c-.16-.43-.45-1-.68-1.77l-2.76,1.54c0,.41-.08.81-.09,1.16s-.11.87-.13,1.15l-.08.46-.25-.39a6.16,6.16,0,0,1-.51-1.08l-.2-.6-5.71,3.2a29.45,29.45,0,0,1,1.26,8.15A13.73,13.73,0,0,1,241.68,262Z"/><path class="cls-2" d="M268.53,238.86s.84-.8,2.05-2.11c.58-.67,1.23-1.49,1.92-2.39s1.17-1.6,1.72-2.48l-6.28,3.52c0,.12.07.25.1.36A13.49,13.49,0,0,1,268.53,238.86Z"/><path class="cls-2" d="M283.07,183.5c.27.57.7,1.18,1.06,1.85a16.53,16.53,0,0,0,1.31,2,18.1,18.1,0,0,0,1.4,2c.48.58.92,1.19,1.34,1.75a3.52,3.52,0,0,1,.63,1.57,2.16,2.16,0,0,1,0,.63,2.16,2.16,0,0,0-.28-.52,5,5,0,0,0-1-1,20.63,20.63,0,0,1-1.74-1.38,20.06,20.06,0,0,1-1.73-2,17.94,17.94,0,0,1-1.22-2.33,6.34,6.34,0,0,1-.38-1.11v5.42l.09.12a12.78,12.78,0,0,0,1.08,1.43,11.93,11.93,0,0,0,1.12,1.39c.4.41.71.88,1.06,1.2s.59.69.8.89l.31.36-.47-.06a5.36,5.36,0,0,1-1.21-.38,7.25,7.25,0,0,1-1.53-.89,14.05,14.05,0,0,1-1.25-1.2v7.72a24,24,0,0,1,4.22,5.4,13.36,13.36,0,0,1,1.23,2.79s.58-1,1.36-2.61a30.48,30.48,0,0,0,1.17-2.84c.4-1.06.8-2.22,1.15-3.41a35.87,35.87,0,0,0,.72-3.69,15.78,15.78,0,0,0,.15-3.54c-.19-2.26-.87-4.14-2.33-5.21a22.33,22.33,0,0,1-4.2-4.34c-.66-.84-1.28-1.72-1.86-2.59l-1.61-2.47v3.82C282.55,182.57,282.81,183,283.07,183.5Z"/><path class="cls-2" d="M314.41,183.31l-4.12,2.39c-1.46.84-2.93,1.73-4.34,2.63s-2.72,1.85-4,2.79a21.66,21.66,0,0,0-3.24,2.89,11.52,11.52,0,0,0-1.12,1.51,7.56,7.56,0,0,0-.79,1.55c-.48,1.28-.93,2.45-1.4,3.5.1-.28.21-.55.3-.84.83-2.62,1.74-5.23,2.41-7.91a128.14,128.14,0,0,0,3.31-16.27l.24-2a28.66,28.66,0,0,0,5.89-1.79,15.82,15.82,0,0,0,5.37-3.67,9,9,0,0,0,2.61-6.12,30.86,30.86,0,0,1,.36-3.83c.21-1.32.38-2.68.65-4l.84-4.05c.28-1.33.58-2.63.88-3.86s.55-2.39.79-3.44.49-2,.68-2.78l.6-2.53s-1,1-2.51,2.65-3.63,3.85-5.74,6.24c-1.09,1.21-2.18,2.45-3.21,3.71-.52.63-1,1.26-1.49,1.89s-1,1.26-1.4,1.88a22.32,22.32,0,0,0-2.12,3.68,9,9,0,0,0-1,3.47c-.06,1.11-.12,2.16-.23,3.12q-.12.89-.27,1.68c.07-.88.14-1.76.16-2.64l.1-4.14c0-.7.05-1.36,0-2.09l0-2c0-1.36,0-2.71-.14-4.1s-.18-2.75-.26-4.12l-.42-4.08c-.22-1.84-.49-3.67-.78-5.5l.47-.25a25.18,25.18,0,0,0,4.31-3,15.32,15.32,0,0,0,3.87-5,10.51,10.51,0,0,0,.89-3.11,8.42,8.42,0,0,0-.25-3.43,34.25,34.25,0,0,1-.75-3.76c-.23-1.31-.41-2.66-.55-4s-.27-2.73-.41-4.09-.21-2.65-.3-3.91c-.24-2.47-.32-4.71-.48-6.28s-.18-2.56-.18-2.56-.61,1.23-1.51,3.17c-.45,1-1,2.13-1.57,3.38s-1.2,2.63-1.81,4-1.25,2.91-1.82,4.38-1.06,2.93-1.52,4.36a21.4,21.4,0,0,0-.89,4.09,10.59,10.59,0,0,0,.12,3.58,33.16,33.16,0,0,1,.78,4c-.15-.67-.29-1.34-.45-2a136.16,136.16,0,0,0-4.71-15.11q-1.85-4.83-4-9.37a24.69,24.69,0,0,0,3.25-4.25,14.51,14.51,0,0,0,2-5.7,9.6,9.6,0,0,0-1.33-6.35c-.61-1.06-1.22-2.18-1.81-3.36S291.3,80,290.74,78.8s-1.09-2.49-1.58-3.74l-1.46-3.58c-.46-1.14-.86-2.24-1.26-3.2l-1-2.57c-.28-.74-.51-1.33-.67-1.73s-.24-.63-.24-.63-.18,1.32-.45,3.34c-.12,1-.26,2.24-.42,3.55s-.29,2.79-.44,4.26-.26,3-.33,4.56-.15,3.07-.1,4.51a27.22,27.22,0,0,0,.41,4.09A11.31,11.31,0,0,0,284.36,91c.33.57.63,1.12.91,1.66-1.54-2.65-3.16-5.22-4.83-7.67A123.81,123.81,0,0,0,272,74c-.68-.75-1.34-1.51-2-2.26,0-.07.07-.14.11-.22A21,21,0,0,0,271.63,67a14.89,14.89,0,0,0,.16-5.82,10.42,10.42,0,0,0-3.15-5.59A35.57,35.57,0,0,1,266,52.94c-.88-1-1.79-1.95-2.66-3L262,48.4l-1.29-1.53c-.83-1-1.64-2-2.41-3-1.56-1.85-2.88-3.58-3.87-4.75l-1.56-1.92s.21,1.23.6,3.15.9,4.6,1.57,7.38c.34,1.39.66,2.89,1.06,4.32s.83,2.82,1.29,4.18A22.91,22.91,0,0,0,259,60a11,11,0,0,0,2.1,2.86c.51.46,1,.92,1.41,1.38a120.21,120.21,0,0,0-17.29-13.59c-1.14-.73-2.24-1.41-3.34-2.06a20.26,20.26,0,0,0,.13-4.9,13.08,13.08,0,0,0-1.63-5.35,11,11,0,0,0-1.86-2.44A11.54,11.54,0,0,0,235.8,34c-.54-.27-1.08-.56-1.63-.86s-1.11-.6-1.68-.93c-1.12-.64-2.24-1.38-3.38-2.08s-2.26-1.43-3.35-2.16-2.17-1.39-3.17-2.07-1.93-1.32-2.79-1.86l-2.26-1.49-2-1.34s.57,1.05,1.51,2.68l1.65,2.85,2,3.43c.73,1.2,1.51,2.39,2.31,3.6s1.62,2.41,2.48,3.49a28.84,28.84,0,0,0,2.64,3A13.23,13.23,0,0,0,231,42.27a47.56,47.56,0,0,1,5,2.95l.06.05c-2.17-1.13-4.23-2.12-6.13-3-4.43-1.92-8-3.17-10.46-4-1.23-.39-2.18-.66-2.82-.85l-1-.29.93.41c.6.27,1.51.67,2.69,1.16,2.36,1,5.77,2.63,10,4.82A151.81,151.81,0,0,1,244,52.46a130.61,130.61,0,0,1,17.26,14l2.2,2.17c.74.73,1.44,1.51,2.17,2.27,1.48,1.52,2.87,3.18,4.32,4.82.72.84,1.39,1.71,2.1,2.57S273.48,80,274.15,81l2.06,2.74,2,2.85a126.37,126.37,0,0,1,13.6,25.92,132.35,132.35,0,0,1,4.67,14.77,129.44,129.44,0,0,1,2.8,15.62c.14,1.33.27,2.67.4,4s.17,2.67.25,4,.1,2.7.13,4.06l0,2c0,.63,0,1.34,0,2L300,163c0,1.35-.18,2.7-.27,4.05-.15,2.71-.55,5.4-.88,8.09a123.68,123.68,0,0,1-3.45,15.88c-.68,2.61-1.61,5.15-2.45,7.7-.43,1.27-1,2.51-1.43,3.76s-1,2.5-1.52,3.71-1.09,2.43-1.63,3.64-1.2,2.37-1.79,3.55c-1.15,2.38-2.53,4.62-3.8,6.9l-.35.55v6.46l-7,3.93c-.45.6-.9,1.2-1.36,1.78-1.51,2-3.18,3.92-4.78,5.83-.78,1-1.67,1.83-2.49,2.74s-1.65,1.83-2.53,2.68c-1.75,1.68-3.41,3.44-5.22,5l-2.64,2.36-2.71,2.22a131,131,0,0,1-21.77,14.39,132.57,132.57,0,0,1-20.35,8.55c-1.54.58-3.08,1-4.55,1.46l-2.17.66c-.71.22-1.43.36-2.11.56l-4,1.07-3.66.83c-2.32.59-4.41.92-6.22,1.29-.92.18-1.76.36-2.54.49l-2.13.34c-1.27.2-2.25.39-2.91.5l-.14,0-.31.17.47,0c.67,0,1.66.07,2.95.09l2.16,0c.79,0,1.66-.07,2.6-.1,1.88-.08,4.06-.18,6.46-.48a100.94,100.94,0,0,0,17.21-3.35l.12,0,.24.39a37.74,37.74,0,0,0,4.1,5.24,20.33,20.33,0,0,0,6.06,4.55,9,9,0,0,0,7,.29,33.61,33.61,0,0,1,3.75-1.27c1.32-.37,2.73-.65,4.14-.92s2.83-.56,4.24-.78,2.83-.38,4.12-.6,2.56-.36,3.7-.5l3-.37c1.69-.23,2.74-.35,2.74-.35s-1.53-.71-3.9-1.75l-4.13-1.84c-1.53-.67-3.18-1.39-4.88-2.09l-2.56-1-2.6-1.05c-1.73-.66-3.41-1.24-5-1.68a24.84,24.84,0,0,0-4.49-.91,8.09,8.09,0,0,0-3.13.28l3.11-1.33,5.53-2.67,5.62-3.07c1.85-1.15,3.76-2.27,5.65-3.51l1-.68.08.06a33.13,33.13,0,0,0,5.25,3.64,19.2,19.2,0,0,0,6.89,2.4,8.88,8.88,0,0,0,6.67-1.77c1-.75,2.05-1.55,3.21-2.27s2.39-1.41,3.66-2.06,2.51-1.35,3.78-2,2.56-1.17,3.72-1.75c2.35-1.15,4.5-2.1,6.06-2.78l2.47-1.13s-1.61-.22-4.08-.48-5.91-.7-9.43-1c-1.75-.14-3.61-.32-5.39-.42s-3.52-.14-5.13-.08a23.27,23.27,0,0,0-4.48.49,9.2,9.2,0,0,0-2.27.82,128.32,128.32,0,0,0,16.17-16.35l.17.08a30.73,30.73,0,0,0,5.83,1.84,18.27,18.27,0,0,0,7,.19,9,9,0,0,0,5.77-3.62c.74-1,1.54-2,2.42-3.07s1.86-2,2.88-3,2-2,3-3,2.05-1.86,3-2.74c1.87-1.77,3.61-3.31,4.88-4.41.64-.54,1.11-1,1.46-1.31l.54-.47-3.89.75c-2.4.45-5.62,1.09-9,1.85-1.65.39-3.43.76-5.09,1.2s-3.3.92-4.78,1.46a22.1,22.1,0,0,0-4.05,1.78,9.2,9.2,0,0,0-2.74,2.38v0c1.72-2.59,3.36-5.26,5-8,1.26-2.36,2.63-4.69,3.76-7.16.58-1.22,1.2-2.43,1.75-3.68l1-2.36.45.05a29.8,29.8,0,0,0,5.85,0A17.56,17.56,0,0,0,305,207a9,9,0,0,0,4.36-5.14c.4-1.17.93-2.36,1.45-3.6s1.16-2.48,1.83-3.71,1.33-2.46,2-3.68,1.35-2.37,2-3.48,1.23-2.15,1.8-3.09l1.48-2.5,1-1.65c.25-.39.36-.61.36-.61l-3.37,1.82Zm-1.09-28.85c-.14.32-.28.83-.51,1.37s-.44,1.22-.74,1.88-.57,1.4-.81,2.13a22.59,22.59,0,0,0-.83,2.12c-.22.69-.55,1.32-.73,1.89s-.43,1-.55,1.36l-.24.52s0-.21-.1-.57a10.13,10.13,0,0,1-.08-1.5,12.94,12.94,0,0,1,.22-2.11c.18-.76.41-1.56.66-2.35s.72-1.49,1.1-2.17a12.65,12.65,0,0,1,1.25-1.71,10.29,10.29,0,0,1,1.08-1.06l.46-.35S313.43,154.11,313.32,154.46Zm-6.78,3.78a11.13,11.13,0,0,1,.48-1.58,15.73,15.73,0,0,1,1-2.12c.43-.74.91-1.51,1.41-2.26s1.17-1.4,1.74-2a16.36,16.36,0,0,1,1.75-1.54,12,12,0,0,1,1.37-.93l.56-.3-.32.55c-.23.32-.5.83-.9,1.36s-.79,1.2-1.29,1.84-1,1.36-1.49,2.08-1.07,1.37-1.54,2-1,1.24-1.38,1.78-.8,1-1,1.26l-.43.47S306.46,158.64,306.54,158.24Zm-.32-43,.38-.47s0,.22-.07.6-.12.91-.25,1.52-.22,1.34-.41,2.09-.34,1.55-.48,2.36-.38,1.59-.53,2.35-.37,1.45-.48,2.07-.31,1.12-.39,1.49l-.18.57-.16-.58a10.93,10.93,0,0,1-.26-1.55,14.38,14.38,0,0,1,0-2.21c.07-.8.18-1.66.32-2.51s.47-1.66.73-2.42a15.7,15.7,0,0,1,1-2A10.53,10.53,0,0,1,306.22,115.23ZM302.5,117c.1-.7.13-1.53.31-2.38s.36-1.77.54-2.68.52-1.78.77-2.62.59-1.59.83-2.25.55-1.18.72-1.55L306,105s0,.24,0,.66,0,1-.09,1.71-.13,1.52-.31,2.38-.35,1.76-.54,2.67L304.3,115c-.24.83-.6,1.58-.83,2.24s-.56,1.18-.72,1.56-.32.58-.32.58,0-.24,0-.66S302.41,117.71,302.5,117Zm-63.27-74.7a16.09,16.09,0,0,0-1.65-1.93,23.66,23.66,0,0,0-2.71-2.3,30.69,30.69,0,0,0-3.42-2.26l-3.55-2.26a28.29,28.29,0,0,1-3-2.26,14.67,14.67,0,0,1-1.84-1.91c-.4-.51-.6-.81-.6-.81s.3.21.83.55,1.29.81,2.19,1.37,2,1.09,3.18,1.75l3.68,2.07a32.88,32.88,0,0,1,3.47,2.58,16,16,0,0,1,2.51,2.85,10.12,10.12,0,0,1,1.19,2.41c.1.3.15.55.2.71l.06.26A9.72,9.72,0,0,0,239.23,42.32Zm29.14,21.9a6,6,0,0,1-.35.89,6.23,6.23,0,0,0,0-.93,8.63,8.63,0,0,0-.45-2.31,11.38,11.38,0,0,0-1.45-2.9,19.46,19.46,0,0,0-2.4-2.94l-2.62-3a16.38,16.38,0,0,1-2-3,9.45,9.45,0,0,1-.86-2.38c-.1-.6-.12-.94-.12-.94a8.53,8.53,0,0,0,.45.82,16.29,16.29,0,0,0,1.36,2c.59.78,1.43,1.58,2.28,2.48L265,54.84a20.41,20.41,0,0,1,2.41,3.35,9.69,9.69,0,0,1,1.11,3.48A6.68,6.68,0,0,1,268.37,64.22Zm17.84,21.47c0,.64-.07,1.2-.07,1.59s-.06.61-.06.61-.11-.2-.28-.55a10.68,10.68,0,0,1-.57-1.51,17.13,17.13,0,0,1-.53-2.21c-.11-.82-.2-1.7-.27-2.58s.06-1.76.13-2.59a17.27,17.27,0,0,1,.4-2.23,13,13,0,0,1,.49-1.54l.24-.57s0,.22.1.61.13.94.16,1.58.13,1.4.13,2.2.05,1.65.11,2.49,0,1.7,0,2.5S286.18,85,286.21,85.69Zm3.11,5.72c-.23-.82-.43-1.71-.6-2.6s-.12-1.82-.13-2.67a16.39,16.39,0,0,1,.26-2.32,10.79,10.79,0,0,1,.42-1.6l.22-.59s0,.23.12.62.16,1,.23,1.6.22,1.41.28,2.21.2,1.66.35,2.51.19,1.7.34,2.5.19,1.57.32,2.21.14,1.22.21,1.6.05.63.05.63L291,95a10.86,10.86,0,0,1-.84-1.42A15.09,15.09,0,0,1,289.32,91.41ZM241.08,284.24a11.32,11.32,0,0,1,3,.33,9.46,9.46,0,0,1,1.08.35,9.92,9.92,0,0,0-1.12,0,16.62,16.62,0,0,0-2.88.33,28.61,28.61,0,0,0-3.93,1.09c-1.42.45-2.94,1-4.5,1.57a27.57,27.57,0,0,1-4.83,1,12.58,12.58,0,0,1-4.35-.34,7.56,7.56,0,0,1-3.42-1.86l-.21-.2.26.13a6.45,6.45,0,0,0,.76.32,10.94,10.94,0,0,0,2.79.63,15.28,15.28,0,0,0,4-.19,26.68,26.68,0,0,0,4.48-1.2c1.55-.45,3.11-1,4.62-1.36A19.77,19.77,0,0,1,241.08,284.24Zm-14.66.12,1.7-.41,1.75-.18a13,13,0,0,1,1.54,0,10,10,0,0,1,1.12.13l.43.1-.37.24a9.49,9.49,0,0,1-1,.5,11.67,11.67,0,0,1-1.46.52l-1.7.41-1.74.18a13.33,13.33,0,0,1-1.55,0c-.45,0-.85-.12-1.11-.14l-.44-.1.38-.24a8.61,8.61,0,0,1,1-.5A11.49,11.49,0,0,1,226.42,284.36Zm40.13-21.31c1.34-.75,2.67-1.58,4-2.29a16.17,16.17,0,0,1,3.87-1.43,9.2,9.2,0,0,1,2.92-.19,7.94,7.94,0,0,1,1.08.2,7.19,7.19,0,0,0-1.07.14,12.42,12.42,0,0,0-2.63.79,23.11,23.11,0,0,0-3.42,1.82c-1.22.74-2.49,1.63-3.84,2.47a21.35,21.35,0,0,1-4.35,1.94,9.91,9.91,0,0,1-4.21.24,6.62,6.62,0,0,1-2.75-1.08,5.92,5.92,0,0,1-.62-.53l-.21-.2.26.13a6.45,6.45,0,0,0,.73.29,7.78,7.78,0,0,0,2.67.4,11.21,11.21,0,0,0,3.67-.71A19.77,19.77,0,0,0,266.55,263.05ZM259,261.6a12.26,12.26,0,0,0,1.94-.19c.61-.13,1.22-.15,1.72-.29s1-.18,1.26-.27l.51-.1-.34.4a5.65,5.65,0,0,1-1,.88,7.84,7.84,0,0,1-1.74.86,7.93,7.93,0,0,1-4.42.31,7.35,7.35,0,0,1-1.84-.62,5.38,5.38,0,0,1-1.15-.72l-.39-.35.51,0c.31,0,.78,0,1.29.09s1.13,0,1.74.05A11.66,11.66,0,0,0,259,261.6Zm27.34-31a15.12,15.12,0,0,1,1.46-1.25,23.4,23.4,0,0,1,2.24-1.51c.86-.47,1.8-1,2.76-1.4s2-.72,2.92-1a21.67,21.67,0,0,1,2.64-.58,15.36,15.36,0,0,1,1.91-.19H301l-.65.34c-.42.18-1,.51-1.71.81s-1.52.72-2.41,1.07-1.82.76-2.74,1.2-1.89.76-2.77,1.15-1.73.68-2.43,1-1.35.5-1.77.68l-.7.23Zm-3.69,8.52a8.2,8.2,0,0,0,2.25-.51,11.32,11.32,0,0,0,2.79-1.54,17.71,17.71,0,0,0,2.75-2.51c.93-.9,1.83-1.87,2.73-2.76a18.18,18.18,0,0,1,2.73-2.19,10.41,10.41,0,0,1,2.25-1.07c.57-.16.91-.22.91-.22s-.3.18-.76.53a17,17,0,0,0-1.79,1.54c-.71.65-1.42,1.54-2.23,2.46s-1.66,1.94-2.58,2.94a19.22,19.22,0,0,1-3.17,2.56,9.12,9.12,0,0,1-3.39,1.22,6.19,6.19,0,0,1-2.52-.11,6.35,6.35,0,0,1-.89-.32A5.89,5.89,0,0,0,282.6,239.12Zm27-45.08c-.26.28-.57.75-1,1.22s-.86,1.1-1.39,1.67-1.05,1.24-1.55,1.9-1.08,1.27-1.56,1.9-1,1.17-1.36,1.69-.78.9-1,1.21l-.41.45.11-.6a9.86,9.86,0,0,1,.45-1.55,13.23,13.23,0,0,1,1-2.06c.43-.7.93-1.44,1.46-2.15s1.22-1.29,1.82-1.86a14.53,14.53,0,0,1,1.83-1.34,9.2,9.2,0,0,1,1.43-.75l.57-.23Zm4-6.76c-.39.23-.9.62-1.53,1s-1.33.94-2.11,1.43-1.56,1.1-2.32,1.72-1.57,1.17-2.27,1.77-1.4,1.12-1.94,1.64-1.07.89-1.39,1.2l-.56.46.28-.66a12,12,0,0,1,.92-1.65,17.1,17.1,0,0,1,1.64-2.1c.69-.69,1.46-1.4,2.26-2.07s1.74-1.14,2.6-1.62a17.35,17.35,0,0,1,2.46-1,12.17,12.17,0,0,1,1.83-.45l.71-.09Z"/><path class="cls-2" d="M283,153.71c.19.75.39,1.52.61,2.29s.46,1.53.65,2.28a39.54,39.54,0,0,0,1.44,4.27c.29.66.51,1.28.8,1.86a12.48,12.48,0,0,0,.88,1.59,5.76,5.76,0,0,0,2.13,2.08,23.92,23.92,0,0,1,6.57,4.69,13.42,13.42,0,0,1,1.87,2.31s.25-1.13.52-2.89a26.16,26.16,0,0,0,.36-3.05c.07-1.13.11-2.36.1-3.61,0-.62,0-1.25-.05-1.87s-.15-1.26-.24-1.87a21.54,21.54,0,0,0-.8-3.45,8.87,8.87,0,0,0-1.42-2.74,5.05,5.05,0,0,0-2.08-1.62,20.81,20.81,0,0,1-4.93-3c-.81-.64-1.61-1.31-2.37-2l-2.21-2c-.94-.88-1.75-1.71-2.45-2.42v6.79C282.59,152.08,282.81,152.89,283,153.71Zm9.23,8.36a3.83,3.83,0,0,1-.92-.15,5.39,5.39,0,0,1-1.2-.47c-.39-.25-.81-.54-1.2-.84a13.56,13.56,0,0,1-1-1.13,5.7,5.7,0,0,1-.58-1.16,4.27,4.27,0,0,1-.22-.9l0-.37.32.19a8.15,8.15,0,0,1,.73.5c.26.24.64.43.93.73s.64.57,1,.84.62.63.93.91.55.62.8.86.42.53.57.68l.21.3Zm-7.67-11a7.82,7.82,0,0,0,1.23,1.29,14.6,14.6,0,0,0,2,1.43,25.41,25.41,0,0,0,2.55,1.42c.88.53,1.78,1.08,2.59,1.68a10,10,0,0,1,1.94,2,5.61,5.61,0,0,1,.86,1.77,6.82,6.82,0,0,1,.14.72,5.51,5.51,0,0,0-.44-.56,8.18,8.18,0,0,0-1.29-1.26,15.47,15.47,0,0,0-2.07-1.38c-.78-.48-1.67-.94-2.58-1.4a27.45,27.45,0,0,1-2.58-1.71,8.94,8.94,0,0,1-1.9-2,5.1,5.1,0,0,1-.79-1.8,4.25,4.25,0,0,1-.09-.54c0-.12,0-.18,0-.18A6.21,6.21,0,0,0,284.56,151Z"/><path class="cls-2" d="M282.92,121.05a21.9,21.9,0,0,0,2.51.76c.87.31,1.76.62,2.59,1a9,9,0,0,1,2.11,1.35,5.37,5.37,0,0,1,1.13,1.37,5,5,0,0,1,.28.61,5.76,5.76,0,0,0-.53-.38,9.36,9.36,0,0,0-1.43-.77,18.06,18.06,0,0,0-2.11-.76c-.79-.27-1.66-.49-2.55-.72a24.87,24.87,0,0,1-2.54-1V129c.41.61.82,1.2,1.23,1.75a16.89,16.89,0,0,0,2.47,2.88,5.74,5.74,0,0,0,2.48,1.44,23.21,23.21,0,0,1,7.24,2.76,12.53,12.53,0,0,1,2.28,1.72s0-.29-.06-.8-.09-1.25-.23-2.13-.32-1.92-.54-3a32.13,32.13,0,0,0-.89-3.5,27,27,0,0,0-1.3-3.52,22.64,22.64,0,0,0-1.68-3.1,9.86,9.86,0,0,0-2.07-2.25,4.62,4.62,0,0,0-2.32-1,19.18,19.18,0,0,1-5.31-1.6l-1.3-.61v2.88Z"/><path class="cls-2" d="M273.29,92.69a18.56,18.56,0,0,1,2.74.84,8.34,8.34,0,0,1,2.15,1.36,5.08,5.08,0,0,1,1.11,1.4c.19.39.27.61.27.61a4.38,4.38,0,0,0-.53-.38,7.68,7.68,0,0,0-1.41-.81,12.59,12.59,0,0,0-2.11-.74l-.14,0,7,3.92v4.8a21.83,21.83,0,0,1,3.24.66,10.76,10.76,0,0,1,2.58,1.06l-.28-.76c-.2-.47-.49-1.15-.86-2s-.81-1.77-1.35-2.77-1.17-2-1.84-3.1a31.93,31.93,0,0,0-2.23-3c-.39-.47-.79-.93-1.19-1.36s-.85-.81-1.27-1.16a11.13,11.13,0,0,0-2.53-1.65,4.39,4.39,0,0,0-2.43-.37,16.67,16.67,0,0,1-5.29-.25,46.62,46.62,0,0,1-5.64-1.28c-.6-.15-1.15-.31-1.69-.46l9.2,5.15Z"/><path class="cls-2" d="M238.11,64.56c-.78,0-1.48,0-2.06-.09-1.17-.06-1.89-.13-1.89-.13l.9.5,1,.56c.4.22.87.44,1.36.73,1,.56,2.15,1.21,3.43,1.89l2,1.12,2.07,1.14c.69.4,1.39.8,2.1,1.18s1.43.75,2.11,1.14c1.37.77,2.78,1.42,4,2a18.83,18.83,0,0,0,3.54,1.29,5.08,5.08,0,0,0,2.66.09,19.91,19.91,0,0,1,7-1,12,12,0,0,1,2.67.38s-.7-.93-1.85-2.3c-.57-.68-1.31-1.44-2.1-2.25a30,30,0,0,0-2.63-2.48A34.15,34.15,0,0,0,259.49,66a25.79,25.79,0,0,0-3.05-1.78,9.86,9.86,0,0,0-2.84-.92,4.32,4.32,0,0,0-2.35.21,11.58,11.58,0,0,1-2.3.66,20.47,20.47,0,0,1-2.7.36c-.93.08-1.89.11-2.83.11s-1.91,0-2.8,0S238.87,64.6,238.11,64.56Zm4.67,2.94a8.91,8.91,0,0,0,1.63-.14,15.64,15.64,0,0,0,2.19-.58c.81-.23,1.67-.55,2.59-.85A16.65,16.65,0,0,1,252,65.5a8.9,8.9,0,0,1,2.53.31,6.2,6.2,0,0,1,1.63.72c.36.24.54.39.54.39s-.24,0-.65-.07a13.1,13.1,0,0,0-1.66-.06,14.8,14.8,0,0,0-2.25.23,15.36,15.36,0,0,0-2.52.61c-.89.21-1.8.46-2.7.64a8.47,8.47,0,0,1-2.54.08,5,5,0,0,1-1.72-.51,5.28,5.28,0,0,1-.57-.37A3.81,3.81,0,0,0,242.78,67.5Z"/><path class="cls-2" d="M211.44,51.31l2,.5c.71.17,1.45.32,2.21.52l2.3.58c.78.19,1.58.34,2.36.56s1.56.39,2.34.56,1.55.32,2.28.49,1.46.3,2.15.41,1.36.18,2,.26a13.2,13.2,0,0,0,1.73.1,4.93,4.93,0,0,0,2.54-.56,19.21,19.21,0,0,1,6.2-2.54,10.08,10.08,0,0,1,2.61-.29l-.64-.48c-.42-.3-1-.7-1.79-1.18s-1.65-1-2.64-1.61S235,47.53,233.88,47a32.57,32.57,0,0,0-3.49-1.4,18.45,18.45,0,0,0-3.4-.9,11.85,11.85,0,0,0-3-.19,4,4,0,0,0-2.15.76,14.77,14.77,0,0,1-4.4,2.09,46.59,46.59,0,0,1-5.31,1.44c-1.71.39-3.27.7-4.41.92l-1.83.33,3.69.84C210.18,51,210.8,51.14,211.44,51.31Zm3.93-.62a15.47,15.47,0,0,0,1.8-.3c.74-.13,1.56-.44,2.46-.69s1.87-.58,2.85-.9a28.44,28.44,0,0,1,3.07-.57,10.05,10.05,0,0,1,2.78.11,6,6,0,0,1,1.84.67,6.76,6.76,0,0,1,.62.4,6.45,6.45,0,0,0-.72-.08,9.81,9.81,0,0,0-1.81,0,17.13,17.13,0,0,0-2.47.41,23.43,23.43,0,0,0-2.83.76c-1,.24-2,.49-3,.69a12.63,12.63,0,0,1-2.73.19,7.67,7.67,0,0,1-1.92-.34,7.12,7.12,0,0,1-.68-.28A5.2,5.2,0,0,0,215.37,50.69Z"/><path class="cls-2" d="M190.39,278.81l.47-.26L211.57,267l7.93-4.44,1.54-.87,1.7-.95,1.42-.79,2.28-1.28,14.31-8,5.71-3.2,1.26-.7,2.76-1.54.92-.52,2.62-1.47,13.92-7.79,6.28-3.52,1.13-.63,7-3.93V98.85l-7-3.92-4.57-2.56-9.2-5.15L200.35,52.94l-.51,1.47c-.6,1.69-1.27,3.63-2,5.79l77,43.08V222.9l-107.21,60-107.2-60V103.28L137.38,60.2c-.68-2.16-1.36-4.1-1.95-5.79-.18-.51-.35-1-.52-1.47L73.67,87.22l-9.2,5.15L59.9,94.93l-7,3.92V227.32l7,3.93,1.12.63,6.29,3.52,13.92,7.79,2.62,1.47.92.52,2.76,1.54,1.25.7,5.72,3.2,14.31,8,2.28,1.28,1.42.79,1.7.95,1.54.87L123.7,267l20.71,11.59.43.24,9.33,5.23.31.17,1.32.74,2.85,1.59,9,5,9-5,2.85-1.59,1.32-.74.31-.17Z"/><path class="cls-2" d="M195.35,69.91l69.48,38.89v92l-33.92,11.49-.06,24.15-63.22,35.38-63.21-35.38-.06-24.15L70.44,200.75V108.8l69.47-38.89c-.33-1.64-.7-3.21-1.08-4.69l-73,40.87v114l101.81,57,101.82-57v-114l-73-40.87C196.05,66.7,195.69,68.27,195.35,69.91Z"/><path class="cls-2" d="M201.4,141.4c0,4.84,3.86,7.68,8.5,8.72a33.37,33.37,0,0,1,.37,5.47,6,6,0,0,1-1.8,4.73,9.84,9.84,0,0,0-3.3.9,9.67,9.67,0,0,1,1,4.2,12.79,12.79,0,0,1-1.12,5.4,8.28,8.28,0,0,0,2.11,1.72c4.69,2.75,9.17,5.38,10.58,10.54l2.08-.1c1.44,0,3.12-.11,4.92-.15l5.63-.12,5.63-.06c1.8,0,3.48,0,4.93,0,2.88,0,4.83.12,4.83.12s-1.89.48-4.76.9c-1.44.22-3.12.4-4.93.55-.9.06-1.83.16-2.79.19l-2.88.1H227.5c-.95,0-1.89-.06-2.8-.08-1.81-.09-3.49-.23-4.94-.4-.68-.07-1.31-.15-1.87-.23a13.81,13.81,0,0,1,.3,2.9,11.91,11.91,0,0,1-.3,2.48h4.3c3,0,5.95.07,8.74,0s5.4,0,7.62-.1,4.09-.16,5.38-.3c.65-.07,1.16-.13,1.5-.2a5,5,0,0,0,.52-.13,4.8,4.8,0,0,1-.51.19c-.33.11-.83.22-1.47.37-1.29.24-3.14.54-5.38.73s-4.84.39-7.64.46-5.78.11-8.77.13l-4.58-.1a17.35,17.35,0,0,1-1,2.5,16.75,16.75,0,0,1,1.07,2.69h.19c1.63.07,3.31.05,5,.08s3.34,0,5,0,3.25-.11,4.81-.19,3.07-.21,4.49-.36,2.77-.31,4-.52a44.77,44.77,0,0,0,5.89-1.28,14.93,14.93,0,0,0,2.15-.81,12.23,12.23,0,0,1-2.07,1,35.7,35.7,0,0,1-5.85,1.72,69.77,69.77,0,0,1-8.53,1.25c-1.57.11-3.2.23-4.86.28s-3.32.07-5,.1-3.23-.06-4.83-.15a21.61,21.61,0,0,1,.56,4.21c1.36,0,2.78.08,4.28.09,20.74.13,28-4,28.81-4.49L253.9,195l0-2.62L254,183c0-5.41-4.62-7.86-7.4-9.32-.49-.25-1.14-.6-1.6-.88l0-4.95c0-3.37-2.23-6.77-7.26-7.37-.7-.62-1.75-2-1.73-4.75a31.54,31.54,0,0,1,.44-5.46c4.65-1,8.57-3.77,8.6-8.62a7.63,7.63,0,0,0-4.72-7A18.75,18.75,0,0,0,243.55,124c0-7.32-3.19-11.36-5.91-13.46-3.44-2.64-8.08-4-14.19-4s-10.76,1.21-14.23,3.81c-2.75,2.06-6,6.06-6.08,13.38a18.7,18.7,0,0,0,3.06,10.68A7.62,7.62,0,0,0,201.4,141.4Zm38.69,32.4v-.21c0-.14,0-.28,0-.42s.07-.54.1-.8c0-.53.14-1,.21-1.48a20.74,20.74,0,0,1,.7-3,21.59,21.59,0,0,1,.66,3.06c.07.46.14.95.19,1.48q0,.39.09.81c0,.13,0,.27,0,.41v.14h0v0l0,.1c.05.28.12.64.22.62s0,.06.11.14a2.2,2.2,0,0,1,.2.23,6.5,6.5,0,0,0,1.17.9c.47.3,1,.59,1.48.89s1,.62,1.52.93a11.68,11.68,0,0,1,1.41,1,6.58,6.58,0,0,1,1.12,1.19,4.42,4.42,0,0,1,.41.62l.26.62a4.41,4.41,0,0,1,.19,1.06,7.88,7.88,0,0,1-.13.89s-.14-.32-.33-.78a6.75,6.75,0,0,0-.52-.73,5.83,5.83,0,0,0-.85-.73,4,4,0,0,0-.55-.34,5.76,5.76,0,0,0-.61-.34c-.42-.23-.91-.43-1.41-.68s-1-.45-1.59-.73-1.11-.57-1.68-.91l-.84-.61a6.65,6.65,0,0,1-.79-.8,3.66,3.66,0,0,1-.85-2.18v-.37Zm-26.38-16a8.74,8.74,0,0,1-.51,1.57,7.38,7.38,0,0,1-1.62,2.4,6.26,6.26,0,0,1-1.64,1.18,3.53,3.53,0,0,1-.7.27,7.93,7.93,0,0,0,1.83-1.89,11.64,11.64,0,0,0,.64-1.07,11.06,11.06,0,0,0,.52-1.26l.21-.69c0-.25.09-.49.15-.73a10.73,10.73,0,0,0,.15-1.51c0-.5,0-1,0-1.57s0-1,0-1.53c0-1-.07-1.91-.14-2.71s-.16-1.45-.25-1.91-.17-.72-.17-.72a4,4,0,0,1,.39.64,10.39,10.39,0,0,1,.7,1.87,17.7,17.7,0,0,1,.51,2.76,22.8,22.8,0,0,1,.12,3.23A11.73,11.73,0,0,1,213.71,157.78Zm19.49,7.56c-.48,0-1.16.16-2,.21s-1.77.15-2.8.16l-3.2.06-3.21-.1c-1,0-2-.14-2.79-.2s-1.51-.18-2-.23l-.75-.12.75-.11c.48,0,1.16-.15,2-.2s1.77-.15,2.8-.16l3.2-.06,3.21.1c1,0,2,.14,2.8.19s1.5.18,2,.23l.75.12Zm-15.44-51.21.52-.16c.33-.07.79-.23,1.37-.31a18.24,18.24,0,0,1,2-.27c.72,0,1.48-.08,2.26-.1s1.53.08,2.25.13,1.39.2,2,.29,1,.25,1.36.33l.52.17-.54.06c-.33,0-.82.09-1.39.1s-1.24.08-1.95.08-1.47,0-2.22,0-1.52,0-2.23,0-1.37-.08-1.94-.1-1.06-.1-1.4-.12Zm1.17,30.93.64-.11c.41,0,1-.16,1.7-.21s1.52-.15,2.4-.16l2.75-.06,2.75.09c.88,0,1.69.14,2.4.2s1.28.18,1.69.23l.64.11-.64.11c-.41.05-1,.16-1.7.21s-1.52.15-2.4.17l-2.75.06-2.75-.1c-.87,0-1.69-.14-2.39-.19s-1.29-.18-1.7-.23Zm15.55,16.69a4.52,4.52,0,0,1-1.45-.89,5.85,5.85,0,0,1-1.46-2,6.58,6.58,0,0,1-.44-1.34,8.36,8.36,0,0,1-.18-1.42v-.7l0-.67c0-.45.08-.88.15-1.3a12.37,12.37,0,0,1,.58-2.26,6.72,6.72,0,0,1,.74-1.5,2.32,2.32,0,0,1,.4-.49s0,.22-.07.61-.05.93-.07,1.57,0,1.39,0,2.19v2.15l0,.33c0,.47.06.8.09,1.18a9.3,9.3,0,0,0,.23,1.1,10,10,0,0,0,.33,1c.14.31.28.61.43.88a8.32,8.32,0,0,0,1.29,1.71A2.55,2.55,0,0,1,234.48,161.75ZM241.37,139a2.84,2.84,0,0,1,.52,1.32,2.26,2.26,0,0,1-.22,1.3,4.18,4.18,0,0,0-.65-.94,2.62,2.62,0,0,0-.75-.56,7.41,7.41,0,0,0-1.77-.63c-.64-.16-1.33-.29-2-.42s-1.43-.28-2.14-.44l-.35-.09-15.46-.69,15.15-.52a16.39,16.39,0,0,1,.3-2.17,17,17,0,0,1,.77,2,8.56,8.56,0,0,1,1.95-.21,8,8,0,0,1,2.47.46A4.79,4.79,0,0,1,241.37,139Zm-8.4-6.2.16-.44c.1-.27.25-.65.42-1.11a34.53,34.53,0,0,0,1.09-3.3c.34-1.21.6-2.44.77-3.39s.31-1.62.31-1.62a6.57,6.57,0,0,1,.37,1.64,8.16,8.16,0,0,1,0,1.73,10.75,10.75,0,0,1-.34,2,11.65,11.65,0,0,1-.72,1.85,8.55,8.55,0,0,1-.92,1.46A6.34,6.34,0,0,1,233,132.83Zm-25.9-11.6a8.72,8.72,0,0,1,.14-1.36,9.22,9.22,0,0,1,.36-1.57,10.24,10.24,0,0,1,1.76-3.51,10.79,10.79,0,0,1,3.61-3,16.9,16.9,0,0,1,4.92-1.73,30.51,30.51,0,0,1,5.45-.52A34.24,34.24,0,0,1,229,110a18,18,0,0,1,5.48,1.94,11.23,11.23,0,0,1,4.15,4,12.56,12.56,0,0,1,1.65,5c0,.42.08.82.11,1.23v1.17a14.48,14.48,0,0,1-.17,2.22,13.8,13.8,0,0,1-2.49,6.32,11.19,11.19,0,0,1-1.23,1.44l-.47.45.37-.54a13.56,13.56,0,0,0,.93-1.59,15,15,0,0,0,1.54-6.2,14.47,14.47,0,0,0-.06-2.06l-.09-1.08c-.06-.35-.12-.71-.19-1.08a11.76,11.76,0,0,0-1.66-4.2c-1.7-2.6-4.89-4.15-8.3-4.73a32.39,32.39,0,0,0-5.23-.48,35,35,0,0,0-5.08.29c-3.24.47-6.11,1.68-7.86,3.58a10.58,10.58,0,0,0-2,2.94,10.38,10.38,0,0,0-.53,1.42,9.64,9.64,0,0,0-.35,1.25,16.71,16.71,0,0,0-.33,1.83c-.06.42-.09.65-.09.65s0-.23,0-.66A12.67,12.67,0,0,1,207.07,121.23Z"/><path class="cls-2" d="M112.94,190.51c1.63.07,3.25.12,4.86.16a12.65,12.65,0,0,1-.64-2.85l-4.24.29c-5.76.33-11.55.44-15.9.4s-7.25-.15-7.25-.15,2.88.42,7.21.9S107.11,190.25,112.94,190.51Z"/><path class="cls-2" d="M80.83,182.41l.06,9.49,0,2.66,2.26,1.4c.77.48,8.19,4.68,29.24,4.55,1.51,0,2.93,0,4.3-.08a20.7,20.7,0,0,1,.66-4.28c-1.65.09-3.3.1-5,.15s-3.42,0-5.1-.1-3.33-.17-4.93-.28a71.12,71.12,0,0,1-8.65-1.27,37.33,37.33,0,0,1-5.94-1.74,12.31,12.31,0,0,1-2.1-1h0s0-4.61-.06-9.49,9.16-5.31,9.14-9.26,0-4.76,0-6.12.85-2.7,4.11-2.72c0,0,5.06-2.29,5-9.57s-1.56-9.91-1.56-9.91-7.59-.17-7.62-4.38c0-3.36,5.41-3.73,7.58-3.75.55,0,.89,0,.89,0l0-2.11a5.68,5.68,0,0,1-.78-.35,11.09,11.09,0,0,1-2-1.34,12.48,12.48,0,0,1-2.56-2.83,13.9,13.9,0,0,1-2-4.63c-.08-.46-.19-1-.25-1.42s-.09-.93-.14-1.41a19.38,19.38,0,0,1,.13-3.13,15.83,15.83,0,0,1,.3-1.62c.13-.55.34-1.09.52-1.64a11,11,0,0,1,1.88-3,12.87,12.87,0,0,1,6.29-3.8,24,24,0,0,1,3.62-.74l1.87-.17,1.8-.06a27.42,27.42,0,0,1,7.3.87,13,13,0,0,1,6.33,3.73,10.66,10.66,0,0,1,1.92,3c.19.55.4,1.08.54,1.63a15.45,15.45,0,0,1,.32,1.62c0,.54.15,1.1.15,1.59s0,.94,0,1.5-.08,1-.12,1.47-.16.94-.24,1.4a13.65,13.65,0,0,1-1.88,4.65,12.7,12.7,0,0,1-2.53,2.87,11,11,0,0,1-2,1.36,7,7,0,0,1-.78.36,6.86,6.86,0,0,0,.71-.47,13,13,0,0,0,1.75-1.6,13.32,13.32,0,0,0,2.06-3A13.74,13.74,0,0,0,126.7,125c0-.43.09-.85.11-1.29v-1.35c0-.46-.08-.94-.11-1.41s-.15-.92-.22-1.39a10.1,10.1,0,0,0-2.57-5.13,11.19,11.19,0,0,0-5.39-2.92c-.51-.14-1-.25-1.57-.34,2.42,2,3.27,5.9,3.3,11.44A14.93,14.93,0,0,1,116,133.42l-12.32,1.16,10.7.87v.23l-10.68,1,11.47.94A5.35,5.35,0,0,1,115,144l-12.21.87,11.57.69a69.74,69.74,0,0,0-.49,8.42,21.05,21.05,0,0,0,.43,3.95,36.37,36.37,0,0,1-1.42-5.35,36.3,36.3,0,0,0-.19,6.13,34.84,34.84,0,0,0,.6,4.88l-13.39.78,18.91.85a3.26,3.26,0,0,1,1.12,2.54c0,2.66,0,3.79,0,5.54l-23.57,1.44,24.12,1.17a6.56,6.56,0,0,0,1.13,1,43.27,43.27,0,0,1,6.5-4.35,8.46,8.46,0,0,0,2.11-1.72,12.86,12.86,0,0,1-1.13-5.4,9.83,9.83,0,0,1,1.42-5,10.12,10.12,0,0,0-3.52-1c-.72-.62-1.8-2-1.82-4.8a33.06,33.06,0,0,1,.37-5.54c4.71-1.06,8.65-3.94,8.62-8.86a7.73,7.73,0,0,0-4.86-7.1,19,19,0,0,0,3.1-10.84c0-7.43-3.38-11.48-6.17-13.57-3.52-2.64-8.24-3.91-14.44-3.87s-10.91,1.36-14.4,4c-2.76,2.13-6,6.22-6,13.65a19,19,0,0,0,3.25,10.82,7.76,7.76,0,0,0-4.79,7.14c0,4.92,4,7.75,8.73,8.75a33.28,33.28,0,0,1,.45,5.54c0,2.78-1,4.19-1.77,4.82-5.1.61-7.38,4.06-7.36,7.47l0,5c-.48.29-1.14.63-1.63.89C85.52,174.44,80.8,176.92,80.83,182.41Zm45.4-20.11a3.46,3.46,0,0,1-.71-.28,6.41,6.41,0,0,1-1.67-1.2,7.45,7.45,0,0,1-1.64-2.43,8.21,8.21,0,0,1-.51-1.59,12.16,12.16,0,0,1-.22-1.7,23.32,23.32,0,0,1,.12-3.27,17.76,17.76,0,0,1,.52-2.8,10.44,10.44,0,0,1,.71-1.9,3.86,3.86,0,0,1,.4-.66,6.37,6.37,0,0,0-.18.74c-.08.47-.17,1.14-.25,1.94s-.12,1.74-.14,2.75c0,.5,0,1,0,1.55s0,1.08,0,1.59a11,11,0,0,0,.15,1.53c.06.25.11.5.16.74s.13.47.2.7a10.86,10.86,0,0,0,.54,1.29,11,11,0,0,0,.65,1.08A8,8,0,0,0,126.23,162.3Z"/><path class="cls-2" d="M115.46,122.59a31.3,31.3,0,0,1-.22,3.27c-.06,1-.14,2-.27,2.88s-.13,1.6-.2,2.1,0,.83,0,.83l.49-.67c.27-.44.65-1.09,1.06-1.9a29.62,29.62,0,0,0,1-2.89c.24-1.09.43-2.28.57-3.47a33.34,33.34,0,0,0-.15-3.52,29.54,29.54,0,0,0-.67-3c-.31-.85-.61-1.54-.83-2s-.4-.73-.4-.73l0,.83c0,.51,0,1.24-.06,2.11a26.45,26.45,0,0,1-.07,2.89C115.63,120.37,115.57,121.49,115.46,122.59Z"/><path class="cls-2" d="M113.76,182.07c-1.36,0-3-.1-4.63-.2s-3.49-.09-5.29-.18-3.6,0-5.29-.1-3.27,0-4.63,0-2.51,0-3.31,0l-1.27.06,1.21.4c.77.21,1.88.51,3.23.83s2.93.52,4.63.78,3.54.31,5.37.42,3.66-.06,5.38-.14,3.31-.34,4.67-.53,2.48-.49,3.26-.66l.6-.17a1.55,1.55,0,0,0,.08-.23l-.71-.07C116.26,182.25,115.12,182.18,113.76,182.07Z"/><path class="cls-2" d="M99.46,117.86a18.69,18.69,0,0,1,1.27-3,20,20,0,0,1,1.23-2c.33-.49.53-.75.53-.75s-.26.2-.7.59a11.21,11.21,0,0,0-1.63,1.82,13.69,13.69,0,0,0-1.68,3.06,15.92,15.92,0,0,0-.92,3.92,15.63,15.63,0,0,0,.29,4A13.64,13.64,0,0,0,99,128.73a11.78,11.78,0,0,0,1.32,2.06c.37.45.6.69.6.69s-.16-.29-.4-.82a19.07,19.07,0,0,1-.9-2.19,18.45,18.45,0,0,1-.77-3.21,17.13,17.13,0,0,1,.59-7.4Z"/><path class="cls-2" d="M200.09,44.1c0-3-1.38-8.19-10.6-9.89q-.94-.18-2-.3c-2-.25-4.11-.37-6.16-.42l-.09-.18-3.44-7.62,3.47-7.88,3.26-7.43H150.69L154,17.81l3.47,7.88L154,33.31l-.08.18c-2.06,0-4.17.17-6.17.42-.66.08-1.31.18-1.94.3-9.22,1.7-10.6,6.93-10.6,9.89,0,2.63,1,5.53,2.43,9.54.72,2,1.54,4.39,2.35,7,.49,1.59,1,3.3,1.42,5.13.15.61.29,1.23.43,1.87a85.81,85.81,0,0,1,2,15.36,9,9,0,0,0-3.19,3.66,12.1,12.1,0,0,0-2.29,1.43,10.05,10.05,0,0,0-3.83,8.12c0,8.73,6.76,10.63,11.95,11,.11.36.22.76.33,1.19a51.76,51.76,0,0,1,1.63,13.11,36.58,36.58,0,0,1-.52,5.46c-.32,2.1-.78,4.42-1.33,6.86-.37,1.62-.77,3.3-1.2,5-1.72,6.73-3.82,13.66-5.37,18.43a16.19,16.19,0,0,0-2.31.5,10.56,10.56,0,0,0-2.74,1.23,7.67,7.67,0,0,0-2.23,2.15c-.13.19-.24.38-.35.57a6.35,6.35,0,0,0-.5,1.11,7.58,7.58,0,0,0-.45,2.53A10.29,10.29,0,0,0,133,171a10.62,10.62,0,0,1-3.66,3.53,33.43,33.43,0,0,0-7,4.9,10.18,10.18,0,0,0-2.11,3.12,9.34,9.34,0,0,0-.57,1.9,11.87,11.87,0,0,0-.2,2.21h0a9.88,9.88,0,0,0,.15,1.63c0,.27.11.54.18.8a15.17,15.17,0,0,0,1.56,3.69,14.37,14.37,0,0,0-1.93,4.88,20,20,0,0,0-.4,4.07v2.73h0l2.23,1.59c1.78,1.26,10.39,5.39,46.45,5.39s44.68-4.13,46.46-5.39l2.23-1.59h0v-2.73a20,20,0,0,0-.4-4.07,14.58,14.58,0,0,0-1.93-4.88,15.17,15.17,0,0,0,1.56-3.69,7.1,7.1,0,0,0,.17-.8,8.91,8.91,0,0,0,.15-1.63h0a11.89,11.89,0,0,0-.19-2.21,9.35,9.35,0,0,0-.58-1.9,10,10,0,0,0-2.1-3.12,33.69,33.69,0,0,0-7-4.9,10.79,10.79,0,0,1-3.06-2.65c-.23-.3-.43-.59-.61-.87a10.33,10.33,0,0,0,1.54-5.6c0-.15,0-.38,0-.66a7.7,7.7,0,0,0-2.26-4.69,8.74,8.74,0,0,0-2.48-1.67,13.63,13.63,0,0,0-3.81-1.07c-2.32-7.17-5.9-19.16-7.54-28.1a44.81,44.81,0,0,1-.88-7.63,52.31,52.31,0,0,1,1.62-13.11c.12-.43.23-.83.34-1.19a23.21,23.21,0,0,0,4.06-.67,12.54,12.54,0,0,0,3.86-1.73c2.34-1.62,4-4.27,4-8.64a10,10,0,0,0-3.84-8.12,11.79,11.79,0,0,0-2.29-1.43,8.87,8.87,0,0,0-3.18-3.66,86.79,86.79,0,0,1,2-15.36c.14-.64.29-1.26.44-1.87.45-1.83.93-3.54,1.42-5.13.81-2.66,1.63-5,2.35-7C199.07,49.63,200.09,46.73,200.09,44.1Zm-6.46,9.68c-.31,1-.64,2.08-1,3.18s-.64,2.26-1,3.41-.64,2.35-.9,3.54-.58,2.38-.8,3.57-.47,2.34-.65,3.48-.37,2.22-.52,3.27-.3,2-.38,2.94-.2,1.76-.28,2.5-.12,1.41-.16,2c-.11,1.08-.17,1.69-.17,1.69V83.2c0-.23,0-.78-.08-1.59,0-.54,0-1.19-.07-2s0-1.6,0-2.53.07-1.95.16-3c0-.53.07-1.08.12-1.63s.12-1.13.21-1.71a66.9,66.9,0,0,1,1.31-7.18,72.44,72.44,0,0,1,2.06-7c.74-2.21,1.58-4.2,2.24-5.93s1.27-3.14,1.54-4.18a6.54,6.54,0,0,0,.28-1.21l.08-.44v.45a5.94,5.94,0,0,1-.11,1.26c-.06.55-.24,1.18-.4,1.92-.09.37-.19.76-.31,1.17s-.23.83-.38,1.28C194.22,51.81,193.93,52.77,193.63,53.78ZM192.21,159.5s-.33-.81-.88-2.24-1.31-3.49-2.13-6-1.8-5.4-2.7-8.57c-.43-1.58-.91-3.21-1.31-4.9s-.82-3.39-1.19-5.11-.64-3.46-.89-5.18q-.13-1.31-.27-2.58c0-.43,0-.86-.05-1.29s0-.85,0-1.27c0-.81,0-1.63.1-2.42s.13-1.58.23-2.34.18-1.48.3-2.18.23-1.39.36-2a38.58,38.58,0,0,1,1.76-6.13,19.06,19.06,0,0,1,1-2.21v0c0,.08-.1.27-.19.56s-.15.43-.23.72-.19.61-.29,1a52.09,52.09,0,0,0-1.27,6.18c-.18,1.29-.34,2.69-.43,4.18-.06.75-.09,1.51-.1,2.29s0,1.58,0,2.4c0,.4,0,.8.06,1.21s0,.81.07,1.23c.11.82.21,1.66.31,2.5l.42,2.54.51,2.56c.69,3.41,1.53,6.79,2.33,10s1.57,6.13,2.28,8.66c.43,1.58.82,3,1.14,4.2C191.78,157.9,192.21,159.5,192.21,159.5Zm-32.76,47.18q-2,0-4-.12c-1.32,0-2.63-.1-3.91-.17-2.57-.1-5.05-.32-7.4-.53s-4.57-.48-6.61-.74l-1.5-.22-1.43-.22-2.62-.49c-1.64-.35-3.06-.69-4.21-1a20,20,0,0,1-2.63-1c-.26-.11-.45-.22-.59-.29l-.25-.15,0,0h0a12.43,12.43,0,0,1,.92-5,7.59,7.59,0,0,1,1.8-2.59,7.09,7.09,0,0,1,.63-.51,4,4,0,0,1,.45-.27l.17-.09-.32-.36c-.14-.16-.31-.36-.49-.59a17.7,17.7,0,0,1-1.9-2.86,6.52,6.52,0,0,1-.82-2.81,4.93,4.93,0,0,1,.46-2.3,4.23,4.23,0,0,1,.23-.41,7.35,7.35,0,0,1,1.6-1.64,45.42,45.42,0,0,1,5-3.21,15.25,15.25,0,0,0,7.23-9.38,4.33,4.33,0,0,1-2.49-4.31c0-2.72,4.54-3,6.4-3,.48,0,.78,0,.78,0s3.11-9.12,5.83-19.23c.3-1.13.6-2.26.89-3.4,1.72-6.83,3.1-13.7,3.1-18.21,0-12-3.47-19.49-3.47-19.49-4.1,0-6.89-.31-8.54-1.45-1.29-.89-1.89-2.27-1.89-4.4a5.79,5.79,0,0,1,.22-1.63,4.68,4.68,0,0,1,1.43-2.21,5.51,5.51,0,0,1,1-.68,7.49,7.49,0,0,1,2.62-.89c0-4.08,4.14-4.14,4.14-4.14,0-3-.14-5.77-.38-8.42s-.58-5.15-1-7.49a97.48,97.48,0,0,0-3-12.28c-1.09-3.51-2.18-6.45-3-8.84a19.67,19.67,0,0,1-1.36-5.58,3.39,3.39,0,0,1,1-2.48,5.71,5.71,0,0,1,1.66-1.13c3.65-1.74,10.32-1.74,15.63-1.74h0V35.49h0q.81-2.46,1.7-4.89t1.82-4.83c-.79-1.54-1.53-3.09-2.29-4.64s-1.56-3.31-2.35-5a1.2,1.2,0,0,1,.57-1.6,1.41,1.41,0,0,1,.48-.12h.07c2.95-.08,5.89-.06,8.83-.1s5.89,0,8.84.11h.07a1.2,1.2,0,0,1,1.16,1.23,1.31,1.31,0,0,1-.12.48c-.39.83-.77,1.66-1.16,2.48s-.78,1.66-1.19,2.48c-.76,1.55-1.5,3.1-2.28,4.64,1.24,3.21,2.44,6.44,3.52,9.72-1.83-3.1-3.53-6.25-5.17-9.43a.73.73,0,0,1,0-.58l0-.09c.62-1.72,1.32-3.41,2-5.12.43-1.12.89-2.23,1.35-3.34l-4.55.05-2.25,8-4.78.77,4.78.77,2.68,11.2-11,1.11,14.42,1.45,4.56,2.14-36.52,1.46,39.66,1.59c-.14.49-.31,1.1-.5,1.81l-.42,1.56c-.14.57-.3,1.18-.47,1.83-.24,1-.5,2-.77,3.16-.18.75-.37,1.54-.55,2.36-1.11,4.9-2.29,10.83-3.08,16.9-.14,1-.26,2-.37,3-.33,3.05-.55,6.1-.6,9l-24.94,1.51,27.32,1.65a3.89,3.89,0,0,1,.45.86l-31.13,1.63,33,1.72a5.8,5.8,0,0,1,1.15,4.86,7.44,7.44,0,0,1-1.54,3l-27.55,1.77,25.37,1.63c-1.19,2.77-2.84,8.06-2.84,16.3a164.73,164.73,0,0,0,1.26,16.81c.24,2.1.5,4.22.77,6.28.35,2.75.72,5.41,1.06,7.83-.56-2.21-1.13-4.58-1.65-7-2-8.91-3.33-18-3.33-18s-.35,9.19,0,18.44c.16,4.67.51,9.33.81,12.8.14,1.58.27,2.92.37,3.9L145,162.43,180,164c.06.14.12.27.18.42a5.85,5.85,0,0,1,.27.92,4.75,4.75,0,0,1,.09,1,4.17,4.17,0,0,1-.34,1.65L140,169.78l39.26,1.72c.14.52.32,1.13.54,1.79a16.67,16.67,0,0,0,2.94,5.79c.31.35.62.7.9,1.06s.56.72.82,1.09a18.86,18.86,0,0,1,3,7.15,6,6,0,0,1-.39,3.64,7.82,7.82,0,0,1-.51,1c-2.86.24-5.92.46-9.07.64-2.37.15-4.8.27-7.24.37l-2.44.1c-9.45.33-18.92.29-26,.06-3.55-.1-6.51-.24-8.58-.35l-1.39-.07-1.87-.1,3.24.4,1.7.2c1.87.22,4.19.48,6.84.74,4.43.46,9.79.9,15.52,1.25,2.28.15,4.63.27,7,.38l3.56.14c5.69.19,11.39.26,16.58.23.17.19.36.4.55.65s.19.25.29.38.38.57.56.88a5.37,5.37,0,0,1-.09,6.24c1.82-.08,3.61-.16,5.32-.26,2.34-.13,4.55-.32,6.59-.52s3.9-.44,5.55-.68l1.19-.19c1.15-.2,2.17-.4,3.05-.61s1.59-.41,2.15-.59l.51-.17a7.07,7.07,0,0,0,.84-.37l.06,0a8.48,8.48,0,0,1-.87.47c-.3.12-.66.28-1.1.44s-1,.34-1.53.5l-.91.26c-1,.26-2.07.51-3.3.78l-1.27.24-1.35.25-1.43.22-1.5.22c-2,.27-4.26.53-6.61.74s-4.83.43-7.4.53-5.23.23-7.93.3c-1.36,0-2.71.06-4.08.08s-2.73,0-4.11,0l-4.11-.06C162.16,206.75,160.8,206.73,159.45,206.68Zm39.62-33.61c.18.27.37.55.58.83a17.5,17.5,0,0,0,1.48,1.73A17.05,17.05,0,0,0,203,177.3c.33.25.7.5,1.09.75l1.19.71c.82.48,1.66,1,2.49,1.49.41.27.82.54,1.22.82s.8.58,1.19.9a9.8,9.8,0,0,1,1.08,1.06,4.86,4.86,0,0,1,.8,1.33,4.34,4.34,0,0,1,.33,1.47,5.24,5.24,0,0,1,0,.68,5.51,5.51,0,0,1-.06.7,6.84,6.84,0,0,1-.87,2.32,15.83,15.83,0,0,1-2.15,2.83,13.19,13.19,0,0,1-1,.93l.2-.28.56-.81c.23-.34.51-.77.8-1.28a18.54,18.54,0,0,0,.87-1.73c.07-.16.13-.32.19-.49a6.31,6.31,0,0,0,.39-1.61,2.43,2.43,0,0,1,0-.27,1.31,1.31,0,0,0,0-.28,5.25,5.25,0,0,0-.06-.61,3.83,3.83,0,0,0-.32-1.11,2.53,2.53,0,0,0-.28-.51,6.9,6.9,0,0,0-1.35-1.35,22.79,22.79,0,0,0-2.3-1.59c-.8-.52-1.62-1-2.43-1.5a17.75,17.75,0,0,1-2.35-1.66,13.22,13.22,0,0,1-1.9-1.92,14.26,14.26,0,0,1-2.75-5.25c-.06-.21-.1-.39-.13-.55-.07-.33-.1-.56-.12-.68a.28.28,0,0,0,0-.08,12.59,12.59,0,0,0,.5,1.22c.09.2.19.4.3.63A15.29,15.29,0,0,0,199.07,173.07Z"/><path class="cls-2" d="M173.71,52.41c-.19.32-.39.66-.58,1a34.37,34.37,0,0,0-2.31,5.09c-.15.49-.33,1-.5,1.48a15.06,15.06,0,0,0-.46,1.53c-.28,1-.51,2.1-.76,3.16-.08.54-.17,1.08-.25,1.62s-.16,1.07-.22,1.61a14.27,14.27,0,0,0-.16,1.59c0,.52,0,1-.08,1.55,0,1,0,2,0,3a25.74,25.74,0,0,0,.21,2.63c.09.82.21,1.56.34,2.21s.27,1.23.39,1.69c.25.93.44,1.45.44,1.45s.13-.54.34-1.47c.1-.46.22-1,.35-1.67s.27-1.36.41-2.14.32-1.62.47-2.5.37-1.82.5-2.78l.56-3c.08-.5.17-1,.27-1.51s.21-1,.31-1.52c.19-1,.37-2,.6-3s.38-2,.59-2.94c.1-.48.19-.95.29-1.41l.54-2.64c.09-.42.17-.82.25-1.21.64-3.1.95-5.31.95-5.31s-.37.42-.95,1.19A23.19,23.19,0,0,0,173.71,52.41Z"/><path class="cls-2" d="M132.3,183.88l.69.18,4.33.89c.9.14,1.88.28,2.92.42l3.26.43c2.27.19,4.7.36,7.13.5s4.86,0,7.14,0,4.41-.28,6.22-.44l1.31-.18,2.2-.3.88-.13,1.65-.31-.44-.06-1.23-.14-4.39-.37-1.41-.07-3.11-.18-1.66-.11c-2.26-.07-4.67-.18-7.08-.31s-4.81-.08-7.07-.15-4.38,0-6.2,0l-4.4.08-.71,0-.53,0-.44,0Z"/><path class="cls-2" d="M151.16,153.49c.52-1.19,1.27-2.89,2.16-4.94.2-.52.41-1.06.62-1.63.42-1.12.87-2.33,1.31-3.61q.33-.94.66-1.95c.39-1.35.78-2.75,1.13-4.18s.68-2.9,1-4.38c.12-.75.22-1.5.3-2.24s.16-1.5.23-2.24c.12-1.48.18-2.94.19-4.36s-.14-2.79-.27-4.08-.31-2.5-.5-3.61a51.83,51.83,0,0,0-1.39-5.26c-.44-1.23-.73-1.92-.73-1.92s.11.74.23,2,.35,3.12.41,5.32a53.32,53.32,0,0,1-.05,7.45c0,.68-.07,1.37-.13,2.07a63.31,63.31,0,0,1-.9,6.39c-.42,2.87-1,5.73-1.69,8.4s-1.22,5.19-1.79,7.33-.94,4-1.24,5.24l-.41,2S150.58,154.67,151.16,153.49Z"/><path class="cls-2" d="M150.36,74c.14.92.27,1.79.36,2.6.19,1.61.39,2.95.48,3.9l.19,1.48s0-.13,0-.39,0-.63.05-1.1c0-1,.07-2.32,0-4,0-.82-.08-1.7-.13-2.64s-.14-1.92-.26-2.94c-.24-2-.56-4.18-.94-6.34s-.95-4.26-1.48-6.23c-.4-1.48-.86-2.87-1.29-4.12q-.21-.61-.42-1.2c-.53-1.54-1.1-2.79-1.46-3.67l-.58-1.27,0-.09s.14.53.37,1.45.58,2.23,1,3.8c.22.78.42,1.64.63,2.54s.43,1.86.68,2.84c.47,2,.91,4.08,1.29,6.2s.81,4.24,1.1,6.24C150.07,72.14,150.23,73.1,150.36,74Z"/></svg>