<svg id="Слой_1" data-name="Слой 1" xmlns="http://www.w3.org/2000/svg" viewBox="0 0 335.27 315.39"><defs><style>.cls-1{fill:#f3e600;}.cls-2{fill:#12100b;}</style></defs><path class="cls-1" d="M167.63,289.94A273.48,273.48,0,0,1,34.76,59.79c41.75-23.28,87.6-35.57,132.87-35.57s91.12,12.29,132.88,35.57A273.46,273.46,0,0,1,167.63,289.94Z"/><path class="cls-2" d="M302.37,112.32a280.78,280.78,0,0,0,5.83-57c-43.49-25.11-92-38.78-140.57-38.78S70.56,30.24,27.06,55.35h0a280.78,280.78,0,0,0,5.84,57q1.23,6,2.71,11.86T38.89,136q.47,1.53.93,3,.88,2.84,1.83,5.65c.46,1.36.93,2.73,1.4,4.08q3.66,10.37,8.1,20.39,2.67,6,5.62,11.92A281,281,0,0,0,167.63,298.83h0A281,281,0,0,0,278.5,181.11q3-5.9,5.62-11.92,4.44-10,8.09-20.39.72-2,1.41-4.08.94-2.82,1.82-5.64c.32-1,.63-2,.93-3q1.77-5.88,3.29-11.86T302.37,112.32Zm-1.86-52.53A273.46,273.46,0,0,1,167.63,289.94,273.48,273.48,0,0,1,34.76,59.79c41.75-23.28,87.6-35.57,132.87-35.57S258.75,36.51,300.51,59.79Z"/><path class="cls-2" d="M119.63,98.56a12.65,12.65,0,0,1-.74,1.25,14.86,14.86,0,0,1-.87,1.37,15.44,15.44,0,0,1-.9,1.37c-.28.44-.56.85-.82,1.19s-.45.66-.6.86l-.23.35.38-.17c.23-.13.55-.32.93-.57s.74-.62,1.15-1a17.45,17.45,0,0,0,1.09-1.38,15.38,15.38,0,0,0,.8-1.56,13,13,0,0,0,.44-1.47,10.57,10.57,0,0,0,.14-1.07v-.42l-.23.35A10,10,0,0,1,119.63,98.56Z"/><path class="cls-2" d="M94.22,121.53l-1.45-.79-.56-.28.42.46c.29.29.7.69,1.2,1.16s1.15.94,1.82,1.47,1.46,1,2.23,1.5,1.61.87,2.37,1.26,1.53.66,2.16.91l1.59.51.61.15-.52-.36-1.38-.91c-.58-.34-1.25-.76-2-1.22s-1.49-.89-2.25-1.37-1.56-.9-2.28-1.34S94.8,121.88,94.22,121.53Z"/><path class="cls-2" d="M151.17,96.35a9.29,9.29,0,0,0-.3-1.12,11.65,11.65,0,0,0-.42-1.12,13.52,13.52,0,0,0-1.14-2.06A11.66,11.66,0,0,0,148,90.47a10.41,10.41,0,0,0-1.1-1,5.23,5.23,0,0,0-.47-.31s.06.2.18.52l.52,1.32c.23.53.48,1.15.77,1.79.14.32.28.65.44,1s.3.67.44,1,.3.67.43,1,.29.66.41,1,.27.63.38.93.25.58.34.85l.29.73c.08.22.15.41.22.57a4.61,4.61,0,0,0,.22.52s.06-.19.13-.54a6.19,6.19,0,0,0,.12-.64c0-.24,0-.52,0-.83a8.3,8.3,0,0,0,0-1A8.76,8.76,0,0,0,151.17,96.35Z"/><path class="cls-2" d="M144.21,99.37c-.12-.34-.26-.73-.4-1.15l-.47-1.3c-.32-.89-.66-1.78-1-2.45a11.44,11.44,0,0,0-.56-1.13,5.24,5.24,0,0,0-.11,1.28,8.78,8.78,0,0,0,.51,2.71c.1.23.18.47.29.69a5.71,5.71,0,0,0,.35.65,6.6,6.6,0,0,0,.77,1.06,4.37,4.37,0,0,0,.69.62l.3.2a2.89,2.89,0,0,0-.11-.34C144.43,100,144.34,99.71,144.21,99.37Z"/><path class="cls-2" d="M240.91,60.44c-.67,1.1-1.32,2.31-2,3.56a146.47,146.47,0,0,1-19.26-5.55A129.42,129.42,0,0,1,200,49.31c-5.1-2.84-9.89-5.78-13.73-8.14-2.88-1.77-5.36-3.29-7.34-4.39-.66-.37-1.24-.67-1.76-.93-6.3-3.09-11.78-1.12-19.37,1.61-1.84.67-3.75,1.35-5.88,2-3.66,1.19-7.38,2.2-11,3.17-7.4,2-13.24,3.56-15.73,6-2.07,2-4,6.06-6.24,10.72a111.56,111.56,0,0,1-5.34,10.19l-1.08,1.77c-4.81,7.77-10.25,16.58-11.34,21.37a4.23,4.23,0,0,0,2.2,4.89,8.69,8.69,0,0,0,3,.91,9.25,9.25,0,0,0-.08,2.21,3.88,3.88,0,0,0-3.83,1.93c-1.19,2.14-.16,4.35,1.65,5.94a15.76,15.76,0,0,1-1.16,2.51,3,3,0,0,1-2,1.67,3.75,3.75,0,0,0-5,1.45l-1.21,2.19c-.28,0-.65,0-.93,0-1.59-.05-4.25-.13-5.58,2.27L86,122.84a2.39,2.39,0,0,0,0,2.32c.22.4,2.41,4,11.59,9.14,9.55,5.3,13.29,5.14,14.21,5a2.4,2.4,0,0,0,1.65-1.19l2.3-4.14c1.33-2.39-.15-4.61-1-5.93-.16-.23-.37-.54-.5-.78l1.21-2.19a3.74,3.74,0,0,0-1.43-5,3.05,3.05,0,0,1,.38-2.54,15.4,15.4,0,0,1,1.53-2.31c2.3.69,4.72.4,5.91-1.74a3.86,3.86,0,0,0-.38-4.28,8.93,8.93,0,0,0,1.9-1.3,6,6,0,0,0,1.53,1.23c3.76,2.08,9.2.08,14.47-1.86,1.7-.63,3.31-1.22,4.77-1.64l2.62-.77c6.9-2.07,17.32-5.19,26.56-3.44l4.71.94c7.9,1.61,13.12,2.67,23.85,1.09h0l.09,0c2.43-.33,15.21-1.89,26.64-.47a26.58,26.58,0,0,0,.27,3.06c.94,6.12,35.52,3.1,66.66,13.88a278.36,278.36,0,0,0,7.27-55.36C286.68,62.58,242.79,57.32,240.91,60.44ZM114.37,130.89a3.28,3.28,0,0,1,.33,1.14,2.09,2.09,0,0,1,0,.65,3.94,3.94,0,0,1-.22.55l-.53.9c-.34.58-.68,1.12-1,1.57s-.56.83-.73,1.09l-.29.41s.06-.17.19-.46.3-.71.53-1.2.51-1.07.82-1.67l.49-.92a2.75,2.75,0,0,0,.16-.46,1.45,1.45,0,0,0,0-.42,2.69,2.69,0,0,0-.25-.93c-.15-.3-.3-.6-.48-.89a14.44,14.44,0,0,1-.91-1.63,3.59,3.59,0,0,1-.15-.37,3.15,3.15,0,0,1-.09-.36,1.51,1.51,0,0,1,0-.6.78.78,0,0,1,.13-.35l.06-.12,0,.13a.84.84,0,0,0,0,.35,1.63,1.63,0,0,0,.1.53,4.81,4.81,0,0,0,.33.63c.28.45.67.94,1.06,1.51A7.46,7.46,0,0,1,114.37,130.89Zm.92-17.15a9.31,9.31,0,0,0-.58.78c-.23.34-.48.73-.74,1.16-.12.22-.25.44-.39.67a7.88,7.88,0,0,0-.37.7,4.93,4.93,0,0,0-.31.71,3.58,3.58,0,0,1-.11.35l-.09.36c0,.24-.07.47-.08.69s0,.43,0,.63a4,4,0,0,0,.34,1.29,2,2,0,0,1-.25-.3,3.4,3.4,0,0,1-.43-.93,4,4,0,0,1-.12-1.46,5.84,5.84,0,0,1,.17-.81,7.85,7.85,0,0,1,.32-.8,11.71,11.71,0,0,1,.86-1.39,9.69,9.69,0,0,1,.91-1.09,5.2,5.2,0,0,1,.77-.65,2.21,2.21,0,0,1,.33-.19S115.44,113.56,115.29,113.74Zm5.6-6.77a6.49,6.49,0,0,1-1.8.63,6,6,0,0,1-1.21.1l-.43,0a3.4,3.4,0,0,0,.43,0,6.42,6.42,0,0,0,1.15-.26,6.63,6.63,0,0,0,2.9-1.91c.08.19.17.39.27.59A7,7,0,0,1,120.89,107ZM122,97l-.52-.46a3.46,3.46,0,0,1,.21,1.25,11.46,11.46,0,0,0-.54,2.37,18,18,0,0,1-1,2.17,7.53,7.53,0,0,1-4.49,3.66L110,103.51l4.44,3,0,.1-4.89-2.18,4.75,3.22a2.66,2.66,0,0,1-1.65,2.71l-5.52-2.6,4.86,3.13a32.1,32.1,0,0,0-2.27,3.53,10.76,10.76,0,0,0-.79,1.83,18.84,18.84,0,0,1,.7-2.68,18.52,18.52,0,0,0-1.59,2.62,18.29,18.29,0,0,0-.93,2.27l-6-2.94,8,5a1.64,1.64,0,0,1-.13,1.38l-1.34,2.41L97,119.17l10.2,6.41c.18,1,1.35,2.15.55,3.6-.31.57-.8,1.44-1.32,2.38-1.68-.72-3.61-1.6-5.52-2.53-2.58-1.26-5.13-2.63-7-3.72s-3.11-1.84-3.11-1.84,1.15.89,2.91,2.16,4.16,2.91,6.63,4.45c1.79,1.12,3.61,2.18,5.21,3.08l-.92,1.66c.27.13.55.26.82.37.66.29,1.3.54,1.89.76a18,18,0,0,0,2.93.85,4.92,4.92,0,0,0,1.15.11,4.09,4.09,0,0,1-1.17,0c-.37,0-.82-.11-1.33-.21a16.39,16.39,0,0,1-1.69-.44c-.61-.19-1.26-.41-2-.68s-1.4-.55-2.12-.88-1.47-.69-2.22-1.07-1.49-.78-2.24-1.17-1.48-.85-2.19-1.29-1.41-.89-2.07-1.33a36.84,36.84,0,0,1-3.46-2.67A18.33,18.33,0,0,1,88.78,125a6,6,0,0,1-.66-1h0l2.3-4.14c1.18-2.13,5.28-.06,6.24-1.78l1.48-2.67c.33-.59,1-1,2.45-.18a5,5,0,0,0,4.52-2.93c1.77-3.18,1.75-4.69,1.75-4.69s-3.25-1.93-2.24-3.77c.82-1.46,3.27-.3,4.22.23l.38.22.51-.91s-.1-.12-.26-.35a5.51,5.51,0,0,1-.55-1.08,6.24,6.24,0,0,1-.42-1.86,5.74,5.74,0,0,1,0-.83,5.33,5.33,0,0,0,.9.25l0,.31a5.94,5.94,0,0,0,.07,1.22c0,.29.09.45.09.45s0-.17,0-.45a9.84,9.84,0,0,1,.14-1.18c0-.1,0-.2.07-.31a5.47,5.47,0,0,0,3.31-.75A29.16,29.16,0,0,1,122,95.54c.17.13.32.27.48.41C122.33,96.27,122.15,96.64,122,97Zm.46-11c-.08.14-.14.3-.21.44-.16.3-.31.58-.46.84a26,26,0,0,1-1.64,2.43c-.42.57-.68.87-.68.87l.58-.93c.38-.6.89-1.47,1.44-2.53.14-.26.27-.54.4-.83s.11-.3.19-.46a3.67,3.67,0,0,1,.26-.48,10.76,10.76,0,0,1,1.42-1.7c1.07-1.09,2.31-2.13,3.54-3.17.61-.51,1.26-1,1.79-1.55s1.05-1.15,1.54-1.72c1-1.15,1.88-2.22,2.65-3.15l1.87-2.23.72-.84-.62.91c-.41.57-1,1.4-1.71,2.37S132,76.37,131,77.55c-.48.58-1,1.19-1.52,1.78s-1.21,1.08-1.82,1.61c-1.24,1-2.47,2-3.55,3.08a11.42,11.42,0,0,0-1.43,1.57A2,2,0,0,0,122.44,86Zm34.24-10c-4.19.92-8.36,3-13.11,6.56-.95.23-1.85.47-2.72.72.75-.56,1.5-1.14,2.26-1.75a29.15,29.15,0,0,1,15.28-5.83C157.85,75.77,157.29,75.86,156.68,76Zm4.3,1.37c-3.51,1.89-8.2,3.06-12.59,4.07a28,28,0,0,1,8.68-3.69A15.38,15.38,0,0,1,161,77.37Zm-16.6-5.27-.9.18c-3.42.67-4.39,1-6.26,4.34-1.44,2.61-4.69,7.23-9.93,14.11-.67.57-1.31,1.14-1.89,1.71,1.15-1.55,2.56-3.53,3.56-5.18,2-3.3,5.67-7.66,8-11.8s3.3-3.22,7.76-3.87a22.55,22.55,0,0,0,2.23-.45A10.26,10.26,0,0,1,144.38,72.1Zm63,26.68c-4.64,1.34-11.28,2-17.23,2.32l.49-.15,1.23-.4a21.13,21.13,0,0,0,2.07-.88,9.71,9.71,0,0,0,1.51-.84c.81-.5,1.26-.8,1.26-.8l-1.41.48a14.13,14.13,0,0,1-1.61.51l-1,.27a11.06,11.06,0,0,1-1.1.27l-1.22.22-.63.12L189,100l-1.38.15-1.44.07c-1,.08-2,0-3,0s-2.08-.12-3.14-.26-2.11-.23-3.16-.36-2.07-.25-3.08-.38-2-.21-2.92-.3-1.81-.13-2.64-.11a19.9,19.9,0,0,0-2.24.06,15.3,15.3,0,0,0-1.71.2l-1.46.28h0c-7.5.79-14.59,3.22-19.18,4.53-1.58.46-3.32,1.1-5.1,1.76l.27-.37a9.31,9.31,0,0,0,.54-.9l.13-.26,0-.1,0-.06,0-.12a3.8,3.8,0,0,0,.16-.67,6.26,6.26,0,0,0-.2-2.48,8.8,8.8,0,0,0-1-2.34,7,7,0,0,0-1.79-2,5.39,5.39,0,0,0-1.2-.66l-.16-.07-.16,0-.31-.09a4.23,4.23,0,0,0-.65-.14,8.33,8.33,0,0,0-2.49,0,11.67,11.67,0,0,0-4.07,1.36,8.36,8.36,0,0,0-2.36,1.87,5.59,5.59,0,0,0-.64.94l.24-.17c.15-.12.39-.28.67-.48a18.42,18.42,0,0,1,2.45-1.45,10.76,10.76,0,0,1,3.81-1,7.16,7.16,0,0,1,2.16.15l.51.14.26.09.12,0,.12.06a4.09,4.09,0,0,1,.88.56,6.61,6.61,0,0,1,2.12,3.61,4.67,4.67,0,0,1,.08,1.84,2.68,2.68,0,0,1-.08.33l-.05.11,0,.06s0,0,0,0l-.1.19a6.41,6.41,0,0,1-.45.7,14.72,14.72,0,0,1-1.85,2c-.3.29-.52.48-.65.59-3.54,1.16-6.91,1.86-9.14.62a4.38,4.38,0,0,1-1.71-1.73,9.16,9.16,0,0,1,.59-9.88,28.76,28.76,0,0,1,3.26-3.33c.47-.29,1-.58,1.51-.89.9-.51,1.89-1,2.95-1.54s2.2-1,3.37-1.55,2.42-1,3.68-1.43,2.54-.84,3.88-1.2l4-1.08c1.33-.35,2.65-.72,3.92-1.11s2.5-.8,3.65-1.22l.32-.13.77-.19a39.71,39.71,0,0,0,4.3-1.42c.76-.33,1.57-.62,2.35-1s1.58-.76,2.36-1.18,1.54-.87,2.28-1.32,1.45-.94,2.13-1.4,1.33-.94,1.93-1.39,1.17-.89,1.69-1.3c1-.82,1.86-1.52,2.45-2s.92-.78.92-.78-.41.16-1.11.48-1.69.82-2.84,1.46-2.47,1.39-3.88,2.21l-2.18,1.23-.82.47c.19-.34.4-.73.64-1.18a36.94,36.94,0,0,0,2.3-5.4,30.9,30.9,0,0,0,1.32-5.59c.11-.76.16-1.4.19-1.84s.05-.69.05-.69l-.3.62c-.2.4-.48,1-.86,1.6a28.32,28.32,0,0,1-3.1,4.41l-.08.09a1.15,1.15,0,0,0-.06-.17,8.91,8.91,0,0,0-2.72-2.85c0-.24,0-.47,0-.71l0-1,.09-1,.09-.91c0-.3.09-.59.14-.87.08-.57.17-1.1.29-1.59s.22-.94.31-1.34.22-.73.31-1l.27-.89-.42.83-.48,1c-.15.39-.33.82-.53,1.29a16.34,16.34,0,0,0-.56,1.55l-.29.87c-.08.29-.16.6-.25.91s-.16.63-.25,1-.1.5-.16.76a72.34,72.34,0,0,0-9.23-.88q-.11-.48-.21-1.14c-.12-.66-.23-1.43-.31-2.26s-.15-1.73-.17-2.63c0-.45,0-.9,0-1.34s0-.88.06-1.3.06-.84.11-1.22.09-.76.16-1.09.13-.65.18-.92l.18-.7c.11-.39.17-.62.17-.62s-.11.21-.31.56l-.35.65c-.12.25-.25.55-.4.86s-.28.68-.43,1-.29.78-.43,1.2-.27.86-.39,1.31-.23.92-.34,1.38c-.21.93-.38,1.86-.5,2.75s-.21,1.72-.27,2.44c0,.35,0,.66-.06,1-5.83,0-11.81.58-14.89,2.36-.63.37-1.17.73-1.65,1.08l-.2-.11a8.85,8.85,0,0,1-2.39-2.27c-.19-.25-.38-.51-.55-.78s-.35-.53-.49-.81-.31-.52-.43-.78l-.35-.73c-.22-.45-.36-.85-.48-1.12s-.18-.44-.18-.44,0,.17,0,.47,0,.73.09,1.24c0,.25.06.53.09.83s.11.6.16.92a9.47,9.47,0,0,0,.22,1c.08.34.18.68.29,1a11.39,11.39,0,0,0,1.92,3.67l0,0c-1.82,2.29-2.35,4.71-5.57,7.8a41.36,41.36,0,0,0-3.47,3.67l-.54-.09a21.07,21.07,0,0,1-2.53-.63c-.93-.29-1.85-.63-2.53-.92s-1.14-.5-1.14-.5.31.39.81,1,1.19,1.31,1.94,2a24.48,24.48,0,0,0,2.07,1.75c-1.06,1.55-2.19,3.34-4.06,6-4.36,6.15-5,7.95-9.28,7.84a5.93,5.93,0,0,1-1.65-.57A2.46,2.46,0,0,1,103,93.13a32.39,32.39,0,0,1,2.9-6.89c0,.13,0,.24,0,.36,0,.29,0,.61,0,.88l0,.48-.08.44a18,18,0,0,1-1.07,3.32c-.37.89-.66,1.47-.66,1.47s.39-.52.91-1.34a19.57,19.57,0,0,0,1.68-3.2l.18-.5c0-.15.09-.3.14-.46.08-.35.15-.65.21-1a15.1,15.1,0,0,0,.2-1.73,12.51,12.51,0,0,0,0-1.26s0-.07,0-.1c2.43-4.32,5.41-9.09,7.88-13.08,4.61-7.49,8-17.36,11.3-20.57s15.12-5.21,26-8.76c10.36-3.38,16.31-6.82,22.89-4.19l-.2,0-1-.12-.93-.06a15.69,15.69,0,0,0-1.7,0c-.53.07-1,.13-1.43.23a7.66,7.66,0,0,0-1.06.32l-.86.39s.35,0,.94,0c.3,0,.66,0,1.05,0s.86.09,1.34.12,1,.14,1.57.27,1.13.26,1.72.41,1.21.33,1.83.52,1.25.38,1.87.6,1.25.45,1.87.65l1.81.67.78.28c4.37,2.67,9.93,6.16,16.12,9.6a133.94,133.94,0,0,0,20,9.27,152.69,152.69,0,0,0,19,5.52A101.74,101.74,0,0,0,229,95.52c-.93,0-1.88,0-2.85,0-1.41,0-2.81.07-4.13.15-.66,0-1.29.08-1.89.13s-1.17.1-1.69.16c-1.05.1-1.92.22-2.52.31l-1,.13h1c.62,0,1.49,0,2.53,0,.53,0,1.09,0,1.69.07s1.23.06,1.88.12c1.3.09,2.68.22,4.06.39.93.11,1.84.24,2.74.37a.45.45,0,0,0,0,.11C221.82,97.29,212.35,97.33,207.35,98.78Zm44.15-37c3.15.1,6.27.32,9.34.57s6.06.59,9,.9c5.81.67,11.2,1.44,15.81,2.18s8.44,1.44,11.11,2,4.2.85,4.2.85-1.56,0-4.28-.11-6.61-.27-11.27-.55-10.07-.63-15.87-1L260.57,66c-3-.2-6.11-.37-9.17-.43-1.52,0-3.05-.08-4.51,0a14.84,14.84,0,0,0-2,.2l-.21,0-.28.47a78.6,78.6,0,0,0-4.1,7.72c-1.16,2.61-2.24,5.17-3.16,7.63s-1.69,4.84-2.29,7-1.11,4.27-1.49,6.1c-.15.93-.29,1.79-.43,2.59s-.18,1.55-.26,2.21c-.06,1.33-.16,2.41-.1,3.14s0,1.12,0,1.12l-.23-1.1a25.2,25.2,0,0,1-.43-3.16c0-.69-.05-1.45-.07-2.28s0-1.73.08-2.7a56.72,56.72,0,0,1,.82-6.4,72.45,72.45,0,0,1,1.73-7.43c.77-2.6,1.66-5.33,2.78-8.08a66.85,66.85,0,0,1,4-8.28l.3-.51.15-.25,0-.07,0,0,.19-.26.09-.1a2.45,2.45,0,0,1,.46-.38,1.76,1.76,0,0,1,.23-.15l.13-.06a3.32,3.32,0,0,1,.48-.2,4.83,4.83,0,0,1,.78-.21,17.8,17.8,0,0,1,2.58-.3C248.34,61.78,249.92,61.79,251.5,61.82Z"/><path class="cls-2" d="M109.56,166.43c.19-.1.44-.23.62-.34v-1.54h-2.43l-3.45,6.13h2.38V170C106.68,167.92,108.48,167,109.56,166.43Z"/><path class="cls-2" d="M133.52,164.55h-6.4v1.54c.18.11.44.24.63.34,1.07.55,2.87,1.49,2.87,3.58v.67h4.73l.67-2.38A4.64,4.64,0,0,1,133.52,164.55Z"/><polygon class="cls-2" points="197.45 170.68 195.72 164.55 166.4 164.55 166.4 170.68 197.45 170.68"/><path class="cls-2" d="M166.4,170.68H154a16.32,16.32,0,0,0-.14,2.14,15.45,15.45,0,0,0,1.29,4.76H166.4Z"/><path class="cls-2" d="M139.78,172.82a14.63,14.63,0,0,0-.15-2.14h-4.28l-1.94,6.9h5.08A15.45,15.45,0,0,0,139.78,172.82Z"/><polygon class="cls-2" points="67.42 177.58 67.67 177.58 67.67 177.29 67.42 177.58"/><path class="cls-2" d="M90.31,170.68V172l.69.38c1.2.61,3.19,1.65,3.19,4v1.23h6.22l3.89-6.9Z"/><polygon class="cls-2" points="133.41 177.58 100.41 177.58 96.01 185.4 131.2 185.4 133.41 177.58"/><polygon class="cls-2" points="166.4 185.4 201.59 185.4 199.39 177.58 166.4 177.58 166.4 185.4"/><path class="cls-2" d="M159.12,185.4a6.65,6.65,0,0,1,.14,1,9.21,9.21,0,0,0,1.89,1.81c1.77,1,2.87,2.1,2.87,4.41a14.76,14.76,0,0,1-.09,1.75h2.47V185.4Z"/><path class="cls-2" d="M132.48,188.18a9.19,9.19,0,0,0,1.88-1.81,8.36,8.36,0,0,1,.14-1h-3.3l-2.52,8.94h1a14.79,14.79,0,0,1-.1-1.75C129.6,190.28,130.7,189.19,132.48,188.18Z"/><path class="cls-2" d="M96,185.4H61.69q2.36,4.51,4.89,8.94H91Z"/><polygon class="cls-2" points="90.97 194.34 85.16 204.66 125.78 204.66 128.69 194.34 90.97 194.34"/><polygon class="cls-2" points="166.4 194.34 166.4 204.66 207.02 204.66 204.11 194.34 166.4 194.34"/><path class="cls-2" d="M207,204.66l3.07,10.89c16-.89,29.9-2.18,41.66-3.59l-4.11-7.3Z"/><path class="cls-2" d="M166.4,204.66H125.78l-3.1,11c10.43.55,21.72.93,33.87,1.06h9.85Z"/><path class="cls-2" d="M72.81,204.66c1.51,2.38,3,4.74,4.62,7.08l3.5.42,4.23-7.5Z"/><path class="cls-2" d="M265.38,177.58h9.67q1.67-3.44,3.24-6.9H259.55Z"/><path class="cls-2" d="M57.74,177.58q1.75,3.61,3.61,7.18l6.07-7.18Z"/><path class="cls-2" d="M71.63,159.06c0-.12,0-.24,0-.37A3.07,3.07,0,0,1,72,157.1H48.82c.74,1.9,1.49,3.8,2.27,5.69l4.2-3.73Z"/><path class="cls-2" d="M123.63,159.06h13.86c.08-.06.14-.14.21-.2a12,12,0,0,1-1-1.76H124.77a5.2,5.2,0,0,1-1,.31A11.4,11.4,0,0,0,123.63,159.06Z"/><path class="cls-2" d="M71.54,169.89a3.17,3.17,0,0,1,3.13-3.13,2.55,2.55,0,0,0,.75-2v-.18H51.84c.86,2,1.75,4.1,2.67,6.13h17Z"/><path class="cls-2" d="M234.14,157.1a3,3,0,0,0-.38-.33A34.87,34.87,0,0,1,236,146a11.32,11.32,0,0,0,.89-3.49c0-1.09-.5-3-3.88-3.63a20.38,20.38,0,0,0-3-.26l0-.07-1.26-2.79,1.26-2.88,1.2-2.72H219.54a3.67,3.67,0,0,0-1.9-.44H205.3c-2.73,0-3,1.74-3,2.49v2.72a2.56,2.56,0,0,0-.53,1.6,2.41,2.41,0,0,0,1.56,2.16v.42l0,.14a56.22,56.22,0,0,1,.33,7.36,20.32,20.32,0,0,1-1,6.72,3.49,3.49,0,0,0-1.31,2.34,12.51,12.51,0,0,0-.17,1.43H157a12,12,0,0,1-1.05,1.76,4,4,0,0,1,1,1.13,4.33,4.33,0,0,1,3.25,4.08,4.26,4.26,0,0,1,0,.48h6.3v-5.49h27.78l1.54,5.49h2.41V168l1.17.4a40.74,40.74,0,0,0,12.17,1.53,52.83,52.83,0,0,0,6.48-.38c0,.37.05.76.05,1.17H197.45l1.94,6.9H216.8c-.61,2.35-1.33,4.73-1.87,6.4a5.15,5.15,0,0,0-.85.18,3.18,3.18,0,0,0-1.81,1.24H201.59l2.52,8.94h3.3c0,.13,0,.25,0,.38a4.54,4.54,0,0,0,.69,2.24,6,6,0,0,0-.86,3.28v1l.82.58c.65.47,3.81,2,17,2s16.37-1.51,17-2l.81-.58v-1A6,6,0,0,0,242,197a5.59,5.59,0,0,0,.55-1.3l5.07,9H260c1.95-3.09,3.86-6.21,5.69-9.38l.53-.94H242.68c-.16-1.78-1.33-2.71-2.91-3.66l-1.58-2.8a3.91,3.91,0,0,0,.11-.94,2.86,2.86,0,0,0-.49-1.54h33.3c.11-.21.22-.43.34-.64l-6.07-7.18H233.29a32.18,32.18,0,0,1-1.21-6.69c0-.07,0-.14,0-.21h27.46l-5.18-6.13H236a3.58,3.58,0,0,0,1.22-2.94,3.7,3.7,0,0,0-.95-2.55h13.51l4.64,5.49H281c1.05-2.47,2.05-5,3-7.45H234.14Zm-1.75-2.5a10.86,10.86,0,0,1,.06-1.1c0-.39.05-.8.12-1.22a23.59,23.59,0,0,1,.48-2.63c.22-.88.47-1.76.75-2.56s.58-1.54.82-2.17.47-1.15.57-1.53a3.2,3.2,0,0,0,.1-.45l0-.16V143a2.22,2.22,0,0,1,0,.46,7,7,0,0,1-.15.7c-.07.27-.14.57-.25.9-.2.64-.43,1.4-.67,2.21-.13.4-.23.82-.36,1.25s-.23.85-.33,1.29-.21.87-.29,1.31-.17.86-.24,1.27-.14.82-.19,1.2-.11.74-.14,1.08-.07.64-.1.92-.05.51-.06.71l-.06.62,0-.62C232.39,155.85,232.35,155.29,232.39,154.6ZM205,145.73c0-.56,0-1.12,0-1.68v-3.37c0-.56,0-1.13,0-1.69v0c0-.36.08-.73.14-1.09,0,.36.1.73.14,1.09v0a14.19,14.19,0,0,1,.32,1.68c.08.57.15,1.13.19,1.7s.09,1.13.1,1.7,0,1.13,0,1.7,0,1.13,0,1.7a16.5,16.5,0,0,1-.17,1.71,13.46,13.46,0,0,1-.32,1.68,11.45,11.45,0,0,1-.52,1.63c.11-1.13.18-2.25.21-3.37,0-.55,0-1.11,0-1.67Zm1.8-8.18c.33,0,.72-.06,1.13-.06l1.29,0,1.29,0c.41,0,.8.05,1.13.07s.6.06.79.08l.31,0-.31,0c-.19,0-.46.06-.79.08s-.72.06-1.13.07l-1.29,0-1.29,0c-.41,0-.8-.05-1.13-.07s-.6-.06-.8-.08l-.3,0,.3,0C206.15,137.61,206.42,137.57,206.75,137.55Zm-.76-1.89.26,0c.17,0,.4-.06.68-.08s.62-.06,1-.06l1.11,0,1.11,0c.35,0,.68,0,1,.06s.52.06.68.08l.26,0-.26,0c-.16,0-.4.06-.68.08s-.61.06-1,.07l-1.11,0-1.11,0c-.35,0-.68,0-1-.07s-.51-.06-.68-.08Zm.54,6.74c0-1-.06-1.73-.06-1.73s0,.17.1.47.14.73.2,1.24.13,1.13.17,1.79c0,.32,0,.66,0,1s0,.7,0,1.05c0,.69-.08,1.39-.17,2s-.19,1.25-.29,1.76-.22.94-.3,1.23-.13.46-.13.46.07-.69.19-1.72c.06-.52.1-1.12.16-1.77s.09-1.33.11-2,0-1.38,0-2S206.56,142.92,206.53,142.4Zm-1.47,12.46c.19,0,.46-.06.79-.08s.72-.05,1.13-.06l1.29,0,1.29,0c.41,0,.8.05,1.13.06s.6.06.8.08l.3,0-.3,0c-.2,0-.47.06-.8.08s-.72.05-1.13.06l-1.29,0-1.29,0c-.41,0-.8-.05-1.13-.07s-.6-.06-.79-.07l-.31,0Zm2.29,3.19c.19,0,.47-.06.8-.08s.71-.06,1.13-.07l1.29,0,1.29,0c.41,0,.8,0,1.13.07s.6.06.79.08l.31,0-.31,0c-.19,0-.46.06-.79.08s-.72.06-1.13.07l-1.29,0-1.29,0c-.42,0-.8-.05-1.13-.07s-.61-.06-.8-.08l-.3,0Zm5.67,4.61a2.29,2.29,0,0,0,.09.28l-1.06.15c-.61.08-1.32.13-2.09.17-.39,0-.78,0-1.19,0h-1.22l-1.22,0c-.41,0-.8-.06-1.19-.09-.76-.07-1.47-.16-2.08-.27a17.65,17.65,0,0,1-2-.42l.56,0c.36,0,.87,0,1.49,0h2.08l2.39,0,1.21,0,1.17,0c.77,0,1.48.06,2.09.1Zm8.15-26.61a2.3,2.3,0,0,0-.5-1.12v-.59l.63,1.42Zm-1.08,2.4-.05.1,0,.07h-.24Zm-16.23-6.78a.87.87,0,0,1,.45-.4,3,3,0,0,1,1-.15c.62,0,1.27-.05,1.95-.06s1.37,0,2.08,0h4.29l2.08,0c.67,0,1.33,0,1.94.06a3,3,0,0,1,1,.15.87.87,0,0,1,.45.4.71.71,0,0,1,.09.28,1.15,1.15,0,0,1,0,.24c0,.56-.06,1-.08,1.48s-.06.82-.08,1.14c-.06.63-.09,1-.09,1s0-.36-.08-1c0-.32-.05-.7-.08-1.14s0-.92-.08-1.46c0-.26-.09-.34-.28-.4a2.73,2.73,0,0,0-.79-.05c-.61,0-1.27.05-1.94.06s-1.37,0-2.08,0l-2.15,0h-2.14l-2.08,0c-.67,0-1.33,0-1.94-.06a2.71,2.71,0,0,0-.79.05.34.34,0,0,0-.2.13.57.57,0,0,0-.08.26c-.1,2.16-.24,3.6-.24,3.6s-.15-1.44-.25-3.6A1,1,0,0,1,203.86,131.67Zm-1,24a2.33,2.33,0,0,1,.3-.59,1.13,1.13,0,0,1,.38-.35.48.48,0,0,1,.31-.08H204l-.1,0a.62.62,0,0,0-.22.17,1.12,1.12,0,0,0-.19.38,4.66,4.66,0,0,0-.12.55c0,.21,0,.44,0,.69s0,.5,0,.77,0,.56,0,.84,0,.29,0,.44v0l10.22.41-10.47.4a2.3,2.3,0,0,1-.55.6c-.26.2-.52.35-.75.5s-.47.27-.67.4a6.31,6.31,0,0,0-.54.39,2.32,2.32,0,0,0-.37.42,1.93,1.93,0,0,0-.22.38l-.13.39v-.11a2,2,0,0,1,0-.31,1.66,1.66,0,0,1,.09-.5,2.19,2.19,0,0,1,.3-.59,5,5,0,0,1,1.15-1.1c.23-.17.44-.34.64-.51a1.48,1.48,0,0,0,.41-.51l0,0v-.27h0c0-.14,0-.27,0-.41,0-.3,0-.59.07-.87A6.59,6.59,0,0,1,202.91,155.66Zm12.45,9.59a7.29,7.29,0,0,0,1.11.3c-.55,0-1.14.07-1.74.09-1.19,0-2.45.05-3.72.07s-2.53,0-3.72-.08-2.29-.12-3.23-.2-1.74-.21-2.28-.31c-.27-.06-.48-.11-.63-.16a1,1,0,0,1-.21-.08,1.24,1.24,0,0,0,.22.06l.63.09c.55.07,1.34.11,2.28.16s2.05.05,3.23.07,2.45,0,3.71,0,2.53,0,3.71,0Zm2.42,2.7c-.63.09-1.29.18-2,.23s-1.4.11-2.13.14-1.46.05-2.2.06-1.47,0-2.19-.06-1.44-.08-2.13-.14-1.35-.14-2-.23-1.22-.19-1.76-.29c-1.09-.2-2-.44-2.6-.61s-1-.32-1-.32.36.1,1,.24,1.53.29,2.62.45,2.36.29,3.73.39c.68.05,1.39.09,2.11.11s1.45,0,2.18,0,1.47,0,2.19,0,1.42-.06,2.11-.11l2-.17c0,.1,0,.2,0,.31Zm23.64,27a2.51,2.51,0,0,1-.32.85,5.42,5.42,0,0,1-.79,1,3.29,3.29,0,0,1-.35.34s.11-.14.28-.4a6.47,6.47,0,0,0,.61-1.1,2.51,2.51,0,0,0,.21-.77c0-.07,0-.14,0-.21l0-.22a1.46,1.46,0,0,0-.11-.41,2.1,2.1,0,0,0-.6-.68c-.26-.2-.55-.39-.84-.58l-.89-.55a6.65,6.65,0,0,1-.86-.61,4.63,4.63,0,0,1-.7-.7,4.46,4.46,0,0,1-.5-.72A5.16,5.16,0,0,1,236,189a2.64,2.64,0,0,1-.09-.48,3.62,3.62,0,0,0,.18.45,6.37,6.37,0,0,0,.65,1.08,6,6,0,0,0,.54.63,5.88,5.88,0,0,0,.69.61c.24.18.55.37.83.54s.61.35.92.54.6.4.88.63a2.22,2.22,0,0,1,.69.88,1.69,1.69,0,0,1,.12.53,1,1,0,0,1,0,.25A1.1,1.1,0,0,1,241.42,194.92Zm-5.31-10.72a4.75,4.75,0,0,0-1-.22c-.29-.91-.64-2-1-3.25Zm-5.05-12.13c0,.3.08.61.11.92s.11.62.16.93l.18.94c.26,1.25.57,2.49.86,3.65s.57,2.24.83,3.17l.85,3.09s-.13-.3-.33-.82-.48-1.28-.78-2.19-.66-2-1-3.14c-.16-.58-.34-1.18-.49-1.79s-.3-1.25-.43-1.88-.24-1.26-.33-1.9c0-.31-.07-.63-.1-.94s0-.63,0-.94a16.2,16.2,0,0,1,.12-1.74c.06-.55.15-1.07.24-1.54a15.25,15.25,0,0,1,.64-2.25,6.22,6.22,0,0,1,.36-.81s-.12.3-.27.84a19.49,19.49,0,0,0-.46,2.26c-.07.47-.13,1-.16,1.53s0,1.12-.05,1.72C231,171.47,231,171.77,231.06,172.07Zm-13.75-12.46,12.08.63a2.17,2.17,0,0,1-.14,2.88l-10.09.65,9.29.6a15,15,0,0,0-1,6,101,101,0,0,0,1.13,11.33c-.2-.81-.41-1.68-.61-2.56-.73-3.26-1.21-6.6-1.21-6.6s-.13,3.37,0,6.75c.09,2.49.32,5,.43,6.12l-10.4.47,12.82.59a1.78,1.78,0,0,1,.07,1.46l-14.72.65,14.38.63a7.44,7.44,0,0,0,1.27,2.77,7.07,7.07,0,0,1,1.75,3.41,2.4,2.4,0,0,1-.33,1.7c-2.1.17-4.48.32-6.87.4-3.46.12-6.93.11-9.53,0-1.3,0-2.38-.09-3.14-.13l-1.2-.06,1.19.14c.75.09,1.83.22,3.13.35,2.59.27,6.07.52,9.55.64,2.09.08,4.17.1,6.07.09.5.55,1.38,1.8.48,3l1.95-.09c.86-.05,1.67-.12,2.42-.19s1.42-.16,2-.25,1.12-.19,1.55-.29a9.18,9.18,0,0,0,1-.28,1.85,1.85,0,0,0,.33-.15,2.21,2.21,0,0,1-.32.17,6,6,0,0,1-1,.35c-.42.13-.94.25-1.54.38l-1,.18-1.07.16c-.75.1-1.56.19-2.42.27s-1.77.16-2.71.2-1.92.08-2.91.1-2,0-3,0-2,0-3,0-2-.05-2.91-.1-1.85-.12-2.71-.2-1.67-.17-2.42-.27l-1.07-.16-1-.18c-.6-.13-1.12-.25-1.55-.38a6.87,6.87,0,0,1-1-.35c-.18-.08-.28-.15-.31-.16h0c0-2.5,1.46-3.09,1.46-3.09a4.9,4.9,0,0,1-1.29-2.43c0-1.05.42-1.45,2.66-2.77a5.54,5.54,0,0,0,2.65-3.43,1.59,1.59,0,0,1-.91-1.58c0-1,1.66-1.1,2.34-1.1h.29s3.6-10.55,3.6-15a18.34,18.34,0,0,0-1.27-7.14c-2.67,0-3.82-.36-3.82-2.14s1.92-2,1.92-2a1.5,1.5,0,0,1,1.51-1.52c0-8.69-3.19-13.64-3.19-15.6s3.88-2,6.71-2v-1.2h0c.39-1.2.83-2.38,1.29-3.56-.29-.56-.56-1.13-.84-1.7s-.57-1.21-.86-1.81a.44.44,0,0,1,.21-.59.33.33,0,0,1,.17,0h0c1.08,0,2.16,0,3.23,0s2.16,0,3.24,0h0a.44.44,0,0,1,.43.45.58.58,0,0,1,0,.18c-.29.6-.56,1.21-.86,1.81s-.55,1.14-.84,1.7c.46,1.18.89,2.36,1.29,3.56-.67-1.13-1.29-2.29-1.89-3.45a.26.26,0,0,1,0-.21v0c.24-.63.49-1.25.73-1.87.16-.41.33-.82.5-1.23l-1.67,0-.82,2.94-1.76.28,1.76.28,1,4.1-4,.41,5.28.53,1.67.78-13.38.54,14.53.58a65.14,65.14,0,0,0-2.47,14.54l-9.14.55,10,.6a1.59,1.59,0,0,1,.16.32Z"/><path class="cls-2" d="M86.61,162.4a13.06,13.06,0,0,0-.17,2.15h21.31l3.09-5.49h2.83a13.39,13.39,0,0,0-.14-1.65,5.53,5.53,0,0,1-1-.31H89.83a3.26,3.26,0,0,1,.44,1.59C90.27,160.76,88.6,162,86.61,162.4Z"/><path class="cls-2" d="M166.4,216.74c2.7,0,5.37,0,8,0h-8Z"/><path class="cls-2" d="M113.67,159.06c0,.15,0,.3,0,.46a2.3,2.3,0,0,1-.68,1.83,2.87,2.87,0,0,0-2.82,2.83v1.91c-.18.11-.43.24-.62.34-1.08.55-2.88,1.49-2.88,3.58v4.62l.86.53c.29.19,3.11,1.81,11.11,1.81,8.33,0,10.77-1.49,11.32-1.95l.65-.55V170c0-2.09-1.8-3-2.87-3.58-.19-.1-.45-.23-.63-.34v-1.91a2.86,2.86,0,0,0-2.81-2.83,2.26,2.26,0,0,1-.69-1.83c0-.16,0-.31,0-.46a11.4,11.4,0,0,1,.15-1.65,5.2,5.2,0,0,0,1-.31,3.26,3.26,0,0,0,2.31-3,3,3,0,0,0-1.83-2.72,7.21,7.21,0,0,0,1.2-4.11,6.15,6.15,0,0,0-2.31-5.18,10.72,10.72,0,0,0-11,0,6.13,6.13,0,0,0-2.32,5.18,7.24,7.24,0,0,0,1.21,4.12,3,3,0,0,0-1.83,2.71,3.25,3.25,0,0,0,2.3,3,5.53,5.53,0,0,0,1,.31A13.39,13.39,0,0,1,113.67,159.06Zm-3.81,10.86s.76,0,1.87,0c.56,0,1.21,0,1.9,0l2.17,0L118,170l1.9.08c1.11,0,1.86.12,1.86.12s-.74.15-1.85.27c-.56.06-1.21.11-1.91.14-.35,0-.71,0-1.08,0h-1.11l-1.11,0c-.37,0-.73-.05-1.08-.07-.7-.07-1.35-.14-1.9-.23C110.59,170.11,109.86,169.92,109.86,169.92Zm18.25,2.21-.2.07a5.12,5.12,0,0,1-.56.15,20,20,0,0,1-2.08.3c-.86.07-1.87.16-3,.19s-2.23.06-3.38.07-2.31,0-3.39-.07-2.08-.12-2.94-.2a17.91,17.91,0,0,1-2.08-.29c-.24-.06-.44-.1-.57-.15l-.19-.07.2.05c.13,0,.33,0,.58.08.5.06,1.21.09,2.07.13s1.87,0,2.94.06,2.23,0,3.38,0,2.3,0,3.37,0,2.09,0,3-.06,1.57-.07,2.07-.13c.25,0,.45,0,.58-.08Zm-.09,1.92a8.5,8.5,0,0,1-1,.36,13.11,13.11,0,0,1-1.28.33q-.72.15-1.56.27c-.55.09-1.13.15-1.74.2s-1.23.09-1.87.11-1.29,0-1.94.05-1.29,0-1.93-.06-1.27-.07-1.88-.11a26.9,26.9,0,0,1-3.29-.51,12.91,12.91,0,0,1-2.25-.68,4.69,4.69,0,0,1-.8-.39,6.81,6.81,0,0,0,.83.31,16.25,16.25,0,0,0,2.27.51c.48.08,1,.15,1.54.21s1.13.1,1.73.15,1.23.08,1.86.09,1.28,0,1.92,0,1.29,0,1.93,0,1.25,0,1.85-.08,1.19-.07,1.73-.13,1.07-.12,1.55-.19A14.47,14.47,0,0,0,128,174a3.49,3.49,0,0,0,.8-.35A3.28,3.28,0,0,1,128,174.05Zm-.16-6a7.56,7.56,0,0,1,.71.41,2.59,2.59,0,0,1,.64.64,1.54,1.54,0,0,1,.2.45,2,2,0,0,1,.06.45c0,.27,0,.54,0,.79,0,.52,0,1-.07,1.42s-.06.76-.08,1-.05.38-.05.38,0-.14,0-.38-.06-.59-.09-1-.05-.9-.07-1.42c0-.25,0-.52,0-.79a1.51,1.51,0,0,0-.06-.36,1,1,0,0,0-.15-.29,2,2,0,0,0-.51-.53,7.14,7.14,0,0,0-.65-.41,12.81,12.81,0,0,1-1.21-.75c-.08-.07-.17-.13-.24-.2l-.19-.2a1.15,1.15,0,0,1-.22-.4.66.66,0,0,1,0-.28v-.1l0,.09a.72.72,0,0,0,.1.26,1.38,1.38,0,0,0,.26.31,4.39,4.39,0,0,0,.45.3C127,167.66,127.39,167.85,127.86,168.08Zm-15.93-2.72c0,.17.06.37.08.57s0,.2,0,.31,0,.11,0,.16v.22a1.43,1.43,0,0,1-.33.84,2.27,2.27,0,0,1-.31.31l-.33.23a6.88,6.88,0,0,1-.65.35c-.21.11-.42.19-.61.28l-.55.26a2.36,2.36,0,0,0-.23.13,1.16,1.16,0,0,0-.22.13,2.31,2.31,0,0,0-.33.28,2.43,2.43,0,0,0-.2.28c-.07.18-.13.3-.13.3s0-.12,0-.35a1.87,1.87,0,0,1,.08-.4l.1-.24a2,2,0,0,1,.16-.24,2.71,2.71,0,0,1,.44-.46,5.39,5.39,0,0,1,.54-.4l.59-.35.58-.34a2.42,2.42,0,0,0,.45-.35.6.6,0,0,1,.08-.08s0,0,0-.06.07-.13.09-.24v0h0v0c0-.05,0-.11,0-.16l0-.31c0-.2,0-.4.08-.57a8.62,8.62,0,0,1,.26-1.18A7.11,7.11,0,0,1,111.93,165.36Zm5.9-2.4,1.24,0c.39,0,.76,0,1.08.07s.58.07.76.08l.29.05-.29,0c-.18,0-.45.07-.76.09s-.69.06-1.08.07l-1.24,0-1.24,0c-.4,0-.76,0-1.08-.07s-.58-.07-.76-.09l-.29,0,.29-.05c.18,0,.44-.06.76-.08s.68-.06,1.08-.07Zm4.9-5.51c0,.31,0,.67-.06,1.05,0,.19,0,.39,0,.59s0,.41,0,.61a5.67,5.67,0,0,0,0,.58,2.8,2.8,0,0,1,.06.28c0,.09,0,.18.08.27a3.58,3.58,0,0,0,.2.49c.08.15.16.29.24.41a3.2,3.2,0,0,0,.7.73,1.32,1.32,0,0,1-.27-.1,2.58,2.58,0,0,1-.63-.46,3,3,0,0,1-.62-.93,3.09,3.09,0,0,1-.19-.61,4.62,4.62,0,0,1-.08-.65,8.38,8.38,0,0,1,.06-1.24,5.89,5.89,0,0,1,.2-1.06,4.47,4.47,0,0,1,.27-.72,1.42,1.42,0,0,1,.16-.25,1.49,1.49,0,0,0-.07.28C122.8,156.89,122.76,157.15,122.73,157.45Zm-7.3-1.88-.66-.09-.24,0,.24-.05c.16,0,.39-.06.66-.08s.59-.06.92-.07l1.07,0,1.06,0c.34,0,.65,0,.92.07s.5.06.66.08l.25.05-.25,0c-.16,0-.39.07-.66.09s-.58.06-.92.07l-1.06,0-1.07,0C116,155.63,115.7,155.58,115.43,155.57Zm5.2-12-.54,0c-.22,0-.48,0-.75,0l-.86,0-.86,0c-.27,0-.53,0-.75,0l-.54,0-.21,0,.2-.06c.13,0,.31-.09.53-.13s.48-.08.76-.1l.87-.05.87.05a7.07,7.07,0,0,1,.76.1c.22,0,.4.1.52.13l.2.06Zm-8.54,3c0-.15,0-.31,0-.47a4.75,4.75,0,0,1,.65-1.94,4.41,4.41,0,0,1,1.61-1.54,7,7,0,0,1,2.12-.73,12.49,12.49,0,0,1,2.18-.15,11.27,11.27,0,0,1,2.11.21,6.55,6.55,0,0,1,1.89.68,4.12,4.12,0,0,1,1.38,1.18,3.86,3.86,0,0,1,.68,1.36,3.61,3.61,0,0,1,.13.6,3.49,3.49,0,0,1,0,.53,5.64,5.64,0,0,1,0,.72c0,.17,0,.25,0,.25l0-.25a6.51,6.51,0,0,0-.13-.7,2.56,2.56,0,0,0-.13-.49,3.71,3.71,0,0,0-.2-.55,4,4,0,0,0-.75-1.14,5.09,5.09,0,0,0-3-1.4,13.85,13.85,0,0,0-2-.12,12.24,12.24,0,0,0-2,.17,4.11,4.11,0,0,0-3.87,3.42c0,.14,0,.28-.07.42s0,.28,0,.42a7.13,7.13,0,0,0,0,.79,5.89,5.89,0,0,0,.58,2.4c.14.27.26.48.35.62l.15.2-.18-.17a4,4,0,0,1-.47-.56,5.17,5.17,0,0,1-.95-2.45,4.73,4.73,0,0,1-.06-.85Zm2.82,4.14a2.17,2.17,0,0,1-.44-.47,3.3,3.3,0,0,1-.36-.57,5,5,0,0,1-.27-.71,5.5,5.5,0,0,1-.13-.76,3.58,3.58,0,0,1,0-.67,2.18,2.18,0,0,1,.15-.63s.05.26.11.62.16.85.29,1.32.28.92.41,1.27c.07.18.13.33.16.43Zm-3.12,3a1.83,1.83,0,0,0-.25.37.88.88,0,0,1-.09-.51,1.05,1.05,0,0,1,.21-.5,1.74,1.74,0,0,1,.85-.61,3.24,3.24,0,0,1,1-.17,3.82,3.82,0,0,1,.75.08,5.63,5.63,0,0,1,.31-.77,8,8,0,0,1,.1.84l5.85.24-6,.23-.13,0-.83.16-.79.16a2.88,2.88,0,0,0-.68.24A1,1,0,0,0,111.79,153.7Zm3.13,3.3a1.07,1.07,0,0,1,.16.19,3.16,3.16,0,0,1,.28.58,4.83,4.83,0,0,1,.21.87,4,4,0,0,1,.06.5v.53c0,.16,0,.37-.07.55a2.28,2.28,0,0,1-.18.52,2.17,2.17,0,0,1-.57.76,1.52,1.52,0,0,1-.56.34,1,1,0,0,1-.24.07,2.94,2.94,0,0,0,.5-.66,2.79,2.79,0,0,0,.3-.73,2.84,2.84,0,0,0,.09-.42,3.15,3.15,0,0,0,0-.46v-.16h0v-.78c0-.31,0-.6,0-.85s0-.46,0-.61A1.45,1.45,0,0,0,114.92,157Z"/><path class="cls-2" d="M91,172.39l-.69-.38v-2.12a3.17,3.17,0,0,0-3.12-3.13,2.55,2.55,0,0,1-.75-2v-.18a13.06,13.06,0,0,1,.17-2.15c2-.44,3.66-1.64,3.66-3.71a3.26,3.26,0,0,0-.44-1.59,3.45,3.45,0,0,0-1.6-1.42,8,8,0,0,0,1.34-4.56A6.81,6.81,0,0,0,87,145.38a9.78,9.78,0,0,0-6.08-1.66,9.77,9.77,0,0,0-6.08,1.66,6.81,6.81,0,0,0-2.56,5.74,8,8,0,0,0,1.34,4.57A3.67,3.67,0,0,0,72,157.1a3.07,3.07,0,0,0-.45,1.59c0,.13,0,.25,0,.37.19,1.84,1.76,2.93,3.62,3.34a14.28,14.28,0,0,1,.17,2.15v.18a2.55,2.55,0,0,1-.75,2,3.17,3.17,0,0,0-3.13,3.13V172l-.69.38c-1.19.61-3.18,1.65-3.18,4v5.12l.94.6c.33.2,3.45,2,12.32,2,9.23,0,11.93-1.65,12.53-2.15l.73-.61v-5C94.19,174,92.2,173,91,172.39Zm-6.65,4.17a19.31,19.31,0,0,1-2,.3c-.62.07-1.34.13-2.12.16-.38,0-.78,0-1.19,0H77.75l-1.23,0c-.41,0-.8-.06-1.19-.08-.77-.07-1.49-.16-2.11-.26-1.22-.18-2-.39-2-.39s.83,0,2.07,0l2.1,0,2.41,0,2.41.07,2.1.08C83.52,176.48,84.35,176.56,84.35,176.56Zm-1.87-16.4.28.05-.28,0c-.17,0-.42.07-.72.09s-.65.07-1,.08l-1.17,0-1.18,0c-.37,0-.72-.06-1-.08s-.56-.07-.73-.09l-.28,0,.28-.05c.17,0,.43-.07.73-.09s.65-.07,1-.08l1.18,0,1.17,0c.38,0,.73.06,1,.08S82.31,160.14,82.48,160.16Zm-3.84,8.42,1.37,0,1.38,0c.43,0,.84,0,1.19.07s.64.08.85.1l.32.05-.32,0c-.21,0-.5.07-.85.09s-.76.07-1.19.08l-1.38,0-1.37,0c-.44,0-.84-.06-1.19-.08s-.65-.07-.85-.09l-.32,0,.32-.05c.2,0,.5-.07.85-.09S78.2,168.59,78.64,168.58Zm6.74-3.65a4.48,4.48,0,0,0,.06.64l.06.31.09.3a2.9,2.9,0,0,0,.22.54,4,4,0,0,0,.27.46,3.18,3.18,0,0,0,.78.81,1.32,1.32,0,0,1-.31-.11,3.07,3.07,0,0,1-.69-.51,3.31,3.31,0,0,1-.69-1,4,4,0,0,1-.21-.67,5.9,5.9,0,0,1-.09-.72,10.24,10.24,0,0,1,.06-1.38,7.05,7.05,0,0,1,.23-1.18,4.56,4.56,0,0,1,.3-.8,2.31,2.31,0,0,1,.17-.27,1.77,1.77,0,0,0-.07.31,7.27,7.27,0,0,0-.11.81c0,.34-.06.74-.07,1.16,0,.21,0,.43,0,.65S85.36,164.71,85.38,164.93Zm-2.86-17.87c-.25,0-.53,0-.83,0l-1,0-1,0c-.3,0-.59,0-.83,0s-.45,0-.6-.05l-.22,0,.22-.07c.14,0,.34-.1.58-.14s.53-.09.84-.11.63,0,1-.06l1,.05c.31,0,.59.09.84.12s.44.11.58.14l.22.07-.23,0C83,147,82.76,147.05,82.52,147.06Zm-8.86,3.29c0-.17,0-.34,0-.52a5.32,5.32,0,0,1,.72-2.15,4.84,4.84,0,0,1,1.78-1.7,7.8,7.8,0,0,1,2.36-.82A15.27,15.27,0,0,1,81,145a13.63,13.63,0,0,1,2.33.24,7.48,7.48,0,0,1,2.1.75A4.74,4.74,0,0,1,87,147.29a4.36,4.36,0,0,1,.74,1.5,3.82,3.82,0,0,1,.15.68,4.08,4.08,0,0,1,.06.58,5,5,0,0,1,0,.8c0,.18,0,.28,0,.28l0-.28c0-.18-.06-.45-.14-.78a4.32,4.32,0,0,0-.14-.54c-.07-.19-.13-.4-.23-.61a4.42,4.42,0,0,0-.83-1.26,5.63,5.63,0,0,0-3.35-1.55,14.85,14.85,0,0,0-4.41,0,5.18,5.18,0,0,0-3.56,2,5,5,0,0,0-.72,1.79l-.09.47c0,.15,0,.31,0,.46a6.58,6.58,0,0,0,0,.88,6.38,6.38,0,0,0,.64,2.65c.16.3.29.54.39.69l.16.23-.2-.2a4.76,4.76,0,0,1-.52-.61,6,6,0,0,1-1-2.71,7.45,7.45,0,0,1-.07-.95C73.66,150.69,73.66,150.52,73.66,150.35Zm3.12,4.59a2.67,2.67,0,0,1-.49-.52,3.4,3.4,0,0,1-.39-.63,5.08,5.08,0,0,1-.3-.8,4.1,4.1,0,0,1-.14-.84,3.6,3.6,0,0,1,0-.74,2.63,2.63,0,0,1,.17-.7l.12.7c.08.4.18.93.32,1.45s.32,1,.46,1.42c.08.19.14.36.18.47Zm-2.65,2a3.25,3.25,0,0,1,1.06-.19,3.91,3.91,0,0,1,.83.09,7.58,7.58,0,0,1,.33-.86,7.85,7.85,0,0,1,.13.94l6.47.26-6.61.25-.15,0-.92.18c-.3.06-.59.11-.87.18a3.1,3.1,0,0,0-.76.26,1.17,1.17,0,0,0-.32.24,1.64,1.64,0,0,0-.28.4,1,1,0,0,1-.09-.56,1.2,1.2,0,0,1,.23-.56A1.94,1.94,0,0,1,74.13,156.9Zm2.69,5.3a1.83,1.83,0,0,0,0-.26.77.77,0,0,1,.17.21,2.69,2.69,0,0,1,.32.64,5.73,5.73,0,0,1,.24,1c0,.18,0,.37.06.56v.58a4.65,4.65,0,0,1-.08.61,3.47,3.47,0,0,1-.19.57,2.62,2.62,0,0,1-.63.85,2,2,0,0,1-.63.38.82.82,0,0,1-.26.06,3.53,3.53,0,0,0,.74-1.1,4.31,4.31,0,0,0,.15-.43,5.48,5.48,0,0,0,.14-1v-.53c0-.18,0-.36,0-.53v-.94C76.84,162.6,76.84,162.36,76.82,162.2Zm-3.63,7.69a9.42,9.42,0,0,1,.29,1.31c0,.2.07.41.09.63s0,.23,0,.35,0,.12,0,.18v.24a1.48,1.48,0,0,1-.37.93,2.19,2.19,0,0,1-.34.34l-.36.26a6.36,6.36,0,0,1-.72.39l-.68.31c-.21.1-.42.18-.61.28s-.17.1-.26.15a1.28,1.28,0,0,0-.23.14,3,3,0,0,0-.37.31,3.72,3.72,0,0,0-.22.31c-.08.2-.14.33-.14.33a3.35,3.35,0,0,1-.06-.38,1.78,1.78,0,0,1,.09-.45l.11-.27a1.35,1.35,0,0,1,.18-.26,2.51,2.51,0,0,1,.48-.5,5.52,5.52,0,0,1,.6-.45c.22-.13.43-.27.66-.39l.63-.38a2.71,2.71,0,0,0,.51-.38l.08-.1s0,0,.05,0,.07-.15.09-.27v0h0v0a1.1,1.1,0,0,1,0-.18c0-.12,0-.24,0-.35s.05-.43.08-.63A9.42,9.42,0,0,1,73.19,169.89Zm18.22,8.81-.22.09-.63.16c-.55.1-1.34.24-2.3.33s-2.07.18-3.26.21-2.48.07-3.75.08-2.56,0-3.76-.08-2.31-.13-3.26-.22a23.17,23.17,0,0,1-2.3-.32l-.63-.16-.22-.09.23.06c.14,0,.36.06.64.09.55.07,1.34.1,2.3.14s2.06,0,3.26.06,2.46,0,3.74,0,2.54,0,3.73,0,2.31,0,3.26-.06,1.75-.07,2.31-.14l.63-.09Zm-.1,2.14c-.29.12-.65.26-1.07.39s-.9.26-1.43.37-1.11.21-1.72.3-1.26.16-1.93.22-1.37.09-2.08.12-1.42,0-2.14,0-1.44,0-2.15-.06-1.4-.08-2.07-.13a31.89,31.89,0,0,1-3.65-.55,15.33,15.33,0,0,1-2.5-.76,5.58,5.58,0,0,1-.88-.44,7,7,0,0,0,.92.35,19.29,19.29,0,0,0,2.52.57c.52.09,1.1.16,1.7.23s1.26.11,1.92.17,1.36.08,2.06.09,1.42,0,2.13,0,1.43,0,2.13,0,1.39-.05,2.06-.09,1.31-.08,1.92-.15,1.18-.13,1.71-.21a15.29,15.29,0,0,0,2.51-.58,4.16,4.16,0,0,0,.9-.39A3.64,3.64,0,0,1,91.31,180.84Zm1.41-.91c0,.27,0,.42,0,.42s0-.15,0-.42-.06-.65-.09-1.11-.06-1-.08-1.56c0-.29,0-.58,0-.88a3.2,3.2,0,0,0-.07-.41,1.15,1.15,0,0,0-.16-.31,2.27,2.27,0,0,0-.57-.59c-.24-.16-.47-.32-.72-.46a12.46,12.46,0,0,1-1.34-.83l-.27-.21-.21-.23a1.43,1.43,0,0,1-.25-.44.66.66,0,0,1,0-.32v-.11l0,.11a1.32,1.32,0,0,0,.11.28,1.49,1.49,0,0,0,.29.35,4.52,4.52,0,0,0,.51.33c.39.22.87.42,1.39.68a7.4,7.4,0,0,1,.8.46,2.74,2.74,0,0,1,.7.7,1.53,1.53,0,0,1,.23.5,3.54,3.54,0,0,1,.07.5l0,.88c0,.57,0,1.11-.07,1.56S92.74,179.66,92.72,179.93Z"/><path class="cls-2" d="M137.49,159.06a4.5,4.5,0,0,0-.75.93,4.33,4.33,0,0,0-3.25,4.08,4.26,4.26,0,0,0,0,.48,4.64,4.64,0,0,0,2.5,3.75,8.8,8.8,0,0,0,3.34,1,11,11,0,0,1,.27,1.42,14.63,14.63,0,0,1,.15,2.14,15.45,15.45,0,0,1-1.29,4.76,54.79,54.79,0,0,1-2.33,5,4.32,4.32,0,0,0-1.66,2.78,8.36,8.36,0,0,0-.14,1,9.19,9.19,0,0,1-1.88,1.81c-1.78,1-2.88,2.1-2.88,4.41a14.79,14.79,0,0,0,.1,1.75,3.59,3.59,0,0,0,.05.46,4.12,4.12,0,0,0-.7,2.34,5,5,0,0,0,1.11,3.39c.69.94,3.11,2.92,16.65,2.92s16-2,16.65-2.92a5,5,0,0,0,1.12-3.39,4.2,4.2,0,0,0-.7-2.34c0-.15,0-.31.05-.46a14.76,14.76,0,0,0,.09-1.75c0-2.31-1.1-3.4-2.87-4.41a9.21,9.21,0,0,1-1.89-1.81,6.65,6.65,0,0,0-.14-1,4.28,4.28,0,0,0-1.66-2.78,53.65,53.65,0,0,1-2.32-5,15.45,15.45,0,0,1-1.29-4.76,16.32,16.32,0,0,1,.14-2.14,13,13,0,0,1,.27-1.42c4.74-.51,5.7-3.14,5.84-4.71a4.26,4.26,0,0,0,0-.48,4.33,4.33,0,0,0-3.25-4.08,4,4,0,0,0-1-1.13A12,12,0,0,0,157,157.1a15.66,15.66,0,0,0,1.45-7c0-5.46-4.17-9.53-6.83-11.57a4.77,4.77,0,0,0,.1-.95c0-2-1.51-4-4.88-4s-4.87,2-4.87,4a4.13,4.13,0,0,0,.1.95c-2.67,2-6.84,6.11-6.84,11.57a15.66,15.66,0,0,0,1.45,7,12,12,0,0,0,1,1.76C137.63,158.92,137.57,159,137.49,159.06Zm22.94,30.36a6.09,6.09,0,0,0,.71.51c.25.15.56.31.83.5a3,3,0,0,1,.76.71,1.82,1.82,0,0,1,.34,1,6.34,6.34,0,0,1,0,.89c0,.28-.06.54-.1.77a15.85,15.85,0,0,1-.32,1.58s0-.17,0-.45v-1.15c0-.24,0-.49,0-.77a7.52,7.52,0,0,0-.05-.82,1.37,1.37,0,0,0-.27-.71,2.53,2.53,0,0,0-.64-.56c-.25-.18-.5-.32-.78-.5a5.16,5.16,0,0,1-.76-.6,10.8,10.8,0,0,1-1.11-1.23,11.51,11.51,0,0,1-.88-1.35l.32.31c.19.2.48.48.82.81S160,189.06,160.43,189.42Zm-7.82-14.26a9.87,9.87,0,0,0,.33,1.38,23.46,23.46,0,0,0,1,2.63c.37.83.72,1.6,1.05,2.25.65,1.31,1.11,2.18,1.11,2.18s-.16-.19-.41-.54-.62-.84-1-1.47a20.76,20.76,0,0,1-2.32-4.88,9.32,9.32,0,0,1-.33-1.46,6.48,6.48,0,0,1,0-1.45,14.26,14.26,0,0,1,.36-2.51,10.06,10.06,0,0,1,.57-1.7,3.71,3.71,0,0,1,.31-.59s-.09.22-.21.63a12.42,12.42,0,0,0-.35,1.72c-.06.35-.1.74-.13,1.16s0,.84,0,1.29A6.87,6.87,0,0,0,152.61,175.16Zm-.75-34a5.5,5.5,0,0,1,.47.37c.2.17.44.39.7.64s.54.56.83.91a13.64,13.64,0,0,1,1.71,2.57,11.24,11.24,0,0,1,.68,1.62,9.49,9.49,0,0,1,.39,1.79c0,.32,0,.61.05.91s0,.6,0,.9c0,.59-.07,1.17-.14,1.73a16.47,16.47,0,0,1-.65,3,7.74,7.74,0,0,1-.45,1.14,7.33,7.33,0,0,1-.46.83,3.07,3.07,0,0,1-.51.65,3.85,3.85,0,0,0,.42-.7,8.66,8.66,0,0,0,.36-.86c.12-.33.23-.72.34-1.15a16.22,16.22,0,0,0,.44-3c.05-.55.08-1.12.08-1.7,0-.28,0-.59,0-.86a6.13,6.13,0,0,0-.07-.87,9.56,9.56,0,0,0-.36-1.67,14.42,14.42,0,0,0-.6-1.56c-.22-.5-.49-1-.73-1.4s-.52-.83-.77-1.2a20.6,20.6,0,0,0-1.33-1.67c-.35-.38-.56-.59-.56-.59Zm-14.25,9c0-6.54,7.77-10.94,7.77-10.94A1,1,0,0,1,145,139a1.62,1.62,0,0,1-.74-1,1.77,1.77,0,0,1,0-.89,1.52,1.52,0,0,1,.6-.84,2.52,2.52,0,0,1,1-.41,6.23,6.23,0,0,1,1-.11,6.12,6.12,0,0,1,1,.11,2.52,2.52,0,0,1,1,.41,1.54,1.54,0,0,1,.61.84c0,.09,0,.18,0,.26v.2a2.34,2.34,0,0,1-.06.43,1.65,1.65,0,0,1-.74,1,1,1,0,0,1-.43.17,1.41,1.41,0,0,0,.36-.26,1.54,1.54,0,0,0,.47-1,1.93,1.93,0,0,0,0-.34,1.23,1.23,0,0,1,0-.2l-.05-.15a1.16,1.16,0,0,0-.47-.54,2,2,0,0,0-.62-.23,1.92,1.92,0,0,1-.31,2.34l-2,.37,2.16.41c1,1.09,3.41,4.15,3.41,9.71,0,5-1.15,7.68-1.85,8.83l-8.12.6,7.61.55v.23l-7.61.56,8.63.63a2.29,2.29,0,0,1,.32.85l-11,.6,11.58.64a3.87,3.87,0,0,1-.14,3.44l-8.94.7,8.2.64a13,13,0,0,0-.84,5.12,43.69,43.69,0,0,0,1.62,9.47c-.32-.78-.69-1.72-1-2.69a49.48,49.48,0,0,1-1.34-4.77,48.06,48.06,0,0,0-.14,5c0,1.6.18,3.21.29,4.17l-10.13.54,13.66.72a3.85,3.85,0,0,1,.41,1.35l-14.95.72,15.14.73a10.21,10.21,0,0,0,1.31,3.45c.69,1,.46,2.55.23,3.49-2.18.21-4.72.4-7.27.51-3.4.15-6.8.17-9.36.11s-4.26-.15-4.26-.15,1.69.25,4.24.53,5.95.57,9.38.72c2.69.11,5.39.15,7.68.13a5.09,5.09,0,0,1,.16,3.75h.23c.8-.07,1.56-.14,2.26-.23s1.33-.19,1.89-.3a11.84,11.84,0,0,0,1.43-.36,5.11,5.11,0,0,0,.87-.38,1,1,0,0,0,.26-.2,1.2,1.2,0,0,1-.24.23,4.44,4.44,0,0,1-.85.46,16.7,16.7,0,0,1-3.31.89c-.7.12-1.46.22-2.27.32s-1.66.19-2.54.23c-1.77.11-3.65.15-5.54.18s-3.77-.07-5.54-.18c-.88,0-1.73-.15-2.54-.23s-1.57-.2-2.27-.32a16.7,16.7,0,0,1-3.31-.89,4,4,0,0,1-.84-.46.91.91,0,0,1-.22-.2v0h0a2.41,2.41,0,0,1-.6-1.89,1.85,1.85,0,0,1,1.35-1.76c-.77,0-.8-1.76-.8-2.79s.2-1.48,1.66-2.31a13.07,13.07,0,0,0,3.06-3c0-2.76,1.19-2.79,1.19-2.79s4.27-7.76,4.27-11.63a13.06,13.06,0,0,0-1.11-5.88c-3.52,0-5.17-1-5.17-2.87s2.71-2,2.71-2c0-1.78,2.31-2,2.31-2v-1.33S137.61,156.66,137.61,150.13Z"/><path class="cls-2" d="M147.69,146.32c0,.44,0,.91.08,1.37s.06.94.08,1.42.07.94.08,1.41,0,.93.08,1.38.05.88.06,1.29.05.8.07,1.17c.08,1.45.21,2.46.21,2.46a11.48,11.48,0,0,0,.82-2.37c.09-.36.18-.76.25-1.18a13.23,13.23,0,0,0,.17-1.34c0-.46.09-.94.09-1.44s0-1,0-1.48-.09-1-.15-1.49-.16-1-.24-1.42a16.06,16.06,0,0,0-.7-2.45,12.08,12.08,0,0,0-1.08-2.26s0,1,.06,2.47C147.59,144.58,147.63,145.43,147.69,146.32Z"/><path class="cls-2" d="M134.89,191.72l-.67,0,.64.2c.41.11,1,.25,1.7.41s1.53.26,2.43.38,1.85.15,2.81.19,1.92,0,2.82-.08,1.73-.19,2.44-.29,1.3-.26,1.71-.35l.64-.18-.66-.05-1.73-.1c-.71,0-1.54,0-2.43-.08s-1.82,0-2.77-.07-1.88,0-2.77,0-1.72,0-2.43,0Z"/><path class="cls-2" d="M143.12,170.74A11.11,11.11,0,0,1,143,172a16,16,0,0,1-.19,1.8c-.07.66-.18,1.35-.32,2a19.83,19.83,0,0,1-.41,2,17.36,17.36,0,0,1-.44,1.76c-.12.52-.24,1-.34,1.26l-.13.49.34-.38c.19-.26.46-.64.76-1.11a17.38,17.38,0,0,0,.81-1.71,18.56,18.56,0,0,0,.59-2.11,20.91,20.91,0,0,0,.18-2.17,16.55,16.55,0,0,0-.17-1.9c-.11-.54-.23-1-.32-1.3l-.18-.47S143.16,170.42,143.12,170.74Z"/><path class="cls-2" d="M140.57,156.82s-.11-.22-.27-.63a13,13,0,0,1-.56-1.68,13.73,13.73,0,0,1-.41-2.45,11.77,11.77,0,0,1,.12-2.83,11.58,11.58,0,0,1,.75-2.73,13.36,13.36,0,0,1,1.14-2.21,12.46,12.46,0,0,1,1-1.43c.27-.34.44-.52.44-.52l-.53.44a10.22,10.22,0,0,0-1.24,1.31,11.14,11.14,0,0,0-1.34,2.21,11.73,11.73,0,0,0-.86,2.84,11.85,11.85,0,0,0-.05,3,11,11,0,0,0,.61,2.5,9.45,9.45,0,0,0,.78,1.64C140.43,156.62,140.57,156.82,140.57,156.82Z"/><path class="cls-2" d="M225.41,154.43a9.19,9.19,0,0,0,.26,1.42l.16.53s.2-.79.41-1.93c0-.28.12-.59.17-.92s.13-.66.18-1l.21-1.08c0-.37.14-.74.21-1.11s.13-.75.22-1.11.14-.73.21-1.08c.15-.7.28-1.36.4-1.93.24-1.13.35-1.94.35-1.94s-.14.15-.35.43a9.8,9.8,0,0,0-.78,1.22,13.16,13.16,0,0,0-.85,1.87c-.11.35-.26.72-.35,1.1s-.19.77-.28,1.16-.13.79-.17,1.18-.06.78-.09,1.15a9.63,9.63,0,0,0,0,1.08A9.51,9.51,0,0,0,225.41,154.43Z"/><path class="cls-2" d="M212.37,193.58l-.61,0,.59.16,1.59.32c.66.1,1.44.21,2.26.31s1.73.14,2.62.19,1.78,0,2.61,0,1.62-.1,2.28-.16l1.61-.22.6-.12-.61-.07-1.61-.14c-.66,0-1.44-.07-2.26-.13s-1.71-.06-2.59-.11-1.77,0-2.6-.06-1.6,0-2.26,0Z"/><path class="cls-2" d="M221,167c-.16-.45-.27-.7-.27-.7s0,.27.08.74.13,1.15.16,1.95a19.29,19.29,0,0,1,0,2.73,22.79,22.79,0,0,1-.38,3.1c-.15,1-.38,2.1-.62,3.08s-.45,1.9-.65,2.68l-.46,1.92c-.1.47-.15.74-.15.74l.33-.68.79-1.81c.3-.76.63-1.66.95-2.63s.56-2,.77-3.14a22.67,22.67,0,0,0,.26-3.24,20.06,20.06,0,0,0-.28-2.81C221.33,168.13,221.13,167.47,221,167Z"/><path class="cls-2" d="M218.16,150.12c.16.78.29,1.55.4,2.29s.22,1.41.29,2,.14,1.08.18,1.42.06.55.06.55,0-.2,0-.55,0-.85,0-1.45-.06-1.29-.14-2-.21-1.53-.35-2.32-.35-1.56-.54-2.28-.43-1.39-.62-1.95-.41-1-.54-1.34l-.23-.5.14.53c.1.33.21.82.36,1.39s.31,1.25.48,2S218,149.35,218.16,150.12Z"/></svg>