<svg id="Слой_1" data-name="Слой 1" xmlns="http://www.w3.org/2000/svg" viewBox="0 0 335.27 488.05"><defs><style>.cls-1{fill:#fff;}.cls-2{font-size:432.48px;fill:#f3e600;font-family:Impact;}</style></defs><path class="cls-1" d="M144.15,418.14l-.45-.25h0Z"/><path class="cls-1" d="M153.86,424.82c-.71.1-1.49.19-2.35.26s-1.8.11-2.81.13h-1.57c-.54,0-1.09-.08-1.67-.13a7.67,7.67,0,0,0-3.73.71,27.87,27.87,0,0,0-4.19,2.32c-1.46,1-3,2.11-4.51,3.35s-3.05,2.47-4.55,3.76-2.94,2.53-4.29,3.72l-3.6,3.18c-2.08,1.83-3.41,3.05-3.41,3.05s1.08-.22,2.85-.52c.88-.14,1.94-.32,3.12-.56s2.48-.44,3.85-.66,2.81-.4,4.29-.66,3-.43,4.46-.57L138,442c.73-.07,1.46-.12,2.17-.15a26.33,26.33,0,0,1,4.11.14,9,9,0,0,0,6.86-2.5,20.52,20.52,0,0,0,4.68-6.54,42.84,42.84,0,0,0,2.59-6.86l-2.94-1.65C155,424.58,154.44,424.7,153.86,424.82Zm-3.66,9.48a7.44,7.44,0,0,1-.44.72,8.4,8.4,0,0,1-2.17,2.11,13,13,0,0,1-3.94,1.76,29.46,29.46,0,0,1-4.82.69c-1.64,0-3.24,0-4.71.12a28.59,28.59,0,0,0-4,.37,16.37,16.37,0,0,0-2.77.72,10.48,10.48,0,0,0-1,.41,8.52,8.52,0,0,1,.87-.72,10.76,10.76,0,0,1,2.67-1.39,19.11,19.11,0,0,1,4.14-1c1.53-.17,3.16-.24,4.74-.36a28.86,28.86,0,0,0,4.58-.42,16.32,16.32,0,0,0,3.77-1.11,11.34,11.34,0,0,0,2.43-1.46,7.14,7.14,0,0,0,.83-.74Zm.74-4.42a11.59,11.59,0,0,1-1.36,1.5,16,16,0,0,1-2.22,1.82,31.09,31.09,0,0,1-2.86,1.65,32.24,32.24,0,0,1-3.11,1.1,17.54,17.54,0,0,1-2.82.5,13.35,13.35,0,0,1-2,.05l-.77-.06.72-.29c.45-.14,1.09-.43,1.85-.69s1.62-.67,2.56-1,1.9-.79,2.85-1.26a30.26,30.26,0,0,0,2.8-1.35c.86-.49,1.74-.86,2.43-1.29s1.33-.7,1.73-.95l.68-.36Z"/><path class="cls-1" d="M107,402.39a6.06,6.06,0,0,0,.37,3.11,9.61,9.61,0,0,0,1.8,2.79,14.56,14.56,0,0,0,2.76,2.46,32.72,32.72,0,0,0,3.33,2,24,24,0,0,0,3.4,1.46c1.09.4,2.12.73,3,1a20.23,20.23,0,0,0,2.13.53l.82.15a14.35,14.35,0,0,1-1.22-3.18,31.08,31.08,0,0,1-1-6.73l-8.17-4.57a11.49,11.49,0,0,1-.43,1.75,7.43,7.43,0,0,1-.58,1.29l-.29.45s0-.19-.06-.53-.07-.81-.08-1.36-.1-1.18-.1-1.84c0-.21,0-.44-.05-.65l-1.75-1c-.08.63-.19,1.24-.28,1.77a13.79,13.79,0,0,1-.52,1.9l-.26.7-.09-.74c0-.47-.12-1.15-.15-1.94s-.13-1.6-.16-2.51L107,397.37A24.55,24.55,0,0,1,107,402.39Z"/><path class="cls-1" d="M153.62,423.5c-.68-.12-1.68-.31-3-.52l-2.19-.35c-.81-.14-1.67-.32-2.61-.5-1.88-.39-4-.73-6.42-1.33l-3.77-.86-4.1-1.1c-.7-.2-1.44-.35-2.17-.58l-2.24-.68c-1.51-.48-3.1-.9-4.69-1.5a137,137,0,0,1-21-8.82A134,134,0,0,1,79,392.44l-2.8-2.29-2.72-2.43c-1.87-1.6-3.57-3.41-5.38-5.15-.9-.87-1.73-1.83-2.6-2.75S63.77,378,63,377c-1.64-2-3.36-3.91-4.92-6-.48-.6-.93-1.22-1.4-1.83L49.4,365.1v-6.65l-.36-.57c-1.31-2.35-2.74-4.66-3.92-7.11-.61-1.22-1.26-2.42-1.84-3.66l-1.68-3.76c-.59-1.24-1.06-2.53-1.57-3.82s-1-2.56-1.48-3.87c-.86-2.63-1.82-5.24-2.52-7.94a129,129,0,0,1-3.56-16.35c-.33-2.78-.75-5.55-.9-8.34-.09-1.39-.24-2.78-.28-4.18l-.11-4.18c0-.69-.05-1.42,0-2.07l0-2.11c0-1.4,0-2.81.13-4.18s.17-2.75.26-4.13.27-2.74.41-4.11A132.78,132.78,0,0,1,34.88,262a135.75,135.75,0,0,1,4.81-15.23,130.09,130.09,0,0,1,14-26.71l2-2.93,2.12-2.82c.68-.95,1.41-1.85,2.14-2.74s1.43-1.79,2.16-2.65c1.5-1.69,2.93-3.4,4.45-5,.76-.79,1.48-1.6,2.24-2.35l2.27-2.23a134.93,134.93,0,0,1,17.78-14.42,157.35,157.35,0,0,1,15.16-9.15c4.37-2.25,7.88-3.91,10.31-5,1.22-.5,2.15-.92,2.78-1.19l1-.42-1,.29c-.66.2-1.64.48-2.91.88a114.13,114.13,0,0,0-10.78,4.09c-2,.87-4.08,1.89-6.31,3l.06,0a45.21,45.21,0,0,1,5.17-3,13.8,13.8,0,0,0,2.94-2.15,30.67,30.67,0,0,0,2.73-3.07c.89-1.12,1.74-2.34,2.55-3.6s1.63-2.47,2.38-3.71l2.1-3.53c.63-1.08,1.21-2.08,1.7-2.94,1-1.67,1.55-2.76,1.55-2.76l-2.1,1.38-2.33,1.53c-.88.57-1.84,1.25-2.88,1.92s-2.15,1.37-3.26,2.14-2.28,1.5-3.45,2.22S102,163.34,100.8,164c-.58.34-1.16.66-1.73,1s-1.12.61-1.68.89a12,12,0,0,0-2.84,2,11.08,11.08,0,0,0-1.92,2.52A13.56,13.56,0,0,0,91,175.84a20.88,20.88,0,0,0,.14,5c-1.13.67-2.27,1.37-3.44,2.13a123.28,123.28,0,0,0-17.82,14c.45-.47.92-1,1.45-1.42a11.51,11.51,0,0,0,2.17-2.95,23.89,23.89,0,0,0,1.68-3.81c.47-1.4.93-2.83,1.33-4.31s.74-3,1.09-4.45c.69-2.86,1.2-5.65,1.62-7.61s.62-3.25.62-3.25l-1.61,2c-1,1.21-2.38,3-4,4.9-.8,1-1.63,2-2.49,3.07l-1.32,1.57c-.45.53-.89,1.07-1.33,1.6-.9,1.07-1.84,2.08-2.75,3.07a37.84,37.84,0,0,1-2.74,2.77,10.7,10.7,0,0,0-3.25,5.75,15.27,15.27,0,0,0,.17,6,21.44,21.44,0,0,0,1.59,4.62l.12.23-2.08,2.33a126.43,126.43,0,0,0-8.71,11.34q-2.59,3.79-5,7.91c.3-.56.61-1.13,1-1.72a12.08,12.08,0,0,0,1.23-3.46A28.89,28.89,0,0,0,49,217a45.71,45.71,0,0,0-.1-4.65c-.07-1.57-.19-3.15-.34-4.7s-.31-3-.46-4.39-.3-2.59-.42-3.65l-.46-3.44-.26.64-.68,1.78-1.06,2.65c-.42,1-.84,2.12-1.31,3.3l-1.5,3.69c-.51,1.28-1,2.58-1.62,3.86s-1.12,2.57-1.73,3.78-1.24,2.37-1.86,3.45a10.48,10.48,0,0,0-1.28,3.27,10.66,10.66,0,0,0-.1,3.28,14.85,14.85,0,0,0,2.1,5.87,25.16,25.16,0,0,0,3.34,4.38c-1.49,3.13-2.88,6.34-4.15,9.66a141.5,141.5,0,0,0-4.85,15.56c-.16.69-.31,1.38-.46,2.07a33.66,33.66,0,0,1,.8-4.09,10.7,10.7,0,0,0,.12-3.69,21.93,21.93,0,0,0-.91-4.2c-.47-1.48-1-3-1.57-4.5s-1.27-3-1.88-4.51-1.26-2.88-1.86-4.18l-1.62-3.48c-.92-2-1.55-3.26-1.55-3.26s-.08,1-.19,2.63-.24,3.93-.49,6.48c-.1,1.29-.21,2.65-.31,4s-.28,2.81-.42,4.21-.33,2.8-.58,4.15a31.54,31.54,0,0,1-.77,3.87,8.77,8.77,0,0,0-.25,3.54,11.27,11.27,0,0,0,.91,3.21,16.12,16.12,0,0,0,4,5.11,26.93,26.93,0,0,0,4.44,3.13l.48.26c-.29,1.88-.57,3.76-.8,5.66L28.92,282c-.09,1.41-.19,2.83-.28,4.24s-.1,2.82-.14,4.23l0,2.11c0,.75,0,1.43,0,2.15l.1,4.27c0,.91.09,1.81.16,2.72-.09-.55-.19-1.12-.27-1.73-.12-1-.18-2.07-.24-3.22a9.29,9.29,0,0,0-1-3.58,22.15,22.15,0,0,0-2.18-3.78c-.45-.65-.94-1.29-1.45-1.94s-1-1.3-1.53-1.95c-1.06-1.29-2.18-2.58-3.31-3.82-2.17-2.47-4.31-4.76-5.91-6.43s-2.59-2.73-2.59-2.73.24,1,.62,2.6c.2.82.43,1.79.7,2.86s.52,2.29.81,3.55.62,2.61.91,4,.58,2.79.87,4.18.45,2.79.67,4.15a31,31,0,0,1,.37,4,9.35,9.35,0,0,0,2.68,6.3,16.27,16.27,0,0,0,5.54,3.78,29.6,29.6,0,0,0,6.07,1.85c.09.68.17,1.36.25,2a132.16,132.16,0,0,0,3.41,16.77c.68,2.77,1.62,5.45,2.48,8.15.09.3.2.58.31.87-.48-1.09-.95-2.29-1.44-3.61a8.3,8.3,0,0,0-.81-1.6,10.69,10.69,0,0,0-1.17-1.55,21.44,21.44,0,0,0-3.33-3c-1.31-1-2.64-1.94-4.11-2.87s-3-1.85-4.48-2.71l-4.24-2.47-3.62-2-3.48-1.88s.12.22.37.62l1.06,1.71,1.52,2.57c.58,1,1.15,2.06,1.85,3.19s1.39,2.34,2.08,3.58l2.06,3.79c.69,1.27,1.33,2.55,1.89,3.82s1.08,2.51,1.48,3.72a9.26,9.26,0,0,0,4.5,5.29,18,18,0,0,0,6.7,2,30.75,30.75,0,0,0,6,0l.47,0c.35.81.7,1.62,1,2.43.57,1.28,1.21,2.53,1.81,3.79,1.16,2.55,2.57,4.94,3.86,7.38q2.47,4.22,5.12,8.23l0,0a9.62,9.62,0,0,0-2.82-2.45,22.43,22.43,0,0,0-4.17-1.83c-1.52-.56-3.19-1.06-4.92-1.51s-3.55-.83-5.26-1.24c-3.43-.78-6.75-1.44-9.22-1.91l-4-.77.55.49c.36.32.85.79,1.51,1.35,1.31,1.14,3.1,2.72,5,4.54,1,.91,2.06,1.84,3.1,2.83s2.07,2,3.1,3,2,2.05,3,3.11,1.73,2.13,2.49,3.16a9.25,9.25,0,0,0,5.95,3.74,18.76,18.76,0,0,0,7.24-.21,31.47,31.47,0,0,0,6-1.89l.18-.08a132.79,132.79,0,0,0,16.65,16.85,8.92,8.92,0,0,0-2.33-.85,24.67,24.67,0,0,0-4.62-.5,52.72,52.72,0,0,0-5.29.08c-1.83.1-3.74.29-5.54.43-3.64.31-7.14.72-9.73,1s-4.2.49-4.2.49l2.54,1.17c1.62.7,3.83,1.68,6.25,2.86,1.2.6,2.54,1.16,3.83,1.81s2.62,1.32,3.9,2,2.58,1.37,3.77,2.12,2.28,1.56,3.31,2.34a9.21,9.21,0,0,0,6.87,1.83,19.86,19.86,0,0,0,7.1-2.48,34.9,34.9,0,0,0,5.41-3.75l.08-.06,1,.7c1.94,1.28,3.91,2.43,5.81,3.62l5.8,3.16,5.69,2.75,3.21,1.37a8.39,8.39,0,0,0-3.23-.29,26.61,26.61,0,0,0-4.63.94,54.1,54.1,0,0,0-5.16,1.74c-.88.34-1.78.7-2.68,1.07L90,419.76c-1.74.73-3.45,1.47-5,2.16l-4.25,1.9c-2.44,1.07-4,1.8-4,1.8s1.08.12,2.82.36l3.11.37c1.17.15,2.46.32,3.81.53s2.79.39,4.24.62,2.93.48,4.37.79,2.91.57,4.27.95a32.31,32.31,0,0,1,3.86,1.32,9.3,9.3,0,0,0,7.21-.31,20.79,20.79,0,0,0,6.24-4.69,37.72,37.72,0,0,0,4.22-5.4l.26-.39.12,0A104.24,104.24,0,0,0,139,423.26c2.47.31,4.72.42,6.66.49,1,0,1.86.09,2.68.1l2.23,0c1.33,0,2.35-.07,3-.09l.47,0-.32-.18ZM93.33,175.05c0-.17.1-.42.21-.74a10.53,10.53,0,0,1,1.23-2.47,16.24,16.24,0,0,1,2.59-3,36.16,36.16,0,0,1,3.56-2.65l3.8-2.13c1.19-.69,2.35-1.23,3.28-1.81s1.74-1,2.25-1.41.86-.57.86-.57-.21.31-.62.84a15.42,15.42,0,0,1-1.89,2,29.15,29.15,0,0,1-3.07,2.33l-3.65,2.32a33.19,33.19,0,0,0-3.53,2.33,25.24,25.24,0,0,0-2.79,2.37,17.14,17.14,0,0,0-1.71,2,9.61,9.61,0,0,0-.58.83ZM63.65,194.41a10.15,10.15,0,0,1,1.14-3.59,21.55,21.55,0,0,1,2.48-3.44l2.87-2.91a32.24,32.24,0,0,0,2.35-2.55,16.12,16.12,0,0,0,1.4-2,7.13,7.13,0,0,0,.46-.85s0,.36-.12,1a9.7,9.7,0,0,1-.88,2.45,17.39,17.39,0,0,1-2,3.06l-2.7,3.07a19.05,19.05,0,0,0-2.48,3,12.49,12.49,0,0,0-1.5,3,9.22,9.22,0,0,0-.46,2.38,6.63,6.63,0,0,0,0,1,7.74,7.74,0,0,1-.36-.92A6.88,6.88,0,0,1,63.65,194.41ZM45.44,216.89c0-.82,0-1.69,0-2.57s.1-1.74.11-2.57.13-1.59.14-2.26.14-1.23.17-1.63.09-.63.09-.63l.25.59a11.85,11.85,0,0,1,.51,1.58,18.07,18.07,0,0,1,.41,2.3c.07.85.11,1.76.13,2.67s-.16,1.82-.27,2.66a16.26,16.26,0,0,1-.55,2.28,10.7,10.7,0,0,1-.59,1.55l-.28.57s0-.23-.06-.63-.09-1-.08-1.64S45.39,217.71,45.44,216.89ZM40.5,228.76l-.39.52s0-.23.06-.65.09-1,.21-1.65.17-1.46.33-2.27.27-1.7.35-2.58.28-1.75.36-2.58.25-1.61.29-2.28.2-1.25.24-1.65.12-.64.12-.64l.23.61a11,11,0,0,1,.43,1.64,14.94,14.94,0,0,1,.26,2.39c0,.88-.05,1.82-.13,2.75s-.38,1.84-.61,2.69a15.44,15.44,0,0,1-.89,2.23A12.3,12.3,0,0,1,40.5,228.76ZM27.74,260.37a10.23,10.23,0,0,1-.26,1.6l-.17.6s-.06-.22-.18-.59-.28-.91-.41-1.54-.36-1.35-.49-2.14-.33-1.6-.55-2.42-.3-1.65-.49-2.43-.26-1.52-.42-2.15-.18-1.19-.26-1.56-.07-.62-.07-.62.14.18.4.48a13.17,13.17,0,0,1,.89,1.35,15.36,15.36,0,0,1,1,2.06c.27.79.53,1.64.76,2.5s.25,1.76.33,2.58A14,14,0,0,1,27.74,260.37Zm1-6.48-.33-.6c-.17-.39-.49-.93-.74-1.6s-.61-1.46-.86-2.32-.52-1.78-.78-2.7l-.56-2.76c-.18-.88-.22-1.73-.32-2.45s-.06-1.34-.09-1.76,0-.68,0-.68l.33.59c.17.39.49.93.74,1.61s.61,1.45.86,2.31l.79,2.7c.19.94.38,1.88.55,2.76s.22,1.74.32,2.45.06,1.34.09,1.77S28.74,253.89,28.74,253.89Zm-6.58,47.16c-.06.37-.1.59-.1.59l-.25-.54c-.12-.35-.37-.83-.57-1.4s-.52-1.23-.74-1.95-.54-1.45-.86-2.18-.54-1.5-.84-2.19-.5-1.38-.76-1.94-.38-1.08-.52-1.42l-.19-.56.48.36a10,10,0,0,1,1.1,1.09,14.12,14.12,0,0,1,1.3,1.76c.39.7.77,1.46,1.12,2.24s.5,1.64.68,2.42a12.83,12.83,0,0,1,.24,2.17A9.26,9.26,0,0,1,22.16,301.05Zm2-7c-.25-.32-.67-.74-1.07-1.29s-.95-1.14-1.42-1.84-1-1.4-1.59-2.1-1-1.47-1.53-2.14-.92-1.36-1.34-1.9-.68-1.07-.92-1.4l-.33-.57.58.31a12.76,12.76,0,0,1,1.41,1,18.49,18.49,0,0,1,1.8,1.58c.59.65,1.2,1.36,1.79,2.08s1,1.58,1.46,2.33a18,18,0,0,1,1,2.19,12.13,12.13,0,0,1,.49,1.63c.08.41.12.65.12.65Zm-5.31,30.81c-.66-.4-1.18-.81-1.58-1.05l-.6-.42.73.09a13.18,13.18,0,0,1,1.89.46,17.88,17.88,0,0,1,2.54,1c.87.49,1.79,1.06,2.67,1.67s1.62,1.42,2.33,2.13A16.52,16.52,0,0,1,28.55,331a13.48,13.48,0,0,1,.95,1.69l.28.68-.57-.47c-.33-.31-.86-.71-1.43-1.23s-1.3-1.06-2-1.69a27.29,27.29,0,0,0-2.33-1.83c-.79-.64-1.6-1.24-2.4-1.77S19.54,325.28,18.88,324.89Zm10.6,15.8c-.23-.32-.64-.72-1-1.25s-.94-1.08-1.41-1.74-1-1.31-1.6-1.95-1.06-1.36-1.6-2-1-1.24-1.43-1.72-.75-1-1-1.26L21,330.3l.59.23a12,12,0,0,1,1.47.77A14.3,14.3,0,0,1,25,332.69c.63.58,1.27,1.23,1.88,1.91s1.06,1.49,1.51,2.22a15.09,15.09,0,0,1,1,2.12,10.68,10.68,0,0,1,.46,1.59l.11.63Zm.78,21.65H31a14.83,14.83,0,0,1,2,.2,23.31,23.31,0,0,1,2.72.59c1,.31,2,.67,3,1.05s1.94,1,2.84,1.45a23.08,23.08,0,0,1,2.31,1.55,17.3,17.3,0,0,1,1.5,1.29l.53.54-.72-.24c-.43-.19-1.09-.38-1.82-.7s-1.62-.61-2.51-1S39,366.24,38,365.86s-1.91-.87-2.83-1.24-1.74-.8-2.48-1.1-1.33-.64-1.76-.83ZM49.2,377.61a6.53,6.53,0,0,1-2.6.12,9.59,9.59,0,0,1-3.49-1.27,19.37,19.37,0,0,1-3.26-2.63c-1-1-1.82-2.09-2.66-3s-1.57-1.86-2.3-2.53A16.93,16.93,0,0,0,33,366.68a7.52,7.52,0,0,0-.78-.55s.35.06.94.23a10.27,10.27,0,0,1,2.31,1.1,19.26,19.26,0,0,1,2.82,2.25c.93.92,1.86,1.93,2.82,2.85A18.35,18.35,0,0,0,44,375.15a11.82,11.82,0,0,0,2.87,1.59,8.76,8.76,0,0,0,2.32.52,6.13,6.13,0,0,0,.94,0A5.37,5.37,0,0,1,49.2,377.61Zm27.88,26.45a5.72,5.72,0,0,1-.65.54,6.7,6.7,0,0,1-2.83,1.12,10.06,10.06,0,0,1-4.34-.25,22,22,0,0,1-4.48-2c-1.39-.88-2.7-1.79-4-2.55a24.57,24.57,0,0,0-3.52-1.88,13.51,13.51,0,0,0-2.71-.81,9,9,0,0,0-1.1-.15,8.34,8.34,0,0,1,1.11-.2,9.39,9.39,0,0,1,3,.19,16.62,16.62,0,0,1,4,1.48c1.37.73,2.74,1.59,4.12,2.36a20.43,20.43,0,0,0,4,2.05,11.35,11.35,0,0,0,3.78.73,8,8,0,0,0,2.75-.41A4.77,4.77,0,0,0,77,404l.27-.13Zm1.72-3.37a6.21,6.21,0,0,1-1.19.75,8,8,0,0,1-1.9.64,15.48,15.48,0,0,1-2.3.16,15.43,15.43,0,0,1-2.25-.48,8.08,8.08,0,0,1-1.79-.9,6.12,6.12,0,0,1-1.08-.9l-.34-.41.52.1c.31.1.78.15,1.3.28s1.14.17,1.77.3a12.91,12.91,0,0,0,2,.2,13.54,13.54,0,0,0,2,.08c.64-.05,1.27,0,1.8-.06s1,0,1.33-.09l.53,0Zm22,22.73a8.58,8.58,0,0,1,1.15-.14,12.07,12.07,0,0,1,1.6,0l1.79.18,1.76.42a14.22,14.22,0,0,1,1.5.54,10,10,0,0,1,1,.52l.38.24-.44.11a10.62,10.62,0,0,1-1.15.14c-.47,0-1,.07-1.6,0l-1.79-.19-1.76-.42a14.22,14.22,0,0,1-1.5-.54,10,10,0,0,1-1-.52l-.38-.24Zm12.76,2.89c-.15.14-.37.33-.67.57a8.58,8.58,0,0,1-2.86,1.34,12.79,12.79,0,0,1-4.48.36,29.39,29.39,0,0,1-5-1.06c-1.61-.56-3.17-1.16-4.64-1.63a30.76,30.76,0,0,0-4.05-1.12,17.61,17.61,0,0,0-3-.33,10.72,10.72,0,0,0-1.16,0,9.14,9.14,0,0,1,1.12-.37,11.58,11.58,0,0,1,3.12-.33,19.86,19.86,0,0,1,4.38.62c1.55.41,3.16.94,4.75,1.41a27.1,27.1,0,0,0,4.62,1.23,15.32,15.32,0,0,0,4.1.19,11,11,0,0,0,2.87-.64,8,8,0,0,0,.78-.33l.28-.14Z"/><path class="cls-1" d="M78.59,389.26a14.27,14.27,0,0,0,2,3.08,32.16,32.16,0,0,0,2.65,2.83,31.42,31.42,0,0,0,2.86,2.35c.94.69,1.82,1.3,2.59,1.81,1.56.95,2.63,1.48,2.63,1.48A14.68,14.68,0,0,1,91,397.5a29.89,29.89,0,0,1,1.29-8.39l-5.89-3.29c-.06.21-.13.42-.19.61a6.48,6.48,0,0,1-.53,1.11l-.26.41-.08-.47c0-.29-.12-.72-.14-1.19s-.06-.77-.09-1.2l-2.84-1.59c-.25.76-.54,1.39-.71,1.83s-.32.71-.32.71,0-.28,0-.78,0-1.2.07-2l0-.26-2.7-1.51a16.63,16.63,0,0,1-.61,1.68C77.16,385.07,77.56,387.13,78.59,389.26Z"/><path class="cls-1" d="M61.55,374.82c1.25,1.35,2.12,2.17,2.12,2.17a14,14,0,0,1,.5-3.19l.1-.37L57.8,369.8c.58.91,1.2,1.76,1.78,2.55S61,374.13,61.55,374.82Z"/><path class="cls-1" d="M48.11,331.18a8,8,0,0,1-1.58.92,5.64,5.64,0,0,1-1.24.39l-.49.06.32-.37c.22-.21.48-.57.82-.91s.68-.82,1.1-1.24a13.69,13.69,0,0,0,1.15-1.44,12.7,12.7,0,0,0,1.12-1.47l.09-.12v-5.59a7.69,7.69,0,0,1-.39,1.14A20,20,0,0,1,47.74,325,17.81,17.81,0,0,1,46,327a18.84,18.84,0,0,1-1.79,1.43,5.07,5.07,0,0,0-1.07,1.05,2.1,2.1,0,0,0-.29.54,2.32,2.32,0,0,1,0-.65,3.58,3.58,0,0,1,.65-1.62c.43-.58.89-1.2,1.38-1.81a16.55,16.55,0,0,0,1.44-2,17.11,17.11,0,0,0,1.35-2.08c.38-.7.82-1.32,1.1-1.91s.53-1,.71-1.31V314.7l-1.67,2.55c-.59.89-1.23,1.8-1.91,2.67a23.37,23.37,0,0,1-4.32,4.47c-1.51,1.1-2.21,3-2.41,5.36a16.29,16.29,0,0,0,.16,3.66,35.88,35.88,0,0,0,.74,3.8c.36,1.23.77,2.42,1.18,3.52s.79,2.1,1.21,2.92c.8,1.65,1.4,2.68,1.4,2.68a13.62,13.62,0,0,1,1.27-2.86,24.57,24.57,0,0,1,4.35-5.58v-7.95A14.93,14.93,0,0,1,48.11,331.18Z"/><path class="cls-1" d="M46.87,282.27l-2.28,2.09c-.78.7-1.6,1.4-2.44,2.06a21.53,21.53,0,0,1-5.08,3.11,5.12,5.12,0,0,0-2.14,1.67A9.06,9.06,0,0,0,33.47,294a22.93,22.93,0,0,0-.83,3.56q-.15.94-.24,1.92c0,.65,0,1.29-.06,1.94,0,1.28,0,2.54.1,3.71a29.91,29.91,0,0,0,.37,3.14c.29,1.82.54,3,.54,3a13.31,13.31,0,0,1,1.93-2.38,24.44,24.44,0,0,1,6.77-4.84,5.93,5.93,0,0,0,2.19-2.14,12.09,12.09,0,0,0,.91-1.64c.3-.6.52-1.24.82-1.92a39.09,39.09,0,0,0,1.49-4.4c.2-.78.44-1.56.67-2.35s.43-1.58.62-2.36.43-1.67.65-2.48v-7C48.67,280.51,47.84,281.36,46.87,282.27Zm-2.4,10.8a4.19,4.19,0,0,1-.23.94,5.47,5.47,0,0,1-.59,1.19c-.29.38-.63.78-1,1.16s-.83.61-1.24.87a6.36,6.36,0,0,1-1.24.49,4.35,4.35,0,0,1-.95.14h-.38l.22-.31c.16-.16.33-.45.59-.71s.5-.6.82-.88.65-.61,1-.94a12.4,12.4,0,0,0,1-.87c.31-.3.69-.5,1-.75s.58-.38.75-.52l.33-.18Zm3.09-7a4.76,4.76,0,0,1-.09.56,5.34,5.34,0,0,1-.81,1.85,9.27,9.27,0,0,1-2,2.09A29.24,29.24,0,0,1,42,292.34c-.94.47-1.86.94-2.66,1.44a16.2,16.2,0,0,0-2.14,1.42,9.6,9.6,0,0,0-1.32,1.29,5.59,5.59,0,0,0-.46.58,6,6,0,0,1,.15-.74,5.68,5.68,0,0,1,.88-1.82,10.42,10.42,0,0,1,2-2c.83-.61,1.75-1.18,2.66-1.72a28,28,0,0,0,2.63-1.46,15.1,15.1,0,0,0,2.09-1.48,8.31,8.31,0,0,0,1.27-1.33,5.46,5.46,0,0,0,.43-.6Z"/><path class="cls-1" d="M46.78,258.12c-.92.23-1.82.47-2.62.74a20.91,20.91,0,0,0-2.19.78,9.57,9.57,0,0,0-1.46.81,4.9,4.9,0,0,0-.55.38,4.79,4.79,0,0,1,.29-.62,5.47,5.47,0,0,1,1.16-1.42,9.88,9.88,0,0,1,2.17-1.39c.86-.38,1.78-.7,2.68-1a23.81,23.81,0,0,0,2.58-.78l.56-.2v-3c-.45.22-.89.43-1.34.63a19.86,19.86,0,0,1-5.48,1.66,4.83,4.83,0,0,0-2.39,1,10.25,10.25,0,0,0-2.13,2.32,24.65,24.65,0,0,0-1.73,3.2A26.7,26.7,0,0,0,35,264.91a34,34,0,0,0-.92,3.6c-.23,1.15-.41,2.21-.55,3.12s-.18,1.67-.24,2.19-.06.83-.06.83a13.19,13.19,0,0,1,2.35-1.78A23.92,23.92,0,0,1,43,270a5.89,5.89,0,0,0,2.55-1.49,17.62,17.62,0,0,0,2.55-3c.43-.57.85-1.17,1.27-1.8v-6.7A27.47,27.47,0,0,1,46.78,258.12Z"/><path class="cls-1" d="M56.62,228.68l-.15,0a14.34,14.34,0,0,0-2.17.76,8.62,8.62,0,0,0-1.46.84,5,5,0,0,0-.54.4,5.06,5.06,0,0,1,1.43-2.08,8.21,8.21,0,0,1,2.21-1.4,18.45,18.45,0,0,1,2.82-.86l2.57-.33,9.48-5.31c-.56.16-1.13.32-1.74.47a49.93,49.93,0,0,1-5.81,1.32,17.17,17.17,0,0,1-5.46.26,4.57,4.57,0,0,0-2.5.38,11.1,11.1,0,0,0-2.6,1.7c-.44.36-.88.77-1.31,1.2s-.83.91-1.23,1.4a31,31,0,0,0-2.3,3.12c-.69,1.08-1.32,2.18-1.9,3.2s-1,2-1.39,2.85-.68,1.53-.89,2l-.28.78a11.23,11.23,0,0,1,2.66-1.09,21.42,21.42,0,0,1,3.34-.68v-4.94Z"/><path class="cls-1" d="M92.43,197.49c-.92,0-1.9,0-2.89,0s-2,0-2.92-.11a21.94,21.94,0,0,1-2.78-.37,12,12,0,0,1-2.36-.68,4.51,4.51,0,0,0-2.43-.22,10.28,10.28,0,0,0-2.93,1A29.83,29.83,0,0,0,73,198.88c-1,.72-2,1.56-3,2.39a31.89,31.89,0,0,0-2.71,2.55c-.82.85-1.57,1.63-2.16,2.33-1.19,1.41-1.91,2.37-1.91,2.37a12.24,12.24,0,0,1,2.76-.39,20.24,20.24,0,0,1,7.18,1,5.22,5.22,0,0,0,2.75-.1,18.48,18.48,0,0,0,3.64-1.32c1.3-.61,2.75-1.28,4.17-2.08.7-.4,1.45-.77,2.17-1.17s1.46-.8,2.17-1.21l2.13-1.18,2-1.15c1.33-.7,2.53-1.37,3.54-2,.51-.3,1-.53,1.41-.76l1.07-.58.92-.51s-.74.07-1.94.14c-.6,0-1.32.07-2.13.09S93.35,197.47,92.43,197.49Zm-2.14,3.27a5.37,5.37,0,0,1-1.78.54,9.4,9.4,0,0,1-2.62-.09c-.92-.19-1.86-.44-2.77-.65a13.73,13.73,0,0,0-2.61-.63,14.51,14.51,0,0,0-2.32-.24,12,12,0,0,0-1.7.06c-.43,0-.67.07-.67.07a5,5,0,0,1,.55-.4,6.06,6.06,0,0,1,1.69-.74,8.65,8.65,0,0,1,2.6-.32,16.75,16.75,0,0,1,2.94.45c.94.3,1.83.63,2.66.87a16.92,16.92,0,0,0,2.26.59,8.74,8.74,0,0,0,1.68.15,4.07,4.07,0,0,0,.67,0A3.72,3.72,0,0,1,90.29,200.76Z"/><path class="cls-1" d="M111.73,177.5a4.18,4.18,0,0,0-2.22-.78,12.1,12.1,0,0,0-3,.19,19.36,19.36,0,0,0-3.5.93,32.61,32.61,0,0,0-3.6,1.45c-1.16.55-2.28,1.13-3.32,1.69s-1.93,1.16-2.71,1.65-1.42.91-1.85,1.22l-.66.5a10.69,10.69,0,0,1,2.69.29,19.67,19.67,0,0,1,6.39,2.62,5.06,5.06,0,0,0,2.62.58,14.15,14.15,0,0,0,1.78-.11c.63-.08,1.33-.15,2-.27s1.46-.25,2.22-.42l2.34-.5c.8-.18,1.61-.37,2.41-.58s1.63-.38,2.44-.58l2.37-.6c.77-.2,1.55-.35,2.28-.53l2.09-.52c.66-.17,1.29-.29,1.86-.43l3.8-.87-1.89-.34c-1.17-.23-2.77-.54-4.54-1a50,50,0,0,1-5.47-1.48A15.16,15.16,0,0,1,111.73,177.5Zm6.72,5.6c.46.06.74.07.74.07s-.25.12-.7.28a7.65,7.65,0,0,1-2,.36,13.5,13.5,0,0,1-2.82-.2c-1-.2-2-.46-3.07-.71a25.29,25.29,0,0,0-2.91-.78,17,17,0,0,0-2.55-.43,11.34,11.34,0,0,0-1.87,0,6.91,6.91,0,0,0-.73.08,5.87,5.87,0,0,1,.63-.42,6.39,6.39,0,0,1,1.9-.68,10.26,10.26,0,0,1,2.87-.12,27.61,27.61,0,0,1,3.15.59c1,.33,2,.67,3,.93s1.77.57,2.53.71A16.53,16.53,0,0,0,118.45,183.1Z"/><path class="cls-1" d="M191.57,417.89l-.49.27.48-.26Z"/><path class="cls-1" d="M179.47,433a20.71,20.71,0,0,0,4.69,6.54A9,9,0,0,0,191,442a26.2,26.2,0,0,1,4.1-.14c.72,0,1.44.08,2.18.15l2.21.17c1.49.14,3,.34,4.47.57s2.91.44,4.28.66,2.67.45,3.86.66,2.24.42,3.12.56c1.77.3,2.85.52,2.85.52s-1.33-1.22-3.41-3.05l-3.61-3.18c-1.34-1.19-2.79-2.45-4.28-3.72s-3-2.5-4.55-3.76-3.05-2.39-4.51-3.35a28.36,28.36,0,0,0-4.19-2.32,7.67,7.67,0,0,0-3.73-.71c-.58.05-1.14.1-1.68.13h-1.57c-1,0-1.94-.06-2.8-.13s-1.65-.16-2.36-.26-1.09-.24-1.58-.36l-2.93,1.65A42.69,42.69,0,0,0,179.47,433Zm25.95,6.12a11,11,0,0,1,2.67,1.39,8.52,8.52,0,0,1,.87.72,10.48,10.48,0,0,0-1-.41,16.79,16.79,0,0,0-2.78-.72,28.44,28.44,0,0,0-4-.37c-1.47-.09-3.08-.08-4.71-.12a29.3,29.3,0,0,1-4.82-.69,13,13,0,0,1-3.94-1.76A8.63,8.63,0,0,1,185.5,435a5.54,5.54,0,0,1-.43-.72l-.14-.26a7.14,7.14,0,0,0,.83.74,11.34,11.34,0,0,0,2.43,1.46,16.32,16.32,0,0,0,3.77,1.11,28.73,28.73,0,0,0,4.57.42c1.59.12,3.22.19,4.75.36A19.11,19.11,0,0,1,205.42,439.09Zm-20.87-9.48c.41.25,1,.54,1.74.95s1.56.8,2.43,1.29a30.26,30.26,0,0,0,2.8,1.35c.95.47,1.92.9,2.85,1.26s1.79.75,2.56,1,1.39.55,1.85.69l.72.29-.77.06a13.33,13.33,0,0,1-2-.05,17.84,17.84,0,0,1-2.83-.5,32.24,32.24,0,0,1-3.11-1.1c-1-.51-2-1.08-2.86-1.65a16.65,16.65,0,0,1-2.22-1.82,13.3,13.3,0,0,1-1.36-1.5l-.45-.63Z"/><path class="cls-1" d="M210.72,415.85l.81-.15a19.64,19.64,0,0,0,2.13-.53c.88-.26,1.9-.59,3-1a24.51,24.51,0,0,0,3.4-1.46,31.53,31.53,0,0,0,3.32-2,14.63,14.63,0,0,0,2.77-2.46,9.57,9.57,0,0,0,1.79-2.79,6,6,0,0,0,.38-3.11,23.86,23.86,0,0,1-.09-5l-2.35,1.31c0,.91-.15,1.77-.16,2.51s-.14,1.47-.15,1.94l-.09.74-.27-.7a14,14,0,0,1-.51-1.9c-.1-.53-.2-1.14-.28-1.77l-1.75,1c0,.21,0,.44,0,.65,0,.66-.12,1.3-.1,1.84s-.09,1-.09,1.36-.05.53-.05.53-.11-.16-.29-.45a6.75,6.75,0,0,1-.58-1.29,11.49,11.49,0,0,1-.43-1.75l-8.17,4.57a31.08,31.08,0,0,1-1,6.73A14.35,14.35,0,0,1,210.72,415.85Z"/><path class="cls-1" d="M243.93,400.81s1.08-.53,2.64-1.48c.76-.51,1.65-1.12,2.59-1.81a31.42,31.42,0,0,0,2.86-2.35,32.16,32.16,0,0,0,2.65-2.83,14.65,14.65,0,0,0,2-3.08c1-2.13,1.42-4.19.58-6.12a16.63,16.63,0,0,1-.61-1.68L254,383c0,.08,0,.18,0,.26.09.83.05,1.54.08,2s0,.78,0,.78l-.33-.71c-.16-.44-.46-1.07-.7-1.83l-2.84,1.59c0,.43-.09.84-.09,1.2s-.12.9-.14,1.19l-.08.47-.26-.41a6.48,6.48,0,0,1-.53-1.11l-.2-.61L243,389.11a30,30,0,0,1,1.3,8.39A14.23,14.23,0,0,1,243.93,400.81Z"/><path class="cls-1" d="M271.6,377s.87-.82,2.11-2.17c.6-.69,1.27-1.54,2-2.47s1.2-1.64,1.78-2.55L271,373.43a2.54,2.54,0,0,1,.1.37A13.78,13.78,0,0,1,271.6,377Z"/><path class="cls-1" d="M286.58,320c.28.59.72,1.21,1.1,1.91a18.28,18.28,0,0,0,1.34,2.08,19.06,19.06,0,0,0,1.44,2c.5.61,1,1.23,1.39,1.81a3.7,3.7,0,0,1,.65,1.62,2.32,2.32,0,0,1,0,.65,2.1,2.1,0,0,0-.29-.54,5.16,5.16,0,0,0-1.08-1.05A21.76,21.76,0,0,1,289.3,327a11.67,11.67,0,0,1-3-4.46,7.69,7.69,0,0,1-.39-1.14V327l.09.12a12.6,12.6,0,0,0,1.11,1.47,15.2,15.2,0,0,0,1.16,1.44c.41.42.73.9,1.09,1.24s.61.7.83.91l.32.37-.49-.06a5.64,5.64,0,0,1-1.24-.39,7.74,7.74,0,0,1-1.58-.92,14.93,14.93,0,0,1-1.29-1.24v7.95a24.86,24.86,0,0,1,4.35,5.58,13.62,13.62,0,0,1,1.27,2.86s.59-1,1.4-2.68c.42-.82.79-1.84,1.21-2.92s.82-2.29,1.18-3.52a35.88,35.88,0,0,0,.74-3.8,15.7,15.7,0,0,0,.15-3.66c-.2-2.32-.89-4.26-2.4-5.36a23.41,23.41,0,0,1-4.33-4.47c-.67-.87-1.31-1.78-1.91-2.67l-1.66-2.55v3.94C286,319,286.32,319.42,286.58,320Z"/><path class="cls-1" d="M318.87,319.75l-4.24,2.47c-1.5.86-3,1.77-4.47,2.71s-2.8,1.91-4.12,2.87a22.4,22.4,0,0,0-3.33,3,11.36,11.36,0,0,0-1.16,1.55,8.3,8.3,0,0,0-.81,1.6c-.5,1.32-1,2.52-1.44,3.61.1-.29.22-.57.31-.87.86-2.7,1.79-5.38,2.48-8.15a132.16,132.16,0,0,0,3.41-16.77c.08-.67.16-1.35.25-2a29.79,29.79,0,0,0,6.07-1.85,16.14,16.14,0,0,0,5.53-3.78,9.31,9.31,0,0,0,2.69-6.3,31,31,0,0,1,.37-4c.22-1.36.39-2.75.67-4.15s.58-2.8.87-4.18.6-2.71.91-4,.56-2.46.81-3.55l.7-2.86c.38-1.61.62-2.6.62-2.6s-1,1.05-2.59,2.73-3.74,4-5.92,6.43c-1.12,1.24-2.25,2.53-3.31,3.82q-.8,1-1.53,1.95c-.51.65-1,1.29-1.44,1.94a22.92,22.92,0,0,0-2.19,3.78,9.47,9.47,0,0,0-1,3.58c0,1.15-.12,2.23-.23,3.22-.09.61-.18,1.18-.28,1.73.07-.91.14-1.81.17-2.72l.1-4.27c0-.72.05-1.4,0-2.15l0-2.11c0-1.41,0-2.8-.15-4.23l-.27-4.24c-.14-1.41-.28-2.81-.43-4.21-.22-1.9-.5-3.78-.8-5.66l.49-.26a26.49,26.49,0,0,0,4.43-3.13,15.84,15.84,0,0,0,4-5.11,11,11,0,0,0,.92-3.21,8.77,8.77,0,0,0-.25-3.54,33.51,33.51,0,0,1-.78-3.87c-.24-1.35-.43-2.74-.57-4.15s-.28-2.82-.42-4.21-.21-2.74-.31-4c-.25-2.55-.33-4.86-.49-6.48s-.19-2.63-.19-2.63-.63,1.26-1.56,3.26c-.46,1-1,2.19-1.61,3.48s-1.24,2.72-1.87,4.18-1.29,3-1.88,4.51-1.09,3-1.56,4.5a22.78,22.78,0,0,0-.92,4.2,10.69,10.69,0,0,0,.13,3.69,35.7,35.7,0,0,1,.8,4.09c-.16-.69-.3-1.38-.46-2.07a141.5,141.5,0,0,0-4.85-15.56c-1.27-3.32-2.67-6.53-4.16-9.66a24.66,24.66,0,0,0,3.35-4.38,15,15,0,0,0,2.09-5.87,10.35,10.35,0,0,0-.09-3.28,10.73,10.73,0,0,0-1.28-3.27c-.63-1.08-1.26-2.24-1.86-3.45s-1.15-2.51-1.73-3.78-1.11-2.58-1.62-3.86-1-2.51-1.5-3.69-.89-2.31-1.31-3.3L289,198.57l-.68-1.78-.26-.64-.46,3.44c-.12,1.06-.27,2.3-.43,3.65s-.3,2.87-.45,4.39-.27,3.13-.35,4.7-.15,3.16-.1,4.65a28.85,28.85,0,0,0,.42,4.21,11.79,11.79,0,0,0,1.23,3.46c.34.59.65,1.16.94,1.72q-2.39-4.11-5-7.91a128.31,128.31,0,0,0-8.71-11.34l-2.08-2.33.11-.23a21.41,21.41,0,0,0,1.6-4.62,15.27,15.27,0,0,0,.17-6,10.76,10.76,0,0,0-3.25-5.75c-.92-.83-1.84-1.77-2.75-2.77s-1.85-2-2.74-3.07c-.44-.53-.88-1.07-1.33-1.6s-.89-1.05-1.33-1.57l-2.48-3.07c-1.61-1.9-3-3.69-4-4.9l-1.61-2s.22,1.28.62,3.25.93,4.75,1.62,7.61c.35,1.43.68,3,1.09,4.45s.86,2.91,1.33,4.31a23.89,23.89,0,0,0,1.68,3.81A11.51,11.51,0,0,0,264,195.6c.52.47,1,1,1.45,1.42a123.83,123.83,0,0,0-17.82-14c-1.17-.76-2.31-1.46-3.44-2.13a20.88,20.88,0,0,0,.14-5,13.71,13.71,0,0,0-1.68-5.51,11.38,11.38,0,0,0-1.92-2.52,12.05,12.05,0,0,0-2.85-2c-.55-.28-1.11-.58-1.67-.89s-1.15-.62-1.73-1c-1.17-.66-2.32-1.42-3.49-2.14s-2.33-1.47-3.45-2.22-2.23-1.44-3.26-2.14-2-1.35-2.89-1.92l-2.32-1.53-2.1-1.38s.58,1.09,1.55,2.76c.49.86,1.07,1.86,1.7,2.94l2.1,3.53c.74,1.24,1.55,2.47,2.37,3.71s1.67,2.48,2.56,3.6a30.61,30.61,0,0,0,2.72,3.07,14.32,14.32,0,0,0,2.94,2.15,45.43,45.43,0,0,1,5.18,3l.06,0c-2.24-1.16-4.36-2.18-6.31-3A114.11,114.11,0,0,0,221,170.37c-1.26-.4-2.24-.68-2.9-.88l-1-.29,1,.42c.62.27,1.55.69,2.78,1.19,2.42,1.06,5.94,2.72,10.31,5a157.35,157.35,0,0,1,15.16,9.15,134.93,134.93,0,0,1,17.78,14.42l2.27,2.23c.76.75,1.48,1.56,2.24,2.35,1.52,1.56,2.95,3.27,4.44,5,.74.86,1.44,1.76,2.17,2.65s1.45,1.79,2.14,2.74l2.12,2.82,2.05,2.93a130.09,130.09,0,0,1,14,26.71A137.85,137.85,0,0,1,300.39,262a134.74,134.74,0,0,1,2.89,16.1c.14,1.37.27,2.74.41,4.11s.17,2.75.26,4.13.1,2.78.13,4.18l0,2.11c0,.65,0,1.38,0,2.07l-.1,4.18c-.05,1.4-.19,2.79-.29,4.18-.14,2.79-.56,5.56-.9,8.34a127.23,127.23,0,0,1-3.55,16.35c-.7,2.7-1.66,5.31-2.53,7.94-.44,1.31-1,2.58-1.47,3.87s-1,2.58-1.57,3.82L292,347.11c-.58,1.24-1.23,2.44-1.84,3.66-1.18,2.45-2.61,4.76-3.92,7.11l-.36.57v6.65l-7.24,4.06c-.47.61-.93,1.23-1.4,1.83-1.56,2.09-3.28,4-4.93,6-.81,1-1.72,1.89-2.57,2.83s-1.7,1.88-2.6,2.75c-1.81,1.74-3.51,3.55-5.38,5.15-.92.81-1.82,1.63-2.73,2.43l-2.79,2.29a134.41,134.41,0,0,1-22.42,14.82,137,137,0,0,1-21,8.82c-1.59.6-3.18,1-4.69,1.5l-2.24.68c-.73.23-1.47.38-2.18.58l-4.09,1.1-3.78.86c-2.38.6-4.54.94-6.41,1.33-.94.18-1.81.36-2.61.5l-2.2.35c-1.31.21-2.32.4-3,.52l-.15,0-.32.18.48,0c.69,0,1.71.07,3,.09l2.23,0c.81,0,1.71-.06,2.68-.1,1.94-.07,4.18-.18,6.66-.49A104.24,104.24,0,0,0,214,419.81l.12,0c.08.13.16.26.25.39a37.87,37.87,0,0,0,4.23,5.4,20.79,20.79,0,0,0,6.24,4.69,9.27,9.27,0,0,0,7.2.31,33.57,33.57,0,0,1,3.86-1.32c1.37-.38,2.82-.66,4.27-.95s2.92-.57,4.38-.79,2.9-.39,4.24-.62,2.64-.38,3.81-.53l3.11-.37c1.74-.24,2.82-.36,2.82-.36s-1.57-.73-4-1.8l-4.26-1.9c-1.58-.69-3.28-1.43-5-2.16l-2.64-1.07c-.89-.37-1.79-.73-2.68-1.07a53,53,0,0,0-5.15-1.74,26.79,26.79,0,0,0-4.63-.94,8.39,8.39,0,0,0-3.23.29l3.2-1.37,5.7-2.75c1.89-1,3.83-2.09,5.8-3.16s3.87-2.34,5.81-3.62l1-.7.08.06a34.9,34.9,0,0,0,5.41,3.75,19.88,19.88,0,0,0,7.09,2.48,9.22,9.22,0,0,0,6.88-1.83c1-.78,2.11-1.59,3.31-2.34s2.46-1.45,3.77-2.12,2.59-1.39,3.9-2,2.63-1.21,3.83-1.81c2.42-1.18,4.63-2.16,6.24-2.86l2.54-1.17s-1.65-.22-4.19-.49-6.09-.72-9.73-1c-1.8-.14-3.71-.33-5.55-.43a52.63,52.63,0,0,0-5.29-.08,24.56,24.56,0,0,0-4.61.5,8.86,8.86,0,0,0-2.34.85,132.19,132.19,0,0,0,16.66-16.85l.18.08a31.25,31.25,0,0,0,6,1.89,18.76,18.76,0,0,0,7.24.21,9.28,9.28,0,0,0,5.95-3.74c.76-1,1.58-2.1,2.49-3.16s1.92-2.1,3-3.11,2.05-2.07,3.11-3,2.11-1.92,3.1-2.83c1.93-1.82,3.72-3.4,5-4.54.66-.56,1.14-1,1.5-1.35s.55-.49.55-.49l-4,.77c-2.47.47-5.79,1.13-9.23,1.91-1.7.41-3.54.79-5.25,1.24s-3.4.95-4.92,1.51A22.43,22.43,0,0,0,287,365.4a9.49,9.49,0,0,0-2.82,2.45l0,0q2.66-4,5.11-8.23c1.3-2.44,2.71-4.83,3.87-7.38.6-1.26,1.24-2.51,1.8-3.79L296,346l.46,0a30.86,30.86,0,0,0,6,0,17.91,17.91,0,0,0,6.69-2,9.19,9.19,0,0,0,4.5-5.29c.41-1.21,1-2.44,1.49-3.72s1.2-2.55,1.89-3.82l2.06-3.79c.69-1.24,1.39-2.44,2.08-3.58s1.26-2.22,1.85-3.19l1.52-2.57c.45-.72.81-1.31,1.05-1.71s.38-.62.38-.62l-3.48,1.88ZM317.75,290c-.15.34-.28.86-.53,1.42s-.44,1.26-.75,1.94-.59,1.43-.84,2.19-.62,1.47-.86,2.18-.56,1.36-.74,1.95-.45,1.05-.57,1.4l-.25.54s0-.22-.1-.59a9.26,9.26,0,0,1-.09-1.55,12.74,12.74,0,0,1,.23-2.17c.19-.78.42-1.6.68-2.42s.74-1.54,1.13-2.24a14.11,14.11,0,0,1,1.29-1.76,9.92,9.92,0,0,1,1.11-1.09l.47-.36S317.87,289.66,317.75,290Zm-7,3.9a12.13,12.13,0,0,1,.49-1.63,18,18,0,0,1,1-2.19c.44-.75.93-1.55,1.45-2.33s1.21-1.43,1.8-2.08a18.46,18.46,0,0,1,1.79-1.58,13.73,13.73,0,0,1,1.42-1l.57-.31-.33.57c-.23.33-.51.85-.92,1.4s-.81,1.24-1.33,1.9-1,1.4-1.54,2.14-1.1,1.41-1.58,2.1-1,1.28-1.42,1.84-.82,1-1.07,1.29l-.44.49S310.69,294.33,310.77,293.92Zm-.34-44.32.4-.48s0,.22-.07.62-.12.93-.26,1.56-.23,1.39-.43,2.15-.35,1.6-.49,2.43-.39,1.65-.54,2.42-.38,1.51-.5,2.14-.32,1.16-.4,1.54l-.19.59-.16-.6a11.36,11.36,0,0,1-.27-1.6,15.32,15.32,0,0,1,0-2.28c.07-.82.19-1.71.33-2.58s.49-1.71.76-2.5a15.36,15.36,0,0,1,1-2.06A10.5,10.5,0,0,1,310.43,249.6Zm-3.83,1.84c.1-.71.14-1.57.32-2.45l.56-2.76.79-2.7c.25-.86.61-1.63.86-2.31s.56-1.22.74-1.61.32-.59.32-.59,0,.24,0,.68,0,1-.09,1.76-.14,1.57-.32,2.45l-.56,2.76c-.27.92-.53,1.84-.79,2.7s-.61,1.64-.85,2.32-.57,1.21-.74,1.6l-.33.6s0-.25,0-.68S306.51,252.16,306.6,251.44Zm-65.19-77a16.89,16.89,0,0,0-1.7-2,25.41,25.41,0,0,0-2.8-2.37,33,33,0,0,0-3.52-2.33l-3.66-2.32a30,30,0,0,1-3.06-2.33,16.38,16.38,0,0,1-1.9-2c-.4-.53-.61-.84-.61-.84s.3.22.85.57,1.33.84,2.26,1.41,2.09,1.12,3.28,1.81l3.79,2.13a35.15,35.15,0,0,1,3.57,2.65,16.24,16.24,0,0,1,2.59,3,10.53,10.53,0,0,1,1.23,2.47,6.72,6.72,0,0,1,.2.74c0,.17.07.26.07.26S241.8,175,241.41,174.48Zm30,22.56a7,7,0,0,1-.35.92,6,6,0,0,0,0-1,8.73,8.73,0,0,0-.45-2.38,12.49,12.49,0,0,0-1.5-3,19.62,19.62,0,0,0-2.48-3l-2.7-3.07a16.85,16.85,0,0,1-2-3.06A9.7,9.7,0,0,1,261,180a9.15,9.15,0,0,1-.13-1,9.66,9.66,0,0,0,.46.85,16.37,16.37,0,0,0,1.41,2,34,34,0,0,0,2.34,2.55l2.88,2.91a22.19,22.19,0,0,1,2.48,3.44,10.15,10.15,0,0,1,1.14,3.59A6.66,6.66,0,0,1,271.43,197Zm18.39,22.12c0,.67-.08,1.24-.08,1.64s-.06.63-.06.63l-.29-.57a13.72,13.72,0,0,1-.59-1.55,17.88,17.88,0,0,1-.54-2.28c-.11-.84-.21-1.75-.27-2.66s.06-1.82.12-2.67a18,18,0,0,1,.42-2.3,13.79,13.79,0,0,1,.5-1.58l.25-.59s0,.23.1.63.14,1,.17,1.63.13,1.44.14,2.26.05,1.7.11,2.57,0,1.75,0,2.57S289.79,218.5,289.82,219.16Zm3.2,5.9c-.23-.85-.44-1.76-.61-2.69s-.13-1.87-.14-2.75a16.11,16.11,0,0,1,.27-2.39,11,11,0,0,1,.43-1.64l.23-.61s0,.23.12.64.17,1,.23,1.65.23,1.45.3,2.28.2,1.71.35,2.58.21,1.76.35,2.58.2,1.61.34,2.27.14,1.26.21,1.65.06.65.06.65l-.39-.52a11.08,11.08,0,0,1-.86-1.47A15.44,15.44,0,0,1,293,225.06Zm-49.71,198.7a11.58,11.58,0,0,1,3.12.33,9.28,9.28,0,0,1,1.11.37,10.58,10.58,0,0,0-1.16,0,17.51,17.51,0,0,0-3,.33,30.34,30.34,0,0,0-4,1.12c-1.47.47-3,1.07-4.64,1.63a29.39,29.39,0,0,1-5,1.06,12.87,12.87,0,0,1-4.49-.36,8.42,8.42,0,0,1-2.85-1.34c-.3-.24-.53-.43-.67-.57l-.22-.21.27.14c.18.09.45.2.79.33a10.89,10.89,0,0,0,2.87.64,15.34,15.34,0,0,0,4.1-.19,27.6,27.6,0,0,0,4.62-1.23c1.59-.47,3.2-1,4.75-1.41A19.78,19.78,0,0,1,243.31,423.76Zm-15.1.11,1.75-.42,1.8-.18a11.9,11.9,0,0,1,1.59,0,8.17,8.17,0,0,1,1.15.14l.45.1-.39.24a9,9,0,0,1-1,.52,14.22,14.22,0,0,1-1.5.54l-1.75.42-1.79.19c-.58.06-1.13,0-1.6,0a10.62,10.62,0,0,1-1.15-.14l-.44-.11.38-.24a9,9,0,0,1,1-.52A14.22,14.22,0,0,1,228.21,423.87Zm41.35-21.95c1.38-.77,2.75-1.63,4.11-2.36a16.93,16.93,0,0,1,4-1.48,9.47,9.47,0,0,1,3-.19,8.34,8.34,0,0,1,1.11.2,9,9,0,0,0-1.1.15,13.57,13.57,0,0,0-2.72.81,24.5,24.5,0,0,0-3.51,1.88c-1.26.76-2.58,1.67-4,2.55a21.88,21.88,0,0,1-4.49,2,10,10,0,0,1-4.34.25,6.81,6.81,0,0,1-2.83-1.12,5.43,5.43,0,0,1-.64-.54l-.21-.2.26.13a5.75,5.75,0,0,0,.75.3,8.07,8.07,0,0,0,2.76.41,11.4,11.4,0,0,0,3.78-.73A20.43,20.43,0,0,0,269.56,401.92Zm-7.83-1.49a13,13,0,0,0,2-.2c.62-.13,1.26-.16,1.77-.3s1-.18,1.3-.28l.52-.1L267,400a5.65,5.65,0,0,1-1.07.9,8.3,8.3,0,0,1-1.79.9,8.28,8.28,0,0,1-4.55.32,8,8,0,0,1-1.9-.64,6.21,6.21,0,0,1-1.19-.75l-.4-.36.53,0c.32.05.8,0,1.33.09s1.16,0,1.79.06A13.68,13.68,0,0,0,261.73,400.43Zm28.17-31.95a15.89,15.89,0,0,1,1.5-1.29,23.08,23.08,0,0,1,2.31-1.55c.89-.49,1.86-1,2.84-1.45s2-.74,3-1.05a24.22,24.22,0,0,1,2.72-.59,15,15,0,0,1,2-.2H305l-.67.35c-.44.19-1,.53-1.77.83s-1.56.75-2.48,1.1-1.88.79-2.83,1.24-1.94.78-2.84,1.19-1.79.7-2.51,1-1.39.51-1.83.7l-.71.24Zm-3.8,8.78a8.76,8.76,0,0,0,2.32-.52,12.2,12.2,0,0,0,2.87-1.59,18.35,18.35,0,0,0,2.83-2.59c1-.92,1.89-1.93,2.81-2.85a19.81,19.81,0,0,1,2.82-2.25,10.3,10.3,0,0,1,2.32-1.1c.59-.17.93-.23.93-.23a8.31,8.31,0,0,0-.77.55,16.93,16.93,0,0,0-1.85,1.59c-.74.67-1.46,1.59-2.3,2.53s-1.71,2-2.66,3a19.78,19.78,0,0,1-3.26,2.63,9.63,9.63,0,0,1-3.5,1.27,6.55,6.55,0,0,1-2.6-.12,5.37,5.37,0,0,1-.91-.33A6.28,6.28,0,0,0,286.1,377.26Zm27.77-46.45c-.26.29-.58.77-1,1.26s-.89,1.12-1.43,1.72-1.09,1.27-1.6,2-1.12,1.31-1.61,1.95-1,1.21-1.4,1.74-.8.93-1,1.25l-.42.47.11-.63a10.68,10.68,0,0,1,.46-1.59,14,14,0,0,1,1-2.12c.45-.73,1-1.49,1.5-2.22s1.26-1.33,1.88-1.91a14.34,14.34,0,0,1,1.89-1.39,10.73,10.73,0,0,1,1.47-.77l.59-.23Zm4.09-7c-.39.24-.92.65-1.57,1.05s-1.37,1-2.17,1.48-1.61,1.13-2.39,1.77a29.14,29.14,0,0,0-2.34,1.83c-.7.63-1.45,1.15-2,1.69s-1.11.92-1.44,1.23l-.57.47.29-.68a12.3,12.3,0,0,1,1-1.69,16.52,16.52,0,0,1,1.69-2.17c.7-.71,1.5-1.44,2.32-2.13s1.8-1.18,2.68-1.67a17.88,17.88,0,0,1,2.54-1,12.87,12.87,0,0,1,1.89-.46l.73-.09Z"/><path class="cls-1" d="M286.51,289.25c.2.78.41,1.57.63,2.36s.47,1.57.67,2.35a37.19,37.19,0,0,0,1.49,4.4c.29.68.52,1.32.81,1.92a14.73,14.73,0,0,0,.91,1.64,6.09,6.09,0,0,0,2.19,2.14A24.36,24.36,0,0,1,300,308.9a13.47,13.47,0,0,1,1.92,2.38s.26-1.17.54-3a27.46,27.46,0,0,0,.37-3.14c.07-1.17.11-2.43.11-3.71,0-.65,0-1.29-.06-1.94s-.15-1.29-.25-1.92a21.85,21.85,0,0,0-.82-3.56,9.28,9.28,0,0,0-1.46-2.82,5.15,5.15,0,0,0-2.15-1.67,21.69,21.69,0,0,1-5.07-3.11c-.85-.66-1.67-1.36-2.45-2.06l-2.27-2.09c-1-.91-1.8-1.76-2.53-2.5v7C286.09,287.58,286.31,288.4,286.51,289.25Zm9.51,8.61a4.35,4.35,0,0,1-.94-.14,6.12,6.12,0,0,1-1.24-.49c-.41-.26-.83-.56-1.25-.87s-.68-.78-1-1.16A6,6,0,0,1,291,294a4.83,4.83,0,0,1-.23-.94l0-.37.32.18c.18.14.49.29.76.52s.65.45.95.75a12.58,12.58,0,0,0,1,.87c.31.33.63.65.95.94s.57.64.83.88.43.55.59.71l.21.31Zm-7.91-11.38a8.79,8.79,0,0,0,1.27,1.33,16.42,16.42,0,0,0,2.09,1.48c.8.51,1.7,1,2.63,1.46s1.84,1.11,2.67,1.72a10.08,10.08,0,0,1,2,2,5.75,5.75,0,0,1,.89,1.82,4.76,4.76,0,0,1,.14.74,6.23,6.23,0,0,0-.45-.58A9.21,9.21,0,0,0,298,295.2a15.42,15.42,0,0,0-2.13-1.42c-.81-.5-1.72-1-2.66-1.44a27.91,27.91,0,0,1-2.66-1.77,9.27,9.27,0,0,1-2-2.09,5.6,5.6,0,0,1-.82-1.85c-.05-.24-.06-.43-.08-.56l0-.19A5.46,5.46,0,0,0,288.11,286.48Z"/><path class="cls-1" d="M286.42,255.6a24,24,0,0,0,2.59.78c.9.32,1.82.64,2.67,1a9.43,9.43,0,0,1,2.17,1.39,5.34,5.34,0,0,1,1.17,1.42c.2.39.29.62.29.62a4.9,4.9,0,0,0-.55-.38,9.27,9.27,0,0,0-1.47-.81,19.89,19.89,0,0,0-2.18-.78c-.81-.27-1.71-.51-2.63-.74s-1.78-.65-2.61-1v6.7q.63.95,1.26,1.8a17.2,17.2,0,0,0,2.56,3,5.89,5.89,0,0,0,2.55,1.49,24,24,0,0,1,7.46,2.83,12.81,12.81,0,0,1,2.34,1.78s0-.3-.06-.83-.08-1.28-.23-2.19-.33-2-.55-3.12a31.88,31.88,0,0,0-.93-3.6,26.66,26.66,0,0,0-1.33-3.63,23.52,23.52,0,0,0-1.74-3.2,10.25,10.25,0,0,0-2.13-2.32,4.75,4.75,0,0,0-2.39-1,19.91,19.91,0,0,1-5.47-1.66c-.45-.2-.9-.41-1.34-.63v3Z"/><path class="cls-1" d="M276.51,226.38a18.33,18.33,0,0,1,2.81.86,8.28,8.28,0,0,1,2.22,1.4,5.25,5.25,0,0,1,1.15,1.45,4,4,0,0,1,.27.63,4,4,0,0,0-.54-.4,8.1,8.1,0,0,0-1.45-.84,14.1,14.1,0,0,0-2.18-.76l-.14,0,7.22,4v4.94a21.67,21.67,0,0,1,3.34.68,11.49,11.49,0,0,1,2.66,1.09s-.11-.28-.29-.78-.5-1.18-.89-2-.83-1.82-1.39-2.85-1.21-2.12-1.9-3.2a30.88,30.88,0,0,0-2.29-3.12c-.41-.49-.82-1-1.23-1.4s-.87-.84-1.31-1.2a11.31,11.31,0,0,0-2.6-1.7,4.57,4.57,0,0,0-2.5-.38,17.15,17.15,0,0,1-5.46-.26,49.93,49.93,0,0,1-5.81-1.32c-.61-.15-1.19-.31-1.74-.47l9.48,5.31Z"/><path class="cls-1" d="M240.25,197.39c-.8,0-1.52-.06-2.12-.09-1.21-.07-1.94-.14-1.94-.14l.92.51,1.07.58c.41.23.9.46,1.4.76,1,.58,2.22,1.25,3.54,2l2,1.15,2.14,1.18c.71.41,1.43.82,2.16,1.21s1.48.77,2.18,1.17c1.41.8,2.86,1.47,4.16,2.08a18.78,18.78,0,0,0,3.65,1.32,5.19,5.19,0,0,0,2.74.1,20.29,20.29,0,0,1,7.19-1,12.24,12.24,0,0,1,2.76.39s-.73-1-1.91-2.37c-.59-.7-1.35-1.48-2.16-2.33a35.22,35.22,0,0,0-2.71-2.55,38.59,38.59,0,0,0-3.05-2.39,29.73,29.73,0,0,0-3.13-1.83,10.34,10.34,0,0,0-2.94-1,4.46,4.46,0,0,0-2.42.22,12.18,12.18,0,0,1-2.36.68,21.94,21.94,0,0,1-2.78.37c-1,.08-2,.11-2.92.11s-2,0-2.89,0S241,197.43,240.25,197.39Zm4.82,3a8.71,8.71,0,0,0,1.67-.15,16.17,16.17,0,0,0,2.26-.59c.84-.24,1.73-.57,2.67-.87a16.75,16.75,0,0,1,2.94-.45,8.65,8.65,0,0,1,2.6.32,5.85,5.85,0,0,1,1.68.74,6.15,6.15,0,0,1,.56.4s-.25,0-.67-.07a12.13,12.13,0,0,0-1.71-.06,14.63,14.63,0,0,0-2.32.24,13.82,13.82,0,0,0-2.6.63c-.91.21-1.85.46-2.78.65a9.33,9.33,0,0,1-2.61.09,5.37,5.37,0,0,1-1.78-.54,4.28,4.28,0,0,1-.59-.37A4.15,4.15,0,0,0,245.07,200.42Z"/><path class="cls-1" d="M212.77,183.73l2.09.52c.73.18,1.5.33,2.28.53l2.37.6c.8.2,1.63.36,2.43.58s1.62.4,2.42.58l2.34.5q1.14.26,2.22.42c.71.12,1.41.19,2,.27a14.15,14.15,0,0,0,1.78.11,5.09,5.09,0,0,0,2.62-.58,19.67,19.67,0,0,1,6.39-2.62,10.69,10.69,0,0,1,2.69-.29l-.67-.5c-.43-.31-1.07-.72-1.84-1.22s-1.69-1.07-2.71-1.65-2.16-1.14-3.33-1.69a32.46,32.46,0,0,0-3.59-1.45,19.8,19.8,0,0,0-3.5-.93,12.13,12.13,0,0,0-3-.19,4.18,4.18,0,0,0-2.22.78,15.4,15.4,0,0,1-4.53,2.16,50,50,0,0,1-5.47,1.48c-1.77.41-3.38.72-4.54,1l-1.9.34,3.8.87C211.48,183.44,212.11,183.56,212.77,183.73Zm4-.63a16.53,16.53,0,0,0,1.86-.31c.75-.14,1.6-.46,2.53-.71s1.93-.6,2.94-.93a27.77,27.77,0,0,1,3.16-.59,10.17,10.17,0,0,1,2.86.12,6.36,6.36,0,0,1,1.91.68,5.87,5.87,0,0,1,.63.42,6.93,6.93,0,0,0-.74-.08,11.2,11.2,0,0,0-1.86,0,17.3,17.3,0,0,0-2.56.43,25.29,25.29,0,0,0-2.91.78c-1,.25-2.06.51-3.06.71a13.54,13.54,0,0,1-2.82.2,7.56,7.56,0,0,1-2-.36,6.52,6.52,0,0,1-.7-.28S216.35,183.16,216.82,183.1Z"/><path class="cls-1" d="M191.08,418.16l.49-.27,21.34-11.95,8.17-4.57,1.59-.89,1.75-1,1.46-.82,2.35-1.31L243,389.11l5.89-3.29,1.3-.73L253,383.5,254,383l2.7-1.51,14.34-8,6.48-3.63,1.16-.64,7.24-4.06V232.73l-7.22-4-4.71-2.63-9.48-5.31-63.11-35.33-.53,1.52c-.62,1.74-1.31,3.74-2,6l79.3,44.38V360.54L167.63,422.38,57.17,360.54V237.28l79.29-44.38c-.7-2.23-1.4-4.23-2-6-.19-.52-.36-1-.53-1.52L70.81,220.74l-9.48,5.31-4.71,2.63-7.22,4V365.1l7.24,4.06,1.16.64,6.47,3.63,14.35,8,2.7,1.51,1,.53,2.84,1.59,1.29.73,5.89,3.29L107,397.37l2.35,1.31,1.46.82,1.75,1,1.59.89,8.17,4.57,21.34,11.95.45.25,9.61,5.38.32.18,1.36.76,2.94,1.65,9.25,5.18,9.26-5.18,2.93-1.65,1.36-.76.32-.18Z"/><path class="cls-1" d="M196.2,202.91,267.78,243v94.75l-34.95,11.83-.06,24.89-65.14,36.46-65.14-36.46,0-24.89-35-11.83V243l71.59-40.07c-.34-1.7-.72-3.31-1.12-4.84L62.72,240.19V357.64l104.91,58.73,104.92-58.73V240.19l-75.24-42.12C196.92,199.6,196.54,201.21,196.2,202.91Z"/><polygon class="cls-1" points="169.24 398.85 167.63 395.6 166.03 398.85 162.44 399.37 165.04 401.9 164.42 405.48 167.63 403.79 170.84 405.48 170.23 401.9 172.83 399.37 169.24 398.85"/><text class="cls-2" transform="translate(53.49 366.13)">3</text></svg>