<svg id="Слой_1" data-name="Слой 1" xmlns="http://www.w3.org/2000/svg" viewBox="0 0 335.27 488.05"><defs><style>.cls-1{fill:#fff;}.cls-2{font-size:432.48px;fill:#f3e600;font-family:Impact;}</style></defs><path class="cls-1" d="M144.15,432l-.45-.25h0C143.85,431.81,144,431.88,144.15,432Z"/><path class="cls-1" d="M153.86,438.64c-.71.11-1.49.2-2.35.27s-1.8.11-2.81.12c-.5,0-1,0-1.57,0s-1.09-.08-1.67-.14a7.79,7.79,0,0,0-3.73.71,29.76,29.76,0,0,0-4.19,2.32c-1.46,1-3,2.12-4.51,3.36s-3.05,2.47-4.55,3.75-2.94,2.54-4.29,3.73-2.56,2.25-3.6,3.18c-2.08,1.82-3.41,3.05-3.41,3.05s1.08-.22,2.85-.52c.88-.14,1.94-.33,3.12-.56s2.48-.45,3.85-.67,2.81-.4,4.29-.65,3-.43,4.46-.57l2.22-.18c.73-.07,1.46-.12,2.17-.14a26.36,26.36,0,0,1,4.11.13,8.91,8.91,0,0,0,6.86-2.5,20.41,20.41,0,0,0,4.68-6.54,42.49,42.49,0,0,0,2.59-6.86l-2.94-1.64C155,438.41,154.44,438.53,153.86,438.64Zm-3.66,9.49c-.09.17-.24.41-.44.72a8.39,8.39,0,0,1-2.17,2.1,12.78,12.78,0,0,1-3.94,1.76,29.46,29.46,0,0,1-4.82.69c-1.64.05-3.24,0-4.71.12a30.06,30.06,0,0,0-4,.38,16.51,16.51,0,0,0-2.77.71,10.48,10.48,0,0,0-1,.41,10.59,10.59,0,0,1,.87-.72,11.14,11.14,0,0,1,2.67-1.38,18.53,18.53,0,0,1,4.14-1c1.53-.16,3.16-.24,4.74-.36a27.73,27.73,0,0,0,4.58-.42,15.4,15.4,0,0,0,3.77-1.11,11.37,11.37,0,0,0,2.43-1.45,8.51,8.51,0,0,0,.83-.74Zm.74-4.43a12.25,12.25,0,0,1-1.36,1.51,17.61,17.61,0,0,1-2.22,1.82c-.88.57-1.85,1.13-2.86,1.65a32.12,32.12,0,0,1-3.11,1.09,17.54,17.54,0,0,1-2.82.5,13.59,13.59,0,0,1-2,.06l-.77-.07.72-.28c.45-.15,1.09-.43,1.85-.7s1.62-.66,2.56-1,1.9-.78,2.85-1.25,1.93-.88,2.8-1.35,1.74-.86,2.43-1.29,1.33-.7,1.73-1l.68-.35Z"/><path class="cls-1" d="M107,416.22a6,6,0,0,0,.37,3.1,9.65,9.65,0,0,0,1.8,2.8,14.87,14.87,0,0,0,2.76,2.45,32.72,32.72,0,0,0,3.33,2,24.09,24.09,0,0,0,3.4,1.47c1.09.4,2.12.73,3,1a20.23,20.23,0,0,0,2.13.53l.82.15a14.62,14.62,0,0,1-1.22-3.19,31,31,0,0,1-1-6.72l-8.17-4.58a11.64,11.64,0,0,1-.43,1.76,7.64,7.64,0,0,1-.58,1.28c-.19.29-.29.46-.29.46s0-.2-.06-.54-.07-.81-.08-1.35-.1-1.18-.1-1.85c0-.21,0-.43-.05-.65l-1.75-1c-.08.63-.19,1.24-.28,1.76a13.79,13.79,0,0,1-.52,1.9c-.17.45-.26.71-.26.71l-.09-.75c0-.47-.12-1.14-.15-1.93s-.13-1.6-.16-2.51L107,411.19A24.65,24.65,0,0,1,107,416.22Z"/><path class="cls-1" d="M153.62,437.32c-.68-.12-1.68-.31-3-.51l-2.19-.35c-.81-.14-1.67-.33-2.61-.51-1.88-.39-4-.72-6.42-1.33l-3.77-.85-4.1-1.1c-.7-.21-1.44-.36-2.17-.58l-2.24-.69c-1.51-.48-3.1-.9-4.69-1.5a136.91,136.91,0,0,1-21-8.81A134.62,134.62,0,0,1,79,406.27L76.24,404l-2.72-2.44c-1.87-1.59-3.57-3.4-5.38-5.14-.9-.88-1.73-1.83-2.6-2.75s-1.77-1.84-2.58-2.84c-1.64-2-3.36-3.9-4.92-6-.48-.59-.93-1.22-1.4-1.83l-7.24-4.06v-6.65L49,371.7c-1.31-2.35-2.74-4.65-3.92-7.11-.61-1.21-1.26-2.42-1.84-3.66l-1.68-3.75c-.59-1.24-1.06-2.54-1.57-3.82s-1-2.56-1.48-3.87c-.86-2.63-1.82-5.24-2.52-7.94a129.51,129.51,0,0,1-3.56-16.36c-.33-2.77-.75-5.54-.9-8.33-.09-1.4-.24-2.79-.28-4.18l-.11-4.19c0-.68-.05-1.41,0-2.06l0-2.11c0-1.4,0-2.82.13-4.18s.17-2.76.26-4.13.27-2.75.41-4.12a133.48,133.48,0,0,1,2.89-16.1,136.24,136.24,0,0,1,4.81-15.22,129.83,129.83,0,0,1,14-26.71c.68-1,1.37-2,2-2.94l2.12-2.82c.68-.94,1.41-1.84,2.14-2.73s1.43-1.79,2.16-2.65c1.5-1.7,2.93-3.4,4.45-5,.76-.79,1.48-1.59,2.24-2.34s1.52-1.5,2.27-2.23a134.25,134.25,0,0,1,17.78-14.43,155,155,0,0,1,15.16-9.14c4.37-2.26,7.88-3.92,10.31-5,1.22-.51,2.15-.92,2.78-1.2l1-.41-1,.29c-.66.19-1.64.48-2.91.88-2.53.81-6.21,2.1-10.78,4.08-2,.87-4.08,1.89-6.31,3.06l.06-.05a46.73,46.73,0,0,1,5.17-3,13.74,13.74,0,0,0,2.94-2.14A31.82,31.82,0,0,0,108,183c.89-1.12,1.74-2.34,2.55-3.6s1.63-2.48,2.38-3.72l2.1-3.52,1.7-2.94c1-1.68,1.55-2.77,1.55-2.77l-2.1,1.39-2.33,1.53c-.88.56-1.84,1.24-2.88,1.92s-2.15,1.36-3.26,2.13-2.28,1.51-3.45,2.23-2.33,1.48-3.49,2.14c-.58.34-1.16.65-1.73.95s-1.12.62-1.68.89a12,12,0,0,0-2.84,2,11.08,11.08,0,0,0-1.92,2.52A13.51,13.51,0,0,0,91,189.67a20.82,20.82,0,0,0,.14,5c-1.13.68-2.27,1.38-3.44,2.13a124,124,0,0,0-17.82,14c.45-.47.92-.94,1.45-1.42a11.17,11.17,0,0,0,2.17-2.95,24.17,24.17,0,0,0,1.68-3.8c.47-1.41.93-2.84,1.33-4.32s.74-3,1.09-4.44c.69-2.87,1.2-5.65,1.62-7.61s.62-3.25.62-3.25-.62.75-1.61,2-2.38,3-4,4.9L71.7,193l-1.32,1.57-1.33,1.61c-.9,1.06-1.84,2.08-2.75,3.07A37.64,37.64,0,0,1,63.56,202a10.76,10.76,0,0,0-3.25,5.76,15.22,15.22,0,0,0,.17,6,21.06,21.06,0,0,0,1.59,4.62,2.42,2.42,0,0,0,.12.23L60.11,221a126.26,126.26,0,0,0-8.71,11.33c-1.73,2.53-3.39,5.18-5,7.91.3-.55.61-1.12,1-1.71A12.3,12.3,0,0,0,48.59,235,29,29,0,0,0,49,230.8a45.71,45.71,0,0,0-.1-4.65c-.07-1.57-.19-3.15-.34-4.69s-.31-3-.46-4.39-.3-2.6-.42-3.66c-.28-2.08-.46-3.44-.46-3.44l-.26.64-.68,1.79-1.06,2.65c-.42,1-.84,2.12-1.31,3.3L42.41,222c-.51,1.29-1,2.59-1.62,3.86s-1.12,2.58-1.73,3.78-1.24,2.37-1.86,3.46a10.29,10.29,0,0,0-1.28,3.27,10.65,10.65,0,0,0-.1,3.28,14.75,14.75,0,0,0,2.1,5.86,25.29,25.29,0,0,0,3.34,4.39q-2.23,4.68-4.15,9.65a142.35,142.35,0,0,0-4.85,15.57c-.16.68-.31,1.38-.46,2.07a33.29,33.29,0,0,1,.8-4.09,10.72,10.72,0,0,0,.12-3.69,22,22,0,0,0-.91-4.21c-.47-1.47-1-3-1.57-4.49s-1.27-3.06-1.88-4.51-1.26-2.88-1.86-4.18l-1.62-3.48c-.92-2-1.55-3.27-1.55-3.27s-.08,1-.19,2.64-.24,3.93-.49,6.47c-.1,1.3-.21,2.65-.31,4l-.42,4.21c-.15,1.41-.33,2.81-.58,4.15a31.71,31.71,0,0,1-.77,3.88,8.73,8.73,0,0,0-.25,3.53,11.09,11.09,0,0,0,.91,3.21,16,16,0,0,0,4,5.11,26.34,26.34,0,0,0,4.44,3.13l.48.27c-.29,1.87-.57,3.76-.8,5.66l-.42,4.2c-.09,1.42-.19,2.83-.28,4.25s-.1,2.82-.14,4.23l0,2.1c0,.76,0,1.44,0,2.16l.1,4.27c0,.9.09,1.81.16,2.71-.09-.55-.19-1.11-.27-1.72-.12-1-.18-2.07-.24-3.22a9.24,9.24,0,0,0-1-3.58,22.6,22.6,0,0,0-2.18-3.79c-.45-.64-.94-1.29-1.45-1.94s-1-1.3-1.53-1.94c-1.06-1.3-2.18-2.58-3.31-3.82-2.17-2.47-4.31-4.76-5.91-6.44s-2.59-2.72-2.59-2.72.24,1,.62,2.6c.2.81.43,1.78.7,2.86l.81,3.55c.31,1.26.62,2.6.91,4l.87,4.18c.28,1.4.45,2.8.67,4.16a30.9,30.9,0,0,1,.37,3.95,9.38,9.38,0,0,0,2.68,6.31,16.56,16.56,0,0,0,5.54,3.78,30.12,30.12,0,0,0,6.07,1.84c.09.68.17,1.36.25,2a132,132,0,0,0,3.41,16.76c.68,2.77,1.62,5.46,2.48,8.16.09.29.2.58.31.87-.48-1.09-.95-2.29-1.44-3.61a7.77,7.77,0,0,0-.81-1.6,10.24,10.24,0,0,0-1.17-1.56,21.44,21.44,0,0,0-3.33-3c-1.31-1-2.64-1.93-4.11-2.87s-3-1.84-4.48-2.71l-4.24-2.46-3.62-2-3.48-1.88s.12.23.37.63l1.06,1.7,1.52,2.57c.58,1,1.15,2.06,1.85,3.19s1.39,2.35,2.08,3.59l2.06,3.79c.69,1.27,1.33,2.55,1.89,3.82s1.08,2.51,1.48,3.72A9.27,9.27,0,0,0,26.1,358a17.83,17.83,0,0,0,6.7,2,30,30,0,0,0,6,0l.47-.05c.35.81.7,1.63,1,2.44.57,1.28,1.21,2.53,1.81,3.79,1.16,2.54,2.57,4.94,3.86,7.38q2.47,4.21,5.12,8.23l0,0a9.59,9.59,0,0,0-2.82-2.44,22.43,22.43,0,0,0-4.17-1.84c-1.52-.56-3.19-1.05-4.92-1.5s-3.55-.84-5.26-1.24c-3.43-.79-6.75-1.44-9.22-1.91l-4-.77.55.49c.36.31.85.79,1.51,1.35,1.31,1.13,3.1,2.72,5,4.54,1,.9,2.06,1.84,3.1,2.82s2.07,2,3.1,3.05,2,2.06,3,3.11,1.73,2.13,2.49,3.16a9.25,9.25,0,0,0,5.95,3.74,19,19,0,0,0,7.24-.2,33,33,0,0,0,6-1.89l.18-.08A132.7,132.7,0,0,0,75.48,408.9a9.7,9.7,0,0,0-2.33-.85,23.9,23.9,0,0,0-4.62-.49,52.72,52.72,0,0,0-5.29.08c-1.83.1-3.74.28-5.54.42-3.64.32-7.14.72-9.73,1s-4.2.49-4.2.49l2.54,1.17c1.62.69,3.83,1.68,6.25,2.86,1.2.6,2.54,1.16,3.83,1.81s2.62,1.31,3.9,2,2.58,1.38,3.77,2.13,2.28,1.56,3.31,2.34a9.2,9.2,0,0,0,6.87,1.82,19.65,19.65,0,0,0,7.1-2.47,34.9,34.9,0,0,0,5.41-3.75l.08-.06,1,.7c1.94,1.27,3.91,2.43,5.81,3.61l5.8,3.16,5.69,2.75,3.21,1.37a8.4,8.4,0,0,0-3.23-.28,25.64,25.64,0,0,0-4.63.93c-1.64.45-3.38,1.06-5.16,1.74-.88.34-1.78.7-2.68,1.07L90,433.59c-1.74.72-3.45,1.46-5,2.16l-4.25,1.89c-2.44,1.07-4,1.81-4,1.81s1.08.11,2.82.36l3.11.37c1.17.15,2.46.32,3.81.52s2.79.4,4.24.62,2.93.49,4.37.8,2.91.57,4.27.95a34.2,34.2,0,0,1,3.86,1.31,9.3,9.3,0,0,0,7.21-.3,20.79,20.79,0,0,0,6.24-4.69,38.86,38.86,0,0,0,4.22-5.4l.26-.4.12,0A105.37,105.37,0,0,0,139,437.09c2.47.31,4.72.41,6.66.48,1,0,1.86.09,2.68.11l2.23,0c1.33,0,2.35-.07,3-.1h.47l-.32-.18ZM93.33,188.88c0-.17.1-.43.21-.74a10.35,10.35,0,0,1,1.23-2.47,15.6,15.6,0,0,1,2.59-2.95,34.7,34.7,0,0,1,3.56-2.66l3.8-2.13c1.19-.68,2.35-1.23,3.28-1.81s1.74-1,2.25-1.4.86-.57.86-.57-.21.31-.62.83a14.79,14.79,0,0,1-1.89,2,29.15,29.15,0,0,1-3.07,2.33l-3.65,2.33a33.19,33.19,0,0,0-3.53,2.33,24.2,24.2,0,0,0-2.79,2.37,16.38,16.38,0,0,0-1.71,2c-.39.52-.58.84-.58.84ZM63.65,208.23a10.16,10.16,0,0,1,1.14-3.58,21.63,21.63,0,0,1,2.48-3.45c1-1,2-2,2.87-2.9a32.25,32.25,0,0,0,2.35-2.56,16.9,16.9,0,0,0,1.4-2,7.13,7.13,0,0,0,.46-.85s0,.35-.12,1a9.7,9.7,0,0,1-.88,2.45,17.39,17.39,0,0,1-2,3.06l-2.7,3.07a20,20,0,0,0-2.48,3,12.67,12.67,0,0,0-1.5,3,9.22,9.22,0,0,0-.46,2.38,6.63,6.63,0,0,0,0,1,6,6,0,0,1-.54-3.55ZM45.44,230.72c0-.82,0-1.7,0-2.57s.1-1.75.11-2.57.13-1.6.14-2.26.14-1.24.17-1.63.09-.63.09-.63l.25.58a11.59,11.59,0,0,1,.51,1.59,18.07,18.07,0,0,1,.41,2.3c.07.85.11,1.76.13,2.67s-.16,1.81-.27,2.66a16.45,16.45,0,0,1-.55,2.27,11.39,11.39,0,0,1-.59,1.56l-.28.57s0-.23-.06-.64-.09-1-.08-1.63S45.39,231.54,45.44,230.72ZM40.5,242.58l-.39.53s0-.24.06-.65.09-1,.21-1.65.17-1.46.33-2.28.27-1.7.35-2.58.28-1.75.36-2.58.25-1.6.29-2.28.2-1.25.24-1.65.12-.64.12-.64l.23.61a11.19,11.19,0,0,1,.43,1.65,14.81,14.81,0,0,1,.26,2.39c0,.87-.05,1.81-.13,2.75s-.38,1.84-.61,2.68a15.44,15.44,0,0,1-.89,2.23A11.54,11.54,0,0,1,40.5,242.58ZM27.74,274.2a10.07,10.07,0,0,1-.26,1.59l-.17.6s-.06-.21-.18-.59-.28-.9-.41-1.53-.36-1.36-.49-2.14-.33-1.6-.55-2.42-.3-1.66-.49-2.43-.26-1.53-.42-2.15-.18-1.19-.26-1.57-.07-.61-.07-.61l.4.48a13.17,13.17,0,0,1,.89,1.35,15.36,15.36,0,0,1,1,2.06c.27.78.53,1.63.76,2.49s.25,1.76.33,2.59A14,14,0,0,1,27.74,274.2Zm1-6.49-.33-.59c-.17-.39-.49-.93-.74-1.61s-.61-1.45-.86-2.31-.52-1.79-.78-2.71l-.56-2.75c-.18-.88-.22-1.74-.32-2.45s-.06-1.34-.09-1.77,0-.68,0-.68l.33.6c.17.39.49.93.74,1.6s.61,1.46.86,2.32l.79,2.7c.19.94.38,1.88.55,2.76s.22,1.73.32,2.45.06,1.34.09,1.76S28.74,267.71,28.74,267.71Zm-6.58,47.17c-.06.37-.1.58-.1.58l-.25-.54c-.12-.34-.37-.82-.57-1.4s-.52-1.23-.74-1.94-.54-1.46-.86-2.19-.54-1.5-.84-2.19-.5-1.38-.76-1.93-.38-1.09-.52-1.42l-.19-.57.48.37a9.15,9.15,0,0,1,1.1,1.09,12.77,12.77,0,0,1,1.3,1.76c.39.69.77,1.46,1.12,2.24s.5,1.63.68,2.41a12.93,12.93,0,0,1,.24,2.18A9.33,9.33,0,0,1,22.16,314.88Zm2-7c-.25-.32-.67-.74-1.07-1.29s-.95-1.15-1.42-1.84-1-1.41-1.59-2.1-1-1.48-1.53-2.14-.92-1.37-1.34-1.91-.68-1.07-.92-1.4l-.33-.56.58.31a11.23,11.23,0,0,1,1.41.95,18.69,18.69,0,0,1,1.8,1.59c.59.64,1.2,1.35,1.79,2.08s1,1.57,1.46,2.33a17.38,17.38,0,0,1,1,2.19,11.71,11.71,0,0,1,.49,1.63c.08.41.12.64.12.64Zm-5.31,30.81c-.66-.41-1.18-.82-1.58-1.05l-.6-.43.73.1a13.18,13.18,0,0,1,1.89.46,17.88,17.88,0,0,1,2.54,1.05c.87.49,1.79,1,2.67,1.67a30.08,30.08,0,0,1,2.33,2.13,17.16,17.16,0,0,1,1.69,2.16,13.48,13.48,0,0,1,.95,1.7l.28.68-.57-.47c-.33-.32-.86-.71-1.43-1.24s-1.3-1.05-2-1.69A29.45,29.45,0,0,0,23.44,342,28.77,28.77,0,0,0,21,340.2C20.24,339.69,19.54,339.11,18.88,338.72Zm10.6,15.79c-.23-.31-.64-.72-1-1.24s-.94-1.09-1.41-1.74-1-1.31-1.6-2-1.06-1.35-1.6-2-1-1.23-1.43-1.71-.75-1-1-1.27-.37-.51-.37-.51l.59.23a11,11,0,0,1,1.47.78A15.11,15.11,0,0,1,25,346.51c.63.58,1.27,1.24,1.88,1.91s1.06,1.5,1.51,2.22a15.63,15.63,0,0,1,1,2.12,10.42,10.42,0,0,1,.46,1.6l.11.62Zm.78,21.66H31a19.3,19.3,0,0,1,2,.2,23.49,23.49,0,0,1,2.72.6c1,.3,2,.66,3,1s1.94,1,2.84,1.45A21.49,21.49,0,0,1,43.87,381a17.48,17.48,0,0,1,1.5,1.28l.53.54-.72-.24c-.43-.18-1.09-.37-1.82-.69s-1.62-.62-2.51-1S39,380.06,38,379.69s-1.91-.87-2.83-1.24-1.74-.81-2.48-1.1-1.33-.65-1.76-.84ZM49.2,391.44a6.56,6.56,0,0,1-2.6.11,9.56,9.56,0,0,1-3.49-1.26,19.88,19.88,0,0,1-3.26-2.63c-1-1-1.82-2.1-2.66-3s-1.57-1.86-2.3-2.53A18.13,18.13,0,0,0,33,380.5a8.25,8.25,0,0,0-.78-.54s.35.06.94.23a10.27,10.27,0,0,1,2.31,1.1,18,18,0,0,1,2.82,2.25c.93.92,1.86,1.92,2.82,2.85A18.26,18.26,0,0,0,44,389a11.18,11.18,0,0,0,2.87,1.59,8.84,8.84,0,0,0,2.32.53,6.13,6.13,0,0,0,.94,0A6.78,6.78,0,0,1,49.2,391.44Zm27.88,26.45a5.72,5.72,0,0,1-.65.54,6.83,6.83,0,0,1-2.83,1.12,10.23,10.23,0,0,1-4.34-.26,21.51,21.51,0,0,1-4.48-2c-1.39-.87-2.7-1.79-4-2.54a22.72,22.72,0,0,0-3.52-1.88,13,13,0,0,0-2.71-.82,7.61,7.61,0,0,0-1.1-.14,9.19,9.19,0,0,1,1.11-.21,9.45,9.45,0,0,1,3,.2,16.2,16.2,0,0,1,4,1.48c1.37.72,2.74,1.58,4.12,2.35a19.9,19.9,0,0,0,4,2.05,11.64,11.64,0,0,0,3.78.74,8.22,8.22,0,0,0,2.75-.41,5.76,5.76,0,0,0,.75-.31l.27-.13Zm1.72-3.38a5.36,5.36,0,0,1-1.19.75,8,8,0,0,1-1.9.64,14.24,14.24,0,0,1-2.3.16,14.22,14.22,0,0,1-2.25-.48,8.07,8.07,0,0,1-1.79-.89,6.1,6.1,0,0,1-1.08-.91l-.34-.41.52.11c.31.09.78.15,1.3.27s1.14.17,1.77.31a12.92,12.92,0,0,0,2,.19,12.3,12.3,0,0,0,2,.08c.64-.05,1.27,0,1.8-.05s1,0,1.33-.09l.53,0Zm22,22.73a10.62,10.62,0,0,1,1.15-.14,14.06,14.06,0,0,1,1.6,0l1.79.19,1.76.42a10.81,10.81,0,0,1,1.5.54,10.19,10.19,0,0,1,1,.51l.38.25-.44.1a8.58,8.58,0,0,1-1.15.14,12.07,12.07,0,0,1-1.6,0l-1.79-.18-1.76-.43a14.31,14.31,0,0,1-1.5-.53,10,10,0,0,1-1-.52l-.38-.24Zm12.76,2.9c-.15.14-.37.33-.67.56a8.77,8.77,0,0,1-2.86,1.35,12.8,12.8,0,0,1-4.48.35,28.45,28.45,0,0,1-5-1.06c-1.61-.55-3.17-1.16-4.64-1.62a30.92,30.92,0,0,0-4.05-1.13,17.61,17.61,0,0,0-3-.33,10.72,10.72,0,0,0-1.16,0s.39-.16,1.12-.37a11.58,11.58,0,0,1,3.12-.33,19.92,19.92,0,0,1,4.38.63c1.55.41,3.16.94,4.75,1.4a27.1,27.1,0,0,0,4.62,1.23,15.36,15.36,0,0,0,4.1.2,10.94,10.94,0,0,0,2.87-.65,8,8,0,0,0,.78-.33l.28-.13Z"/><path class="cls-1" d="M78.59,403.08a14.09,14.09,0,0,0,2,3.09A33.51,33.51,0,0,0,83.25,409a28.4,28.4,0,0,0,2.86,2.35c.94.7,1.82,1.31,2.59,1.81,1.56,1,2.63,1.48,2.63,1.48a14.52,14.52,0,0,1-.33-3.3,29.84,29.84,0,0,1,1.29-8.39l-5.89-3.3c-.06.21-.13.43-.19.61a6.64,6.64,0,0,1-.53,1.12l-.26.4-.08-.47c0-.29-.12-.71-.14-1.19s-.06-.77-.09-1.19l-2.84-1.59c-.25.76-.54,1.38-.71,1.83l-.32.71s0-.29,0-.78,0-1.21.07-2l0-.26-2.7-1.51A16,16,0,0,1,78,397C77.16,398.89,77.56,401,78.59,403.08Z"/><path class="cls-1" d="M61.55,388.65c1.25,1.34,2.12,2.16,2.12,2.16a13.91,13.91,0,0,1,.5-3.18c0-.12.07-.25.1-.38l-6.47-3.62c.58.91,1.2,1.76,1.78,2.55S61,388,61.55,388.65Z"/><path class="cls-1" d="M48.11,345a7.62,7.62,0,0,1-1.58.93,6.1,6.1,0,0,1-1.24.38l-.49.07.32-.38c.22-.2.48-.56.82-.91s.68-.82,1.1-1.24a12.61,12.61,0,0,0,1.15-1.43A13.61,13.61,0,0,0,49.31,341l.09-.13v-5.58a7.69,7.69,0,0,1-.39,1.14,19.88,19.88,0,0,1-1.27,2.4A17.12,17.12,0,0,1,46,340.84a18.84,18.84,0,0,1-1.79,1.43,4.63,4.63,0,0,0-1.07,1.05,2.1,2.1,0,0,0-.29.54,2.39,2.39,0,0,1,0-.65,3.61,3.61,0,0,1,.65-1.63c.43-.58.89-1.2,1.38-1.8a15.92,15.92,0,0,0,1.44-2,16.37,16.37,0,0,0,1.35-2.08c.38-.69.82-1.32,1.1-1.91s.53-1,.71-1.3v-3.94c-.54.81-1.1,1.67-1.67,2.54s-1.23,1.8-1.91,2.68a23.37,23.37,0,0,1-4.32,4.47c-1.51,1.1-2.21,3-2.41,5.36a16.18,16.18,0,0,0,.16,3.65A35.4,35.4,0,0,0,40,351c.36,1.23.77,2.43,1.18,3.52a31,31,0,0,0,1.21,2.92c.8,1.65,1.4,2.69,1.4,2.69a13.8,13.8,0,0,1,1.27-2.87,24.77,24.77,0,0,1,4.35-5.57v-8A13.43,13.43,0,0,1,48.11,345Z"/><path class="cls-1" d="M46.87,296.09l-2.28,2.09c-.78.71-1.6,1.41-2.44,2.07a21.87,21.87,0,0,1-5.08,3.11A5,5,0,0,0,34.93,305a9,9,0,0,0-1.46,2.82,22.4,22.4,0,0,0-.83,3.56q-.15.94-.24,1.92c0,.64,0,1.29-.06,1.93,0,1.29,0,2.55.1,3.72a30.24,30.24,0,0,0,.37,3.14c.29,1.81.54,3,.54,3a13.31,13.31,0,0,1,1.93-2.38,24.45,24.45,0,0,1,6.77-4.83,5.89,5.89,0,0,0,2.19-2.15,12.58,12.58,0,0,0,.91-1.63c.3-.6.52-1.24.82-1.92a39.27,39.27,0,0,0,1.49-4.41c.2-.77.44-1.56.67-2.35s.43-1.58.62-2.36.43-1.67.65-2.48v-7C48.67,294.33,47.84,295.18,46.87,296.09Zm-2.4,10.81a4,4,0,0,1-.23.93,5.25,5.25,0,0,1-.59,1.19,14.71,14.71,0,0,1-1,1.16,13.35,13.35,0,0,1-1.24.87,5.3,5.3,0,0,1-1.24.49,3.89,3.89,0,0,1-.95.15h-.38l.22-.3c.16-.16.33-.46.59-.71s.5-.61.82-.89.65-.6,1-.93.7-.58,1-.87.69-.51,1-.75.58-.38.75-.52l.33-.19S44.49,306.66,44.47,306.9Zm3.09-7a4.66,4.66,0,0,1-.09.55,5.3,5.3,0,0,1-.81,1.86,9.27,9.27,0,0,1-2,2.09A29.16,29.16,0,0,1,42,306.16c-.94.47-1.86.94-2.66,1.44A17.25,17.25,0,0,0,37.24,309a9.06,9.06,0,0,0-1.32,1.29,4.54,4.54,0,0,0-.46.58,6,6,0,0,1,.15-.74,5.59,5.59,0,0,1,.88-1.82,10.15,10.15,0,0,1,2-2c.83-.61,1.75-1.18,2.66-1.73a28,28,0,0,0,2.63-1.46,15.1,15.1,0,0,0,2.09-1.47,8.31,8.31,0,0,0,1.27-1.34,5.46,5.46,0,0,0,.43-.6Z"/><path class="cls-1" d="M46.78,272c-.92.23-1.82.46-2.62.74a17.16,17.16,0,0,0-2.19.78,9.65,9.65,0,0,0-1.46.8,4.9,4.9,0,0,0-.55.38,4.79,4.79,0,0,1,.29-.62,5.45,5.45,0,0,1,1.16-1.41,9.55,9.55,0,0,1,2.17-1.4c.86-.37,1.78-.7,2.68-1a23.81,23.81,0,0,0,2.58-.78l.56-.21v-3c-.45.22-.89.43-1.34.62a19.53,19.53,0,0,1-5.48,1.66,4.83,4.83,0,0,0-2.39,1,10.69,10.69,0,0,0-2.13,2.32,24.65,24.65,0,0,0-1.73,3.2A27.2,27.2,0,0,0,35,278.73a34,34,0,0,0-.92,3.6c-.23,1.15-.41,2.22-.55,3.13s-.18,1.66-.24,2.19-.06.82-.06.82a12.92,12.92,0,0,1,2.35-1.77A24.14,24.14,0,0,1,43,283.86a5.86,5.86,0,0,0,2.55-1.48,18.13,18.13,0,0,0,2.55-3c.43-.56.85-1.16,1.27-1.79v-6.7A27.47,27.47,0,0,1,46.78,272Z"/><path class="cls-1" d="M56.62,242.51l-.15,0a13.32,13.32,0,0,0-2.17.76,9.42,9.42,0,0,0-1.46.83c-.35.24-.54.4-.54.4a6,6,0,0,1,.28-.63,5.21,5.21,0,0,1,1.15-1.45,8.45,8.45,0,0,1,2.21-1.39,19.67,19.67,0,0,1,2.82-.87l2.57-.33,9.48-5.3-1.74.47a49.93,49.93,0,0,1-5.81,1.32,17.44,17.44,0,0,1-5.46.25,4.58,4.58,0,0,0-2.5.39,11,11,0,0,0-2.6,1.69c-.44.37-.88.77-1.31,1.2s-.83.92-1.23,1.41a32,32,0,0,0-2.3,3.11c-.69,1.09-1.32,2.18-1.9,3.2s-1,2-1.39,2.85-.68,1.54-.89,2l-.28.78a11,11,0,0,1,2.66-1.08,21.32,21.32,0,0,1,3.34-.69v-4.94Z"/><path class="cls-1" d="M92.43,211.32c-.92,0-1.9,0-2.89,0s-2,0-2.92-.11a26.29,26.29,0,0,1-2.78-.37,12,12,0,0,1-2.36-.69,4.42,4.42,0,0,0-2.43-.21,10.28,10.28,0,0,0-2.93.95A26.7,26.7,0,0,0,73,212.71a37.82,37.82,0,0,0-3,2.38,33.63,33.63,0,0,0-2.71,2.56c-.82.84-1.57,1.62-2.16,2.32-1.19,1.42-1.91,2.37-1.91,2.37a12.7,12.7,0,0,1,2.76-.38,20.43,20.43,0,0,1,7.18,1,5.12,5.12,0,0,0,2.75-.1,18.48,18.48,0,0,0,3.64-1.32c1.3-.61,2.75-1.28,4.17-2.07.7-.4,1.45-.77,2.17-1.17s1.46-.81,2.17-1.22l2.13-1.17,2-1.16c1.33-.7,2.53-1.37,3.54-1.95.51-.29,1-.52,1.41-.75l1.07-.58.92-.51s-.74.07-1.94.14c-.6,0-1.32.06-2.13.08S93.35,211.3,92.43,211.32Zm-2.14,3.27a5.4,5.4,0,0,1-1.78.53,8.7,8.7,0,0,1-2.62-.09c-.92-.18-1.86-.44-2.77-.65a15.44,15.44,0,0,0-2.61-.63,15.76,15.76,0,0,0-2.32-.24,16,16,0,0,0-1.7.06,5.53,5.53,0,0,0-.67.08,5.78,5.78,0,0,1,.55-.41,6.71,6.71,0,0,1,1.69-.74,8.67,8.67,0,0,1,2.6-.31,15.83,15.83,0,0,1,2.94.44c.94.3,1.83.63,2.66.87a17.08,17.08,0,0,0,2.26.6,9.64,9.64,0,0,0,1.68.15,6.23,6.23,0,0,0,.67,0A5,5,0,0,1,90.29,214.59Z"/><path class="cls-1" d="M111.73,191.33a4,4,0,0,0-2.22-.78,12.1,12.1,0,0,0-3,.19,19.36,19.36,0,0,0-3.5.93,34.62,34.62,0,0,0-3.6,1.44c-1.16.56-2.28,1.14-3.32,1.69s-1.93,1.17-2.71,1.66-1.42.91-1.85,1.22l-.66.49a10.48,10.48,0,0,1,2.69.3,19.67,19.67,0,0,1,6.39,2.62,5,5,0,0,0,2.62.57,14.05,14.05,0,0,0,1.78-.1c.63-.09,1.33-.15,2-.27s1.46-.26,2.22-.42,1.54-.34,2.34-.51,1.61-.37,2.41-.57,1.63-.38,2.44-.58l2.37-.6c.77-.2,1.55-.35,2.28-.54l2.09-.51c.66-.17,1.29-.3,1.86-.44l3.8-.86-1.89-.35c-1.17-.22-2.77-.54-4.54-.94a50.09,50.09,0,0,1-5.47-1.49A14.92,14.92,0,0,1,111.73,191.33Zm6.72,5.6c.46.06.74.07.74.07s-.25.12-.7.28a7.3,7.3,0,0,1-2,.35,12.81,12.81,0,0,1-2.82-.19c-1-.2-2-.47-3.07-.71a25.39,25.39,0,0,0-2.91-.79,18.22,18.22,0,0,0-2.55-.42,10.47,10.47,0,0,0-1.87,0,6.91,6.91,0,0,0-.73.08,7.35,7.35,0,0,1,.63-.41,6.37,6.37,0,0,1,1.9-.69,10.68,10.68,0,0,1,2.87-.11,27.61,27.61,0,0,1,3.15.59c1,.33,2,.66,3,.92s1.77.58,2.53.71A16.94,16.94,0,0,0,118.45,196.93Z"/><path class="cls-1" d="M191.57,431.71l-.49.28c.16-.1.33-.17.48-.27Z"/><path class="cls-1" d="M179.47,446.79a20.59,20.59,0,0,0,4.69,6.54,8.91,8.91,0,0,0,6.86,2.5,26.24,26.24,0,0,1,4.1-.13c.72,0,1.44.07,2.18.14l2.21.18c1.49.14,3,.34,4.47.57s2.91.43,4.28.65,2.67.45,3.86.67,2.24.42,3.12.56c1.77.3,2.85.52,2.85.52s-1.33-1.23-3.41-3.05c-1.05-.93-2.27-2-3.61-3.18s-2.79-2.46-4.28-3.73-3-2.5-4.55-3.75-3.05-2.39-4.51-3.36a30.33,30.33,0,0,0-4.19-2.32,7.79,7.79,0,0,0-3.73-.71c-.58.06-1.14.11-1.68.14s-1.06,0-1.57,0c-1,0-1.94,0-2.8-.12s-1.65-.16-2.36-.27-1.09-.23-1.58-.35l-2.93,1.64A42.34,42.34,0,0,0,179.47,446.79Zm25.95,6.13a11.34,11.34,0,0,1,2.67,1.38,10.59,10.59,0,0,1,.87.72,10.48,10.48,0,0,0-1-.41,16.93,16.93,0,0,0-2.78-.71,29.9,29.9,0,0,0-4-.38c-1.47-.08-3.08-.07-4.71-.12a29.3,29.3,0,0,1-4.82-.69,12.78,12.78,0,0,1-3.94-1.76,8.62,8.62,0,0,1-2.18-2.1,7.31,7.31,0,0,1-.43-.72l-.14-.26a8.51,8.51,0,0,0,.83.74,11.37,11.37,0,0,0,2.43,1.45,15.4,15.4,0,0,0,3.77,1.11,27.61,27.61,0,0,0,4.57.42c1.59.12,3.22.2,4.75.36A18.53,18.53,0,0,1,205.42,452.92Zm-20.87-9.49c.41.26,1,.55,1.74,1s1.56.79,2.43,1.29,1.83.93,2.8,1.35,1.92.9,2.85,1.25,1.79.76,2.56,1,1.39.55,1.85.7l.72.28-.77.07a13.56,13.56,0,0,1-2-.06,17.84,17.84,0,0,1-2.83-.5,32.12,32.12,0,0,1-3.11-1.09c-1-.52-2-1.08-2.86-1.65a18.36,18.36,0,0,1-2.22-1.82,14.16,14.16,0,0,1-1.36-1.51l-.45-.62Z"/><path class="cls-1" d="M210.72,429.68l.81-.15a19.64,19.64,0,0,0,2.13-.53c.88-.26,1.9-.59,3-1a24.6,24.6,0,0,0,3.4-1.47,31.53,31.53,0,0,0,3.32-2,14.94,14.94,0,0,0,2.77-2.45,9.61,9.61,0,0,0,1.79-2.8,5.92,5.92,0,0,0,.38-3.1,24,24,0,0,1-.09-5l-2.35,1.32c0,.91-.15,1.77-.16,2.51s-.14,1.46-.15,1.93l-.09.75-.27-.71a14,14,0,0,1-.51-1.9c-.1-.52-.2-1.13-.28-1.76l-1.75,1c0,.22,0,.44,0,.65,0,.67-.12,1.3-.1,1.85s-.09,1-.09,1.35-.05.54-.05.54l-.29-.46a6.91,6.91,0,0,1-.58-1.28,11.64,11.64,0,0,1-.43-1.76l-8.17,4.58a31,31,0,0,1-1,6.72A14.62,14.62,0,0,1,210.72,429.68Z"/><path class="cls-1" d="M243.93,414.63s1.08-.52,2.64-1.48c.76-.5,1.65-1.11,2.59-1.81A28.4,28.4,0,0,0,252,409a33.51,33.51,0,0,0,2.65-2.82,14.46,14.46,0,0,0,2-3.09c1-2.12,1.42-4.19.58-6.11a16,16,0,0,1-.61-1.69l-2.7,1.51c0,.09,0,.18,0,.26.09.83.05,1.55.08,2s0,.78,0,.78l-.33-.71c-.16-.45-.46-1.07-.7-1.83l-2.84,1.59c0,.42-.09.83-.09,1.19s-.12.9-.14,1.19l-.08.47-.26-.4a6.64,6.64,0,0,1-.53-1.12l-.2-.61-5.89,3.3a29.93,29.93,0,0,1,1.3,8.39A14.08,14.08,0,0,1,243.93,414.63Z"/><path class="cls-1" d="M271.6,390.81s.87-.82,2.11-2.16c.6-.7,1.27-1.54,2-2.47s1.2-1.64,1.78-2.55L271,387.25a3.06,3.06,0,0,1,.1.38A13.67,13.67,0,0,1,271.6,390.81Z"/><path class="cls-1" d="M286.58,333.77c.28.59.72,1.22,1.1,1.91a17.44,17.44,0,0,0,1.34,2.08,18.22,18.22,0,0,0,1.44,2c.5.6,1,1.22,1.39,1.8a3.73,3.73,0,0,1,.65,1.63,2.39,2.39,0,0,1,0,.65,2.1,2.1,0,0,0-.29-.54,4.71,4.71,0,0,0-1.08-1.05,21.76,21.76,0,0,1-1.79-1.43,19.11,19.11,0,0,1-1.78-2.06,19.78,19.78,0,0,1-1.26-2.4,7.69,7.69,0,0,1-.39-1.14v5.58l.09.13a13.5,13.5,0,0,0,1.11,1.47,13.89,13.89,0,0,0,1.16,1.43c.41.42.73.91,1.09,1.24s.61.71.83.91l.32.38-.49-.07a6.1,6.1,0,0,1-1.24-.38,7.37,7.37,0,0,1-1.58-.93,13.43,13.43,0,0,1-1.29-1.23v8a25.07,25.07,0,0,1,4.35,5.57,13.8,13.8,0,0,1,1.27,2.87s.59-1,1.4-2.69a31,31,0,0,0,1.21-2.92c.41-1.09.82-2.29,1.18-3.52a35.4,35.4,0,0,0,.74-3.8,15.6,15.6,0,0,0,.15-3.65c-.2-2.32-.89-4.26-2.4-5.36a23.41,23.41,0,0,1-4.33-4.47c-.67-.88-1.31-1.78-1.91-2.68s-1.12-1.73-1.66-2.54v3.94C286,332.81,286.32,333.24,286.58,333.77Z"/><path class="cls-1" d="M318.87,333.58,314.63,336c-1.5.87-3,1.78-4.47,2.71s-2.8,1.91-4.12,2.87a22.4,22.4,0,0,0-3.33,3,10.85,10.85,0,0,0-1.16,1.56,7.77,7.77,0,0,0-.81,1.6c-.5,1.32-1,2.52-1.44,3.61.1-.29.22-.58.31-.87.86-2.7,1.79-5.39,2.48-8.16a132,132,0,0,0,3.41-16.76c.08-.68.16-1.36.25-2a30.31,30.31,0,0,0,6.07-1.84,16.42,16.42,0,0,0,5.53-3.78,9.34,9.34,0,0,0,2.69-6.31,30.9,30.9,0,0,1,.37-3.95c.22-1.36.39-2.76.67-4.16l.87-4.18c.29-1.37.6-2.71.91-4l.81-3.55c.26-1.08.5-2.05.7-2.86.38-1.61.62-2.6.62-2.6s-1,1.05-2.59,2.72-3.74,4-5.92,6.44c-1.12,1.24-2.25,2.52-3.31,3.82-.53.64-1,1.3-1.53,1.94s-1,1.3-1.44,1.94A23.41,23.41,0,0,0,308,307a9.42,9.42,0,0,0-1,3.58c0,1.15-.12,2.22-.23,3.22-.09.61-.18,1.17-.28,1.72.07-.9.14-1.81.17-2.71l.1-4.27c0-.72.05-1.4,0-2.16l0-2.1c0-1.41,0-2.8-.15-4.23l-.27-4.25c-.14-1.4-.28-2.8-.43-4.2-.22-1.9-.5-3.79-.8-5.66l.49-.27a25.91,25.91,0,0,0,4.43-3.13,15.73,15.73,0,0,0,4-5.11,10.8,10.8,0,0,0,.92-3.21,8.73,8.73,0,0,0-.25-3.53,33.69,33.69,0,0,1-.78-3.88c-.24-1.34-.43-2.74-.57-4.15l-.42-4.21c-.11-1.38-.21-2.73-.31-4-.25-2.54-.33-4.86-.49-6.47s-.19-2.64-.19-2.64-.63,1.27-1.56,3.27l-1.61,3.48c-.6,1.3-1.24,2.71-1.87,4.18s-1.29,3-1.88,4.51-1.09,3-1.56,4.49a22.88,22.88,0,0,0-.92,4.21,10.71,10.71,0,0,0,.13,3.69,35.29,35.29,0,0,1,.8,4.09c-.16-.69-.3-1.39-.46-2.07a142.35,142.35,0,0,0-4.85-15.57c-1.27-3.31-2.67-6.53-4.16-9.65a24.78,24.78,0,0,0,3.35-4.39,14.89,14.89,0,0,0,2.09-5.86,10.35,10.35,0,0,0-.09-3.28,10.53,10.53,0,0,0-1.28-3.27c-.63-1.09-1.26-2.24-1.86-3.46s-1.15-2.51-1.73-3.78-1.11-2.57-1.62-3.86-1-2.5-1.5-3.68-.89-2.32-1.31-3.3L289,212.4l-.68-1.79-.26-.64s-.18,1.36-.46,3.44c-.12,1.06-.27,2.31-.43,3.66s-.3,2.87-.45,4.39-.27,3.12-.35,4.69-.15,3.16-.1,4.65a29,29,0,0,0,.42,4.22,12,12,0,0,0,1.23,3.46c.34.59.65,1.16.94,1.71-1.59-2.73-3.25-5.38-5-7.91A128.14,128.14,0,0,0,275.16,221l-2.08-2.34a2.51,2.51,0,0,0,.11-.23,21,21,0,0,0,1.6-4.62,15.22,15.22,0,0,0,.17-6,10.82,10.82,0,0,0-3.25-5.76c-.92-.83-1.84-1.76-2.75-2.76s-1.85-2-2.74-3.07l-1.33-1.61L263.56,193l-2.48-3.06c-1.61-1.91-3-3.69-4-4.9l-1.61-2s.22,1.27.62,3.25.93,4.74,1.62,7.61c.35,1.43.68,3,1.09,4.44s.86,2.91,1.33,4.32a24.17,24.17,0,0,0,1.68,3.8,11.17,11.17,0,0,0,2.17,2.95c.52.48,1,1,1.45,1.42a124.53,124.53,0,0,0-17.82-14c-1.17-.75-2.31-1.45-3.44-2.13a20.82,20.82,0,0,0,.14-5,13.67,13.67,0,0,0-1.68-5.51,11.38,11.38,0,0,0-1.92-2.52,12.08,12.08,0,0,0-2.85-2c-.55-.27-1.11-.57-1.67-.89s-1.15-.61-1.73-.95c-1.17-.66-2.32-1.42-3.49-2.14s-2.33-1.48-3.45-2.23-2.23-1.43-3.26-2.13-2-1.36-2.89-1.92l-2.32-1.53-2.1-1.39s.58,1.09,1.55,2.77l1.7,2.94,2.1,3.52c.74,1.24,1.55,2.47,2.37,3.72s1.67,2.48,2.56,3.6a31.76,31.76,0,0,0,2.72,3.07,14.25,14.25,0,0,0,2.94,2.14,47,47,0,0,1,5.18,3l.06.05c-2.24-1.17-4.36-2.19-6.31-3.06-4.57-2-8.26-3.27-10.79-4.08-1.26-.4-2.24-.69-2.9-.88l-1-.29,1,.41c.62.28,1.55.69,2.78,1.2,2.42,1.05,5.94,2.71,10.31,5a155,155,0,0,1,15.16,9.14,134.25,134.25,0,0,1,17.78,14.43l2.27,2.23c.76.75,1.48,1.55,2.24,2.34,1.52,1.57,2.95,3.27,4.44,5,.74.86,1.44,1.76,2.17,2.65s1.45,1.79,2.14,2.73l2.12,2.82,2.05,2.94a129.83,129.83,0,0,1,14,26.71,138.35,138.35,0,0,1,4.81,15.22,135.47,135.47,0,0,1,2.89,16.1c.14,1.37.27,2.74.41,4.12s.17,2.75.26,4.13.1,2.78.13,4.18l0,2.11c0,.65,0,1.38,0,2.06l-.1,4.19c-.05,1.39-.19,2.78-.29,4.18-.14,2.79-.56,5.56-.9,8.33a127.75,127.75,0,0,1-3.55,16.36c-.7,2.7-1.66,5.31-2.53,7.94-.44,1.31-1,2.58-1.47,3.87s-1,2.58-1.57,3.82L292,360.93c-.58,1.24-1.23,2.45-1.84,3.66-1.18,2.46-2.61,4.76-3.92,7.11l-.36.57v6.65L278.63,383c-.47.61-.93,1.24-1.4,1.83-1.56,2.1-3.28,4-4.93,6-.81,1-1.72,1.89-2.57,2.84s-1.7,1.87-2.6,2.75c-1.81,1.74-3.51,3.55-5.38,5.14L259,404l-2.79,2.29a135,135,0,0,1-22.42,14.82,136.91,136.91,0,0,1-21,8.81c-1.59.6-3.18,1-4.69,1.5l-2.24.69c-.73.22-1.47.37-2.18.58l-4.09,1.1-3.78.85c-2.38.61-4.54.94-6.41,1.33-.94.18-1.81.37-2.61.51l-2.2.35c-1.31.2-2.32.39-3,.51l-.15,0-.32.18h.48c.69,0,1.71.08,3,.1l2.23,0c.81,0,1.71-.07,2.68-.11,1.94-.07,4.18-.17,6.66-.48A105.37,105.37,0,0,0,214,433.63l.12,0,.25.4a39,39,0,0,0,4.23,5.4,20.79,20.79,0,0,0,6.24,4.69,9.27,9.27,0,0,0,7.2.3,35.61,35.61,0,0,1,3.86-1.31c1.37-.38,2.82-.67,4.27-.95s2.92-.57,4.38-.8,2.9-.39,4.24-.62,2.64-.37,3.81-.52l3.11-.37c1.74-.25,2.82-.36,2.82-.36s-1.57-.74-4-1.81l-4.26-1.89c-1.58-.7-3.28-1.44-5-2.16l-2.64-1.08c-.89-.37-1.79-.73-2.68-1.07-1.77-.68-3.51-1.29-5.15-1.74a25.81,25.81,0,0,0-4.63-.93,8.4,8.4,0,0,0-3.23.28l3.2-1.37,5.7-2.75,5.8-3.16c1.9-1.18,3.87-2.34,5.81-3.61l1-.7.08.06a34.9,34.9,0,0,0,5.41,3.75,19.67,19.67,0,0,0,7.09,2.47,9.22,9.22,0,0,0,6.88-1.82c1-.78,2.11-1.6,3.31-2.34s2.46-1.46,3.77-2.13,2.59-1.39,3.9-2,2.63-1.21,3.83-1.81c2.42-1.18,4.63-2.17,6.24-2.86l2.54-1.17s-1.65-.22-4.19-.49-6.09-.72-9.73-1c-1.8-.14-3.71-.32-5.55-.42a52.63,52.63,0,0,0-5.29-.08,23.79,23.79,0,0,0-4.61.49,9.63,9.63,0,0,0-2.34.85,132.1,132.1,0,0,0,16.66-16.84l.18.08a32.72,32.72,0,0,0,6,1.89,19,19,0,0,0,7.24.2,9.28,9.28,0,0,0,5.95-3.74c.76-1,1.58-2.1,2.49-3.16s1.92-2.09,3-3.11,2.05-2.07,3.11-3.05,2.11-1.92,3.1-2.82c1.93-1.82,3.72-3.41,5-4.54.66-.56,1.14-1,1.5-1.35l.55-.49-4,.77c-2.47.47-5.79,1.12-9.23,1.91-1.7.4-3.54.78-5.25,1.24s-3.4.94-4.92,1.5a22.43,22.43,0,0,0-4.17,1.84,9.46,9.46,0,0,0-2.82,2.44l0,0q2.66-4,5.11-8.23c1.3-2.44,2.71-4.84,3.87-7.38.6-1.26,1.24-2.51,1.8-3.79l1.05-2.44.46.05a30.09,30.09,0,0,0,6,0,17.73,17.73,0,0,0,6.69-2,9.2,9.2,0,0,0,4.5-5.28c.41-1.21,1-2.45,1.49-3.72s1.2-2.55,1.89-3.82,1.37-2.54,2.06-3.79,1.39-2.45,2.08-3.59,1.26-2.22,1.85-3.19l1.52-2.57c.45-.72.81-1.3,1.05-1.7s.38-.63.38-.63l-3.48,1.88Zm-1.12-29.73c-.15.33-.28.86-.53,1.42s-.44,1.25-.75,1.93-.59,1.44-.84,2.19-.62,1.48-.86,2.19-.56,1.36-.74,1.94-.45,1.06-.57,1.4l-.25.54s0-.21-.1-.58a9.33,9.33,0,0,1-.09-1.55,12.85,12.85,0,0,1,.23-2.18c.19-.78.42-1.6.68-2.41s.74-1.55,1.13-2.24a12.77,12.77,0,0,1,1.29-1.76,9.1,9.1,0,0,1,1.11-1.09l.47-.37S317.87,303.49,317.75,303.85Zm-7,3.9a11.71,11.71,0,0,1,.49-1.63,17.38,17.38,0,0,1,1-2.19c.44-.76.93-1.55,1.45-2.33s1.21-1.44,1.8-2.08a18.66,18.66,0,0,1,1.79-1.59,12,12,0,0,1,1.42-.95l.57-.31-.33.56c-.23.33-.51.86-.92,1.4s-.81,1.25-1.33,1.91-1,1.39-1.54,2.14-1.1,1.41-1.58,2.1-1,1.28-1.42,1.84-.82,1-1.07,1.29l-.44.48S310.69,308.16,310.77,307.75Zm-.34-44.32.4-.48s0,.22-.07.61-.12.94-.26,1.57-.23,1.38-.43,2.15-.35,1.6-.49,2.43-.39,1.64-.54,2.42-.38,1.5-.5,2.14-.32,1.16-.4,1.53l-.19.59-.16-.6a11.17,11.17,0,0,1-.27-1.59,15.35,15.35,0,0,1,0-2.28c.07-.83.19-1.71.33-2.59s.49-1.71.76-2.49a15.36,15.36,0,0,1,1-2.06A10.5,10.5,0,0,1,310.43,263.43Zm-3.83,1.84c.1-.72.14-1.57.32-2.45l.56-2.76.79-2.7c.25-.86.61-1.64.86-2.32s.56-1.21.74-1.6l.32-.6s0,.25,0,.68,0,1-.09,1.77-.14,1.57-.32,2.45l-.56,2.75c-.27.92-.53,1.84-.79,2.71s-.61,1.63-.85,2.31-.57,1.22-.74,1.61l-.33.59s0-.25,0-.68S306.51,266,306.6,265.27Zm-65.19-77a16.15,16.15,0,0,0-1.7-2,24.36,24.36,0,0,0-2.8-2.37,33,33,0,0,0-3.52-2.33l-3.66-2.33a30,30,0,0,1-3.06-2.33,15.67,15.67,0,0,1-1.9-2c-.4-.52-.61-.83-.61-.83s.3.22.85.57,1.33.83,2.26,1.4,2.09,1.13,3.28,1.81l3.79,2.13a33.78,33.78,0,0,1,3.57,2.66,15.6,15.6,0,0,1,2.59,2.95,10.35,10.35,0,0,1,1.23,2.47,6.17,6.17,0,0,1,.2.74c0,.17.07.26.07.26S241.8,188.82,241.41,188.3Zm30,22.56a6.29,6.29,0,0,1-.35.92,6,6,0,0,0,0-1,8.73,8.73,0,0,0-.45-2.38,12.67,12.67,0,0,0-1.5-3,20.61,20.61,0,0,0-2.48-3l-2.7-3.07a16.85,16.85,0,0,1-2-3.06,9.7,9.7,0,0,1-.88-2.45,9.2,9.2,0,0,1-.13-1,9.66,9.66,0,0,0,.46.85,17.18,17.18,0,0,0,1.41,2,34,34,0,0,0,2.34,2.56l2.88,2.9a22.28,22.28,0,0,1,2.48,3.45,10.16,10.16,0,0,1,1.14,3.58A6.66,6.66,0,0,1,271.43,210.86ZM289.82,233c0,.66-.08,1.24-.08,1.63s-.06.64-.06.64l-.29-.57a14.82,14.82,0,0,1-.59-1.56,18.11,18.11,0,0,1-.54-2.27c-.11-.85-.21-1.75-.27-2.66s.06-1.82.12-2.67a18,18,0,0,1,.42-2.3,13.43,13.43,0,0,1,.5-1.59l.25-.58s0,.23.1.63.14,1,.17,1.63.13,1.44.14,2.26.05,1.7.11,2.57,0,1.75,0,2.57S289.79,232.32,289.82,233Zm3.2,5.89c-.23-.84-.44-1.76-.61-2.68s-.13-1.88-.14-2.75a16,16,0,0,1,.27-2.39,11.19,11.19,0,0,1,.43-1.65l.23-.61s0,.24.12.64.17,1,.23,1.65.23,1.45.3,2.28.2,1.71.35,2.58.21,1.76.35,2.58.2,1.61.34,2.28.14,1.25.21,1.65.06.65.06.65l-.39-.53a10.46,10.46,0,0,1-.86-1.47A15.44,15.44,0,0,1,293,238.88Zm-49.71,198.7a11.58,11.58,0,0,1,3.12.33c.72.21,1.11.37,1.11.37a10.58,10.58,0,0,0-1.16,0,17.51,17.51,0,0,0-3,.33,30.49,30.49,0,0,0-4,1.13c-1.47.46-3,1.07-4.64,1.62a28.45,28.45,0,0,1-5,1.06,12.88,12.88,0,0,1-4.49-.35,8.6,8.6,0,0,1-2.85-1.35,7.4,7.4,0,0,1-.67-.56l-.22-.21.27.13c.18.09.45.2.79.33a10.84,10.84,0,0,0,2.87.65,15.37,15.37,0,0,0,4.1-.2,27.6,27.6,0,0,0,4.62-1.23c1.59-.46,3.2-1,4.75-1.4A19.83,19.83,0,0,1,243.31,437.58Zm-15.1.12,1.75-.42,1.8-.19a13.86,13.86,0,0,1,1.59,0,10,10,0,0,1,1.15.14l.45.11-.39.24a9,9,0,0,1-1,.52,14.31,14.31,0,0,1-1.5.53l-1.75.43-1.79.18a12.05,12.05,0,0,1-1.6,0,8.58,8.58,0,0,1-1.15-.14l-.44-.1.38-.25a9.24,9.24,0,0,1,1-.51A10.81,10.81,0,0,1,228.21,437.7Zm41.35-22c1.38-.77,2.75-1.63,4.11-2.35a16.5,16.5,0,0,1,4-1.48,9.52,9.52,0,0,1,3-.2,9.19,9.19,0,0,1,1.11.21,7.61,7.61,0,0,0-1.1.14,13.06,13.06,0,0,0-2.72.82,22.65,22.65,0,0,0-3.51,1.88c-1.26.75-2.58,1.67-4,2.54a21.35,21.35,0,0,1-4.49,2,10.22,10.22,0,0,1-4.34.26,7,7,0,0,1-2.83-1.12,5.43,5.43,0,0,1-.64-.54l-.21-.21.26.13a7.29,7.29,0,0,0,.75.31,8.33,8.33,0,0,0,2.76.41,11.69,11.69,0,0,0,3.78-.74A19.9,19.9,0,0,0,269.56,415.74Zm-7.83-1.49a13,13,0,0,0,2-.19c.62-.14,1.26-.16,1.77-.31s1-.18,1.3-.27l.52-.11-.35.41a5.64,5.64,0,0,1-1.07.91,8.3,8.3,0,0,1-1.79.89,8.28,8.28,0,0,1-4.55.32,8,8,0,0,1-1.9-.64,5.36,5.36,0,0,1-1.19-.75l-.4-.35.53,0c.32.05.8,0,1.33.09s1.16,0,1.79.05A12.42,12.42,0,0,0,261.73,414.25ZM289.9,382.3a16,16,0,0,1,1.5-1.28,21.49,21.49,0,0,1,2.31-1.55c.89-.49,1.86-1,2.84-1.45s2-.75,3-1a24.44,24.44,0,0,1,2.72-.6,19.44,19.44,0,0,1,2-.2H305l-.67.34c-.44.19-1,.53-1.77.84s-1.56.74-2.48,1.1-1.88.79-2.83,1.24-1.94.78-2.84,1.19-1.79.69-2.51,1-1.39.51-1.83.69l-.71.24Zm-3.8,8.79a8.84,8.84,0,0,0,2.32-.53,11.52,11.52,0,0,0,2.87-1.59,18.26,18.26,0,0,0,2.83-2.58c1-.93,1.89-1.93,2.81-2.85a18.49,18.49,0,0,1,2.82-2.25,10.3,10.3,0,0,1,2.32-1.1c.59-.17.93-.23.93-.23a9.22,9.22,0,0,0-.77.54,18.13,18.13,0,0,0-1.85,1.59c-.74.67-1.46,1.59-2.3,2.53s-1.71,2-2.66,3a20.31,20.31,0,0,1-3.26,2.63,9.6,9.6,0,0,1-3.5,1.26,6.59,6.59,0,0,1-2.6-.11,6.78,6.78,0,0,1-.91-.33A6.28,6.28,0,0,0,286.1,391.09Zm27.77-46.46c-.26.3-.58.77-1,1.27s-.89,1.12-1.43,1.71-1.09,1.28-1.6,2-1.12,1.31-1.61,2-1,1.2-1.4,1.74-.8.93-1,1.24l-.42.47.11-.62a10.42,10.42,0,0,1,.46-1.6,14.5,14.5,0,0,1,1-2.12c.45-.72,1-1.48,1.5-2.22s1.26-1.33,1.88-1.91a15.16,15.16,0,0,1,1.89-1.38,9.92,9.92,0,0,1,1.47-.78l.59-.23Zm4.09-7c-.39.23-.92.64-1.57,1.05s-1.37,1-2.17,1.48a28.65,28.65,0,0,0-2.39,1.76c-.82.58-1.62,1.21-2.34,1.83s-1.45,1.16-2,1.69-1.11.92-1.44,1.24l-.57.47.29-.68a12.31,12.31,0,0,1,1-1.7,17.16,17.16,0,0,1,1.69-2.16,29.9,29.9,0,0,1,2.32-2.13c.89-.62,1.8-1.18,2.68-1.67A17.88,17.88,0,0,1,316,337.8a12.87,12.87,0,0,1,1.89-.46l.73-.1Z"/><path class="cls-1" d="M286.51,303.07c.2.78.41,1.58.63,2.36s.47,1.58.67,2.35a37.35,37.35,0,0,0,1.49,4.41c.29.68.52,1.32.81,1.92a15.5,15.5,0,0,0,.91,1.63,6,6,0,0,0,2.19,2.15,24.37,24.37,0,0,1,6.78,4.83,13.47,13.47,0,0,1,1.92,2.38s.26-1.17.54-3a27.74,27.74,0,0,0,.37-3.14c.07-1.17.11-2.43.11-3.72,0-.64,0-1.29-.06-1.93s-.15-1.29-.25-1.92a21.38,21.38,0,0,0-.82-3.56,9.16,9.16,0,0,0-1.46-2.82,5.07,5.07,0,0,0-2.15-1.67,22,22,0,0,1-5.07-3.11c-.85-.66-1.67-1.36-2.45-2.07l-2.27-2.09c-1-.91-1.8-1.76-2.53-2.5v7C286.09,301.4,286.31,302.23,286.51,303.07Zm9.51,8.62a3.9,3.9,0,0,1-.94-.15,5.14,5.14,0,0,1-1.24-.49,14.94,14.94,0,0,1-1.25-.87,14.54,14.54,0,0,1-1-1.16,5.78,5.78,0,0,1-.6-1.19,4.59,4.59,0,0,1-.23-.93l0-.38.32.19c.18.14.49.29.76.52s.65.45.95.75.66.59,1,.87.63.65.95.93.57.65.83.89.43.55.59.71l.21.3Zm-7.91-11.39a8.78,8.78,0,0,0,1.27,1.34,16.42,16.42,0,0,0,2.09,1.47c.8.51,1.7,1,2.63,1.46s1.84,1.12,2.67,1.73a9.83,9.83,0,0,1,2,2,5.65,5.65,0,0,1,.89,1.82,4.76,4.76,0,0,1,.14.74,5,5,0,0,0-.45-.58A8.71,8.71,0,0,0,298,309a16.37,16.37,0,0,0-2.13-1.43c-.81-.5-1.72-1-2.66-1.44a27.84,27.84,0,0,1-2.66-1.76,9.27,9.27,0,0,1-2-2.09,5.55,5.55,0,0,1-.82-1.86c-.05-.23-.06-.43-.08-.55l0-.2A5.46,5.46,0,0,0,288.11,300.3Z"/><path class="cls-1" d="M286.42,269.43a24,24,0,0,0,2.59.78c.9.31,1.82.64,2.67,1a9.12,9.12,0,0,1,2.17,1.4A5.32,5.32,0,0,1,295,274c.2.39.29.62.29.62a4.9,4.9,0,0,0-.55-.38,9.34,9.34,0,0,0-1.47-.8,16.45,16.45,0,0,0-2.18-.78c-.81-.28-1.71-.51-2.63-.74s-1.78-.65-2.61-1v6.7c.42.63.84,1.23,1.26,1.79a17.68,17.68,0,0,0,2.56,3,5.86,5.86,0,0,0,2.55,1.48,24.25,24.25,0,0,1,7.46,2.84,12.56,12.56,0,0,1,2.34,1.77s0-.29-.06-.82-.08-1.29-.23-2.19-.33-2-.55-3.13a31.88,31.88,0,0,0-.93-3.6,27.15,27.15,0,0,0-1.33-3.63,23.52,23.52,0,0,0-1.74-3.2,10.69,10.69,0,0,0-2.13-2.32,4.75,4.75,0,0,0-2.39-1,19.57,19.57,0,0,1-5.47-1.66c-.45-.19-.9-.4-1.34-.62v3Z"/><path class="cls-1" d="M276.51,240.2a19.54,19.54,0,0,1,2.81.87,8.52,8.52,0,0,1,2.22,1.39,5.4,5.4,0,0,1,1.15,1.45,4.55,4.55,0,0,1,.27.63,5.4,5.4,0,0,0-.54-.4,8.81,8.81,0,0,0-1.45-.83,13.12,13.12,0,0,0-2.18-.76l-.14,0,7.22,4v4.94a21.57,21.57,0,0,1,3.34.69,11.26,11.26,0,0,1,2.66,1.08s-.11-.28-.29-.78-.5-1.18-.89-2-.83-1.82-1.39-2.85-1.21-2.11-1.9-3.2a31.92,31.92,0,0,0-2.29-3.11q-.62-.74-1.23-1.41c-.43-.43-.87-.83-1.31-1.2A11.25,11.25,0,0,0,280,237a4.58,4.58,0,0,0-2.5-.39,17.42,17.42,0,0,1-5.46-.25A49.93,49.93,0,0,1,266.2,235l-1.74-.47,9.48,5.3Z"/><path class="cls-1" d="M240.25,211.21c-.8,0-1.52-.05-2.12-.08-1.21-.07-1.94-.14-1.94-.14l.92.51,1.07.58c.41.23.9.46,1.4.75,1,.58,2.22,1.25,3.54,1.95l2,1.16,2.14,1.17c.71.41,1.43.82,2.16,1.22s1.48.77,2.18,1.17c1.41.79,2.86,1.46,4.16,2.07a18.78,18.78,0,0,0,3.65,1.32,5.09,5.09,0,0,0,2.74.1,20.48,20.48,0,0,1,7.19-1,12.7,12.7,0,0,1,2.76.38s-.73-1-1.91-2.37c-.59-.7-1.35-1.48-2.16-2.32s-1.72-1.73-2.71-2.56a36.26,36.26,0,0,0-3.05-2.38,26.61,26.61,0,0,0-3.13-1.83,10.34,10.34,0,0,0-2.94-.95,4.37,4.37,0,0,0-2.42.21,12.17,12.17,0,0,1-2.36.69,26.29,26.29,0,0,1-2.78.37c-1,.07-2,.11-2.92.11s-2,0-2.89,0S241,211.26,240.25,211.21Zm4.82,3a9.61,9.61,0,0,0,1.67-.15,16.3,16.3,0,0,0,2.26-.6c.84-.24,1.73-.57,2.67-.87a15.83,15.83,0,0,1,2.94-.44,8.67,8.67,0,0,1,2.6.31,6.46,6.46,0,0,1,1.68.74c.37.25.56.41.56.41a5.93,5.93,0,0,0-.67-.08,16.2,16.2,0,0,0-1.71-.06,15.9,15.9,0,0,0-2.32.24,15.57,15.57,0,0,0-2.6.63c-.91.21-1.85.47-2.78.65a8.63,8.63,0,0,1-2.61.09,5.4,5.4,0,0,1-1.78-.53,6,6,0,0,1-.59-.37A6.33,6.33,0,0,0,245.07,214.25Z"/><path class="cls-1" d="M212.77,197.56l2.09.51c.73.19,1.5.34,2.28.54l2.37.6c.8.2,1.63.36,2.43.58l2.42.57c.8.17,1.59.33,2.34.51s1.5.31,2.22.42,1.41.18,2,.27a14.05,14.05,0,0,0,1.78.1,5,5,0,0,0,2.62-.57,19.67,19.67,0,0,1,6.39-2.62,10.48,10.48,0,0,1,2.69-.3l-.67-.49c-.43-.31-1.07-.72-1.84-1.22s-1.69-1.08-2.71-1.66-2.16-1.13-3.33-1.69a34.46,34.46,0,0,0-3.59-1.44,19.8,19.8,0,0,0-3.5-.93,12.13,12.13,0,0,0-3-.19,4,4,0,0,0-2.22.78,15.15,15.15,0,0,1-4.53,2.15,50.09,50.09,0,0,1-5.47,1.49c-1.77.4-3.38.72-4.54.94l-1.9.35,3.8.86C211.48,197.26,212.11,197.39,212.77,197.56Zm4-.63a16.94,16.94,0,0,0,1.86-.32c.75-.13,1.6-.45,2.53-.71s1.93-.59,2.94-.92a27.77,27.77,0,0,1,3.16-.59,10.59,10.59,0,0,1,2.86.11,6.34,6.34,0,0,1,1.91.69,7.35,7.35,0,0,1,.63.41,6.93,6.93,0,0,0-.74-.08,10.35,10.35,0,0,0-1.86,0,18.58,18.58,0,0,0-2.56.42,25.39,25.39,0,0,0-2.91.79c-1,.24-2.06.51-3.06.71a12.84,12.84,0,0,1-2.82.19,7.22,7.22,0,0,1-2-.35,6.52,6.52,0,0,1-.7-.28S216.35,197,216.82,196.93Z"/><path class="cls-1" d="M191.08,432l.49-.28,21.34-11.94,8.17-4.58,1.59-.89,1.75-1,1.46-.82,2.35-1.32L243,402.94l5.89-3.3,1.3-.72,2.84-1.59.95-.54,2.7-1.51,14.34-8,6.48-3.62,1.16-.65,7.24-4.06V246.55l-7.22-4-4.71-2.64-9.48-5.3-63.11-35.33c-.17.49-.35,1-.53,1.52-.62,1.74-1.31,3.73-2,6l79.3,44.39V374.37L167.63,436.2,57.17,374.37V251.11l79.29-44.39c-.7-2.23-1.4-4.22-2-6-.19-.53-.36-1-.53-1.52L70.81,234.57l-9.48,5.3-4.71,2.64-7.22,4V378.92L56.64,383l1.16.65,6.47,3.62,14.35,8,2.7,1.51,1,.54,2.84,1.59,1.29.72,5.89,3.3L107,411.19l2.35,1.32,1.46.82,1.75,1,1.59.89,8.17,4.58,21.34,11.94.45.25,9.61,5.39.32.18,1.36.76,2.94,1.64,9.25,5.18,9.26-5.18,2.93-1.64,1.36-.76.32-.18Z"/><path class="cls-1" d="M196.2,216.73l71.58,40.07v94.75l-34.95,11.84-.06,24.88-65.14,36.46-65.14-36.46,0-24.88-35-11.84V256.8l71.59-40.07c-.34-1.7-.72-3.31-1.12-4.83L62.72,254V371.47l104.91,58.72,104.92-58.72V254L197.31,211.9C196.92,213.42,196.54,215,196.2,216.73Z"/><polygon class="cls-1" points="169.24 412.68 167.63 409.43 166.03 412.68 162.44 413.2 165.04 415.73 164.42 419.3 167.63 417.62 170.84 419.3 170.23 415.73 172.83 413.2 169.24 412.68"/><text class="cls-2" transform="translate(67.95 366.13)">1</text></svg>