<svg id="Слой_1" data-name="Слой 1" xmlns="http://www.w3.org/2000/svg" xmlns:xlink="http://www.w3.org/1999/xlink" viewBox="0 0 1142.66 738.72"><defs><style>.cls-1{fill:none;}.cls-2{fill:#12100b;}.cls-3,.cls-8{fill:#f3e600;}.cls-4{clip-path:url(#clip-path);}.cls-5{clip-path:url(#clip-path-2);}.cls-6{clip-path:url(#clip-path-3);}.cls-7{fill:#fff;}.cls-8{stroke:#f1e511;stroke-miterlimit:10;stroke-width:3px;}</style><clipPath id="clip-path"><rect class="cls-1" x="-60.73" width="1264.12" height="762.21"/></clipPath><clipPath id="clip-path-2"><rect id="SVGID" class="cls-1" x="573.31" y="-108.99" width="632.31" height="636.43"/></clipPath><clipPath id="clip-path-3"><rect id="SVGID-2" data-name="SVGID" class="cls-1" x="245.94" y="-115.25" width="959.35" height="639.57"/></clipPath></defs><rect class="cls-2" x="781.57" y="297.36" width="106.58" height="106.58" transform="translate(1669.73 701.3) rotate(-180)"/><rect class="cls-3" x="812.16" y="327.95" width="45.4" height="45.4" transform="translate(1669.73 701.3) rotate(180)"/><g class="cls-4"><rect class="cls-2" x="424.64" y="241.36" width="292.81" height="102.04"/><g class="cls-5"><g class="cls-6"><rect class="cls-2" x="885.55" y="-8.67" width="106.58" height="106.58"/><path class="cls-2" d="M992.13-8.67h0a0,0,0,0,1,0,0V97.91a0,0,0,0,1,0,0H885.55a0,0,0,0,1,0,0v0A106.58,106.58,0,0,1,992.13-8.67Z"/><path class="cls-2" d="M992.13-8.67h0A106.58,106.58,0,0,1,1098.71,97.91v0a0,0,0,0,1,0,0H992.13a0,0,0,0,1,0,0V-8.67A0,0,0,0,1,992.13-8.67Z"/><path class="cls-7" d="M885.55,97.91H992.13a0,0,0,0,1,0,0V204.49a0,0,0,0,1,0,0h0A106.58,106.58,0,0,1,885.55,97.91v0A0,0,0,0,1,885.55,97.91Z"/><path class="cls-7" d="M992.13,97.91h106.58a0,0,0,0,1,0,0v0A106.58,106.58,0,0,1,992.13,204.49h0a0,0,0,0,1,0,0V97.91A0,0,0,0,1,992.13,97.91Z"/><path class="cls-3" d="M992.13,97.91H939.36a52.77,52.77,0,0,1,52.77-52.77h0Z"/><path class="cls-7" d="M992.13,45.14h0a52.77,52.77,0,0,1,52.77,52.77v0a0,0,0,0,1,0,0H992.13a0,0,0,0,1,0,0V45.14A0,0,0,0,1,992.13,45.14Z"/><path class="cls-3" d="M992.13,150.69h0V97.91h52.77A52.78,52.78,0,0,1,992.13,150.69Z"/></g><path class="cls-2" d="M844.86,101.62H496.91a174,174,0,0,0,174,174h348A174,174,0,0,0,844.86,101.62Z"/></g><path class="cls-7" d="M261.29,317.26h0a0,0,0,0,1,0,0V423.84a0,0,0,0,1,0,0H154.71a0,0,0,0,1,0,0v0A106.58,106.58,0,0,1,261.29,317.26Z" transform="translate(416.01 741.1) rotate(180)"/><path class="cls-2" d="M48.13,317.26h0A106.58,106.58,0,0,1,154.71,423.84v0a0,0,0,0,1,0,0H48.13a0,0,0,0,1,0,0V317.26A0,0,0,0,1,48.13,317.26Z" transform="translate(202.85 741.1) rotate(180)"/><path class="cls-2" d="M154.71,210.68H261.29a0,0,0,0,1,0,0V317.26a0,0,0,0,1,0,0h0A106.58,106.58,0,0,1,154.71,210.68v0A0,0,0,0,1,154.71,210.68Z" transform="translate(416.01 527.94) rotate(-180)"/><path class="cls-7" d="M48.13,210.68H154.71a0,0,0,0,1,0,0v0A106.58,106.58,0,0,1,48.13,317.26h0a0,0,0,0,1,0,0V210.68A0,0,0,0,1,48.13,210.68Z" transform="translate(202.85 527.94) rotate(-180)"/><path class="cls-3" d="M154.71,317.26h52.78A52.77,52.77,0,0,1,154.71,370h0Z"/><path class="cls-7" d="M101.94,317.26h0A52.77,52.77,0,0,1,154.71,370v0a0,0,0,0,1,0,0H101.94a0,0,0,0,1,0,0V317.26A0,0,0,0,1,101.94,317.26Z" transform="translate(256.66 687.29) rotate(180)"/><path class="cls-3" d="M154.71,264.49h0v52.77H101.94A52.78,52.78,0,0,1,154.71,264.49Z"/><path class="cls-2" d="M257.61,275.14H605.56a174,174,0,0,0-174-174h-348A174,174,0,0,0,257.61,275.14Z"/><rect class="cls-2" x="415.94" y="101.24" width="217.05" height="181.66"/><rect class="cls-2" x="238.97" y="262.02" width="380.89" height="20.89"/><rect class="cls-2" x="196.46" y="203.76" width="423.39" height="58.54"/><rect class="cls-2" x="467.48" y="101.24" width="161.34" height="67.36"/><path class="cls-2" d="M378.22,506.27h0V282.44h0A111.91,111.91,0,0,1,490.14,394.35V618.18h0A111.91,111.91,0,0,1,378.22,506.27Z"/><path class="cls-2" d="M747.92,506.27h0V282.44h0A111.91,111.91,0,0,0,636,394.35V618.18h0A111.91,111.91,0,0,0,747.92,506.27Z"/><rect class="cls-2" x="484.86" y="282.44" width="154.23" height="335.75"/><path class="cls-2" d="M747.92,213.23A112,112,0,0,0,639.09,299V213.23H484.86V291.1a112,112,0,0,0-106.63-77.87h0V437.06h0A111.92,111.92,0,0,0,484.86,548.85V549H639.09v-.05A111.91,111.91,0,0,0,747.92,437.06h0V213.23Z"/><path class="cls-3" d="M463.78,576.92a79.94,79.94,0,0,0,9.73,4.19,42.72,42.72,0,0,0,5.35.2,49.42,49.42,0,0,0,6.37-.3,48.6,48.6,0,0,0,6.33-.82,43.87,43.87,0,0,0,5.5-1.2,39.08,39.08,0,0,0,3.91-1.08l1.51-.42-1.24,1a37.91,37.91,0,0,1-3.55,2.18,45.68,45.68,0,0,1-5.49,2.2,52.15,52.15,0,0,1-6.67,1.3,47.15,47.15,0,0,0,6.25.43c18.32,0,29.57-11.56,35.76-21.18a50.94,50.94,0,0,1-5.45,6,55.23,55.23,0,0,1-15.85,10.44,51.73,51.73,0,0,1-5.84,2.13c-1.43.44-2.26.64-2.26.64s.81-.27,2.2-.83a52.9,52.9,0,0,0,5.58-2.6,54,54,0,0,0,14.48-11.42A53.26,53.26,0,0,0,530,552.28c.42-1.08.78-2.08,1.08-3-.59.94-1.22,1.9-1.9,2.84a62.36,62.36,0,0,1-7.14,8.38,62.05,62.05,0,0,0,5.08-9.53,60.76,60.76,0,0,0,3.21-10.06,11.58,11.58,0,0,0-9.09-3.94,13.76,13.76,0,0,0-3.12.33C510.46,576.4,463.78,576.92,463.78,576.92Zm42.84-14.66.72-.74c.47-.45,1.09-1.15,1.84-2s1.53-1.82,2.41-2.86a37.06,37.06,0,0,0,2.46-3.48,39,39,0,0,0,2.15-3.68c.59-1.23,1.21-2.36,1.6-3.39s.81-1.87,1-2.48.37-1,.37-1l-.08,1a18.67,18.67,0,0,1-.47,2.69,25,25,0,0,1-1.21,3.69,39.38,39.38,0,0,1-2.06,4,38.21,38.21,0,0,1-2.74,3.52,24.5,24.5,0,0,1-2.85,2.62,18.64,18.64,0,0,1-2.25,1.55Z"/><path class="cls-3" d="M521.21,532.27a16.71,16.71,0,0,1,12.95,5.93l1-7.63.91,3.24c.07-1,.13-2,.21-3,.15-2.36.36-4.58.59-6.63.84-8.2,2-13.6,2-13.6s.42,5.5.69,13.69c.07,2,.15,4.27.23,6.61s.19,4.81.21,7.36.15,5.19.23,7.86.15,5.4.23,8.12c0,1.79.09,3.57.14,5.36.88,12.07,2.24,26.33,4.33,41,5.51,38.55,16.39,70.19,28.19,86.71,10.06,14.08,22.4,28.7,35.26,34.92a30.69,30.69,0,0,0,9.87,1.74c15.4,0,25.45-12.79,23.85-18.86-1.4-5.32-6-10-10.23-10a5.51,5.51,0,0,0-1.83.32,4.28,4.28,0,0,0-.66,1.45,6.4,6.4,0,0,0,.12,4.07,8.24,8.24,0,0,0,2.08,3.75,9.72,9.72,0,0,0,3.11,2.5,8.92,8.92,0,0,0,2.77,1.15,5.48,5.48,0,0,0,.87.22l.31.07-.3.09a8.09,8.09,0,0,1-.9.23,10.35,10.35,0,0,1-3.37-.1,12,12,0,0,1-4.38-2.2,11.23,11.23,0,0,1-1.91-2.18l-.4,2.3-1.09-1.85c0,.14,0,.28,0,.42a28.11,28.11,0,0,0-.35,3.93c0,.11,0,.22,0,.34l.21.09a3.74,3.74,0,0,0,1.56.22,4.62,4.62,0,0,0,1.71-.44,4,4,0,0,0,.74-.45,4.56,4.56,0,0,1-.42.8,5.47,5.47,0,0,1-1.47,1.52,5.9,5.9,0,0,1-2.1.94l-.29.05c0,.14,0,.3,0,.43a19,19,0,0,0,0,2.58c0,.65,0,1,0,1l-.58-.85A21.31,21.31,0,0,1,624.1,713a27.79,27.79,0,0,1-.91-3.72c-.08-.89-.1-1.84-.09-2.8-1,1.79-2.71,2.9-6.94,2.9a8.63,8.63,0,0,1-2.91-.51,6.9,6.9,0,0,0-1.11,1.31l0,0,2.13,2.54-3.45-.35a6.77,6.77,0,0,0-.36.65l2.22,2.49-3.2-.18c-.15.38-.27.75-.38,1.09-.29.66-.51,1.23-.65,1.64l-.31.64-.31-.65c-.13-.42-.32-1-.49-1.78a15.82,15.82,0,0,1-.06-2.63,12.64,12.64,0,0,1,.9-3,10.47,10.47,0,0,1,2.09-2.46c.25-.17.5-.29.75-.43-3.09-1.9-6.54-5.67-10.8-12.14a11.88,11.88,0,0,0-1.38,1l2.32,4.18-4.38-2.39-.39.33,5,8-7-6c-.24.26-.46.51-.65.76a9.53,9.53,0,0,0-1.09,1.23l-.46.5s0-.25-.12-.68a10,10,0,0,1,.07-1.8,13,13,0,0,1,.86-2.4,15.34,15.34,0,0,1,1.81-2.32,15.13,15.13,0,0,1,2.5-1.55A14.65,14.65,0,0,1,599,694a75.09,75.09,0,0,1-9.36-18.58c-.41.26-.91.6-1.5,1s-1.38.82-2.13,1.32l-.09,1.88-1.72-.81c-.37.23-.75.46-1.11.71-.57.29-1.12.59-1.66.89l5.72,10.13-8.31-8.68c-.32.18-.63.36-.91.54-.77.35-1.39.7-1.83.94l-.75.34s.12-.27.31-.76.61-1.1,1.09-1.84a27.11,27.11,0,0,1,2-2.23,29.71,29.71,0,0,1,2.75-2,33.63,33.63,0,0,1,3.12-1.39c1.07-.28,2.06-.51,2.91-.66s1.36-.08,1.85-.09a126.46,126.46,0,0,1-4.73-18.41l-.22-.06.15-.36c-6-33.18-2.1-72.37,1.33-93.7.07-2.63.14-5.31.21-8s.15-5.44.23-8.12.15-5.31.23-7.86.16-5,.21-7.36.16-4.56.22-6.61c.28-8.19.7-13.69.7-13.69s1.16,5.4,2,13.6c.22,2,.42,4.11.57,6.36L591,522l1.83,12.58,1.33-5.2,1.49,5.82a17.5,17.5,0,0,1,9.75-2.94h0a19.69,19.69,0,0,1,2.53.16c-.34-3.25-.77-6.06-1.23-8.44-.69-1.66-1.51-3.69-2.39-6-.61-1.62-1.28-3.39-1.92-5.27s-1.37-3.85-2-5.91-1.4-4.18-2-6.37-1.32-4.41-1.92-6.7-1-4.64-1.34-7a37.68,37.68,0,0,1-.29-7,29.81,29.81,0,0,1,3.09-12,24,24,0,0,1,5.17-7,20,20,0,0,1,1.86-1.51l.69-.48s-.17.24-.5.67-.79,1.09-1.34,1.92a31.47,31.47,0,0,0-3.37,7.37c-.16.55-.3,1.14-.45,1.72.16-.23.29-.47.47-.69a20.09,20.09,0,0,1,3-2.48l2.81-1.52c.86-.36,1.57-.69,2-1l.81-.36s-.14.3-.4.81-.78,1.13-1.38,1.9l-1,1a3.2,3.2,0,0,1,1.91,1.13,3.11,3.11,0,0,1,.53,1.08,10.88,10.88,0,0,0,.62-2,10.25,10.25,0,0,0,.23-1,10.42,10.42,0,0,1,.38,1,11.64,11.64,0,0,1,.3,2.83,12.16,12.16,0,0,1-1.12,4,23.42,23.42,0,0,1-2.75,3.67,29.28,29.28,0,0,0-2.83,2.92,8.65,8.65,0,0,0-1.8,2.81,5.21,5.21,0,0,0-.59,2.36,4.68,4.68,0,0,0,0,1,4.35,4.35,0,0,1-.63-.88,6.59,6.59,0,0,1-.54-2.88,11,11,0,0,1,1.29-4,31.16,31.16,0,0,1,2.8-3.54l.47-.46a3.65,3.65,0,0,1-3.74-1.08,1.9,1.9,0,0,1-.2-.34,11.2,11.2,0,0,0-1,2.22A10.35,10.35,0,0,0,599,479l0,.11c0,.21,0,.42,0,.63a49.83,49.83,0,0,0,.64,6.3,65.45,65.45,0,0,0,1.41,6.51c.52,2.19,1.12,4.4,1.72,6.59s1.08,4.28,1.6,6.34l2.54-9.35.51,7.41c.31-.94.61-1.94.9-3,.59-1.77,1.13-3.69,1.58-5.62s1-3.83,1.41-5.66.82-3.54,1.05-5,.58-2.74.72-3.63l.3-1.4.31,1.41c.13.89.31,2.18.43,3.74s0,3.38-.12,5.34c-.12,1-.27,1.93-.44,2.92A66,66,0,0,0,615.65,482c.88-7.5.73-12.67,0-16.79a39.68,39.68,0,0,0-1.81-3.79,28.15,28.15,0,0,0-3.17-4.76,46.36,46.36,0,0,0-3.93-4.39l-4.2-4.19a50.32,50.32,0,0,1-7-8.32,22.86,22.86,0,0,1-3.2-7.09,14.75,14.75,0,0,1-.38-2.13c0-.49-.07-.75-.07-.75a24.35,24.35,0,0,0,1.31,2.53,32.53,32.53,0,0,0,4.47,5.77,73.76,73.76,0,0,0,5.68,5.21c-.87-1.14-1.75-2.28-2.59-3.33s-1.62-2.32-2.31-3.27l-1.52-2.45-.53-1,1,.56,2.37,1.66c.91.77,2,1.68,3.07,2.68.55.57,1.12,1.17,1.69,1.79q-.39-.62-.81-1.23c-1.17-1.92-2.5-3.92-3.89-5.86s-2.68-4-4-5.75-2.55-3.54-3.7-4.94-2-2.69-2.68-3.52l-1-1.37,1.42.93c.87.63,2.11,1.56,3.54,2.74s2.92,2.76,4.53,4.44,3.05,3.7,4.52,5.7l.15.24a55,55,0,0,0-13-18.23c-1.74-1-11.08-5.85-26.17-5.85a60.47,60.47,0,0,0-21.48,3.71c-3.94,2.7-7.23,6.51-10.25,11.89,1-.88,1.84-1.59,2.48-2.1l1.3-.93-.85,1.35c-.58.81-1.39,2-2.28,3.44s-2,3-3.12,4.82c-.92,1.4-1.84,2.93-2.72,4.48-.88,2.18-1.64,4.21-2.3,6.09.38-.56.75-1.11,1.09-1.65.78-1,1.49-2,2.05-2.92s1.19-1.57,1.55-2.08l.64-.79s0,.37-.08,1-.27,1.52-.51,2.6-.77,2.23-1.27,3.5c-.23.46-.48.92-.73,1.39,1.14-1,2.2-2,3.13-3a32.53,32.53,0,0,0,4.47-5.77,24.35,24.35,0,0,0,1.31-2.53l-.07.75a14.75,14.75,0,0,1-.38,2.13,22.86,22.86,0,0,1-3.2,7.09,50.32,50.32,0,0,1-7,8.32l-4.2,4.19a46.36,46.36,0,0,0-3.93,4.39,28.15,28.15,0,0,0-3.17,4.76,33.5,33.5,0,0,0-2.29,5.1c-.26.74-.48,1.47-.7,2.21a65.73,65.73,0,0,0,.43,13.27,67.26,67.26,0,0,0,2.1,10.63c-.21-1.16-.4-2.31-.55-3.42-.12-1.77-.2-3.43-.2-4.84s.19-2.61.28-3.43.24-1.3.24-1.3.13.46.37,1.26.47,1.93.86,3.28.68,2.91,1.13,4.57.81,3.43,1.32,5.18.82,3.54,1.29,5.19l.09.36,1.39-7.44,1.39,6.73A60.54,60.54,0,0,0,526.72,488c.13-.66.27-1.32.37-2a48.1,48.1,0,0,0,.65-6.3,2.81,2.81,0,0,1,0-.29c0-.13-.08-.27-.14-.45a11,11,0,0,0-.69-2.07,11.2,11.2,0,0,0-1-2.22,2.77,2.77,0,0,1-.2.34,3.65,3.65,0,0,1-3.74,1.08l.47.46a31.16,31.16,0,0,1,2.8,3.54,11,11,0,0,1,1.28,4A6.47,6.47,0,0,1,526,487a4.35,4.35,0,0,1-.63.88,4.68,4.68,0,0,0,0-1,5.21,5.21,0,0,0-.59-2.36,8.82,8.82,0,0,0-1.8-2.81,29.28,29.28,0,0,0-2.83-2.92,23.42,23.42,0,0,1-2.75-3.67,11.69,11.69,0,0,1-1.12-4,11.16,11.16,0,0,1,.3-2.83,7.81,7.81,0,0,1,.38-1,7.5,7.5,0,0,0,.23,1,10.88,10.88,0,0,0,.62,2,3,3,0,0,1,.53-1.08,3.2,3.2,0,0,1,1.91-1.13l-1-1c-.6-.77-1.07-1.42-1.38-1.9l-.41-.81.82.36c.48.26,1.19.59,2,1l2.81,1.52a20.09,20.09,0,0,1,3,2.48c.24.3.42.62.63.94-.16-.67-.33-1.34-.52-2a30.67,30.67,0,0,0-3.37-7.37c-.54-.83-1-1.49-1.33-1.92l-.51-.67.69.48a19.9,19.9,0,0,1,1.87,1.51,24,24,0,0,1,5.17,7,29.81,29.81,0,0,1,3.09,12,37.7,37.7,0,0,1-.3,7,68.9,68.9,0,0,1-1.33,7c-.61,2.29-1.27,4.53-1.92,6.7s-1.38,4.3-2,6.37-1.36,4-2,5.91-1.31,3.65-1.92,5.27c-.78,2.08-1.52,3.92-2.16,5.47-.09.47-.19,1-.28,1.46q.46-.9,1-1.8a97.17,97.17,0,0,1,5.42-8.71,95.68,95.68,0,0,0-3.23,9.6C522.18,527.2,521.54,530.45,521.21,532.27ZM639.12,706.82l-.5-.46a14.8,14.8,0,0,0-1.15-1.18,17,17,0,0,0-1.45-1.62,20.36,20.36,0,0,0-1.58-1.82,23.77,23.77,0,0,0-1.5-1.88,19.17,19.17,0,0,0-1.34-1.72,15.9,15.9,0,0,0-1-1.34c-.22-.37-.35-.57-.35-.57l.68,0a15.94,15.94,0,0,1,1.68.44,20.88,20.88,0,0,1,2.14,1.14,25.23,25.23,0,0,1,2.06,1.87,10.56,10.56,0,0,1,2.21,4.67c.09.73.12,1.33.13,1.74S639.12,706.82,639.12,706.82ZM581.54,413.13l-1.65-.13c-1-.12-2.52-.28-4.29-.35-.68-.07-1.4-.13-2.15-.17l-2,6.95-2.33-7.1c-1.67-.07-3.41-.06-5.17,0a41.32,41.32,0,0,0-1.15,4.9,43.77,43.77,0,0,0-.57,5.49,43.82,43.82,0,0,1-1.79-5.37,42.11,42.11,0,0,1-1-4.9c-1.24.06-2.47.14-3.64.25l-.87.07-2.61,5.09-1.61-4.66-.91.13c-1.77.17-3.24.41-4.27.59l-1.64.22,1.49-.73c1-.41,2.37-1,4.09-1.56s3.8-1,6-1.46,4.67-.58,7.09-.72,4.85.13,7.12.35,4.33.71,6.09,1.15,3.18,1,4.17,1.33Zm4.79,18.06-2-.49c-.62-.19-1.39-.38-2.27-.57s-1.87-.43-3-.59-2.44-.49-3.79-.68a28.09,28.09,0,0,0-1.14,3.1,33.69,33.69,0,0,0-1,4.25,34.36,34.36,0,0,1-2-7.81,62.11,62.11,0,0,0-7.66-.3l-2.4,7.32-1.69-7.21c-1.6.09-3.18.23-4.69.43l-2.46.32-1.93,11.71-2.6-10.85-.39.09c-1.09.19-2.07.42-2.95.65s-1.64.42-2.25.62l-2,.54,1.76-1.1c.57-.34,1.28-.7,2.11-1.1s1.76-.88,2.81-1.31a58,58,0,0,1,7.45-2.26,64.58,64.58,0,0,1,8.91-1,63.9,63.9,0,0,1,8.92.79,57.08,57.08,0,0,1,7.5,2.09c1.06.41,2,.84,2.84,1.24s1.56.73,2.14,1.05Zm8.31,39.59c-.31.87-.61,1.59-.77,2.12l-.3.81v-.87a15.25,15.25,0,0,1,.21-2.29,21.3,21.3,0,0,1,.75-3.17,21.77,21.77,0,0,1,3.4-6.64,21.05,21.05,0,0,1,2.14-2.45,14.54,14.54,0,0,1,1.73-1.51l.71-.51L602,457c-.33.43-.74,1.1-1.27,1.86s-1.07,1.69-1.69,2.65a35.7,35.7,0,0,0-1.72,3.13,32.45,32.45,0,0,0-1.53,3.23C595.39,468.93,594.92,469.9,594.64,470.78Zm4.51,42.46c-1.06-2.76-2.19-5.72-3.33-8.67s-2-6-2.68-8.94a46.73,46.73,0,0,1-1.24-8.08,29,29,0,0,1,.22-5.77c.2-1.38.38-2.15.38-2.15s-.07.8-.08,2.17a39.38,39.38,0,0,0,.36,5.67,58.43,58.43,0,0,0,1.68,7.82c.77,2.83,1.77,5.8,2.85,8.76s2.13,5.94,3.12,8.73,1.83,5.42,2.6,7.66,1.3,4.15,1.73,5.47l.61,2.08-.9-2c-.54-1.27-1.37-3.06-2.27-5.26S600.21,516,599.15,513.24Zm-9-16.09.45.79c.25.52.67,1.24,1.07,2.14s.91,1.93,1.35,3.07.91,2.36,1.39,3.58.81,2.49,1.19,3.65.63,2.29.9,3.24.39,1.76.52,2.32l.16.9-.45-.79c-.25-.52-.67-1.24-1.07-2.14s-.91-1.93-1.35-3.07L593,507.26l-1.2-3.65c-.38-1.16-.63-2.29-.9-3.23s-.39-1.77-.52-2.33ZM563.52,661.77l.61-.74c.42-.43,1-1,1.81-1.72s1.82-1.28,2.91-2,2.39-1.15,3.67-1.66,2.65-.69,3.91-.93,2.48-.2,3.51-.22,1.89.17,2.49.25l.93.21-.87.4c-.56.19-1.35.49-2.27.88-.75.23-1.61.54-2.49.88l1.29,8-4-7.09-1.48.55c-1.23.36-2.44.76-3.57,1.18h0l3.33,13.3-6-12.43-.45.15c-1,.25-1.78.5-2.34.69Zm-8.6-25.87.9-.67c.6-.38,1.46-.9,2.53-1.5s2.4-1,3.83-1.56,3-.8,4.62-1.1,3.23-.25,4.75-.26,2.93.25,4.12.44,2.17.55,2.84.75l1,.41-1.1.2c-.7.07-1.68.19-2.84.4-.89.07-1.9.21-2.94.37l.16,10.83L568.53,634l-1.28.21c-.73.07-1.46.17-2.18.27l-.9,5.33L561,635.06c-.77.11-1.5.23-2.15.36-1.18.12-2.17.27-2.85.38Zm-6-29.69,1.14-.6c.74-.33,1.81-.78,3.13-1.25s2.91-.78,4.63-1.14,3.58-.41,5.45-.5c1.86.07,3.72.21,5.45.42s3.3.7,4.64,1.08,2.4.9,3.15,1.21l1.15.59h-1.29c-.8,0-1.94-.09-3.3-.07-.73-.05-1.54-.08-2.38-.09l-2.56,14.77-1.89-14.83c-1,0-2,0-3,.05s-2.14,0-3.2,0l-1.9,6.31L556.35,606c-1,0-2,.06-2.82.14-1.36,0-2.51,0-3.31.11Zm-3.13-31.3,1.34-.65c.87-.36,2.13-.85,3.67-1.37s3.4-.85,5.39-1.24,4.17-.45,6.34-.55c2.16.07,4.32.23,6.34.46s3.85.76,5.41,1.18,2.81,1,3.68,1.32l1.35.63-1.48,0c-.93-.07-2.26-.15-3.85-.17-1.4-.12-3-.18-4.75-.2l-2.08,4.44-2.11-4.51c-.83,0-1.66,0-2.49,0-1.82,0-3.63,0-5.37.08l-2.59,13.25-1.76-13.08c-.6,0-1.17.08-1.71.14-1.59,0-2.91.13-3.84.22Zm-1.12-31.28,1.5-.69c1-.38,2.37-.91,4.08-1.46s3.78-.91,6-1.33,4.62-.48,7-.58c2.4.07,4.8.24,7,.49s4.27.8,6,1.25,3.12,1,4.1,1.4l1.5.67-1.64-.08c-.91-.08-2.2-.18-3.71-.23l-2.52,12.67-1.93-12.92-2-.05c-1.85-.09-3.81-.11-5.78-.07l-3,7.14L560,542.72c-1.18,0-2.34.07-3.47.15-2.17.06-4.2.16-5.94.36s-3.23.2-4.26.31Zm36-31.21c-1-.09-2.5-.21-4.26-.25-1.06-.11-2.24-.17-3.48-.22l-2.66,12.91-1.66-13c-1.61,0-3.26-.06-4.92,0-2.15,0-4.3,0-6.34.14l-2.63,7.77-1.49-7.59c-.79.05-1.55.12-2.25.19-1.76.07-3.23.2-4.26.31l-1.64.1,1.5-.69c1-.39,2.37-.91,4.08-1.46s3.78-.92,6-1.33,4.62-.48,7-.58c2.4.07,4.8.23,7,.49s4.27.79,6,1.25,3.12,1,4.1,1.4l1.5.66Zm-40-27.14,1.94-.75c1.24-.41,3-1,5.22-1.58s4.8-1,7.59-1.45,5.83-.53,8.85-.63c3,.06,6,.24,8.86.51s5.4.85,7.61,1.34,4,1.1,5.25,1.5l1.94.71-2.06-.12c-1.3-.12-3.16-.27-5.39-.35-1.16-.11-2.43-.18-3.77-.24l-1.83,7-2.21-7.14c-2.38-.11-4.89-.14-7.41-.09l-2,15.68L561.07,484c-.81,0-1.6,0-2.4.06l-1.23,5.1-1.45-5h-.33c-1.07,0-2.11.08-3.11.14L550.16,492l-1.9-7.32h-.15c-2.23.11-4.08.29-5.38.43Zm-2.9-28.13,2.1-1c.67-.33,1.51-.66,2.48-1.05s2.07-.81,3.29-1.22a78.58,78.58,0,0,1,8.54-2.1,62.24,62.24,0,0,1,20.14-.14,84.71,84.71,0,0,1,8.57,1.94c1.23.38,2.34.78,3.31,1.15s1.83.67,2.51,1l2.13,1-2.31-.4c-.72-.16-1.6-.32-2.62-.48l-.55-.09-2.46,7.15-.38-7.56h0c-1.53-.27-3.25-.48-5.06-.66l-3.28,15.17-1.25-15.53c-2.09-.15-4.25-.23-6.44-.24l-1.63,14.21L562.15,454c-1.75,0-3.47.11-5.16.23l-1.86,4.91-2.19-4.57c-2.23.21-4.31.49-6.17.83l-.77,7.94-2-7.48c-.45.08-.9.16-1.31.25-1,.19-1.89.36-2.61.55Zm-4.94,12.24-.42-.61c-.23-.4-.63-.94-1-1.61s-1-1.4-1.49-2.21-1.15-1.65-1.79-2.45-1.23-1.66-1.86-2.4-1.18-1.48-1.72-2.05-.93-1.12-1.25-1.45l-.47-.58.67.34a14.94,14.94,0,0,1,1.65,1,18.37,18.37,0,0,1,2.12,1.78c.71.72,1.43,1.53,2.12,2.37s1.19,1.81,1.69,2.69a18.82,18.82,0,0,1,1.12,2.53,14.22,14.22,0,0,1,.55,1.88C532.77,469.12,532.82,469.39,532.82,469.39Zm-4.15,39.92.44-1.36c.31-.86.66-2.12,1.12-3.6s.87-3.24,1.35-5.1.86-3.89,1.17-5.93.62-4.06.78-6,.33-3.72.34-5.27.11-2.86.09-3.77,0-1.43,0-1.43l.28,1.41a34.52,34.52,0,0,1,.49,3.77,45.67,45.67,0,0,1,.14,5.38c-.09,2-.29,4.06-.59,6.15s-.86,4.12-1.4,6a46.64,46.64,0,0,1-1.84,5.06,36.72,36.72,0,0,1-1.67,3.41Z"/><path class="cls-3" d="M605.23,473.24a4.32,4.32,0,0,0,.33-.5,4.24,4.24,0,0,0,.42-.43c.12-.15.33-.25.45-.39s.31-.21.4-.29l.19-.12s0,.07.1.2a1.64,1.64,0,0,1,.13.54,2.15,2.15,0,0,1-.08.73,5.78,5.78,0,0,1-.38.74,4.5,4.5,0,0,1-.64.53,2,2,0,0,1-.69.24,1.67,1.67,0,0,1-.55,0l-.22-.06.07-.21c.06-.11.11-.31.2-.46S605.11,473.38,605.23,473.24Z"/><path class="cls-3" d="M521.86,474.49a2.67,2.67,0,0,1-.73-.2c-.24-.13-.48-.28-.72-.44s-.38-.44-.54-.66a2.64,2.64,0,0,1-.3-.7,2.58,2.58,0,0,1-.07-.56c0-.16,0-.24,0-.24l.23.05a4.9,4.9,0,0,1,.51.19,5,5,0,0,1,.6.32c.18.14.38.28.58.41s.33.37.49.53a4.33,4.33,0,0,1,.39.55,3,3,0,0,1,.26.49l.08.22-.23,0A2.15,2.15,0,0,1,521.86,474.49Z"/><path class="cls-3" d="M605.32,560.38c1.6,2,2.8,3.21,2.8,3.21s-1.39-1-3.33-2.7a55.23,55.23,0,0,1-6.6-6.88c-.25-.31-.49-.64-.74-1a62.42,62.42,0,0,0,3.12,5.89,55,55,0,0,0,12.2,13.88,55.61,55.61,0,0,0,6.74,4.65c1,.63,2,1.14,2.89,1.57s1.64.83,2.29,1.09l2,.87-2.11-.68c-.68-.21-1.49-.51-2.4-.89a32.9,32.9,0,0,1-3.05-1.31,56.21,56.21,0,0,1-7.28-4.09,57.27,57.27,0,0,1-14-13.28c-.72-1-1.39-2-2-2.94,5.06,9.94,16.87,26.76,39,26.76a53,53,0,0,0,16.32-2.77c-1.92.23-3.9.41-5.91.49a75.7,75.7,0,0,1-7.72-.61,67.25,67.25,0,0,1-6.55-1.55c-1.87-.63-3.39-1.25-4.43-1.7l-1.62-.8,1.79.21c1.11.18,2.71.41,4.63.57s4.11.45,6.48.56a127.46,127.46,0,0,0,14.8-.09,65,65,0,0,0,6.48-.65l1.27-.13c.82-.38,1.63-.75,2.46-1.18,0,0-38.58-.44-51.3-29.89.73,3.29,1.54,6,1.54,6a84.18,84.18,0,0,1-4.39-8.24,82.92,82.92,0,0,1-3.14-7.76h-.12a11.45,11.45,0,0,0-9.78,4.85c.19.66.45,1.52.8,2.52a52.72,52.72,0,0,0,3.7,8.34A54.58,54.58,0,0,0,605.32,560.38Zm.89-5.33a15.07,15.07,0,0,1-1.35-1,21.3,21.3,0,0,1-1.73-1.58c-.57-.63-1.17-1.32-1.75-2s-1-1.52-1.46-2.25a19.32,19.32,0,0,1-1-2.1,15.51,15.51,0,0,1-.57-1.57l-.16-.61.43.47c.25.31.66.72,1.06,1.26s.93,1.12,1.41,1.8,1,1.37,1.59,2.06,1,1.44,1.53,2.09.92,1.33,1.34,1.86.68,1,.91,1.36l.34.55Z"/><path class="cls-3" d="M413.42,456c0,1.36.06,2.74.16,4.13L423,454.3,414.08,465c0,.26.07.51.1.77l5.34-3.29-4.49,8a112.6,112.6,0,0,0,11.31,29.93l4.68-3.68-.88,2.84c.41-.38.83-.76,1.26-1.13a66.5,66.5,0,0,1,7.05-5.43,66.36,66.36,0,0,0-5.27,7,62.51,62.51,0,0,0-3.56,6.17c8.67,14.3,20.13,27.14,32.64,35.49l12.33-15.75-8.45,17.63,4.65-4.38L469.57,546a57.08,57.08,0,0,0,8.11,3.34,148.42,148.42,0,0,0,24.2,1.2c2-7.89,4.95-22.4,3.32-34.14-2.08-15.06-5.56-14.71-7.19-29.09a15.54,15.54,0,0,0-4,1.45,15.81,15.81,0,0,0-3.88,2.92,15.19,15.19,0,0,0-1.48,1.75,14.6,14.6,0,0,1,.87-2.17,17.51,17.51,0,0,1,3-4.36,18.17,18.17,0,0,1,4.41-3.39l.66-.35c-.06-.75-.11-1.53-.16-2.36a38,38,0,0,0-5.71-17.73c-.55-.33-1.09-.65-1.69-1a50.78,50.78,0,0,0-12.13-4.62,48.24,48.24,0,0,0-29.82,2.45,53,53,0,0,0-11.7,6.78,49,49,0,0,0-7.05,6.63c-.8.87-1.34,1.62-1.75,2.1l-.6.76.53-.81c.36-.52.83-1.32,1.55-2.26a50.55,50.55,0,0,1,6.52-7.35,54.68,54.68,0,0,1,11.44-8.1,52.18,52.18,0,0,1,15.38-5.28,53.13,53.13,0,0,1,16.49-.21c1.43.21,2.82.48,4.17.78-1.07-.7-2.24-1.42-3.45-2.09a79,79,0,0,0-9.78-4.69s3.64.56,7.88,1.69a72.14,72.14,0,0,0-13.57-8.38L503.29,450l-3.24-3.18,5.69,1.88c-.27-.67-.55-1.34-.88-2a30.16,30.16,0,0,0-3.56-5.56,29.57,29.57,0,0,0-2.08-2.31,27.66,27.66,0,0,1,2.86,1.36,32.6,32.6,0,0,1,5.87,4.08l.1.1c1.32-4.63,2.92-9.5,4.67-14.39a14.49,14.49,0,0,1,2.49-4.61,105.3,105.3,0,0,0-17.09-2,106.89,106.89,0,0,0-17.89.88c-2.44.31-4.47.67-5.88.95l-2.23.43,2.14-.76c1.36-.48,3.32-1.15,5.72-1.83a109.37,109.37,0,0,1,12.8-2.88c-1.39.06-2.8.14-4.21.25A143.66,143.66,0,0,0,471,422.88c-4.76,1-7.89,1.86-7.89,1.86s3-1.15,7.71-2.57a141.46,141.46,0,0,1,17.28-4.08,157.55,157.55,0,0,0-17.67,1.64c-3.55.54-7.07,1.3-10.51,2.18a102.56,102.56,0,0,0-9.91,3.22,81.82,81.82,0,0,0-16.38,8.62,64.71,64.71,0,0,0-10,8.53c-1.15,1.12-1.92,2.11-2.49,2.75l-.87,1,.8-1c.53-.67,1.24-1.72,2.31-2.92a65.88,65.88,0,0,1,9.56-9.29A83.94,83.94,0,0,1,449,422.84a102.52,102.52,0,0,1,10-4,107.69,107.69,0,0,1,10.71-3c14.49-3.21,29.44-4.27,40.76-3.5a86.32,86.32,0,0,1,13.69,1.89c1.66.36,3,.74,3.83,1l.62.18a58.11,58.11,0,0,1,4.38-4.75c-4.44-2.39-13-5.6-27.32-5.6-9.4,0-21.26,1.39-36,5.34C437.34,419.08,413.42,430,413.42,456Zm52.52-43.25,2.42-.73c1.55-.43,3.76-1.08,6.46-1.64s5.85-1.22,9.27-1.69,7.09-.81,10.77-1.06,7.37-.18,10.82-.09,6.66.39,9.4.69,5,.69,6.59.95l2.49.46-2.52-.16c-1.6-.14-3.89-.24-6.63-.37s-5.94-.16-9.36-.21-7.07.09-10.71.3-7.28.46-10.68.84-6.58.75-9.28,1.21-5,.76-6.55,1.07Zm29.4,21.87c-1.19-.54-2.4-1-3.56-1.44s-2.23-.83-3.19-1.09-1.74-.57-2.3-.72l-.88-.28.93,0a21.25,21.25,0,0,1,2.44.16,24.42,24.42,0,0,1,3.41.66c1.22.36,2.51.8,3.77,1.3s2.43,1.22,3.53,1.87a25.06,25.06,0,0,1,2.81,2.05,19.43,19.43,0,0,1,1.78,1.68l.62.69-.81-.46c-.49-.31-1.24-.69-2.1-1.19s-1.9-1-3-1.58S496.55,435.13,495.34,434.63Zm-39.84.09,1.74.06c1.11.08,2.7.13,4.6.37s4.1.5,6.44,1,4.83,1,7.3,1.63,4.88,1.46,7.14,2.23,4.3,1.65,6.06,2.39,3.16,1.49,4.16,2,1.55.82,1.55.82l-1.67-.53c-1-.37-2.56-.83-4.36-1.43s-3.92-1.21-6.17-1.93-4.68-1.38-7.12-2-4.86-1.29-7.17-1.81-4.44-1.06-6.31-1.41-3.39-.74-4.48-.94ZM500,544.31s.06-.56.16-1.53.23-2.36.41-4,.29-3.59.47-5.65.26-4.28.29-6.49.11-4.42.06-6.49,0-4-.15-5.68-.12-3.05-.2-4-.06-1.54-.06-1.54.13.54.37,1.49.54,2.32.77,4,.51,3.61.64,5.71.16,4.34.14,6.58-.28,4.48-.51,6.58-.62,4-.95,5.66-.73,3-1,3.94S500,544.31,500,544.31Zm-13.25-80.67c-.69-.65-1.28-1.22-1.73-1.57l-.69-.58.85.32a12.09,12.09,0,0,1,2.12,1.14,15.43,15.43,0,0,1,2.67,2.16,24,24,0,0,1,2.46,3.09,24.91,24.91,0,0,1,1.66,3.58,16.48,16.48,0,0,1,.74,3.35,12.76,12.76,0,0,1,.06,2.41l-.09.91-.22-.88a23,23,0,0,0-.62-2.26,27.38,27.38,0,0,0-1.14-3,22.17,22.17,0,0,0-1.73-3.25,22.48,22.48,0,0,0-2.13-3A29.41,29.41,0,0,0,486.78,463.64Zm-3.43,69.77.49-1.27c.36-.77.86-1.88,1.43-3.22s1.38-2.79,2.13-4.42,1.69-3.29,2.5-5,1.83-3.34,2.64-4.94,1.71-3,2.38-4.29,1.38-2.29,1.8-3l.75-1.13-.18,1.34c-.16.85-.4,2.05-.74,3.48s-.94,3-1.53,4.77-1.49,3.47-2.32,5.24-2,3.38-2.94,4.93-2.09,2.86-3,4-1.82,2-2.41,2.62Zm-15.46-2.78s.13-.31.35-.87.56-1.34,1-2.25,1-2,1.59-3.08l2-3.45c.73-1.14,1.46-2.28,2.15-3.34s1.41-2,2-2.84,1.16-1.47,1.52-1.95l.61-.71-.35.87c-.25.54-.56,1.34-1,2.25s-1,2-1.59,3.08l-2,3.45L472,525.14c-.68,1.07-1.42,2-2,2.83s-1.16,1.48-1.52,1.95Zm-22.32-18.9.49-1.07c.35-.66.81-1.64,1.5-2.72s1.49-2.36,2.48-3.63,2.13-2.57,3.29-3.83,2.5-2.37,3.73-3.41a40.79,40.79,0,0,1,3.54-2.6c1.06-.73,2-1.22,2.67-1.59l1.06-.54-.88.79c-.58.47-1.35,1.21-2.31,2s-2,1.86-3.18,2.92-2.35,2.26-3.5,3.48-2.33,2.42-3.36,3.61-2,2.28-2.82,3.28-1.51,1.78-2,2.37Zm-3.41-3.51,1-2.23c.33-.71.78-1.54,1.33-2.48s1.14-2,1.88-3.14a68.32,68.32,0,0,1,5.75-7.18,75.59,75.59,0,0,1,8-6.95,76.46,76.46,0,0,1,9.17-5.27,66.49,66.49,0,0,1,8.66-3.08c1.3-.34,2.51-.58,3.58-.76s2-.37,2.78-.45l2.43-.22-2.3.81c-.74.22-1.62.54-2.61.93s-2.13.8-3.32,1.36a63,63,0,0,0-8,3.85,72.11,72.11,0,0,0-8.57,5.39,73.13,73.13,0,0,0-7.89,6.34,64.63,64.63,0,0,0-6.25,6.31c-.92.95-1.7,1.86-2.37,2.69s-1.29,1.54-1.73,2.17ZM427.6,482.09l.78-1.73a19.85,19.85,0,0,1,1-1.94,19.42,19.42,0,0,1,1.51-2.41,37.09,37.09,0,0,1,4.59-5.47,47.12,47.12,0,0,1,6.45-5.09,48.23,48.23,0,0,1,7.39-3.59,37.62,37.62,0,0,1,6.93-1.75,19.1,19.1,0,0,1,2.83-.3c.84-.07,1.58-.09,2.18-.08l1.9,0-1.88.26a17,17,0,0,0-2.13.35c-.82.14-1.74.33-2.73.59a47.15,47.15,0,0,0-6.61,2.16,48.06,48.06,0,0,0-13.4,8.4,48,48,0,0,0-4.82,5c-.66.78-1.23,1.53-1.72,2.2a16.89,16.89,0,0,0-1.24,1.77Zm-3-33.54.47-.86a22.86,22.86,0,0,1,1.4-2.18,33,33,0,0,1,2.31-2.84c.93-1,1.95-2,3-2.91s2.28-1.74,3.39-2.49a33,33,0,0,1,3.19-1.79,24.11,24.11,0,0,1,2.38-1l.93-.31-.78.58c-.52.34-1.21.9-2.07,1.5s-1.81,1.38-2.86,2.15S433.9,440,432.86,441s-2.13,1.78-3.08,2.68-1.87,1.69-2.6,2.45-1.4,1.33-1.83,1.78Z"/><path class="cls-3" d="M624.32,550.82a135.28,135.28,0,0,0,25.42-1.07,35.94,35.94,0,0,0,10.15-4.41l-9.29-19.4,13.1,16.73c11.46-8.74,21.46-23.73,29.8-40.11a62.94,62.94,0,0,0-3.85-6.76,66.51,66.51,0,0,0-5.28-7,65.18,65.18,0,0,1,7.06,5.42c1.58,1.37,3.05,2.85,4.19,4.05,5-10.34,9.39-21,13.06-30.91l-8-9.6,9.36,5.8c9.41-26.45-5.81-40.1-50.23-53.16-14.8-4.35-27-5.89-36.76-5.88-15,0-24.38,3.57-29.24,6.14a53.65,53.65,0,0,1,4.17,4.48c.87-.25,2-.59,3.53-.91a86.47,86.47,0,0,1,13.7-1.89c11.31-.77,26.26.29,40.76,3.5a107.5,107.5,0,0,1,10.7,3,102.52,102.52,0,0,1,10,4,84.35,84.35,0,0,1,16.14,9.92,65.72,65.72,0,0,1,9.55,9.29c1.08,1.2,1.78,2.25,2.32,2.92l.79,1-.86-1c-.58-.64-1.35-1.63-2.5-2.75a64.23,64.23,0,0,0-10-8.53,81.82,81.82,0,0,0-16.38-8.62,101.67,101.67,0,0,0-9.91-3.22c-3.44-.88-7-1.64-10.51-2.18-5-.75-10-1.24-14.79-1.51,3.3.51,6.39,1.11,8.89,1.7,3.76.88,6.22,1.62,6.22,1.62s-2.53-.45-6.35-.89a117.17,117.17,0,0,0-14-.74c-1.27,0-2.54,0-3.78.09a109.39,109.39,0,0,1,13.75,3c2.39.68,4.35,1.35,5.72,1.83l2.13.76-2.22-.43c-1.42-.28-3.44-.64-5.88-.95a105.61,105.61,0,0,0-35.45,1.23c-1.61.33-3,.66-4.18.95a96.31,96.31,0,0,1,6.06,15.12c.47,1.48,1,2.84,1.48,4.1a17.92,17.92,0,0,1,1-1.58,19.57,19.57,0,0,1,3.17-3.39,17.34,17.34,0,0,1,1.64-1.23,17.12,17.12,0,0,0-1.07,1.7,18.61,18.61,0,0,0-1.63,4l-.09.39c.42-.42.86-.83,1.3-1.22a33,33,0,0,1,5.88-4.08,28.22,28.22,0,0,1,2.85-1.36,28.48,28.48,0,0,0-2.07,2.31,30.16,30.16,0,0,0-3.56,5.56c-.42.86-.77,1.71-1.08,2.54l5-3.06-2.53,4.25,40.67-10.95a81,81,0,0,0-17,10.16l10.4-2.66-9.26,5.16a52.35,52.35,0,0,1,16.15.24,52.11,52.11,0,0,1,15.39,5.28,54.68,54.68,0,0,1,11.44,8.1,49.78,49.78,0,0,1,6.51,7.35c.73.94,1.2,1.74,1.56,2.26s.53.81.53.81l-.61-.76c-.4-.48-.94-1.23-1.74-2.1a49,49,0,0,0-7.05-6.63,53.45,53.45,0,0,0-11.7-6.78,47.82,47.82,0,0,0-29.82-2.45,51,51,0,0,0-12.14,4.62c-1.06.58-2,1.16-2.92,1.74a35.66,35.66,0,0,0-5.71,17.11c-.15,2.52-.35,4.65-.58,6.48a30.47,30.47,0,0,0,4.13,4.16,33.34,33.34,0,0,0,6.19,4.05,34.4,34.4,0,0,1-7.38-2,31.25,31.25,0,0,1-3.71-1.75c-2,8.75-5.24,8.19-7.06,21.32C616.38,525.39,621.35,542.23,624.32,550.82Zm35.37-137.47-2.44-.58c-.77-.2-1.71-.4-2.8-.63s-2.3-.49-3.63-.75c-2.66-.57-5.8-1-9.16-1.48s-7-.76-10.57-.92-7.22-.23-10.61-.13-6.56.26-9.26.58c-1.35.12-2.59.25-3.69.38s-2.06.23-2.85.36l-2.48.33,2.43-.63c.77-.2,1.71-.41,2.8-.64s2.32-.49,3.68-.68c2.7-.44,5.88-.85,9.31-1.06s7.09-.21,10.75-.08,7.3.63,10.69,1.14,6.51,1.26,9.16,2c1.33.33,2.53.7,3.59,1s2,.64,2.73.91Zm-29.9,15.58-.9.06-2.35.1c-1,0-2.09.13-3.29.16s-2.47.14-3.74.28-2.54.2-3.73.35-2.31.23-3.26.39l-2.34.29-.9.1.82-.39a20.19,20.19,0,0,1,2.22-.86,29.35,29.35,0,0,1,3.25-.88c1.21-.22,2.51-.41,3.81-.57s2.63-.09,3.86-.07a30.31,30.31,0,0,1,3.35.32,22.87,22.87,0,0,1,2.33.47Zm40.34,8.13h-1.37c-.87,0-2.11,0-3.58,0s-3.19.2-5,.34a68.09,68.09,0,0,0-11.23,2.25c-1.74.57-3.4,1-4.76,1.61s-2.54,1-3.32,1.33l-1.27.54,1.12-.8a29.68,29.68,0,0,1,3.1-1.88,37,37,0,0,1,4.7-2.1,54.17,54.17,0,0,1,5.69-1.6,51.3,51.3,0,0,1,5.86-.7,35.36,35.36,0,0,1,5.15.13,27.79,27.79,0,0,1,3.58.53Zm4.14,15.16a33.44,33.44,0,0,1,4.19,1.45A49.67,49.67,0,0,1,683,456c1.46.95,2.88,2,4.15,3a34.4,34.4,0,0,1,3.21,3.05,26.49,26.49,0,0,1,2,2.41l.68,1-.91-.76c-.55-.51-1.39-1.17-2.37-2s-2.19-1.67-3.44-2.62-2.68-1.85-4.13-2.7-2.89-1.72-4.3-2.42-2.73-1.38-3.91-1.84-2.14-.94-2.85-1.2l-1.09-.45,1.18.15A27.3,27.3,0,0,1,674.27,452.22Zm23.66-6.86c-1.18-1.05-2.65-2.14-4.17-3.37s-3.22-2.44-5-3.6-3.45-2.35-5.13-3.35-3.24-2-4.64-2.7-2.52-1.4-3.35-1.81l-1.28-.69,1.4.4c.88.3,2.16.68,3.62,1.31a54.27,54.27,0,0,1,4.93,2.3c1.74,1,3.56,2.07,5.34,3.24s3.4,2.56,4.92,3.85a51.48,51.48,0,0,1,3.91,3.78c1.11,1.15,1.92,2.2,2.51,2.92l.87,1.16-1.1-.95C700.14,447.22,699.12,446.39,697.93,445.36Zm-30.46,16-1.47-.15c-.93-.12-2.27-.2-3.86-.3s-3.45-.09-5.43-.09a55.58,55.58,0,0,0-6.19.46,57.4,57.4,0,0,0-6.12,1c-1.92.48-3.74.88-5.25,1.39s-2.8.88-3.67,1.22l-1.4.5,1.27-.77a32,32,0,0,1,3.49-1.78,40.6,40.6,0,0,1,5.23-1.88,40.5,40.5,0,0,1,12.64-1.54,42,42,0,0,1,5.53.58,31.77,31.77,0,0,1,3.82.89Zm-5.25,33.5,1,.56c.63.4,1.56.91,2.58,1.67s2.24,1.61,3.43,2.66,2.42,2.22,3.61,3.43,2.24,2.55,3.23,3.79,1.79,2.51,2.48,3.57,1.16,2,1.52,2.66l.51,1.05-.76-.88c-.46-.57-1.18-1.35-2-2.31S676,509,675,507.8s-2.15-2.39-3.32-3.58-2.28-2.42-3.4-3.5-2.13-2.15-3.06-3-1.65-1.61-2.2-2.1Zm-15.53-15.26c-1.19-.56-2.31-1-3.31-1.36s-1.88-.71-2.61-.93l-2.3-.81,2.43.22c.78.08,1.71.24,2.78.45s2.28.42,3.58.76a66.49,66.49,0,0,1,8.66,3.08,76.46,76.46,0,0,1,9.17,5.27,75.59,75.59,0,0,1,8,6.95,67.12,67.12,0,0,1,5.74,7.18c.75,1.12,1.37,2.18,1.89,3.14s1,1.77,1.33,2.48l1,2.23-1.52-1.91c-.44-.63-1-1.35-1.73-2.17s-1.45-1.74-2.37-2.69a65.78,65.78,0,0,0-6.25-6.31,74.12,74.12,0,0,0-7.89-6.34,72.92,72.92,0,0,0-8.57-5.39A63.05,63.05,0,0,0,646.69,479.56Zm-4.47,38.21.48,1,1.21,2.5c.45,1,1.09,2.22,1.67,3.52s1.25,2.65,1.95,4,1.3,2.74,2,4,1.21,2.48,1.76,3.48l1.23,2.48.45,1-.7-.79c-.43-.52-1.08-1.24-1.74-2.19s-1.46-2-2.19-3.28-1.47-2.6-2.18-4-1.26-2.82-1.8-4.16-.9-2.64-1.24-3.74-.52-2.06-.67-2.71Zm-14.5-11.66.74,1.13c.43.74,1,1.79,1.81,3s1.48,2.74,2.38,4.29,1.7,3.28,2.63,4.94,1.67,3.42,2.51,5,1.47,3.14,2.13,4.42,1.07,2.45,1.42,3.22l.5,1.27-1-.92c-.59-.62-1.43-1.51-2.41-2.62s-1.93-2.52-3-4-2-3.23-2.94-4.93-1.62-3.55-2.32-5.24-1.12-3.36-1.54-4.77-.57-2.63-.74-3.48S627.72,506.11,627.72,506.11Zm-2.88,36.2a30.28,30.28,0,0,1-1.88-3.68,38.24,38.24,0,0,1-2-5.55,38.78,38.78,0,0,1-1.21-13.4,38.23,38.23,0,0,1,.91-5.8,30.22,30.22,0,0,1,1.2-4l.57-1.46L622.2,510c-.2,1-.4,2.37-.61,4a57.05,57.05,0,0,0-.43,5.72,49.87,49.87,0,0,0,.23,6.53,50.76,50.76,0,0,0,1,6.48c.48,2,.89,4,1.44,5.55s1,2.94,1.34,3.86l.55,1.46Z"/><path class="cls-2" d="M408.7,456c0,17.73,7.84,39.79,21,59,12.86,18.8,29.05,32.57,44.89,38.28,0,0,9.91,4.69,13.62,6.6,2.59.71,5.57,1.38,8.6,2a51.84,51.84,0,0,1-7.61,4.28s-8.3,3.39-12.73,4.26a68.68,68.68,0,0,1-12.73,1.77,4.72,4.72,0,0,0-2.08,8.93,79,79,0,0,0,17.91,6.67,80.66,80.66,0,0,0,14.12,1.44,43.52,43.52,0,0,0,25.76-9.69c7.9-5.81,15.49-16.21,15.49-16.21.83,46,11.72,84.28,15.31,94.71a126.91,126.91,0,0,0,8.92,20.26s5.05,8,10.56,15c7,9.38,16.28,20.17,26.89,28.12l4.61,3c.74.32,1.54.63,2.46,1L605,726a35.79,35.79,0,0,0,13.31,2.67,31.18,31.18,0,0,0,24.62-11.81c3.41-4.44,4.8-9.16,3.8-13-1.76-6.67-7.77-13.57-14.8-13.57a10.51,10.51,0,0,0-8.49,4.47,24,24,0,0,0-3.62,7.38,10.66,10.66,0,0,1-.86,2.15s-.55.38-2.76.38c-2.81,0-6.52-3.44-11.3-10.51l-3.77-4.89c-5.7-8.84-9.46-19.87-11.83-31.86l-.78-4.3a205.7,205.7,0,0,1-2.59-28.3c.07-1.1.06-1.73.12-2.95,0,0-.72-39,4.18-65.39A40.62,40.62,0,0,0,597,568.78c.47.56.92,1.17,1.36,1.8,9.11,11.68,21,18.1,34.51,18.66l5-.06c8.49-.52,17.58-3.21,27.11-8a4.72,4.72,0,0,0-2.08-8.93,71.6,71.6,0,0,1-18.78-3.44l-4.44-1.63a51.85,51.85,0,0,1-10.16-5.47,15,15,0,0,1-4.79-4.76,136.57,136.57,0,0,0,23-1.91c24.11-3.68,46.53-33.75,66.69-89.5,4.07-11.27,4.07-20.68,0-28.76C708,424.23,692.12,415,661.16,405.9c-13.71-4-26.52-6.08-38.09-6.08-18.15,0-29,5.06-33.64,7.95a67.53,67.53,0,0,0-52.14,0c-4.41-2.84-14.16-7.35-31.61-7.35-11.06,0-23.58,1.85-37.22,5.5-19.67,5.26-32.55,10.51-41.76,17C414.59,431.41,408.7,442.25,408.7,456Zm215.62,94.81c-3-8.59-7.94-25.43-6.25-37.63,1.82-13.13,5.09-12.57,7.06-21.32a31.25,31.25,0,0,0,3.71,1.75,34.4,34.4,0,0,0,7.38,2,33.34,33.34,0,0,1-6.19-4.05,30.47,30.47,0,0,1-4.13-4.16c.23-1.83.43-4,.58-6.48a35.66,35.66,0,0,1,5.71-17.11c.9-.58,1.86-1.16,2.92-1.74a51,51,0,0,1,12.14-4.62,48.24,48.24,0,0,1,29.82,2.45,53.45,53.45,0,0,1,11.7,6.78,49,49,0,0,1,7.05,6.63c.8.87,1.34,1.62,1.74,2.1l.61.76s-.19-.28-.53-.81-.83-1.32-1.56-2.26a49.78,49.78,0,0,0-6.51-7.35,54.68,54.68,0,0,0-11.44-8.1,52.11,52.11,0,0,0-15.39-5.28,52.35,52.35,0,0,0-16.15-.24l9.26-5.16-10.4,2.66a81,81,0,0,1,17-10.16l-40.67,10.95,2.53-4.25-5,3.06c.31-.83.66-1.68,1.08-2.54a30.16,30.16,0,0,1,3.56-5.56,28.48,28.48,0,0,1,2.07-2.31,28.22,28.22,0,0,0-2.85,1.36,33,33,0,0,0-5.88,4.08c-.44.39-.88.8-1.3,1.22l.09-.39a18.61,18.61,0,0,1,1.63-4,17.12,17.12,0,0,1,1.07-1.7,17.34,17.34,0,0,0-1.64,1.23,19.57,19.57,0,0,0-3.17,3.39,17.92,17.92,0,0,0-1,1.58c-.51-1.26-1-2.62-1.48-4.1a96.31,96.31,0,0,0-6.06-15.12c1.17-.29,2.57-.62,4.18-.95A105.61,105.61,0,0,1,645,424.24c2.44.31,4.46.67,5.88.95l2.22.43-2.13-.76c-1.37-.48-3.33-1.15-5.72-1.83a109.39,109.39,0,0,0-13.75-3c1.24-.05,2.51-.08,3.78-.09a117.17,117.17,0,0,1,14,.74c3.82.44,6.35.89,6.35.89s-2.46-.74-6.22-1.62c-2.5-.59-5.59-1.19-8.89-1.7,4.84.27,9.83.76,14.79,1.51,3.55.54,7.07,1.3,10.51,2.18a101.67,101.67,0,0,1,9.91,3.22,81.82,81.82,0,0,1,16.38,8.62,64.23,64.23,0,0,1,10,8.53c1.15,1.12,1.92,2.11,2.5,2.75l.86,1-.79-1c-.54-.67-1.24-1.72-2.32-2.92a65.72,65.72,0,0,0-9.55-9.29,84.35,84.35,0,0,0-16.14-9.92,102.52,102.52,0,0,0-10-4,107.5,107.5,0,0,0-10.7-3c-14.5-3.21-29.45-4.27-40.76-3.5a86.47,86.47,0,0,0-13.7,1.89c-1.48.32-2.66.66-3.53.91a53.65,53.65,0,0,0-4.17-4.48c4.86-2.57,14.28-6.14,29.24-6.14,9.8,0,22,1.53,36.76,5.88,44.42,13.06,59.64,26.71,50.23,53.16l-9.36-5.8,8,9.6c-3.67,9.87-8,20.57-13.06,30.91-1.14-1.2-2.61-2.68-4.19-4.05a65.18,65.18,0,0,0-7.06-5.42,66.51,66.51,0,0,1,5.28,7,62.94,62.94,0,0,1,3.85,6.76c-8.34,16.38-18.34,31.37-29.8,40.11l-13.1-16.73,9.29,19.4a35.94,35.94,0,0,1-10.15,4.41A135.28,135.28,0,0,1,624.32,550.82Zm-16.2,12.77s-1.2-1.23-2.8-3.21a54.58,54.58,0,0,1-5.17-7.68,52.72,52.72,0,0,1-3.7-8.34c-.35-1-.61-1.86-.8-2.52a11.45,11.45,0,0,1,9.78-4.85h.12a82.92,82.92,0,0,0,3.14,7.76,84.18,84.18,0,0,0,4.39,8.24s-.81-2.67-1.54-6c12.72,29.45,51.3,29.89,51.3,29.89-.83.43-1.64.8-2.46,1.18l-1.27.13a65,65,0,0,1-6.48.65,127.46,127.46,0,0,1-14.8.09c-2.37-.11-4.59-.28-6.48-.56s-3.52-.39-4.63-.57l-1.79-.21,1.62.8c1,.45,2.56,1.07,4.43,1.7a67.25,67.25,0,0,0,6.55,1.55,75.7,75.7,0,0,0,7.72.61c2-.08,4-.26,5.91-.49a53,53,0,0,1-16.32,2.77c-22.1,0-33.91-16.82-39-26.76.64,1,1.31,2,2,2.94a57.27,57.27,0,0,0,14,13.28,56.21,56.21,0,0,0,7.28,4.09,32.9,32.9,0,0,0,3.05,1.31c.91.38,1.72.68,2.4.89l2.11.68-2-.87c-.65-.26-1.42-.64-2.29-1.09s-1.86-.94-2.89-1.57a55.61,55.61,0,0,1-6.74-4.65,55,55,0,0,1-12.2-13.88,62.42,62.42,0,0,1-3.12-5.89c.25.32.49.65.74,1a55.23,55.23,0,0,0,6.6,6.88C606.73,562.59,608.12,563.59,608.12,563.59Zm-86.91-31.32c.33-1.82,1-5.07,1.88-8.29a95.68,95.68,0,0,1,3.23-9.6,97.17,97.17,0,0,0-5.42,8.71q-.49.9-1,1.8c.09-.51.19-1,.28-1.46.64-1.55,1.38-3.39,2.16-5.47.61-1.62,1.28-3.39,1.92-5.27s1.37-3.85,2-5.91,1.39-4.18,2-6.37,1.31-4.41,1.92-6.7a68.9,68.9,0,0,0,1.33-7,37.7,37.7,0,0,0,.3-7,29.81,29.81,0,0,0-3.09-12,24,24,0,0,0-5.17-7,19.9,19.9,0,0,0-1.87-1.51l-.69-.48.51.67c.34.43.79,1.09,1.33,1.92a30.67,30.67,0,0,1,3.37,7.37c.19.63.36,1.3.52,2-.21-.32-.39-.64-.63-.94a20.09,20.09,0,0,0-3-2.48l-2.81-1.52c-.86-.36-1.57-.69-2-1l-.82-.36.41.81c.31.48.78,1.13,1.38,1.9l1,1a3.2,3.2,0,0,0-1.91,1.13,3,3,0,0,0-.53,1.08,10.88,10.88,0,0,1-.62-2,7.5,7.5,0,0,1-.23-1,7.81,7.81,0,0,0-.38,1,11.16,11.16,0,0,0-.3,2.83,11.69,11.69,0,0,0,1.12,4,23.42,23.42,0,0,0,2.75,3.67A29.28,29.28,0,0,1,523,481.7a8.82,8.82,0,0,1,1.8,2.81,5.21,5.21,0,0,1,.59,2.36,4.68,4.68,0,0,1,0,1A4.35,4.35,0,0,0,526,487a6.47,6.47,0,0,0,.53-2.88,11,11,0,0,0-1.28-4,31.16,31.16,0,0,0-2.8-3.54l-.47-.46a3.65,3.65,0,0,0,3.74-1.08,2.77,2.77,0,0,0,.2-.34,11.2,11.2,0,0,1,1,2.22,11,11,0,0,1,.69,2.07c.06.18.1.32.14.45a2.81,2.81,0,0,0,0,.29,48.1,48.1,0,0,1-.65,6.3c-.1.65-.24,1.31-.37,2a60.54,60.54,0,0,1-5.82,10.71L519.51,492l-1.39,7.44-.09-.36c-.47-1.65-.91-3.41-1.29-5.19s-1-3.51-1.32-5.18-.85-3.22-1.13-4.57-.67-2.48-.86-3.28-.37-1.26-.37-1.26-.09.47-.24,1.3-.2,2-.28,3.43.08,3.07.2,4.84c.15,1.11.34,2.26.55,3.42a67.26,67.26,0,0,1-2.1-10.63,65.73,65.73,0,0,1-.43-13.27c.22-.74.44-1.47.7-2.21a33.5,33.5,0,0,1,2.29-5.1,28.15,28.15,0,0,1,3.17-4.76,46.36,46.36,0,0,1,3.93-4.39l4.2-4.19a50.32,50.32,0,0,0,7-8.32,22.86,22.86,0,0,0,3.2-7.09,14.75,14.75,0,0,0,.38-2.13l.07-.75a24.35,24.35,0,0,1-1.31,2.53,32.53,32.53,0,0,1-4.47,5.77c-.93,1-2,2-3.13,3,.25-.47.5-.93.73-1.39.5-1.27.94-2.46,1.27-3.5s.4-2,.51-2.6.08-1,.08-1l-.64.79c-.36.51-.89,1.24-1.55,2.08s-1.27,1.88-2.05,2.92c-.34.54-.71,1.09-1.09,1.65.66-1.88,1.42-3.91,2.3-6.09.88-1.55,1.8-3.08,2.72-4.48,1.08-1.79,2.14-3.45,3.12-4.82s1.7-2.63,2.28-3.44l.85-1.35-1.3.93c-.64.51-1.49,1.22-2.48,2.1,3-5.38,6.31-9.19,10.25-11.89a60.47,60.47,0,0,1,21.48-3.71c15.09,0,24.43,4.86,26.17,5.85a55,55,0,0,1,13,18.23l-.15-.24c-1.47-2-3-3.94-4.52-5.7s-3.15-3.2-4.53-4.44-2.67-2.11-3.54-2.74l-1.42-.93,1,1.37c.67.83,1.62,2,2.68,3.52s2.4,3.1,3.7,4.94,2.73,3.75,4,5.75,2.72,3.94,3.89,5.86q.42.62.81,1.23c-.57-.62-1.14-1.22-1.69-1.79-1.11-1-2.16-1.91-3.07-2.68l-2.37-1.66-1-.56.53,1,1.52,2.45c.69.95,1.48,2.07,2.31,3.27s1.72,2.19,2.59,3.33a73.76,73.76,0,0,1-5.68-5.21,32.53,32.53,0,0,1-4.47-5.77,24.35,24.35,0,0,1-1.31-2.53s0,.26.07.75a14.75,14.75,0,0,0,.38,2.13,22.86,22.86,0,0,0,3.2,7.09,50.32,50.32,0,0,0,7,8.32l4.2,4.19a46.36,46.36,0,0,1,3.93,4.39,28.15,28.15,0,0,1,3.17,4.76,39.68,39.68,0,0,1,1.81,3.79c.77,4.12.92,9.29,0,16.79a66,66,0,0,1-2.11,10.66c.17-1,.32-2,.44-2.92.12-2,.17-3.78.12-5.34s-.3-2.85-.43-3.74l-.31-1.41-.3,1.4c-.14.89-.37,2.15-.72,3.63s-.6,3.22-1.05,5-.84,3.76-1.41,5.66-1,3.85-1.58,5.62c-.29,1.05-.59,2.05-.9,3l-.51-7.41-2.54,9.35c-.52-2.06-1-4.2-1.6-6.34s-1.2-4.4-1.72-6.59a65.45,65.45,0,0,1-1.41-6.51,49.83,49.83,0,0,1-.64-6.3c0-.21,0-.42,0-.63l0-.11a10.35,10.35,0,0,1,.69-2.07,11.2,11.2,0,0,1,1-2.22,1.9,1.9,0,0,0,.2.34,3.65,3.65,0,0,0,3.74,1.08l-.47.46a31.16,31.16,0,0,0-2.8,3.54,11,11,0,0,0-1.29,4,6.59,6.59,0,0,0,.54,2.88,4.35,4.35,0,0,0,.63.88,4.68,4.68,0,0,1,0-1,5.21,5.21,0,0,1,.59-2.36,8.65,8.65,0,0,1,1.8-2.81,29.28,29.28,0,0,1,2.83-2.92,23.42,23.42,0,0,0,2.75-3.67,12.16,12.16,0,0,0,1.12-4,11.64,11.64,0,0,0-.3-2.83,10.42,10.42,0,0,0-.38-1,10.25,10.25,0,0,1-.23,1,10.88,10.88,0,0,1-.62,2,3.11,3.11,0,0,0-.53-1.08,3.2,3.2,0,0,0-1.91-1.13l1-1c.6-.77,1.07-1.42,1.38-1.9s.4-.81.4-.81l-.81.36c-.48.26-1.19.59-2,1l-2.81,1.52a20.09,20.09,0,0,0-3,2.48c-.18.22-.31.46-.47.69.15-.58.29-1.17.45-1.72a31.47,31.47,0,0,1,3.37-7.37c.55-.83,1-1.49,1.34-1.92s.5-.67.5-.67l-.69.48a20,20,0,0,0-1.86,1.51,24,24,0,0,0-5.17,7,29.81,29.81,0,0,0-3.09,12,37.68,37.68,0,0,0,.29,7c.31,2.35.8,4.69,1.34,7s1.27,4.53,1.92,6.7,1.38,4.3,2,6.37,1.36,4,2,5.91,1.31,3.65,1.92,5.27c.88,2.34,1.7,4.37,2.39,6,.46,2.38.89,5.19,1.23,8.44a19.69,19.69,0,0,0-2.53-.16h0a17.5,17.5,0,0,0-9.75,2.94l-1.49-5.82-1.33,5.2L591,522l-.73,8.52c-.15-2.25-.35-4.39-.57-6.36-.84-8.2-2-13.6-2-13.6s-.42,5.5-.7,13.69c-.06,2-.14,4.27-.22,6.61s-.19,4.81-.21,7.36-.15,5.19-.23,7.86-.15,5.4-.23,8.12-.14,5.35-.21,8c-3.43,21.33-7.32,60.52-1.33,93.7l-.15.36.22.06a126.46,126.46,0,0,0,4.73,18.41c-.49,0-1.1,0-1.85.09s-1.84.38-2.91.66a33.63,33.63,0,0,0-3.12,1.39,29.71,29.71,0,0,0-2.75,2,27.11,27.11,0,0,0-2,2.23c-.48.74-.84,1.39-1.09,1.84s-.31.76-.31.76l.75-.34c.44-.24,1.06-.59,1.83-.94.28-.18.59-.36.91-.54l8.31,8.68-5.72-10.13c.54-.3,1.09-.6,1.66-.89.36-.25.74-.48,1.11-.71l1.72.81.09-1.88c.75-.5,1.48-1,2.13-1.32s1.09-.78,1.5-1A75.09,75.09,0,0,0,599,694a14.65,14.65,0,0,0-1.72.45,15.13,15.13,0,0,0-2.5,1.55,15.34,15.34,0,0,0-1.81,2.32,13,13,0,0,0-.86,2.4,10,10,0,0,0-.07,1.8c.08.43.12.68.12.68l.46-.5a9.53,9.53,0,0,1,1.09-1.23c.19-.25.41-.5.65-.76l7,6-5-8,.39-.33,4.38,2.39-2.32-4.18a11.88,11.88,0,0,1,1.38-1c4.26,6.47,7.71,10.24,10.8,12.14-.25.14-.5.26-.75.43a10.47,10.47,0,0,0-2.09,2.46,12.64,12.64,0,0,0-.9,3,15.82,15.82,0,0,0,.06,2.63c.17.76.36,1.36.49,1.78l.31.65.31-.64c.14-.41.36-1,.65-1.64.11-.34.23-.71.38-1.09l3.2.18-2.22-2.49a6.77,6.77,0,0,1,.36-.65l3.45.35-2.13-2.54,0,0a6.9,6.9,0,0,1,1.11-1.31,8.63,8.63,0,0,0,2.91.51c4.23,0,5.93-1.11,6.94-2.9,0,1,0,1.91.09,2.8a27.79,27.79,0,0,0,.91,3.72,21.31,21.31,0,0,0,1.18,2.42l.58.85s0-.37,0-1a19,19,0,0,1,0-2.58c0-.13,0-.29,0-.43l.29-.05a5.9,5.9,0,0,0,2.1-.94,5.47,5.47,0,0,0,1.47-1.52,4.56,4.56,0,0,0,.42-.8,4,4,0,0,1-.74.45,4.62,4.62,0,0,1-1.71.44,3.74,3.74,0,0,1-1.56-.22l-.21-.09c0-.12,0-.23,0-.34a28.11,28.11,0,0,1,.35-3.93c0-.14,0-.28,0-.42l1.09,1.85.4-2.3a11.23,11.23,0,0,0,1.91,2.18,12,12,0,0,0,4.38,2.2,10.35,10.35,0,0,0,3.37.1,8.09,8.09,0,0,0,.9-.23l.3-.09-.31-.07a5.48,5.48,0,0,1-.87-.22,8.92,8.92,0,0,1-2.77-1.15,9.72,9.72,0,0,1-3.11-2.5,8.24,8.24,0,0,1-2.08-3.75,6.4,6.4,0,0,1-.12-4.07,4.28,4.28,0,0,1,.66-1.45,5.51,5.51,0,0,1,1.83-.32c4.23,0,8.83,4.73,10.23,10,1.6,6.07-8.45,18.86-23.85,18.86a30.69,30.69,0,0,1-9.87-1.74c-12.86-6.22-25.2-20.84-35.26-34.92-11.8-16.52-22.68-48.16-28.19-86.71-2.09-14.63-3.45-28.89-4.33-41,0-1.79-.09-3.57-.14-5.36-.08-2.72-.15-5.44-.23-8.12s-.15-5.31-.23-7.86-.16-5-.21-7.36-.16-4.56-.23-6.61c-.27-8.19-.69-13.69-.69-13.69s-1.16,5.4-2,13.6c-.23,2.05-.44,4.27-.59,6.63-.08,1-.14,2-.21,3l-.91-3.24-1,7.63A16.71,16.71,0,0,0,521.21,532.27Zm83.55-58c.06-.11.11-.31.2-.46s.15-.38.27-.52a4.32,4.32,0,0,0,.33-.5,4.24,4.24,0,0,0,.42-.43c.12-.15.33-.25.45-.39s.31-.21.4-.29l.19-.12s0,.07.1.2a1.64,1.64,0,0,1,.13.54,2.15,2.15,0,0,1-.08.73,5.78,5.78,0,0,1-.38.74,4.5,4.5,0,0,1-.64.53,2,2,0,0,1-.69.24,1.67,1.67,0,0,1-.55,0l-.22-.06Zm-82.33.27a2.15,2.15,0,0,1-.57,0,2.67,2.67,0,0,1-.73-.2c-.24-.13-.48-.28-.72-.44s-.38-.44-.54-.66a2.64,2.64,0,0,1-.3-.7,2.58,2.58,0,0,1-.07-.56c0-.16,0-.24,0-.24l.23.05a4.9,4.9,0,0,1,.51.19,5,5,0,0,1,.6.32c.18.14.38.28.58.41s.33.37.49.53a4.33,4.33,0,0,1,.39.55,3,3,0,0,1,.26.49l.08.22Zm-4.36,62.83a13.76,13.76,0,0,1,3.12-.33,11.58,11.58,0,0,1,9.09,3.94A60.76,60.76,0,0,1,527.07,551a62.05,62.05,0,0,1-5.08,9.53,62.36,62.36,0,0,0,7.14-8.38c.68-.94,1.31-1.9,1.9-2.84-.3.9-.66,1.9-1.08,3a53.26,53.26,0,0,1-9.55,15.45,54,54,0,0,1-14.48,11.42,52.9,52.9,0,0,1-5.58,2.6c-1.39.56-2.2.83-2.2.83s.83-.2,2.26-.64a51.73,51.73,0,0,0,5.84-2.13,55.23,55.23,0,0,0,15.85-10.44,50.94,50.94,0,0,0,5.45-6c-6.19,9.62-17.44,21.18-35.76,21.18a47.15,47.15,0,0,1-6.25-.43,52.15,52.15,0,0,0,6.67-1.3,45.68,45.68,0,0,0,5.49-2.2,37.91,37.91,0,0,0,3.55-2.18l1.24-1-1.51.42a39.08,39.08,0,0,1-3.91,1.08,43.87,43.87,0,0,1-5.5,1.2,48.6,48.6,0,0,1-6.33.82,49.42,49.42,0,0,1-6.37.3,42.72,42.72,0,0,1-5.35-.2,79.94,79.94,0,0,1-9.73-4.19S510.46,576.4,518.07,537.32ZM413.42,456c0-26,23.92-36.93,56.26-45.58,14.74-3.95,26.6-5.34,36-5.34,14.27,0,22.88,3.21,27.32,5.6a58.11,58.11,0,0,0-4.38,4.75l-.62-.18c-.88-.26-2.17-.64-3.83-1a86.32,86.32,0,0,0-13.69-1.89c-11.32-.77-26.27.29-40.76,3.5a107.69,107.69,0,0,0-10.71,3,102.52,102.52,0,0,0-10,4,83.94,83.94,0,0,0-16.13,9.92,65.88,65.88,0,0,0-9.56,9.29c-1.07,1.2-1.78,2.25-2.31,2.92l-.8,1,.87-1c.57-.64,1.34-1.63,2.49-2.75a64.71,64.71,0,0,1,10-8.53A81.82,81.82,0,0,1,450,425.13a102.56,102.56,0,0,1,9.91-3.22c3.44-.88,7-1.64,10.51-2.18a157.55,157.55,0,0,1,17.67-1.64,141.46,141.46,0,0,0-17.28,4.08c-4.67,1.42-7.71,2.57-7.71,2.57s3.13-.87,7.89-1.86a143.66,143.66,0,0,1,17.56-2.48c1.41-.11,2.82-.19,4.21-.25A109.37,109.37,0,0,0,480,423c-2.4.68-4.36,1.35-5.72,1.83l-2.14.76,2.23-.43c1.41-.28,3.44-.64,5.88-.95a106.89,106.89,0,0,1,17.89-.88,105.3,105.3,0,0,1,17.09,2,14.49,14.49,0,0,0-2.49,4.61c-1.75,4.89-3.35,9.76-4.67,14.39l-.1-.1a32.6,32.6,0,0,0-5.87-4.08,27.66,27.66,0,0,0-2.86-1.36,29.57,29.57,0,0,1,2.08,2.31,30.16,30.16,0,0,1,3.56,5.56c.33.67.61,1.34.88,2l-5.69-1.88,3.24,3.18-39.11-10.53a72.14,72.14,0,0,1,13.57,8.38c-4.24-1.13-7.88-1.69-7.88-1.69a79,79,0,0,1,9.78,4.69c1.21.67,2.38,1.39,3.45,2.09-1.35-.3-2.74-.57-4.17-.78a53.13,53.13,0,0,0-16.49.21,52.18,52.18,0,0,0-15.38,5.28,54.68,54.68,0,0,0-11.44,8.1,50.55,50.55,0,0,0-6.52,7.35c-.72.94-1.19,1.74-1.55,2.26l-.53.81.6-.76c.41-.48.95-1.23,1.75-2.1a49,49,0,0,1,7.05-6.63,53,53,0,0,1,11.7-6.78,47.82,47.82,0,0,1,29.82-2.45,50.78,50.78,0,0,1,12.13,4.62c.6.33,1.14.65,1.69,1a38,38,0,0,1,5.71,17.73c0,.83.1,1.61.16,2.36l-.66.35a18.17,18.17,0,0,0-4.41,3.39,17.51,17.51,0,0,0-3,4.36,14.6,14.6,0,0,0-.87,2.17,15.19,15.19,0,0,1,1.48-1.75,15.81,15.81,0,0,1,3.88-2.92,15.54,15.54,0,0,1,4-1.45c1.63,14.38,5.11,14,7.19,29.09,1.63,11.74-1.32,26.25-3.32,34.14a148.42,148.42,0,0,1-24.2-1.2,57.08,57.08,0,0,1-8.11-3.34l1.22-6.81-4.65,4.38,8.45-17.63-12.33,15.75c-12.51-8.35-24-21.19-32.64-35.49a62.51,62.51,0,0,1,3.56-6.17,66.36,66.36,0,0,1,5.27-7,66.5,66.5,0,0,0-7.05,5.43c-.43.37-.85.75-1.26,1.13l.88-2.84-4.68,3.68A112.6,112.6,0,0,1,415,470.52l4.49-8-5.34,3.29c0-.26-.06-.51-.1-.77L423,454.3l-9.44,5.84C413.48,458.75,413.42,457.37,413.42,456Z"/><path class="cls-2" d="M444.49,503.51c.52-1,1.14-2,1.88-3.14a68.32,68.32,0,0,1,5.75-7.18,75.59,75.59,0,0,1,8-6.95,76.46,76.46,0,0,1,9.17-5.27,66.49,66.49,0,0,1,8.66-3.08c1.3-.34,2.51-.58,3.58-.76s2-.37,2.78-.45l2.43-.22-2.3.81c-.74.22-1.62.54-2.61.93s-2.13.8-3.32,1.36a63,63,0,0,0-8,3.85,72.11,72.11,0,0,0-8.57,5.39,73.13,73.13,0,0,0-7.89,6.34,64.63,64.63,0,0,0-6.25,6.31c-.92.95-1.7,1.86-2.37,2.69s-1.29,1.54-1.73,2.17l-1.52,1.91,1-2.23C443.49,505.28,443.94,504.45,444.49,503.51Z"/><path class="cls-2" d="M485.27,528.92c.66-1.28,1.38-2.79,2.13-4.42s1.69-3.29,2.5-5,1.83-3.34,2.64-4.94,1.71-3,2.38-4.29,1.38-2.29,1.8-3l.75-1.13-.18,1.34c-.16.85-.4,2.05-.74,3.48s-.94,3-1.53,4.77-1.49,3.47-2.32,5.24-2,3.38-2.94,4.93-2.09,2.86-3,4-1.82,2-2.41,2.62l-1,.92.49-1.27C484.2,531.37,484.7,530.26,485.27,528.92Z"/><path class="cls-2" d="M643.38,478.2c-1-.39-1.88-.71-2.61-.93l-2.3-.81,2.43.22c.78.08,1.71.24,2.78.45s2.28.42,3.58.76a66.49,66.49,0,0,1,8.66,3.08,76.46,76.46,0,0,1,9.17,5.27,75.59,75.59,0,0,1,8,6.95,67.12,67.12,0,0,1,5.74,7.18c.75,1.12,1.37,2.18,1.89,3.14s1,1.77,1.33,2.48l1,2.23-1.52-1.91c-.44-.63-1-1.35-1.73-2.17s-1.45-1.74-2.37-2.69a65.78,65.78,0,0,0-6.25-6.31,74.12,74.12,0,0,0-7.89-6.34,72.92,72.92,0,0,0-8.57-5.39,63.05,63.05,0,0,0-8-3.85C645.5,479,644.38,478.56,643.38,478.2Z"/><path class="cls-2" d="M630.27,510.27c.66,1.27,1.48,2.74,2.38,4.29s1.7,3.28,2.63,4.94,1.67,3.42,2.51,5,1.47,3.14,2.13,4.42,1.07,2.45,1.42,3.22l.5,1.27-1-.92c-.59-.62-1.43-1.51-2.41-2.62s-1.93-2.52-3-4-2-3.23-2.94-4.93-1.62-3.55-2.32-5.24-1.12-3.36-1.54-4.77-.57-2.63-.74-3.48-.17-1.34-.17-1.34l.74,1.13C628.89,508,629.5,509,630.27,510.27Z"/><path class="cls-2" d="M575.6,412.65c-.68-.07-1.4-.13-2.15-.17l-2,6.95-2.33-7.1c-1.67-.07-3.41-.06-5.17,0a41.32,41.32,0,0,0-1.15,4.9,43.77,43.77,0,0,0-.57,5.49,43.82,43.82,0,0,1-1.79-5.37,42.11,42.11,0,0,1-1-4.9c-1.24.06-2.47.14-3.64.25l-.87.07-2.61,5.09-1.61-4.66-.91.13c-1.77.17-3.24.41-4.27.59l-1.64.22,1.49-.73c1-.41,2.37-1,4.09-1.56s3.8-1,6-1.46,4.67-.58,7.09-.72,4.85.13,7.12.35,4.33.71,6.09,1.15,3.18,1,4.17,1.33l1.53.64-1.65-.13C578.86,412.88,577.37,412.72,575.6,412.65Z"/><path class="cls-2" d="M582.05,430.13c-.88-.21-1.87-.43-3-.59s-2.44-.49-3.79-.68a28.09,28.09,0,0,0-1.14,3.1,33.69,33.69,0,0,0-1,4.25,34.36,34.36,0,0,1-2-7.81,62.11,62.11,0,0,0-7.66-.3l-2.4,7.32-1.69-7.21c-1.6.09-3.18.23-4.69.43l-2.46.32-1.93,11.71-2.6-10.85-.39.09c-1.09.19-2.07.42-2.95.65s-1.64.42-2.25.62l-2,.54,1.76-1.1c.57-.34,1.28-.7,2.11-1.1s1.76-.88,2.81-1.31a58,58,0,0,1,7.45-2.26,64.58,64.58,0,0,1,8.91-1,63.9,63.9,0,0,1,8.92.79,57.08,57.08,0,0,1,7.5,2.09c1.06.41,2,.84,2.84,1.24s1.56.73,2.14,1.05l1.78,1.06-2-.49C583.7,430.51,582.93,430.32,582.05,430.13Z"/><path class="cls-2" d="M542.34,455.06c1-.4,2.07-.81,3.29-1.22a78.58,78.58,0,0,1,8.54-2.1,62.24,62.24,0,0,1,20.14-.14,84.71,84.71,0,0,1,8.57,1.94c1.23.38,2.34.78,3.31,1.15s1.83.67,2.51,1l2.13,1-2.31-.4c-.72-.16-1.6-.32-2.62-.48l-.55-.09-2.46,7.15-.38-7.56h0c-1.53-.27-3.25-.48-5.06-.66l-3.28,15.17-1.25-15.53c-2.09-.15-4.25-.23-6.44-.24l-1.63,14.21L562.15,454c-1.75,0-3.47.11-5.16.23l-1.86,4.91-2.19-4.57c-2.23.21-4.31.49-6.17.83l-.77,7.94-2-7.48c-.45.08-.9.16-1.31.25-1,.19-1.89.36-2.61.55l-2.29.46,2.1-1C540.53,455.78,541.37,455.45,542.34,455.06Z"/><path class="cls-2" d="M547.82,483c2.2-.52,4.8-1,7.59-1.45s5.83-.53,8.85-.63c3,.06,6,.24,8.86.51s5.4.85,7.61,1.34,4,1.1,5.25,1.5l1.94.71-2.06-.12c-1.3-.12-3.16-.27-5.39-.35-1.16-.11-2.43-.18-3.77-.24l-1.83,7-2.21-7.14c-2.38-.11-4.89-.14-7.41-.09l-2,15.68L561.07,484c-.81,0-1.6,0-2.4.06l-1.23,5.1-1.45-5h-.33c-1.07,0-2.11.08-3.11.14L550.16,492l-1.9-7.32h-.15c-2.23.11-4.08.29-5.38.43l-2.07.15,1.94-.75C543.84,484.12,545.64,483.54,547.82,483Z"/><path class="cls-2" d="M576.43,512.17c-1.06-.11-2.24-.17-3.48-.22l-2.66,12.91-1.66-13c-1.61,0-3.26-.06-4.92,0-2.15,0-4.3,0-6.34.14l-2.63,7.77-1.49-7.59c-.79.05-1.55.12-2.25.19-1.76.07-3.23.2-4.26.31l-1.64.1,1.5-.69c1-.39,2.37-.91,4.08-1.46s3.78-.92,6-1.33,4.62-.48,7-.58c2.4.07,4.8.23,7,.49s4.27.79,6,1.25,3.12,1,4.1,1.4l1.5.66-1.64-.07C579.66,512.33,578.19,512.21,576.43,512.17Z"/><path class="cls-2" d="M550.27,541.48c1.73-.47,3.78-.91,6-1.33s4.62-.48,7-.58c2.4.07,4.8.24,7,.49s4.27.8,6,1.25,3.12,1,4.1,1.4l1.5.67-1.64-.08c-.91-.08-2.2-.18-3.71-.23l-2.52,12.67-1.93-12.92-2-.05c-1.85-.09-3.81-.11-5.78-.07l-3,7.14L560,542.72c-1.18,0-2.34.07-3.47.15-2.17.06-4.2.16-5.94.36s-3.23.2-4.26.31l-1.64.09,1.5-.69C547.16,542.56,548.56,542,550.27,541.48Z"/><path class="cls-2" d="M550.82,572.89c1.56-.44,3.4-.85,5.39-1.24s4.17-.45,6.34-.55c2.16.07,4.32.23,6.34.46s3.85.76,5.41,1.18,2.81,1,3.68,1.32l1.35.63-1.48,0c-.93-.07-2.26-.15-3.85-.17-1.4-.12-3-.18-4.75-.2l-2.08,4.44-2.11-4.51c-.83,0-1.66,0-2.49,0-1.82,0-3.63,0-5.37.08l-2.59,13.25-1.76-13.08c-.6,0-1.17.08-1.71.14-1.59,0-2.91.13-3.84.22l-1.49,0,1.34-.65C548,573.9,549.28,573.41,550.82,572.89Z"/><path class="cls-2" d="M553.21,604.36c1.33-.4,2.91-.78,4.63-1.14s3.58-.41,5.45-.5c1.86.07,3.72.21,5.45.42s3.3.7,4.64,1.08,2.4.9,3.15,1.21l1.15.59h-1.29c-.8,0-1.94-.09-3.3-.07-.73-.05-1.54-.08-2.38-.09l-2.56,14.77-1.89-14.83c-1,0-2,0-3,.05s-2.14,0-3.2,0l-1.9,6.31L556.35,606c-1,0-2,.06-2.82.14-1.36,0-2.51,0-3.31.11h-1.28l1.14-.6C550.82,605.28,551.89,604.83,553.21,604.36Z"/><path class="cls-2" d="M558.35,633.73c1.09-.51,2.4-1,3.83-1.56s3-.8,4.62-1.1,3.23-.25,4.75-.26,2.93.25,4.12.44,2.17.55,2.84.75l1,.41-1.1.2c-.7.07-1.68.19-2.84.4-.89.07-1.9.21-2.94.37l.16,10.83L568.53,634l-1.28.21c-.73.07-1.46.17-2.18.27l-.9,5.33L561,635.06c-.77.11-1.5.23-2.15.36-1.18.12-2.17.27-2.85.38l-1.12.1.9-.67C556.42,634.85,557.28,634.33,558.35,633.73Z"/><path class="cls-2" d="M565.94,659.31c.82-.62,1.82-1.28,2.91-2s2.39-1.15,3.67-1.66,2.65-.69,3.91-.93,2.48-.2,3.51-.22,1.89.17,2.49.25l.93.21-.87.4c-.56.19-1.35.49-2.27.88-.75.23-1.61.54-2.49.88l1.29,8-4-7.09-1.48.55c-1.23.36-2.44.76-3.57,1.18h0l3.33,13.3-6-12.43-.45.15c-1,.25-1.78.5-2.34.69l-.93.22.61-.74C564.55,660.6,565.16,660,565.94,659.31Z"/><path class="cls-2" d="M637.47,705.18a17,17,0,0,0-1.45-1.62,20.36,20.36,0,0,0-1.58-1.82,23.77,23.77,0,0,0-1.5-1.88,19.17,19.17,0,0,0-1.34-1.72,15.9,15.9,0,0,0-1-1.34c-.22-.37-.35-.57-.35-.57l.68,0a15.94,15.94,0,0,1,1.68.44,20.88,20.88,0,0,1,2.14,1.14,25.23,25.23,0,0,1,2.06,1.87,10.56,10.56,0,0,1,2.21,4.67c.09.73.12,1.33.13,1.74s-.07.68-.07.68l-.5-.46A14.8,14.8,0,0,0,637.47,705.18Z"/><path class="cls-2" d="M593.14,495.63a46.73,46.73,0,0,1-1.24-8.08,29,29,0,0,1,.22-5.77c.2-1.38.38-2.15.38-2.15s-.07.8-.08,2.17a39.38,39.38,0,0,0,.36,5.67,58.43,58.43,0,0,0,1.68,7.82c.77,2.83,1.77,5.8,2.85,8.76s2.13,5.94,3.12,8.73,1.83,5.42,2.6,7.66,1.3,4.15,1.73,5.47l.61,2.08-.9-2c-.54-1.27-1.37-3.06-2.27-5.26s-2-4.74-3.05-7.51-2.19-5.72-3.33-8.67S593.86,498.53,593.14,495.63Z"/><path class="cls-2" d="M530.23,504.35c.48-1.47.87-3.24,1.35-5.1s.86-3.89,1.17-5.93.62-4.06.78-6,.33-3.72.34-5.27.11-2.86.09-3.77,0-1.43,0-1.43l.28,1.41a34.52,34.52,0,0,1,.49,3.77,45.67,45.67,0,0,1,.14,5.38c-.09,2-.29,4.06-.59,6.15s-.86,4.12-1.4,6a46.64,46.64,0,0,1-1.84,5.06,36.72,36.72,0,0,1-1.67,3.41l-.72,1.24.44-1.36C529.42,507.09,529.77,505.83,530.23,504.35Z"/><path class="cls-2" d="M665.81,497.05c1,.75,2.24,1.61,3.43,2.66s2.42,2.22,3.61,3.43,2.24,2.55,3.23,3.79,1.79,2.51,2.48,3.57,1.16,2,1.52,2.66l.51,1.05-.76-.88c-.46-.57-1.18-1.35-2-2.31S676,509,675,507.8s-2.15-2.39-3.32-3.58-2.28-2.42-3.4-3.5-2.13-2.15-3.06-3-1.65-1.61-2.2-2.1l-.83-.81,1,.56C663.86,495.78,664.79,496.29,665.81,497.05Z"/><path class="cls-2" d="M662.14,460.87c-1.59-.14-3.45-.09-5.43-.09a55.58,55.58,0,0,0-6.19.46,57.4,57.4,0,0,0-6.12,1c-1.92.48-3.74.88-5.25,1.39s-2.8.88-3.67,1.22l-1.4.5,1.27-.77a32,32,0,0,1,3.49-1.78,40.6,40.6,0,0,1,5.23-1.88,40.5,40.5,0,0,1,12.64-1.54,42,42,0,0,1,5.53.58,31.77,31.77,0,0,1,3.82.89l1.41.44-1.47-.15C665.07,461.05,663.73,461,662.14,460.87Z"/><path class="cls-2" d="M693.76,442c-1.54-1.21-3.22-2.44-5-3.6s-3.45-2.35-5.13-3.35-3.24-2-4.64-2.7-2.52-1.4-3.35-1.81l-1.28-.69,1.4.4c.88.3,2.16.68,3.62,1.31a54.27,54.27,0,0,1,4.93,2.3c1.74,1,3.56,2.07,5.34,3.24s3.4,2.56,4.92,3.85a51.48,51.48,0,0,1,3.91,3.78c1.11,1.15,1.92,2.2,2.51,2.92l.87,1.16-1.1-.95c-.67-.63-1.69-1.46-2.88-2.49S695.28,443.22,693.76,442Z"/><path class="cls-2" d="M626.54,429.09c-1,0-2.09.13-3.29.16s-2.47.14-3.74.28-2.54.2-3.73.35-2.31.23-3.26.39l-2.34.29-.9.1.82-.39a20.19,20.19,0,0,1,2.22-.86,29.35,29.35,0,0,1,3.25-.88c1.21-.22,2.51-.41,3.81-.57s2.63-.09,3.86-.07a30.31,30.31,0,0,1,3.35.32,22.87,22.87,0,0,1,2.33.47l.87.25-.9.06Z"/><path class="cls-2" d="M643.91,521.22c.45,1,1.09,2.22,1.67,3.52s1.25,2.65,1.95,4,1.3,2.74,2,4,1.21,2.48,1.76,3.48l1.23,2.48.45,1-.7-.79c-.43-.52-1.08-1.24-1.74-2.19s-1.46-2-2.19-3.28-1.47-2.6-2.18-4-1.26-2.82-1.8-4.16-.9-2.64-1.24-3.74-.52-2.06-.67-2.71l-.19-1.05.48,1Z"/><path class="cls-2" d="M621,533.08a38.78,38.78,0,0,1-1.21-13.4,38.23,38.23,0,0,1,.91-5.8,30.22,30.22,0,0,1,1.2-4l.57-1.46L622.2,510c-.2,1-.4,2.37-.61,4a57.05,57.05,0,0,0-.43,5.72,49.87,49.87,0,0,0,.23,6.53,50.76,50.76,0,0,0,1,6.48c.48,2,.89,4,1.44,5.55s1,2.94,1.34,3.86l.55,1.46-.83-1.33a30.28,30.28,0,0,1-1.88-3.68A38.24,38.24,0,0,1,621,533.08Z"/><path class="cls-2" d="M500.6,538.76c.2-1.65.29-3.59.47-5.65s.26-4.28.29-6.49.11-4.42.06-6.49,0-4-.15-5.68-.12-3.05-.2-4-.06-1.54-.06-1.54.13.54.37,1.49.54,2.32.77,4,.51,3.61.64,5.71.16,4.34.14,6.58-.28,4.48-.51,6.58-.62,4-.95,5.66-.73,3-1,3.94-.45,1.47-.45,1.47.06-.56.16-1.53S500.42,540.42,500.6,538.76Z"/><path class="cls-2" d="M486.78,463.64c-.69-.65-1.28-1.22-1.73-1.57l-.69-.58.85.32a12.09,12.09,0,0,1,2.12,1.14,15.43,15.43,0,0,1,2.67,2.16,24,24,0,0,1,2.46,3.09,24.91,24.91,0,0,1,1.66,3.58,16.48,16.48,0,0,1,.74,3.35,12.76,12.76,0,0,1,.06,2.41l-.09.91-.22-.88a23,23,0,0,0-.62-2.26,27.38,27.38,0,0,0-1.14-3,22.17,22.17,0,0,0-1.73-3.25,22.48,22.48,0,0,0-2.13-3A29.41,29.41,0,0,0,486.78,463.64Z"/><path class="cls-2" d="M429.4,478.42a19.42,19.42,0,0,1,1.51-2.41,37.09,37.09,0,0,1,4.59-5.47,47.12,47.12,0,0,1,6.45-5.09,48.23,48.23,0,0,1,7.39-3.59,37.62,37.62,0,0,1,6.93-1.75,19.1,19.1,0,0,1,2.83-.3c.84-.07,1.58-.09,2.18-.08l1.9,0-1.88.26a17,17,0,0,0-2.13.35c-.82.14-1.74.33-2.73.59a47.15,47.15,0,0,0-6.61,2.16,48.06,48.06,0,0,0-13.4,8.4,48,48,0,0,0-4.82,5c-.66.78-1.23,1.53-1.72,2.2a16.89,16.89,0,0,0-1.24,1.77l-1,1.58.78-1.73A19.85,19.85,0,0,1,429.4,478.42Z"/><path class="cls-2" d="M447.56,507.94c.69-1.09,1.49-2.36,2.48-3.63s2.13-2.57,3.29-3.83,2.5-2.37,3.73-3.41a40.79,40.79,0,0,1,3.54-2.6c1.06-.73,2-1.22,2.67-1.59l1.06-.54-.88.79c-.58.47-1.35,1.21-2.31,2s-2,1.86-3.18,2.92-2.35,2.26-3.5,3.48-2.33,2.42-3.36,3.61-2,2.28-2.82,3.28-1.51,1.78-2,2.37l-.75.9.49-1.07C446.41,510,446.87,509,447.56,507.94Z"/><path class="cls-2" d="M469.26,527.51c.47-.9,1-2,1.59-3.08l2-3.45c.73-1.14,1.46-2.28,2.15-3.34s1.41-2,2-2.84,1.16-1.47,1.52-1.95l.61-.71-.35.87c-.25.54-.56,1.34-1,2.25s-1,2-1.59,3.08l-2,3.45L472,525.14c-.68,1.07-1.42,2-2,2.83s-1.16,1.48-1.52,1.95l-.61.71s.13-.31.35-.87S468.8,528.42,469.26,527.51Z"/><path class="cls-2" d="M461.84,435.15c1.89.23,4.1.5,6.44,1s4.83,1,7.3,1.63,4.88,1.46,7.14,2.23,4.3,1.65,6.06,2.39,3.16,1.49,4.16,2,1.55.82,1.55.82l-1.67-.53c-1-.37-2.56-.83-4.36-1.43s-3.92-1.21-6.17-1.93-4.68-1.38-7.12-2-4.86-1.29-7.17-1.81-4.44-1.06-6.31-1.41-3.39-.74-4.48-.94l-1.71-.37,1.74.06C458.35,434.86,459.94,434.91,461.84,435.15Z"/><path class="cls-2" d="M426.51,445.51a33,33,0,0,1,2.31-2.84c.93-1,1.95-2,3-2.91s2.28-1.74,3.39-2.49a33,33,0,0,1,3.19-1.79,24.11,24.11,0,0,1,2.38-1l.93-.31-.78.58c-.52.34-1.21.9-2.07,1.5s-1.81,1.38-2.86,2.15S433.9,440,432.86,441s-2.13,1.78-3.08,2.68-1.87,1.69-2.6,2.45-1.4,1.33-1.83,1.78l-.71.68.47-.86A22.86,22.86,0,0,1,426.51,445.51Z"/><path class="cls-2" d="M474.82,410.39c2.69-.59,5.85-1.22,9.27-1.69s7.09-.81,10.77-1.06,7.37-.18,10.82-.09,6.66.39,9.4.69,5,.69,6.59.95l2.49.46-2.52-.16c-1.6-.14-3.89-.24-6.63-.37s-5.94-.16-9.36-.21-7.07.09-10.71.3-7.28.46-10.68.84-6.58.75-9.28,1.21-5,.76-6.55,1.07l-2.49.43,2.42-.73C469.91,411.6,472.12,411,474.82,410.39Z"/><path class="cls-2" d="M654.45,412.14c-1.08-.24-2.3-.49-3.63-.75-2.66-.57-5.8-1-9.16-1.48s-7-.76-10.57-.92-7.22-.23-10.61-.13-6.56.26-9.26.58c-1.35.12-2.59.25-3.69.38s-2.06.23-2.85.36l-2.48.33,2.43-.63c.77-.2,1.71-.41,2.8-.64s2.32-.49,3.68-.68c2.7-.44,5.88-.85,9.31-1.06s7.09-.21,10.75-.08,7.3.63,10.69,1.14,6.51,1.26,9.16,2c1.33.33,2.53.7,3.59,1s2,.64,2.73.91l2.35.87-2.44-.58C656.48,412.57,655.54,412.37,654.45,412.14Z"/><path class="cls-2" d="M509.18,559.56c.77-.78,1.53-1.82,2.41-2.86a37.06,37.06,0,0,0,2.46-3.48,39,39,0,0,0,2.15-3.68c.59-1.23,1.21-2.36,1.6-3.39s.81-1.87,1-2.48.37-1,.37-1l-.08,1a18.67,18.67,0,0,1-.47,2.69,25,25,0,0,1-1.21,3.69,39.38,39.38,0,0,1-2.06,4,38.21,38.21,0,0,1-2.74,3.52,24.5,24.5,0,0,1-2.85,2.62,18.64,18.64,0,0,1-2.25,1.55l-.91.5.72-.74C507.81,561.07,508.43,560.37,509.18,559.56Z"/><path class="cls-2" d="M603.13,552.49c-.57-.63-1.17-1.32-1.75-2s-1-1.52-1.46-2.25a19.32,19.32,0,0,1-1-2.1,15.51,15.51,0,0,1-.57-1.57l-.16-.61.43.47c.25.31.66.72,1.06,1.26s.93,1.12,1.41,1.8,1,1.37,1.59,2.06,1,1.44,1.53,2.09.92,1.33,1.34,1.86.68,1,.91,1.36l.34.55-.55-.33a15.07,15.07,0,0,1-1.35-1A21.3,21.3,0,0,1,603.13,552.49Z"/><path class="cls-2" d="M591.71,500.08c.39.9.91,1.93,1.35,3.07s.91,2.36,1.39,3.58.81,2.49,1.19,3.65.63,2.29.9,3.24.39,1.76.52,2.32l.16.9-.45-.79c-.25-.52-.67-1.24-1.07-2.14s-.91-1.93-1.35-3.07L593,507.26l-1.2-3.65c-.38-1.16-.63-2.29-.9-3.23s-.39-1.77-.52-2.33l-.16-.9.45.79C590.89,498.46,591.31,499.18,591.71,500.08Z"/><path class="cls-2" d="M593.87,472.9l-.3.81v-.87a15.25,15.25,0,0,1,.21-2.29,21.3,21.3,0,0,1,.75-3.17,21.77,21.77,0,0,1,3.4-6.64,21.05,21.05,0,0,1,2.14-2.45,14.54,14.54,0,0,1,1.73-1.51l.71-.51L602,457c-.33.43-.74,1.1-1.27,1.86s-1.07,1.69-1.69,2.65a35.7,35.7,0,0,0-1.72,3.13,32.45,32.45,0,0,0-1.53,3.23c-.42,1.07-.89,2-1.17,2.92S594,472.37,593.87,472.9Z"/><path class="cls-2" d="M531.35,467.17c-.4-.67-1-1.4-1.49-2.21s-1.15-1.65-1.79-2.45-1.23-1.66-1.86-2.4-1.18-1.48-1.72-2.05-.93-1.12-1.25-1.45l-.47-.58.67.34a14.94,14.94,0,0,1,1.65,1,18.37,18.37,0,0,1,2.12,1.78c.71.72,1.43,1.53,2.12,2.37s1.19,1.81,1.69,2.69a18.82,18.82,0,0,1,1.12,2.53,14.22,14.22,0,0,1,.55,1.88c.08.46.13.73.13.73l-.42-.61C532.17,468.38,531.77,467.84,531.35,467.17Z"/><path class="cls-2" d="M488.59,432.1c-.95-.29-1.74-.57-2.3-.72l-.88-.28.93,0a21.25,21.25,0,0,1,2.44.16,24.42,24.42,0,0,1,3.41.66c1.22.36,2.51.8,3.77,1.3s2.43,1.22,3.53,1.87a25.06,25.06,0,0,1,2.81,2.05,19.43,19.43,0,0,1,1.78,1.68l.62.69-.81-.46c-.49-.31-1.24-.69-2.1-1.19s-1.9-1-3-1.58-2.27-1.12-3.48-1.62-2.4-1-3.56-1.44S489.55,432.36,488.59,432.1Z"/><path class="cls-2" d="M665.18,437.1c-1.48,0-3.19.2-5,.34a68.09,68.09,0,0,0-11.23,2.25c-1.74.57-3.4,1-4.76,1.61s-2.54,1-3.32,1.33l-1.27.54,1.12-.8a29.68,29.68,0,0,1,3.1-1.88,37,37,0,0,1,4.7-2.1,54.17,54.17,0,0,1,5.69-1.6,51.3,51.3,0,0,1,5.86-.7,35.36,35.36,0,0,1,5.15.13,27.79,27.79,0,0,1,3.58.53l1.34.31h-1.37C667.89,437,666.65,437.06,665.18,437.1Z"/><path class="cls-2" d="M683,456c1.46.95,2.88,2,4.15,3a34.4,34.4,0,0,1,3.21,3.05,26.49,26.49,0,0,1,2,2.41l.68,1-.91-.76c-.55-.51-1.39-1.17-2.37-2s-2.19-1.67-3.44-2.62-2.68-1.85-4.13-2.7-2.89-1.72-4.3-2.42-2.73-1.38-3.91-1.84-2.14-.94-2.85-1.2l-1.09-.45,1.18.15a27.3,27.3,0,0,1,3,.66,33.44,33.44,0,0,1,4.19,1.45A49.67,49.67,0,0,1,683,456Z"/><path class="cls-8" d="M468,330.61H429a1.52,1.52,0,0,1-1.51-1,1.9,1.9,0,0,1,.32-1.84l36.23-36.12H429a1.66,1.66,0,0,1-1.62-1.62,1.68,1.68,0,0,1,1.62-1.62H468a1.54,1.54,0,0,1,1.52,1,1.91,1.91,0,0,1-.33,1.84l-36.23,36.12h35a1.55,1.55,0,0,1,1.14.49,1.56,1.56,0,0,1,.49,1.13,1.67,1.67,0,0,1-1.63,1.63Zm-24.33-48.67a1.68,1.68,0,0,1-1.62-1.62v-9.74a1.68,1.68,0,0,1,1.62-1.62h9.73a1.55,1.55,0,0,1,1.14.49,1.56,1.56,0,0,1,.49,1.13v9.74a1.56,1.56,0,0,1-.49,1.13,1.55,1.55,0,0,1-1.14.49Zm1.62-3.24h6.49v-6.49h-6.49Z"/><path class="cls-8" d="M516.75,330.61H477.81a1.56,1.56,0,0,1-1.13-.49,1.55,1.55,0,0,1-.49-1.14V290.05a1.68,1.68,0,0,1,1.62-1.62h38.94a1.68,1.68,0,0,1,1.62,1.62V329a1.55,1.55,0,0,1-.49,1.14A1.56,1.56,0,0,1,516.75,330.61Zm-37.31-3.25h35.68V291.67H479.44Zm17.84-45.42a1.6,1.6,0,0,1-1.19-.43,1.7,1.7,0,0,1,0-2.38l9.73-9.73a1.68,1.68,0,0,1,2.38,2.37l-9.73,9.74A1.61,1.61,0,0,1,497.28,281.94Z"/><path class="cls-8" d="M526.48,320.87a2.17,2.17,0,0,1-1.19-.43,1.7,1.7,0,0,1,0-2.38l19.47-19.47a1.48,1.48,0,0,1,2.37,0,1.7,1.7,0,0,1,0,2.38l-19.46,19.47A2.17,2.17,0,0,1,526.48,320.87Zm19.46,19.47h-9.73a1.68,1.68,0,0,1-1.62-1.62V281.94h-8.11a1.66,1.66,0,0,1-1.62-1.62,1.64,1.64,0,0,1,1.62-1.62h9.73a1.64,1.64,0,0,1,1.62,1.62v56.77h8.11a1.57,1.57,0,0,1,1.14.49,1.58,1.58,0,0,1,.49,1.14,1.56,1.56,0,0,1-.49,1.13A1.53,1.53,0,0,1,545.94,340.34Z"/><path class="cls-8" d="M595.74,288.88a1.58,1.58,0,0,1,.49,1.23,1.46,1.46,0,0,1-.49,1.12,1.64,1.64,0,0,1-1.13.44H576.77V329a1.56,1.56,0,0,1-.49,1.13,1.55,1.55,0,0,1-1.14.49,1.68,1.68,0,0,1-1.62-1.62V291.67H555.68a1.66,1.66,0,0,1-1.14-.44,1.49,1.49,0,0,1-.49-1.12,1.61,1.61,0,0,1,.49-1.23,1.63,1.63,0,0,1,1.14-.45h38.93A1.6,1.6,0,0,1,595.74,288.88Z"/><path class="cls-8" d="M644.46,288.86a1.56,1.56,0,0,1,0,2.27l-38.93,38.94a1.58,1.58,0,0,1-2.38,0,1.58,1.58,0,0,1,0-2.28l18.39-18.27-18.39-18.39a1.56,1.56,0,0,1,0-2.27,1.49,1.49,0,0,1,2.38,0l18.28,18.28,18.27-18.28a1.66,1.66,0,0,1,1.19-.54A1.64,1.64,0,0,1,644.46,288.86Z"/><path class="cls-8" d="M546.3,389.23H507.36a1.52,1.52,0,0,1-1.13-.49,1.66,1.66,0,0,1-.49-1.24,1.35,1.35,0,0,1,.49-1.08,1.64,1.64,0,0,1,1.13-.44h37.31V369.65H507.36a1.63,1.63,0,0,1-1.13-.43,1.38,1.38,0,0,1-.49-1.08V348.57a1.53,1.53,0,0,1,.49-1.14,1.56,1.56,0,0,1,1.13-.49H546.3a1.58,1.58,0,0,1,1.13.47,1.48,1.48,0,0,1,.49,1.1,1.61,1.61,0,0,1-.49,1.21,1.58,1.58,0,0,1-1.13.47H509v16.22H546.3a1.63,1.63,0,0,1,1.13.43,1.51,1.51,0,0,1,.49,1.2v19.45a1.68,1.68,0,0,1-.49,1.25A1.52,1.52,0,0,1,546.3,389.23Z"/><path class="cls-8" d="M556,379.5a2.19,2.19,0,0,1-1.19-.44,1.7,1.7,0,0,1,0-2.38l19.47-19.46a1.47,1.47,0,0,1,2.37,0,1.7,1.7,0,0,1,0,2.38l-19.46,19.46A2.19,2.19,0,0,1,556,379.5ZM575.5,399h-9.74a1.68,1.68,0,0,1-1.62-1.62V340.56H556a1.62,1.62,0,0,1,0-3.24h9.73a1.64,1.64,0,0,1,1.62,1.62v56.78h8.12a1.66,1.66,0,0,1,1.62,1.62A1.68,1.68,0,0,1,575.5,399Z"/><path class="cls-8" d="M624.16,389.23H585.23a1.68,1.68,0,0,1-1.63-1.62V348.67a1.68,1.68,0,0,1,1.63-1.62h38.93a1.66,1.66,0,0,1,1.62,1.62v38.94a1.66,1.66,0,0,1-1.62,1.62ZM586.85,386h35.69V350.3H586.85Z"/><path class="cls-8" d="M672.82,389.23a2.22,2.22,0,0,1-1.18-.43l-36.12-36.23v35a1.56,1.56,0,0,1-.49,1.13,1.55,1.55,0,0,1-1.14.49,1.68,1.68,0,0,1-1.62-1.62V348.67a1.54,1.54,0,0,1,1-1.51,1.9,1.9,0,0,1,1.84.32l36.12,36.23v-35a1.61,1.61,0,0,1,2.76-1.13,1.56,1.56,0,0,1,.49,1.13v38.94a1.68,1.68,0,0,1-1,1.51A1.52,1.52,0,0,1,672.82,389.23Zm-19.46-48.67a1.6,1.6,0,0,1-1.19-.43,1.7,1.7,0,0,1,0-2.38L661.9,328a1.68,1.68,0,0,1,2.38,2.38l-9.73,9.73A1.61,1.61,0,0,1,653.36,340.56Z"/></g></svg>