<svg id="Слой_1" data-name="Слой 1" xmlns="http://www.w3.org/2000/svg" xmlns:xlink="http://www.w3.org/1999/xlink" viewBox="0 0 1142.66 721.15"><defs><style>.cls-1{fill:none;}.cls-2{fill:#12100b;}.cls-3,.cls-8{fill:#f3e600;}.cls-4{clip-path:url(#clip-path);}.cls-5{clip-path:url(#clip-path-2);}.cls-6{clip-path:url(#clip-path-3);}.cls-7{fill:#fff;}.cls-8{stroke:#f1e511;stroke-miterlimit:10;stroke-width:3px;}</style><clipPath id="clip-path"><rect class="cls-1" x="-60.73" width="1264.12" height="762.21"/></clipPath><clipPath id="clip-path-2"><rect id="SVGID" class="cls-1" x="573.31" y="-108.99" width="632.31" height="636.43"/></clipPath><clipPath id="clip-path-3"><rect id="SVGID-2" data-name="SVGID" class="cls-1" x="245.94" y="-115.25" width="959.35" height="639.57"/></clipPath></defs><rect class="cls-2" x="781.57" y="297.36" width="106.58" height="106.58" transform="translate(1669.73 701.3) rotate(-180)"/><rect class="cls-3" x="812.16" y="327.95" width="45.4" height="45.4" transform="translate(1669.73 701.3) rotate(180)"/><g class="cls-4"><rect class="cls-2" x="424.64" y="241.36" width="292.81" height="102.04"/><g class="cls-5"><g class="cls-6"><rect class="cls-2" x="885.55" y="-8.67" width="106.58" height="106.58"/><path class="cls-2" d="M992.13-8.67h0a0,0,0,0,1,0,0V97.91a0,0,0,0,1,0,0H885.55a0,0,0,0,1,0,0v0A106.58,106.58,0,0,1,992.13-8.67Z"/><path class="cls-2" d="M992.13-8.67h0A106.58,106.58,0,0,1,1098.71,97.91v0a0,0,0,0,1,0,0H992.13a0,0,0,0,1,0,0V-8.67A0,0,0,0,1,992.13-8.67Z"/><path class="cls-7" d="M885.55,97.91H992.13a0,0,0,0,1,0,0V204.49a0,0,0,0,1,0,0h0A106.58,106.58,0,0,1,885.55,97.91v0A0,0,0,0,1,885.55,97.91Z"/><path class="cls-7" d="M992.13,97.91h106.58a0,0,0,0,1,0,0v0A106.58,106.58,0,0,1,992.13,204.49h0a0,0,0,0,1,0,0V97.91A0,0,0,0,1,992.13,97.91Z"/><path class="cls-3" d="M992.13,97.91H939.36a52.77,52.77,0,0,1,52.77-52.77h0Z"/><path class="cls-7" d="M992.13,45.14h0a52.77,52.77,0,0,1,52.77,52.77v0a0,0,0,0,1,0,0H992.13a0,0,0,0,1,0,0V45.14A0,0,0,0,1,992.13,45.14Z"/><path class="cls-3" d="M992.13,150.69h0V97.91h52.77A52.78,52.78,0,0,1,992.13,150.69Z"/></g><path class="cls-2" d="M844.86,101.62H496.91a174,174,0,0,0,174,174h348A174,174,0,0,0,844.86,101.62Z"/></g><path class="cls-7" d="M261.29,317.26h0a0,0,0,0,1,0,0V423.84a0,0,0,0,1,0,0H154.71a0,0,0,0,1,0,0v0A106.58,106.58,0,0,1,261.29,317.26Z" transform="translate(416.01 741.1) rotate(180)"/><path class="cls-2" d="M48.13,317.26h0A106.58,106.58,0,0,1,154.71,423.84v0a0,0,0,0,1,0,0H48.13a0,0,0,0,1,0,0V317.26A0,0,0,0,1,48.13,317.26Z" transform="translate(202.85 741.1) rotate(180)"/><path class="cls-2" d="M154.71,210.68H261.29a0,0,0,0,1,0,0V317.26a0,0,0,0,1,0,0h0A106.58,106.58,0,0,1,154.71,210.68v0A0,0,0,0,1,154.71,210.68Z" transform="translate(416.01 527.94) rotate(-180)"/><path class="cls-7" d="M48.13,210.68H154.71a0,0,0,0,1,0,0v0A106.58,106.58,0,0,1,48.13,317.26h0a0,0,0,0,1,0,0V210.68A0,0,0,0,1,48.13,210.68Z" transform="translate(202.85 527.94) rotate(-180)"/><path class="cls-3" d="M154.71,317.26h52.78A52.77,52.77,0,0,1,154.71,370h0Z"/><path class="cls-7" d="M101.94,317.26h0A52.77,52.77,0,0,1,154.71,370v0a0,0,0,0,1,0,0H101.94a0,0,0,0,1,0,0V317.26A0,0,0,0,1,101.94,317.26Z" transform="translate(256.66 687.29) rotate(180)"/><path class="cls-3" d="M154.71,264.49h0v52.77H101.94A52.78,52.78,0,0,1,154.71,264.49Z"/><path class="cls-2" d="M257.61,275.14H605.56a174,174,0,0,0-174-174h-348A174,174,0,0,0,257.61,275.14Z"/><rect class="cls-2" x="415.94" y="101.24" width="217.05" height="181.66"/><rect class="cls-2" x="238.97" y="262.02" width="380.89" height="20.89"/><rect class="cls-2" x="196.46" y="203.76" width="423.39" height="58.54"/><rect class="cls-2" x="467.48" y="101.24" width="161.34" height="67.36"/><path class="cls-2" d="M378.22,468.89h0V245.06h0A111.92,111.92,0,0,1,490.14,357V580.81h0A111.92,111.92,0,0,1,378.22,468.89Z"/><path class="cls-2" d="M747.92,468.89h0V245.06h0A111.91,111.91,0,0,0,636,357V580.81h0A111.91,111.91,0,0,0,747.92,468.89Z"/><rect class="cls-2" x="484.86" y="245.06" width="154.23" height="335.75"/><path class="cls-3" d="M463.78,554.94a83.2,83.2,0,0,0,9.73,4.19,46.92,46.92,0,0,0,5.35.2,49.42,49.42,0,0,0,6.37-.3,48.6,48.6,0,0,0,6.33-.82,43.78,43.78,0,0,0,5.5-1.21,36.9,36.9,0,0,0,3.91-1.07l1.51-.43-1.24,1a35.89,35.89,0,0,1-3.55,2.18,47.33,47.33,0,0,1-5.49,2.21,50.49,50.49,0,0,1-6.67,1.29,45.57,45.57,0,0,0,6.25.44c18.32,0,29.57-11.57,35.76-21.19a51.83,51.83,0,0,1-5.45,6,55.18,55.18,0,0,1-15.85,10.43A52.13,52.13,0,0,1,500.4,560c-1.43.43-2.26.64-2.26.64s.81-.28,2.2-.83A52.8,52.8,0,0,0,530,530.29c.42-1.07.78-2.07,1.08-3-.59,1-1.22,1.91-1.9,2.84a62.83,62.83,0,0,1-7.14,8.39,61.86,61.86,0,0,0,5.08-9.54,60.48,60.48,0,0,0,3.21-10,11.59,11.59,0,0,0-9.09-4,13.38,13.38,0,0,0-3.12.34C510.46,554.41,463.78,554.94,463.78,554.94Zm42.84-14.67.72-.74c.47-.44,1.09-1.15,1.84-1.95s1.53-1.82,2.41-2.86a38.59,38.59,0,0,0,2.46-3.49,36.61,36.61,0,0,0,2.15-3.68c.59-1.22,1.21-2.35,1.6-3.38s.81-1.87,1-2.48l.37-1s0,.37-.08,1a19.14,19.14,0,0,1-.47,2.69,25.31,25.31,0,0,1-1.21,3.68,37.33,37.33,0,0,1-2.06,4,35.69,35.69,0,0,1-2.74,3.52,24.66,24.66,0,0,1-2.85,2.63,19.58,19.58,0,0,1-2.25,1.54Z"/><path class="cls-3" d="M521.21,510.28a16.74,16.74,0,0,1,12.95,5.93l1-7.63.91,3.25c.07-1,.13-2,.21-3,.15-2.35.36-4.58.59-6.63.84-8.19,2-13.6,2-13.6s.42,5.51.69,13.7c.07,2.05.15,4.26.23,6.6s.19,4.82.21,7.37.15,5.18.23,7.86.15,5.4.23,8.11c0,1.8.09,3.58.14,5.36.88,12.08,2.24,26.33,4.33,41,5.51,38.56,16.39,70.19,28.19,86.72,10.06,14.08,22.4,28.69,35.26,34.91a30.42,30.42,0,0,0,9.87,1.74c15.4,0,25.45-12.79,23.85-18.85-1.4-5.33-6-10-10.23-10a5.27,5.27,0,0,0-1.83.32,4.19,4.19,0,0,0-.66,1.45,6.4,6.4,0,0,0,.12,4.07,8.21,8.21,0,0,0,2.08,3.74,9.63,9.63,0,0,0,3.11,2.51,9.18,9.18,0,0,0,2.77,1.15c.37.12.66.17.87.22l.31.06-.3.1c-.21,0-.51.16-.9.23a10.12,10.12,0,0,1-3.37-.11,11.84,11.84,0,0,1-4.38-2.19,11.6,11.6,0,0,1-1.91-2.19l-.4,2.31-1.09-1.85c0,.14,0,.28,0,.42a28.1,28.1,0,0,0-.35,3.92c0,.12,0,.23,0,.34l.21.09a3.89,3.89,0,0,0,1.56.23,4.62,4.62,0,0,0,1.71-.45,4.33,4.33,0,0,0,.74-.44,4.56,4.56,0,0,1-.42.8,5.61,5.61,0,0,1-1.47,1.52,6.05,6.05,0,0,1-2.1.93l-.29.06c0,.14,0,.29,0,.43a18.87,18.87,0,0,0,0,2.57c0,.65,0,1,0,1l-.58-.84A21.6,21.6,0,0,1,624.1,691a27.24,27.24,0,0,1-.91-3.71c-.08-.9-.1-1.84-.09-2.8-1,1.79-2.71,2.9-6.94,2.9a8.88,8.88,0,0,1-2.91-.51,6.83,6.83,0,0,0-1.11,1.3l0,.05,2.13,2.53-3.45-.35c-.13.21-.25.43-.36.65l2.22,2.5-3.2-.19c-.15.38-.27.75-.38,1.1-.29.65-.51,1.23-.65,1.63l-.31.65-.31-.65c-.13-.42-.32-1-.49-1.79a15.82,15.82,0,0,1-.06-2.63,12.92,12.92,0,0,1,.9-3,10.22,10.22,0,0,1,2.09-2.45c.25-.17.5-.29.75-.43-3.09-1.9-6.54-5.68-10.8-12.15a11,11,0,0,0-1.38,1.05l2.32,4.17-4.38-2.38-.39.32,5,8-7-6a8.78,8.78,0,0,0-.65.76,9.54,9.54,0,0,0-1.09,1.22l-.46.51s0-.25-.12-.68a9.9,9.9,0,0,1,.07-1.8,12.78,12.78,0,0,1,.86-2.4,14.41,14.41,0,0,1,1.81-2.32,15.13,15.13,0,0,1,2.5-1.55A14.79,14.79,0,0,1,599,672a74.85,74.85,0,0,1-9.36-18.57c-.41.26-.91.6-1.5,1s-1.38.82-2.13,1.33l-.09,1.87-1.72-.8c-.37.22-.75.46-1.11.71-.57.28-1.12.58-1.66.89l5.72,10.13-8.31-8.68-.91.53c-.77.36-1.39.7-1.83.95l-.75.34s.12-.28.31-.77.61-1.09,1.09-1.84,1.23-1.44,2-2.23a31.64,31.64,0,0,1,2.75-2c1-.53,2.11-1,3.12-1.38s2.06-.52,2.91-.67,1.36-.08,1.85-.08a126.79,126.79,0,0,1-4.73-18.41l-.22-.07.15-.35c-6-33.19-2.1-72.38,1.33-93.71.07-2.63.14-5.3.21-8s.15-5.43.23-8.11.15-5.31.23-7.86.16-5,.21-7.37.16-4.55.22-6.6c.28-8.19.7-13.7.7-13.7s1.16,5.41,2,13.6c.22,2,.42,4.11.57,6.37L591,500l1.83,12.59,1.33-5.21,1.49,5.82a17.59,17.59,0,0,1,9.75-2.94h0a19.69,19.69,0,0,1,2.53.16c-.34-3.24-.77-6.05-1.23-8.44-.69-1.65-1.51-3.69-2.39-6-.61-1.63-1.28-3.39-1.92-5.27s-1.37-3.85-2-5.92-1.4-4.18-2-6.36-1.32-4.42-1.92-6.7-1-4.64-1.34-7a37.61,37.61,0,0,1-.29-7,29.9,29.9,0,0,1,3.09-12,23.9,23.9,0,0,1,5.17-6.95,18.49,18.49,0,0,1,1.86-1.51l.69-.48-.5.67c-.34.42-.79,1.08-1.34,1.92a31.47,31.47,0,0,0-3.37,7.37c-.16.55-.3,1.14-.45,1.72.16-.23.29-.47.47-.69a18.93,18.93,0,0,1,3-2.48l2.81-1.53c.86-.36,1.57-.68,2-.94l.81-.36-.4.81c-.31.47-.78,1.13-1.38,1.89l-1,1a3.18,3.18,0,0,1,1.91,1.12,3.25,3.25,0,0,1,.53,1.09,11.37,11.37,0,0,0,.62-2c.17-.63.23-1,.23-1a10.11,10.11,0,0,1,.38,1,11.55,11.55,0,0,1,.3,2.82,12.15,12.15,0,0,1-1.12,4,22.88,22.88,0,0,1-2.75,3.66,29.31,29.31,0,0,0-2.83,2.93,8.72,8.72,0,0,0-1.8,2.8,5.22,5.22,0,0,0-.59,2.37,4.68,4.68,0,0,0,0,1,4.78,4.78,0,0,1-.63-.88,6.61,6.61,0,0,1-.54-2.89,11,11,0,0,1,1.29-4,31.28,31.28,0,0,1,2.8-3.55l.47-.45a3.67,3.67,0,0,1-3.74-1.08,3,3,0,0,1-.2-.34,11.13,11.13,0,0,0-1,2.21A10.61,10.61,0,0,0,599,457l0,.11c0,.21,0,.41,0,.62a49.64,49.64,0,0,0,.64,6.3,64.84,64.84,0,0,0,1.41,6.51c.52,2.2,1.12,4.4,1.72,6.6s1.08,4.28,1.6,6.34l2.54-9.35.51,7.4c.31-.93.61-1.93.9-3,.59-1.78,1.13-3.69,1.58-5.62s1-3.84,1.41-5.67.82-3.54,1.05-5,.58-2.75.72-3.63l.3-1.4s.11.51.31,1.4.31,2.19.43,3.75,0,3.38-.12,5.34c-.12.95-.27,1.92-.44,2.91A66,66,0,0,0,615.65,460c.88-7.5.73-12.66,0-16.78a38.72,38.72,0,0,0-1.81-3.8,28.55,28.55,0,0,0-3.17-4.76,47.63,47.63,0,0,0-3.93-4.39l-4.2-4.19a49.87,49.87,0,0,1-7-8.31,22.89,22.89,0,0,1-3.2-7.1,14.43,14.43,0,0,1-.38-2.12c0-.5-.07-.76-.07-.76a24.35,24.35,0,0,0,1.31,2.53,31.83,31.83,0,0,0,4.47,5.77,75.82,75.82,0,0,0,5.68,5.22c-.87-1.15-1.75-2.28-2.59-3.33-.83-1.21-1.62-2.33-2.31-3.27l-1.52-2.45-.53-1,1,.56,2.37,1.67c.91.77,2,1.68,3.07,2.67l1.69,1.79-.81-1.23c-1.17-1.92-2.5-3.91-3.89-5.85s-2.68-4-4-5.76-2.55-3.54-3.7-4.94-2-2.68-2.68-3.51l-1-1.38,1.42.93c.87.64,2.11,1.56,3.54,2.75s2.92,2.76,4.53,4.43,3.05,3.7,4.52,5.71l.15.24a55,55,0,0,0-13-18.24c-1.74-1-11.08-5.84-26.17-5.84A60.47,60.47,0,0,0,541.83,389c-3.94,2.69-7.23,6.5-10.25,11.88,1-.87,1.84-1.58,2.48-2.1l1.3-.92-.85,1.34c-.58.82-1.39,2-2.28,3.44s-2,3-3.12,4.83c-.92,1.4-1.84,2.92-2.72,4.47-.88,2.18-1.64,4.22-2.3,6.09.38-.55.75-1.1,1.09-1.65.78-1,1.49-2,2.05-2.92s1.19-1.56,1.55-2.08l.64-.78-.08,1c-.11.63-.27,1.53-.51,2.6s-.77,2.23-1.27,3.51c-.23.45-.48.92-.73,1.38,1.14-1,2.2-2,3.13-3a31.83,31.83,0,0,0,4.47-5.77,24.35,24.35,0,0,0,1.31-2.53l-.07.76a14.43,14.43,0,0,1-.38,2.12,22.89,22.89,0,0,1-3.2,7.1,49.87,49.87,0,0,1-7,8.31l-4.2,4.19a47.63,47.63,0,0,0-3.93,4.39,28.55,28.55,0,0,0-3.17,4.76,34,34,0,0,0-2.29,5.1c-.26.74-.48,1.48-.7,2.21a65.73,65.73,0,0,0,.43,13.27,66.8,66.8,0,0,0,2.1,10.63c-.21-1.16-.4-2.31-.55-3.41-.12-1.78-.2-3.43-.2-4.85s.19-2.6.28-3.43.24-1.29.24-1.29.13.46.37,1.26.47,1.93.86,3.27.68,2.92,1.13,4.57.81,3.44,1.32,5.18.82,3.55,1.29,5.19l.09.37,1.39-7.44,1.39,6.73A60.31,60.31,0,0,0,526.72,466c.13-.65.27-1.31.37-2a47.93,47.93,0,0,0,.65-6.3,2.62,2.62,0,0,1,0-.28c0-.13-.08-.27-.14-.45a11.34,11.34,0,0,0-.69-2.08,11.13,11.13,0,0,0-1-2.21c-.07.11-.12.23-.2.34a3.67,3.67,0,0,1-3.74,1.08l.47.45a31.28,31.28,0,0,1,2.8,3.55,11,11,0,0,1,1.28,4A6.49,6.49,0,0,1,526,465a4.78,4.78,0,0,1-.63.88,4.68,4.68,0,0,0,0-1,5.22,5.22,0,0,0-.59-2.37,8.89,8.89,0,0,0-1.8-2.8,29.31,29.31,0,0,0-2.83-2.93,22.88,22.88,0,0,1-2.75-3.66,11.68,11.68,0,0,1-1.12-4,11.07,11.07,0,0,1,.3-2.82,7.66,7.66,0,0,1,.38-1,7.8,7.8,0,0,0,.23,1,11.37,11.37,0,0,0,.62,2,3.07,3.07,0,0,1,.53-1.09,3.18,3.18,0,0,1,1.91-1.12l-1-1c-.6-.76-1.07-1.42-1.38-1.89l-.41-.81.82.36c.48.26,1.19.58,2,.94l2.81,1.53a18.93,18.93,0,0,1,3,2.48c.24.29.42.62.63.93-.16-.67-.33-1.34-.52-2a30.67,30.67,0,0,0-3.37-7.37c-.54-.84-1-1.5-1.33-1.92l-.51-.67.69.48a18.38,18.38,0,0,1,1.87,1.51,23.9,23.9,0,0,1,5.17,6.95,29.9,29.9,0,0,1,3.09,12,37.63,37.63,0,0,1-.3,7,68.57,68.57,0,0,1-1.33,7c-.61,2.28-1.27,4.52-1.92,6.7s-1.38,4.3-2,6.36-1.36,4-2,5.92-1.31,3.64-1.92,5.27c-.78,2.07-1.52,3.91-2.16,5.46-.09.47-.19,1-.28,1.46.31-.59.63-1.2,1-1.79a95.49,95.49,0,0,1,5.42-8.71,95.68,95.68,0,0,0-3.23,9.6C522.18,505.22,521.54,508.46,521.21,510.28ZM639.12,684.83l-.5-.45a13.16,13.16,0,0,0-1.15-1.19,18.32,18.32,0,0,0-1.45-1.62,20.25,20.25,0,0,0-1.58-1.81,22.07,22.07,0,0,0-1.5-1.88,19.17,19.17,0,0,0-1.34-1.72,16.33,16.33,0,0,0-1-1.35l-.35-.57.68,0c.4.09,1,.22,1.68.44a21.11,21.11,0,0,1,2.14,1.15,23.53,23.53,0,0,1,2.06,1.87,10.56,10.56,0,0,1,2.21,4.67,17.38,17.38,0,0,1,.13,1.74C639.14,684.59,639.12,684.83,639.12,684.83ZM581.54,391.15l-1.65-.13c-1-.13-2.52-.28-4.29-.36-.68-.07-1.4-.12-2.15-.17l-2,6.95-2.33-7.1c-1.67-.06-3.41-.06-5.17,0a41.63,41.63,0,0,0-1.15,4.91,43.69,43.69,0,0,0-.57,5.48,43.82,43.82,0,0,1-1.79-5.37,41.3,41.3,0,0,1-1-4.9c-1.24.06-2.47.14-3.64.26l-.87.06-2.61,5.09-1.61-4.65-.91.13c-1.77.16-3.24.4-4.27.58l-1.64.23,1.49-.73c1-.41,2.37-1,4.09-1.56s3.8-1,6-1.47,4.67-.58,7.09-.72,4.85.14,7.12.36,4.33.71,6.09,1.14,3.18,1,4.17,1.34Zm4.79,18.05-2-.49c-.62-.19-1.39-.37-2.27-.57s-1.87-.42-3-.59-2.44-.49-3.79-.68a28.36,28.36,0,0,0-1.14,3.11,33.69,33.69,0,0,0-1,4.25,34.08,34.08,0,0,1-1.36-4.3,34.78,34.78,0,0,1-.67-3.51,62.11,62.11,0,0,0-7.66-.3l-2.4,7.32-1.69-7.21c-1.6.09-3.18.22-4.69.43-.84.09-1.66.2-2.46.32l-1.93,11.71-2.6-10.86-.39.09c-1.09.19-2.07.43-2.95.66s-1.64.41-2.25.62l-2,.53,1.76-1.1c.57-.33,1.28-.7,2.11-1.1s1.76-.87,2.81-1.3a57.92,57.92,0,0,1,7.45-2.27,64.58,64.58,0,0,1,8.91-1,67.08,67.08,0,0,1,8.92.79,57,57,0,0,1,7.5,2.1c1.06.4,2,.83,2.84,1.23s1.56.73,2.14,1.06Zm8.31,39.59c-.31.87-.61,1.6-.77,2.12l-.3.82v-.87a15.14,15.14,0,0,1,.21-2.29,20.74,20.74,0,0,1,.75-3.17,36.64,36.64,0,0,1,1.41-3.47,34.94,34.94,0,0,1,2-3.17,22.09,22.09,0,0,1,2.14-2.46,15.53,15.53,0,0,1,1.73-1.51l.71-.51L602,435c-.33.44-.74,1.1-1.27,1.86s-1.07,1.7-1.69,2.66a35.7,35.7,0,0,0-1.72,3.13,32.45,32.45,0,0,0-1.53,3.23C595.39,446.94,594.92,447.91,594.64,448.79Zm4.51,42.47c-1.06-2.77-2.19-5.72-3.33-8.67s-2-6-2.68-8.94a46.88,46.88,0,0,1-1.24-8.08,28.89,28.89,0,0,1,.22-5.77c.2-1.38.38-2.15.38-2.15s-.07.79-.08,2.17a39.17,39.17,0,0,0,.36,5.66,58.88,58.88,0,0,0,1.68,7.83c.77,2.82,1.77,5.8,2.85,8.76s2.13,5.94,3.12,8.72,1.83,5.42,2.6,7.67,1.3,4.14,1.73,5.46l.61,2.09-.9-2c-.54-1.27-1.37-3.07-2.27-5.27S600.21,494,599.15,491.26Zm-9-16.1.45.8c.25.52.67,1.23,1.07,2.13s.91,1.93,1.35,3.08.91,2.36,1.39,3.58.81,2.48,1.19,3.65.63,2.29.9,3.23.39,1.77.52,2.33l.16.9-.45-.8c-.25-.52-.67-1.23-1.07-2.13s-.91-1.93-1.35-3.08L593,485.27c-.41-1.24-.82-2.48-1.2-3.65s-.63-2.28-.9-3.23-.39-1.77-.52-2.33ZM563.52,639.78l.61-.74c.42-.43,1-1,1.81-1.72s1.82-1.28,2.91-2,2.39-1.14,3.67-1.66,2.65-.68,3.91-.92,2.48-.21,3.51-.22,1.89.17,2.49.25l.93.21-.87.39c-.56.2-1.35.49-2.27.89-.75.23-1.61.54-2.49.88l1.29,8-4-7.1c-.5.18-1,.36-1.48.56-1.23.35-2.44.75-3.57,1.18h0l3.33,13.31-6-12.44-.45.16c-1,.25-1.78.5-2.34.68Zm-8.6-25.86.9-.68c.6-.38,1.46-.9,2.53-1.49s2.4-1,3.83-1.57,3-.79,4.62-1.09,3.23-.26,4.75-.26,2.93.25,4.12.43,2.17.55,2.84.76l1,.41-1.1.19c-.7.08-1.68.2-2.84.41-.89.07-1.9.2-2.94.37l.16,10.83L568.53,612l-1.28.22c-.73.07-1.46.16-2.18.27l-.9,5.32L561,613.08c-.77.11-1.5.23-2.15.36-1.18.12-2.17.26-2.85.38Zm-6-29.69,1.14-.6c.74-.33,1.81-.78,3.13-1.26s2.91-.78,4.63-1.14,3.58-.4,5.45-.5c1.86.07,3.72.22,5.45.43s3.3.7,4.64,1.08,2.4.89,3.15,1.21l1.15.58h-1.29c-.8,0-1.94-.08-3.3-.06-.73-.06-1.54-.08-2.38-.1l-2.56,14.77-1.89-14.82c-1,0-2,0-3,0s-2.14,0-3.2,0l-1.9,6.31L556.35,584c-1,0-2,.06-2.82.13-1.36,0-2.51.06-3.31.11Zm-3.13-31.3,1.34-.65c.87-.36,2.13-.85,3.67-1.37s3.4-.86,5.39-1.25,4.17-.45,6.34-.54c2.16.07,4.32.22,6.34.46s3.85.75,5.41,1.17,2.81,1,3.68,1.32l1.35.63-1.48,0c-.93-.08-2.26-.16-3.85-.18-1.4-.12-3-.17-4.75-.19l-2.08,4.43-2.11-4.51c-.83,0-1.66,0-2.49,0-1.82,0-3.63,0-5.37.09l-2.59,13.25-1.76-13.08c-.6,0-1.17.08-1.71.13-1.59,0-2.91.14-3.84.22Zm-1.12-31.29,1.5-.68c1-.39,2.37-.91,4.08-1.46s3.78-.92,6-1.33,4.62-.48,7-.58c2.4.06,4.8.23,7,.48s4.27.8,6,1.26,3.12,1,4.1,1.4l1.5.66-1.64-.07c-.91-.09-2.2-.18-3.71-.24l-2.52,12.68-1.93-12.92-2-.05c-1.85-.1-3.81-.11-5.78-.07l-3,7.13L560,520.74c-1.18,0-2.34.07-3.47.14-2.17.06-4.2.17-5.94.36s-3.23.2-4.26.31Zm36-31.2c-1-.1-2.5-.21-4.26-.26-1.06-.1-2.24-.17-3.48-.21l-2.66,12.9-1.66-13c-1.61,0-3.26-.06-4.92,0-2.15,0-4.3,0-6.34.13l-2.63,7.78-1.49-7.59c-.79.05-1.55.11-2.25.19-1.76.07-3.23.2-4.26.31l-1.64.09,1.5-.69c1-.38,2.37-.91,4.08-1.45s3.78-.92,6-1.34,4.62-.48,7-.58c2.4.07,4.8.24,7,.49s4.27.8,6,1.25,3.12,1,4.1,1.4l1.5.67Zm-40-27.14,1.94-.75c1.24-.42,3-1,5.22-1.58s4.8-1,7.59-1.45,5.83-.53,8.85-.64c3,.06,6,.24,8.86.51s5.4.85,7.61,1.34,4,1.1,5.25,1.5l1.94.71-2.06-.11c-1.3-.12-3.16-.27-5.39-.35-1.16-.11-2.43-.19-3.77-.25l-1.83,7-2.21-7.14c-2.38-.1-4.89-.13-7.41-.08l-2,15.68L561.07,462l-2.4.06-1.23,5.11-1.45-5-.33,0c-1.07,0-2.11.08-3.11.13L550.16,470l-1.9-7.33h-.15c-2.23.12-4.08.3-5.38.44Zm-2.9-28.13,2.1-1.05c.67-.32,1.51-.66,2.48-1s2.07-.82,3.29-1.23a81.12,81.12,0,0,1,8.54-2.09,87.06,87.06,0,0,1,10.06-.9,95.27,95.27,0,0,1,10.08.75,84.55,84.55,0,0,1,8.57,1.95c1.23.37,2.34.78,3.31,1.14s1.83.68,2.51,1l2.13,1-2.31-.39c-.72-.17-1.6-.32-2.62-.48l-.55-.1-2.46,7.16-.38-7.56h0c-1.53-.28-3.25-.49-5.06-.67l-3.28,15.18-1.25-15.54c-2.09-.15-4.25-.23-6.44-.23l-1.63,14.21-2.69-14.18c-1.75,0-3.47.1-5.16.23l-1.86,4.9-2.19-4.57c-2.23.22-4.31.49-6.17.84l-.77,7.93-2-7.48c-.45.08-.9.16-1.31.25-1,.19-1.89.36-2.61.55Zm-4.94,12.23-.42-.61c-.23-.4-.63-.94-1-1.6s-1-1.4-1.49-2.22-1.15-1.64-1.79-2.45-1.23-1.66-1.86-2.39-1.18-1.48-1.72-2.05-.93-1.12-1.25-1.46l-.47-.57.67.33a13.86,13.86,0,0,1,1.65,1.05,18.21,18.21,0,0,1,2.12,1.77c.71.73,1.43,1.54,2.12,2.38s1.19,1.8,1.69,2.68a18.36,18.36,0,0,1,1.12,2.54,14.16,14.16,0,0,1,.55,1.87C532.77,447.14,532.82,447.4,532.82,447.4Zm-4.15,39.93.44-1.37c.31-.86.66-2.11,1.12-3.59s.87-3.25,1.35-5.11.86-3.89,1.17-5.92.62-4.06.78-6,.33-3.72.34-5.27.11-2.85.09-3.76,0-1.44,0-1.44.1.52.28,1.41a35.22,35.22,0,0,1,.49,3.77,45.8,45.8,0,0,1,.14,5.38c-.09,2-.29,4.07-.59,6.15s-.86,4.13-1.4,6a45.87,45.87,0,0,1-1.84,5.06,35.49,35.49,0,0,1-1.67,3.41Z"/><path class="cls-3" d="M605.23,451.26a4.45,4.45,0,0,0,.33-.51,3.41,3.41,0,0,0,.42-.43c.12-.15.33-.25.45-.38s.31-.21.4-.29l.19-.12s0,.07.1.2a1.64,1.64,0,0,1,.13.53,2.1,2.1,0,0,1-.08.73,4.71,4.71,0,0,1-.38.74,4.5,4.5,0,0,1-.64.53,2,2,0,0,1-.69.25,1.62,1.62,0,0,1-.55,0l-.22-.06a2,2,0,0,0,.07-.21c.06-.1.11-.31.2-.46S605.11,451.4,605.23,451.26Z"/><path class="cls-3" d="M521.86,452.51a2.39,2.39,0,0,1-.73-.21c-.24-.13-.48-.28-.72-.44s-.38-.44-.54-.65a3,3,0,0,1-.3-.7,2.73,2.73,0,0,1-.07-.57c0-.15,0-.24,0-.24l.23.06a3.34,3.34,0,0,1,.51.19,3.82,3.82,0,0,1,.6.31c.18.14.38.29.58.42s.33.36.49.52a3.79,3.79,0,0,1,.39.56,3.4,3.4,0,0,1,.26.48l.08.22-.23.05A2.15,2.15,0,0,1,521.86,452.51Z"/><path class="cls-3" d="M605.32,538.39c1.6,2,2.8,3.22,2.8,3.22s-1.39-1-3.33-2.7a55.94,55.94,0,0,1-6.6-6.88l-.74-1a62.42,62.42,0,0,0,3.12,5.89,59.71,59.71,0,0,0,5.49,7.44,61.48,61.48,0,0,0,6.71,6.45,54.34,54.34,0,0,0,6.74,4.64c1,.63,2,1.14,2.89,1.57s1.64.83,2.29,1.09l2,.88-2.11-.69c-.68-.2-1.49-.51-2.4-.88s-2-.78-3.05-1.31a56.37,56.37,0,0,1-7.28-4.1,57,57,0,0,1-14-13.27c-.72-1-1.39-2-2-2.94,5.06,9.93,16.87,26.76,39,26.76a52.75,52.75,0,0,0,16.32-2.78c-1.92.23-3.9.41-5.91.49a73,73,0,0,1-7.72-.61,64.62,64.62,0,0,1-6.55-1.54c-1.87-.63-3.39-1.25-4.43-1.71l-1.62-.8,1.79.22c1.11.18,2.71.41,4.63.56a63.58,63.58,0,0,0,6.48.57,124.57,124.57,0,0,0,14.8-.1c2.37-.14,4.59-.33,6.48-.64l1.27-.13c.82-.39,1.63-.76,2.46-1.18,0,0-38.58-.44-51.3-29.89.73,3.29,1.54,6,1.54,6a84.72,84.72,0,0,1-4.39-8.23,81.8,81.8,0,0,1-3.14-7.77h-.12a11.46,11.46,0,0,0-9.78,4.86c.19.66.45,1.51.8,2.51a52.32,52.32,0,0,0,3.7,8.34A54,54,0,0,0,605.32,538.39Zm.89-5.32c-.32-.24-.83-.53-1.35-1a21.3,21.3,0,0,1-1.73-1.58c-.57-.64-1.17-1.33-1.75-2s-1-1.51-1.46-2.24a19.32,19.32,0,0,1-1-2.1,15.51,15.51,0,0,1-.57-1.57l-.16-.62.43.47c.25.32.66.73,1.06,1.26s.93,1.12,1.41,1.8,1,1.37,1.59,2.06,1,1.44,1.53,2.1.92,1.33,1.34,1.86.68,1,.91,1.36l.34.54Z"/><path class="cls-3" d="M413.42,434c0,1.35.06,2.73.16,4.12l9.44-5.84-8.94,10.74c0,.25.07.51.1.76l5.34-3.29-4.49,8a112.79,112.79,0,0,0,11.31,29.94l4.68-3.68-.88,2.83c.41-.38.83-.76,1.26-1.13a67.2,67.2,0,0,1,7.05-5.42,65.63,65.63,0,0,0-5.27,7,63.68,63.68,0,0,0-3.56,6.17c8.67,14.3,20.13,27.15,32.64,35.5L474.59,504l-8.45,17.63,4.65-4.38-1.22,6.8a56,56,0,0,0,8.11,3.35,149.56,149.56,0,0,0,24.2,1.2c2-7.9,4.95-22.4,3.32-34.14-2.08-15.06-5.56-14.72-7.19-29.09a15.12,15.12,0,0,0-4,1.44,16.32,16.32,0,0,0-3.88,2.92,14.71,14.71,0,0,0-1.48,1.76,14.42,14.42,0,0,1,.87-2.18,17.69,17.69,0,0,1,3-4.36,18.43,18.43,0,0,1,4.41-3.39c.23-.13.45-.24.66-.34-.06-.76-.11-1.54-.16-2.36a38,38,0,0,0-5.71-17.74c-.55-.32-1.09-.65-1.69-1a50.36,50.36,0,0,0-12.13-4.62,47.52,47.52,0,0,0-22.64.07,54.91,54.91,0,0,0-7.18,2.38,52.6,52.6,0,0,0-11.7,6.78,49,49,0,0,0-7.05,6.63c-.8.86-1.34,1.61-1.75,2.1l-.6.76s.18-.29.53-.81.83-1.33,1.55-2.26a50.54,50.54,0,0,1,6.52-7.36,54.66,54.66,0,0,1,11.44-8.09,51.52,51.52,0,0,1,23.73-6,60.25,60.25,0,0,1,8.14.55q2.15.32,4.17.78c-1.07-.7-2.24-1.42-3.45-2.1a78.09,78.09,0,0,0-9.78-4.68,80.07,80.07,0,0,1,7.88,1.69,72.14,72.14,0,0,0-13.57-8.38L503.29,428l-3.24-3.18,5.69,1.88c-.27-.66-.55-1.33-.88-2a30.26,30.26,0,0,0-3.56-5.57,29.57,29.57,0,0,0-2.08-2.31,29.42,29.42,0,0,1,2.86,1.37A32.09,32.09,0,0,1,508,422.3l.1.09c1.32-4.62,2.92-9.5,4.67-14.38a14.67,14.67,0,0,1,2.49-4.62,105.4,105.4,0,0,0-35-1.14c-2.44.31-4.47.68-5.88.95l-2.23.44,2.14-.77c1.36-.48,3.32-1.14,5.72-1.82a105.45,105.45,0,0,1,12.8-2.88c-1.39.06-2.8.14-4.21.25A139.86,139.86,0,0,0,471,400.9c-4.76,1-7.89,1.85-7.89,1.85s3-1.15,7.71-2.57a143.48,143.48,0,0,1,17.28-4.07,155.24,155.24,0,0,0-17.67,1.64c-3.55.54-7.07,1.3-10.51,2.18a99.88,99.88,0,0,0-9.91,3.22,81.82,81.82,0,0,0-16.38,8.61,65.83,65.83,0,0,0-10,8.53c-1.15,1.12-1.92,2.12-2.49,2.75l-.87,1,.8-1c.53-.68,1.24-1.73,2.31-2.92a65.36,65.36,0,0,1,9.56-9.29A83,83,0,0,1,449,400.86a105.15,105.15,0,0,1,10-4c3.48-1.14,7.06-2.17,10.71-3,14.49-3.21,29.44-4.27,40.76-3.5a86.14,86.14,0,0,1,13.69,1.9c1.66.36,3,.73,3.83,1l.62.18a56.52,56.52,0,0,1,4.38-4.75c-4.44-2.4-13-5.61-27.32-5.61-9.4,0-21.26,1.4-36,5.34C437.34,397.1,413.42,408.06,413.42,434Zm52.52-43.26,2.42-.73c1.55-.42,3.76-1.08,6.46-1.64s5.85-1.21,9.27-1.69,7.09-.81,10.77-1,7.37-.18,10.82-.1,6.66.39,9.4.7,5,.68,6.59.94l2.49.47-2.52-.17c-1.6-.13-3.89-.23-6.63-.37s-5.94-.15-9.36-.2-7.07.08-10.71.3-7.28.46-10.68.84-6.58.74-9.28,1.2-5,.77-6.55,1.07Zm29.4,21.88c-1.19-.55-2.4-1-3.56-1.44s-2.23-.83-3.19-1.1-1.74-.57-2.3-.72l-.88-.28.93,0a19.18,19.18,0,0,1,2.44.16,24.42,24.42,0,0,1,3.41.66,38.37,38.37,0,0,1,3.77,1.3c1.23.58,2.43,1.22,3.53,1.87a25.06,25.06,0,0,1,2.81,2,20.92,20.92,0,0,1,1.78,1.68l.62.69-.81-.45c-.49-.31-1.24-.7-2.1-1.19s-1.9-1-3-1.59S496.55,413.14,495.34,412.65Zm-39.84.09,1.74.06c1.11.07,2.7.13,4.6.37s4.1.49,6.44.95,4.83,1,7.3,1.63,4.88,1.46,7.14,2.22,4.3,1.65,6.06,2.4,3.16,1.48,4.16,2l1.55.82-1.67-.54c-1-.37-2.56-.83-4.36-1.43s-3.92-1.21-6.17-1.92-4.68-1.38-7.12-2-4.86-1.3-7.17-1.82-4.44-1.05-6.31-1.41-3.39-.74-4.48-.94ZM500,522.32s.06-.55.16-1.53.23-2.36.41-4,.29-3.59.47-5.66.26-4.27.29-6.48.11-4.42.06-6.49,0-4-.15-5.68-.12-3.06-.2-4-.06-1.54-.06-1.54.13.55.37,1.5.54,2.32.77,4,.51,3.61.64,5.71.16,4.34.14,6.59-.28,4.48-.51,6.57-.62,4-.95,5.66-.73,3-1,3.94S500,522.32,500,522.32Zm-13.25-80.66c-.69-.66-1.28-1.23-1.73-1.57l-.69-.59.85.33a12.63,12.63,0,0,1,2.12,1.13,15.92,15.92,0,0,1,2.67,2.16,16.74,16.74,0,0,1,4.12,6.68,16.34,16.34,0,0,1,.74,3.35,12.75,12.75,0,0,1,.06,2.41l-.09.9-.22-.88a23,23,0,0,0-.62-2.25,26.76,26.76,0,0,0-1.14-3A28.72,28.72,0,0,0,489,444,26.4,26.4,0,0,0,486.78,441.66Zm-3.43,69.77.49-1.27c.36-.77.86-1.88,1.43-3.22s1.38-2.8,2.13-4.43,1.69-3.28,2.5-5,1.83-3.34,2.64-4.93,1.71-3,2.38-4.3,1.38-2.28,1.8-3l.75-1.14-.18,1.35c-.16.84-.4,2-.74,3.48s-.94,3-1.53,4.76-1.49,3.48-2.32,5.25-2,3.37-2.94,4.92-2.09,2.86-3,4-1.82,2-2.41,2.61Zm-15.46-2.78.35-.88c.25-.53.56-1.34,1-2.24s1-2,1.59-3.09l2-3.45,2.15-3.34c.68-1.07,1.41-2,2-2.84s1.16-1.47,1.52-1.94l.61-.72-.35.88c-.25.54-.56,1.34-1,2.24s-1,2-1.59,3.09l-2,3.45L472,503.15c-.68,1.07-1.42,2-2,2.84s-1.16,1.47-1.52,1.94Zm-22.32-18.9.49-1.07c.35-.66.81-1.64,1.5-2.72a42.35,42.35,0,0,1,2.48-3.63c1-1.26,2.13-2.57,3.29-3.84s2.5-2.36,3.73-3.41a43,43,0,0,1,3.54-2.6c1.06-.73,2-1.22,2.67-1.59l1.06-.53-.88.78c-.58.48-1.35,1.21-2.31,2s-2,1.87-3.18,2.92-2.35,2.26-3.5,3.49-2.33,2.41-3.36,3.61-2,2.27-2.82,3.27-1.51,1.79-2,2.38Zm-3.41-3.52,1-2.23c.33-.71.78-1.53,1.33-2.48s1.14-2,1.88-3.13a67.35,67.35,0,0,1,5.75-7.19,76.69,76.69,0,0,1,8-6.94,75.13,75.13,0,0,1,9.17-5.27,68.17,68.17,0,0,1,8.66-3.09c1.3-.34,2.51-.58,3.58-.76s2-.37,2.78-.45l2.43-.22-2.3.82c-.74.21-1.62.53-2.61.92s-2.13.81-3.32,1.36a65.81,65.81,0,0,0-8,3.85,73.52,73.52,0,0,0-8.57,5.4,71.93,71.93,0,0,0-7.89,6.34,63.53,63.53,0,0,0-6.25,6.31c-.92.94-1.7,1.86-2.37,2.69s-1.29,1.54-1.73,2.17ZM427.6,460.1l.78-1.73c.25-.55.59-1.2,1-1.94a20.19,20.19,0,0,1,1.51-2.41,37.62,37.62,0,0,1,4.59-5.47,48.72,48.72,0,0,1,6.45-5.09,48.16,48.16,0,0,1,7.39-3.58,37.62,37.62,0,0,1,6.93-1.75,20.66,20.66,0,0,1,2.83-.31,21.81,21.81,0,0,1,2.18-.07l1.9.05-1.88.25a19,19,0,0,0-2.13.35c-.82.15-1.74.34-2.73.6a47.64,47.64,0,0,0-20,10.55,48.05,48.05,0,0,0-4.82,5c-.66.78-1.23,1.52-1.72,2.2a16.87,16.87,0,0,0-1.24,1.76Zm-3-33.54.47-.86a22.93,22.93,0,0,1,1.4-2.17,30.16,30.16,0,0,1,2.31-2.84c.93-1,1.95-2,3-2.92s2.28-1.73,3.39-2.48a31,31,0,0,1,3.19-1.79,24.11,24.11,0,0,1,2.38-1l.93-.32-.78.58c-.52.35-1.21.9-2.07,1.5s-1.81,1.38-2.86,2.15-2.12,1.66-3.16,2.57-2.13,1.79-3.08,2.68-1.87,1.7-2.6,2.46-1.4,1.33-1.83,1.78Z"/><path class="cls-3" d="M624.32,528.83a134.43,134.43,0,0,0,25.42-1.07,35.65,35.65,0,0,0,10.15-4.41L650.6,504l13.1,16.73c11.46-8.75,21.46-23.74,29.8-40.11a62.86,62.86,0,0,0-3.85-6.77,66.51,66.51,0,0,0-5.28-7,66.73,66.73,0,0,1,7.06,5.42c1.58,1.37,3.05,2.85,4.19,4.05,5-10.33,9.39-21,13.06-30.91l-8-9.59,9.36,5.79c9.41-26.45-5.81-40.09-50.23-53.16-14.8-4.35-27-5.88-36.76-5.88-15,0-24.38,3.57-29.24,6.14a55.39,55.39,0,0,1,4.17,4.49c.87-.26,2-.59,3.53-.91a86.29,86.29,0,0,1,13.7-1.9c11.31-.77,26.26.29,40.76,3.5,3.64.81,7.23,1.84,10.7,3a105.15,105.15,0,0,1,10,4,83.36,83.36,0,0,1,16.14,9.92,65.2,65.2,0,0,1,9.55,9.29c1.08,1.19,1.78,2.24,2.32,2.92l.79,1-.86-1c-.58-.63-1.35-1.63-2.5-2.75a65.34,65.34,0,0,0-10-8.53,81.82,81.82,0,0,0-16.38-8.61,99,99,0,0,0-9.91-3.22c-3.44-.88-7-1.64-10.51-2.18-5-.75-10-1.25-14.79-1.51,3.3.5,6.39,1.11,8.89,1.7,3.76.87,6.22,1.61,6.22,1.61s-2.53-.45-6.35-.88a119.12,119.12,0,0,0-14-.75c-1.27,0-2.54.05-3.78.1a107.65,107.65,0,0,1,13.75,3c2.39.68,4.35,1.34,5.72,1.82l2.13.77-2.22-.44c-1.42-.27-3.44-.64-5.88-.95a108.08,108.08,0,0,0-17.89-.88,105,105,0,0,0-17.56,2.12c-1.61.32-3,.65-4.18.94a96.31,96.31,0,0,1,6.06,15.12c.47,1.49,1,2.84,1.48,4.1.32-.53.66-1.06,1-1.58a19.47,19.47,0,0,1,3.17-3.38,18.9,18.9,0,0,1,1.64-1.24,16.67,16.67,0,0,0-1.07,1.71,18.4,18.4,0,0,0-1.63,4l-.09.38c.42-.41.86-.82,1.3-1.21a32.47,32.47,0,0,1,5.88-4.08,30.08,30.08,0,0,1,2.85-1.37,28.48,28.48,0,0,0-2.07,2.31,30.26,30.26,0,0,0-3.56,5.57,27.2,27.2,0,0,0-1.08,2.54l5-3.06-2.53,4.24,40.67-10.94a81.16,81.16,0,0,0-17,10.15l10.4-2.66-9.26,5.17a58.76,58.76,0,0,1,7.81-.52,51.7,51.7,0,0,1,16.4,2.84,57.9,57.9,0,0,1,7.33,3.2,54.66,54.66,0,0,1,11.44,8.09,49.77,49.77,0,0,1,6.51,7.36c.73.93,1.2,1.74,1.56,2.26l.53.81-.61-.76c-.4-.49-.94-1.24-1.74-2.1a49,49,0,0,0-7.05-6.63,53.06,53.06,0,0,0-11.7-6.78,54.91,54.91,0,0,0-7.18-2.38,47.74,47.74,0,0,0-22.64-.07,50.61,50.61,0,0,0-12.14,4.62c-1.06.58-2,1.16-2.92,1.73A35.74,35.74,0,0,0,626.48,459c-.15,2.52-.35,4.64-.58,6.48A31,31,0,0,0,630,469.6a34,34,0,0,0,6.19,4,34.09,34.09,0,0,1-7.38-2,29.75,29.75,0,0,1-3.71-1.74c-2,8.75-5.24,8.19-7.06,21.32C616.38,503.41,621.35,520.25,624.32,528.83Zm35.37-137.47-2.44-.57c-.77-.21-1.71-.41-2.8-.63s-2.3-.5-3.63-.75c-2.66-.58-5.8-1-9.16-1.48s-7-.76-10.57-.93-7.22-.23-10.61-.12-6.56.26-9.26.57c-1.35.12-2.59.26-3.69.39s-2.06.22-2.85.35l-2.48.33,2.43-.63c.77-.19,1.71-.41,2.8-.63s2.32-.49,3.68-.69c2.7-.44,5.88-.84,9.31-1.05s7.09-.21,10.75-.09,7.3.63,10.69,1.15,6.51,1.26,9.16,2c1.33.32,2.53.69,3.59,1s2,.64,2.73.91Zm-29.9,15.58-.9.06-2.35.11c-1,0-2.09.12-3.29.16s-2.47.14-3.74.28-2.54.19-3.73.35-2.31.23-3.26.39l-2.34.29-.9.09.82-.39c.53-.21,1.28-.57,2.22-.86a31.87,31.87,0,0,1,3.25-.87c1.21-.22,2.51-.42,3.81-.57s2.63-.09,3.86-.08a30.15,30.15,0,0,1,3.35.33,22.87,22.87,0,0,1,2.33.47Zm40.34,8.14h-1.37c-.87,0-2.11,0-3.58,0s-3.19.2-5,.35a53.53,53.53,0,0,0-5.67.88,51.33,51.33,0,0,0-5.56,1.37c-1.74.56-3.4,1-4.76,1.6s-2.54,1-3.32,1.34l-1.27.53,1.12-.8a28.23,28.23,0,0,1,3.1-1.87,35.63,35.63,0,0,1,4.7-2.1,51.85,51.85,0,0,1,5.69-1.61,53.65,53.65,0,0,1,5.86-.7,38.42,38.42,0,0,1,5.15.13,29.36,29.36,0,0,1,3.58.54Zm4.14,15.16a33.28,33.28,0,0,1,4.19,1.44A49.81,49.81,0,0,1,683,434c1.46.94,2.88,1.95,4.15,3a34.41,34.41,0,0,1,3.21,3.06,25.18,25.18,0,0,1,2,2.41l.68,1-.91-.76c-.55-.5-1.39-1.16-2.37-2s-2.19-1.67-3.44-2.61-2.68-1.86-4.13-2.71-2.89-1.71-4.3-2.41-2.73-1.38-3.91-1.85-2.14-.94-2.85-1.2l-1.09-.45,1.18.16A25.2,25.2,0,0,1,674.27,430.24Zm23.66-6.86c-1.18-1.05-2.65-2.15-4.17-3.38s-3.22-2.43-5-3.6-3.45-2.34-5.13-3.35-3.24-2-4.64-2.69-2.52-1.41-3.35-1.82l-1.28-.69,1.4.41c.88.29,2.16.67,3.62,1.3s3.17,1.36,4.93,2.31,3.56,2.07,5.34,3.24,3.4,2.55,4.92,3.84a49.61,49.61,0,0,1,3.91,3.79c1.11,1.14,1.92,2.2,2.51,2.91s.87,1.17.87,1.17l-1.1-1C700.14,425.24,699.12,424.4,697.93,423.38Zm-30.46,16-1.47-.15c-.93-.12-2.27-.21-3.86-.31s-3.45-.08-5.43-.09a55.64,55.64,0,0,0-6.19.47,55,55,0,0,0-6.12,1c-1.92.48-3.74.87-5.25,1.39s-2.8.88-3.67,1.22l-1.4.49,1.27-.77a30.47,30.47,0,0,1,3.49-1.77,39.15,39.15,0,0,1,5.23-1.88,54.13,54.13,0,0,1,6.26-1.27,58.15,58.15,0,0,1,6.38-.27,38.86,38.86,0,0,1,5.53.58,30.21,30.21,0,0,1,3.82.88Zm-5.25,33.49,1,.57c.63.39,1.56.91,2.58,1.66s2.24,1.62,3.43,2.67,2.42,2.22,3.61,3.42,2.24,2.56,3.23,3.8,1.79,2.5,2.48,3.56,1.16,2,1.52,2.67l.51,1s-.27-.32-.76-.87-1.18-1.35-2-2.31-1.81-2-2.82-3.22-2.15-2.4-3.32-3.59-2.28-2.41-3.4-3.5-2.13-2.14-3.06-3-1.65-1.61-2.2-2.11Zm-15.53-15.26c-1.19-.55-2.31-1-3.31-1.36s-1.88-.71-2.61-.92l-2.3-.82,2.43.22c.78.08,1.71.24,2.78.45s2.28.42,3.58.76a68.17,68.17,0,0,1,8.66,3.09,75.13,75.13,0,0,1,9.17,5.27,76.69,76.69,0,0,1,8,6.94,67.16,67.16,0,0,1,5.74,7.19c.75,1.11,1.37,2.18,1.89,3.13s1,1.77,1.33,2.48l1,2.23-1.52-1.9c-.44-.63-1-1.36-1.73-2.17s-1.45-1.75-2.37-2.69a64.65,64.65,0,0,0-6.25-6.31,72.89,72.89,0,0,0-7.89-6.34,74.36,74.36,0,0,0-8.57-5.4A65.9,65.9,0,0,0,646.69,457.57Zm-4.47,38.22.48.94,1.21,2.5c.45,1,1.09,2.22,1.67,3.52s1.25,2.66,1.95,4,1.3,2.73,2,4,1.21,2.48,1.76,3.48l1.23,2.49.45,1-.7-.79c-.43-.53-1.08-1.25-1.74-2.2s-1.46-2-2.19-3.28-1.47-2.6-2.18-4-1.26-2.82-1.8-4.16-.9-2.64-1.24-3.75-.52-2.06-.67-2.71Zm-14.5-11.67.74,1.14c.43.74,1,1.79,1.81,3s1.48,2.75,2.38,4.3,1.7,3.27,2.63,4.93,1.67,3.42,2.51,5,1.47,3.15,2.13,4.43,1.07,2.45,1.42,3.22l.5,1.26s-.37-.33-1-.92-1.43-1.51-2.41-2.61-1.93-2.52-3-4-2-3.22-2.94-4.92-1.62-3.56-2.32-5.25-1.12-3.36-1.54-4.76-.57-2.64-.74-3.48S627.72,484.12,627.72,484.12Zm-2.88,36.21a30.54,30.54,0,0,1-1.88-3.69,38.09,38.09,0,0,1-2-5.54,38.83,38.83,0,0,1-1.21-13.4,38,38,0,0,1,.91-5.8,30.44,30.44,0,0,1,1.2-4l.57-1.45L622.2,488c-.2,1-.4,2.37-.61,4a57.29,57.29,0,0,0-.43,5.72,59.16,59.16,0,0,0,1.18,13c.48,2,.89,4,1.44,5.55s1,2.95,1.34,3.86l.55,1.47Z"/><path class="cls-2" d="M408.7,434c0,17.73,7.84,39.79,21,59,12.86,18.81,29.05,32.58,44.89,38.28,0,0,9.91,4.7,13.62,6.6,2.59.72,5.57,1.39,8.6,2a50.94,50.94,0,0,1-7.61,4.28s-8.3,3.39-12.73,4.27a68.68,68.68,0,0,1-12.73,1.77,4.72,4.72,0,0,0-2.08,8.93,79.51,79.51,0,0,0,17.91,6.67,81.25,81.25,0,0,0,14.12,1.43,43.39,43.39,0,0,0,25.76-9.69c7.9-5.8,15.49-16.21,15.49-16.21.83,46,11.72,84.29,15.31,94.72a126.83,126.83,0,0,0,8.92,20.25s5.05,8,10.56,15c7,9.39,16.28,20.18,26.89,28.12l4.61,3c.74.31,1.54.63,2.46,1L605,704a35.77,35.77,0,0,0,13.31,2.66,31.15,31.15,0,0,0,24.62-11.81c3.41-4.43,4.8-9.16,3.8-13-1.76-6.67-7.77-13.57-14.8-13.57a10.5,10.5,0,0,0-8.49,4.46,24.1,24.1,0,0,0-3.62,7.39,10.92,10.92,0,0,1-.86,2.15s-.55.38-2.76.38c-2.81,0-6.52-3.45-11.3-10.51l-3.77-4.9c-5.7-8.83-9.46-19.87-11.83-31.85l-.78-4.3a206,206,0,0,1-2.59-28.3c.07-1.11.06-1.74.12-2.95,0,0-.72-39,4.18-65.4A40.62,40.62,0,0,0,597,546.79c.47.57.92,1.18,1.36,1.81,9.11,11.68,21,18.09,34.51,18.65l5,0c8.49-.53,17.58-3.22,27.11-8.05a4.72,4.72,0,0,0-2.08-8.93,71.6,71.6,0,0,1-18.78-3.44l-4.44-1.63a52.38,52.38,0,0,1-10.16-5.47,15,15,0,0,1-4.79-4.77,136.57,136.57,0,0,0,23-1.91c24.11-3.67,46.53-33.75,66.69-89.5,4.07-11.27,4.07-20.67,0-28.75C708,402.24,692.12,393,661.16,383.91c-13.71-4-26.52-6.07-38.09-6.07-18.15,0-29,5.06-33.64,8a67.53,67.53,0,0,0-52.14-.05c-4.41-2.84-14.16-7.36-31.61-7.36-11.06,0-23.58,1.85-37.22,5.5-19.67,5.27-32.55,10.51-41.76,17C414.59,409.43,408.7,420.27,408.7,434Zm215.62,94.8c-3-8.58-7.94-25.42-6.25-37.62,1.82-13.13,5.09-12.57,7.06-21.32a29.75,29.75,0,0,0,3.71,1.74,34.09,34.09,0,0,0,7.38,2,34,34,0,0,1-6.19-4,31,31,0,0,1-4.13-4.16c.23-1.84.43-4,.58-6.48a35.74,35.74,0,0,1,5.71-17.12c.9-.57,1.86-1.15,2.92-1.73a50.61,50.61,0,0,1,12.14-4.62,47.52,47.52,0,0,1,22.64.07,54.91,54.91,0,0,1,7.18,2.38,53.06,53.06,0,0,1,11.7,6.78,49,49,0,0,1,7.05,6.63c.8.86,1.34,1.61,1.74,2.1l.61.76-.53-.81c-.36-.52-.83-1.33-1.56-2.26a49.77,49.77,0,0,0-6.51-7.36,54.66,54.66,0,0,0-11.44-8.09,51.36,51.36,0,0,0-15.39-5.28,57.2,57.2,0,0,0-8.34-.76,58.76,58.76,0,0,0-7.81.52l9.26-5.17-10.4,2.66a81.16,81.16,0,0,1,17-10.15l-40.67,10.94,2.53-4.24-5,3.06a27.2,27.2,0,0,1,1.08-2.54,30.26,30.26,0,0,1,3.56-5.57,28.48,28.48,0,0,1,2.07-2.31,30.08,30.08,0,0,0-2.85,1.37,32.47,32.47,0,0,0-5.88,4.08c-.44.39-.88.8-1.3,1.21l.09-.38a18.4,18.4,0,0,1,1.63-4,16.67,16.67,0,0,1,1.07-1.71,18.9,18.9,0,0,0-1.64,1.24,19.47,19.47,0,0,0-3.17,3.38c-.38.52-.72,1.05-1,1.58-.51-1.26-1-2.61-1.48-4.1a96.31,96.31,0,0,0-6.06-15.12c1.17-.29,2.57-.62,4.18-.94a105,105,0,0,1,17.56-2.12,108.08,108.08,0,0,1,17.89.88c2.44.31,4.46.68,5.88.95l2.22.44-2.13-.77c-1.37-.48-3.33-1.14-5.72-1.82a107.65,107.65,0,0,0-13.75-3c1.24,0,2.51-.09,3.78-.1a119.12,119.12,0,0,1,14,.75c3.82.43,6.35.88,6.35.88s-2.46-.74-6.22-1.61c-2.5-.59-5.59-1.2-8.89-1.7,4.84.26,9.83.76,14.79,1.51,3.55.54,7.07,1.3,10.51,2.18a99,99,0,0,1,9.91,3.22,81.82,81.82,0,0,1,16.38,8.61,65.34,65.34,0,0,1,10,8.53c1.15,1.12,1.92,2.12,2.5,2.75l.86,1-.79-1c-.54-.68-1.24-1.73-2.32-2.92a65.2,65.2,0,0,0-9.55-9.29,83.36,83.36,0,0,0-16.14-9.92,105.15,105.15,0,0,0-10-4c-3.47-1.14-7.06-2.17-10.7-3-14.5-3.21-29.45-4.27-40.76-3.5a86.29,86.29,0,0,0-13.7,1.9c-1.48.32-2.66.65-3.53.91a55.39,55.39,0,0,0-4.17-4.49c4.86-2.57,14.28-6.14,29.24-6.14,9.8,0,22,1.53,36.76,5.88,44.42,13.07,59.64,26.71,50.23,53.16l-9.36-5.79,8,9.59c-3.67,9.88-8,20.58-13.06,30.91-1.14-1.2-2.61-2.68-4.19-4.05a66.73,66.73,0,0,0-7.06-5.42,66.51,66.51,0,0,1,5.28,7,62.86,62.86,0,0,1,3.85,6.77c-8.34,16.37-18.34,31.36-29.8,40.11L650.6,504l9.29,19.39a35.65,35.65,0,0,1-10.15,4.41A134.43,134.43,0,0,1,624.32,528.83Zm-16.2,12.78s-1.2-1.23-2.8-3.22a54,54,0,0,1-5.17-7.68,52.32,52.32,0,0,1-3.7-8.34c-.35-1-.61-1.85-.8-2.51a11.46,11.46,0,0,1,9.78-4.86h.12a81.8,81.8,0,0,0,3.14,7.77,84.72,84.72,0,0,0,4.39,8.23s-.81-2.66-1.54-6c12.72,29.45,51.3,29.89,51.3,29.89-.83.42-1.64.79-2.46,1.18l-1.27.13c-1.89.31-4.11.5-6.48.64a124.57,124.57,0,0,1-14.8.1,63.58,63.58,0,0,1-6.48-.57c-1.92-.15-3.52-.38-4.63-.56l-1.79-.22,1.62.8c1,.46,2.56,1.08,4.43,1.71a64.62,64.62,0,0,0,6.55,1.54,73,73,0,0,0,7.72.61c2-.08,4-.26,5.91-.49a52.75,52.75,0,0,1-16.32,2.78c-22.1,0-33.91-16.83-39-26.76.64,1,1.31,1.94,2,2.94a57,57,0,0,0,14,13.27,56.37,56.37,0,0,0,7.28,4.1c1.09.53,2.12,1,3.05,1.31s1.72.68,2.4.88l2.11.69-2-.88c-.65-.26-1.42-.64-2.29-1.09s-1.86-.94-2.89-1.57a54.34,54.34,0,0,1-6.74-4.64,61.48,61.48,0,0,1-6.71-6.45,59.71,59.71,0,0,1-5.49-7.44,62.42,62.42,0,0,1-3.12-5.89l.74,1a55.94,55.94,0,0,0,6.6,6.88C606.73,540.61,608.12,541.61,608.12,541.61Zm-86.91-31.33c.33-1.82,1-5.06,1.88-8.28a95.68,95.68,0,0,1,3.23-9.6,95.49,95.49,0,0,0-5.42,8.71c-.33.59-.65,1.2-1,1.79.09-.5.19-1,.28-1.46.64-1.55,1.38-3.39,2.16-5.46.61-1.63,1.28-3.39,1.92-5.27s1.37-3.85,2-5.92,1.39-4.18,2-6.36,1.31-4.42,1.92-6.7a68.57,68.57,0,0,0,1.33-7,37.63,37.63,0,0,0,.3-7,29.9,29.9,0,0,0-3.09-12,23.9,23.9,0,0,0-5.17-6.95,18.38,18.38,0,0,0-1.87-1.51l-.69-.48.51.67c.34.42.79,1.08,1.33,1.92a30.67,30.67,0,0,1,3.37,7.37c.19.62.36,1.29.52,2-.21-.31-.39-.64-.63-.93a18.93,18.93,0,0,0-3-2.48l-2.81-1.53c-.86-.36-1.57-.68-2-.94l-.82-.36.41.81c.31.47.78,1.13,1.38,1.89l1,1a3.18,3.18,0,0,0-1.91,1.12,3.07,3.07,0,0,0-.53,1.09,11.37,11.37,0,0,1-.62-2,7.8,7.8,0,0,1-.23-1,7.66,7.66,0,0,0-.38,1,11.07,11.07,0,0,0-.3,2.82,11.68,11.68,0,0,0,1.12,4,22.88,22.88,0,0,0,2.75,3.66,29.31,29.31,0,0,1,2.83,2.93,8.89,8.89,0,0,1,1.8,2.8,5.22,5.22,0,0,1,.59,2.37,4.68,4.68,0,0,1,0,1A4.78,4.78,0,0,0,526,465a6.49,6.49,0,0,0,.53-2.89,11,11,0,0,0-1.28-4,31.28,31.28,0,0,0-2.8-3.55l-.47-.45a3.67,3.67,0,0,0,3.74-1.08c.08-.11.13-.23.2-.34a11.13,11.13,0,0,1,1,2.21,11.34,11.34,0,0,1,.69,2.08c.06.18.1.32.14.45a2.62,2.62,0,0,0,0,.28,47.93,47.93,0,0,1-.65,6.3c-.1.66-.24,1.32-.37,2a60.31,60.31,0,0,1-5.82,10.72L519.51,470l-1.39,7.44-.09-.37c-.47-1.64-.91-3.41-1.29-5.19s-1-3.51-1.32-5.18-.85-3.22-1.13-4.57-.67-2.48-.86-3.27-.37-1.26-.37-1.26-.09.47-.24,1.29-.2,2-.28,3.43.08,3.07.2,4.85c.15,1.1.34,2.25.55,3.41a66.8,66.8,0,0,1-2.1-10.63,65.73,65.73,0,0,1-.43-13.27c.22-.73.44-1.47.7-2.21a34,34,0,0,1,2.29-5.1,28.55,28.55,0,0,1,3.17-4.76,47.63,47.63,0,0,1,3.93-4.39l4.2-4.19a49.87,49.87,0,0,0,7-8.31,22.89,22.89,0,0,0,3.2-7.1,14.43,14.43,0,0,0,.38-2.12l.07-.76a24.35,24.35,0,0,1-1.31,2.53,31.83,31.83,0,0,1-4.47,5.77c-.93,1-2,2-3.13,3,.25-.46.5-.93.73-1.38.5-1.28.94-2.47,1.27-3.51s.4-2,.51-2.6l.08-1-.64.78c-.36.52-.89,1.24-1.55,2.08s-1.27,1.88-2.05,2.92c-.34.55-.71,1.1-1.09,1.65.66-1.87,1.42-3.91,2.3-6.09.88-1.55,1.8-3.07,2.72-4.47,1.08-1.8,2.14-3.46,3.12-4.83s1.7-2.62,2.28-3.44l.85-1.34-1.3.92c-.64.52-1.49,1.23-2.48,2.1,3-5.38,6.31-9.19,10.25-11.88a60.47,60.47,0,0,1,21.48-3.71c15.09,0,24.43,4.86,26.17,5.84a55,55,0,0,1,13,18.24l-.15-.24c-1.47-2-3-3.95-4.52-5.71s-3.15-3.2-4.53-4.43-2.67-2.11-3.54-2.75l-1.42-.93,1,1.38c.67.83,1.62,2,2.68,3.51s2.4,3.1,3.7,4.94,2.73,3.75,4,5.76,2.72,3.93,3.89,5.85l.81,1.23-1.69-1.79c-1.11-1-2.16-1.9-3.07-2.67l-2.37-1.67-1-.56.53,1,1.52,2.45c.69.94,1.48,2.06,2.31,3.27.84,1.05,1.72,2.18,2.59,3.33a75.82,75.82,0,0,1-5.68-5.22,31.83,31.83,0,0,1-4.47-5.77,24.35,24.35,0,0,1-1.31-2.53s0,.26.07.76a14.43,14.43,0,0,0,.38,2.12,22.89,22.89,0,0,0,3.2,7.1,49.87,49.87,0,0,0,7,8.31l4.2,4.19a47.63,47.63,0,0,1,3.93,4.39,28.55,28.55,0,0,1,3.17,4.76,38.72,38.72,0,0,1,1.81,3.8c.77,4.12.92,9.28,0,16.78a66,66,0,0,1-2.11,10.66c.17-1,.32-2,.44-2.91.12-2,.17-3.78.12-5.34s-.3-2.85-.43-3.75-.31-1.4-.31-1.4l-.3,1.4c-.14.88-.37,2.14-.72,3.63s-.6,3.21-1.05,5-.84,3.76-1.41,5.67-1,3.84-1.58,5.62c-.29,1.05-.59,2.05-.9,3l-.51-7.4-2.54,9.35c-.52-2.06-1-4.2-1.6-6.34s-1.2-4.4-1.72-6.6a64.84,64.84,0,0,1-1.41-6.51,49.64,49.64,0,0,1-.64-6.3c0-.21,0-.41,0-.62l0-.11a10.61,10.61,0,0,1,.69-2.08,11.13,11.13,0,0,1,1-2.21,3,3,0,0,0,.2.34,3.67,3.67,0,0,0,3.74,1.08l-.47.45a31.28,31.28,0,0,0-2.8,3.55,11,11,0,0,0-1.29,4,6.61,6.61,0,0,0,.54,2.89,4.78,4.78,0,0,0,.63.88,4.68,4.68,0,0,1,0-1,5.22,5.22,0,0,1,.59-2.37,8.72,8.72,0,0,1,1.8-2.8,29.31,29.31,0,0,1,2.83-2.93,22.88,22.88,0,0,0,2.75-3.66,12.15,12.15,0,0,0,1.12-4,11.55,11.55,0,0,0-.3-2.82,10.11,10.11,0,0,0-.38-1s-.06.38-.23,1a11.37,11.37,0,0,1-.62,2,3.25,3.25,0,0,0-.53-1.09,3.18,3.18,0,0,0-1.91-1.12l1-1c.6-.76,1.07-1.42,1.38-1.89l.4-.81-.81.36c-.48.26-1.19.58-2,.94l-2.81,1.53a18.93,18.93,0,0,0-3,2.48c-.18.22-.31.46-.47.69.15-.58.29-1.17.45-1.72a31.47,31.47,0,0,1,3.37-7.37c.55-.84,1-1.5,1.34-1.92l.5-.67-.69.48a18.49,18.49,0,0,0-1.86,1.51,23.9,23.9,0,0,0-5.17,6.95,29.9,29.9,0,0,0-3.09,12,37.61,37.61,0,0,0,.29,7c.31,2.36.8,4.7,1.34,7s1.27,4.52,1.92,6.7,1.38,4.3,2,6.36,1.36,4,2,5.92,1.31,3.64,1.92,5.27c.88,2.33,1.7,4.37,2.39,6,.46,2.39.89,5.2,1.23,8.44a19.69,19.69,0,0,0-2.53-.16h0a17.59,17.59,0,0,0-9.75,2.94l-1.49-5.82-1.33,5.21L591,500l-.73,8.53c-.15-2.26-.35-4.39-.57-6.37-.84-8.19-2-13.6-2-13.6s-.42,5.51-.7,13.7c-.06,2.05-.14,4.26-.22,6.6s-.19,4.82-.21,7.37-.15,5.18-.23,7.86-.15,5.4-.23,8.11-.14,5.35-.21,8c-3.43,21.33-7.32,60.52-1.33,93.71l-.15.35.22.07a126.79,126.79,0,0,0,4.73,18.41c-.49,0-1.1,0-1.85.08s-1.84.38-2.91.67-2.08.85-3.12,1.38a31.64,31.64,0,0,0-2.75,2c-.78.79-1.46,1.55-2,2.23s-.84,1.39-1.09,1.84-.31.77-.31.77l.75-.34c.44-.25,1.06-.59,1.83-.95l.91-.53,8.31,8.68-5.72-10.13c.54-.31,1.09-.61,1.66-.89.36-.25.74-.49,1.11-.71l1.72.8.09-1.87c.75-.51,1.48-1,2.13-1.33s1.09-.77,1.5-1A74.85,74.85,0,0,0,599,672a14.79,14.79,0,0,0-1.72.46,15.13,15.13,0,0,0-2.5,1.55,14.41,14.41,0,0,0-1.81,2.32,12.78,12.78,0,0,0-.86,2.4,9.9,9.9,0,0,0-.07,1.8c.08.43.12.68.12.68l.46-.51a9.54,9.54,0,0,1,1.09-1.22,8.78,8.78,0,0,1,.65-.76l7,6-5-8,.39-.32,4.38,2.38-2.32-4.17a11,11,0,0,1,1.38-1.05c4.26,6.47,7.71,10.25,10.8,12.15-.25.14-.5.26-.75.43a10.22,10.22,0,0,0-2.09,2.45,12.92,12.92,0,0,0-.9,3,15.82,15.82,0,0,0,.06,2.63c.17.76.36,1.37.49,1.79l.31.65.31-.65c.14-.4.36-1,.65-1.63.11-.35.23-.72.38-1.1l3.2.19-2.22-2.5c.11-.22.23-.44.36-.65l3.45.35-2.13-2.53,0-.05a6.83,6.83,0,0,1,1.11-1.3,8.88,8.88,0,0,0,2.91.51c4.23,0,5.93-1.11,6.94-2.9,0,1,0,1.9.09,2.8a27.24,27.24,0,0,0,.91,3.71,21.6,21.6,0,0,0,1.18,2.43l.58.84s0-.37,0-1a18.87,18.87,0,0,1,0-2.57c0-.14,0-.29,0-.43l.29-.06a6.05,6.05,0,0,0,2.1-.93,5.61,5.61,0,0,0,1.47-1.52,4.56,4.56,0,0,0,.42-.8,4.33,4.33,0,0,1-.74.44,4.62,4.62,0,0,1-1.71.45,3.89,3.89,0,0,1-1.56-.23l-.21-.09c0-.11,0-.22,0-.34a28.1,28.1,0,0,1,.35-3.92c0-.14,0-.28,0-.42l1.09,1.85.4-2.31a11.6,11.6,0,0,0,1.91,2.19,11.84,11.84,0,0,0,4.38,2.19,10.12,10.12,0,0,0,3.37.11c.39-.07.69-.18.9-.23l.3-.1-.31-.06c-.21-.05-.5-.1-.87-.22a9.18,9.18,0,0,1-2.77-1.15,9.63,9.63,0,0,1-3.11-2.51,8.21,8.21,0,0,1-2.08-3.74,6.4,6.4,0,0,1-.12-4.07,4.19,4.19,0,0,1,.66-1.45,5.27,5.27,0,0,1,1.83-.32c4.23,0,8.83,4.72,10.23,10,1.6,6.06-8.45,18.85-23.85,18.85a30.42,30.42,0,0,1-9.87-1.74c-12.86-6.22-25.2-20.83-35.26-34.91-11.8-16.53-22.68-48.16-28.19-86.72-2.09-14.63-3.45-28.88-4.33-41,0-1.78-.09-3.56-.14-5.36-.08-2.71-.15-5.43-.23-8.11s-.15-5.31-.23-7.86-.16-5-.21-7.37-.16-4.55-.23-6.6c-.27-8.19-.69-13.7-.69-13.7s-1.16,5.41-2,13.6c-.23,2.05-.44,4.28-.59,6.63-.08,1-.14,2-.21,3l-.91-3.25-1,7.63A16.74,16.74,0,0,0,521.21,510.28Zm83.55-58c.06-.1.11-.31.2-.46s.15-.37.27-.51a4.45,4.45,0,0,0,.33-.51,3.41,3.41,0,0,0,.42-.43c.12-.15.33-.25.45-.38s.31-.21.4-.29l.19-.12s0,.07.1.2a1.64,1.64,0,0,1,.13.53,2.1,2.1,0,0,1-.08.73,4.71,4.71,0,0,1-.38.74,4.5,4.5,0,0,1-.64.53,2,2,0,0,1-.69.25,1.62,1.62,0,0,1-.55,0l-.22-.06A2,2,0,0,0,604.76,452.23Zm-82.33.28a2.15,2.15,0,0,1-.57,0,2.39,2.39,0,0,1-.73-.21c-.24-.13-.48-.28-.72-.44s-.38-.44-.54-.65a3,3,0,0,1-.3-.7,2.73,2.73,0,0,1-.07-.57c0-.15,0-.24,0-.24l.23.06a3.34,3.34,0,0,1,.51.19,3.82,3.82,0,0,1,.6.31c.18.14.38.29.58.42s.33.36.49.52a3.79,3.79,0,0,1,.39.56,3.4,3.4,0,0,1,.26.48l.08.22Zm-4.36,62.83a13.38,13.38,0,0,1,3.12-.34,11.59,11.59,0,0,1,9.09,4,60.48,60.48,0,0,1-3.21,10,61.86,61.86,0,0,1-5.08,9.54,62.83,62.83,0,0,0,7.14-8.39c.68-.93,1.31-1.89,1.9-2.84-.3.91-.66,1.91-1.08,3a53,53,0,0,1-9.55,15.45,53.62,53.62,0,0,1-20.06,14c-1.39.55-2.2.83-2.2.83s.83-.21,2.26-.64a52.13,52.13,0,0,0,5.84-2.14,55.18,55.18,0,0,0,15.85-10.43,51.83,51.83,0,0,0,5.45-6c-6.19,9.62-17.44,21.19-35.76,21.19a45.57,45.57,0,0,1-6.25-.44,50.49,50.49,0,0,0,6.67-1.29,47.33,47.33,0,0,0,5.49-2.21,35.89,35.89,0,0,0,3.55-2.18l1.24-1-1.51.43a36.9,36.9,0,0,1-3.91,1.07,43.78,43.78,0,0,1-5.5,1.21,48.6,48.6,0,0,1-6.33.82,49.42,49.42,0,0,1-6.37.3,46.92,46.92,0,0,1-5.35-.2,83.2,83.2,0,0,1-9.73-4.19S510.46,554.41,518.07,515.34ZM413.42,434c0-26,23.92-36.93,56.26-45.59,14.74-3.94,26.6-5.34,36-5.34,14.27,0,22.88,3.21,27.32,5.61a56.52,56.52,0,0,0-4.38,4.75l-.62-.18c-.88-.27-2.17-.64-3.83-1a86.14,86.14,0,0,0-13.69-1.9c-11.32-.77-26.27.29-40.76,3.5-3.65.81-7.23,1.84-10.71,3a105.15,105.15,0,0,0-10,4,83,83,0,0,0-16.13,9.92,65.36,65.36,0,0,0-9.56,9.29c-1.07,1.19-1.78,2.24-2.31,2.92l-.8,1,.87-1c.57-.63,1.34-1.63,2.49-2.75a65.83,65.83,0,0,1,10-8.53A81.82,81.82,0,0,1,450,403.15a99.88,99.88,0,0,1,9.91-3.22c3.44-.88,7-1.64,10.51-2.18a155.24,155.24,0,0,1,17.67-1.64,143.48,143.48,0,0,0-17.28,4.07c-4.67,1.42-7.71,2.57-7.71,2.57s3.13-.87,7.89-1.85a139.86,139.86,0,0,1,17.56-2.48c1.41-.11,2.82-.19,4.21-.25a105.45,105.45,0,0,0-12.8,2.88c-2.4.68-4.36,1.34-5.72,1.82l-2.14.77,2.23-.44c1.41-.27,3.44-.64,5.88-.95a105.4,105.4,0,0,1,35,1.14,14.67,14.67,0,0,0-2.49,4.62c-1.75,4.88-3.35,9.76-4.67,14.38l-.1-.09a32.09,32.09,0,0,0-5.87-4.08,29.42,29.42,0,0,0-2.86-1.37,29.57,29.57,0,0,1,2.08,2.31,30.26,30.26,0,0,1,3.56,5.57c.33.67.61,1.34.88,2l-5.69-1.88,3.24,3.18-39.11-10.52a72.14,72.14,0,0,1,13.57,8.38,80.07,80.07,0,0,0-7.88-1.69,78.09,78.09,0,0,1,9.78,4.68c1.21.68,2.38,1.4,3.45,2.1q-2-.47-4.17-.78a60.25,60.25,0,0,0-8.14-.55,51.47,51.47,0,0,0-23.73,6,54.66,54.66,0,0,0-11.44,8.09,50.54,50.54,0,0,0-6.52,7.36c-.72.93-1.19,1.74-1.55,2.26s-.53.81-.53.81l.6-.76c.41-.49.95-1.24,1.75-2.1a49,49,0,0,1,7.05-6.63,52.6,52.6,0,0,1,11.7-6.78,54.91,54.91,0,0,1,7.18-2.38,47.74,47.74,0,0,1,22.64-.07,50.36,50.36,0,0,1,12.13,4.62c.6.32,1.14.65,1.69,1a38,38,0,0,1,5.71,17.74c0,.82.1,1.6.16,2.36-.21.1-.43.21-.66.34a18.43,18.43,0,0,0-4.41,3.39,17.69,17.69,0,0,0-3,4.36,14.42,14.42,0,0,0-.87,2.18,14.71,14.71,0,0,1,1.48-1.76,16.32,16.32,0,0,1,3.88-2.92,15.12,15.12,0,0,1,4-1.44c1.63,14.37,5.11,14,7.19,29.09,1.63,11.74-1.32,26.24-3.32,34.14a149.56,149.56,0,0,1-24.2-1.2,56,56,0,0,1-8.11-3.35l1.22-6.8-4.65,4.38L474.59,504l-12.33,15.75c-12.51-8.35-24-21.2-32.64-35.5a63.68,63.68,0,0,1,3.56-6.17,65.63,65.63,0,0,1,5.27-7,67.2,67.2,0,0,0-7.05,5.42c-.43.37-.85.75-1.26,1.13l.88-2.83-4.68,3.68A112.79,112.79,0,0,1,415,448.53l4.49-8-5.34,3.29c0-.25-.06-.51-.1-.76L423,432.31l-9.44,5.84C413.48,436.76,413.42,435.38,413.42,434Z"/><path class="cls-2" d="M444.49,481.52c.52-.95,1.14-2,1.88-3.13a67.35,67.35,0,0,1,5.75-7.19,76.69,76.69,0,0,1,8-6.94,75.13,75.13,0,0,1,9.17-5.27,68.17,68.17,0,0,1,8.66-3.09c1.3-.34,2.51-.58,3.58-.76s2-.37,2.78-.45l2.43-.22-2.3.82c-.74.21-1.62.53-2.61.92s-2.13.81-3.32,1.36a65.81,65.81,0,0,0-8,3.85,73.52,73.52,0,0,0-8.57,5.4,71.93,71.93,0,0,0-7.89,6.34,63.53,63.53,0,0,0-6.25,6.31c-.92.94-1.7,1.86-2.37,2.69s-1.29,1.54-1.73,2.17l-1.52,1.9,1-2.23C443.49,483.29,443.94,482.47,444.49,481.52Z"/><path class="cls-2" d="M485.27,506.94c.66-1.28,1.38-2.8,2.13-4.43s1.69-3.28,2.5-5,1.83-3.34,2.64-4.93,1.71-3,2.38-4.3,1.38-2.28,1.8-3l.75-1.14-.18,1.35c-.16.84-.4,2-.74,3.48s-.94,3-1.53,4.76-1.49,3.48-2.32,5.25-2,3.37-2.94,4.92-2.09,2.86-3,4-1.82,2-2.41,2.61l-1,.93.49-1.27C484.2,509.39,484.7,508.28,485.27,506.94Z"/><path class="cls-2" d="M643.38,456.21c-1-.39-1.88-.71-2.61-.92l-2.3-.82,2.43.22c.78.08,1.71.24,2.78.45s2.28.42,3.58.76a68.17,68.17,0,0,1,8.66,3.09,75.13,75.13,0,0,1,9.17,5.27,76.69,76.69,0,0,1,8,6.94,67.16,67.16,0,0,1,5.74,7.19c.75,1.11,1.37,2.18,1.89,3.13s1,1.77,1.33,2.48l1,2.23-1.52-1.9c-.44-.63-1-1.36-1.73-2.17s-1.45-1.75-2.37-2.69a64.65,64.65,0,0,0-6.25-6.31,72.89,72.89,0,0,0-7.89-6.34,74.36,74.36,0,0,0-8.57-5.4,65.9,65.9,0,0,0-8-3.85C645.5,457,644.38,456.58,643.38,456.21Z"/><path class="cls-2" d="M630.27,488.28c.66,1.28,1.48,2.75,2.38,4.3s1.7,3.27,2.63,4.93,1.67,3.42,2.51,5,1.47,3.15,2.13,4.43,1.07,2.45,1.42,3.22l.5,1.26s-.37-.33-1-.92-1.43-1.51-2.41-2.61-1.93-2.52-3-4-2-3.22-2.94-4.92-1.62-3.56-2.32-5.25-1.12-3.36-1.54-4.76-.57-2.64-.74-3.48-.17-1.35-.17-1.35l.74,1.14C628.89,486,629.5,487.05,630.27,488.28Z"/><path class="cls-2" d="M575.6,390.66c-.68-.07-1.4-.12-2.15-.17l-2,6.95-2.33-7.1c-1.67-.06-3.41-.06-5.17,0a41.63,41.63,0,0,0-1.15,4.91,43.69,43.69,0,0,0-.57,5.48,43.82,43.82,0,0,1-1.79-5.37,41.3,41.3,0,0,1-1-4.9c-1.24.06-2.47.14-3.64.26l-.87.06-2.61,5.09-1.61-4.65-.91.13c-1.77.16-3.24.4-4.27.58l-1.64.23,1.49-.73c1-.41,2.37-1,4.09-1.56s3.8-1,6-1.47,4.67-.58,7.09-.72,4.85.14,7.12.36,4.33.71,6.09,1.14,3.18,1,4.17,1.34l1.53.64-1.65-.13C578.86,390.89,577.37,390.74,575.6,390.66Z"/><path class="cls-2" d="M582.05,408.14c-.88-.21-1.87-.42-3-.59s-2.44-.49-3.79-.68a28.36,28.36,0,0,0-1.14,3.11,33.69,33.69,0,0,0-1,4.25,34.08,34.08,0,0,1-1.36-4.3,34.78,34.78,0,0,1-.67-3.51,62.11,62.11,0,0,0-7.66-.3l-2.4,7.32-1.69-7.21c-1.6.09-3.18.22-4.69.43-.84.09-1.66.2-2.46.32l-1.93,11.71-2.6-10.86-.39.09c-1.09.19-2.07.43-2.95.66s-1.64.41-2.25.62l-2,.53,1.76-1.1c.57-.33,1.28-.7,2.11-1.1s1.76-.87,2.81-1.3a57.92,57.92,0,0,1,7.45-2.27,64.58,64.58,0,0,1,8.91-1,67.08,67.08,0,0,1,8.92.79,57,57,0,0,1,7.5,2.1c1.06.4,2,.83,2.84,1.23s1.56.73,2.14,1.06l1.78,1.05-2-.49C583.7,408.52,582.93,408.34,582.05,408.14Z"/><path class="cls-2" d="M542.34,433.08c1-.4,2.07-.82,3.29-1.23a81.12,81.12,0,0,1,8.54-2.09,87.06,87.06,0,0,1,10.06-.9,95.27,95.27,0,0,1,10.08.75,84.55,84.55,0,0,1,8.57,1.95c1.23.37,2.34.78,3.31,1.14s1.83.68,2.51,1l2.13,1-2.31-.39c-.72-.17-1.6-.32-2.62-.48l-.55-.1-2.46,7.16-.38-7.56h0c-1.53-.28-3.25-.49-5.06-.67l-3.28,15.18-1.25-15.54c-2.09-.15-4.25-.23-6.44-.23l-1.63,14.21-2.69-14.18c-1.75,0-3.47.1-5.16.23l-1.86,4.9-2.19-4.57c-2.23.22-4.31.49-6.17.84l-.77,7.93-2-7.48c-.45.08-.9.16-1.31.25-1,.19-1.89.36-2.61.55l-2.29.47,2.1-1.05C540.53,433.8,541.37,433.46,542.34,433.08Z"/><path class="cls-2" d="M547.82,461c2.2-.53,4.8-1,7.59-1.45s5.83-.53,8.85-.64c3,.06,6,.24,8.86.51s5.4.85,7.61,1.34,4,1.1,5.25,1.5l1.94.71-2.06-.11c-1.3-.12-3.16-.27-5.39-.35-1.16-.11-2.43-.19-3.77-.25l-1.83,7-2.21-7.14c-2.38-.1-4.89-.13-7.41-.08l-2,15.68L561.07,462l-2.4.06-1.23,5.11-1.45-5-.33,0c-1.07,0-2.11.08-3.11.13L550.16,470l-1.9-7.33h-.15c-2.23.12-4.08.3-5.38.44l-2.07.15,1.94-.75C543.84,462.13,545.64,461.56,547.82,461Z"/><path class="cls-2" d="M576.43,490.18c-1.06-.1-2.24-.17-3.48-.21l-2.66,12.9-1.66-13c-1.61,0-3.26-.06-4.92,0-2.15,0-4.3,0-6.34.13l-2.63,7.78-1.49-7.59c-.79.05-1.55.11-2.25.19-1.76.07-3.23.2-4.26.31l-1.64.09,1.5-.69c1-.38,2.37-.91,4.08-1.45s3.78-.92,6-1.34,4.62-.48,7-.58c2.4.07,4.8.24,7,.49s4.27.8,6,1.25,3.12,1,4.1,1.4l1.5.67-1.64-.07C579.66,490.34,578.19,490.23,576.43,490.18Z"/><path class="cls-2" d="M550.27,519.5c1.73-.48,3.78-.92,6-1.33s4.62-.48,7-.58c2.4.06,4.8.23,7,.48s4.27.8,6,1.26,3.12,1,4.1,1.4l1.5.66-1.64-.07c-.91-.09-2.2-.18-3.71-.24l-2.52,12.68-1.93-12.92-2-.05c-1.85-.1-3.81-.11-5.78-.07l-3,7.13L560,520.74c-1.18,0-2.34.07-3.47.14-2.17.06-4.2.17-5.94.36s-3.23.2-4.26.31l-1.64.09,1.5-.68C547.16,520.57,548.56,520.05,550.27,519.5Z"/><path class="cls-2" d="M550.82,550.91c1.56-.44,3.4-.86,5.39-1.25s4.17-.45,6.34-.54c2.16.07,4.32.22,6.34.46s3.85.75,5.41,1.17,2.81,1,3.68,1.32l1.35.63-1.48,0c-.93-.08-2.26-.16-3.85-.18-1.4-.12-3-.17-4.75-.19l-2.08,4.43-2.11-4.51c-.83,0-1.66,0-2.49,0-1.82,0-3.63,0-5.37.09l-2.59,13.25-1.76-13.08c-.6,0-1.17.08-1.71.13-1.59,0-2.91.14-3.84.22l-1.49.06,1.34-.65C548,551.92,549.28,551.43,550.82,550.91Z"/><path class="cls-2" d="M553.21,582.37c1.33-.4,2.91-.78,4.63-1.14s3.58-.4,5.45-.5c1.86.07,3.72.22,5.45.43s3.3.7,4.64,1.08,2.4.89,3.15,1.21l1.15.58h-1.29c-.8,0-1.94-.08-3.3-.06-.73-.06-1.54-.08-2.38-.1l-2.56,14.77-1.89-14.82c-1,0-2,0-3,0s-2.14,0-3.2,0l-1.9,6.31L556.35,584c-1,0-2,.06-2.82.13-1.36,0-2.51.06-3.31.11h-1.28l1.14-.6C550.82,583.3,551.89,582.85,553.21,582.37Z"/><path class="cls-2" d="M558.35,611.75c1.09-.51,2.4-1,3.83-1.57s3-.79,4.62-1.09,3.23-.26,4.75-.26,2.93.25,4.12.43,2.17.55,2.84.76l1,.41-1.1.19c-.7.08-1.68.2-2.84.41-.89.07-1.9.2-2.94.37l.16,10.83L568.53,612l-1.28.22c-.73.07-1.46.16-2.18.27l-.9,5.32L561,613.08c-.77.11-1.5.23-2.15.36-1.18.12-2.17.26-2.85.38l-1.12.1.9-.68C556.42,612.86,557.28,612.34,558.35,611.75Z"/><path class="cls-2" d="M565.94,637.32c.82-.61,1.82-1.28,2.91-2s2.39-1.14,3.67-1.66,2.65-.68,3.91-.92,2.48-.21,3.51-.22,1.89.17,2.49.25l.93.21-.87.39c-.56.2-1.35.49-2.27.89-.75.23-1.61.54-2.49.88l1.29,8-4-7.1c-.5.18-1,.36-1.48.56-1.23.35-2.44.75-3.57,1.18h0l3.33,13.31-6-12.44-.45.16c-1,.25-1.78.5-2.34.68l-.93.22.61-.74C564.55,638.61,565.16,638,565.94,637.32Z"/><path class="cls-2" d="M637.47,683.19a18.32,18.32,0,0,0-1.45-1.62,20.25,20.25,0,0,0-1.58-1.81,22.07,22.07,0,0,0-1.5-1.88,19.17,19.17,0,0,0-1.34-1.72,16.33,16.33,0,0,0-1-1.35l-.35-.57.68,0c.4.09,1,.22,1.68.44a21.11,21.11,0,0,1,2.14,1.15,23.53,23.53,0,0,1,2.06,1.87,10.56,10.56,0,0,1,2.21,4.67,17.38,17.38,0,0,1,.13,1.74c-.05.43-.07.67-.07.67l-.5-.45A13.16,13.16,0,0,0,637.47,683.19Z"/><path class="cls-2" d="M593.14,473.65a46.88,46.88,0,0,1-1.24-8.08,28.89,28.89,0,0,1,.22-5.77c.2-1.38.38-2.15.38-2.15s-.07.79-.08,2.17a39.17,39.17,0,0,0,.36,5.66,58.88,58.88,0,0,0,1.68,7.83c.77,2.82,1.77,5.8,2.85,8.76s2.13,5.94,3.12,8.72,1.83,5.42,2.6,7.67,1.3,4.14,1.73,5.46l.61,2.09-.9-2c-.54-1.27-1.37-3.07-2.27-5.27s-2-4.74-3.05-7.5-2.19-5.72-3.33-8.67S593.86,476.55,593.14,473.65Z"/><path class="cls-2" d="M530.23,482.37c.48-1.47.87-3.25,1.35-5.11s.86-3.89,1.17-5.92.62-4.06.78-6,.33-3.72.34-5.27.11-2.85.09-3.76,0-1.44,0-1.44.1.52.28,1.41a35.22,35.22,0,0,1,.49,3.77,45.8,45.8,0,0,1,.14,5.38c-.09,2-.29,4.07-.59,6.15s-.86,4.13-1.4,6a45.87,45.87,0,0,1-1.84,5.06,35.49,35.49,0,0,1-1.67,3.41l-.72,1.25.44-1.37C529.42,485.1,529.77,483.85,530.23,482.37Z"/><path class="cls-2" d="M665.81,475.06c1,.75,2.24,1.62,3.43,2.67s2.42,2.22,3.61,3.42,2.24,2.56,3.23,3.8,1.79,2.5,2.48,3.56,1.16,2,1.52,2.67l.51,1s-.27-.32-.76-.87-1.18-1.35-2-2.31-1.81-2-2.82-3.22-2.15-2.4-3.32-3.59-2.28-2.41-3.4-3.5-2.13-2.14-3.06-3-1.65-1.61-2.2-2.11l-.83-.81,1,.57C663.86,473.79,664.79,474.31,665.81,475.06Z"/><path class="cls-2" d="M662.14,438.88c-1.59-.14-3.45-.08-5.43-.09a55.64,55.64,0,0,0-6.19.47,55,55,0,0,0-6.12,1c-1.92.48-3.74.87-5.25,1.39s-2.8.88-3.67,1.22l-1.4.49,1.27-.77a30.47,30.47,0,0,1,3.49-1.77,39.15,39.15,0,0,1,5.23-1.88,54.13,54.13,0,0,1,6.26-1.27,58.15,58.15,0,0,1,6.38-.27,38.86,38.86,0,0,1,5.53.58,30.21,30.21,0,0,1,3.82.88l1.41.45-1.47-.15C665.07,439.07,663.73,439,662.14,438.88Z"/><path class="cls-2" d="M693.76,420c-1.54-1.21-3.22-2.43-5-3.6s-3.45-2.34-5.13-3.35-3.24-2-4.64-2.69-2.52-1.41-3.35-1.82l-1.28-.69,1.4.41c.88.29,2.16.67,3.62,1.3s3.17,1.36,4.93,2.31,3.56,2.07,5.34,3.24,3.4,2.55,4.92,3.84a49.61,49.61,0,0,1,3.91,3.79c1.11,1.14,1.92,2.2,2.51,2.91s.87,1.17.87,1.17l-1.1-1c-.67-.62-1.69-1.46-2.88-2.48S695.28,421.23,693.76,420Z"/><path class="cls-2" d="M626.54,407.11c-1,0-2.09.12-3.29.16s-2.47.14-3.74.28-2.54.19-3.73.35-2.31.23-3.26.39l-2.34.29-.9.09.82-.39c.53-.21,1.28-.57,2.22-.86a31.87,31.87,0,0,1,3.25-.87c1.21-.22,2.51-.42,3.81-.57s2.63-.09,3.86-.08a30.15,30.15,0,0,1,3.35.33,22.87,22.87,0,0,1,2.33.47l.87.24-.9.06Z"/><path class="cls-2" d="M643.91,499.23c.45,1,1.09,2.22,1.67,3.52s1.25,2.66,1.95,4,1.3,2.73,2,4,1.21,2.48,1.76,3.48l1.23,2.49.45,1-.7-.79c-.43-.53-1.08-1.25-1.74-2.2s-1.46-2-2.19-3.28-1.47-2.6-2.18-4-1.26-2.82-1.8-4.16-.9-2.64-1.24-3.75-.52-2.06-.67-2.71l-.19-1,.48.94Z"/><path class="cls-2" d="M621,511.1a38.83,38.83,0,0,1-1.21-13.4,38,38,0,0,1,.91-5.8,30.44,30.44,0,0,1,1.2-4l.57-1.45L622.2,488c-.2,1-.4,2.37-.61,4a57.29,57.29,0,0,0-.43,5.72,59.16,59.16,0,0,0,1.18,13c.48,2,.89,4,1.44,5.55s1,2.95,1.34,3.86l.55,1.47-.83-1.33a30.54,30.54,0,0,1-1.88-3.69A38.09,38.09,0,0,1,621,511.1Z"/><path class="cls-2" d="M500.6,516.78c.2-1.65.29-3.59.47-5.66s.26-4.27.29-6.48.11-4.42.06-6.49,0-4-.15-5.68-.12-3.06-.2-4-.06-1.54-.06-1.54.13.55.37,1.5.54,2.32.77,4,.51,3.61.64,5.71.16,4.34.14,6.59-.28,4.48-.51,6.57-.62,4-.95,5.66-.73,3-1,3.94-.45,1.47-.45,1.47.06-.55.16-1.53S500.42,518.43,500.6,516.78Z"/><path class="cls-2" d="M486.78,441.66c-.69-.66-1.28-1.23-1.73-1.57l-.69-.59.85.33a12.63,12.63,0,0,1,2.12,1.13,15.92,15.92,0,0,1,2.67,2.16,16.74,16.74,0,0,1,4.12,6.68,16.34,16.34,0,0,1,.74,3.35,12.75,12.75,0,0,1,.06,2.41l-.09.9-.22-.88a23,23,0,0,0-.62-2.25,26.76,26.76,0,0,0-1.14-3A28.72,28.72,0,0,0,489,444,26.4,26.4,0,0,0,486.78,441.66Z"/><path class="cls-2" d="M429.4,456.43a20.19,20.19,0,0,1,1.51-2.41,37.62,37.62,0,0,1,4.59-5.47,48.72,48.72,0,0,1,6.45-5.09,48.16,48.16,0,0,1,7.39-3.58,37.62,37.62,0,0,1,6.93-1.75,20.66,20.66,0,0,1,2.83-.31,21.81,21.81,0,0,1,2.18-.07l1.9.05-1.88.25a19,19,0,0,0-2.13.35c-.82.15-1.74.34-2.73.6a47.64,47.64,0,0,0-20,10.55,48.05,48.05,0,0,0-4.82,5c-.66.78-1.23,1.52-1.72,2.2a16.87,16.87,0,0,0-1.24,1.76l-1,1.58.78-1.73C428.63,457.82,429,457.17,429.4,456.43Z"/><path class="cls-2" d="M447.56,486a42.35,42.35,0,0,1,2.48-3.63c1-1.26,2.13-2.57,3.29-3.84s2.5-2.36,3.73-3.41a43,43,0,0,1,3.54-2.6c1.06-.73,2-1.22,2.67-1.59l1.06-.53-.88.78c-.58.48-1.35,1.21-2.31,2s-2,1.87-3.18,2.92-2.35,2.26-3.5,3.49-2.33,2.41-3.36,3.61-2,2.27-2.82,3.27-1.51,1.79-2,2.38l-.75.9.49-1.07C446.41,488,446.87,487,447.56,486Z"/><path class="cls-2" d="M469.26,505.53c.47-.9,1-2,1.59-3.09l2-3.45,2.15-3.34c.68-1.07,1.41-2,2-2.84s1.16-1.47,1.52-1.94l.61-.72-.35.88c-.25.54-.56,1.34-1,2.24s-1,2-1.59,3.09l-2,3.45L472,503.15c-.68,1.07-1.42,2-2,2.84s-1.16,1.47-1.52,1.94l-.61.72.35-.88C468.49,507.24,468.8,506.43,469.26,505.53Z"/><path class="cls-2" d="M461.84,413.17c1.89.23,4.1.49,6.44.95s4.83,1,7.3,1.63,4.88,1.46,7.14,2.22,4.3,1.65,6.06,2.4,3.16,1.48,4.16,2l1.55.82-1.67-.54c-1-.37-2.56-.83-4.36-1.43s-3.92-1.21-6.17-1.92-4.68-1.38-7.12-2-4.86-1.3-7.17-1.82-4.44-1.05-6.31-1.41-3.39-.74-4.48-.94l-1.71-.36,1.74.06C458.35,412.87,459.94,412.93,461.84,413.17Z"/><path class="cls-2" d="M426.51,423.53a30.16,30.16,0,0,1,2.31-2.84c.93-1,1.95-2,3-2.92s2.28-1.73,3.39-2.48a31,31,0,0,1,3.19-1.79,24.11,24.11,0,0,1,2.38-1l.93-.32-.78.58c-.52.35-1.21.9-2.07,1.5s-1.81,1.38-2.86,2.15-2.12,1.66-3.16,2.57-2.13,1.79-3.08,2.68-1.87,1.7-2.6,2.46-1.4,1.33-1.83,1.78l-.71.67.47-.86A22.93,22.93,0,0,1,426.51,423.53Z"/><path class="cls-2" d="M474.82,388.4c2.69-.59,5.85-1.21,9.27-1.69s7.09-.81,10.77-1,7.37-.18,10.82-.1,6.66.39,9.4.7,5,.68,6.59.94l2.49.47-2.52-.17c-1.6-.13-3.89-.23-6.63-.37s-5.94-.15-9.36-.2-7.07.08-10.71.3-7.28.46-10.68.84-6.58.74-9.28,1.2-5,.77-6.55,1.07l-2.49.43,2.42-.73C469.91,389.62,472.12,389,474.82,388.4Z"/><path class="cls-2" d="M654.45,390.16c-1.08-.24-2.3-.5-3.63-.75-2.66-.58-5.8-1-9.16-1.48s-7-.76-10.57-.93-7.22-.23-10.61-.12-6.56.26-9.26.57c-1.35.12-2.59.26-3.69.39s-2.06.22-2.85.35l-2.48.33,2.43-.63c.77-.19,1.71-.41,2.8-.63s2.32-.49,3.68-.69c2.7-.44,5.88-.84,9.31-1.05s7.09-.21,10.75-.09,7.3.63,10.69,1.15,6.51,1.26,9.16,2c1.33.32,2.53.69,3.59,1s2,.64,2.73.91l2.35.86-2.44-.57C656.48,390.58,655.54,390.38,654.45,390.16Z"/><path class="cls-2" d="M509.18,537.58c.77-.78,1.53-1.82,2.41-2.86a38.59,38.59,0,0,0,2.46-3.49,36.61,36.61,0,0,0,2.15-3.68c.59-1.22,1.21-2.35,1.6-3.38s.81-1.87,1-2.48l.37-1s0,.37-.08,1a19.14,19.14,0,0,1-.47,2.69,25.31,25.31,0,0,1-1.21,3.68,37.33,37.33,0,0,1-2.06,4,35.69,35.69,0,0,1-2.74,3.52,24.66,24.66,0,0,1-2.85,2.63,19.58,19.58,0,0,1-2.25,1.54l-.91.5.72-.74C507.81,539.09,508.43,538.38,509.18,537.58Z"/><path class="cls-2" d="M603.13,530.51c-.57-.64-1.17-1.33-1.75-2s-1-1.51-1.46-2.24a19.32,19.32,0,0,1-1-2.1,15.51,15.51,0,0,1-.57-1.57l-.16-.62.43.47c.25.32.66.73,1.06,1.26s.93,1.12,1.41,1.8,1,1.37,1.59,2.06,1,1.44,1.53,2.1.92,1.33,1.34,1.86.68,1,.91,1.36l.34.54-.55-.32c-.32-.24-.83-.53-1.35-1A21.3,21.3,0,0,1,603.13,530.51Z"/><path class="cls-2" d="M591.71,478.09c.39.9.91,1.93,1.35,3.08s.91,2.36,1.39,3.58.81,2.48,1.19,3.65.63,2.29.9,3.23.39,1.77.52,2.33l.16.9-.45-.8c-.25-.52-.67-1.23-1.07-2.13s-.91-1.93-1.35-3.08L593,485.27c-.41-1.24-.82-2.48-1.2-3.65s-.63-2.28-.9-3.23-.39-1.77-.52-2.33l-.16-.9.45.8C590.89,476.48,591.31,477.19,591.71,478.09Z"/><path class="cls-2" d="M593.87,450.91l-.3.82v-.87a15.14,15.14,0,0,1,.21-2.29,20.74,20.74,0,0,1,.75-3.17,36.64,36.64,0,0,1,1.41-3.47,34.94,34.94,0,0,1,2-3.17,22.09,22.09,0,0,1,2.14-2.46,15.53,15.53,0,0,1,1.73-1.51l.71-.51L602,435c-.33.44-.74,1.1-1.27,1.86s-1.07,1.7-1.69,2.66a35.7,35.7,0,0,0-1.72,3.13,32.45,32.45,0,0,0-1.53,3.23c-.42,1.06-.89,2-1.17,2.91S594,450.39,593.87,450.91Z"/><path class="cls-2" d="M531.35,445.19c-.4-.68-1-1.4-1.49-2.22s-1.15-1.64-1.79-2.45-1.23-1.66-1.86-2.39-1.18-1.48-1.72-2.05-.93-1.12-1.25-1.46l-.47-.57.67.33a13.86,13.86,0,0,1,1.65,1.05,18.21,18.21,0,0,1,2.12,1.77c.71.73,1.43,1.54,2.12,2.38s1.19,1.8,1.69,2.68a18.36,18.36,0,0,1,1.12,2.54,14.16,14.16,0,0,1,.55,1.87c.08.47.13.73.13.73l-.42-.61C532.17,446.39,531.77,445.85,531.35,445.19Z"/><path class="cls-2" d="M488.59,410.11c-.95-.28-1.74-.57-2.3-.72l-.88-.28.93,0a19.18,19.18,0,0,1,2.44.16,24.42,24.42,0,0,1,3.41.66,38.37,38.37,0,0,1,3.77,1.3c1.23.58,2.43,1.22,3.53,1.87a25.06,25.06,0,0,1,2.81,2,20.92,20.92,0,0,1,1.78,1.68l.62.69-.81-.45c-.49-.31-1.24-.7-2.1-1.19s-1.9-1-3-1.59-2.27-1.12-3.48-1.61-2.4-1-3.56-1.44S489.55,410.38,488.59,410.11Z"/><path class="cls-2" d="M665.18,415.11c-1.48,0-3.19.2-5,.35a53.53,53.53,0,0,0-5.67.88,51.33,51.33,0,0,0-5.56,1.37c-1.74.56-3.4,1-4.76,1.6s-2.54,1-3.32,1.34l-1.27.53,1.12-.8a28.23,28.23,0,0,1,3.1-1.87,35.63,35.63,0,0,1,4.7-2.1,51.85,51.85,0,0,1,5.69-1.61,53.65,53.65,0,0,1,5.86-.7,38.42,38.42,0,0,1,5.15.13,29.36,29.36,0,0,1,3.58.54l1.34.31h-1.37C667.89,415,666.65,415.08,665.18,415.11Z"/><path class="cls-2" d="M683,434c1.46.94,2.88,1.95,4.15,3a34.41,34.41,0,0,1,3.21,3.06,25.18,25.18,0,0,1,2,2.41l.68,1-.91-.76c-.55-.5-1.39-1.16-2.37-2s-2.19-1.67-3.44-2.61-2.68-1.86-4.13-2.71-2.89-1.71-4.3-2.41-2.73-1.38-3.91-1.85-2.14-.94-2.85-1.2l-1.09-.45,1.18.16a25.2,25.2,0,0,1,3,.66,33.28,33.28,0,0,1,4.19,1.44A49.81,49.81,0,0,1,683,434Z"/><path class="cls-8" d="M468,308.62H429a1.52,1.52,0,0,1-1.51-1,1.9,1.9,0,0,1,.32-1.84l36.23-36.12H429a1.68,1.68,0,0,1-1.62-1.62,1.55,1.55,0,0,1,.49-1.14,1.56,1.56,0,0,1,1.13-.49H468a1.55,1.55,0,0,1,1.52,1,1.91,1.91,0,0,1-.33,1.84l-36.23,36.12h35a1.57,1.57,0,0,1,1.14.48,1.6,1.6,0,0,1,.49,1.14,1.56,1.56,0,0,1-.49,1.13A1.55,1.55,0,0,1,468,308.62ZM443.64,260a1.56,1.56,0,0,1-1.13-.49,1.55,1.55,0,0,1-.49-1.14V248.6a1.66,1.66,0,0,1,1.62-1.62h9.73a1.57,1.57,0,0,1,1.14.48,1.6,1.6,0,0,1,.49,1.14v9.73a1.67,1.67,0,0,1-1.63,1.63Zm1.62-3.25h6.49v-6.49h-6.49Z"/><path class="cls-8" d="M516.75,308.62H477.81a1.68,1.68,0,0,1-1.62-1.62V268.07a1.55,1.55,0,0,1,.49-1.14,1.56,1.56,0,0,1,1.13-.49h38.94a1.56,1.56,0,0,1,1.13.49,1.55,1.55,0,0,1,.49,1.14V307a1.68,1.68,0,0,1-1.62,1.62Zm-37.31-3.24h35.68V269.69H479.44ZM497.28,260a1.6,1.6,0,0,1-1.19-.44,1.7,1.7,0,0,1,0-2.38l9.73-9.73a1.68,1.68,0,0,1,2.38,2.38l-9.73,9.73A1.62,1.62,0,0,1,497.28,260Z"/><path class="cls-8" d="M526.48,298.89a2.25,2.25,0,0,1-1.19-.43,1.7,1.7,0,0,1,0-2.38l19.47-19.47a1.48,1.48,0,0,1,2.37,0,1.7,1.7,0,0,1,0,2.38l-19.46,19.47A2.25,2.25,0,0,1,526.48,298.89Zm19.46,19.46h-9.73a1.66,1.66,0,0,1-1.62-1.62V260h-8.11a1.6,1.6,0,0,1-1.14-.49,1.57,1.57,0,0,1-.48-1.14,1.66,1.66,0,0,1,1.62-1.62h9.73a1.66,1.66,0,0,1,1.62,1.62v56.78h8.11a1.53,1.53,0,0,1,1.14.49,1.56,1.56,0,0,1,.49,1.13,1.6,1.6,0,0,1-.49,1.14A1.56,1.56,0,0,1,545.94,318.35Z"/><path class="cls-8" d="M595.74,266.89a1.58,1.58,0,0,1,.49,1.23,1.44,1.44,0,0,1-.49,1.12,1.6,1.6,0,0,1-1.13.45H576.77V307a1.66,1.66,0,0,1-1.63,1.62,1.66,1.66,0,0,1-1.62-1.62V269.69H555.68a1.63,1.63,0,0,1-1.14-.45,1.48,1.48,0,0,1-.49-1.12,1.61,1.61,0,0,1,.49-1.23,1.63,1.63,0,0,1,1.14-.45h38.93A1.6,1.6,0,0,1,595.74,266.89Z"/><path class="cls-8" d="M644.46,266.88a1.56,1.56,0,0,1,0,2.27l-38.93,38.93a1.58,1.58,0,0,1-2.38,0,1.56,1.56,0,0,1,0-2.27l18.39-18.28-18.39-18.38a1.56,1.56,0,0,1,0-2.27,1.48,1.48,0,0,1,2.38,0l18.28,18.27,18.27-18.27a1.66,1.66,0,0,1,1.19-.54A1.64,1.64,0,0,1,644.46,266.88Z"/><path class="cls-8" d="M546.3,367.24H507.36a1.55,1.55,0,0,1-1.13-.48,1.68,1.68,0,0,1-.49-1.25,1.38,1.38,0,0,1,.49-1.08,1.63,1.63,0,0,1,1.13-.43h37.31V347.67H507.36a1.68,1.68,0,0,1-1.13-.43,1.38,1.38,0,0,1-.49-1.09V326.58a1.66,1.66,0,0,1,1.62-1.62H546.3a1.58,1.58,0,0,1,1.13.47,1.46,1.46,0,0,1,.49,1.1,1.57,1.57,0,0,1-.49,1.2,1.54,1.54,0,0,1-1.13.47H509v16.22H546.3a1.64,1.64,0,0,1,1.13.44,1.51,1.51,0,0,1,.49,1.2V365.5a1.66,1.66,0,0,1-.49,1.25A1.52,1.52,0,0,1,546.3,367.24Z"/><path class="cls-8" d="M556,357.51a2.17,2.17,0,0,1-1.19-.43,1.7,1.7,0,0,1,0-2.38l19.47-19.47a1.48,1.48,0,0,1,2.37,0,1.7,1.7,0,0,1,0,2.38l-19.46,19.47A2.17,2.17,0,0,1,556,357.51ZM575.5,377h-9.74a1.56,1.56,0,0,1-1.13-.49,1.53,1.53,0,0,1-.49-1.14V318.58H556a1.61,1.61,0,0,1-1.14-2.76,1.6,1.6,0,0,1,1.14-.49h9.73a1.6,1.6,0,0,1,1.14.49,1.56,1.56,0,0,1,.48,1.14v56.77h8.12a1.61,1.61,0,0,1,1.13,2.76A1.56,1.56,0,0,1,575.5,377Z"/><path class="cls-8" d="M624.16,367.24H585.23a1.66,1.66,0,0,1-1.63-1.62V326.69a1.66,1.66,0,0,1,1.63-1.62h38.93a1.64,1.64,0,0,1,1.62,1.62v38.93a1.64,1.64,0,0,1-1.62,1.62ZM586.85,364h35.69V328.31H586.85Z"/><path class="cls-8" d="M672.82,367.24a2.14,2.14,0,0,1-1.18-.43l-36.12-36.23v35a1.6,1.6,0,0,1-.49,1.14,1.57,1.57,0,0,1-1.14.48,1.66,1.66,0,0,1-1.62-1.62V326.69a1.55,1.55,0,0,1,1-1.52,1.93,1.93,0,0,1,1.84.33l36.12,36.23v-35a1.61,1.61,0,0,1,2.76-1.14,1.6,1.6,0,0,1,.49,1.14v38.93a1.69,1.69,0,0,1-1,1.52A1.55,1.55,0,0,1,672.82,367.24Zm-19.46-48.66a1.64,1.64,0,0,1-1.19-.43,1.7,1.7,0,0,1,0-2.38L661.9,306a1.68,1.68,0,0,1,2.38,2.38l-9.73,9.74A1.65,1.65,0,0,1,653.36,318.58Z"/></g></svg>