<svg id="Слой_1" data-name="Слой 1" xmlns="http://www.w3.org/2000/svg" viewBox="0 0 80 80"><defs><style>.cls-1{fill:#f3e600;}.cls-2{fill:#fff;}.cls-3{fill:#12100b;}</style></defs><rect class="cls-1" x="-21.32" y="-13.02" width="238.53" height="129.44"/><path class="cls-2" d="M94.91-21.94h15.72a0,0,0,0,1,0,0V32a0,0,0,0,1,0,0H56.72a0,0,0,0,1,0,0V16.25A38.19,38.19,0,0,1,94.91-21.94Z" transform="translate(33.57 -62.19) rotate(49.86)"/><path class="cls-3" d="M15.5,12.81H69.42a0,0,0,0,1,0,0V66.73a0,0,0,0,1,0,0H53.69A38.19,38.19,0,0,1,15.5,28.54V12.81A0,0,0,0,1,15.5,12.81Z" transform="translate(45.49 -18.33) rotate(49.86)"/><path class="cls-2" d="M50.26,54h53.92a0,0,0,0,1,0,0V69.75A38.19,38.19,0,0,1,66,107.94H50.26a0,0,0,0,1,0,0V54A0,0,0,0,1,50.26,54Z" transform="translate(89.35 -30.25) rotate(49.86)"/><path class="cls-1" d="M80.45,43,63.24,22.59h0a26.7,26.7,0,0,1,37.62,3.2h0Z"/><path class="cls-1" d="M60,60.21h0L80.45,43,97.66,63.41h0A26.7,26.7,0,0,1,60,60.21Z"/></svg>