<svg id="Слой_1" data-name="Слой 1" xmlns="http://www.w3.org/2000/svg" viewBox="0 0 80 80"><defs><style>.cls-1{fill:#f3e600;}.cls-2{fill:#343434;}.cls-3{fill:#fff;}.cls-4{fill:#12100b;}</style></defs><rect class="cls-1" x="-143.34" y="-13.02" width="238.53" height="129.44"/><path class="cls-2" d="M82,49.82c-.15-.56-.31-1.19-.45-1.89a41.65,41.65,0,0,1-.64-4.82c-.06-.89-.11-1.81-.14-2.74s0-1.89,0-2.85c0-1.91,0-3.82,0-5.62s0-3.47.06-4.91.06-2.63.11-3.47.08-1.31.08-1.31-.11.46-.25,1.3-.31,2-.44,3.45-.27,3.12-.36,4.92-.13,3.73-.14,5.64q0,1.45.06,2.88c0,1,.12,1.89.22,2.79s.23,1.77.4,2.59.35,1.58.55,2.28a15.11,15.11,0,0,0,1.28,3.27,5.62,5.62,0,0,0,.74,1.1,6.89,6.89,0,0,1-.57-1.18C82.31,50.86,82.14,50.38,82,49.82Z"/><path class="cls-3" d="M41.07,81.17h0s.74.29,2.07.67,3.25.9,5.59,1.33c1.17.22,2.44.43,3.8.62s2.77.38,4.26.5,3,.23,4.58.3,3.15.1,4.73.13,3.17,0,4.74-.13,3.09-.17,4.58-.3,2.91-.3,4.26-.5c.83-.11,1.61-.24,2.37-.37v-.58l-1,.11V78.71l-.85,0c-4.16.11-9.7.1-15.23-.12s-11-.67-15.14-1.12c-2.06-.21-3.77-.42-5-.58L43,76.67l1.89.09c1.2.06,2.92.13,5,.17C54,77,59.53,77,65,76.81S76,76.14,80,75.7l1-.12V71.85c0-2.46-3.58-4.07-4.45-6l-27.73-1.2L76.46,63.5V60.05a7.71,7.71,0,0,0-.92-3.68L50.4,55.17l19.95-1c-.1-.62-.22-1.39-.34-2.28a72,72,0,0,1-.19-17.35c.26-2.33.53-3.86.53-3.86s0,1.56.19,3.88A71.75,71.75,0,0,0,71.7,43a70.67,70.67,0,0,0,1.92,7.45A76.22,76.22,0,0,1,72.11,37c0-6.52.91-13.9,2.15-17.27l-21.77-1.2L75.7,17.28a2.4,2.4,0,0,0,0-1.56l-25.36-1.2,24.73-1.17V7.61a3.61,3.61,0,0,0-.49-2.07h.57c1.46,0,2.86,0,4.19-.07a5.76,5.76,0,0,1,1.81.16A1.09,1.09,0,0,1,82,6.79C82,8,82,9,82,10s.06,1.77.08,2.44c.06,1.36.09,2.13.09,2.13s0-.77.09-2.13c0-.67,0-1.5.08-2.44s.08-2,.09-3.19a2,2,0,0,0-.22-1,1.58,1.58,0,0,0-.83-.7,6,6,0,0,0-2-.28c-1.33,0-2.73-.06-4.19-.07l-9.1-.06L57,4.73c-1.45,0-2.85,0-4.19.07a5.91,5.91,0,0,0-2,.28,1.56,1.56,0,0,0-.84.7,2,2,0,0,0-.22,1c0,2.32.14,4.26.17,5.61s.09,2.13.09,2.13-1.16.08-1.16,1.59,3.36,1.54,3.36,2.89v2.36S53,26,53,37.82,50,55.13,50,55.13c-2.16,0-2.39,5-2.39,8.34s-6.57,3.86-6.57,8.42Zm30.82-73c.1-.39.2-.76.28-1.08l.34-.76c.11-.19.18-.29.18-.29l.18.29.34.76c.08.32.18.69.28,1.08s.08.82.13,1.24-.09.84-.13,1.24-.2.77-.28,1.08l-.34.77-.18.29-.18-.29-.34-.77c-.08-.31-.18-.68-.28-1.08s-.08-.82-.13-1.24S71.85,8.54,71.89,8.14Zm-20.64.09a10.12,10.12,0,0,1,.13-1.07,5.24,5.24,0,0,1,.16-.75l.08-.29.1.29c0,.18.13.44.18.75s.13.67.16,1.06l.07,1.22c0,.41,0,.83,0,1.22A9.6,9.6,0,0,1,52,11.72a5.12,5.12,0,0,1-.16.76l-.08.29-.1-.29c0-.18-.13-.44-.18-.75s-.13-.67-.15-1.06-.06-.8-.08-1.22S51.24,8.62,51.25,8.23Zm3.21,39.54c0-.66.1-1.6.13-2.72s.16-2.41.21-3.8.15-2.86.17-4.33.14-3,.15-4.34.09-2.69.07-3.8.07-2.06.07-2.72.05-1,.05-1,.12.36.31,1,.38,1.56.61,2.67.35,2.44.49,3.85.11,2.93.1,4.45-.25,3-.43,4.42-.51,2.7-.77,3.8-.6,2-.81,2.63l-.38,1S54.44,48.43,54.46,47.77Zm-9.6,24.12,3.19-.07c1.32,0,2.86,0,4.5,0s3.39.07,5.14.07,3.5.13,5.14.16,3.18.17,4.49.21l3.19.21,1.22.12-1.2.24-3.18.47c-1.32.12-2.86.25-4.51.36s-3.42.07-5.19.08-3.53-.19-5.18-.32-3.18-.38-4.49-.57l-3.16-.61L43.64,72Z"/><path class="cls-3" d="M40.14,54.07c-.13-.26-.23-.55-.34-.84s-.09-.3-.13-.46-.06-.32-.1-.48a7.92,7.92,0,0,1-.09-1c0-.33,0-.69,0-1s0-.67,0-1c0-.65.06-1.26.1-1.79s.12-.95.18-1.25a3,3,0,0,1,.11-.48,3.16,3.16,0,0,0-.26.42,7.83,7.83,0,0,0-.47,1.23,10.75,10.75,0,0,0-.34,1.82,14.63,14.63,0,0,0-.1,2.12,7,7,0,0,0,.14,1.11,5.87,5.87,0,0,0,.32,1,4.86,4.86,0,0,0,1.06,1.59,4.21,4.21,0,0,0,1.07.78,2.42,2.42,0,0,0,.47.18,5.22,5.22,0,0,1-1.2-1.25C40.42,54.56,40.28,54.32,40.14,54.07Z"/><path class="cls-3" d="M20.53,76.89a45.54,45.54,0,0,0,5.62.86c1,.08,2.1.16,3.19.2s2.19.06,3.31.09,2.2,0,3.29-.08l1.42-.08V74.44c-1.42,0-2.88-.08-4.35-.16-3.78-.19-7.54-.54-10.35-.87S18,72.79,18,72.79s1.89.09,4.71.13,6.58,0,10.32-.2c1.47-.07,2.94-.18,4.35-.29v-.54a7.92,7.92,0,0,1,2.35-5.65A17.37,17.37,0,0,1,38,64.83L22.33,64l15.3-.84v-3.6a2.1,2.1,0,0,0-.72-1.65l-12.27-.63,8.7-.44a23.43,23.43,0,0,1-.22-7.16A23.45,23.45,0,0,0,34,53.13a14.15,14.15,0,0,1-.25-2.56,43.64,43.64,0,0,1,.35-5.47l-7.51-.49,7.93-.52A3.46,3.46,0,0,0,34.69,40l-7.44-.66,6.94-.61v-.14l-6.94-.61,8-.7a9.73,9.73,0,0,0,2.79-7c0-3.6-.54-6.13-2.1-7.44.35.06.69.13,1,.22a7.37,7.37,0,0,1,3.49,1.92,6.5,6.5,0,0,1,1.64,3.34c0,.31.12.58.14.9l.06.92V31c0,.28,0,.56-.08.83a8.87,8.87,0,0,1-.88,2.87A8.45,8.45,0,0,1,40,36.6a7.58,7.58,0,0,1-1.15,1,3.83,3.83,0,0,1-.46.31s.18-.07.5-.23a7.59,7.59,0,0,0,1.32-.88A8.56,8.56,0,0,0,41.85,35a8.88,8.88,0,0,0,1.24-3c0-.3.12-.6.16-.91s.06-.63.08-.95,0-.64,0-1-.06-.69-.09-1-.14-.7-.2-1.05-.23-.71-.34-1.06a7,7,0,0,0-1.24-2,8.34,8.34,0,0,0-4.1-2.44,17.29,17.29,0,0,0-4.73-.6l-1.17,0-1.21.1a16.15,16.15,0,0,0-2.36.47A8.31,8.31,0,0,0,23.8,24a7,7,0,0,0-1.24,2c-.12.35-.25.7-.34,1.05A10.36,10.36,0,0,0,22,28.1a12.61,12.61,0,0,0-.1,2c0,.31.06.61.08.91s.11.62.16.92a9.06,9.06,0,0,0,1.25,3,8.31,8.31,0,0,0,1.65,1.85,7.23,7.23,0,0,0,1.31.88c.33.16.51.23.51.23V39.3H26.3c-1.41,0-4.93.22-4.93,2.4,0,2.73,4.92,2.88,4.92,2.88s1,1.71,1,6.43S24,57.19,24,57.19c-2.12,0-2.68.88-2.68,1.76v4c0,2.56-6,2.81-6,6v6.16h0a7.42,7.42,0,0,0,1.36.68A23.11,23.11,0,0,0,20.53,76.89ZM34.45,35.56c0-.33.1-.8.13-1.36a18.61,18.61,0,0,0,.19-1.88,20.29,20.29,0,0,0,.16-2.11,19.42,19.42,0,0,0,.12-2.13,17.8,17.8,0,0,0,.06-1.88c0-.56,0-1,0-1.36s0-.54,0-.54l.26.47c.14.31.33.76.53,1.31s.29,1.22.42,1.94a21.43,21.43,0,0,1,.08,2.29,22,22,0,0,1-.38,2.25c-.22.7-.44,1.34-.67,1.88s-.52.94-.7,1.22-.32.43-.32.43S34.42,35.9,34.45,35.56ZM26.21,23.78a12.29,12.29,0,0,0-.81,1.31,11.9,11.9,0,0,0-.84,2,9.14,9.14,0,0,0-.47,2.37,9.36,9.36,0,0,0,.06,2.43A11.84,11.84,0,0,0,24.63,34a10.61,10.61,0,0,0,.58,1.43,5.55,5.55,0,0,0,.26.54s-.15-.16-.39-.46a7.51,7.51,0,0,1-.85-1.34A9,9,0,0,1,23.48,32a10.69,10.69,0,0,1-.17-2.61,10.27,10.27,0,0,1,.62-2.54,8.56,8.56,0,0,1,1.1-2,7.84,7.84,0,0,1,1.06-1.18c.29-.25.46-.38.46-.38S26.42,23.47,26.21,23.78ZM18.55,68.41c.52,0,1.26,0,2.15,0s1.91,0,3,0,2.26.07,3.43.08,2.34.12,3.43.14,2.13.12,3,.15,1.62.12,2.14.15l.82.09-.8.22c-.51.11-1.24.26-2.12.41s-1.92.23-3,.33-2.31.07-3.5.07-2.37-.18-3.48-.3-2.13-.35-3-.52-1.59-.41-2.09-.56l-.78-.26Z"/><path class="cls-4" d="M87.84,71.44a18.1,18.1,0,0,0-.78-4.69A16.45,16.45,0,0,0,85.18,63c-1.06-1.79-1.82-4.92-.17-10.7A61.12,61.12,0,0,1,83,37.82c0-11.23.71-15.81.72-15.86l0-.29v-.91a5.2,5.2,0,0,0,3.36-4.65,5.4,5.4,0,0,0-1.16-3.45V6.8c0-1.62-.63-5.37-6.53-5.37H52.81c-5.89,0-6.53,3.75-6.53,5.37v5.86a5.4,5.4,0,0,0-1.15,3.45,5.18,5.18,0,0,0,3.36,4.65v.91l0,.3s.72,4.62.72,15.85c0,7.72-1.34,12.48-2.07,14.48a6.4,6.4,0,0,0-2.14,2.81,6.06,6.06,0,0,0-2.78-1A4,4,0,0,1,41.11,51a21,21,0,0,1,.27-3.59c3.06-.67,5.63-2.53,5.63-5.72a5,5,0,0,0-3.13-4.62,12.34,12.34,0,0,0,2.06-7c0-4.82-2.15-7.47-3.95-8.84-2.28-1.72-5.34-2.56-9.36-2.56s-7.09.84-9.36,2.56c-1.8,1.37-3.95,4-3.95,8.84a12.45,12.45,0,0,0,2.06,7,5,5,0,0,0-3.13,4.61c0,3.19,2.57,5.05,5.63,5.72A21,21,0,0,1,24.15,51,3.93,3.93,0,0,1,23,54.13c-3.31.37-4.81,2.6-4.81,4.82v3.26c-.3.18-.73.41-1.06.58-1.83,1-4.91,2.54-4.91,6.1v7.89l1.47.91c.5.32,5.29,3.08,19,3.08,1.72,0,3.29,0,4.73-.1v3.15l2.51.85c.39.14,9.81,3.29,26.23,3.29a112.09,112.09,0,0,0,16-1.08c.89,0,3.34-.13,4.54-1.84a4,4,0,0,0,.56-1.25,18.23,18.23,0,0,0,.69-5.62C87.84,72.76,88,73.13,87.84,71.44Zm-50.48.45v.54c-1.41.11-2.88.22-4.35.29-3.74.2-7.5.25-10.32.2S18,72.79,18,72.79s1.87.29,4.68.62,6.57.68,10.35.87c1.47.08,2.93.13,4.35.16v3.44L35.94,78c-1.09.06-2.19.05-3.29.08s-2.22,0-3.31-.09-2.16-.12-3.2-.2a45.66,45.66,0,0,1-5.61-.86,23.11,23.11,0,0,1-3.85-1.16,7.42,7.42,0,0,1-1.36-.68V68.89c0-3.16,6-3.41,6-6V59c0-.88.57-1.76,2.69-1.76,0,0,3.29-1.46,3.29-6.19s-1-6.43-1-6.43-4.92-.15-4.92-2.88c0-2.18,3.52-2.4,4.93-2.4h.58V37.94s-.18-.07-.51-.23a7.23,7.23,0,0,1-1.31-.88A8.31,8.31,0,0,1,23.41,35a9.06,9.06,0,0,1-1.25-3c-.05-.3-.12-.61-.16-.92s-.05-.6-.08-.91a12.61,12.61,0,0,1,.1-2,10.36,10.36,0,0,1,.2-1.06A10.68,10.68,0,0,1,22.56,26a7,7,0,0,1,1.24-2,8.31,8.31,0,0,1,4.09-2.44,16.15,16.15,0,0,1,2.36-.47l1.21-.1,1.17,0a17.29,17.29,0,0,1,4.73.6A8.34,8.34,0,0,1,41.46,24a7,7,0,0,1,1.24,2c.11.35.25.7.34,1.06s.17.69.2,1.05.09.72.09,1,0,.61,0,1,0,.64-.08.95-.11.61-.16.91a8.88,8.88,0,0,1-1.24,3,8.56,8.56,0,0,1-1.65,1.85,7.59,7.59,0,0,1-1.32.88c-.32.16-.5.23-.5.23a3.83,3.83,0,0,0,.46-.31,7.58,7.58,0,0,0,1.15-1,8.45,8.45,0,0,0,1.34-1.92,8.87,8.87,0,0,0,.88-2.87c0-.27.07-.55.08-.83V30.1l-.06-.92c0-.32-.1-.59-.14-.9a6.5,6.5,0,0,0-1.64-3.34A7.37,7.37,0,0,0,37,23c-.33-.09-.67-.16-1-.22,1.56,1.31,2.1,3.84,2.1,7.44a9.73,9.73,0,0,1-2.79,7l-8,.7,6.94.61v.14l-6.94.61,7.44.66a3.46,3.46,0,0,1-.16,4.13l-7.93.52,7.51.49a43.64,43.64,0,0,0-.35,5.47A14.15,14.15,0,0,0,34,53.13a23.45,23.45,0,0,1-.89-3.48,23.43,23.43,0,0,0,.22,7.16l-8.7.44,12.27.63a2.1,2.1,0,0,1,.72,1.65v3.6L22.33,64,38,64.83a17.37,17.37,0,0,0,1.73,1.41A7.88,7.88,0,0,0,37.36,71.89Zm1.8-18.42a5.87,5.87,0,0,1-.32-1,7,7,0,0,1-.14-1.11,13.34,13.34,0,0,1,.1-2.12,10.75,10.75,0,0,1,.34-1.82,7,7,0,0,1,.47-1.23,3.16,3.16,0,0,1,.26-.42,3,3,0,0,0-.11.48c-.06.3-.12.73-.18,1.25s-.08,1.14-.1,1.79c0,.33,0,.66,0,1s0,.71,0,1a7.92,7.92,0,0,0,.09,1c0,.16.07.32.1.48s.09.31.13.46.21.58.34.84.28.49.42.7A5.22,5.22,0,0,0,41.76,56a2.42,2.42,0,0,1-.47-.18,4.21,4.21,0,0,1-1.07-.78A4.86,4.86,0,0,1,39.16,53.47Zm42.89,30c-.76.13-1.54.26-2.37.37-1.35.2-2.78.38-4.26.5s-3,.23-4.58.3-3.14.1-4.74.13-3.17,0-4.73-.13-3.1-.17-4.58-.3-2.91-.31-4.26-.5-2.63-.4-3.8-.62c-2.34-.43-4.26-1-5.59-1.33s-2.07-.67-2.07-.67h0V71.89c0-4.56,6.57-5.1,6.57-8.42s.23-8.34,2.39-8.34c0,0,2.94-5.49,2.94-17.31s-.78-16.46-.78-16.46V19c0-1.35-3.36-1.39-3.36-2.89S50,14.52,50,14.52s0-.77-.09-2.13-.13-3.29-.17-5.61a2,2,0,0,1,.22-1,1.56,1.56,0,0,1,.84-.7,5.91,5.91,0,0,1,2-.28c1.34,0,2.74-.06,4.19-.07l9.1-.06,9.1.06c1.46,0,2.86,0,4.19.07a6,6,0,0,1,2,.28,1.58,1.58,0,0,1,.83.7,2,2,0,0,1,.22,1c0,1.19,0,2.24-.09,3.19s0,1.77-.08,2.44c0,1.36-.09,2.13-.09,2.13s0-.77-.09-2.13c0-.67-.05-1.5-.08-2.44S82,8,82,6.79a1.09,1.09,0,0,0-.75-1.16,5.76,5.76,0,0,0-1.81-.16c-1.33,0-2.73.07-4.19.07h-.57a3.61,3.61,0,0,1,.49,2.07v5.74L50.39,14.52l25.36,1.2a2.4,2.4,0,0,1,0,1.56L52.49,18.56l21.77,1.2C73,23.13,72.11,30.51,72.11,37a76.22,76.22,0,0,0,1.51,13.41A70.67,70.67,0,0,1,71.7,43a71.75,71.75,0,0,1-1.16-8.38c-.17-2.32-.19-3.88-.19-3.88s-.27,1.53-.53,3.86A72,72,0,0,0,70,51.94c.12.89.24,1.66.34,2.28l-19.95,1,25.14,1.2a7.71,7.71,0,0,1,.92,3.68V63.5L48.91,64.69l27.73,1.2c.87,1.89,4.45,3.5,4.45,6v3.73l-1,.12c-4.08.44-9.54.88-15,1.11s-11,.23-15.1.12c-2.07,0-3.79-.11-5-.17L43,76.67l1.88.24c1.19.16,2.9.37,5,.58,4.11.45,9.62.89,15.14,1.12s11.07.23,15.23.12l.85,0V83l1-.11Zm.24-32.09A15.11,15.11,0,0,1,81,48.06c-.2-.7-.39-1.47-.55-2.28s-.29-1.69-.4-2.59-.18-1.84-.22-2.79-.06-1.91-.06-2.88c0-1.91,0-3.84.14-5.64s.23-3.48.36-4.92.31-2.62.44-3.45.25-1.3.25-1.3,0,.48-.08,1.31-.07,2-.11,3.47-.06,3.12-.06,4.91,0,3.71,0,5.62c0,1,0,1.91,0,2.85s.08,1.85.14,2.74a41.65,41.65,0,0,0,.64,4.82c.14.7.3,1.33.45,1.89s.33,1,.48,1.43A6.89,6.89,0,0,0,83,52.43,5.62,5.62,0,0,1,82.29,51.33Z"/><path class="cls-4" d="M35.43,34.44c.23-.54.45-1.18.67-1.88a22,22,0,0,0,.38-2.25A21.43,21.43,0,0,0,36.4,28c-.13-.72-.26-1.38-.42-1.94s-.39-1-.53-1.31l-.26-.47s0,.19,0,.54,0,.8,0,1.36a17.8,17.8,0,0,1-.06,1.88,19.42,19.42,0,0,1-.12,2.13,20.29,20.29,0,0,1-.16,2.11,18.61,18.61,0,0,1-.19,1.88c0,.56-.09,1-.13,1.36s0,.53,0,.53.12-.15.32-.43S35.16,35,35.43,34.44Z"/><path class="cls-2" d="M20.6,69.26c.88.17,1.9.35,3,.52s2.29.22,3.48.3,2.38,0,3.5-.07,2.14-.21,3-.33,1.61-.3,2.12-.41l.8-.22L35.72,69c-.52,0-1.26-.07-2.14-.15s-1.91-.08-3-.15-2.26-.07-3.43-.14-2.33,0-3.43-.08-2.13,0-3,0-1.63,0-2.15,0l-.82,0,.78.26C19,68.85,19.73,69,20.6,69.26Z"/><path class="cls-4" d="M25,24.86a8.56,8.56,0,0,0-1.1,2,10.27,10.27,0,0,0-.62,2.54A10.69,10.69,0,0,0,23.48,32a9,9,0,0,0,.75,2.13,7.51,7.51,0,0,0,.85,1.34c.24.3.39.46.39.46a5.55,5.55,0,0,1-.26-.54A10.61,10.61,0,0,1,24.63,34a11.84,11.84,0,0,1-.48-2.08,9.36,9.36,0,0,1-.06-2.43,9.14,9.14,0,0,1,.47-2.37,11.9,11.9,0,0,1,.84-2,12.29,12.29,0,0,1,.81-1.31c.21-.31.34-.48.34-.48s-.17.13-.46.38A7.84,7.84,0,0,0,25,24.86Z"/><path class="cls-4" d="M72.17,11.7l.34.77.18.29.18-.29.34-.77c.08-.31.18-.68.28-1.08s.08-.82.13-1.24-.09-.84-.13-1.24-.2-.76-.28-1.08l-.34-.76L72.69,6s-.07.1-.18.29l-.34.76c-.08.32-.18.69-.28,1.08s-.08.82-.13,1.24.09.84.13,1.24S72.09,11.39,72.17,11.7Z"/><path class="cls-2" d="M48,72.86c1.31.19,2.84.38,4.49.57s3.41.23,5.18.32,3.53,0,5.19-.08,3.19-.24,4.51-.36l3.18-.47,1.2-.24-1.22-.12-3.19-.21c-1.31,0-2.85-.12-4.49-.21s-3.39-.08-5.14-.16-3.5,0-5.14-.07-3.18,0-4.5,0l-3.19.07L43.64,72l1.18.29Z"/><path class="cls-4" d="M55.62,45.21c.26-1.1.52-2.4.77-3.8s.33-2.91.43-4.42,0-3-.1-4.45-.31-2.73-.49-3.85-.45-2-.61-2.67-.31-1-.31-1,0,.38-.05,1,0,1.6-.07,2.72,0,2.41-.07,3.8-.06,2.86-.15,4.34-.08,2.95-.17,4.33-.11,2.69-.21,3.8-.09,2.06-.13,2.72,0,1,0,1l.38-1C55,47.21,55.31,46.31,55.62,45.21Z"/><path class="cls-4" d="M51.44,11.73c.05.31.14.57.18.75l.1.29.08-.29a5.12,5.12,0,0,0,.16-.76,9.6,9.6,0,0,0,.13-1.06c0-.39,0-.81,0-1.22l-.07-1.22c0-.39-.12-.75-.16-1.06s-.14-.57-.18-.75l-.1-.29-.08.29a5.24,5.24,0,0,0-.16.75,10.12,10.12,0,0,0-.13,1.07c0,.39,0,.81,0,1.22s0,.83.08,1.22S51.4,11.42,51.44,11.73Z"/></svg>