<svg id="Слой_1" data-name="Слой 1" xmlns="http://www.w3.org/2000/svg" viewBox="0 0 82 82"><defs><style>.cls-1{fill:#fff;}.cls-2{fill:#12100b;}</style></defs><circle class="cls-1" cx="41" cy="41" r="41"/><path class="cls-2" d="M68,14a7.23,7.23,0,0,0-5.29-2.21H19.27a7.55,7.55,0,0,0-7.5,7.5V62.73a7.55,7.55,0,0,0,7.5,7.5H62.73a7.55,7.55,0,0,0,7.5-7.5V19.27A7.23,7.23,0,0,0,68,14ZM32.76,32.84a12,12,0,0,1,16.59,0,11.11,11.11,0,0,1,0,16.09,12,12,0,0,1-16.59,0,11.13,11.13,0,0,1,0-16.09ZM63.6,61.17a2.18,2.18,0,0,1-.68,1.65,2.25,2.25,0,0,1-1.64.67H20.6a2.29,2.29,0,0,1-2.32-2.32V36.51h5.37a16.29,16.29,0,0,0-.76,5A16.71,16.71,0,0,0,28.21,54,17.83,17.83,0,0,0,41,59.11a18.19,18.19,0,0,0,9.13-2.36,17.72,17.72,0,0,0,6.62-6.41,16.8,16.8,0,0,0,2.44-8.85,16.61,16.61,0,0,0-.76-5h5.14V61.17Zm0-34A2.6,2.6,0,0,1,61,29.81H54.36a2.53,2.53,0,0,1-1.87-.76,2.57,2.57,0,0,1-.76-1.86V20.91a2.59,2.59,0,0,1,.76-1.85,2.51,2.51,0,0,1,1.87-.78H61a2.49,2.49,0,0,1,1.86.78,2.55,2.55,0,0,1,.76,1.85Z"/></svg>