<svg id="Слой_1" data-name="Слой 1" xmlns="http://www.w3.org/2000/svg" viewBox="0 0 82 82"><defs><style>.cls-1{fill:#fff;}.cls-2{fill:#12100b;}</style></defs><circle class="cls-1" cx="41" cy="41" r="41"/><path class="cls-2" d="M18.76,12.93c-4.31,0-7.12,2.83-7.12,6.55s2.73,6.54,7,6.54h.09c4.39,0,7.12-2.91,7.12-6.54S23.07,12.93,18.76,12.93Z"/><rect class="cls-2" x="12.38" y="31.19" width="12.59" height="37.87"/><path class="cls-2" d="M55.87,30.3a12.48,12.48,0,0,0-11.34,6.25V31.19H31.94c.16,3.56,0,37.88,0,37.88H44.53V47.92a8.71,8.71,0,0,1,.41-3.08,6.89,6.89,0,0,1,6.46-4.6c4.55,0,6.38,3.47,6.38,8.56V69.07H70.36V47.35C70.36,35.72,64.15,30.3,55.87,30.3Z"/></svg>