<?xml version="1.0" encoding="utf-8"?>
<!-- Generator: Adobe Illustrator 26.0.3, SVG Export Plug-In . SVG Version: 6.00 Build 0)  -->
<svg version="1.1" id="Слой_1" xmlns="http://www.w3.org/2000/svg" xmlns:xlink="http://www.w3.org/1999/xlink" x="0px" y="0px"
	 viewBox="0 0 406 406" style="enable-background:new 0 0 406 406;" xml:space="preserve">
<style type="text/css">
	.st0{fill:#12100B;}
	.st1{fill:#FFFFFF;}
</style>
<path class="st0" d="M170.3,350.8c0.8,1.2,1.9,2.1,3.1,2.9c1.3,0.8,2.7,1.5,4.1,2.1c1.5,0.5,3.1,1,4.6,1.2c1.5,0.3,3,0.5,4.5,0.6
	c1.4,0.1,2.8,0.1,3.9,0.1c2.3,0,3.7-0.2,3.7-0.2c-1-1.2-1.8-2.4-2.6-3.8c-0.2-0.4-0.5-0.9-0.8-1.5c-7.2-0.5-14.4-1.6-21.5-3.1
	C169.7,349.8,170,350.3,170.3,350.8z"/>
<path class="st0" d="M186,362.6c-0.9,0.1-1.9,0.2-2.9,0.3s-2.2,0.1-3.5,0.2c-0.6,0-1.3,0-1.9,0s-1.4-0.1-2.1-0.2
	c-1.6-0.1-3.2,0.2-4.6,0.9c-1.8,0.8-3.6,1.8-5.2,3c-1.8,1.2-3.7,2.7-5.6,4.3s-3.8,3.2-5.6,4.8s-3.6,3.3-5.3,4.8l-4.5,4.1
	c-2.6,2.4-4.2,3.9-4.2,3.9s1.3-0.3,3.5-0.7c1.1-0.2,2.4-0.4,3.9-0.7s3.1-0.6,4.8-0.9s3.5-0.5,5.3-0.9s3.7-0.5,5.5-0.7l2.7-0.2
	c0.9-0.1,1.8-0.1,2.7-0.2c1.7-0.1,3.4,0,5.1,0.2c3.2,0.4,6.1-1,8.5-3.2c2.5-2.4,4.4-5.3,5.8-8.4c1.8-4,3.2-8.2,4.1-12.6
	c-1.3,0.7-2.7,1.2-4.1,1.5C187.6,362.2,186.9,362.4,186,362.6z M181.5,374.8c-0.1,0.2-0.3,0.5-0.5,0.9c-0.7,1.1-1.6,2-2.7,2.7
	c-1.5,1-3.1,1.8-4.9,2.3c-2,0.5-4,0.8-6,0.9c-2,0-4,0-5.8,0.1c-1.7,0-3.3,0.2-4.9,0.5c-1.2,0.2-2.3,0.5-3.4,0.9
	c-0.4,0.2-0.9,0.3-1.3,0.5c0.3-0.3,0.7-0.6,1.1-0.9c1-0.7,2.1-1.3,3.3-1.8c1.7-0.6,3.4-1,5.1-1.2c1.9-0.2,3.9-0.3,5.9-0.5
	c1.9,0,3.8-0.2,5.7-0.5c1.6-0.3,3.2-0.8,4.7-1.4c1.1-0.5,2.1-1.1,3-1.9c0.4-0.3,0.7-0.6,1-1L181.5,374.8z M182.4,369.1
	c-0.5,0.7-1.1,1.3-1.7,1.9c-0.9,0.9-1.8,1.6-2.8,2.3c-1.1,0.8-2.3,1.5-3.5,2.1c-1.3,0.5-2.5,1-3.9,1.4c-1.1,0.3-2.3,0.5-3.5,0.6
	c-0.8,0.1-1.7,0.1-2.5,0.1l-0.9-0.1l0.9-0.4c0.6-0.2,1.4-0.5,2.3-0.9s2-0.9,3.2-1.3c1.2-0.5,2.4-1,3.5-1.6c1.2-0.5,2.3-1.1,3.5-1.7
	c1.1-0.6,2.1-1.1,3-1.6s1.6-0.9,2.1-1.2l0.9-0.5C183,368.3,182.7,368.5,182.4,369.1L182.4,369.1z"/>
<path class="st0" d="M128.4,337.7c0.5,1.3,1.3,2.5,2.2,3.6c1,1.2,2.1,2.3,3.4,3.2c1.3,0.9,2.7,1.8,4.1,2.5c1.3,0.7,2.8,1.4,4.2,1.9
	c1.4,0.5,2.6,0.9,3.7,1.3c0.9,0.3,1.7,0.5,2.6,0.7l1,0.2c-0.7-1.3-1.2-2.7-1.5-4.1c-0.3-1.4-0.6-2.7-0.8-4.1
	c-6.7-2.5-13.2-5.4-19.5-8.8C127.8,335.3,127.9,336.6,128.4,337.7z"/>
<path class="st0" d="M145.5,356.1l0.2,0c7.2,2.1,14.5,3.6,21.9,4.4c3.1,0.4,5.9,0.5,8.2,0.6c1.2,0,2.3,0.1,3.3,0.1l2.8-0.1
	c1.6,0,2.9-0.1,3.8-0.1h1.3l-1.3-0.2c-0.8-0.1-2.1-0.4-3.7-0.7l-2.7-0.5c-1-0.2-2.1-0.4-3.2-0.6c-2.3-0.5-5-0.9-7.9-1.7l-4.7-1.1
	l-5.1-1.4c-0.9-0.3-1.8-0.5-2.7-0.7l-2.8-0.9c-1.9-0.6-3.8-1.2-5.8-1.9c-19.7-6.6-37.9-16.9-53.7-30.4l-3.4-3l-3.4-3.1
	c-2.3-2-4.4-4.4-6.7-6.6c-1.1-1.1-2.1-2.4-3.2-3.5s-2.2-2.4-3.2-3.6c-2-2.5-4.2-5-6.1-7.7c-4-5.4-7.8-11-11.1-16.9
	c-1.6-3-3.4-6-4.8-9.1c-0.8-1.6-1.6-3.1-2.3-4.7s-1.4-3.2-2.1-4.8s-1.3-3.3-1.9-4.9s-1.3-3.3-1.8-5c-1.1-3.4-2.3-6.7-3.1-10.2
	c-1.9-6.9-3.4-13.9-4.4-21c-0.4-3.6-0.9-7.1-1.1-10.7c-0.1-1.8-0.3-3.6-0.3-5.4l-0.1-5.4c0-0.9-0.1-1.8,0-2.6v-2.7
	c0-1.8,0-3.6,0.2-5.4s0.2-3.5,0.3-5.3l0.5-5.3c0.8-7,2-13.9,3.6-20.7c1.6-6.6,3.6-13.2,6-19.6C49.2,121.5,55,110,62,99.3l2.5-3.8
	l2.6-3.6c0.8-1.2,1.8-2.4,2.7-3.5s1.8-2.3,2.7-3.4c1.8-2.2,3.6-4.4,5.5-6.4c0.9-1,1.8-2,2.8-3l2.8-2.9c6.8-6.8,14.2-13,22-18.5
	c6-4.3,12.3-8.2,18.8-11.8c5.4-2.9,9.8-5,12.8-6.4c1.5-0.7,2.7-1.2,3.4-1.5l1.2-0.5l-1.2,0.4c-0.8,0.2-2,0.6-3.6,1.1
	c-4.5,1.5-9,3.3-13.3,5.2c-2.4,1.1-5,2.4-7.8,3.9l0.1-0.1c2-1.4,4.2-2.7,6.4-3.9c1.3-0.8,2.6-1.7,3.6-2.8c1.2-1.2,2.3-2.6,3.4-3.9
	c1.1-1.4,2.1-3,3.2-4.6s2-3.2,2.9-4.8L138,20l2.1-3.8c1.2-2.2,1.9-3.6,1.9-3.6l-2.6,1.8l-2.9,2c-1.1,0.7-2.3,1.6-3.6,2.5
	s-2.7,1.8-4,2.7s-2.8,1.9-4.3,2.9s-2.9,1.9-4.3,2.8c-0.7,0.4-1.4,0.8-2.2,1.2s-1.4,0.8-2.1,1.1c-1.3,0.7-2.5,1.5-3.5,2.5
	c-0.9,1-1.7,2.1-2.4,3.2c-1.2,2.2-1.9,4.6-2.1,7.1c-0.2,2.2-0.1,4.3,0.2,6.5c-1.4,0.9-2.8,1.8-4.2,2.7c-7.9,5.3-15.2,11.3-22,18
	c0.6-0.6,1.1-1.2,1.8-1.8c1.1-1.1,2-2.4,2.7-3.8c0.8-1.6,1.5-3.2,2.1-4.9c0.6-1.8,1.2-3.7,1.7-5.5s0.9-3.9,1.3-5.7
	c0.9-3.7,1.5-7.3,2-9.8s0.8-4.2,0.8-4.2l-2,2.5c-1.4,1.5-3.1,3.8-5.1,6.2l-3.1,3.9l-1.6,2L81,50.8c-1.1,1.4-2.3,2.7-3.4,4
	c-1.1,1.2-2.2,2.4-3.4,3.5c-2.1,2-3.5,4.6-4,7.4c-0.4,2.6-0.4,5.2,0.2,7.7c0.4,2.1,1.1,4.1,2,6l0.1,0.3c-0.8,1-1.7,2-2.6,3
	c-3.9,4.6-7.5,9.5-10.8,14.5c-2.2,3.2-4.2,6.7-6.2,10.2c0.4-0.7,0.8-1.4,1.2-2.2c0.7-1.4,1.2-2.9,1.5-4.4c0.3-1.8,0.5-3.6,0.5-5.4
	c0.1-1.9,0-3.9-0.1-6s-0.2-4.1-0.4-6s-0.4-3.9-0.6-5.7s-0.4-3.3-0.5-4.7c-0.3-2.7-0.6-4.4-0.6-4.4s-0.1,0.3-0.3,0.8l-0.8,2.3
	c-0.4,1-0.8,2.1-1.3,3.4s-1,2.7-1.6,4.2s-1.2,3.1-1.9,4.7s-1.3,3.3-2,5s-1.4,3.3-2.1,4.9s-1.5,3.1-2.3,4.4c-0.8,1.3-1.3,2.7-1.6,4.2
	c-0.2,1.4-0.3,2.8-0.1,4.2c0.3,2.7,1.2,5.2,2.6,7.6c1.2,2,2.6,3.9,4.1,5.6c-1.8,4-3.6,8.2-5.1,12.4c-2.4,6.5-4.4,13.2-6,20
	c-0.2,0.9-0.4,1.8-0.6,2.7c0.2-1.8,0.6-3.5,1-5.3c0.3-1.6,0.4-3.2,0.2-4.7c-0.2-1.8-0.6-3.6-1.1-5.4c-0.6-1.9-1.2-3.8-1.9-5.8
	s-1.6-3.9-2.3-5.8s-1.6-3.7-2.3-5.4s-1.4-3.2-2-4.5c-1.1-2.6-1.9-4.2-1.9-4.2s-0.1,1.3-0.2,3.4s-0.3,5-0.6,8.3
	c-0.1,1.7-0.3,3.4-0.4,5.2s-0.4,3.6-0.5,5.4s-0.4,3.6-0.7,5.3c-0.2,1.7-0.6,3.4-1,5c-0.4,1.5-0.5,3-0.3,4.6c0.2,1.4,0.6,2.8,1.1,4.1
	c1.2,2.5,2.9,4.7,4.9,6.6c1.7,1.5,3.5,2.9,5.5,4l0.6,0.3c-0.4,2.4-0.7,4.8-1,7.3c-0.2,1.8-0.4,3.6-0.5,5.4s-0.2,3.6-0.3,5.5
	s-0.1,3.6-0.2,5.4l-0.1,2.7c0,1,0,1.8,0,2.8l0.1,5.5c0,1.2,0.1,2.3,0.2,3.5c-0.1-0.7-0.2-1.4-0.4-2.2c-0.1-1.3-0.2-2.7-0.3-4.1
	c-0.1-1.6-0.5-3.2-1.2-4.6c-0.7-1.7-1.6-3.3-2.7-4.9c-0.6-0.8-1.2-1.7-1.8-2.5s-1.2-1.7-1.9-2.5c-1.3-1.7-2.7-3.3-4.1-4.9
	c-2.7-3.2-5.3-6.1-7.3-8.3s-3.2-3.5-3.2-3.5l0.8,3.4c0.2,1,0.5,2.3,0.9,3.7s0.6,2.9,1,4.6s0.8,3.4,1.1,5.1s0.7,3.6,1.1,5.4
	s0.6,3.6,0.8,5.4c0.3,1.7,0.4,3.4,0.4,5.1c0.1,3,1.3,5.9,3.3,8.1c1.9,2.1,4.3,3.7,6.9,4.9c2.4,1.1,4.9,1.9,7.5,2.4
	c0.1,0.9,0.2,1.8,0.3,2.6c1,7.3,2.4,14.5,4.2,21.6c0.8,3.6,2,7,3.1,10.5c0.1,0.4,0.3,0.7,0.4,1.1c-0.6-1.4-1.2-2.9-1.8-4.6
	c-0.3-0.7-0.6-1.4-1-2c-0.4-0.7-0.9-1.4-1.4-2c-1.2-1.4-2.6-2.7-4.1-3.8c-1.6-1.2-3.3-2.5-5.1-3.7s-3.7-2.4-5.5-3.5l-5.2-3.2
	l-4.5-2.6L7,222.5c0,0,0.2,0.3,0.5,0.8s0.8,1.3,1.3,2.2s1.2,2.1,1.9,3.3s1.4,2.6,2.3,4.1s1.7,3,2.6,4.6c0.9,1.6,1.7,3.3,2.5,4.9
	s1.6,3.3,2.3,4.9s1.3,3.2,1.8,4.8c0.9,2.9,2.9,5.3,5.6,6.8c2.6,1.4,5.4,2.2,8.3,2.5c2.5,0.3,5,0.3,7.5,0l0.6-0.1l1.3,3.1
	c0.7,1.6,1.5,3.2,2.2,4.9c1.4,3.3,3.2,6.4,4.8,9.5c2,3.6,4.1,7.1,6.3,10.6l0,0c-0.9-1.3-2.1-2.3-3.5-3.1c-1.6-1-3.4-1.8-5.2-2.4
	c-1.9-0.7-4-1.4-6.1-1.9s-4.4-1.1-6.5-1.6c-4.2-1-8.4-1.9-11.4-2.5l-4.9-1l0.7,0.6c0.4,0.4,1,1,1.9,1.7c1.6,1.5,3.8,3.5,6.2,5.8
	c1.2,1.2,2.5,2.4,3.8,3.6s2.6,2.6,3.8,3.9s2.5,2.6,3.7,4s2.2,2.7,3.1,4.1c1.7,2.5,4.4,4.3,7.4,4.8c3,0.5,6,0.4,9-0.3
	c2.6-0.6,5-1.4,7.4-2.4l0.2-0.1c6.2,7.8,13.1,15,20.6,21.6c-0.9-0.5-1.9-0.9-2.9-1.1c-1.9-0.4-3.8-0.6-5.7-0.6
	c-2.1-0.1-4.3,0-6.6,0.1s-4.6,0.4-6.9,0.5c-4.5,0.4-8.8,0.9-12,1.3s-5.2,0.6-5.2,0.6l3.2,1.5c2,0.9,4.7,2.2,7.7,3.7
	c1.5,0.8,3.1,1.5,4.7,2.3s3.2,1.7,4.8,2.6s3.2,1.8,4.7,2.7s2.8,2,4.1,3c2.4,1.9,5.5,2.8,8.5,2.4c3.1-0.5,6.1-1.6,8.8-3.2
	c2.4-1.4,4.6-3,6.7-4.8l0.1-0.1l1.3,0.9c2.4,1.6,4.8,3.1,7.2,4.6l7.2,4.1c2.4,1.2,4.8,2.4,7,3.5l4,1.8c-1.3-0.4-2.7-0.5-4-0.4
	c-1.9,0.2-3.9,0.6-5.7,1.2c-2,0.6-4.2,1.4-6.4,2.2c-1.1,0.4-2.2,0.9-3.3,1.4l-3.3,1.4c-2.2,0.9-4.3,1.9-6.2,2.8l-5.3,2.4
	c-3,1.4-5,2.3-5,2.3s1.3,0.1,3.5,0.5l3.8,0.5c1.4,0.2,3,0.4,4.7,0.7s3.4,0.5,5.2,0.8s3.6,0.6,5.4,1s3.6,0.7,5.3,1.2
	c1.6,0.5,3.2,1,4.8,1.7c2.9,1.1,6.1,1,8.9-0.4c2.9-1.5,5.6-3.5,7.7-6c1.9-2.2,3.7-4.5,5.2-7L145.5,356.1z M111.1,41.4
	c0.1-0.2,0.1-0.5,0.2-1c0.4-1.1,0.9-2.2,1.5-3.2c0.9-1.4,2-2.7,3.2-3.8c1.4-1.2,2.9-2.4,4.4-3.4l4.7-2.8c1.5-0.9,2.9-1.6,4.1-2.3
	s2.1-1.3,2.8-1.8s1.1-0.7,1.1-0.7s-0.3,0.4-0.8,1.1c-0.7,0.9-1.5,1.8-2.3,2.6c-1.2,1.1-2.5,2.1-3.8,3l-4.5,3c-1.5,0.9-3,1.9-4.4,3
	c-1.2,0.9-2.4,1.9-3.5,3c-0.8,0.8-1.5,1.7-2.1,2.6c-0.5,0.7-0.7,1.1-0.7,1.1L111.1,41.4z M74.3,66.3c0.2-1.6,0.7-3.2,1.4-4.6
	c0.9-1.6,1.9-3,3.1-4.4l3.6-3.7c1-1,2-2.1,2.9-3.3c0.6-0.8,1.2-1.7,1.7-2.6c0.2-0.4,0.4-0.7,0.6-1.1c0,0,0,0.5-0.2,1.2
	c-0.2,1.1-0.6,2.2-1.1,3.2c-0.7,1.4-1.5,2.7-2.5,3.9c-1.1,1.2-2.2,2.6-3.3,3.9c-1.1,1.2-2.2,2.5-3.1,3.9c-0.8,1.2-1.4,2.5-1.9,3.8
	c-0.3,1-0.5,2-0.6,3c0,0.4,0,0.8,0,1.2c-0.2-0.4-0.3-0.8-0.4-1.2C74.3,68.6,74.2,67.4,74.3,66.3z M51.8,95.2c0-1,0.1-2.2,0-3.3
	s0.1-2.2,0.1-3.3s0.2-2.1,0.2-2.9s0.2-1.6,0.2-2.1s0.1-0.8,0.1-0.8s0.1,0.3,0.3,0.8c0.2,0.7,0.5,1.3,0.6,2c0.2,1,0.4,2,0.5,3
	C54,89.6,54,90.8,54,92s-0.2,2.3-0.3,3.4c-0.2,1-0.4,2-0.7,2.9c-0.2,0.7-0.5,1.3-0.7,2l-0.4,0.7l-0.1-0.8c0-0.5-0.1-1.2-0.1-2.1
	S51.7,96.3,51.8,95.2z M45.7,110.5c-0.3,0.4-0.5,0.7-0.5,0.7s0-0.3,0.1-0.8s0.1-1.3,0.3-2.1s0.2-1.9,0.4-2.9s0.3-2.2,0.4-3.3
	s0.3-2.2,0.4-3.3s0.3-2.1,0.4-2.9s0.2-1.6,0.3-2.1l0.1-0.8l0.3,0.8c0.2,0.7,0.4,1.4,0.5,2.1c0.2,1,0.3,2,0.3,3.1
	c0,1.1-0.1,2.3-0.2,3.5s-0.5,2.4-0.8,3.4c-0.3,1-0.7,1.9-1.1,2.9C46.4,109.2,46.1,109.9,45.7,110.5z M29.9,151.1
	c-0.1,0.7-0.2,1.4-0.3,2.1c-0.1,0.5-0.2,0.8-0.2,0.8s-0.1-0.3-0.2-0.8s-0.4-1.2-0.5-2s-0.5-1.7-0.6-2.7s-0.4-2.1-0.7-3.1
	s-0.4-2.1-0.6-3.1s-0.3-2-0.5-2.8s-0.2-1.5-0.3-2s-0.1-0.8-0.1-0.8l0.5,0.6c0.4,0.5,0.8,1.1,1.1,1.7c0.5,0.9,0.9,1.7,1.2,2.6
	c0.3,1,0.6,2.1,0.9,3.2s0.3,2.3,0.4,3.3C30,149.2,30,150.1,29.9,151.1z M31.1,142.8l-0.4-0.8c-0.2-0.5-0.6-1.2-0.9-2.1
	s-0.8-1.9-1.1-3s-0.6-2.3-1-3.5s-0.5-2.4-0.7-3.6s-0.3-2.2-0.4-3.2s-0.1-1.7-0.1-2.3s0-0.9,0-0.9l0.4,0.8c0.2,0.5,0.6,1.2,0.9,2.1
	s0.8,1.9,1.1,3s0.6,2.3,1,3.5s0.5,2.4,0.7,3.6s0.3,2.2,0.4,3.1s0.1,1.7,0.1,2.3S31.1,142.8,31.1,142.8z M23,203.4
	c-0.1,0.5-0.1,0.8-0.1,0.8l-0.3-0.7c-0.1-0.4-0.5-1.1-0.7-1.8s-0.6-1.6-0.9-2.5s-0.7-1.9-1.1-2.8s-0.7-1.9-1-2.8s-0.6-1.8-0.9-2.5
	s-0.5-1.4-0.6-1.8l-0.2-0.7l0.6,0.5c0.5,0.4,1,0.9,1.4,1.4c0.6,0.7,1.1,1.5,1.6,2.3c0.5,0.9,1,1.9,1.4,2.9s0.6,2.1,0.8,3.1
	c0.2,0.9,0.3,1.9,0.3,2.8C23.1,202.1,23.1,202.8,23,203.4z M25.5,194.4c-0.3-0.4-0.8-1-1.3-1.7s-1.2-1.5-1.8-2.4s-1.3-1.8-2-2.7
	s-1.3-1.9-1.9-2.8s-1.1-1.8-1.6-2.4s-0.9-1.4-1.1-1.8l-0.4-0.7l0.7,0.4c0.6,0.4,1.2,0.8,1.8,1.2c0.8,0.6,1.5,1.3,2.2,2
	c0.7,0.8,1.5,1.7,2.2,2.7s1.3,2,1.8,3c0.5,0.9,0.9,1.9,1.2,2.8c0.2,0.7,0.4,1.4,0.6,2.1c0.1,0.5,0.1,0.8,0.1,0.8L25.5,194.4z
	 M18.9,234c-0.8-0.5-1.5-1.1-2-1.4l-0.8-0.5l0.9,0.1c0.8,0.1,1.6,0.3,2.3,0.6c1.1,0.4,2.1,0.8,3.1,1.4c1.1,0.6,2.2,1.4,3.3,2.1
	s2,1.8,2.9,2.7c0.8,0.9,1.5,1.8,2.1,2.8c0.5,0.7,0.8,1.4,1.2,2.2l0.3,0.9l-0.7-0.6c-0.4-0.4-1.1-0.9-1.8-1.6s-1.6-1.4-2.5-2.2
	c-0.9-0.8-1.9-1.6-2.9-2.4c-1-0.8-2-1.6-3-2.3S19.8,234.6,18.9,234L18.9,234z M32.1,254.3c-0.3-0.4-0.8-0.9-1.3-1.6
	s-1.2-1.4-1.7-2.2s-1.3-1.7-2-2.5s-1.3-1.7-2-2.5s-1.2-1.6-1.8-2.2s-0.9-1.2-1.3-1.6l-0.5-0.7l0.7,0.3c0.6,0.3,1.2,0.6,1.8,1
	c0.8,0.5,1.6,1.1,2.3,1.8c0.8,0.8,1.6,1.6,2.3,2.5s1.3,1.9,1.9,2.9c0.5,0.9,0.9,1.8,1.2,2.7c0.2,0.7,0.4,1.4,0.6,2.1
	c0.1,0.5,0.1,0.8,0.1,0.8L32.1,254.3z M33.1,282.2H34c0.8,0,1.6,0.1,2.4,0.3c1.1,0.2,2.3,0.4,3.4,0.8c1.2,0.4,2.5,0.9,3.7,1.4
	s2.4,1.2,3.5,1.9c1,0.6,1.9,1.3,2.9,2c0.7,0.5,1.3,1.1,1.9,1.6l0.7,0.7l-0.9-0.3c-0.5-0.2-1.3-0.5-2.2-0.9s-2-0.8-3.1-1.3
	s-2.3-1-3.5-1.5s-2.4-1.1-3.5-1.6s-2.2-1-3.1-1.4s-1.6-0.8-2.2-1.1L33.1,282.2z M56.5,301.8c-1,0.3-2.1,0.3-3.2,0.1
	c-1.5-0.3-3-0.8-4.3-1.6c-1.4-1-2.8-2.1-4-3.4c-1.2-1.3-2.2-2.7-3.3-3.9s-1.9-2.4-2.8-3.2c-0.7-0.7-1.5-1.4-2.3-2
	c-0.3-0.3-0.7-0.5-1-0.7c0.4,0.1,0.8,0.2,1.2,0.3c1,0.3,2,0.8,2.9,1.4c1.2,0.8,2.4,1.8,3.4,2.9c1.2,1.2,2.3,2.5,3.5,3.7
	c1.1,1.2,2.2,2.3,3.5,3.3c1.1,0.8,2.3,1.5,3.5,2c0.9,0.4,1.9,0.6,2.9,0.7c0.4,0,0.8,0,1.2,0C57.2,301.6,56.8,301.7,56.5,301.8
	L56.5,301.8z M91,335.8c-0.3,0.2-0.5,0.5-0.8,0.7c-1,0.7-2.2,1.2-3.5,1.4c-1.8,0.3-3.6,0.2-5.4-0.3c-1.9-0.6-3.8-1.5-5.6-2.6
	c-1.7-1.1-3.3-2.3-4.9-3.3c-1.4-0.9-2.8-1.7-4.3-2.4c-1.1-0.5-2.2-0.8-3.4-1c-0.4-0.1-0.9-0.2-1.4-0.2c0.5-0.1,0.9-0.2,1.4-0.3
	c1.2-0.1,2.5,0,3.7,0.2c1.7,0.4,3.4,1.1,4.9,1.9c1.7,0.9,3.4,2,5.1,3c1.6,1.1,3.2,2,5,2.6c1.5,0.6,3.1,0.9,4.7,1
	c1.2,0,2.3-0.2,3.4-0.5c0.3-0.1,0.6-0.2,0.9-0.4l0.3-0.2L91,335.8z M93.1,331.5c-0.5,0.4-0.9,0.7-1.5,1c-0.7,0.4-1.5,0.7-2.3,0.8
	c-0.9,0.1-1.9,0.2-2.8,0.2c-0.9-0.1-1.9-0.3-2.8-0.6c-0.8-0.3-1.5-0.7-2.2-1.1c-0.5-0.3-0.9-0.7-1.3-1.2l-0.4-0.5l0.6,0.1
	c0.4,0.1,1,0.2,1.6,0.4s1.4,0.2,2.2,0.4c0.8,0.2,1.6,0.2,2.5,0.2c0.8,0.1,1.7,0.1,2.5,0.1c0.8-0.1,1.6,0,2.2-0.1s1.2,0,1.7-0.1h0.7
	L93.1,331.5z M120.3,360.7c0.5-0.1,0.9-0.2,1.4-0.2c0.7,0,1.3,0,2,0l2.2,0.2l2.2,0.5c0.6,0.2,1.3,0.4,1.9,0.7
	c0.4,0.2,0.9,0.4,1.3,0.7l0.5,0.3l-0.6,0.1c-0.5,0.1-1,0.1-1.4,0.2c-0.7,0-1.3,0-2,0l-2.2-0.2l-2.2-0.5c-0.6-0.2-1.3-0.4-1.9-0.7
	c-0.4-0.2-0.9-0.4-1.3-0.7l-0.5-0.3L120.3,360.7z M136,364.5c-0.3,0.3-0.5,0.5-0.8,0.7c-1.1,0.8-2.3,1.4-3.5,1.7
	c-1.8,0.5-3.7,0.7-5.6,0.5c-2.1-0.3-4.1-0.8-6.1-1.4c-2-0.7-3.9-1.5-5.7-2.1c-1.6-0.6-3.3-1.1-5-1.4c-1.2-0.3-2.4-0.4-3.7-0.4
	c-0.5,0-1,0-1.4,0c0.5-0.2,0.9-0.3,1.4-0.5c1.3-0.3,2.6-0.5,3.8-0.4c1.8,0.1,3.7,0.3,5.4,0.8c1.9,0.5,3.9,1.2,5.9,1.8
	c1.9,0.7,3.8,1.2,5.7,1.6c1.7,0.3,3.4,0.4,5.1,0.2c1.2-0.1,2.4-0.4,3.6-0.8c0.3-0.1,0.7-0.3,1-0.4l0.3-0.2L136,364.5z"/>
<path class="st0" d="M96.1,312.7c0,0,0-0.3,0-0.9c-1.3-1.1-2.5-2.3-3.8-3.5c-0.1,0.2-0.2,0.4-0.2,0.6c-1,2.5-0.6,5.1,0.7,7.9
	c0.7,1.4,1.5,2.8,2.5,4c1,1.3,2.1,2.5,3.3,3.6c1.1,1.1,2.3,2.1,3.6,3c1.2,0.9,2.2,1.7,3.2,2.3c1.9,1.2,3.3,1.9,3.3,1.9
	c-0.3-1.4-0.4-2.8-0.4-4.2c0-1.8,0.2-3.7,0.4-5.5c-4.2-3.1-8.3-6.4-12.2-9.9C96.2,312.5,96.1,312.7,96.1,312.7z"/>
<path class="st0" d="M68.3,281c0,0.3,0,0.7,0,1c-0.2-0.3-0.3-0.6-0.4-0.9c-0.3-0.9-0.4-1.8-0.2-2.7c0,0,0,0,0-0.1
	c-0.9-1.5-1.9-3-2.8-4.5c-0.2,0.3-0.4,0.6-0.6,0.9c-1.5,2-1.7,4.6-1.2,7.6c0.1,0.7,0.3,1.5,0.5,2.2c0.2,0.8,0.5,1.5,0.9,2.2
	c0.6,1.5,1.4,3,2.2,4.4c0.8,1.4,1.7,2.7,2.6,3.9c0.9,1.2,1.7,2.3,2.4,3.2c1.5,1.7,2.6,2.8,2.6,2.8c0.1-1.4,0.3-2.7,0.7-4.1
	c0.5-1.9,1.2-3.8,2-5.6c-3-3.8-5.7-7.7-8.4-11.7C68.5,280.1,68.4,280.6,68.3,281z"/>
<path class="st0" d="M51,243.9l0.2-0.2c-0.5-1.5-1-3.1-1.5-4.6c-0.3,0.3-0.6,0.6-0.8,0.9c-0.2,0.2-0.3,0.4-0.4,0.7
	c0-0.3,0-0.6,0-0.8c0.1-0.8,0.4-1.5,0.8-2.1v-0.1c-0.5-1.7-1-3.4-1.4-5.1c-0.3,0.3-0.7,0.6-1,0.9c-1.9,1.4-2.7,3.9-3,6.9
	c-0.1,1.6,0,3.1,0.2,4.7c0.2,1.6,0.5,3.3,0.9,4.9c0.5,1.6,1,3.1,1.5,4.5s1,2.7,1.5,3.8c1,2.1,1.7,3.5,1.7,3.5
	c0.4-1.3,0.9-2.5,1.6-3.7c0.9-1.8,2.1-3.5,3.4-5c-1.2-3-2.4-6-3.4-9.1L51,243.9z"/>
<path class="st0" d="M41.7,195.9c-0.6,0.5-1.2,1-1.7,1.7c-0.2,0.2-0.4,0.5-0.6,0.7c0,0,0-0.3,0.2-0.9c0.2-0.8,0.6-1.6,1.1-2.3
	c0.6-0.9,1.4-1.7,2.2-2.4c0-1.6,0-3.2,0.1-4.8c-0.5,0.3-1,0.5-1.5,0.7c-1.1,0.5-2,1.2-2.7,2.1c-0.8,1.1-1.4,2.3-1.8,3.6
	c-0.5,1.5-0.8,3-1,4.6c-0.1,0.8-0.2,1.6-0.3,2.5c0,0.8-0.1,1.7-0.1,2.5c0,1.7,0,3.3,0.1,4.8c0.1,1.3,0.2,2.7,0.5,4
	c0.3,2.3,0.7,3.8,0.7,3.8c0.7-1.1,1.5-2.1,2.4-3.1c1.4-1.5,2.9-2.8,4.6-3.9c-0.5-4.8-0.8-9.7-0.9-14.6
	C42.5,195.2,42.1,195.5,41.7,195.9z"/>
<path class="st0" d="M47.5,150.2c-0.6,0.3-1.2,0.6-1.8,1c-0.2,0.1-0.5,0.3-0.7,0.5c0.1-0.3,0.2-0.5,0.3-0.8c0.4-0.7,0.9-1.3,1.5-1.8
	c0.8-0.7,1.7-1.3,2.6-1.8c0.4-1.3,0.8-2.7,1.2-4c-0.8,0.2-1.6,0.4-2.4,0.5c-1.1,0.2-2.1,0.6-3,1.4c-1,0.9-1.9,1.9-2.6,3
	c-0.8,1.3-1.5,2.7-2.2,4.1c-0.7,1.5-1.2,3.1-1.7,4.7c-0.5,1.5-0.8,3.1-1.1,4.6c-0.3,1.5-0.5,2.8-0.7,4s-0.2,2.1-0.3,2.8
	s-0.1,1.1-0.1,1.1c0.9-0.9,1.9-1.6,2.9-2.3c1.8-1.1,3.8-2,5.8-2.7c0.9-5,2-10,3.4-14.8C48.3,149.8,47.9,150,47.5,150.2z"/>
<path class="st0" d="M65.4,110.4c-0.9,0.3-1.8,0.6-2.7,1c-0.6,0.3-1.2,0.7-1.8,1.1c-0.2,0.2-0.5,0.3-0.7,0.5
	c0.1-0.3,0.2-0.5,0.3-0.8c0.4-0.7,0.8-1.3,1.4-1.9c0.8-0.7,1.7-1.4,2.8-1.8c0.8-0.3,1.7-0.6,2.5-0.8c1-1.6,2-3.2,3.1-4.8
	c-1.1,0.1-2.2,0.1-3.3-0.1c-1.1-0.1-2.1,0-3.1,0.5c-1.2,0.6-2.3,1.3-3.2,2.2c-0.5,0.5-1.1,1-1.6,1.5s-1,1.2-1.5,1.8
	c-1,1.3-2,2.6-2.8,4c-0.9,1.4-1.7,2.8-2.3,4.1s-1.2,2.6-1.7,3.7s-0.8,2-1.1,2.6l-0.4,1c1-0.6,2.1-1.1,3.3-1.4c2.2-0.7,4.6-1,6.9-1.1
	c1.9-3.9,4-7.7,6.2-11.3L65.4,110.4z"/>
<path class="st0" d="M96,73.6c-0.3-0.1-0.6-0.1-0.8-0.2c-0.9-0.2-1.9-0.3-2.9-0.3c-0.7,0-1.4,0-2.1,0.1c-0.3,0-0.6,0.1-0.8,0.1
	c0.2-0.2,0.4-0.4,0.7-0.5c0.6-0.4,1.3-0.8,2.1-1c1-0.3,2.1-0.4,3.2-0.4c0.9,0.1,1.8,0.2,2.7,0.4c0.8-0.7,1.5-1.3,2.3-1.9
	c-0.3-0.1-0.7-0.1-1-0.2c-1-0.2-2-0.5-2.9-0.9c-1-0.4-2-0.5-3-0.3c-1.3,0.2-2.5,0.6-3.6,1.2c-1.3,0.7-2.6,1.5-3.9,2.3
	c-1.3,0.9-2.5,2-3.8,3.1c-1.2,1-2.3,2.1-3.3,3.3c-1,1.1-1.9,2.1-2.7,3c-1.5,1.8-2.3,3-2.3,3c1.1-0.3,2.3-0.4,3.4-0.4
	c2.5-0.1,5.1,0.2,7.5,0.9C88.2,80.9,92,77.2,96,73.6z"/>
<path class="st0" d="M128.9,50.5c-1-0.3-2.1-0.4-3.2-0.5c-0.8-0.1-1.5-0.1-2.3,0c-0.6,0-0.9,0.1-0.9,0.1c0.2-0.2,0.5-0.4,0.8-0.5
	c0.7-0.4,1.5-0.7,2.4-0.9c1.2-0.2,2.4-0.3,3.5-0.2c1,0.1,2,0.3,3,0.6c1.7-0.9,3.5-1.7,5.2-2.5c-1.3-0.5-2.5-1.2-3.6-2
	c-0.8-0.6-1.8-0.9-2.8-1c-1.3-0.1-2.5,0-3.8,0.2c-1.5,0.2-2.9,0.6-4.3,1.1c-1.5,0.5-3,1.1-4.4,1.8c-1.4,0.7-2.8,1.5-4.1,2.2
	s-2.4,1.5-3.4,2.1s-1.8,1.2-2.3,1.6l-0.8,0.6c1.1,0,2.2,0.1,3.3,0.4c2.5,0.6,5,1.6,7.2,2.9c3.5-2.2,7-4.2,10.7-6.1L128.9,50.5z"/>
<path class="st0" d="M211.7,357.5c0,0,1.5,0.1,3.7,0.2c1.1,0,2.5,0,3.9-0.1c1.5-0.1,3-0.3,4.5-0.6c1.6-0.3,3.1-0.7,4.6-1.2
	c1.4-0.6,2.8-1.3,4.1-2.1c1.2-0.8,2.3-1.7,3.1-2.9c0.3-0.5,0.6-1,0.8-1.5c-7.1,1.5-14.3,2.5-21.5,3.1c-0.3,0.5-0.5,1-0.8,1.5
	C213.5,355.1,212.7,356.4,211.7,357.5z"/>
<path class="st0" d="M256.8,380.7c-1.7-1.5-3.5-3.2-5.3-4.8s-3.7-3.2-5.6-4.8s-3.8-3.1-5.6-4.3c-1.6-1.1-3.4-2.2-5.2-3
	c-1.4-0.7-3-1-4.6-0.9c-0.7,0.1-1.4,0.1-2.1,0.2s-1.3,0-1.9,0c-1.2,0-2.4-0.1-3.5-0.2s-2-0.2-2.9-0.3s-1.7-0.4-2.4-0.6
	c-1.4-0.4-2.8-0.9-4.1-1.5c0.9,4.3,2.3,8.6,4.1,12.6c1.4,3.2,3.3,6,5.8,8.4c2.4,2.2,5.3,3.6,8.5,3.2c1.7-0.2,3.4-0.3,5.1-0.2
	c0.9,0,1.8,0.1,2.7,0.2l2.7,0.2c1.8,0.2,3.7,0.4,5.5,0.7s3.6,0.6,5.3,0.9s3.3,0.6,4.8,0.9s2.8,0.5,3.9,0.7c2.2,0.4,3.5,0.7,3.5,0.7
	s-1.6-1.6-4.2-3.9L256.8,380.7z M223.1,368.3l0.8,0.5c0.5,0.3,1.3,0.7,2.1,1.2s1.9,1,3,1.6c1.1,0.6,2.3,1.2,3.5,1.7
	c1.1,0.6,2.3,1.2,3.5,1.7c1.1,0.4,2.2,1,3.2,1.3s1.7,0.7,2.3,0.9l0.9,0.4l-0.9,0.1c-0.8,0-1.7,0-2.5-0.1c-1.2-0.1-2.4-0.3-3.5-0.6
	c-1.3-0.4-2.6-0.9-3.9-1.4c-1.2-0.6-2.4-1.4-3.5-2.1c-1-0.7-1.9-1.5-2.7-2.3c-0.6-0.6-1.2-1.2-1.7-1.9L223.1,368.3z M252.9,383.1
	c-1.1-0.4-2.3-0.7-3.4-0.9c-1.6-0.3-3.3-0.4-4.9-0.5c-1.8-0.1-3.8-0.1-5.8-0.1c-2-0.1-4-0.4-6-0.9c-1.7-0.5-3.4-1.2-4.9-2.3
	c-1.1-0.7-2-1.7-2.7-2.7c-0.2-0.3-0.4-0.6-0.5-0.9l-0.2-0.3c0.3,0.3,0.6,0.7,1,1c0.9,0.7,1.9,1.4,3,1.9c1.5,0.7,3.1,1.2,4.7,1.4
	c1.9,0.3,3.8,0.5,5.7,0.5c2,0.2,4,0.2,5.9,0.5c1.7,0.2,3.5,0.6,5.1,1.2c1.2,0.4,2.3,1,3.3,1.8c0.7,0.6,1.1,0.9,1.1,0.9
	C253.7,383.4,253.3,383.2,252.9,383.1L252.9,383.1z"/>
<path class="st0" d="M257.8,346.9c-0.3,1.4-0.8,2.8-1.5,4.1l1-0.2c0.9-0.2,1.8-0.4,2.6-0.7c1.1-0.3,2.4-0.8,3.7-1.3
	c1.4-0.5,2.9-1.2,4.2-1.9c1.4-0.8,2.8-1.6,4.1-2.5c1.3-0.9,2.4-2,3.4-3.2c0.9-1.1,1.7-2.3,2.2-3.6c0.4-1.2,0.6-2.4,0.5-3.6
	c-6.3,3.4-12.8,6.3-19.5,8.8C258.4,344.2,258.2,345.6,257.8,346.9z"/>
<path class="st0" d="M309.9,312.7l-0.3-0.6c-3.9,3.5-8,6.8-12.2,9.9c0.3,1.8,0.4,3.6,0.4,5.5c0,1.4-0.1,2.9-0.4,4.2
	c0,0,1.3-0.7,3.3-1.9c0.9-0.6,2-1.4,3.2-2.3c1.2-0.9,2.4-1.9,3.5-3c1.2-1.1,2.3-2.4,3.3-3.6c1-1.2,1.8-2.6,2.5-4
	c1.3-2.7,1.8-5.4,0.7-7.9c-0.1-0.2-0.1-0.4-0.2-0.6c-1.2,1.2-2.5,2.3-3.7,3.5C309.9,312.4,309.9,312.7,309.9,312.7z"/>
<path class="st0" d="M338.3,278.3c0.1,0.9,0,1.9-0.2,2.7c-0.1,0.3-0.3,0.6-0.4,0.9c0-0.3,0-0.7,0-1c0-0.5-0.1-0.9-0.2-1.4
	c-2.6,4-5.4,7.9-8.4,11.7c0.8,1.8,1.5,3.7,2,5.6c0.4,1.3,0.6,2.7,0.6,4.1c0,0,1.1-1,2.6-2.8c0.7-0.9,1.6-2,2.4-3.2
	c0.9-1.3,1.8-2.6,2.6-3.9c0.8-1.4,1.5-2.9,2.2-4.4c0.3-0.8,0.6-1.5,0.9-2.2c0.2-0.7,0.4-1.5,0.5-2.2c0.5-3,0.3-5.6-1.2-7.6
	c-0.2-0.3-0.4-0.6-0.6-0.9c-0.9,1.5-1.8,3-2.8,4.5C338.3,278.3,338.3,278.3,338.3,278.3z"/>
<path class="st0" d="M356.7,237.8c0.4,0.6,0.7,1.3,0.8,2.1c0,0.3,0,0.6,0,0.8c-0.1-0.2-0.2-0.5-0.4-0.7c-0.2-0.4-0.5-0.7-0.9-0.9
	c-0.5,1.6-0.9,3.1-1.5,4.6l0.2,0.2h-0.3c-1,3.1-2.2,6.1-3.4,9.1c1.3,1.5,2.4,3.2,3.4,4.9c0.7,1.2,1.2,2.4,1.6,3.7
	c0,0,0.7-1.3,1.7-3.5c0.6-1.2,1.1-2.5,1.5-3.8c0.5-1.4,1-2.9,1.5-4.5c0.4-1.6,0.7-3.2,0.9-4.9c0.2-1.6,0.3-3.1,0.2-4.7
	c-0.2-3-1.1-5.5-3-6.9c-0.3-0.3-0.7-0.6-1-0.9C357.7,234.3,357.2,236,356.7,237.8L356.7,237.8z"/>
<path class="st0" d="M390.2,227.5l-5.2,3.2c-1.9,1.1-3.7,2.3-5.5,3.5s-3.5,2.4-5.1,3.7c-1.5,1.1-2.9,2.4-4.1,3.8
	c-0.5,0.6-1,1.3-1.4,2c-0.4,0.6-0.7,1.3-1,2c-0.6,1.7-1.2,3.2-1.8,4.6c0.1-0.4,0.3-0.7,0.4-1.1c1.1-3.5,2.2-6.9,3.1-10.5
	c1.9-7.1,3.3-14.3,4.2-21.6l0.3-2.6c2.6-0.5,5.1-1.3,7.5-2.4c2.6-1.1,4.9-2.8,6.9-4.9c2.1-2.2,3.3-5.1,3.3-8.1
	c0-1.7,0.2-3.4,0.5-5.1c0.3-1.8,0.5-3.6,0.8-5.4s0.7-3.6,1.1-5.4s0.7-3.5,1.1-5.1l1-4.6c0.3-1.4,0.6-2.6,0.9-3.7l0.8-3.4
	c0,0-1.3,1.4-3.2,3.5s-4.6,5.1-7.3,8.3c-1.4,1.6-2.8,3.2-4.1,4.9c-0.7,0.8-1.3,1.7-1.9,2.5s-1.2,1.7-1.8,2.5c-1.1,1.5-2,3.2-2.7,4.9
	c-0.7,1.4-1.1,3-1.2,4.6c-0.1,1.5-0.1,2.9-0.3,4.1c-0.1,0.8-0.2,1.5-0.4,2.2c0.1-1.2,0.2-2.3,0.2-3.5l0.1-5.5c0-0.9,0.1-1.8,0-2.8
	l0-2.7c0-1.8,0-3.6-0.2-5.4s-0.2-3.6-0.3-5.5s-0.4-3.6-0.5-5.4c-0.3-2.4-0.6-4.9-1-7.3l0.6-0.3c2-1.1,3.8-2.5,5.5-4
	c2.1-1.8,3.8-4.1,4.9-6.6c0.6-1.3,1-2.7,1.1-4.1c0.2-1.5,0.1-3.1-0.3-4.6c-0.4-1.6-0.8-3.3-1-5c-0.3-1.7-0.5-3.5-0.7-5.3
	s-0.3-3.6-0.5-5.4s-0.3-3.5-0.4-5.2c-0.3-3.3-0.4-6.2-0.6-8.3s-0.2-3.4-0.2-3.4s-0.8,1.6-1.9,4.2l-2,4.5c-0.8,1.7-1.5,3.5-2.3,5.4
	s-1.6,3.9-2.3,5.8s-1.4,3.9-1.9,5.8c-0.5,1.8-0.8,3.6-1,5.4c-0.2,1.6-0.2,3.2,0.2,4.7c0.4,1.7,0.8,3.5,1,5.3
	c-0.2-0.9-0.4-1.8-0.6-2.7c-1.6-6.8-3.6-13.5-6-20c-1.6-4.3-3.3-8.4-5.1-12.4c1.6-1.7,3-3.6,4.1-5.6c1.4-2.3,2.3-4.9,2.6-7.6
	c0.2-1.4,0.1-2.8-0.1-4.2c-0.3-1.5-0.8-2.9-1.6-4.2c-0.8-1.4-1.5-2.9-2.3-4.4s-1.5-3.2-2.2-4.9s-1.4-3.3-2-5s-1.3-3.2-1.9-4.7
	s-1.1-3-1.6-4.2l-1.3-3.4l-0.9-2.3l-0.3-0.8c0,0-0.2,1.7-0.6,4.4c-0.2,1.4-0.3,3-0.5,4.7s-0.4,3.7-0.6,5.7s-0.3,4-0.4,6
	s-0.2,4.1-0.1,6c0,1.8,0.2,3.6,0.5,5.4c0.3,1.6,0.8,3.1,1.5,4.4c0.4,0.8,0.8,1.5,1.2,2.2c-2-3.5-4-6.9-6.2-10.2
	c-3.3-5.1-6.9-9.9-10.8-14.6c-0.9-1-1.7-2-2.6-3l0.1-0.3c0.9-1.9,1.6-3.9,2-6c0.6-2.5,0.6-5.2,0.2-7.7c-0.5-2.8-1.9-5.4-4-7.4
	c-1.2-1.1-2.3-2.3-3.4-3.5c-1.1-1.3-2.3-2.6-3.4-4c-0.5-0.7-1.1-1.4-1.6-2.1l-1.6-2l-3.1-3.9c-2-2.5-3.7-4.7-4.9-6.3l-2-2.5
	c0,0,0.3,1.6,0.8,4.2s1.1,6.1,2,9.8c0.4,1.8,0.8,3.8,1.4,5.7s1.1,3.7,1.6,5.5c0.5,1.7,1.2,3.3,2.1,4.9c0.7,1.4,1.6,2.7,2.7,3.8
	c0.6,0.6,1.2,1.2,1.8,1.8c-6.8-6.7-14.2-12.7-22.1-18c-1.4-1-2.9-1.9-4.2-2.7c0.3-2.1,0.4-4.3,0.2-6.5c-0.2-2.5-0.9-4.9-2.1-7.1
	c-0.6-1.2-1.4-2.3-2.4-3.2c-1-1-2.2-1.9-3.5-2.5c-0.7-0.4-1.4-0.8-2.1-1.1s-1.4-0.8-2.1-1.2c-1.4-0.8-2.9-1.8-4.3-2.8
	s-2.9-1.9-4.3-2.9s-2.8-1.9-4-2.7s-2.5-1.8-3.6-2.5l-2.9-2l-2.6-1.8c0,0,0.7,1.4,1.9,3.6c0.6,1.1,1.3,2.4,2.1,3.8l2.6,4.5
	c0.9,1.6,1.9,3.2,2.9,4.8s2.1,3.2,3.2,4.6c1,1.4,2.2,2.7,3.4,3.9c1.1,1.1,2.3,2,3.6,2.8c2.2,1.2,4.4,2.5,6.4,3.9l0.1,0.1
	c-2.8-1.5-5.4-2.8-7.8-3.9c-4.4-2-8.8-3.7-13.4-5.2c-1.6-0.5-2.8-0.9-3.6-1.1l-1.2-0.4l1.2,0.5c0.8,0.4,1.9,0.9,3.4,1.5
	c3,1.3,7.4,3.5,12.8,6.4c6.5,3.6,12.7,7.5,18.8,11.8c7.9,5.5,15.2,11.7,22,18.6l2.8,2.9c0.9,1,1.8,2,2.8,3c1.9,2,3.6,4.2,5.5,6.4
	c0.9,1.1,1.8,2.3,2.7,3.4s1.8,2.3,2.6,3.5l2.6,3.6l2.5,4c7.1,10.7,12.9,22.3,17.4,34.3c2.4,6.4,4.4,12.9,6,19.6
	c1.6,6.8,2.8,13.7,3.6,20.7l0.5,5.3c0.1,1.8,0.2,3.5,0.3,5.3s0.1,3.6,0.2,5.4l0,2.7c0,0.8,0,1.8,0,2.6l-0.1,5.4
	c-0.1,1.8-0.2,3.6-0.4,5.4c-0.2,3.6-0.7,7.2-1.1,10.7c-1,7.1-2.5,14.1-4.4,21c-0.9,3.5-2,6.8-3.1,10.2c-0.5,1.7-1.2,3.3-1.8,5
	s-1.2,3.3-1.9,4.9s-1.4,3.2-2.1,4.8s-1.5,3.1-2.3,4.7c-1.5,3.2-3.2,6.1-4.9,9.1c-3.4,5.8-7.1,11.5-11.1,16.9c-1.9,2.7-4,5.2-6.1,7.7
	c-1,1.3-2.1,2.4-3.2,3.6s-2.1,2.4-3.2,3.5c-2.2,2.2-4.4,4.6-6.7,6.6l-3.5,3.1l-3.5,2.9c-15.8,13.4-34,23.8-53.6,30.4
	c-2,0.8-3.9,1.3-5.8,1.9l-2.8,0.9c-0.9,0.3-1.8,0.5-2.7,0.7l-5.1,1.4l-4.7,1.1c-3,0.8-5.6,1.2-7.9,1.7c-1.2,0.2-2.2,0.5-3.2,0.6
	l-2.7,0.5c-1.6,0.3-2.9,0.5-3.7,0.7l-1.3,0.2h1.3c0.9,0,2.1,0.1,3.8,0.1l2.8,0.1c1,0,2.1-0.1,3.3-0.1c2.4-0.1,5.2-0.2,8.2-0.6
	c7.4-0.8,14.8-2.3,21.9-4.4l0.2,0l0.3,0.5c1.5,2.5,3.3,4.8,5.2,7c2.2,2.5,4.8,4.5,7.7,6c2.8,1.4,6,1.5,8.9,0.4
	c1.6-0.7,3.2-1.2,4.8-1.7c1.7-0.5,3.5-0.9,5.3-1.2s3.6-0.7,5.4-1s3.6-0.5,5.2-0.8s3.3-0.5,4.7-0.7l3.8-0.5c2.2-0.3,3.5-0.5,3.5-0.5
	s-2-0.9-5-2.3l-5.3-2.4c-2-0.9-4.1-1.9-6.2-2.8l-3.3-1.4c-1.1-0.5-2.2-0.9-3.3-1.4c-2.2-0.9-4.4-1.6-6.4-2.2c-1.9-0.6-3.8-1-5.7-1.2
	c-1.3-0.2-2.7,0-4,0.4l4-1.8l7-3.5l7.2-4.1c2.4-1.5,4.8-3,7.2-4.6l1.3-0.9l0.1,0.1c2.1,1.8,4.3,3.4,6.7,4.8c2.7,1.6,5.7,2.7,8.8,3.2
	c3,0.4,6.1-0.4,8.5-2.4c1.3-1,2.6-2,4.1-3s3-1.9,4.7-2.7s3.2-1.8,4.8-2.6s3.3-1.5,4.7-2.3c3-1.5,5.7-2.8,7.7-3.7l3.1-1.5
	c0,0-2-0.3-5.2-0.6s-7.5-0.9-12-1.3c-2.2-0.2-4.6-0.4-6.9-0.5s-4.5-0.2-6.5-0.1c-1.9,0-3.8,0.2-5.7,0.6c-1,0.2-2,0.6-2.9,1.1
	c7.5-6.6,14.4-13.8,20.6-21.7l0.2,0.1c2.4,1.1,4.9,1.9,7.4,2.4c3,0.7,6,0.8,9,0.3c3-0.6,5.6-2.3,7.4-4.8c0.9-1.3,2-2.7,3.1-4.1
	s2.4-2.7,3.7-4s2.5-2.7,3.8-3.9s2.6-2.5,3.8-3.6c2.4-2.4,4.6-4.4,6.2-5.8c0.8-0.7,1.4-1.3,1.9-1.7l0.7-0.6l-5,1
	c-3,0.6-7.2,1.5-11.4,2.5c-2.1,0.5-4.4,1-6.5,1.6s-4.2,1.2-6.1,1.9c-1.8,0.6-3.5,1.4-5.2,2.4c-1.4,0.8-2.5,1.9-3.5,3.1l0,0
	c2.2-3.4,4.3-7,6.3-10.6c1.6-3.1,3.4-6.2,4.8-9.5c0.7-1.6,1.5-3.2,2.2-4.9l1.3-3.1l0.6,0.1c2.5,0.3,5,0.3,7.5,0
	c2.9-0.3,5.7-1.1,8.3-2.5c2.7-1.5,4.7-3.9,5.6-6.8c0.5-1.6,1.2-3.1,1.8-4.8s1.5-3.3,2.3-4.9l2.5-4.9c0.9-1.6,1.7-3.1,2.6-4.6
	s1.6-2.9,2.3-4.1l1.9-3.3l1.3-2.2c0.3-0.5,0.5-0.8,0.5-0.8l-4.3,2.4L390.2,227.5z M388.8,189.2c-0.2,0.4-0.4,1.1-0.6,1.8
	s-0.6,1.6-0.9,2.5s-0.7,1.9-1,2.8s-0.8,1.9-1.1,2.8s-0.7,1.7-0.9,2.5s-0.6,1.4-0.7,1.8l-0.3,0.7c0,0,0-0.3-0.1-0.8
	c-0.1-0.7-0.1-1.3-0.1-2c0-0.9,0.1-1.9,0.3-2.8c0.2-1,0.5-2.1,0.9-3.1s0.9-2,1.4-2.9c0.5-0.8,1-1.6,1.6-2.3c0.4-0.5,0.9-1,1.4-1.4
	l0.6-0.5L388.8,189.2z M380.1,194.2c0.2-0.7,0.4-1.4,0.6-2.1c0.3-1,0.8-1.9,1.2-2.8c0.5-1,1.2-2,1.8-3s1.5-1.9,2.2-2.7
	c0.7-0.7,1.4-1.4,2.2-2c0.6-0.4,1.1-0.8,1.8-1.2l0.7-0.4c0,0-0.1,0.3-0.4,0.7s-0.6,1.1-1.1,1.8s-1,1.6-1.6,2.4s-1.3,1.8-1.9,2.8
	s-1.4,1.8-2,2.7s-1.3,1.6-1.8,2.4s-1,1.2-1.3,1.7l-0.5,0.6L380.1,194.2z M379.7,137.2l0.5-0.6c0,0,0,0.3-0.1,0.8s-0.1,1.2-0.3,2
	s-0.3,1.8-0.5,2.8s-0.4,2.1-0.6,3.1s-0.5,2.1-0.7,3.1s-0.5,1.9-0.6,2.7s-0.4,1.5-0.5,2s-0.2,0.8-0.2,0.8s-0.1-0.3-0.2-0.8
	c-0.2-0.7-0.3-1.4-0.3-2.1c-0.1-1-0.1-1.9-0.1-2.9c0.1-1.1,0.2-2.2,0.4-3.3s0.6-2.2,0.9-3.2c0.3-0.9,0.7-1.8,1.2-2.6
	C378.9,138.4,379.3,137.8,379.7,137.2L379.7,137.2z M375,139.6c0.1-0.9,0.2-2,0.4-3.1s0.5-2.3,0.7-3.6s0.7-2.4,1-3.5s0.8-2.1,1.1-3
	s0.7-1.6,0.9-2.1l0.4-0.8c0,0,0,0.3,0,0.9s0,1.3-0.1,2.3s-0.2,2-0.4,3.2s-0.5,2.3-0.7,3.6s-0.7,2.4-1,3.5s-0.8,2.1-1,3
	s-0.7,1.6-0.9,2.1l-0.4,0.8c0,0,0-0.3,0-0.9S374.9,140.6,375,139.6z M294.3,40.7c-0.6-0.9-1.3-1.8-2.1-2.6c-1.1-1.1-2.2-2.1-3.5-3
	c-1.4-1.1-2.9-2.1-4.4-3l-4.5-3c-1.3-0.9-2.6-1.9-3.8-3c-0.9-0.8-1.6-1.6-2.4-2.5c-0.5-0.7-0.8-1.1-0.8-1.1s0.4,0.3,1.1,0.7
	s1.6,1.1,2.8,1.8s2.6,1.5,4.1,2.3l4.7,2.8c1.6,1,3,2.2,4.4,3.4c1.2,1.1,2.3,2.4,3.2,3.8c0.6,1,1.2,2.1,1.5,3.2
	c0.1,0.4,0.2,0.7,0.3,1s0.1,0.3,0.1,0.3S294.8,41.3,294.3,40.7z M331.5,69.7c-0.1,0.4-0.3,0.8-0.4,1.2c0-0.4,0-0.8,0-1.2
	c-0.1-1-0.3-2-0.6-3c-0.4-1.4-1.1-2.7-1.9-3.8c-0.9-1.4-1.9-2.7-3.1-3.9c-1.1-1.3-2.3-2.7-3.3-3.9c-1-1.2-1.8-2.5-2.5-3.9
	c-0.5-1-0.9-2.1-1.1-3.2c-0.1-0.8-0.2-1.2-0.2-1.2s0.2,0.4,0.6,1.1c0.5,0.9,1.1,1.8,1.8,2.6c0.9,1.1,1.9,2.2,2.9,3.3l3.5,3.7
	c1.2,1.4,2.2,2.8,3.1,4.4c0.7,1.4,1.2,3,1.4,4.6C331.8,67.5,331.7,68.6,331.5,69.7L331.5,69.7z M354.2,98.1c0,0.9-0.1,1.6-0.1,2.1
	l-0.1,0.8l-0.4-0.7c-0.3-0.6-0.5-1.3-0.7-2c-0.3-1-0.5-1.9-0.7-2.9c-0.1-1.1-0.3-2.2-0.3-3.4s0.1-2.3,0.1-3.4c0.1-1,0.3-2,0.5-3
	c0.2-0.7,0.4-1.3,0.6-2c0.2-0.5,0.3-0.8,0.3-0.8s0,0.3,0.1,0.8s0.2,1.2,0.2,2.1s0.2,1.8,0.2,2.9s0.1,2.2,0.1,3.3s0,2.2,0,3.3
	S354.2,97.3,354.2,98.1L354.2,98.1z M358.2,105.7c-0.3-1.1-0.5-2.3-0.8-3.4s-0.1-2.4-0.2-3.5c0-1,0.1-2.1,0.3-3.1
	c0.1-0.7,0.3-1.4,0.5-2.1l0.3-0.8l0.1,0.8c0,0.5,0.2,1.3,0.3,2.1s0.3,1.9,0.4,2.9s0.2,2.2,0.4,3.3s0.2,2.3,0.4,3.3s0.2,2.1,0.4,2.9
	s0.2,1.6,0.3,2.1s0.1,0.8,0.1,0.8l-0.5-0.7c-0.4-0.6-0.8-1.2-1.1-1.9C358.9,107.7,358.5,106.7,358.2,105.7L358.2,105.7z
	 M296.7,361.2c1.3,0,2.6,0.1,3.9,0.4c0.5,0.1,0.9,0.3,1.4,0.5c-0.5,0-1,0-1.4,0c-1.2,0-2.5,0.2-3.7,0.4c-1.7,0.4-3.4,0.8-5,1.4
	c-1.8,0.6-3.8,1.4-5.8,2.1c-2,0.6-4.1,1.1-6.1,1.4c-1.9,0.2-3.7,0-5.5-0.5c-1.3-0.3-2.5-0.9-3.5-1.7c-0.4-0.3-0.6-0.5-0.8-0.7
	l-0.3-0.3l0.3,0.2c0.3,0.2,0.7,0.3,1,0.4c1.1,0.4,2.3,0.7,3.6,0.8c1.7,0.1,3.4,0.1,5.1-0.2c2-0.4,3.9-0.9,5.7-1.6
	c2-0.6,4-1.3,5.9-1.8C293,361.5,294.8,361.3,296.7,361.2z M278,361.3l2.2-0.5l2.2-0.2c0.7,0,1.3,0,2,0c0.5,0,1,0.1,1.4,0.2l0.5,0.1
	l-0.5,0.3c-0.4,0.2-0.8,0.5-1.3,0.7c-0.6,0.3-1.2,0.5-1.9,0.7l-2.2,0.5l-2.2,0.2c-0.7,0-1.3,0-2,0c-0.5,0-1-0.1-1.4-0.2l-0.5-0.1
	l0.5-0.3c0.4-0.2,0.8-0.5,1.3-0.7C276.7,361.8,277.4,361.5,278,361.3L278,361.3z M329.1,333.1c1.7-1,3.4-2.1,5.1-3
	c1.6-0.9,3.2-1.5,4.9-1.9c1.2-0.3,2.5-0.4,3.7-0.2c0.5,0.1,0.9,0.2,1.4,0.3c-0.5,0-0.9,0.1-1.4,0.2c-1.2,0.2-2.3,0.6-3.4,1
	c-1.5,0.7-3,1.5-4.4,2.4c-1.6,1-3.2,2.1-4.9,3.3c-1.7,1.1-3.6,1.9-5.5,2.6c-1.7,0.5-3.6,0.6-5.4,0.3c-1.3-0.2-2.5-0.7-3.5-1.4
	c-0.3-0.2-0.5-0.5-0.8-0.7l-0.3-0.3l0.3,0.2c0.3,0.1,0.6,0.3,0.9,0.4c1.1,0.4,2.2,0.6,3.4,0.5c1.6,0,3.2-0.4,4.7-1
	C325.9,335.1,327.6,334.2,329.1,333.1z M319.5,331.2c0.8,0,1.7-0.1,2.5-0.2c0.8-0.2,1.5-0.2,2.2-0.4s1.2-0.2,1.6-0.4l0.6-0.1
	l-0.4,0.5c-0.4,0.4-0.8,0.8-1.3,1.2c-0.7,0.5-1.4,0.9-2.2,1.1c-1.8,0.7-3.8,0.8-5.6,0.4c-0.8-0.2-1.6-0.4-2.4-0.8
	c-0.5-0.3-1-0.6-1.5-1l-0.5-0.5h0.7c0.4,0.1,1,0,1.6,0.1s1.4,0,2.2,0.1C317.8,331.3,318.6,331.3,319.5,331.2L319.5,331.2z
	 M354.3,290.1c0.6-0.6,1.2-1.1,1.9-1.6c0.9-0.7,1.9-1.4,2.9-2c1.1-0.6,2.3-1.3,3.5-1.9s2.5-1,3.7-1.4c1.1-0.3,2.2-0.6,3.4-0.8
	c0.8-0.1,1.6-0.2,2.4-0.3h0.9l-0.8,0.5c-0.5,0.2-1.3,0.7-2.2,1.1s-1.9,1-3.1,1.4s-2.3,1-3.5,1.6s-2.4,1-3.5,1.5s-2.2,0.9-3.1,1.3
	s-1.7,0.7-2.3,0.9l-0.9,0.3C353.6,290.8,353.9,290.6,354.3,290.1z M349.6,301.4c1-0.1,2-0.3,2.9-0.7c1.3-0.5,2.5-1.2,3.5-2
	c1.3-1,2.5-2.1,3.5-3.3c1.2-1.2,2.3-2.5,3.5-3.7c1.1-1.1,2.2-2,3.5-2.9c0.9-0.6,1.8-1.1,2.9-1.4c0.4-0.1,0.8-0.2,1.2-0.3
	c-0.3,0.2-0.7,0.4-1,0.7c-0.8,0.6-1.6,1.3-2.3,2c-0.9,0.9-1.8,2-2.9,3.2s-2.1,2.6-3.3,3.9c-1.2,1.3-2.6,2.4-4,3.4
	c-1.3,0.8-2.8,1.4-4.3,1.6c-1.1,0.2-2.2,0.1-3.2-0.1c-0.4-0.1-0.8-0.3-1.1-0.4C348.8,301.5,349.2,301.5,349.6,301.4z M384,241.7
	c-0.3,0.4-0.7,1-1.3,1.6s-1.1,1.4-1.8,2.2s-1.3,1.6-2,2.5s-1.4,1.7-2,2.5s-1.3,1.6-1.7,2.2s-1,1.2-1.3,1.6s-0.5,0.6-0.5,0.6l0.1-0.8
	c0.1-0.7,0.3-1.4,0.6-2.1c0.3-0.9,0.7-1.8,1.2-2.7c0.5-0.9,1.2-1.9,1.9-2.9s1.5-1.7,2.3-2.5c0.7-0.7,1.5-1.2,2.3-1.8
	c0.6-0.4,1.2-0.7,1.8-1l0.7-0.3L384,241.7z M389.1,232.7c-0.5,0.3-1.1,0.8-2,1.4s-1.7,1.2-2.7,1.9s-2,1.4-3,2.3
	c-1,0.7-2,1.5-2.9,2.4c-0.9,0.8-1.8,1.5-2.5,2.2s-1.4,1.2-1.8,1.6l-0.7,0.6l0.4-0.9c0.3-0.8,0.7-1.5,1.2-2.2c0.6-1,1.3-1.9,2.1-2.8
	c0.9-0.9,1.9-1.9,2.9-2.7s2.2-1.5,3.3-2.1c1-0.5,2.1-1,3.1-1.4c0.8-0.3,1.5-0.5,2.3-0.6l0.9-0.1L389.1,232.7z"/>
<path class="st0" d="M365.3,195c0.5,0.7,0.9,1.5,1.1,2.3c0.1,0.3,0.1,0.6,0.2,0.9c-0.2-0.3-0.4-0.5-0.6-0.7c-0.5-0.6-1-1.2-1.6-1.7
	c-0.4-0.4-0.8-0.7-1.3-1c-0.1,4.9-0.4,9.8-0.9,14.6c1.7,1.2,3.2,2.5,4.6,3.9c0.9,0.9,1.7,2,2.4,3.1c0,0,0.3-1.5,0.7-3.8
	c0.2-1.3,0.4-2.7,0.5-4c0.1-1.5,0.1-3.1,0.1-4.8c0-0.8,0-1.7-0.1-2.5s-0.2-1.6-0.3-2.5c-0.2-1.6-0.5-3.1-1-4.6
	c-0.4-1.3-1-2.5-1.8-3.6c-0.7-0.9-1.6-1.7-2.6-2.1c-0.5-0.2-1-0.5-1.5-0.7c0,1.6,0.1,3.2,0.1,4.8C363.9,193.3,364.7,194.1,365.3,195
	z"/>
<path class="st0" d="M359.2,149.1c0.6,0.5,1.1,1.1,1.4,1.8c0.2,0.5,0.4,0.8,0.4,0.8c-0.2-0.2-0.4-0.3-0.7-0.5
	c-0.6-0.4-1.2-0.7-1.8-1c-0.4-0.2-0.8-0.4-1.2-0.5c1.4,4.9,2.5,9.8,3.4,14.8c2,0.7,4,1.6,5.8,2.7c1,0.6,2,1.4,2.9,2.3
	c0,0,0-0.4-0.1-1.1s-0.1-1.6-0.3-2.8s-0.4-2.5-0.7-4c-0.3-1.6-0.7-3.1-1.1-4.6c-0.4-1.6-1-3.2-1.6-4.7c-0.6-1.4-1.3-2.8-2.1-4.1
	c-0.7-1.1-1.6-2.1-2.6-3c-0.9-0.7-1.9-1.2-3-1.4c-0.8-0.1-1.6-0.3-2.4-0.5c0.4,1.3,0.8,2.7,1.2,4
	C357.5,147.8,358.4,148.4,359.2,149.1z"/>
<path class="st0" d="M341.2,108.5c1,0.4,1.9,1.1,2.7,1.8c0.6,0.5,1.1,1.2,1.4,1.9c0.1,0.3,0.2,0.5,0.3,0.8c-0.2-0.2-0.4-0.4-0.7-0.5
	c-0.6-0.4-1.2-0.8-1.8-1.1c-0.9-0.4-1.8-0.7-2.7-1l-0.2-0.1c2.2,3.7,4.3,7.5,6.2,11.3c2.3,0,4.7,0.4,6.9,1.1
	c1.2,0.3,2.3,0.8,3.3,1.4c0,0-0.1-0.4-0.4-1s-0.6-1.5-1.1-2.6s-1-2.3-1.7-3.7s-1.5-2.7-2.3-4.1c-0.9-1.4-1.8-2.7-2.9-4
	c-0.5-0.6-1-1.2-1.5-1.8s-1.1-1.1-1.6-1.5c-1-0.9-2.1-1.6-3.2-2.2c-1-0.5-2-0.6-3.1-0.5c-1.1,0.2-2.2,0.2-3.3,0.1
	c1.1,1.6,2.1,3.2,3.1,4.8C339.5,107.9,340.4,108.2,341.2,108.5z"/>
<path class="st0" d="M310.6,71.4c1.1,0,2.2,0.1,3.2,0.4c0.7,0.2,1.4,0.6,2.1,1c0.2,0.2,0.5,0.3,0.7,0.5c-0.3,0-0.6-0.1-0.8-0.1
	c-0.7-0.1-1.4-0.1-2.1-0.1c-1,0-1.9,0.1-2.9,0.3c-0.3,0-0.5,0.1-0.8,0.2c4,3.6,7.8,7.3,11.4,11.3c2.4-0.7,5-1,7.5-0.9
	c1.2,0,2.3,0.2,3.4,0.5c0,0-0.9-1.2-2.4-3c-0.7-0.9-1.7-1.9-2.7-3c-1.1-1.2-2.2-2.2-3.4-3.3c-1.2-1.1-2.5-2.1-3.8-3.1
	c-1.2-0.9-2.5-1.7-3.9-2.3c-1.1-0.6-2.4-1-3.6-1.2c-1-0.2-2-0.1-3,0.3c-0.9,0.4-1.9,0.7-2.9,0.9c-0.3,0.1-0.7,0.1-1,0.2
	c0.8,0.6,1.5,1.3,2.3,1.9C308.9,71.6,309.7,71.5,310.6,71.4z"/>
<path class="st0" d="M276.9,48.5c1.2-0.1,2.4-0.1,3.5,0.2c0.8,0.2,1.6,0.5,2.4,0.9c0.3,0.2,0.5,0.3,0.8,0.5c0,0-0.3-0.1-0.9-0.1
	c-0.8-0.1-1.5-0.1-2.3,0c-1.1,0.1-2.1,0.3-3.2,0.5l-0.3,0.1c3.7,1.9,7.2,3.9,10.7,6.1c2.2-1.4,4.7-2.4,7.2-2.9
	c1.1-0.3,2.2-0.4,3.3-0.4l-0.8-0.6c-0.5-0.4-1.3-0.9-2.3-1.6s-2.1-1.4-3.4-2.1s-2.7-1.5-4.1-2.2c-1.5-0.7-2.9-1.3-4.5-1.9
	c-1.4-0.5-2.9-0.9-4.3-1.2c-1.2-0.2-2.5-0.3-3.8-0.2c-1,0.1-2,0.4-2.8,1c-1.1,0.8-2.3,1.5-3.6,2c1.8,0.8,3.5,1.6,5.2,2.5
	C274.8,48.8,275.8,48.6,276.9,48.5z"/>
<path class="st0" d="M258.6,342.8c13.8-5.1,26.9-12.1,38.8-20.8c4.2-3.1,8.3-6.4,12.2-9.9l0.3-0.3c1.3-1.1,2.5-2.3,3.7-3.5
	c5.5-5.3,10.7-11,15.4-17c3-3.8,5.8-7.7,8.4-11.7c0.3-0.5,0.6-0.9,0.9-1.4c1-1.5,1.9-3,2.8-4.5c3.9-6.6,7.3-13.6,10.2-20.7
	c1.2-3,2.4-6,3.4-9.1c0-0.1,0-0.1,0.1-0.2c0.5-1.5,1-3.1,1.5-4.6c0.1-0.4,0.3-0.9,0.4-1.4c0.5-1.7,1-3.4,1.4-5.1
	c1.9-7.6,3.3-15.2,4.1-23c0.5-4.8,0.8-9.7,0.9-14.6c0-0.8,0-1.5,0-2.3l0,0c0-1.6,0-3.2-0.1-4.8c-0.2-7.8-1-15.6-2.4-23.4
	c-0.9-5-2-10-3.4-14.8c-0.2-0.8-0.4-1.6-0.7-2.3c-0.4-1.3-0.8-2.7-1.2-4c-2.4-7.4-5.3-14.6-8.8-21.6c-1.9-3.9-4-7.7-6.2-11.3
	c-0.5-0.9-1.1-1.8-1.7-2.7c-1-1.6-2-3.2-3.1-4.8c-4.3-6.3-9.1-12.3-14.2-18c-3.6-4-7.3-7.8-11.3-11.3c-0.7-0.6-1.4-1.2-2-1.8
	s-1.5-1.3-2.3-1.9c-5.7-4.8-11.8-9.2-18.1-13.1c-3.5-2.2-7-4.2-10.7-6.1c-1-0.5-2-1-3-1.5c-1.7-0.9-3.5-1.7-5.2-2.5
	c-41.7-18.7-89.5-18.7-131.2,0c-1.8,0.8-3.5,1.6-5.2,2.5c-1,0.5-2,1-3,1.5c-3.7,1.9-7.2,3.9-10.7,6.1c-6.3,4-12.4,8.3-18.1,13.1
	c-0.8,0.6-1.5,1.3-2.3,1.9S96.7,73,96,73.6c-4,3.6-7.8,7.3-11.3,11.3c-5.2,5.7-9.9,11.7-14.2,18c-1.1,1.6-2.1,3.2-3.1,4.8
	c-0.6,0.9-1.1,1.8-1.7,2.7c-2.2,3.7-4.3,7.5-6.2,11.3c-3.5,7-6.4,14.2-8.8,21.6c-0.4,1.3-0.8,2.7-1.2,4c-0.2,0.8-0.5,1.6-0.7,2.3
	c-1.3,4.8-2.5,9.8-3.4,14.8c-1.4,7.7-2.2,15.6-2.4,23.4c0,1.6-0.1,3.2-0.1,4.8l0,0c0,0.8,0,1.5,0,2.3c0.1,4.9,0.4,9.8,0.9,14.6
	c0.8,7.8,2.2,15.4,4.1,23c0.4,1.7,0.9,3.4,1.4,5.1c0.1,0.5,0.3,0.9,0.4,1.4c0.5,1.6,1,3.1,1.5,4.6c0,0.1,0.1,0.1,0.1,0.2
	c1,3.1,2.2,6.1,3.4,9.1c2.9,7.1,6.3,14.1,10.2,20.7c0.9,1.5,1.8,3,2.8,4.5c0.3,0.5,0.6,0.9,0.9,1.4c2.6,4,5.4,7.9,8.4,11.7
	c4.7,6,9.8,11.7,15.4,17c1.2,1.2,2.5,2.3,3.8,3.5l0.3,0.3c3.9,3.5,8,6.8,12.2,9.9c24.1,17.6,52.6,28.1,82.4,30.3c4,0.3,8,0.5,12,0.5
	s8-0.1,12-0.5C229.9,351.2,244.6,348,258.6,342.8L258.6,342.8z M52.6,192.7c0-83,67.5-150.4,150.4-150.4s150.4,67.5,150.4,150.4
	S286,343.1,203,343.1S52.6,275.6,52.6,192.7z"/>
<path class="st0" d="M203,336.1c79.4,0,143.7-64.3,143.7-143.7S282.4,48.8,203,48.8S59.3,113.1,59.3,192.4c0,0,0,0,0,0
	C59.3,271.8,123.7,336.1,203,336.1z"/>
<g>
	<path class="st1" d="M136.2,105.9c-13.5,0-22.4,8.9-22.4,20.6s8.6,20.5,22,20.5h0.3c13.8,0,22.4-9.1,22.4-20.5
		S149.7,105.9,136.2,105.9z"/>
	<rect x="116.1" y="163.2" class="st1" width="39.5" height="118.9"/>
	<path class="st1" d="M252.7,160.4c-14.6-0.6-28.3,7-35.6,19.6v-16.8h-39.5c0.5,11.2,0,119,0,119h39.5v-66.4
		c-0.2-3.3,0.3-6.6,1.3-9.7c3-8.6,11.2-14.4,20.3-14.4c14.3,0,20,10.9,20,26.9v63.7h39.5V214C298.2,177.4,278.7,160.4,252.7,160.4z"
		/>
</g>
</svg>
