<svg id="Слой_1" data-name="Слой 1" xmlns="http://www.w3.org/2000/svg" viewBox="0 0 406.02 406.02"><defs><style>.cls-1{fill:#12100b;}.cls-2{fill:#fff;}</style></defs><path class="cls-1" d="M170.32,350.76a11.3,11.3,0,0,0,3.09,2.9,21.62,21.62,0,0,0,4.13,2.1,28.46,28.46,0,0,0,4.63,1.23,39,39,0,0,0,4.54.64c1.44.07,2.77.08,3.9.07,2.27,0,3.73-.16,3.73-.16a20.35,20.35,0,0,1-2.55-3.75c-.25-.44-.51-.94-.77-1.47a158.77,158.77,0,0,1-21.53-3.08A9,9,0,0,0,170.32,350.76Z"/><path class="cls-1" d="M186,362.56c-.88.14-1.85.25-2.91.34s-2.23.14-3.48.16c-.62,0-1.27,0-1.94,0s-1.36-.1-2.07-.17a9.21,9.21,0,0,0-4.61.92,34.08,34.08,0,0,0-5.19,3c-1.81,1.24-3.69,2.72-5.58,4.31s-3.78,3.17-5.63,4.83-3.64,3.26-5.3,4.79l-4.47,4.08c-2.57,2.35-4.22,3.92-4.22,3.92s1.34-.28,3.53-.66c1.09-.18,2.4-.42,3.86-.72s3.08-.57,4.77-.85,3.47-.52,5.31-.85,3.68-.55,5.52-.73l2.74-.23c.91-.09,1.81-.15,2.69-.18a31.29,31.29,0,0,1,5.08.17c3.21.38,6.1-1.05,8.49-3.21a26.55,26.55,0,0,0,5.8-8.41,58.11,58.11,0,0,0,4.1-12.58,19.21,19.21,0,0,1-4.12,1.54C187.64,362.19,186.85,362.38,186,362.56Zm-4.53,12.2c-.11.22-.29.53-.54.92a10.82,10.82,0,0,1-2.7,2.71,15.46,15.46,0,0,1-4.87,2.26,35.36,35.36,0,0,1-6,.89c-2,0-4,0-5.83.15a36.29,36.29,0,0,0-4.95.48,21.09,21.09,0,0,0-3.43.92,13.62,13.62,0,0,0-1.28.53,13.72,13.72,0,0,1,1.08-.93,13.51,13.51,0,0,1,3.3-1.78,22.87,22.87,0,0,1,5.12-1.24c1.9-.21,3.91-.3,5.88-.46a34,34,0,0,0,5.66-.54,19.46,19.46,0,0,0,4.67-1.43,14.18,14.18,0,0,0,3-1.87,10.33,10.33,0,0,0,1-.95Zm.92-5.69a16.67,16.67,0,0,1-1.68,1.93,21.74,21.74,0,0,1-2.75,2.34,40.39,40.39,0,0,1-3.54,2.12,38.43,38.43,0,0,1-3.85,1.41,21.45,21.45,0,0,1-3.5.64,15,15,0,0,1-2.51.07l-.95-.08.89-.37c.56-.18,1.35-.55,2.29-.89s2-.86,3.17-1.29a36.42,36.42,0,0,0,3.52-1.61,36.23,36.23,0,0,0,3.47-1.74c1.07-.63,2.15-1.1,3-1.65s1.65-.9,2.15-1.23l.85-.46S182.71,368.55,182.36,369.07Z"/><path class="cls-1" d="M128.38,337.72a12.59,12.59,0,0,0,2.22,3.59,18.15,18.15,0,0,0,3.42,3.16,38.53,38.53,0,0,0,4.12,2.53,30.13,30.13,0,0,0,4.2,1.89c1.36.51,2.63.93,3.71,1.27a23.58,23.58,0,0,0,2.64.68l1,.19a19.46,19.46,0,0,1-1.51-4.09,37.57,37.57,0,0,1-.79-4.1,159.1,159.1,0,0,1-19.5-8.77A7.89,7.89,0,0,0,128.38,337.72Z"/><path class="cls-1" d="M145.48,356.07l.16.05a125.62,125.62,0,0,0,21.93,4.44c3.07.4,5.85.53,8.25.63,1.2,0,2.31.11,3.32.13l2.75-.06c1.65,0,2.91-.08,3.76-.11l1.29,0-1.27-.24c-.84-.15-2.08-.4-3.71-.66l-2.72-.45c-1-.18-2.06-.42-3.23-.65-2.31-.5-5-.93-7.93-1.71l-4.67-1.1-5.07-1.42c-.88-.26-1.79-.45-2.69-.74l-2.77-.88c-1.88-.62-3.84-1.16-5.81-1.93a163.2,163.2,0,0,1-53.7-30.39L89.92,318l-3.38-3.13c-2.31-2.05-4.42-4.38-6.66-6.62-1.11-1.12-2.13-2.35-3.21-3.54s-2.19-2.36-3.19-3.64c-2-2.52-4.16-5-6.09-7.71a167.84,167.84,0,0,1-11.14-16.86c-1.62-3-3.39-6-4.85-9.14-.75-1.56-1.56-3.11-2.28-4.7s-1.38-3.22-2.08-4.83-1.31-3.26-1.93-4.91-1.28-3.3-1.83-5c-1.08-3.38-2.26-6.74-3.13-10.21a171,171,0,0,1-4.4-21c-.42-3.56-.93-7.13-1.11-10.72-.12-1.79-.3-3.58-.35-5.37l-.14-5.38c0-.88-.06-1.82,0-2.65l0-2.71c0-1.8,0-3.63.17-5.38s.21-3.54.31-5.31l.51-5.29a177.47,177.47,0,0,1,3.58-20.7,180.1,180.1,0,0,1,6-19.58A169.13,169.13,0,0,1,62,99.26l2.53-3.77,2.63-3.63c.85-1.21,1.75-2.37,2.65-3.52s1.76-2.3,2.68-3.4c1.85-2.18,3.61-4.38,5.5-6.39.94-1,1.83-2,2.77-3l2.81-2.86a168.68,168.68,0,0,1,22-18.55,190.83,190.83,0,0,1,18.77-11.75c5.4-2.9,9.75-5,12.76-6.39,1.51-.65,2.66-1.18,3.43-1.54l1.18-.54-1.23.38c-.81.25-2,.62-3.59,1.13a141.59,141.59,0,0,0-13.35,5.25c-2.42,1.12-5,2.43-7.81,3.93l.08-.06a57.18,57.18,0,0,1,6.4-3.91,16.9,16.9,0,0,0,3.64-2.76,39.39,39.39,0,0,0,3.37-3.94c1.1-1.44,2.15-3,3.16-4.63s2-3.18,2.94-4.77L138,20l2.1-3.77c1.2-2.16,1.92-3.56,1.92-3.56l-2.6,1.78-2.87,2c-1.1.73-2.29,1.61-3.57,2.48s-2.66,1.75-4,2.74-2.82,1.93-4.27,2.86-2.88,1.91-4.31,2.75c-.72.43-1.44.84-2.15,1.23s-1.39.79-2.07,1.15a14.32,14.32,0,0,0-3.52,2.52,14.91,14.91,0,0,0-2.38,3.24,18,18,0,0,0-2.07,7.08,28,28,0,0,0,.16,6.49c-1.39.87-2.81,1.77-4.25,2.74a154.79,154.79,0,0,0-22,18c.56-.61,1.14-1.22,1.79-1.83a14.28,14.28,0,0,0,2.68-3.79,30.08,30.08,0,0,0,2.08-4.89c.59-1.81,1.16-3.65,1.65-5.55s.92-3.88,1.35-5.71c.86-3.69,1.49-7.27,2-9.79s.77-4.18.77-4.18l-2,2.55C91,38,89.37,40.33,87.37,42.78L84.3,46.72l-1.64,2L81,50.8c-1.11,1.37-2.27,2.67-3.39,4a46.42,46.42,0,0,1-3.4,3.55,13.93,13.93,0,0,0-4,7.4,20.3,20.3,0,0,0,.2,7.72,28.65,28.65,0,0,0,2,6l.14.29c-.85,1-1.7,2-2.57,3A162.39,162.39,0,0,0,59.17,97.24C57,100.49,55,103.89,53,107.4c.37-.71.75-1.44,1.17-2.2a15.35,15.35,0,0,0,1.52-4.45,39.25,39.25,0,0,0,.52-5.42c.06-1.91,0-3.93-.13-6s-.23-4.06-.42-6-.39-3.87-.57-5.65-.37-3.33-.52-4.69c-.35-2.69-.57-4.43-.57-4.43s-.12.29-.32.82l-.85,2.3c-.37,1-.81,2.12-1.31,3.4s-1,2.73-1.61,4.25-1.23,3.11-1.86,4.74-1.3,3.32-2,5-1.38,3.31-2.14,4.86-1.53,3.05-2.3,4.44a14,14,0,0,0-1.59,4.2,14.27,14.27,0,0,0-.11,4.22,19.69,19.69,0,0,0,2.59,7.55,32.11,32.11,0,0,0,4.14,5.63c-1.84,4-3.57,8.15-5.14,12.42a184.9,184.9,0,0,0-6,20c-.2.88-.38,1.77-.57,2.66a44.89,44.89,0,0,1,1-5.26,14,14,0,0,0,.16-4.74,29.72,29.72,0,0,0-1.13-5.41c-.58-1.9-1.18-3.82-1.94-5.78s-1.57-3.93-2.32-5.8-1.57-3.7-2.32-5.37-1.41-3.18-2-4.48c-1.15-2.57-1.93-4.19-1.93-4.19s-.09,1.29-.23,3.38-.3,5-.6,8.33c-.13,1.66-.26,3.41-.39,5.18s-.35,3.61-.52,5.41-.41,3.61-.71,5.34a44.86,44.86,0,0,1-1,5,11.82,11.82,0,0,0-.31,4.55,14.62,14.62,0,0,0,1.13,4.12,20.35,20.35,0,0,0,4.94,6.57,32.67,32.67,0,0,0,5.49,4l.6.34c-.37,2.41-.71,4.83-1,7.28-.18,1.79-.35,3.6-.53,5.4s-.22,3.64-.34,5.46-.13,3.63-.17,5.44l-.06,2.71c0,1,0,1.84,0,2.77l.13,5.49c0,1.16.11,2.32.2,3.49-.12-.71-.24-1.44-.35-2.22-.13-1.28-.21-2.66-.28-4.14a12.45,12.45,0,0,0-1.23-4.6,29.08,29.08,0,0,0-2.7-4.87c-.56-.83-1.16-1.66-1.79-2.49s-1.24-1.67-1.89-2.51c-1.32-1.66-2.71-3.32-4.1-4.91-2.7-3.18-5.33-6.11-7.32-8.27s-3.2-3.51-3.2-3.51l.76,3.35c.25,1,.54,2.29.87,3.68s.65,2.93,1,4.56.77,3.35,1.13,5.11.71,3.59,1.07,5.37.56,3.6.84,5.35a41.77,41.77,0,0,1,.45,5.08,12.27,12.27,0,0,0,3.32,8.11,20.34,20.34,0,0,0,6.86,4.86,35.54,35.54,0,0,0,7.51,2.37c.1.88.21,1.75.3,2.62a173.88,173.88,0,0,0,4.23,21.55c.84,3.56,2,7,3.06,10.49.12.38.26.74.38,1.12-.59-1.4-1.16-2.95-1.77-4.65a10.82,10.82,0,0,0-1-2,14.32,14.32,0,0,0-1.44-2,27.43,27.43,0,0,0-4.12-3.83c-1.63-1.24-3.27-2.49-5.09-3.69s-3.68-2.37-5.54-3.49l-5.25-3.17-4.49-2.6-4.3-2.42s.15.29.47.8.75,1.27,1.3,2.2,1.17,2.06,1.89,3.3,1.41,2.65,2.28,4.11,1.72,3,2.58,4.6,1.7,3.26,2.55,4.87,1.64,3.29,2.33,4.92,1.34,3.23,1.84,4.78a11.78,11.78,0,0,0,5.57,6.8,21.49,21.49,0,0,0,8.28,2.51,35.46,35.46,0,0,0,7.46,0l.58-.06,1.29,3.13c.7,1.65,1.49,3.25,2.23,4.87,1.44,3.27,3.18,6.36,4.79,9.49,2,3.61,4.13,7.15,6.33,10.58l0,0a11.89,11.89,0,0,0-3.49-3.14,26.55,26.55,0,0,0-5.16-2.36c-1.88-.72-3.95-1.36-6.09-1.94s-4.39-1.07-6.5-1.59c-4.25-1-8.36-1.85-11.42-2.46l-4.95-1,.68.63c.44.41,1,1,1.86,1.74,1.62,1.46,3.84,3.49,6.23,5.84,1.21,1.16,2.54,2.36,3.83,3.63s2.56,2.6,3.84,3.92,2.54,2.64,3.67,4,2.15,2.73,3.09,4.06a11.4,11.4,0,0,0,7.36,4.81,22.53,22.53,0,0,0,9-.26,38.39,38.39,0,0,0,7.44-2.44l.22-.1A165.88,165.88,0,0,0,89,324.32a11.19,11.19,0,0,0-2.9-1.09,28,28,0,0,0-5.7-.64c-2.06-.09-4.27,0-6.55.1s-4.64.37-6.87.55c-4.49.4-8.82.93-12,1.33s-5.2.63-5.2.63l3.15,1.5c2,.9,4.73,2.17,7.73,3.68,1.48.78,3.14,1.5,4.74,2.33s3.24,1.69,4.82,2.6,3.2,1.77,4.67,2.74,2.82,2,4.09,3a11.05,11.05,0,0,0,8.51,2.35,23.94,23.94,0,0,0,8.78-3.18,42.44,42.44,0,0,0,6.7-4.82l.09-.08,1.28.9c2.4,1.64,4.84,3.12,7.19,4.65l7.17,4.06c2.4,1.2,4.76,2.38,7,3.54l4,1.76a9.89,9.89,0,0,0-4-.37,32.3,32.3,0,0,0-5.73,1.2c-2,.59-4.19,1.36-6.38,2.24-1.1.44-2.21.9-3.32,1.38L107,356.06c-2.16.93-4.27,1.88-6.22,2.78l-5.27,2.43c-3,1.38-5,2.32-5,2.32s1.33.15,3.49.47l3.85.48c1.45.18,3,.41,4.71.67s3.45.5,5.25.79,3.63.63,5.41,1,3.6.73,5.29,1.22a41.2,41.2,0,0,1,4.78,1.69,11.1,11.1,0,0,0,8.91-.39,25.9,25.9,0,0,0,7.72-6,48.42,48.42,0,0,0,5.23-6.95ZM111.07,41.43c.05-.22.12-.55.25-1a13.36,13.36,0,0,1,1.52-3.18,20.27,20.27,0,0,1,3.2-3.79,42.4,42.4,0,0,1,4.42-3.41l4.69-2.75c1.48-.87,2.91-1.57,4.06-2.32s2.15-1.31,2.8-1.8,1.05-.74,1.05-.74-.26.4-.76,1.07A19.67,19.67,0,0,1,130,26.1a35.85,35.85,0,0,1-3.79,3l-4.52,3a39.78,39.78,0,0,0-4.36,3,30.18,30.18,0,0,0-3.46,3,21,21,0,0,0-2.11,2.57c-.48.66-.73,1.07-.73,1.07ZM74.33,66.31a13.33,13.33,0,0,1,1.41-4.61,28.18,28.18,0,0,1,3.07-4.42l3.56-3.74a43.1,43.1,0,0,0,2.9-3.28A22.44,22.44,0,0,0,87,47.65a11.17,11.17,0,0,0,.57-1.09s0,.45-.16,1.25A13.15,13.15,0,0,1,86.33,51a21.63,21.63,0,0,1-2.51,3.94c-1.07,1.25-2.2,2.6-3.34,3.94a25.14,25.14,0,0,0-3.06,3.9,15.54,15.54,0,0,0-1.86,3.85,12,12,0,0,0-.57,3,8.62,8.62,0,0,0,0,1.24,8.5,8.5,0,0,1-.44-1.18A9,9,0,0,1,74.33,66.31ZM51.79,95.22c0-1,.06-2.18,0-3.3s.13-2.25.14-3.3.16-2.06.18-2.91.17-1.59.2-2.1.12-.81.12-.81.11.28.31.76a16.63,16.63,0,0,1,.62,2,25.34,25.34,0,0,1,.52,3c.08,1.09.13,2.26.16,3.43s-.21,2.34-.34,3.42a24.69,24.69,0,0,1-.67,2.93,19.47,19.47,0,0,1-.73,2l-.36.73-.08-.82c0-.5-.1-1.24-.09-2.1S51.74,96.28,51.79,95.22Zm-6.11,15.26c-.3.43-.48.67-.48.67s0-.3.07-.83.12-1.27.27-2.12.21-1.88.41-2.93.33-2.19.43-3.32.34-2.25.44-3.31.31-2.07.37-2.94.24-1.6.29-2.12l.14-.82.29.78a15.19,15.19,0,0,1,.54,2.12,22,22,0,0,1,.32,3.07c0,1.13-.06,2.34-.16,3.54s-.47,2.36-.76,3.45a19.37,19.37,0,0,1-1.11,2.87A13.87,13.87,0,0,1,45.68,110.48ZM29.9,151.12a14.57,14.57,0,0,1-.33,2.06c-.13.49-.2.77-.2.77s-.09-.28-.23-.76-.35-1.17-.51-2-.45-1.74-.61-2.74-.41-2.06-.67-3.11-.38-2.14-.61-3.13-.33-2-.52-2.76-.22-1.54-.32-2-.09-.79-.09-.79l.49.62A13.35,13.35,0,0,1,27.4,139a20.14,20.14,0,0,1,1.21,2.65c.33,1,.65,2.1.94,3.21s.31,2.26.41,3.33A21.14,21.14,0,0,1,29.9,151.12Zm1.23-8.33-.41-.77c-.21-.5-.6-1.19-.91-2.06s-.76-1.87-1.06-3-.65-2.29-1-3.47-.47-2.42-.69-3.55-.27-2.23-.39-3.15-.08-1.72-.11-2.27,0-.87,0-.87l.41.77c.21.5.6,1.19.91,2.06s.76,1.87,1.06,3,.65,2.29,1,3.47.47,2.41.69,3.55.27,2.22.4,3.14.07,1.73.11,2.27S31.13,142.79,31.13,142.79ZM23,203.43c-.08.48-.13.75-.13.75l-.3-.69c-.15-.45-.46-1.06-.71-1.8s-.64-1.58-.92-2.5-.66-1.87-1.06-2.81-.67-1.93-1-2.82-.62-1.77-.94-2.49-.47-1.39-.65-1.82l-.22-.73.58.47a12.3,12.3,0,0,1,1.37,1.4,17.14,17.14,0,0,1,1.6,2.27c.49.89,1,1.87,1.4,2.88s.61,2.1.84,3.1a17.43,17.43,0,0,1,.28,2.79A12.33,12.33,0,0,1,23,203.43Zm2.51-9c-.31-.42-.83-1-1.33-1.66s-1.17-1.47-1.75-2.37-1.27-1.8-2-2.7-1.27-1.89-1.9-2.75-1.14-1.75-1.65-2.44-.85-1.38-1.14-1.81l-.41-.72.71.4a17.22,17.22,0,0,1,1.75,1.22,23.38,23.38,0,0,1,2.22,2c.74.83,1.49,1.74,2.22,2.68s1.26,2,1.8,3a22.07,22.07,0,0,1,1.22,2.82,18.8,18.8,0,0,1,.61,2.1c.09.52.15.82.15.82Zm-6.57,39.61c-.81-.52-1.46-1.05-1.95-1.35l-.75-.54.91.12a15.49,15.49,0,0,1,2.33.59,21,21,0,0,1,3.14,1.35c1.09.63,2.22,1.36,3.32,2.14s2,1.82,2.87,2.74a20.84,20.84,0,0,1,2.09,2.79,15.56,15.56,0,0,1,1.18,2.18l.35.87-.7-.6c-.41-.41-1.08-.92-1.78-1.59s-1.61-1.35-2.48-2.17a36.08,36.08,0,0,0-2.89-2.36c-1-.82-2-1.59-3-2.27S19.75,234.59,18.93,234.08Zm13.12,20.31c-.29-.4-.79-.92-1.28-1.6s-1.16-1.4-1.74-2.24-1.28-1.69-2-2.51-1.32-1.74-2-2.52-1.21-1.59-1.77-2.21-.94-1.25-1.26-1.62l-.47-.66.74.3a13.52,13.52,0,0,1,1.81,1,19.11,19.11,0,0,1,2.34,1.78c.77.75,1.56,1.59,2.32,2.46s1.31,1.92,1.87,2.86a20.05,20.05,0,0,1,1.22,2.72,15.57,15.57,0,0,1,.58,2.05c.08.51.13.8.13.8Zm1,27.84H34a20.5,20.5,0,0,1,2.43.26,26.67,26.67,0,0,1,3.37.76c1.2.4,2.47.85,3.73,1.35s2.41,1.24,3.51,1.86a28.61,28.61,0,0,1,2.86,2,19.79,19.79,0,0,1,1.86,1.65l.66.7-.89-.31c-.54-.24-1.35-.49-2.25-.9s-2-.78-3.11-1.32-2.31-1.05-3.53-1.53-2.36-1.12-3.5-1.59-2.15-1-3.07-1.42-1.64-.83-2.18-1.07Zm23.44,19.64a8,8,0,0,1-3.21.15,11.72,11.72,0,0,1-4.33-1.63,24.73,24.73,0,0,1-4-3.39c-1.18-1.33-2.25-2.69-3.29-3.9s-1.94-2.39-2.85-3.25a21.65,21.65,0,0,0-2.28-2,10.34,10.34,0,0,0-1-.7,10.12,10.12,0,0,1,1.16.29,12,12,0,0,1,2.86,1.42A22.86,22.86,0,0,1,43,291.71c1.15,1.18,2.3,2.47,3.48,3.66A22.7,22.7,0,0,0,50,298.7a14.36,14.36,0,0,0,3.55,2,9.93,9.93,0,0,0,2.87.67,7,7,0,0,0,1.17,0A7.21,7.21,0,0,1,56.45,301.87Zm34.5,34a8.7,8.7,0,0,1-.8.7,8.35,8.35,0,0,1-3.5,1.44,12.22,12.22,0,0,1-5.37-.33,26.73,26.73,0,0,1-5.55-2.56c-1.71-1.12-3.34-2.3-4.9-3.27a29.61,29.61,0,0,0-4.35-2.42,16.63,16.63,0,0,0-3.36-1.05,10.37,10.37,0,0,0-1.36-.18,11.21,11.21,0,0,1,1.37-.27,11.55,11.55,0,0,1,3.72.25,20.22,20.22,0,0,1,4.94,1.91c1.69.93,3.38,2,5.09,3a24.76,24.76,0,0,0,5,2.64,13.89,13.89,0,0,0,4.69.95,9.84,9.84,0,0,0,3.4-.53,7.47,7.47,0,0,0,.93-.39l.33-.17Zm2.13-4.33a7.44,7.44,0,0,1-1.48,1,9.15,9.15,0,0,1-2.34.82,18.73,18.73,0,0,1-2.85.21,18.35,18.35,0,0,1-2.79-.62,10.15,10.15,0,0,1-2.21-1.15,7.19,7.19,0,0,1-1.33-1.16l-.43-.53.64.13c.39.13,1,.19,1.62.35s1.41.23,2.19.4a15.2,15.2,0,0,0,2.47.25,14.87,14.87,0,0,0,2.48.1c.79-.06,1.57,0,2.22-.07s1.25-.05,1.65-.12l.65,0Zm27.18,29.22a9.83,9.83,0,0,1,1.42-.18,16.18,16.18,0,0,1,2,0l2.22.23,2.17.54a17,17,0,0,1,1.86.7,11.19,11.19,0,0,1,1.28.66l.48.32-.55.13a11.69,11.69,0,0,1-1.43.18,14.24,14.24,0,0,1-2,0l-2.22-.24-2.17-.54a19.42,19.42,0,0,1-1.86-.69,11,11,0,0,1-1.28-.67l-.48-.31ZM136,364.48a9,9,0,0,1-.82.73,10.48,10.48,0,0,1-3.54,1.72,15.37,15.37,0,0,1-5.55.47A35.74,35.74,0,0,1,120,366c-2-.72-3.92-1.49-5.74-2.09a36.45,36.45,0,0,0-5-1.44,20.46,20.46,0,0,0-3.67-.43,11,11,0,0,0-1.44,0,11.61,11.61,0,0,1,1.39-.48,14.23,14.23,0,0,1,3.85-.43,24,24,0,0,1,5.42.81c1.92.53,3.91,1.21,5.88,1.8a32.81,32.81,0,0,0,5.72,1.59,19,19,0,0,0,5.07.25,13.26,13.26,0,0,0,3.56-.83,10.41,10.41,0,0,0,1-.43l.34-.17Z"/><path class="cls-1" d="M96.1,312.71s0-.33,0-.9c-1.27-1.14-2.52-2.29-3.75-3.47-.08.21-.15.43-.23.64-1,2.47-.55,5.13.72,7.86a18.25,18.25,0,0,0,2.49,4,41.4,41.4,0,0,0,3.27,3.62,36.94,36.94,0,0,0,3.55,3c1.16.89,2.25,1.68,3.2,2.33,1.93,1.22,3.26,1.9,3.26,1.9a19.25,19.25,0,0,1-.42-4.25,35.18,35.18,0,0,1,.44-5.46q-6.36-4.65-12.23-9.9C96.2,312.47,96.1,312.71,96.1,312.71Z"/><path class="cls-1" d="M68.35,281a4.47,4.47,0,0,0,0,1,4.49,4.49,0,0,1-.44-.91,6.34,6.34,0,0,1-.24-2.74s0,0,0-.08q-1.42-2.24-2.77-4.53c-.2.31-.41.63-.63.92-1.53,2-1.72,4.65-1.19,7.61q.21,1.11.54,2.25c.24.75.53,1.5.85,2.25a45.35,45.35,0,0,0,2.19,4.42,41.68,41.68,0,0,0,2.61,3.92c.87,1.2,1.7,2.28,2.44,3.18,1.54,1.73,2.61,2.78,2.61,2.78A18.47,18.47,0,0,1,75,297a30.87,30.87,0,0,1,2-5.59q-4.44-5.65-8.36-11.72A5.58,5.58,0,0,0,68.35,281Z"/><path class="cls-1" d="M51,243.93l.21-.25c-.51-1.53-1-3.07-1.46-4.62a4.13,4.13,0,0,0-.85.94,2.74,2.74,0,0,0-.36.69,2.89,2.89,0,0,1,0-.84,4.74,4.74,0,0,1,.81-2.09l0-.06c-.49-1.7-1-3.4-1.41-5.12-.34.3-.68.6-1,.86-1.87,1.41-2.73,3.91-3,6.89a21.46,21.46,0,0,0,.2,4.7,48.84,48.84,0,0,0,.91,4.89c.45,1.58,1,3.11,1.46,4.52s1,2.71,1.5,3.76c1,2.12,1.73,3.45,1.73,3.45A18.17,18.17,0,0,1,51.31,258,29,29,0,0,1,54.69,253c-1.22-3-2.37-6-3.41-9.13Z"/><path class="cls-1" d="M41.65,195.91A10.76,10.76,0,0,0,40,197.57a7,7,0,0,0-.57.74s0-.34.18-.95a7.43,7.43,0,0,1,1.1-2.34,13.19,13.19,0,0,1,2.18-2.37c0-1.6,0-3.18.08-4.76a16.57,16.57,0,0,1-1.55.73,6.3,6.3,0,0,0-2.65,2.15A11.7,11.7,0,0,0,37,194.39,30,30,0,0,0,36,199q-.18,1.22-.3,2.46c0,.83-.06,1.67-.07,2.49,0,1.66,0,3.28.13,4.78a37.37,37.37,0,0,0,.45,4c.35,2.34.67,3.84.67,3.84a17.63,17.63,0,0,1,2.38-3.06,29.25,29.25,0,0,1,4.58-3.94q-.75-7.23-.86-14.64A10.58,10.58,0,0,0,41.65,195.91Z"/><path class="cls-1" d="M47.51,150.19a11.63,11.63,0,0,0-1.82,1,6.93,6.93,0,0,0-.67.49,7.88,7.88,0,0,1,.35-.8,7.06,7.06,0,0,1,1.45-1.81,11.55,11.55,0,0,1,2.61-1.76c.4-1.34.81-2.67,1.24-4a16.52,16.52,0,0,1-2.41.51,5.82,5.82,0,0,0-2.95,1.35,13,13,0,0,0-2.64,3,29.86,29.86,0,0,0-2.15,4.11A35.91,35.91,0,0,0,38.87,157a44.51,44.51,0,0,0-1.14,4.63c-.28,1.48-.51,2.84-.68,4s-.23,2.14-.3,2.82-.07,1.06-.07,1.06a16.48,16.48,0,0,1,2.91-2.28,27.12,27.12,0,0,1,5.79-2.69q1.35-7.55,3.38-14.83A9,9,0,0,0,47.51,150.19Z"/><path class="cls-1" d="M65.45,110.43a17.35,17.35,0,0,0-2.69,1,10.64,10.64,0,0,0-1.8,1.07,5.71,5.71,0,0,0-.67.52,8.28,8.28,0,0,1,.34-.81,6.59,6.59,0,0,1,1.42-1.86,10.24,10.24,0,0,1,2.75-1.8,19.61,19.61,0,0,1,2.52-.85c1-1.6,2-3.2,3.1-4.77a14.53,14.53,0,0,1-3.33-.11,5.51,5.51,0,0,0-3.1.5,13.52,13.52,0,0,0-3.21,2.18c-.54.47-1.09,1-1.62,1.54s-1,1.18-1.52,1.81a39,39,0,0,0-2.84,4c-.86,1.4-1.65,2.8-2.35,4.12s-1.24,2.59-1.72,3.66-.85,2-1.1,2.6l-.36,1a13.73,13.73,0,0,1,3.3-1.39,25.7,25.7,0,0,1,6.89-1.09q2.88-5.82,6.2-11.35Z"/><path class="cls-1" d="M96,73.58c-.28-.06-.56-.13-.83-.17a18.54,18.54,0,0,0-2.87-.31,15.8,15.8,0,0,0-2.11.08,7.61,7.61,0,0,0-.83.1,7.33,7.33,0,0,1,.69-.53,7.88,7.88,0,0,1,2.08-1,10.33,10.33,0,0,1,3.22-.4,18.15,18.15,0,0,1,2.68.37c.76-.66,1.52-1.3,2.29-1.94-.35-.06-.7-.11-1-.18a14.43,14.43,0,0,1-2.93-.88,5.29,5.29,0,0,0-3-.28,12.13,12.13,0,0,0-3.62,1.23,33,33,0,0,0-3.89,2.35c-1.3.92-2.54,2-3.77,3.07a43.57,43.57,0,0,0-3.35,3.28c-1,1.09-1.94,2.09-2.68,3-1.46,1.81-2.35,3-2.35,3A14.89,14.89,0,0,1,77.14,84a23.27,23.27,0,0,1,7.51.91A159.49,159.49,0,0,1,96,73.58Z"/><path class="cls-1" d="M128.86,50.51A19.93,19.93,0,0,0,125.7,50a12.56,12.56,0,0,0-2.31,0c-.58,0-.91.1-.91.1a8.23,8.23,0,0,1,.78-.53,7.44,7.44,0,0,1,2.36-.88,12.31,12.31,0,0,1,3.54-.15,29.92,29.92,0,0,1,3,.56q2.6-1.29,5.25-2.48a15.24,15.24,0,0,1-3.59-2,5,5,0,0,0-2.75-1,14.33,14.33,0,0,0-3.76.25A22.93,22.93,0,0,0,123,45a39.81,39.81,0,0,0-4.45,1.85c-1.44.72-2.83,1.46-4.11,2.18s-2.39,1.49-3.36,2.12-1.75,1.18-2.28,1.57l-.83.64a12.6,12.6,0,0,1,3.33.38,23.35,23.35,0,0,1,7.2,2.93q5.22-3.25,10.69-6.1Z"/><path class="cls-1" d="M211.68,357.54s1.47.13,3.73.16c1.13,0,2.46,0,3.9-.07a38.66,38.66,0,0,0,4.54-.64,28.46,28.46,0,0,0,4.63-1.23,21.62,21.62,0,0,0,4.13-2.1,11.16,11.16,0,0,0,3.09-2.9,9,9,0,0,0,.83-1.52A158.85,158.85,0,0,1,215,352.32c-.27.53-.53,1-.78,1.47A20.35,20.35,0,0,1,211.68,357.54Z"/><path class="cls-1" d="M256.77,380.71c-1.66-1.53-3.46-3.16-5.31-4.79s-3.73-3.22-5.63-4.83-3.77-3.07-5.57-4.31a34.56,34.56,0,0,0-5.19-3,9.27,9.27,0,0,0-4.62-.92c-.71.07-1.4.14-2.07.17s-1.32,0-1.94,0c-1.25,0-2.41-.07-3.47-.16s-2-.2-2.92-.34-1.67-.37-2.37-.56a19.52,19.52,0,0,1-4.12-1.54,58.77,58.77,0,0,0,4.1,12.58,26.55,26.55,0,0,0,5.8,8.41c2.39,2.16,5.28,3.59,8.49,3.21a31.33,31.33,0,0,1,5.08-.17c.88,0,1.78.09,2.69.18l2.74.23c1.84.18,3.7.43,5.53.73s3.6.56,5.3.85,3.31.57,4.77.85,2.77.54,3.86.72c2.19.38,3.53.66,3.53.66s-1.65-1.57-4.22-3.92Zm-33.66-12.45.84.46c.5.33,1.29.7,2.15,1.23s1.93,1,3,1.65a37.44,37.44,0,0,0,3.47,1.74A35.5,35.5,0,0,0,236.1,375c1.15.43,2.21,1,3.16,1.29s1.73.71,2.3.89l.88.37-.95.08a15,15,0,0,1-2.51-.07,21.45,21.45,0,0,1-3.5-.64,38.43,38.43,0,0,1-3.85-1.41,40.39,40.39,0,0,1-3.54-2.12,20.92,20.92,0,0,1-2.74-2.34,15.74,15.74,0,0,1-1.68-1.93Zm29.76,14.83a20.81,20.81,0,0,0-3.43-.92,36.13,36.13,0,0,0-4.95-.48c-1.83-.11-3.81-.1-5.83-.15a35.66,35.66,0,0,1-6-.89,15.46,15.46,0,0,1-4.87-2.26,11,11,0,0,1-2.7-2.71,10.07,10.07,0,0,1-.53-.92l-.18-.34a10.33,10.33,0,0,0,1,.95,14.18,14.18,0,0,0,3,1.87,19.55,19.55,0,0,0,4.68,1.43,33.76,33.76,0,0,0,5.66.54c2,.16,4,.25,5.87.46a22.73,22.73,0,0,1,5.12,1.24,13.81,13.81,0,0,1,3.31,1.78c.71.57,1.07.93,1.07.93A13.62,13.62,0,0,0,252.87,383.09Z"/><path class="cls-1" d="M257.84,346.94a18.77,18.77,0,0,1-1.51,4.09l1-.19a23.51,23.51,0,0,0,2.63-.68c1.09-.34,2.35-.76,3.71-1.27a30.13,30.13,0,0,0,4.2-1.89,37.56,37.56,0,0,0,4.12-2.53,18.53,18.53,0,0,0,3.43-3.16,12.78,12.78,0,0,0,2.21-3.59,8,8,0,0,0,.5-3.65,159.92,159.92,0,0,1-19.51,8.77A37.57,37.57,0,0,1,257.84,346.94Z"/><path class="cls-1" d="M309.92,312.71l-.27-.63q-5.88,5.24-12.24,9.9a32.86,32.86,0,0,1,.44,5.46,19.25,19.25,0,0,1-.42,4.25s1.33-.68,3.27-1.9c.94-.65,2-1.44,3.19-2.33a35.76,35.76,0,0,0,3.55-3,41.4,41.4,0,0,0,3.27-3.62,18.69,18.69,0,0,0,2.5-4c1.26-2.73,1.76-5.39.71-7.86-.08-.21-.15-.43-.23-.64-1.23,1.18-2.48,2.33-3.74,3.47C309.93,312.38,309.92,312.71,309.92,312.71Z"/><path class="cls-1" d="M338.34,278.34a6.37,6.37,0,0,1-.23,2.74,5.28,5.28,0,0,1-.44.91,5,5,0,0,0,0-1,5.51,5.51,0,0,0-.24-1.35q-3.93,6.06-8.37,11.72a30.87,30.87,0,0,1,2,5.59,18.47,18.47,0,0,1,.63,4.09s1.07-1.05,2.62-2.78c.74-.9,1.56-2,2.44-3.18a43.7,43.7,0,0,0,2.6-3.92,45.35,45.35,0,0,0,2.19-4.42c.32-.75.61-1.5.86-2.25a21.47,21.47,0,0,0,.53-2.25c.54-3,.34-5.63-1.19-7.61-.22-.29-.42-.61-.63-.92q-1.35,2.29-2.77,4.53A.31.31,0,0,1,338.34,278.34Z"/><path class="cls-1" d="M356.72,237.76a4.74,4.74,0,0,1,.81,2.09,2.89,2.89,0,0,1,0,.84,2.74,2.74,0,0,0-.36-.69,4.13,4.13,0,0,0-.85-.94q-.69,2.33-1.46,4.62l.21.25-.28,0c-1,3.09-2.19,6.13-3.41,9.13a28.4,28.4,0,0,1,3.38,4.94,18.17,18.17,0,0,1,1.57,3.69s.74-1.33,1.73-3.45a39.19,39.19,0,0,0,1.5-3.76c.5-1.41,1-2.94,1.46-4.52a48.89,48.89,0,0,0,.92-4.89,21.44,21.44,0,0,0,.19-4.7c-.25-3-1.11-5.48-3-6.89-.33-.26-.67-.56-1-.86-.44,1.72-.91,3.42-1.41,5.12Z"/><path class="cls-1" d="M390.17,227.47l-5.25,3.17c-1.86,1.12-3.74,2.29-5.54,3.49s-3.46,2.45-5.09,3.69a27.43,27.43,0,0,0-4.12,3.83,14.32,14.32,0,0,0-1.44,2,10.76,10.76,0,0,0-1,2c-.61,1.71-1.19,3.25-1.78,4.65.13-.38.26-.74.38-1.12,1.06-3.48,2.22-6.93,3.06-10.49a173.88,173.88,0,0,0,4.23-21.55l.3-2.62a35.36,35.36,0,0,0,7.51-2.37,20.24,20.24,0,0,0,6.86-4.86,12.23,12.23,0,0,0,3.32-8.11,41.84,41.84,0,0,1,.46-5.08c.27-1.75.48-3.55.83-5.35s.72-3.59,1.07-5.37.74-3.48,1.13-5.11l1-4.56c.32-1.39.61-2.64.86-3.68l.76-3.35s-1.26,1.35-3.2,3.51-4.62,5.09-7.32,8.27c-1.39,1.59-2.78,3.25-4.09,4.91-.66.84-1.29,1.67-1.9,2.51s-1.23,1.66-1.78,2.49a29.17,29.17,0,0,0-2.71,4.87,12.64,12.64,0,0,0-1.23,4.6c-.06,1.48-.14,2.86-.28,4.14-.11.78-.23,1.51-.35,2.22.09-1.17.17-2.33.21-3.49l.12-5.49c0-.93.07-1.8,0-2.77l-.05-2.71c-.05-1.81,0-3.6-.18-5.44s-.23-3.64-.34-5.46-.35-3.61-.53-5.4c-.28-2.45-.62-4.87-1-7.28l.6-.34a32.67,32.67,0,0,0,5.49-4,20.35,20.35,0,0,0,4.94-6.57,14.62,14.62,0,0,0,1.13-4.12,11.63,11.63,0,0,0-.31-4.55,47.29,47.29,0,0,1-1-5c-.3-1.73-.53-3.52-.71-5.34s-.34-3.62-.51-5.41-.27-3.52-.39-5.18c-.31-3.28-.41-6.25-.61-8.33s-.23-3.38-.23-3.38-.78,1.62-1.93,4.19l-2,4.48c-.75,1.67-1.54,3.49-2.31,5.37s-1.6,3.85-2.33,5.8-1.35,3.88-1.94,5.78A29.72,29.72,0,0,0,370,145a14,14,0,0,0,.16,4.74,44.89,44.89,0,0,1,1,5.26c-.19-.89-.36-1.78-.57-2.66a184.9,184.9,0,0,0-6-20c-1.57-4.27-3.29-8.4-5.14-12.42a32.11,32.11,0,0,0,4.14-5.63,19.7,19.7,0,0,0,2.6-7.55,14.28,14.28,0,0,0-.12-4.22,14,14,0,0,0-1.59-4.2c-.77-1.39-1.55-2.88-2.3-4.44S360.7,90.65,360,89s-1.38-3.31-2-5-1.27-3.22-1.86-4.74-1.1-3-1.62-4.25l-1.31-3.4-.85-2.3-.31-.82s-.23,1.74-.57,4.43c-.16,1.36-.34,3-.53,4.69s-.37,3.69-.57,5.65-.33,4-.42,6-.19,4.06-.12,6a37.8,37.8,0,0,0,.51,5.42,15.35,15.35,0,0,0,1.52,4.45c.42.76.8,1.49,1.17,2.2-2-3.51-4-6.91-6.17-10.16a158.62,158.62,0,0,0-10.78-14.58c-.87-1-1.72-2-2.57-3l.14-.29a28.65,28.65,0,0,0,2-6,20.3,20.3,0,0,0,.2-7.72,14,14,0,0,0-4-7.4,44.57,44.57,0,0,1-3.4-3.55c-1.13-1.28-2.29-2.58-3.4-4-.54-.68-1.09-1.38-1.64-2.06l-1.65-2-3.07-3.94c-2-2.45-3.67-4.74-4.94-6.3l-2-2.55s.27,1.64.77,4.18,1.14,6.1,2,9.79c.43,1.83.84,3.82,1.35,5.71s1.07,3.74,1.65,5.55a30.08,30.08,0,0,0,2.08,4.89,14.28,14.28,0,0,0,2.68,3.79c.65.61,1.24,1.22,1.8,1.83a154.84,154.84,0,0,0-22.06-18c-1.44-1-2.86-1.87-4.25-2.74a27.9,27.9,0,0,0,.17-6.49,18.24,18.24,0,0,0-2.08-7.08,14.86,14.86,0,0,0-2.37-3.24,14.57,14.57,0,0,0-3.53-2.52c-.68-.36-1.37-.75-2.07-1.15s-1.43-.8-2.14-1.23c-1.44-.84-2.87-1.82-4.32-2.75s-2.88-1.9-4.27-2.86-2.76-1.85-4-2.74-2.47-1.75-3.56-2.48l-2.88-2-2.6-1.78s.72,1.4,1.92,3.56c.61,1.09,1.33,2.37,2.1,3.77l2.6,4.54c.92,1.59,1.92,3.17,2.94,4.77s2.07,3.19,3.16,4.63a39.39,39.39,0,0,0,3.37,3.94,16.9,16.9,0,0,0,3.64,2.76,55.4,55.4,0,0,1,6.4,3.91l.08.06c-2.77-1.5-5.39-2.81-7.81-3.93a140.53,140.53,0,0,0-13.35-5.25c-1.56-.51-2.77-.88-3.59-1.13l-1.23-.38,1.18.54c.77.36,1.93.89,3.44,1.54,3,1.35,7.35,3.49,12.76,6.39a190.82,190.82,0,0,1,18.76,11.75,168,168,0,0,1,22,18.55l2.81,2.86c.94,1,1.84,2,2.77,3,1.89,2,3.65,4.21,5.51,6.39.91,1.1,1.77,2.26,2.67,3.4s1.8,2.31,2.65,3.52l2.63,3.63L344,99.26a169.13,169.13,0,0,1,17.35,34.34,180.1,180.1,0,0,1,6,19.58,177.47,177.47,0,0,1,3.58,20.7l.51,5.29c.11,1.77.21,3.54.32,5.31s.12,3.58.16,5.38l.05,2.71c0,.83,0,1.77,0,2.65l-.13,5.38c-.06,1.79-.24,3.58-.35,5.37-.19,3.59-.7,7.16-1.12,10.72a171,171,0,0,1-4.4,21c-.87,3.47-2.05,6.83-3.12,10.21-.55,1.68-1.23,3.32-1.83,5s-1.22,3.31-1.94,4.91-1.39,3.22-2.08,4.83-1.52,3.14-2.28,4.7c-1.46,3.16-3.22,6.12-4.85,9.14a167.84,167.84,0,0,1-11.14,16.86c-1.93,2.69-4.05,5.19-6.09,7.71-1,1.28-2.13,2.43-3.18,3.64s-2.11,2.42-3.22,3.54c-2.24,2.24-4.35,4.57-6.66,6.62L316.11,318l-3.46,2.94A163.2,163.2,0,0,1,259,351.32c-2,.77-3.93,1.31-5.81,1.93l-2.76.88c-.91.29-1.82.48-2.7.74l-5.06,1.42-4.67,1.1c-3,.78-5.62,1.21-7.94,1.71-1.16.23-2.24.47-3.23.65l-2.72.45c-1.63.26-2.87.51-3.71.66l-1.27.24,1.29,0c.85,0,2.12.09,3.76.11l2.75.06c1,0,2.12-.09,3.32-.13,2.41-.1,5.18-.23,8.25-.63a125.62,125.62,0,0,0,21.93-4.44l.16-.05.31.5a49.18,49.18,0,0,0,5.23,6.95,26,26,0,0,0,7.72,6,11.12,11.12,0,0,0,8.92.39,40.55,40.55,0,0,1,4.78-1.69c1.68-.49,3.48-.86,5.28-1.22s3.61-.74,5.41-1,3.6-.5,5.25-.79,3.27-.49,4.72-.67l3.84-.48c2.16-.32,3.5-.47,3.5-.47s-1.95-.94-5-2.32l-5.27-2.43c-1.95-.9-4.06-1.85-6.22-2.78l-3.27-1.38c-1.11-.48-2.22-.94-3.31-1.38-2.2-.88-4.36-1.65-6.39-2.24a32,32,0,0,0-5.72-1.2,9.94,9.94,0,0,0-4,.37l4-1.76,7.05-3.54,7.17-4.06c2.35-1.53,4.79-3,7.2-4.65l1.27-.9.09.08a42.92,42.92,0,0,0,6.7,4.82,23.94,23.94,0,0,0,8.78,3.18,11.05,11.05,0,0,0,8.51-2.35c1.27-1,2.61-2.05,4.09-3s3.05-1.88,4.67-2.74,3.2-1.78,4.82-2.6,3.26-1.55,4.74-2.33c3-1.51,5.74-2.78,7.73-3.68l3.15-1.5s-2.05-.28-5.2-.63-7.53-.93-12-1.33c-2.23-.18-4.6-.42-6.87-.55s-4.49-.19-6.54-.1a28.14,28.14,0,0,0-5.71.64,11.35,11.35,0,0,0-2.89,1.09,167.22,167.22,0,0,0,20.61-21.66l.22.1a38.27,38.27,0,0,0,7.43,2.44,22.57,22.57,0,0,0,9,.26,11.45,11.45,0,0,0,7.36-4.81c.94-1.33,2-2.7,3.08-4.06s2.37-2.69,3.67-4,2.54-2.66,3.84-3.92,2.62-2.47,3.83-3.63c2.4-2.35,4.61-4.38,6.23-5.84.82-.72,1.42-1.33,1.87-1.74l.68-.63-5,1c-3.05.61-7.17,1.45-11.42,2.46-2.11.52-4.38,1-6.5,1.59s-4.21,1.22-6.09,1.94a26.82,26.82,0,0,0-5.16,2.36,12,12,0,0,0-3.49,3.14l0,0c2.19-3.43,4.29-7,6.33-10.58,1.6-3.13,3.35-6.22,4.78-9.49.74-1.62,1.54-3.22,2.23-4.87l1.3-3.13.57.06a35.46,35.46,0,0,0,7.46,0,21.49,21.49,0,0,0,8.28-2.51,11.78,11.78,0,0,0,5.57-6.8c.51-1.55,1.18-3.14,1.84-4.78s1.48-3.28,2.34-4.92l2.55-4.87c.85-1.59,1.72-3.14,2.57-4.6s1.57-2.86,2.29-4.11l1.89-3.3,1.3-2.2c.31-.51.46-.8.46-.8l-4.3,2.42Zm-1.39-38.22c-.18.43-.35,1.1-.65,1.82s-.56,1.62-.94,2.49-.73,1.85-1,2.82-.76,1.9-1.06,2.81-.69,1.74-.92,2.5-.56,1.35-.7,1.8l-.31.69s-.05-.27-.13-.75a12.33,12.33,0,0,1-.1-2,17.43,17.43,0,0,1,.28-2.79c.23-1,.52-2.06.85-3.1s.91-2,1.39-2.88a17.14,17.14,0,0,1,1.6-2.27,12.3,12.3,0,0,1,1.37-1.4l.58-.47Zm-8.64,5a16.54,16.54,0,0,1,.6-2.1,23.59,23.59,0,0,1,1.22-2.82c.54-1,1.16-2,1.8-3s1.49-1.85,2.22-2.68a24.67,24.67,0,0,1,2.22-2,17.22,17.22,0,0,1,1.75-1.22l.71-.4s-.14.26-.41.72-.63,1.1-1.13,1.81-1,1.59-1.65,2.44-1.28,1.8-1.9,2.75-1.36,1.82-2,2.7-1.27,1.65-1.75,2.37-1,1.24-1.32,1.66l-.55.62Zm-.42-57,.49-.62s0,.29-.09.79-.14,1.21-.32,2-.28,1.77-.52,2.76-.44,2.06-.61,3.13-.49,2.11-.67,3.11-.47,1.93-.61,2.74-.4,1.5-.5,2-.23.76-.23.76-.08-.28-.21-.77a14.81,14.81,0,0,1-.32-2.06,18.41,18.41,0,0,1-.06-2.92c.09-1.07.23-2.2.4-3.33s.61-2.2.94-3.21a20.14,20.14,0,0,1,1.21-2.65A13.35,13.35,0,0,1,379.72,137.28ZM375,139.64c.12-.92.16-2,.39-3.14s.46-2.34.69-3.55.67-2.37,1-3.47.75-2.11,1.06-3,.7-1.56.91-2.06l.41-.77s0,.32,0,.87,0,1.35-.11,2.27-.17,2-.39,3.15-.46,2.34-.69,3.55-.66,2.36-1,3.47-.75,2.1-1,3-.71,1.56-.92,2.06l-.41.77s0-.32,0-.88S374.87,140.56,375,139.64ZM294.31,40.69a20.14,20.14,0,0,0-2.11-2.57,30,30,0,0,0-3.45-3,40.91,40.91,0,0,0-4.37-3l-4.52-3a36.91,36.91,0,0,1-3.79-3,19.67,19.67,0,0,1-2.35-2.54c-.5-.67-.76-1.07-.76-1.07s.38.28,1.06.74,1.64,1.06,2.79,1.8,2.58,1.45,4.06,2.32l4.69,2.75A42.4,42.4,0,0,1,290,33.51a20.27,20.27,0,0,1,3.2,3.79,13.36,13.36,0,0,1,1.52,3.18c.13.4.2.73.26,1s.08.33.08.33S294.8,41.35,294.31,40.69Zm37.15,29a8.5,8.5,0,0,1-.44,1.18,8.62,8.62,0,0,0,0-1.24,12,12,0,0,0-.57-3,15.84,15.84,0,0,0-1.85-3.85,25.84,25.84,0,0,0-3.07-3.9c-1.13-1.34-2.27-2.69-3.34-3.94A22.76,22.76,0,0,1,319.69,51a13.15,13.15,0,0,1-1.09-3.15c-.13-.8-.16-1.25-.16-1.25s.19.42.57,1.09a21.48,21.48,0,0,0,1.75,2.61,39.13,39.13,0,0,0,2.9,3.28l3.55,3.74a27.52,27.52,0,0,1,3.07,4.42,13.36,13.36,0,0,1,1.42,4.61A9.2,9.2,0,0,1,331.46,69.7Zm22.75,28.44c0,.86-.09,1.6-.09,2.1l-.08.82-.35-.73a15.64,15.64,0,0,1-.73-2,21.29,21.29,0,0,1-.67-2.93c-.14-1.08-.26-2.25-.34-3.42s.07-2.34.15-3.43a25.34,25.34,0,0,1,.52-3,16.63,16.63,0,0,1,.62-2c.2-.48.31-.76.31-.76s.05.3.12.81.17,1.24.21,2.1.17,1.85.17,2.91.06,2.18.14,3.3,0,2.25,0,3.3S354.18,97.29,354.21,98.14Zm4,7.58c-.28-1.09-.54-2.26-.76-3.45s-.15-2.41-.16-3.54a20.48,20.48,0,0,1,.33-3.07,14.07,14.07,0,0,1,.53-2.12l.29-.78.14.82c0,.52.22,1.26.3,2.12s.28,1.87.36,2.94.25,2.19.44,3.31.25,2.26.43,3.32.25,2.07.42,2.93.17,1.61.26,2.12.07.83.07.83l-.48-.67a15,15,0,0,1-1.06-1.89A19.37,19.37,0,0,1,358.17,105.72ZM296.66,361.19a14.18,14.18,0,0,1,3.85.43,11.61,11.61,0,0,1,1.39.48,11,11,0,0,0-1.44,0,20.46,20.46,0,0,0-3.67.43,36,36,0,0,0-5,1.44c-1.82.6-3.76,1.37-5.75,2.09a35.74,35.74,0,0,1-6.15,1.37,15.37,15.37,0,0,1-5.55-.47,10.48,10.48,0,0,1-3.54-1.72c-.36-.3-.64-.55-.82-.73l-.27-.27.34.17a10,10,0,0,0,1,.43,13.26,13.26,0,0,0,3.56.83,19,19,0,0,0,5.07-.25,32.81,32.81,0,0,0,5.72-1.59c2-.59,4-1.27,5.88-1.8A24.07,24.07,0,0,1,296.66,361.19Zm-18.69.15,2.17-.54,2.22-.23a16.18,16.18,0,0,1,2,0,9.64,9.64,0,0,1,1.42.18l.55.13-.47.31a12.2,12.2,0,0,1-1.29.67,17.6,17.6,0,0,1-1.86.69l-2.17.54-2.22.24a14.27,14.27,0,0,1-2,0,11.23,11.23,0,0,1-1.42-.18l-.55-.13.47-.32a10.65,10.65,0,0,1,1.29-.66A16,16,0,0,1,278,361.34Zm51.17-28.23c1.71-1,3.41-2.09,5.09-3a20.22,20.22,0,0,1,4.94-1.91,11.56,11.56,0,0,1,3.72-.25,11.21,11.21,0,0,1,1.37.27,10.37,10.37,0,0,0-1.36.18,16.63,16.63,0,0,0-3.36,1.05,30.13,30.13,0,0,0-4.35,2.42c-1.56,1-3.18,2.15-4.9,3.27a26.73,26.73,0,0,1-5.55,2.56,12.22,12.22,0,0,1-5.37.33,8.35,8.35,0,0,1-3.5-1.44,8.7,8.7,0,0,1-.8-.7l-.26-.26.33.17a8.2,8.2,0,0,0,.93.39,9.84,9.84,0,0,0,3.4.53,13.89,13.89,0,0,0,4.69-.95A24.76,24.76,0,0,0,329.14,333.11Zm-9.69-1.91a15.32,15.32,0,0,0,2.48-.25c.77-.17,1.55-.2,2.19-.4s1.22-.22,1.61-.35l.64-.13-.43.53a7.19,7.19,0,0,1-1.33,1.16,9.92,9.92,0,0,1-2.21,1.15,9.79,9.79,0,0,1-5.63.41,9.37,9.37,0,0,1-2.35-.82,7.75,7.75,0,0,1-1.48-1l-.49-.46.66,0c.39.07,1,.05,1.64.12s1.43,0,2.22.07A14.83,14.83,0,0,0,319.45,331.2Zm34.86-41.08a19.79,19.79,0,0,1,1.86-1.65,28.61,28.61,0,0,1,2.86-2c1.1-.62,2.3-1.26,3.52-1.86s2.52-.95,3.72-1.35a27.06,27.06,0,0,1,3.37-.76,20.5,20.5,0,0,1,2.43-.26H373l-.83.45c-.53.24-1.27.68-2.18,1.07s-1.94,1-3.07,1.42-2.33,1-3.5,1.59-2.41,1-3.53,1.53-2.21.89-3.1,1.32-1.72.66-2.26.9l-.88.31S353.89,290.56,354.31,290.12Zm-4.7,11.29a9.93,9.93,0,0,0,2.87-.67,14.18,14.18,0,0,0,3.55-2,22.7,22.7,0,0,0,3.51-3.33c1.18-1.19,2.34-2.48,3.48-3.66a22.86,22.86,0,0,1,3.49-2.89,12,12,0,0,1,2.86-1.42,10.76,10.76,0,0,1,1.16-.29,11.33,11.33,0,0,0-1,.7,20.69,20.69,0,0,0-2.28,2c-.92.86-1.82,2-2.86,3.25s-2.11,2.57-3.28,3.9a24.8,24.8,0,0,1-4,3.39,11.66,11.66,0,0,1-4.33,1.63,8,8,0,0,1-3.21-.15,7.79,7.79,0,0,1-1.13-.43A7,7,0,0,0,349.61,301.41ZM384,241.69c-.32.37-.72,1-1.26,1.62s-1.09,1.45-1.77,2.21-1.34,1.64-2,2.52-1.39,1.68-2,2.51-1.26,1.55-1.74,2.24-1,1.2-1.28,1.6-.53.6-.53.6l.14-.8a13.9,13.9,0,0,1,.57-2.05,19,19,0,0,1,1.23-2.72c.55-.94,1.19-1.91,1.86-2.86s1.55-1.71,2.33-2.46a18.33,18.33,0,0,1,2.33-1.78,13.53,13.53,0,0,1,1.82-1l.73-.3Zm5.06-9c-.48.3-1.14.83-2,1.35s-1.69,1.25-2.68,1.9-2,1.45-3,2.27a36.26,36.26,0,0,0-2.9,2.36c-.87.82-1.79,1.48-2.48,2.17s-1.37,1.18-1.78,1.59l-.7.6.35-.87a15.56,15.56,0,0,1,1.18-2.18,21.73,21.73,0,0,1,2.09-2.79c.87-.92,1.85-1.85,2.88-2.74s2.22-1.51,3.31-2.14a21.49,21.49,0,0,1,3.14-1.35,15.49,15.49,0,0,1,2.33-.59l.91-.12Z"/><path class="cls-1" d="M365.29,195a7.43,7.43,0,0,1,1.1,2.34,7,7,0,0,1,.18.95,7,7,0,0,0-.57-.74,10.76,10.76,0,0,0-1.63-1.66,10.58,10.58,0,0,0-1.29-1q-.1,7.41-.86,14.64a29.25,29.25,0,0,1,4.58,3.94,17,17,0,0,1,2.38,3.06s.32-1.5.67-3.84a39.87,39.87,0,0,0,.46-4c.08-1.5.13-3.12.12-4.78,0-.82,0-1.66-.07-2.49s-.18-1.65-.3-2.46a30,30,0,0,0-1-4.58,11.7,11.7,0,0,0-1.81-3.62,6.3,6.3,0,0,0-2.65-2.15,14.49,14.49,0,0,1-1.55-.74c.05,1.59.08,3.17.08,4.77A13.19,13.19,0,0,1,365.29,195Z"/><path class="cls-1" d="M359.21,149.1a7,7,0,0,1,1.44,1.81c.25.51.36.8.36.8a8.31,8.31,0,0,0-.68-.49,11.63,11.63,0,0,0-1.82-1,8.55,8.55,0,0,0-1.25-.51c1.35,4.85,2.49,9.8,3.38,14.83a27.23,27.23,0,0,1,5.8,2.69,16.6,16.6,0,0,1,2.9,2.28s0-.38-.07-1.06-.11-1.65-.3-2.82-.39-2.53-.68-4a42.12,42.12,0,0,0-1.14-4.63,35.91,35.91,0,0,0-1.65-4.67,29.86,29.86,0,0,0-2.15-4.11,13.17,13.17,0,0,0-2.63-3,5.85,5.85,0,0,0-3-1.35,16.8,16.8,0,0,1-2.41-.51c.43,1.33.84,2.66,1.24,4A11.86,11.86,0,0,1,359.21,149.1Z"/><path class="cls-1" d="M341.23,108.53a10.17,10.17,0,0,1,2.74,1.8,6.41,6.41,0,0,1,1.42,1.86,6,6,0,0,1,.34.81,5.71,5.71,0,0,0-.67-.52,10.64,10.64,0,0,0-1.8-1.07,17,17,0,0,0-2.69-1l-.21-.05q3.31,5.52,6.2,11.35a25.85,25.85,0,0,1,6.9,1.09,13.75,13.75,0,0,1,3.29,1.39s-.13-.36-.35-1-.63-1.52-1.1-2.6-1-2.34-1.73-3.66-1.49-2.72-2.34-4.12a40.73,40.73,0,0,0-2.85-4c-.5-.63-1-1.24-1.52-1.81s-1.08-1.07-1.62-1.54A13.52,13.52,0,0,0,342,103.3a5.5,5.5,0,0,0-3.1-.5,14.53,14.53,0,0,1-3.33.11c1.06,1.57,2.09,3.17,3.1,4.77A20.3,20.3,0,0,1,341.23,108.53Z"/><path class="cls-1" d="M310.64,71.4a10.29,10.29,0,0,1,3.22.4,8,8,0,0,1,2.09,1,7.87,7.87,0,0,1,.68.53,7.61,7.61,0,0,0-.83-.1,15.8,15.8,0,0,0-2.11-.08,18.66,18.66,0,0,0-2.87.31c-.27,0-.55.11-.82.17q6,5.36,11.38,11.29a23.21,23.21,0,0,1,7.5-.91,15.06,15.06,0,0,1,3.42.49s-.9-1.23-2.36-3c-.74-.9-1.67-1.9-2.68-3a43.57,43.57,0,0,0-3.35-3.28,47.26,47.26,0,0,0-3.77-3.07,32.91,32.91,0,0,0-3.88-2.35,12.27,12.27,0,0,0-3.63-1.23,5.29,5.29,0,0,0-3,.28,14.24,14.24,0,0,1-2.93.88c-.33.07-.68.12-1,.18.77.64,1.54,1.28,2.29,1.94A18.15,18.15,0,0,1,310.64,71.4Z"/><path class="cls-1" d="M276.86,48.51a12.31,12.31,0,0,1,3.54.15,7.44,7.44,0,0,1,2.36.88,8.23,8.23,0,0,1,.78.53s-.33-.06-.91-.1a12.55,12.55,0,0,0-2.31,0,19.93,19.93,0,0,0-3.16.54l-.32.08q5.48,2.85,10.69,6.1a23.54,23.54,0,0,1,7.2-2.93,12.6,12.6,0,0,1,3.33-.38l-.83-.64c-.53-.39-1.32-.92-2.28-1.57s-2.09-1.38-3.36-2.12-2.67-1.46-4.11-2.18A39.66,39.66,0,0,0,283,45a23,23,0,0,0-4.34-1.2,14.33,14.33,0,0,0-3.76-.25,5,5,0,0,0-2.75,1,14.85,14.85,0,0,1-3.59,2q2.65,1.19,5.25,2.48A30.45,30.45,0,0,1,276.86,48.51Z"/><path class="cls-1" d="M258.63,342.84A160.2,160.2,0,0,0,297.41,322q6.36-4.65,12.24-9.9l.3-.27c1.26-1.14,2.51-2.29,3.74-3.47a159.37,159.37,0,0,0,15.37-17q4.44-5.65,8.37-11.72c.3-.46.6-.93.89-1.4q1.43-2.24,2.77-4.53A158.76,158.76,0,0,0,351.33,253c1.22-3,2.37-6,3.41-9.13a1.72,1.72,0,0,1,.07-.21q.76-2.3,1.46-4.62c.14-.45.28-.9.41-1.36.5-1.7,1-3.4,1.41-5.12a158.51,158.51,0,0,0,4.13-23q.76-7.23.86-14.64c0-.75,0-1.51,0-2.27v0c0-1.6,0-3.18-.08-4.77a160.48,160.48,0,0,0-2.39-23.37c-.89-5-2-10-3.38-14.83-.22-.79-.44-1.57-.67-2.34-.4-1.34-.81-2.67-1.24-4a158.72,158.72,0,0,0-8.79-21.61q-2.88-5.82-6.2-11.35c-.54-.91-1.1-1.8-1.66-2.7-1-1.6-2-3.2-3.1-4.77a162,162,0,0,0-14.22-18Q316,78.94,310,73.58c-.68-.61-1.35-1.21-2-1.81s-1.52-1.3-2.29-1.94a159.83,159.83,0,0,0-18.14-13.14q-5.2-3.25-10.69-6.1c-1-.52-2-1-3-1.52q-2.6-1.29-5.25-2.48a160.44,160.44,0,0,0-131.18,0q-2.65,1.19-5.25,2.48c-1,.5-2,1-3,1.52q-5.48,2.85-10.69,6.1a159.83,159.83,0,0,0-18.14,13.14c-.77.64-1.53,1.28-2.29,1.94S96.7,73,96,73.58A159.49,159.49,0,0,0,84.65,84.87a162.12,162.12,0,0,0-14.23,18c-1.06,1.57-2.09,3.17-3.1,4.77-.56.9-1.11,1.79-1.66,2.7q-3.31,5.52-6.2,11.35a158.72,158.72,0,0,0-8.79,21.61c-.43,1.33-.84,2.66-1.24,4-.23.77-.45,1.55-.67,2.34q-2,7.27-3.38,14.83A160.48,160.48,0,0,0,43,187.89c-.05,1.58-.08,3.16-.08,4.76v0c0,.76,0,1.52,0,2.27q.11,7.41.86,14.64a159.87,159.87,0,0,0,4.13,23c.44,1.72.92,3.42,1.41,5.12.14.46.27.91.41,1.36.47,1.55,1,3.09,1.46,4.62a1.72,1.72,0,0,1,.07.21c1,3.09,2.19,6.13,3.41,9.13a158.76,158.76,0,0,0,10.24,20.71q1.35,2.29,2.77,4.53c.3.47.59.94.9,1.4q3.91,6.06,8.36,11.72a160.45,160.45,0,0,0,15.37,17c1.23,1.18,2.48,2.33,3.75,3.47l.3.27q5.87,5.24,12.23,9.9A159.49,159.49,0,0,0,191,352.32q5.94.45,12,.45t12-.45a160.26,160.26,0,0,0,43.62-9.48ZM52.56,192.67c0-83,67.49-150.45,150.45-150.45s150.45,67.49,150.45,150.45S286,343.12,203,343.12,52.56,275.63,52.56,192.67Z"/><path class="cls-1" d="M203,336.14A143.69,143.69,0,1,0,59.33,192.46,143.69,143.69,0,0,0,203,336.14Z"/><path class="cls-2" d="M171.21,301.89h43.51v-86h36.72l7.25-43.48H214.9V143h43.79V99.47H214.9a43.55,43.55,0,0,0-43.69,43.41v29.56h-29v43.48h29Z"/></svg>