<?xml version="1.0" encoding="utf-8"?>
<!-- Generator: Adobe Illustrator 26.0.3, SVG Export Plug-In . SVG Version: 6.00 Build 0)  -->
<svg version="1.1" id="Слой_1" xmlns="http://www.w3.org/2000/svg" xmlns:xlink="http://www.w3.org/1999/xlink" x="0px" y="0px"
	 viewBox="0 0 406 406" style="enable-background:new 0 0 406 406;" xml:space="preserve">
<style type="text/css">
	.st0{fill:#12100B;}
	.st1{fill:#FFFFFF;}
</style>
<path class="st0" d="M171.1,350.9c0.8,1.2,1.9,2.1,3.1,2.9c1.3,0.8,2.7,1.5,4.1,2.1c1.5,0.5,3.1,0.9,4.6,1.2c1.5,0.3,3,0.5,4.5,0.6
	c1.4,0.1,2.8,0.1,3.9,0.1c2.3,0,3.7-0.2,3.7-0.2c-1-1.2-1.8-2.4-2.6-3.8c-0.2-0.4-0.5-0.9-0.8-1.5c-7.2-0.5-14.4-1.6-21.5-3.1
	C170.5,349.9,170.8,350.5,171.1,350.9z"/>
<path class="st0" d="M186.8,362.7c-0.9,0.1-1.9,0.2-2.9,0.3s-2.2,0.1-3.5,0.2c-0.6,0-1.3,0-1.9,0s-1.4-0.1-2.1-0.2
	c-1.6-0.1-3.2,0.2-4.6,0.9c-1.8,0.8-3.6,1.8-5.2,3c-1.8,1.2-3.7,2.7-5.6,4.3s-3.8,3.2-5.6,4.8s-3.6,3.3-5.3,4.8l-4.5,4.1
	c-2.6,2.4-4.2,3.9-4.2,3.9s1.4-0.3,3.5-0.7c1.1-0.2,2.4-0.4,3.9-0.7s3.1-0.6,4.8-0.9s3.5-0.5,5.3-0.8s3.7-0.6,5.5-0.7l2.7-0.2
	c0.9-0.1,1.8-0.1,2.7-0.2c1.7-0.1,3.4,0,5.1,0.2c3.2,0.4,6.1-1.1,8.5-3.2c2.5-2.4,4.4-5.3,5.8-8.4c1.8-4,3.2-8.2,4.1-12.6
	c-1.3,0.7-2.7,1.2-4.1,1.5C188.4,362.4,187.7,362.6,186.8,362.7z M182.2,374.9c-0.1,0.2-0.3,0.5-0.5,0.9c-0.7,1.1-1.6,2-2.7,2.7
	c-1.5,1-3.1,1.8-4.9,2.3c-2,0.5-4,0.8-6,0.9c-2,0-4,0-5.8,0.1c-1.7,0-3.3,0.2-5,0.5c-1.2,0.2-2.3,0.5-3.4,0.9
	c-0.4,0.1-0.9,0.3-1.3,0.5c0.3-0.3,0.7-0.6,1.1-0.9c1-0.7,2.1-1.3,3.3-1.8c1.7-0.6,3.4-1,5.1-1.2c1.9-0.2,3.9-0.3,5.9-0.5
	c1.9,0,3.8-0.2,5.7-0.5c1.6-0.3,3.2-0.8,4.7-1.4c1.1-0.5,2.1-1.1,3-1.9c0.4-0.3,0.7-0.6,1-1L182.2,374.9z M183.2,369.2
	c-0.5,0.7-1.1,1.3-1.7,1.9c-0.9,0.9-1.8,1.6-2.8,2.3c-1.1,0.7-2.3,1.5-3.5,2.1s-2.6,1-3.9,1.4c-1.1,0.3-2.3,0.5-3.5,0.6
	c-0.8,0.1-1.7,0.1-2.5,0.1l-1-0.1l0.9-0.4c0.6-0.2,1.4-0.6,2.3-0.9s2-0.9,3.2-1.3s2.4-1,3.5-1.6c1.2-0.5,2.3-1.1,3.5-1.7
	c1.1-0.6,2.1-1.1,3-1.7s1.6-0.9,2.1-1.2l0.9-0.5L183.2,369.2z"/>
<path class="st0" d="M129.2,337.9c0.5,1.3,1.3,2.5,2.2,3.6c1,1.2,2.2,2.3,3.4,3.2c1.3,0.9,2.7,1.8,4.1,2.5c1.4,0.7,2.8,1.4,4.2,1.9
	c1.4,0.5,2.6,0.9,3.7,1.3c0.9,0.3,1.7,0.5,2.6,0.7l1,0.2c-0.7-1.3-1.2-2.7-1.5-4.1c-0.3-1.4-0.6-2.7-0.8-4.1
	c-6.7-2.5-13.2-5.4-19.5-8.8C128.6,335.5,128.7,336.7,129.2,337.9z"/>
<path class="st0" d="M146.3,356.2h0.2c7.2,2.1,14.5,3.6,21.9,4.4c3.1,0.4,5.9,0.5,8.2,0.6c1.2,0,2.3,0.1,3.3,0.1l2.8-0.1
	c1.6,0,2.9-0.1,3.8-0.1l1.3,0l-1.3-0.2c-0.8-0.2-2.1-0.4-3.7-0.7l-2.7-0.5c-1-0.2-2.1-0.4-3.2-0.6c-2.3-0.5-5-0.9-7.9-1.7l-4.7-1.1
	l-5.1-1.4c-0.9-0.3-1.8-0.5-2.7-0.8l-2.8-0.9c-1.9-0.6-3.8-1.2-5.8-1.9c-19.7-6.6-37.9-16.9-53.7-30.4l-3.4-2.9l-3.4-3.1
	c-2.3-2-4.4-4.4-6.7-6.6c-1.1-1.1-2.1-2.4-3.2-3.5s-2.2-2.4-3.2-3.6c-2-2.5-4.2-5-6.1-7.7c-4-5.4-7.8-11-11.1-16.9
	c-1.6-3-3.4-6-4.8-9.1c-0.8-1.6-1.6-3.1-2.3-4.7s-1.4-3.2-2.1-4.8s-1.3-3.3-1.9-4.9s-1.3-3.3-1.8-5c-1.1-3.4-2.3-6.7-3.1-10.2
	c-1.9-6.9-3.4-13.9-4.4-21c-0.4-3.6-0.9-7.1-1.1-10.7c-0.1-1.8-0.3-3.6-0.3-5.4l-0.1-5.4c0-0.9-0.1-1.8,0-2.7V190
	c0-1.8,0-3.6,0.2-5.4s0.2-3.5,0.3-5.3L36,174c1.5-13.8,4.7-27.3,9.5-40.3c4.4-12.1,10.2-23.6,17.3-34.3l2.5-3.8L68,92
	c0.8-1.2,1.8-2.4,2.7-3.5s1.8-2.3,2.7-3.4c1.8-2.2,3.6-4.4,5.5-6.4c0.9-1,1.8-2,2.8-3l2.8-2.9c6.8-6.8,14.1-13,22-18.5
	c6-4.3,12.3-8.2,18.8-11.8c5.4-2.9,9.8-5,12.8-6.4c1.5-0.7,2.7-1.2,3.4-1.5l1.2-0.5l-1.2,0.4c-0.8,0.2-2,0.6-3.6,1.1
	c-4.5,1.5-9,3.3-13.3,5.2c-2.4,1.1-5,2.4-7.8,3.9l0.1-0.1c2-1.4,4.2-2.7,6.4-3.9c1.3-0.8,2.5-1.7,3.6-2.8c1.2-1.3,2.3-2.6,3.4-4
	c1.1-1.4,2.1-3,3.2-4.6s2-3.2,2.9-4.8l2.6-4.5l2.1-3.8c1.2-2.2,1.9-3.6,1.9-3.6l-2.6,1.8l-2.9,2c-1.1,0.7-2.3,1.6-3.6,2.5
	s-2.7,1.8-4,2.7s-2.8,1.9-4.3,2.9s-2.9,1.9-4.3,2.8c-0.7,0.4-1.4,0.8-2.1,1.2s-1.4,0.8-2.1,1.1c-1.3,0.7-2.5,1.5-3.5,2.5
	c-0.9,1-1.8,2.1-2.4,3.3c-1.2,2.2-1.9,4.6-2.1,7.1c-0.2,2.2-0.1,4.3,0.2,6.5c-1.4,0.9-2.8,1.8-4.2,2.7c-7.9,5.3-15.2,11.3-22,18
	c0.6-0.6,1.1-1.2,1.8-1.8c1.1-1.1,2-2.4,2.7-3.8c0.8-1.6,1.5-3.2,2.1-4.9c0.6-1.8,1.2-3.6,1.7-5.5s0.9-3.9,1.3-5.7
	c0.9-3.7,1.5-7.3,2-9.8s0.8-4.2,0.8-4.2l-2,2.5c-1.3,1.5-2.9,3.8-4.9,6.3l-3.1,3.9l-1.6,2L81.8,51c-1.1,1.4-2.3,2.7-3.4,4
	s-2.3,2.4-3.4,3.5c-2.1,2-3.5,4.6-4,7.4c-0.4,2.6-0.4,5.2,0.2,7.7c0.4,2,1.1,4,2,5.9c0,0.1,0.1,0.2,0.1,0.3l-2.6,3
	c-3.9,4.7-7.5,9.5-10.8,14.6c-2.1,3.2-4.2,6.7-6.2,10.2c0.4-0.7,0.8-1.4,1.2-2.2c0.7-1.4,1.2-2.9,1.5-4.4c0.3-1.8,0.4-3.6,0.5-5.4
	c0.1-1.9,0-3.9-0.1-6s-0.2-4-0.4-6s-0.4-3.9-0.6-5.6s-0.4-3.3-0.5-4.7c-0.3-2.7-0.6-4.4-0.6-4.4s-0.1,0.3-0.3,0.8l-0.8,2.3
	c-0.4,1-0.8,2.1-1.3,3.4s-1,2.7-1.6,4.2s-1.2,3.1-1.9,4.8s-1.3,3.3-2,5s-1.4,3.3-2.1,4.9s-1.5,3-2.3,4.4c-0.8,1.3-1.3,2.7-1.6,4.2
	c-0.2,1.4-0.3,2.8-0.1,4.2c0.3,2.7,1.2,5.2,2.6,7.5c1.2,2,2.6,3.9,4.1,5.6c-1.8,4-3.6,8.1-5.1,12.4c-2.4,6.5-4.4,13.2-6,20
	c-0.2,0.9-0.4,1.8-0.6,2.7c0.2-1.8,0.6-3.5,1-5.3c0.3-1.6,0.4-3.2,0.2-4.7c-0.2-1.8-0.6-3.6-1.1-5.4c-0.6-1.9-1.2-3.8-1.9-5.8
	s-1.6-3.9-2.3-5.8s-1.6-3.7-2.3-5.4l-2-4.5c-1.1-2.6-1.9-4.2-1.9-4.2s-0.1,1.3-0.2,3.4s-0.3,5-0.6,8.3c-0.1,1.7-0.3,3.4-0.4,5.2
	s-0.4,3.6-0.5,5.4s-0.4,3.6-0.7,5.3c-0.2,1.7-0.6,3.4-1,5c-0.4,1.5-0.5,3-0.3,4.5c0.2,1.4,0.6,2.8,1.1,4.1c1.2,2.5,2.9,4.7,5,6.5
	c1.7,1.5,3.5,2.9,5.5,4l0.6,0.3c-0.4,2.4-0.7,4.8-1,7.3c-0.2,1.8-0.3,3.6-0.5,5.4l-0.3,5.5c-0.1,1.8-0.1,3.6-0.2,5.4l-0.1,2.7
	c0,1,0,1.9,0,2.8l0.1,5.5c0,1.2,0.1,2.3,0.2,3.5c-0.1-0.7-0.2-1.4-0.4-2.2c-0.1-1.3-0.2-2.7-0.3-4.1c-0.1-1.6-0.5-3.2-1.2-4.6
	c-0.7-1.7-1.6-3.3-2.7-4.9c-0.6-0.8-1.2-1.7-1.8-2.5s-1.2-1.7-1.9-2.5c-1.3-1.7-2.7-3.3-4.1-4.9c-2.7-3.2-5.3-6.1-7.3-8.3
	S9,166.9,9,166.9l0.8,3.4c0.2,1,0.5,2.3,0.9,3.7s0.6,2.9,1,4.6s0.8,3.4,1.1,5.1s0.7,3.6,1.1,5.4s0.6,3.6,0.8,5.4
	c0.3,1.7,0.4,3.4,0.4,5.1c0.1,3,1.3,5.9,3.3,8.1c1.9,2.1,4.3,3.7,6.9,4.9c2.4,1.1,4.9,1.9,7.5,2.4c0.1,0.9,0.2,1.7,0.3,2.6
	c1,7.3,2.4,14.5,4.2,21.6c0.8,3.6,2,7,3.1,10.5c0.1,0.4,0.3,0.7,0.4,1.1c-0.6-1.4-1.2-2.9-1.8-4.6c-0.3-0.7-0.6-1.4-1-2.1
	c-0.4-0.7-0.9-1.4-1.4-2c-1.2-1.4-2.6-2.7-4.1-3.8c-1.6-1.2-3.3-2.5-5.1-3.7s-3.7-2.4-5.5-3.5l-5.2-3.2l-4.5-2.7l-4.3-2.4
	c0,0,0.1,0.3,0.5,0.8s0.8,1.3,1.3,2.2s1.2,2,1.9,3.3s1.4,2.6,2.3,4.1s1.7,3,2.6,4.6l2.5,4.9c0.9,1.6,1.6,3.3,2.3,4.9
	s1.3,3.2,1.8,4.8c0.9,2.9,2.9,5.4,5.6,6.8c2.6,1.4,5.4,2.3,8.3,2.5c2.5,0.3,5,0.3,7.5,0l0.6-0.1l1.3,3.1c0.7,1.6,1.5,3.3,2.2,4.9
	c1.4,3.3,3.2,6.4,4.8,9.5c2,3.6,4.1,7.1,6.3,10.6l0,0c-0.9-1.3-2.1-2.3-3.5-3.1c-1.6-1-3.4-1.8-5.2-2.4c-1.9-0.7-4-1.4-6.1-1.9
	s-4.4-1.1-6.5-1.6c-4.2-1-8.4-1.9-11.4-2.5l-5-1l0.7,0.6c0.4,0.4,1,1,1.9,1.7c1.6,1.5,3.8,3.5,6.2,5.8c1.2,1.2,2.5,2.4,3.8,3.6
	s2.6,2.6,3.8,3.9s2.5,2.6,3.7,4s2.2,2.7,3.1,4.1c1.7,2.5,4.4,4.3,7.4,4.8c3,0.5,6,0.4,9-0.3c2.6-0.6,5.1-1.4,7.5-2.4l0.2-0.1
	c6.2,7.8,13.1,15.1,20.6,21.7c-0.9-0.5-1.9-0.9-2.9-1.1c-1.9-0.4-3.8-0.6-5.7-0.6c-2.2-0.1-4.4,0-6.6,0.1c-2.3,0.1-4.6,0.4-6.9,0.5
	c-4.5,0.4-8.8,0.9-12,1.3s-5.2,0.6-5.2,0.6l3.1,1.5c2,0.9,4.7,2.2,7.7,3.7c1.5,0.8,3.1,1.5,4.7,2.3s3.2,1.7,4.8,2.6s3.2,1.8,4.7,2.7
	s2.8,2,4.1,3c2.4,1.9,5.5,2.8,8.5,2.4c3.1-0.5,6-1.6,8.7-3.2c2.4-1.4,4.6-3,6.7-4.8l0.1-0.1l1.3,0.9c2.4,1.6,4.8,3.1,7.2,4.6
	l7.2,4.1l7.1,3.5l4,1.8c-1.3-0.4-2.7-0.5-4-0.4c-1.9,0.2-3.9,0.6-5.7,1.2c-2.2,0.6-4.3,1.4-6.4,2.2c-1.1,0.4-2.2,0.9-3.3,1.4
	l-3.3,1.4c-2.2,0.9-4.3,1.9-6.2,2.8l-5.3,2.4c-3,1.4-5,2.3-5,2.3s1.3,0.1,3.5,0.5l3.8,0.5c1.4,0.2,3,0.4,4.7,0.7s3.4,0.5,5.2,0.8
	s3.6,0.6,5.4,1s3.6,0.7,5.3,1.2c1.6,0.5,3.2,1,4.8,1.7c2.9,1.1,6.1,1,8.9-0.4c2.9-1.5,5.6-3.5,7.7-6c1.9-2.2,3.7-4.5,5.2-6.9
	L146.3,356.2z M111.9,41.6c0-0.2,0.1-0.5,0.2-1c0.4-1.1,0.9-2.2,1.5-3.2c0.9-1.4,2-2.7,3.2-3.8c1.4-1.2,2.9-2.4,4.4-3.4l4.7-2.7
	c1.5-0.9,2.9-1.6,4-2.3s2.1-1.3,2.8-1.8s1.1-0.7,1.1-0.7s-0.3,0.4-0.8,1.1c-0.7,0.9-1.5,1.8-2.3,2.5c-1.2,1.1-2.5,2.1-3.8,3l-4.5,3
	c-1.5,0.9-3,1.9-4.4,3c-1.2,0.9-2.4,1.9-3.5,3c-0.8,0.8-1.5,1.7-2.1,2.6c-0.5,0.7-0.7,1.1-0.7,1.1L111.9,41.6z M75.1,66.5
	c0.2-1.6,0.7-3.2,1.4-4.6c0.9-1.6,1.9-3.1,3.1-4.4l3.6-3.7c1-1,2-2.1,2.9-3.3c0.6-0.8,1.2-1.7,1.7-2.6c0.2-0.4,0.4-0.7,0.6-1.1
	c0,0,0,0.5-0.2,1.2c-0.2,1.1-0.6,2.2-1.1,3.2c-0.7,1.4-1.5,2.7-2.5,3.9L81.3,59c-1.1,1.2-2.2,2.5-3.1,3.9c-0.8,1.2-1.4,2.5-1.9,3.8
	c-0.3,1-0.5,2-0.6,3.1c0,0.4,0,0.8,0,1.2c-0.2-0.4-0.3-0.8-0.4-1.2C75.1,68.8,75,67.6,75.1,66.5z M52.6,95.4c0-1,0.1-2.2,0-3.3
	s0.1-2.2,0.1-3.3s0.2-2,0.2-2.9s0.2-1.6,0.2-2.1s0.1-0.8,0.1-0.8l0.3,0.8c0.2,0.7,0.5,1.3,0.6,2c0.2,1,0.4,2,0.5,3
	c0.1,1.1,0.1,2.3,0.2,3.4s-0.2,2.3-0.3,3.4c-0.2,1-0.4,2-0.7,2.9c-0.2,0.7-0.4,1.3-0.7,2l-0.4,0.7c0,0,0-0.3-0.1-0.8
	s-0.1-1.2-0.1-2.1S52.5,96.4,52.6,95.4z M46.5,110.7l-0.5,0.7c0,0,0-0.3,0.1-0.8s0.1-1.3,0.3-2.1s0.2-1.9,0.4-2.9s0.3-2.2,0.4-3.3
	s0.3-2.2,0.4-3.3s0.3-2.1,0.4-2.9s0.2-1.6,0.3-2.1l0.1-0.8c0,0,0.1,0.3,0.3,0.8c0.2,0.7,0.4,1.4,0.5,2.1c0.2,1,0.3,2,0.3,3.1
	c0,1.1-0.1,2.3-0.2,3.5s-0.5,2.4-0.8,3.4c-0.3,1-0.7,1.9-1.1,2.9C47.2,109.4,46.9,110,46.5,110.7z M30.7,151.3
	c-0.1,0.7-0.2,1.4-0.3,2.1c-0.1,0.5-0.2,0.8-0.2,0.8s-0.1-0.3-0.2-0.8s-0.4-1.2-0.5-2s-0.5-1.7-0.6-2.7s-0.4-2.1-0.7-3.1
	s-0.4-2.1-0.6-3.1s-0.3-2-0.5-2.8s-0.2-1.5-0.3-2s-0.1-0.8-0.1-0.8l0.5,0.6c0.4,0.6,0.8,1.1,1.1,1.7c0.5,0.9,0.9,1.7,1.2,2.6
	c0.3,1,0.6,2.1,0.9,3.2s0.3,2.3,0.4,3.3C30.8,149.3,30.8,150.3,30.7,151.3z M31.9,143l-0.4-0.8c-0.2-0.5-0.6-1.2-0.9-2.1
	s-0.8-1.9-1.1-3s-0.6-2.3-1-3.5s-0.5-2.4-0.7-3.5s-0.3-2.2-0.4-3.2s-0.1-1.7-0.1-2.3s0-0.9,0-0.9l0.4,0.8c0.2,0.5,0.6,1.2,0.9,2.1
	s0.8,1.9,1.1,3l1,3.5c0.2,1.2,0.5,2.4,0.7,3.5s0.3,2.2,0.4,3.1s0.1,1.7,0.1,2.3S31.9,143,31.9,143z M23.8,203.6
	c-0.1,0.5-0.1,0.8-0.1,0.8l-0.3-0.7c-0.1-0.4-0.5-1.1-0.7-1.8s-0.6-1.6-0.9-2.5s-0.7-1.9-1.1-2.8s-0.7-1.9-1-2.8s-0.6-1.8-0.9-2.5
	s-0.5-1.4-0.6-1.8l-0.2-0.7l0.6,0.5c0.5,0.4,1,0.9,1.4,1.4c0.6,0.7,1.1,1.5,1.6,2.3c0.5,0.9,1,1.9,1.4,2.9s0.6,2.1,0.8,3.1
	c0.2,0.9,0.3,1.9,0.3,2.8C23.9,202.3,23.9,202.9,23.8,203.6L23.8,203.6z M26.3,194.6c-0.3-0.4-0.8-1-1.3-1.7s-1.2-1.5-1.8-2.4
	s-1.3-1.8-2-2.7s-1.2-1.9-1.9-2.8s-1.1-1.8-1.6-2.4s-0.9-1.4-1.1-1.8l-0.4-0.7l0.7,0.4c0.6,0.4,1.2,0.8,1.8,1.2
	c0.8,0.6,1.5,1.3,2.2,2c0.7,0.8,1.5,1.7,2.2,2.7s1.2,2,1.8,3c0.5,0.9,0.9,1.8,1.2,2.8c0.3,0.7,0.5,1.4,0.6,2.1
	c0.1,0.5,0.1,0.8,0.1,0.8L26.3,194.6z M19.7,234.2c-0.8-0.5-1.5-1.1-2-1.4l-0.8-0.6l0.9,0.1c0.8,0.1,1.6,0.3,2.3,0.6
	c1.1,0.4,2.1,0.8,3.1,1.4c1.1,0.7,2.3,1.4,3.3,2.1c1,0.9,2,1.8,2.9,2.7c0.8,0.9,1.5,1.8,2.1,2.8c0.4,0.7,0.8,1.4,1.2,2.2l0.3,0.9
	l-0.7-0.6c-0.4-0.4-1.1-0.9-1.8-1.6s-1.6-1.4-2.5-2.2s-1.9-1.6-2.9-2.4s-2-1.6-3-2.3S20.5,234.8,19.7,234.2z M32.9,254.6
	c-0.3-0.4-0.8-0.9-1.3-1.6s-1.1-1.4-1.7-2.2s-1.3-1.7-2-2.5s-1.3-1.7-2-2.5s-1.2-1.6-1.8-2.2s-0.9-1.2-1.3-1.6s-0.5-0.6-0.5-0.6
	l0.7,0.3c0.6,0.3,1.2,0.6,1.8,1c0.8,0.5,1.6,1.1,2.3,1.8c0.8,0.8,1.6,1.6,2.3,2.5s1.3,1.9,1.9,2.9c0.5,0.9,0.9,1.8,1.2,2.7
	c0.2,0.7,0.4,1.4,0.6,2.1c0.1,0.5,0.1,0.8,0.1,0.8L32.9,254.6z M33.9,282.4h0.9c0.8,0,1.6,0.1,2.4,0.2c1.1,0.2,2.3,0.4,3.4,0.8
	c1.2,0.4,2.5,0.9,3.7,1.4s2.4,1.2,3.5,1.9c1,0.6,2,1.3,2.9,2c0.7,0.5,1.3,1.1,1.9,1.6l0.7,0.7l-0.9-0.3c-0.5-0.2-1.3-0.5-2.2-0.9
	s-2-0.8-3.1-1.3s-2.3-1-3.5-1.5s-2.4-1.1-3.5-1.6s-2.2-1-3.1-1.4s-1.6-0.8-2.2-1.1L33.9,282.4z M57.2,302c-1,0.3-2.1,0.3-3.2,0.1
	c-1.5-0.2-3-0.8-4.3-1.6c-1.5-1-2.8-2.1-4-3.4c-1.2-1.3-2.2-2.7-3.3-3.9s-1.9-2.4-2.8-3.2c-0.7-0.7-1.5-1.4-2.3-2
	c-0.6-0.5-1-0.7-1-0.7s0.4,0.1,1.2,0.3c1,0.3,2,0.8,2.8,1.4c1.3,0.8,2.4,1.8,3.5,2.9c1.2,1.2,2.3,2.5,3.5,3.7c1,1.2,2.2,2.3,3.5,3.3
	c1.1,0.8,2.3,1.5,3.5,2c0.9,0.4,1.9,0.6,2.9,0.7c0.4,0,0.8,0,1.2,0C58,301.8,57.6,301.9,57.2,302z M91.8,336
	c-0.3,0.2-0.5,0.5-0.8,0.7c-1,0.7-2.2,1.2-3.5,1.4c-1.8,0.3-3.6,0.2-5.4-0.3c-1.9-0.6-3.8-1.5-5.6-2.6c-1.7-1.1-3.3-2.3-4.9-3.3
	c-1.4-0.9-2.8-1.7-4.3-2.4c-1.1-0.5-2.2-0.8-3.4-1c-0.4-0.1-0.9-0.2-1.4-0.2c0.4-0.1,0.9-0.2,1.4-0.3c1.2-0.1,2.5,0,3.7,0.2
	c1.7,0.4,3.4,1.1,4.9,1.9c1.7,0.9,3.4,2,5.1,3c1.6,1.1,3.2,2,5,2.6c1.5,0.6,3.1,0.9,4.7,1c1.2,0,2.3-0.2,3.4-0.5
	c0.3-0.1,0.6-0.2,0.9-0.4l0.3-0.2L91.8,336z M93.9,331.7c-0.4,0.4-0.9,0.7-1.5,1c-0.7,0.4-1.5,0.6-2.3,0.8c-0.9,0.1-1.9,0.2-2.8,0.2
	c-0.9-0.1-1.9-0.3-2.8-0.6c-0.8-0.3-1.5-0.7-2.2-1.1c-0.5-0.3-0.9-0.7-1.3-1.2l-0.4-0.5l0.6,0.1c0.4,0.1,1,0.2,1.6,0.4
	s1.4,0.2,2.2,0.4c0.8,0.2,1.6,0.2,2.5,0.3c0.8,0.1,1.7,0.1,2.5,0.1c0.8-0.1,1.6,0,2.2-0.1s1.2,0,1.7-0.1h0.7L93.9,331.7z
	 M121.1,360.9c0.5-0.1,0.9-0.2,1.4-0.2c0.7,0,1.3,0,2,0l2.2,0.2l2.2,0.5c0.6,0.2,1.3,0.4,1.9,0.7c0.4,0.2,0.9,0.4,1.3,0.7l0.5,0.3
	l-0.6,0.1c-0.5,0.1-0.9,0.2-1.4,0.2c-0.7,0-1.3,0-2,0l-2.2-0.2l-2.2-0.5c-0.6-0.2-1.3-0.4-1.9-0.7c-0.4-0.2-0.9-0.4-1.3-0.7
	l-0.5-0.3L121.1,360.9z M136.8,364.6c-0.3,0.3-0.5,0.5-0.8,0.7c-1.1,0.8-2.3,1.4-3.5,1.7c-1.8,0.5-3.7,0.7-5.6,0.5
	c-2.1-0.3-4.1-0.7-6.2-1.4c-2-0.7-3.9-1.5-5.7-2.1c-1.6-0.6-3.3-1.1-5-1.5c-1.2-0.3-2.4-0.4-3.7-0.4c-0.5,0-1,0-1.4,0
	c0.5-0.2,0.9-0.3,1.4-0.5c1.3-0.3,2.6-0.5,3.8-0.4c1.8,0.1,3.7,0.3,5.4,0.8c1.9,0.5,3.9,1.2,5.9,1.8c1.9,0.7,3.8,1.2,5.7,1.6
	c1.7,0.3,3.4,0.4,5.1,0.3c1.2-0.1,2.4-0.4,3.6-0.8c0.3-0.1,0.7-0.3,1-0.4l0.3-0.2L136.8,364.6z"/>
<path class="st0" d="M96.9,312.9c0,0,0-0.3,0-0.9c-1.3-1.1-2.5-2.3-3.8-3.5c-0.1,0.2-0.2,0.4-0.2,0.6c-1.1,2.5-0.6,5.1,0.7,7.9
	c0.7,1.4,1.5,2.8,2.5,4c1,1.3,2.1,2.5,3.3,3.6c1.1,1.1,2.3,2.1,3.6,3c1.2,0.9,2.2,1.7,3.2,2.3c1.9,1.2,3.3,1.9,3.3,1.9
	c-0.3-1.4-0.4-2.8-0.4-4.2c0-1.8,0.1-3.7,0.4-5.5c-4.2-3.1-8.3-6.4-12.2-9.9L96.9,312.9z"/>
<path class="st0" d="M69.2,281.2c0,0.3,0,0.7,0,1c-0.2-0.3-0.3-0.6-0.4-0.9c-0.3-0.9-0.4-1.8-0.2-2.7c0,0,0-0.1,0-0.1
	c-1-1.5-1.9-3-2.8-4.5c-0.2,0.3-0.4,0.6-0.6,0.9c-1.5,2-1.7,4.7-1.2,7.6c0.1,0.7,0.3,1.5,0.5,2.2s0.5,1.5,0.8,2.2
	c0.6,1.5,1.4,3,2.2,4.4c0.8,1.3,1.7,2.7,2.6,3.9c0.9,1.2,1.7,2.3,2.4,3.2c1.5,1.7,2.6,2.8,2.6,2.8c0.1-1.4,0.3-2.8,0.6-4.1
	c0.5-1.9,1.2-3.8,2-5.6c-3-3.8-5.8-7.7-8.4-11.7C69.3,280.3,69.2,280.7,69.2,281.2z"/>
<path class="st0" d="M51.8,244.1l0.2-0.3c-0.5-1.5-1-3.1-1.5-4.6c-0.3,0.3-0.6,0.6-0.8,0.9c-0.2,0.2-0.3,0.4-0.3,0.7
	c-0.1-0.3-0.1-0.6-0.1-0.8c0.1-0.8,0.4-1.5,0.8-2.1v-0.1c-0.5-1.7-1-3.4-1.4-5.1c-0.3,0.3-0.7,0.6-1,0.9c-1.9,1.4-2.7,3.9-3,6.9
	c-0.1,1.6,0,3.1,0.2,4.7c0.2,1.6,0.5,3.3,0.9,4.9c0.5,1.6,1,3.1,1.5,4.5s1,2.7,1.5,3.8c1,2.1,1.7,3.5,1.7,3.5
	c0.4-1.3,0.9-2.5,1.6-3.7c1-1.8,2.1-3.4,3.4-4.9c-1.2-3-2.4-6-3.4-9.1L51.8,244.1z"/>
<path class="st0" d="M42.5,196.1c-0.6,0.5-1.2,1-1.6,1.6c-0.2,0.2-0.4,0.5-0.6,0.8c0-0.3,0.1-0.7,0.2-1c0.2-0.8,0.6-1.6,1.1-2.3
	c0.6-0.9,1.4-1.7,2.2-2.4c0-1.6,0-3.2,0.1-4.8c-0.5,0.3-1,0.5-1.5,0.7c-1.1,0.5-2,1.2-2.7,2.1c-0.8,1.1-1.4,2.3-1.8,3.6
	c-0.4,1.5-0.8,3-1,4.6c-0.1,0.8-0.2,1.6-0.3,2.5s-0.1,1.7-0.1,2.5c0,1.6,0,3.3,0.1,4.8c0.1,1.3,0.2,2.7,0.5,4
	c0.3,2.3,0.7,3.8,0.7,3.8c0.7-1.1,1.5-2.1,2.3-3c1.4-1.5,2.9-2.8,4.6-3.9c-0.5-4.8-0.8-9.7-0.9-14.6
	C43.3,195.4,42.9,195.7,42.5,196.1z"/>
<path class="st0" d="M48.3,150.4c-0.6,0.3-1.2,0.6-1.8,1c-0.2,0.1-0.5,0.3-0.7,0.5c0.1-0.3,0.2-0.5,0.4-0.8c0.4-0.7,0.9-1.3,1.4-1.8
	c0.8-0.7,1.7-1.3,2.6-1.8c0.4-1.3,0.8-2.7,1.2-4c-0.8,0.2-1.6,0.4-2.4,0.5c-1.1,0.1-2.2,0.6-3,1.3c-1,0.9-1.9,1.9-2.6,3
	c-0.8,1.3-1.5,2.7-2.2,4.1c-0.7,1.5-1.2,3.1-1.7,4.7c-0.5,1.5-0.8,3.1-1.1,4.6c-0.3,1.5-0.5,2.8-0.7,4s-0.2,2.1-0.3,2.8
	s-0.1,1.1-0.1,1.1c0.9-0.9,1.9-1.6,2.9-2.3c1.8-1.1,3.8-2,5.8-2.7c0.9-5,2-10,3.4-14.8C49.1,150,48.7,150.1,48.3,150.4z"/>
<path class="st0" d="M66.2,110.6c-0.9,0.3-1.8,0.6-2.7,1c-0.6,0.3-1.2,0.7-1.8,1.1c-0.2,0.2-0.5,0.3-0.7,0.5c0,0,0.1-0.3,0.3-0.8
	c0.4-0.7,0.8-1.3,1.4-1.9c0.8-0.7,1.7-1.3,2.8-1.8c0.8-0.3,1.7-0.6,2.5-0.8c1-1.6,2-3.2,3.1-4.8c-1.1,0.1-2.2,0.1-3.3-0.1
	c-1.1-0.1-2.1,0-3.1,0.5c-1.2,0.6-2.3,1.3-3.2,2.2c-0.5,0.5-1.1,1-1.6,1.6s-1,1.2-1.5,1.8c-1,1.3-2,2.6-2.8,4
	c-0.8,1.4-1.7,2.8-2.3,4.1s-1.2,2.6-1.7,3.7s-0.8,2-1.1,2.6l-0.4,1c1-0.6,2.1-1.1,3.3-1.4c2.2-0.7,4.6-1,6.9-1.1
	c1.9-3.9,4-7.7,6.2-11.3L66.2,110.6z"/>
<path class="st0" d="M96.8,73.7c-0.3,0-0.6-0.1-0.8-0.2c-0.9-0.2-1.9-0.3-2.9-0.3c-0.7,0-1.4,0-2.1,0.1c-0.3,0-0.6,0-0.8,0.1
	c0.2-0.2,0.4-0.4,0.7-0.5c0.7-0.4,1.4-0.7,2.1-0.9c1-0.3,2.1-0.4,3.2-0.4c0.9,0.1,1.8,0.2,2.7,0.4c0.8-0.7,1.5-1.3,2.3-2
	c-0.3,0-0.7-0.1-1-0.2c-1-0.2-2-0.5-2.9-0.9c-1-0.4-2-0.5-3-0.3c-1.3,0.2-2.5,0.6-3.6,1.2c-1.3,0.7-2.6,1.5-3.9,2.4
	c-1.3,1-2.6,2-3.8,3.1c-1.2,1-2.3,2.1-3.4,3.3c-1,1.1-1.9,2.1-2.7,3c-1.5,1.8-2.4,3-2.4,3c1.1-0.3,2.3-0.5,3.4-0.5
	c2.5-0.1,5.1,0.2,7.5,0.9C89.1,81.1,92.8,77.3,96.8,73.7z"/>
<path class="st0" d="M129.7,50.7c-1-0.3-2.1-0.4-3.2-0.5c-0.8-0.1-1.5-0.1-2.3,0c-0.3,0-0.6,0-0.9,0.1c0.2-0.2,0.5-0.4,0.8-0.5
	c0.7-0.4,1.5-0.7,2.4-0.9c1.2-0.2,2.4-0.3,3.5-0.2c1,0.1,2,0.3,3,0.6c1.7-0.9,3.5-1.7,5.2-2.5c-1.3-0.5-2.5-1.2-3.6-2
	c-0.8-0.6-1.8-0.9-2.8-1c-1.3-0.1-2.5,0-3.8,0.2c-1.5,0.3-2.9,0.7-4.3,1.2c-1.5,0.5-3,1.1-4.4,1.8c-1.4,0.7-2.8,1.5-4.1,2.2
	s-2.4,1.5-3.4,2.1s-1.8,1.2-2.3,1.6l-0.8,0.6c1.1,0,2.2,0.1,3.3,0.4c2.5,0.6,5,1.6,7.2,2.9c3.5-2.2,7-4.2,10.7-6.1L129.7,50.7z"/>
<path class="st0" d="M212.5,357.7c0,0,1.5,0.1,3.7,0.2c1.1,0,2.5,0,3.9-0.1c1.5-0.1,3-0.3,4.5-0.6c1.6-0.3,3.1-0.7,4.6-1.2
	c1.4-0.6,2.8-1.3,4.1-2.1c1.2-0.8,2.3-1.7,3.1-2.9c0.3-0.5,0.6-1,0.8-1.5c-7.1,1.5-14.3,2.5-21.5,3.1c-0.3,0.5-0.5,1-0.8,1.5
	C214.3,355.3,213.5,356.5,212.5,357.7z"/>
<path class="st0" d="M257.6,380.9c-1.7-1.5-3.5-3.2-5.3-4.8s-3.7-3.2-5.6-4.8s-3.8-3.1-5.6-4.3c-1.6-1.1-3.4-2.2-5.2-3
	c-1.4-0.7-3-1-4.6-0.9c-0.7,0.1-1.4,0.1-2.1,0.2s-1.3,0-1.9,0c-1.2,0-2.4-0.1-3.5-0.2s-2-0.2-2.9-0.3s-1.7-0.4-2.4-0.6
	c-1.4-0.3-2.8-0.9-4.1-1.5c0.9,4.3,2.3,8.6,4.1,12.6c1.4,3.2,3.3,6,5.8,8.4c2.4,2.2,5.3,3.6,8.5,3.2c1.7-0.2,3.4-0.3,5.1-0.2
	c0.9,0,1.8,0.1,2.7,0.2l2.7,0.2c1.8,0.2,3.7,0.4,5.5,0.7s3.6,0.6,5.3,0.8s3.3,0.6,4.8,0.9s2.8,0.5,3.9,0.7c2.2,0.4,3.5,0.7,3.5,0.7
	s-1.6-1.5-4.2-3.9L257.6,380.9z M223.9,368.4l0.8,0.5c0.5,0.3,1.3,0.7,2.1,1.2s1.9,1,3,1.7s2.3,1.2,3.5,1.7s2.4,1.1,3.5,1.6
	s2.2,1,3.2,1.3s1.7,0.7,2.3,0.9l0.9,0.4l-1,0.1c-0.8,0-1.7,0-2.5-0.1c-1.2-0.1-2.4-0.3-3.5-0.6c-1.2-0.4-2.6-0.9-3.9-1.4
	s-2.4-1.4-3.5-2.1c-1-0.7-1.9-1.5-2.8-2.3c-0.6-0.6-1.2-1.2-1.7-1.9L223.9,368.4z M253.7,383.3c-1.1-0.4-2.3-0.7-3.4-0.9
	c-1.7-0.3-3.3-0.4-5-0.5c-1.8-0.1-3.8-0.1-5.8-0.1c-2-0.1-4-0.4-6-0.9c-1.7-0.5-3.4-1.2-4.9-2.3c-1.1-0.7-2-1.6-2.7-2.7
	c-0.2-0.4-0.4-0.7-0.5-0.9l-0.2-0.3c0.3,0.4,0.6,0.7,1,1c0.9,0.7,1.9,1.4,3,1.9c1.5,0.7,3.1,1.2,4.7,1.4c1.9,0.3,3.8,0.5,5.7,0.5
	c2,0.1,4,0.2,5.9,0.5c1.7,0.2,3.5,0.6,5.1,1.2c1.2,0.4,2.3,1,3.3,1.8c0.4,0.3,0.7,0.6,1.1,0.9C254.5,383.6,254.1,383.4,253.7,383.3
	L253.7,383.3z"/>
<path class="st0" d="M258.6,347.1c-0.3,1.4-0.9,2.8-1.5,4.1l1-0.2c0.9-0.2,1.8-0.4,2.6-0.7c1.1-0.3,2.4-0.8,3.7-1.3
	c1.5-0.5,2.9-1.1,4.2-1.9c1.4-0.8,2.8-1.6,4.1-2.5c1.3-0.9,2.4-2,3.4-3.2c0.9-1.1,1.7-2.3,2.2-3.6c0.4-1.2,0.6-2.4,0.5-3.6
	c-6.3,3.4-12.8,6.3-19.5,8.8C259.2,344.4,259,345.7,258.6,347.1z"/>
<path class="st0" d="M310.7,312.9l-0.3-0.6c-3.9,3.5-8,6.8-12.2,9.9c0.3,1.8,0.4,3.6,0.4,5.5c0,1.4-0.1,2.9-0.4,4.2
	c0,0,1.3-0.7,3.3-1.9c0.9-0.6,2-1.4,3.2-2.3c1.2-0.9,2.4-1.9,3.5-3c1.2-1.1,2.3-2.4,3.3-3.6c1-1.2,1.8-2.6,2.5-4
	c1.3-2.7,1.8-5.4,0.7-7.9c-0.1-0.2-0.1-0.4-0.2-0.6c-1.2,1.2-2.5,2.3-3.8,3.5C310.7,312.5,310.7,312.9,310.7,312.9z"/>
<path class="st0" d="M339.1,278.5c0.1,0.9,0,1.8-0.2,2.7c-0.1,0.3-0.3,0.6-0.4,0.9c0-0.3,0-0.7,0-1c0-0.5-0.1-0.9-0.2-1.4
	c-2.6,4-5.4,8-8.4,11.7c0.8,1.8,1.5,3.7,2,5.6c0.4,1.3,0.6,2.7,0.6,4.1c0,0,1.1-1,2.6-2.8c0.7-0.9,1.6-2,2.4-3.2
	c2-2.6,3.6-5.4,4.8-8.4c0.3-0.8,0.6-1.5,0.9-2.2c0.2-0.7,0.4-1.5,0.5-2.2c0.5-3,0.3-5.6-1.2-7.6c-0.2-0.3-0.4-0.6-0.6-0.9
	c-0.9,1.5-1.8,3-2.8,4.5C339.2,278.4,339.2,278.5,339.1,278.5z"/>
<path class="st0" d="M357.5,237.9c0.4,0.6,0.7,1.3,0.8,2.1c0,0.3,0,0.6,0,0.8c-0.1-0.2-0.2-0.5-0.4-0.7c-0.2-0.4-0.5-0.7-0.9-0.9
	c-0.5,1.6-0.9,3.1-1.5,4.6l0.2,0.3h-0.3c-1,3.1-2.2,6.1-3.4,9.1c1.3,1.5,2.4,3.2,3.4,5c0.7,1.2,1.2,2.4,1.6,3.7c0,0,0.7-1.3,1.7-3.5
	c0.5-1,1-2.4,1.5-3.8s1-3,1.5-4.5c0.4-1.6,0.7-3.2,0.9-4.9c0.2-1.6,0.3-3.1,0.2-4.7c-0.2-3-1.1-5.5-3-6.9c-0.3-0.3-0.7-0.6-1-0.9
	C358.4,234.5,358,236.2,357.5,237.9L357.5,237.9z"/>
<path class="st0" d="M391,227.6l-5.2,3.2c-1.9,1.1-3.7,2.3-5.5,3.5s-3.5,2.4-5.1,3.7c-1.5,1.1-2.9,2.4-4.1,3.8c-0.5,0.6-1,1.3-1.4,2
	c-0.4,0.6-0.7,1.3-1,2.1c-0.6,1.7-1.2,3.2-1.8,4.6c0.1-0.4,0.3-0.7,0.4-1.1c1.1-3.5,2.2-6.9,3.1-10.5c1.9-7.1,3.3-14.3,4.2-21.6
	c0.1-0.9,0.2-1.8,0.3-2.6c2.6-0.5,5.1-1.3,7.5-2.4c2.6-1.1,4.9-2.8,6.9-4.9c2.1-2.2,3.3-5.1,3.3-8.1c0-1.7,0.2-3.4,0.5-5.1
	c0.3-1.8,0.5-3.6,0.8-5.4s0.7-3.6,1.1-5.4s0.7-3.5,1.1-5.1l1-4.6c0.3-1.4,0.6-2.6,0.9-3.7l0.8-3.4c0,0-1.3,1.4-3.2,3.5
	s-4.6,5.1-7.3,8.3c-1.4,1.6-2.8,3.2-4.1,4.9c-0.7,0.8-1.3,1.7-1.9,2.5s-1.2,1.7-1.8,2.5c-1.1,1.5-2,3.2-2.7,4.9
	c-0.7,1.4-1.1,3-1.2,4.6c-0.1,1.5-0.1,2.9-0.3,4.1c-0.1,0.8-0.2,1.5-0.4,2.2c0.1-1.2,0.2-2.3,0.2-3.5l0.1-5.5c0-0.9,0.1-1.8,0-2.8
	l0-2.7c0-1.8,0-3.6-0.2-5.4s-0.2-3.6-0.3-5.5s-0.4-3.6-0.5-5.4c-0.3-2.4-0.6-4.9-1-7.3l0.6-0.3c2-1.1,3.8-2.5,5.5-4
	c2.1-1.8,3.8-4.1,4.9-6.6c0.6-1.3,1-2.7,1.1-4.1c0.2-1.5,0.1-3.1-0.3-4.5c-0.4-1.6-0.8-3.3-1-5c-0.3-1.7-0.5-3.5-0.7-5.3
	s-0.3-3.6-0.5-5.4s-0.3-3.5-0.4-5.2c-0.3-3.3-0.4-6.2-0.6-8.3s-0.2-3.4-0.2-3.4s-0.8,1.6-1.9,4.2c-0.6,1.3-1.2,2.8-2,4.5
	s-1.5,3.5-2.3,5.4c-0.8,1.9-1.6,3.9-2.3,5.8s-1.4,3.9-1.9,5.8c-0.5,1.8-0.9,3.6-1.1,5.4c-0.2,1.6-0.2,3.2,0.2,4.7
	c0.4,1.7,0.8,3.5,1,5.3c-0.2-0.9-0.4-1.8-0.6-2.7c-1.6-6.8-3.6-13.5-6-20c-1.6-4.3-3.3-8.4-5.1-12.4c1.6-1.7,3-3.6,4.1-5.6
	c1.4-2.3,2.3-4.9,2.6-7.5c0.2-1.4,0.1-2.8-0.1-4.2c-0.3-1.5-0.8-2.9-1.6-4.2c-0.8-1.4-1.5-2.9-2.3-4.4s-1.4-3.2-2.1-4.9
	s-1.4-3.3-2-5s-1.3-3.2-1.9-4.8s-1.1-3-1.6-4.2s-0.9-2.4-1.3-3.4l-0.9-2.3l-0.3-0.8c0,0-0.2,1.7-0.6,4.4c-0.2,1.4-0.3,3-0.5,4.7
	s-0.4,3.7-0.6,5.6s-0.3,4-0.4,6s-0.2,4.1-0.1,6c0,1.8,0.2,3.6,0.5,5.4c0.3,1.5,0.8,3,1.5,4.4c0.4,0.8,0.8,1.5,1.2,2.2
	c-2-3.5-4-6.9-6.2-10.2c-3.3-5.1-6.9-9.9-10.8-14.6l-2.6-3l0.1-0.3c0.9-1.9,1.6-3.9,2-5.9c0.6-2.5,0.6-5.2,0.2-7.7
	c-0.5-2.8-1.9-5.4-4-7.4c-1.2-1.1-2.3-2.3-3.4-3.5c-1.1-1.3-2.3-2.6-3.4-4l-1.6-2.1l-1.6-2c-1-1.3-2.1-2.7-3.1-3.9
	c-2-2.5-3.7-4.7-4.9-6.3l-2-2.5c0,0,0.3,1.6,0.8,4.2s1.1,6.1,2,9.8c0.4,1.8,0.8,3.8,1.4,5.7s1.1,3.8,1.6,5.5
	c0.5,1.7,1.2,3.3,2.1,4.9c0.7,1.4,1.6,2.7,2.7,3.8c0.6,0.6,1.2,1.2,1.8,1.8c-6.8-6.7-14.2-12.7-22.1-18c-1.4-1-2.9-1.9-4.2-2.7
	c0.3-2.1,0.4-4.3,0.2-6.5c-0.2-2.5-0.9-4.9-2.1-7.1c-1.3-2.5-3.4-4.5-5.9-5.8c-0.7-0.4-1.4-0.7-2.1-1.1s-1.4-0.8-2.1-1.2
	c-1.4-0.9-2.9-1.8-4.3-2.8s-2.9-1.9-4.3-2.9s-2.8-1.8-4-2.7s-2.5-1.7-3.6-2.5l-2.9-2l-2.6-1.8c0,0,0.7,1.4,1.9,3.6l2.1,3.8l2.6,4.5
	c0.9,1.6,1.9,3.2,2.9,4.8s2.1,3.2,3.2,4.6c1,1.4,2.2,2.7,3.4,4c1.1,1.1,2.3,2,3.6,2.8c2.2,1.2,4.4,2.5,6.4,3.9l0.1,0.1
	c-2.8-1.5-5.4-2.8-7.8-3.9c-4.4-2-8.8-3.7-13.3-5.2c-1.6-0.5-2.8-0.9-3.6-1.1l-1.2-0.4l1.2,0.5c0.8,0.3,1.9,0.9,3.4,1.5
	c3,1.3,7.4,3.5,12.8,6.4c6.5,3.5,12.7,7.5,18.8,11.8c7.9,5.5,15.2,11.7,22,18.5l2.8,2.9c0.9,1,1.8,2,2.8,3c1.9,2,3.7,4.2,5.5,6.4
	c0.9,1.1,1.8,2.3,2.7,3.4s1.8,2.3,2.6,3.5l2.6,3.6c0.8,1.2,1.7,2.5,2.5,3.8c7.1,10.7,12.9,22.3,17.4,34.3c4.8,13,8,26.5,9.6,40.3
	l0.5,5.3c0.1,1.8,0.2,3.5,0.3,5.3s0.1,3.6,0.2,5.4v2.7c0,0.8,0,1.8,0,2.7l-0.1,5.4c-0.1,1.8-0.2,3.6-0.4,5.4
	c-0.2,3.6-0.7,7.1-1.1,10.7c-1,7.1-2.5,14.1-4.4,21c-0.9,3.5-2,6.8-3.1,10.2c-0.5,1.7-1.2,3.3-1.8,5s-1.2,3.3-1.9,4.9
	s-1.4,3.2-2.1,4.8s-1.5,3.1-2.3,4.7c-1.5,3.1-3.2,6.1-4.9,9.1c-3.4,5.8-7.1,11.5-11.1,16.9c-1.9,2.7-4,5.2-6.1,7.7
	c-1,1.3-2.1,2.4-3.2,3.6s-2.1,2.4-3.2,3.5c-2.2,2.2-4.4,4.6-6.7,6.6l-3.4,3.1l-3.5,2.9c-15.8,13.4-34,23.8-53.7,30.4
	c-2,0.8-3.9,1.3-5.8,1.9l-2.8,0.9c-0.9,0.3-1.8,0.5-2.7,0.8l-5.1,1.4l-4.7,1.1c-3,0.8-5.6,1.2-7.9,1.7c-1.2,0.2-2.2,0.5-3.2,0.6
	l-2.7,0.5c-1.6,0.3-2.9,0.5-3.7,0.7l-1.3,0.2l1.3,0c0.9,0,2.1,0.1,3.8,0.1l2.8,0.1c1,0,2.1-0.1,3.3-0.1c2.4-0.1,5.2-0.2,8.2-0.6
	c7.4-0.8,14.8-2.3,21.9-4.4h0.1l0.3,0.5c1.5,2.5,3.3,4.8,5.2,6.9c2.2,2.5,4.8,4.5,7.7,6c2.8,1.4,6,1.5,8.9,0.4
	c1.6-0.7,3.2-1.2,4.8-1.7c1.7-0.5,3.5-0.9,5.3-1.2s3.6-0.7,5.4-1s3.6-0.5,5.2-0.8s3.3-0.5,4.7-0.7l3.8-0.5c2.2-0.3,3.5-0.5,3.5-0.5
	s-2-0.9-5-2.3l-5.2-2.4c-2-0.9-4.1-1.8-6.2-2.8l-3.3-1.4c-1.1-0.5-2.2-0.9-3.3-1.4c-2.1-0.9-4.2-1.6-6.4-2.2c-1.9-0.6-3.8-1-5.7-1.2
	c-1.3-0.1-2.7,0-4,0.4l4-1.8l7-3.5l7.2-4.1c2.4-1.5,4.8-3,7.2-4.6l1.3-0.9l0.1,0.1c2.1,1.8,4.3,3.4,6.7,4.8c2.7,1.6,5.7,2.7,8.8,3.2
	c3,0.4,6.1-0.4,8.5-2.4c1.3-1,2.6-2,4.1-3s3-1.9,4.7-2.7s3.2-1.8,4.8-2.6s3.3-1.6,4.7-2.3c3-1.5,5.7-2.8,7.7-3.7l3.1-1.5
	c0,0-2-0.3-5.2-0.6s-7.5-0.9-12-1.3c-2.2-0.2-4.6-0.4-6.9-0.5c-2.2-0.1-4.4-0.2-6.5-0.1c-1.9,0-3.8,0.2-5.7,0.6
	c-1,0.2-2,0.6-2.9,1.1c7.5-6.6,14.4-13.8,20.6-21.7l0.2,0.1c2.4,1.1,4.9,1.9,7.4,2.4c3,0.7,6,0.8,9,0.3c3-0.6,5.6-2.3,7.4-4.8
	c0.9-1.3,2-2.7,3.1-4.1s2.4-2.7,3.7-4s2.5-2.6,3.8-3.9s2.6-2.5,3.8-3.6c2.4-2.3,4.6-4.4,6.2-5.8c0.8-0.7,1.4-1.3,1.9-1.7
	s0.7-0.6,0.7-0.6l-5,1c-3,0.6-7.2,1.5-11.4,2.5c-2.1,0.5-4.4,1-6.5,1.6c-2.1,0.5-4.1,1.2-6.1,1.9c-1.8,0.6-3.5,1.4-5.2,2.4
	c-1.4,0.8-2.5,1.9-3.5,3.1l0,0c2.2-3.4,4.3-7,6.3-10.6c1.6-3.1,3.4-6.2,4.8-9.5c0.7-1.6,1.5-3.2,2.2-4.9c0.4-1,0.9-2.1,1.3-3.1
	l0.6,0.1c2.5,0.3,5,0.3,7.5,0c2.9-0.3,5.7-1.1,8.3-2.5c2.7-1.5,4.7-3.9,5.6-6.8c0.5-1.6,1.2-3.1,1.8-4.8s1.5-3.3,2.3-4.9
	s1.7-3.3,2.5-4.9s1.7-3.1,2.6-4.6s1.6-2.9,2.3-4.1s1.4-2.4,1.9-3.3l1.3-2.2c0.3-0.5,0.5-0.8,0.5-0.8l-4.3,2.4L391,227.6z
	 M389.6,189.4c-0.2,0.4-0.4,1.1-0.6,1.8s-0.5,1.6-0.9,2.5s-0.7,1.8-1,2.8s-0.8,1.9-1.1,2.8s-0.7,1.7-0.9,2.5s-0.6,1.4-0.7,1.8
	l-0.3,0.7c0,0,0-0.3-0.1-0.8c-0.1-0.7-0.1-1.3-0.1-2c0-0.9,0.1-1.9,0.3-2.8c0.2-1,0.5-2.1,0.8-3.1s0.9-2,1.4-2.9
	c0.5-0.8,1-1.6,1.6-2.3c0.4-0.5,0.9-1,1.4-1.4l0.6-0.5C389.9,188.7,389.7,189,389.6,189.4L389.6,189.4z M381,194.4
	c0.2-0.7,0.4-1.4,0.6-2.1c0.3-1,0.8-1.9,1.2-2.8c0.5-1,1.2-2,1.8-3s1.5-1.8,2.2-2.7c0.7-0.7,1.4-1.4,2.2-2c0.6-0.4,1.1-0.9,1.8-1.2
	l0.7-0.4l-0.4,0.7c-0.3,0.4-0.6,1.1-1.1,1.8s-1,1.6-1.6,2.4s-1.3,1.8-1.9,2.8s-1.4,1.8-2,2.7s-1.3,1.6-1.8,2.4s-1,1.2-1.3,1.7
	l-0.5,0.6C380.8,195.3,380.8,195,381,194.4L381,194.4z M380.5,137.4l0.5-0.6c0,0,0,0.3-0.1,0.8s-0.1,1.2-0.3,2s-0.3,1.8-0.5,2.8
	s-0.4,2.1-0.6,3.1s-0.5,2.1-0.7,3.1s-0.5,1.9-0.6,2.7s-0.4,1.5-0.5,2l-0.2,0.8c0,0-0.1-0.3-0.2-0.8c-0.2-0.7-0.3-1.4-0.3-2.1
	c-0.1-1-0.1-2-0.1-2.9c0.1-1.1,0.2-2.2,0.4-3.3s0.6-2.2,0.9-3.2c0.3-0.9,0.7-1.8,1.2-2.6C379.8,138.6,380.1,138,380.5,137.4
	L380.5,137.4z M375.8,139.8c0.1-0.9,0.2-2,0.4-3.1s0.5-2.3,0.7-3.5s0.7-2.4,1-3.5s0.8-2.1,1.1-3s0.7-1.6,0.9-2.1l0.4-0.8
	c0,0,0,0.3,0,0.9s0,1.3-0.1,2.3s-0.2,2-0.4,3.1s-0.5,2.3-0.7,3.5s-0.7,2.4-1,3.5s-0.8,2.1-1,3s-0.7,1.6-0.9,2.1l-0.4,0.8
	c0,0,0-0.3,0-0.9S375.7,140.7,375.8,139.8L375.8,139.8z M295.1,40.8c-0.6-0.9-1.4-1.7-2.1-2.5c-1.1-1.1-2.2-2.1-3.5-3
	c-1.4-1.1-2.8-2.1-4.4-3l-4.5-3c-1.3-0.9-2.6-1.9-3.8-3c-0.9-0.8-1.6-1.6-2.4-2.5c-0.5-0.7-0.8-1.1-0.8-1.1s0.4,0.3,1.1,0.7
	s1.6,1.1,2.8,1.8s2.6,1.4,4.1,2.3l4.7,2.7c1.5,1,3,2.2,4.4,3.4c1.2,1.1,2.3,2.4,3.2,3.8c0.6,1,1.2,2.1,1.5,3.2
	c0.1,0.4,0.2,0.7,0.3,1l0.1,0.3C295.8,42,295.6,41.5,295.1,40.8L295.1,40.8z M332.3,69.8c-0.1,0.4-0.3,0.8-0.4,1.2
	c0-0.4,0-0.8,0-1.2c-0.1-1-0.2-2.1-0.6-3.1c-0.4-1.4-1.1-2.7-1.9-3.8c-0.9-1.4-1.9-2.7-3.1-3.8c-1.1-1.3-2.3-2.7-3.3-4
	c-1-1.2-1.8-2.5-2.5-3.9c-0.5-1-0.9-2-1.1-3.1c-0.1-0.8-0.2-1.2-0.2-1.2s0.2,0.4,0.6,1.1c0.5,0.9,1.1,1.8,1.8,2.6
	c0.9,1.1,1.9,2.2,2.9,3.3l3.5,3.7c1.2,1.4,2.2,2.9,3.1,4.4c0.7,1.4,1.2,3,1.4,4.6C332.6,67.6,332.5,68.8,332.3,69.8L332.3,69.8z
	 M355,98.3c0,0.8-0.1,1.6-0.1,2.1l-0.1,0.8l-0.4-0.7c-0.3-0.6-0.5-1.3-0.7-2c-0.3-1-0.5-1.9-0.7-2.9c-0.1-1.1-0.3-2.2-0.3-3.4
	s0.1-2.3,0.2-3.4c0.1-1,0.3-2,0.5-3c0.2-0.7,0.4-1.3,0.6-2l0.3-0.8c0,0,0,0.3,0.1,0.8s0.2,1.2,0.2,2.1s0.2,1.9,0.2,2.9
	s0.1,2.2,0.1,3.3s0,2.2,0,3.3S355,97.4,355,98.3z M359,105.9c-0.3-1.1-0.5-2.3-0.8-3.4s-0.2-2.4-0.2-3.5c0-1,0.1-2.1,0.3-3.1
	c0.1-0.7,0.3-1.4,0.5-2.1c0.2-0.5,0.3-0.8,0.3-0.8l0.1,0.8c0,0.5,0.2,1.3,0.3,2.1s0.3,1.9,0.4,2.9s0.2,2.2,0.4,3.3s0.2,2.3,0.4,3.3
	s0.2,2.1,0.4,2.9s0.2,1.6,0.3,2.1s0.1,0.8,0.1,0.8s-0.2-0.2-0.5-0.7c-0.4-0.6-0.8-1.2-1.1-1.9C359.7,107.8,359.3,106.9,359,105.9z
	 M297.5,361.4c1.3,0,2.6,0.1,3.9,0.4c0.5,0.1,0.9,0.3,1.4,0.5c-0.5,0-1,0-1.4,0c-1.2,0-2.5,0.2-3.7,0.4c-1.7,0.4-3.4,0.9-5,1.5
	c-1.8,0.6-3.8,1.4-5.8,2.1c-2,0.6-4.1,1.1-6.1,1.4c-1.9,0.2-3.7,0-5.5-0.5c-1.3-0.3-2.5-0.9-3.5-1.7c-0.4-0.3-0.6-0.5-0.8-0.7
	l-0.3-0.3l0.3,0.2c0.3,0.2,0.7,0.3,1,0.4c1.1,0.4,2.3,0.7,3.6,0.8c1.7,0.1,3.4,0.1,5.1-0.3c2-0.4,3.9-0.9,5.7-1.6
	c2-0.6,4-1.3,5.9-1.8C293.8,361.7,295.6,361.4,297.5,361.4z M278.8,361.5l2.2-0.5l2.2-0.2c0.7,0,1.3,0,2,0c0.5,0,1,0.1,1.4,0.2
	l0.5,0.1l-0.5,0.3c-0.4,0.2-0.8,0.5-1.3,0.7c-0.6,0.3-1.2,0.5-1.9,0.7l-2.2,0.5l-2.2,0.2c-0.7,0-1.3,0-2,0c-0.5,0-1-0.1-1.4-0.2
	l-0.5-0.1l0.5-0.3c0.4-0.3,0.8-0.5,1.3-0.7C277.6,362,278.2,361.7,278.8,361.5L278.8,361.5z M330,333.3c1.7-1,3.4-2.1,5.1-3
	c1.6-0.8,3.2-1.5,4.9-1.9c1.2-0.3,2.5-0.4,3.7-0.2c0.5,0.1,0.9,0.1,1.4,0.3c-0.5,0-0.9,0.1-1.4,0.2c-1.2,0.2-2.3,0.6-3.4,1
	c-1.5,0.7-3,1.5-4.4,2.4c-1.6,1-3.2,2.1-4.9,3.3c-1.7,1.1-3.6,1.9-5.5,2.6c-1.7,0.5-3.6,0.6-5.4,0.3c-1.3-0.2-2.5-0.7-3.5-1.4
	c-0.3-0.2-0.5-0.5-0.8-0.7l-0.3-0.3l0.3,0.2c0.3,0.2,0.6,0.3,0.9,0.4c1.1,0.4,2.3,0.6,3.4,0.5c1.6,0,3.2-0.4,4.7-1
	C326.7,335.2,328.4,334.3,330,333.3z M320.3,331.4c0.8,0,1.7-0.1,2.5-0.3c0.8-0.2,1.5-0.2,2.2-0.4s1.2-0.2,1.6-0.4l0.6-0.1l-0.4,0.5
	c-0.4,0.4-0.9,0.8-1.3,1.2c-0.7,0.5-1.4,0.9-2.2,1.1c-1.8,0.7-3.8,0.8-5.6,0.4c-0.8-0.2-1.6-0.5-2.4-0.8c-0.5-0.3-1-0.6-1.5-1
	l-0.5-0.5h0.7c0.4,0.1,1,0,1.6,0.1s1.4,0,2.2,0.1C318.6,331.5,319.4,331.4,320.3,331.4L320.3,331.4z M355.2,290.3
	c0.6-0.6,1.2-1.1,1.9-1.6c0.9-0.7,1.9-1.4,2.9-2c1.1-0.6,2.3-1.3,3.5-1.9s2.5-1,3.7-1.4c1.1-0.3,2.2-0.6,3.4-0.8
	c0.8-0.1,1.6-0.2,2.4-0.2h0.9l-0.8,0.5c-0.5,0.2-1.3,0.7-2.2,1.1s-1.9,1-3.1,1.4s-2.3,1-3.5,1.6s-2.4,1-3.5,1.5s-2.2,0.9-3.1,1.3
	s-1.7,0.7-2.3,0.9l-0.9,0.3L355.2,290.3z M350.5,301.6c1-0.1,1.9-0.3,2.9-0.7c1.3-0.5,2.5-1.2,3.6-2c1.3-1,2.5-2.1,3.5-3.3
	c1.2-1.2,2.3-2.5,3.5-3.7c1.1-1.1,2.2-2.1,3.5-2.9c0.9-0.6,1.8-1.1,2.9-1.4c0.7-0.2,1.2-0.3,1.2-0.3s-0.4,0.2-1,0.7
	c-0.8,0.6-1.6,1.3-2.3,2c-0.9,0.9-1.8,2-2.9,3.2s-2.1,2.6-3.3,3.9c-1.2,1.3-2.6,2.4-4,3.4c-1.3,0.8-2.8,1.4-4.3,1.6
	c-1.1,0.2-2.2,0.1-3.2-0.1c-0.4-0.1-0.8-0.2-1.1-0.4C349.7,301.6,350,301.6,350.5,301.6L350.5,301.6z M384.8,241.8
	c-0.3,0.4-0.7,1-1.3,1.6s-1.1,1.4-1.8,2.2s-1.3,1.6-2,2.5s-1.4,1.7-2,2.5s-1.3,1.6-1.7,2.2s-1,1.2-1.3,1.6l-0.5,0.6l0.1-0.8
	c0.1-0.7,0.3-1.4,0.6-2.1c0.3-0.9,0.7-1.9,1.2-2.7c0.5-0.9,1.2-1.9,1.9-2.9s1.5-1.7,2.3-2.5c0.7-0.7,1.5-1.3,2.3-1.8
	c0.6-0.4,1.2-0.7,1.8-1l0.7-0.3L384.8,241.8z M389.9,232.9c-0.5,0.3-1.1,0.8-2,1.4s-1.7,1.2-2.7,1.9s-2,1.4-3,2.3s-2,1.6-2.9,2.4
	s-1.8,1.5-2.5,2.2s-1.4,1.2-1.8,1.6l-0.7,0.6l0.4-0.9c0.3-0.8,0.7-1.5,1.2-2.2c0.6-1,1.3-1.9,2.1-2.8c0.9-0.9,1.9-1.9,2.9-2.7
	c1.1-0.8,2.2-1.5,3.3-2.1c1-0.5,2.1-1,3.1-1.4c0.8-0.3,1.5-0.5,2.3-0.6l0.9-0.1L389.9,232.9z"/>
<path class="st0" d="M366.1,195.2c0.5,0.7,0.9,1.5,1.1,2.3c0.1,0.3,0.1,0.7,0.2,1c-0.2-0.3-0.4-0.5-0.6-0.8c-0.5-0.6-1-1.2-1.6-1.6
	c-0.4-0.4-0.8-0.7-1.3-1c-0.1,4.9-0.4,9.8-0.9,14.6c1.7,1.1,3.2,2.5,4.6,3.9c0.9,0.9,1.7,2,2.4,3.1c0,0,0.3-1.5,0.7-3.8
	c0.2-1.3,0.4-2.7,0.5-4c0.1-1.5,0.1-3.1,0.1-4.8c0-0.8,0-1.7-0.1-2.5s-0.2-1.7-0.3-2.5c-0.2-1.5-0.5-3.1-1-4.6
	c-0.4-1.3-1-2.5-1.8-3.6c-0.7-0.9-1.6-1.7-2.6-2.1c-0.5-0.2-1-0.5-1.5-0.7c0,1.6,0.1,3.2,0.1,4.8
	C364.7,193.6,365.5,194.3,366.1,195.2z"/>
<path class="st0" d="M360,149.3c0.6,0.5,1.1,1.1,1.4,1.8c0.1,0.3,0.3,0.5,0.4,0.8c-0.2-0.2-0.4-0.3-0.7-0.5c-0.6-0.4-1.2-0.7-1.8-1
	c-0.4-0.2-0.8-0.4-1.2-0.5c1.4,4.9,2.5,9.8,3.4,14.8c2,0.7,4,1.6,5.8,2.7c1.1,0.6,2,1.4,2.9,2.3c0,0,0-0.4-0.1-1.1s-0.1-1.7-0.3-2.8
	s-0.4-2.5-0.7-4c-0.3-1.6-0.7-3.1-1.1-4.6c-0.4-1.6-1-3.1-1.6-4.7c-0.6-1.4-1.3-2.8-2.1-4.1c-0.7-1.1-1.6-2.1-2.6-3
	c-0.9-0.7-1.9-1.2-3-1.3c-0.8-0.1-1.6-0.3-2.4-0.5c0.4,1.3,0.8,2.6,1.2,4C358.3,148,359.2,148.6,360,149.3z"/>
<path class="st0" d="M342,108.7c1,0.5,1.9,1.1,2.7,1.8c0.6,0.5,1.1,1.2,1.4,1.9c0.1,0.3,0.2,0.5,0.3,0.8c-0.2-0.2-0.4-0.4-0.7-0.5
	c-0.6-0.4-1.2-0.8-1.8-1.1c-0.9-0.4-1.8-0.7-2.7-1l-0.2-0.1c2.2,3.7,4.3,7.5,6.2,11.3c2.3,0.1,4.7,0.4,6.9,1.1
	c1.2,0.3,2.3,0.8,3.3,1.4c0,0-0.1-0.4-0.4-1s-0.6-1.5-1.1-2.6s-1-2.3-1.7-3.7s-1.5-2.7-2.4-4.1c-0.9-1.4-1.8-2.7-2.8-4
	c-0.5-0.6-1-1.2-1.5-1.8s-1.1-1.1-1.6-1.6c-1-0.9-2-1.6-3.2-2.2c-1-0.5-2-0.6-3.1-0.5c-1.1,0.2-2.2,0.2-3.3,0.1
	c1.1,1.6,2.1,3.2,3.1,4.8C340.3,108.1,341.2,108.4,342,108.7z"/>
<path class="st0" d="M311.4,71.6c1.1,0,2.2,0.1,3.2,0.4c0.7,0.2,1.4,0.6,2.1,1c0.5,0.3,0.7,0.5,0.7,0.5c-0.3-0.1-0.6-0.1-0.8-0.1
	c-0.7-0.1-1.4-0.1-2.1-0.1c-1,0-1.9,0.1-2.9,0.3c-0.3,0-0.5,0.1-0.8,0.2c4,3.6,7.8,7.3,11.4,11.3c2.4-0.7,5-1,7.5-0.9
	c1.2,0,2.3,0.2,3.4,0.5c0,0-0.9-1.2-2.4-3c-0.7-0.9-1.7-1.9-2.7-3c-1.1-1.2-2.2-2.3-3.4-3.3c-1.2-1.1-2.5-2.1-3.8-3.1
	c-1.2-0.9-2.5-1.7-3.9-2.4c-1.1-0.6-2.4-1-3.6-1.2c-1-0.2-2-0.1-3,0.3c-0.9,0.4-1.9,0.7-2.9,0.9c-0.3,0.1-0.7,0.1-1,0.2
	c0.8,0.7,1.5,1.3,2.3,2C309.7,71.8,310.5,71.7,311.4,71.6z"/>
<path class="st0" d="M277.7,48.7c1.2-0.1,2.4-0.1,3.5,0.2c0.8,0.2,1.6,0.5,2.4,0.9c0.3,0.2,0.5,0.3,0.8,0.5
	c-0.3-0.1-0.6-0.1-0.9-0.1c-0.8-0.1-1.5-0.1-2.3,0c-1.1,0.1-2.1,0.3-3.2,0.5l-0.3,0.1c3.6,1.9,7.2,3.9,10.7,6.1
	c2.2-1.4,4.7-2.4,7.2-2.9c1.1-0.3,2.2-0.4,3.3-0.4l-0.8-0.6c-0.5-0.4-1.3-0.9-2.3-1.6s-2.1-1.4-3.4-2.1s-2.7-1.5-4.1-2.2
	c-1.4-0.7-2.9-1.3-4.4-1.9c-1.4-0.5-2.9-0.9-4.3-1.2c-1.2-0.2-2.5-0.3-3.8-0.2c-1,0.1-2,0.4-2.8,1c-1.1,0.8-2.3,1.5-3.6,2
	c1.8,0.8,3.5,1.6,5.2,2.5C275.6,49,276.6,48.8,277.7,48.7z"/>
<path class="st0" d="M259.4,343c13.8-5.1,26.9-12.1,38.8-20.9c4.2-3.1,8.3-6.4,12.2-9.9l0.3-0.3c1.3-1.1,2.5-2.3,3.8-3.5
	c5.5-5.3,10.6-11,15.4-17c3-3.8,5.8-7.7,8.4-11.7c0.3-0.5,0.6-0.9,0.9-1.4c1-1.5,1.9-3,2.8-4.5c3.9-6.6,7.3-13.6,10.2-20.7
	c1.2-3,2.4-6,3.4-9.1l0.1-0.2c0.5-1.5,1-3.1,1.5-4.6c0.1-0.4,0.3-0.9,0.4-1.4c0.5-1.7,1-3.4,1.4-5.1c1.9-7.6,3.3-15.2,4.1-23
	c0.5-4.8,0.8-9.7,0.9-14.6c0-0.8,0-1.5,0-2.3l0,0c0-1.6,0-3.2-0.1-4.8c-0.2-7.8-1-15.6-2.4-23.4c-0.9-5-2-10-3.4-14.8
	c-0.2-0.8-0.4-1.6-0.7-2.3c-0.4-1.3-0.8-2.7-1.2-4c-2.4-7.4-5.3-14.6-8.8-21.6c-1.9-3.9-4-7.7-6.2-11.3c-0.5-0.9-1.1-1.8-1.7-2.7
	c-1-1.6-2-3.2-3.1-4.8c-4.3-6.3-9.1-12.3-14.2-18c-3.6-4-7.4-7.7-11.4-11.3c-0.7-0.6-1.4-1.2-2-1.8s-1.5-1.3-2.3-2
	c-5.7-4.8-11.8-9.2-18.1-13.1c-3.5-2.2-7-4.2-10.7-6.1c-1-0.5-2-1-3-1.5c-1.7-0.9-3.5-1.7-5.2-2.5C227.7,28,180,28,138.2,46.7
	c-1.8,0.8-3.5,1.6-5.2,2.5c-1,0.5-2,1-3,1.5c-3.6,1.9-7.2,3.9-10.7,6.1c-6.3,4-12.4,8.4-18.1,13.2c-0.8,0.7-1.5,1.3-2.3,2
	s-1.4,1.2-2,1.8c-4,3.6-7.8,7.3-11.4,11.3c-5.2,5.7-9.9,11.7-14.2,18c-1.1,1.6-2.1,3.2-3.1,4.8c-0.6,0.9-1.1,1.8-1.7,2.7
	c-2.2,3.7-4.3,7.5-6.2,11.3c-3.5,7-6.4,14.2-8.8,21.6c-0.4,1.3-0.8,2.7-1.2,4c-0.2,0.8-0.5,1.6-0.7,2.3c-1.3,4.9-2.5,9.8-3.4,14.8
	c-1.4,7.7-2.2,15.5-2.4,23.4c0,1.6-0.1,3.2-0.1,4.8l0,0c0,0.8,0,1.5,0,2.3c0.1,4.9,0.4,9.8,0.9,14.6c0.8,7.8,2.2,15.4,4.1,23
	c0.4,1.7,0.9,3.4,1.4,5.1c0.1,0.4,0.3,0.9,0.4,1.4c0.5,1.6,1,3.1,1.5,4.6c0,0.1,0.1,0.1,0.1,0.2c1.1,3.1,2.2,6.1,3.4,9.1
	c2.9,7.1,6.3,14.1,10.3,20.7c0.9,1.5,1.8,3,2.8,4.5l0.9,1.4c2.6,4,5.4,8,8.4,11.7c4.7,6,9.9,11.7,15.4,17c1.2,1.1,2.5,2.3,3.7,3.5
	l0.3,0.3c3.9,3.5,8,6.8,12.2,9.9c6.1,4.5,12.6,8.5,19.3,12.1c19.5,10.4,41,16.6,63.1,18.2c4,0.3,8,0.5,12,0.5s8-0.2,12-0.5
	C230.7,351.4,245.4,348.2,259.4,343z M53.4,192.8c0-83,67.5-150.4,150.4-150.4s150.5,67.5,150.5,150.4s-67.5,150.4-150.5,150.4
	S53.4,275.8,53.4,192.8z"/>
<path class="st0" d="M203.8,336.3c79.4,0,143.7-64.3,143.7-143.7S283.2,48.9,203.8,48.9c-79.4,0-143.7,64.3-143.7,143.7c0,0,0,0,0,0
	C60.1,272,124.5,336.3,203.8,336.3z"/>
<path class="st1" d="M181.7,311.4c16.1,0,32.4,0,46.5,0v-92.1h39.3l7.8-46.5h-47v-31.6h47V94.6h-47c-25.7,0-46.5,20.9-46.5,46.6
	v31.5h-31v46.6h31V311.4z"/>
</svg>
