<svg id="Слой_1" data-name="Слой 1" xmlns="http://www.w3.org/2000/svg" viewBox="0 0 406.02 406.02"><defs><style>.cls-1{fill:#12100b;}.cls-2{fill:#fff;}</style></defs><path class="cls-1" d="M174.66,353.09a10.83,10.83,0,0,0,3.08,2.9,22.23,22.23,0,0,0,4.13,2.1,28.58,28.58,0,0,0,4.64,1.23,38.66,38.66,0,0,0,4.54.64c1.44.07,2.77.09,3.9.07,2.26,0,3.73-.16,3.73-.16a20.62,20.62,0,0,1-2.56-3.75c-.25-.44-.51-.94-.77-1.47a159,159,0,0,1-21.53-3.08A9.78,9.78,0,0,0,174.66,353.09Z"/><path class="cls-1" d="M190.3,364.89c-.87.14-1.85.25-2.91.34s-2.22.14-3.47.16H182c-.67,0-1.36-.11-2.07-.18a9.25,9.25,0,0,0-4.62.92,34.08,34.08,0,0,0-5.19,3c-1.81,1.24-3.68,2.72-5.57,4.31s-3.79,3.17-5.64,4.83-3.64,3.26-5.3,4.79l-4.46,4.08c-2.58,2.35-4.23,3.93-4.23,3.93s1.35-.29,3.54-.67c1.09-.18,2.39-.42,3.86-.72s3.07-.57,4.77-.85,3.47-.52,5.3-.85,3.68-.55,5.52-.73l2.74-.23q1.37-.13,2.7-.18a31.2,31.2,0,0,1,5.07.17c3.21.38,6.1-1.05,8.5-3.21a26.53,26.53,0,0,0,5.79-8.41,58.11,58.11,0,0,0,4.1-12.58,19.21,19.21,0,0,1-4.12,1.54C192,364.52,191.19,364.71,190.3,364.89Zm-4.53,12.2c-.11.22-.29.53-.54.92a10.82,10.82,0,0,1-2.7,2.71,15.36,15.36,0,0,1-4.87,2.26,35.39,35.39,0,0,1-6,.89c-2,.05-4,0-5.83.15a36.28,36.28,0,0,0-5,.48,21.09,21.09,0,0,0-3.43.92,13.62,13.62,0,0,0-1.28.53s.37-.36,1.08-.93a13.71,13.71,0,0,1,3.3-1.78,22.83,22.83,0,0,1,5.13-1.24c1.9-.21,3.91-.3,5.87-.46a32.75,32.75,0,0,0,5.66-.54,18.6,18.6,0,0,0,4.67-1.43,13.67,13.67,0,0,0,3-1.87,10.33,10.33,0,0,0,1-.95Zm.92-5.69a16.67,16.67,0,0,1-1.68,1.93,21.74,21.74,0,0,1-2.75,2.34,39,39,0,0,1-3.54,2.12,38.43,38.43,0,0,1-3.85,1.41,22.79,22.79,0,0,1-3.49.65,16,16,0,0,1-2.51.06l-1-.08.89-.37c.57-.18,1.35-.55,2.29-.89s2-.86,3.17-1.29a36.42,36.42,0,0,0,3.52-1.61c1.21-.53,2.39-1.12,3.48-1.73s2.15-1.11,3-1.66,1.64-.9,2.15-1.23l.84-.46Z"/><path class="cls-1" d="M132.71,340.05a12.46,12.46,0,0,0,2.22,3.59,18.22,18.22,0,0,0,3.43,3.16,38.39,38.39,0,0,0,4.11,2.53,28.63,28.63,0,0,0,4.21,1.89c1.35.51,2.62.93,3.7,1.27a23.58,23.58,0,0,0,2.64.68l1,.2a19.32,19.32,0,0,1-1.52-4.1,37.57,37.57,0,0,1-.79-4.1,160.47,160.47,0,0,1-19.5-8.77A7.87,7.87,0,0,0,132.71,340.05Z"/><path class="cls-1" d="M149.82,358.4l.15.05a125.53,125.53,0,0,0,21.94,4.44c3.06.4,5.84.53,8.24.63,1.2,0,2.31.11,3.32.13l2.75-.06c1.65,0,2.91-.08,3.77-.11l1.29-.05-1.28-.24c-.83-.15-2.08-.4-3.7-.66l-2.72-.45c-1-.18-2.07-.42-3.23-.65-2.32-.5-5-.93-7.94-1.71l-4.67-1.1-5.07-1.41c-.87-.27-1.78-.46-2.69-.75l-2.77-.88c-1.87-.62-3.84-1.16-5.81-1.93a163,163,0,0,1-53.69-30.39l-3.46-2.94-3.37-3.13c-2.31-2.05-4.42-4.38-6.66-6.61-1.12-1.13-2.14-2.36-3.22-3.54s-2.18-2.36-3.18-3.65c-2-2.52-4.16-5-6.09-7.71a169.65,169.65,0,0,1-11.15-16.86c-1.62-3-3.38-6-4.85-9.14-.75-1.56-1.56-3.11-2.27-4.7l-2.08-4.83c-.73-1.6-1.32-3.26-1.94-4.91s-1.28-3.3-1.83-5c-1.07-3.38-2.25-6.74-3.12-10.2a169.93,169.93,0,0,1-4.4-21c-.42-3.57-.93-7.13-1.12-10.72-.11-1.8-.3-3.59-.35-5.38l-.13-5.38c0-.88-.07-1.82-.05-2.65l.05-2.71c0-1.8,0-3.63.17-5.38s.21-3.54.32-5.31.33-3.53.5-5.29a179.6,179.6,0,0,1,3.58-20.7A183.77,183.77,0,0,1,49,135.94a169.47,169.47,0,0,1,17.35-34.35l2.54-3.77,2.62-3.63c.85-1.21,1.75-2.37,2.65-3.52s1.77-2.3,2.68-3.4c1.85-2.18,3.62-4.38,5.51-6.39.93-1,1.83-2,2.77-3L87.93,75a168.07,168.07,0,0,1,22-18.55A190.82,190.82,0,0,1,128.7,44.7c5.41-2.9,9.75-5,12.76-6.39,1.51-.65,2.66-1.18,3.44-1.54l1.18-.54-1.24.38c-.81.25-2,.62-3.59,1.13A142.67,142.67,0,0,0,127.9,43c-2.41,1.12-5,2.43-7.81,3.93l.08-.06a57.18,57.18,0,0,1,6.4-3.91,17.17,17.17,0,0,0,3.64-2.75,40.76,40.76,0,0,0,3.38-4c1.09-1.44,2.15-3,3.16-4.63s2-3.18,2.94-4.77,1.78-3.11,2.59-4.54l2.11-3.77c1.2-2.16,1.92-3.56,1.92-3.56l-2.61,1.78-2.87,2c-1.1.73-2.28,1.61-3.57,2.48s-2.66,1.75-4,2.74S130.4,25.87,129,26.8s-2.87,1.91-4.31,2.76c-.72.43-1.43.83-2.14,1.22s-1.39.79-2.08,1.15a14.32,14.32,0,0,0-3.52,2.52,14.54,14.54,0,0,0-2.37,3.24,18,18,0,0,0-2.08,7.08,27.9,27.9,0,0,0,.17,6.49c-1.4.87-2.81,1.77-4.26,2.74a154.79,154.79,0,0,0-22,18c.56-.61,1.15-1.22,1.8-1.83a14.51,14.51,0,0,0,2.68-3.79,30.08,30.08,0,0,0,2.08-4.89c.58-1.81,1.15-3.64,1.65-5.55s.91-3.87,1.35-5.71c.85-3.69,1.48-7.27,2-9.79s.77-4.18.77-4.18l-2,2.55c-1.26,1.56-2.94,3.85-4.93,6.3l-3.08,3.94-1.64,2-1.65,2.06c-1.1,1.37-2.27,2.67-3.39,3.95a46.42,46.42,0,0,1-3.4,3.55,14,14,0,0,0-4,7.41,20.24,20.24,0,0,0,.21,7.71,28.07,28.07,0,0,0,2,6c0,.1.09.19.13.29l-2.56,3A160,160,0,0,0,63.51,99.57c-2.14,3.25-4.2,6.65-6.17,10.17.36-.72.75-1.45,1.16-2.21A15.66,15.66,0,0,0,60,103.08a37.8,37.8,0,0,0,.51-5.42c.06-1.91,0-3.93-.12-6s-.24-4.06-.43-6-.38-3.87-.56-5.64-.38-3.34-.53-4.7c-.35-2.68-.57-4.43-.57-4.43L58,71.7c-.2.54-.49,1.33-.84,2.3s-.82,2.12-1.31,3.4-1,2.73-1.62,4.25l-1.86,4.74c-.63,1.65-1.3,3.32-2,5S49,94.66,48.24,96.21s-1.53,3.05-2.31,4.44a14.19,14.19,0,0,0-1.59,4.21,14.6,14.6,0,0,0-.11,4.22,19.64,19.64,0,0,0,2.59,7.54A32.63,32.63,0,0,0,51,122.25c-1.84,4-3.57,8.15-5.13,12.42a182.71,182.71,0,0,0-6,20c-.2.88-.38,1.77-.57,2.66a47.24,47.24,0,0,1,1-5.26,14.26,14.26,0,0,0,.16-4.74,29.78,29.78,0,0,0-1.14-5.41c-.58-1.9-1.18-3.82-1.93-5.78s-1.58-3.92-2.33-5.8-1.57-3.7-2.31-5.37l-2-4.48c-1.14-2.56-1.93-4.19-1.93-4.19s-.08,1.29-.23,3.38-.3,5.06-.6,8.33c-.12,1.66-.26,3.41-.39,5.18s-.34,3.61-.52,5.41-.41,3.61-.71,5.34a44.9,44.9,0,0,1-.95,5,11.64,11.64,0,0,0-.32,4.55,14.31,14.31,0,0,0,1.14,4.12,20.07,20.07,0,0,0,4.94,6.57,32.27,32.27,0,0,0,5.49,4l.59.34c-.36,2.41-.71,4.84-1,7.28-.18,1.79-.35,3.6-.53,5.4l-.33,5.46c-.14,1.84-.13,3.63-.18,5.44l-.06,2.71c0,1,0,1.84,0,2.77l.13,5.49c0,1.16.12,2.32.2,3.49-.12-.71-.23-1.44-.34-2.22-.14-1.28-.22-2.66-.29-4.14a12.26,12.26,0,0,0-1.23-4.6,29.48,29.48,0,0,0-2.7-4.87c-.55-.83-1.15-1.66-1.79-2.49s-1.23-1.67-1.89-2.51c-1.31-1.66-2.71-3.32-4.09-4.91-2.7-3.17-5.34-6.11-7.32-8.27s-3.21-3.5-3.21-3.5.29,1.27.77,3.34c.24,1.05.53,2.29.86,3.68l1,4.56c.38,1.63.77,3.35,1.12,5.11s.72,3.59,1.07,5.37.57,3.6.84,5.35a41.84,41.84,0,0,1,.46,5.08,12.18,12.18,0,0,0,3.32,8.11,20.2,20.2,0,0,0,6.85,4.86,35.72,35.72,0,0,0,7.51,2.37c.11.88.21,1.75.31,2.62A173.85,173.85,0,0,0,41,241.07c.85,3.56,2,7,3.06,10.49.12.38.26.74.39,1.12-.6-1.4-1.17-2.94-1.78-4.65a10.82,10.82,0,0,0-1-2.05,14.23,14.23,0,0,0-1.43-2,28.44,28.44,0,0,0-4.12-3.83c-1.63-1.24-3.27-2.49-5.1-3.69s-3.68-2.37-5.54-3.49l-5.24-3.17-4.49-2.6-4.3-2.41s.14.28.46.79l1.3,2.2,1.89,3.3c.72,1.25,1.42,2.65,2.29,4.11s1.71,3,2.57,4.6,1.7,3.26,2.55,4.87,1.64,3.29,2.33,4.92,1.34,3.23,1.84,4.78a11.75,11.75,0,0,0,5.57,6.8,21.68,21.68,0,0,0,8.28,2.52,36.06,36.06,0,0,0,7.46,0l.58-.06,1.29,3.13c.7,1.65,1.49,3.25,2.23,4.87,1.44,3.27,3.18,6.36,4.79,9.5,2,3.6,4.13,7.14,6.33,10.57l0,0a12,12,0,0,0-3.49-3.14,26.65,26.65,0,0,0-5.17-2.36c-1.88-.72-3.94-1.36-6.08-1.94s-4.4-1.07-6.51-1.59c-4.24-1-8.36-1.85-11.42-2.45l-4.95-1,.68.63c.45.41,1,1,1.87,1.74,1.61,1.46,3.83,3.49,6.22,5.84,1.22,1.16,2.55,2.36,3.83,3.63s2.57,2.6,3.85,3.92,2.53,2.64,3.66,4,2.15,2.74,3.09,4.06a11.38,11.38,0,0,0,7.36,4.81,22.53,22.53,0,0,0,9-.26,38.39,38.39,0,0,0,7.44-2.44l.22-.09a167.1,167.1,0,0,0,20.61,21.65,11.49,11.49,0,0,0-2.89-1.09,28.87,28.87,0,0,0-5.71-.64c-2-.09-4.27,0-6.55.1s-4.63.38-6.86.55c-4.5.4-8.83.93-12,1.33s-5.19.63-5.19.63l3.14,1.5c2,.9,4.74,2.17,7.73,3.68,1.48.78,3.14,1.5,4.74,2.33s3.24,1.7,4.82,2.6,3.2,1.78,4.68,2.74,2.81,2,4.09,3a11,11,0,0,0,8.5,2.35,24,24,0,0,0,8.79-3.18,42.78,42.78,0,0,0,6.69-4.82l.1-.08,1.27.9c2.4,1.64,4.84,3.12,7.2,4.65l7.17,4.06,7,3.54,4,1.76a10.05,10.05,0,0,0-4-.37,32.3,32.3,0,0,0-5.73,1.2c-2,.59-4.18,1.36-6.38,2.24-1.1.44-2.21.9-3.32,1.38l-3.27,1.38c-2.15.93-4.26,1.88-6.22,2.78l-5.27,2.44c-3,1.37-5,2.31-5,2.31s1.34.15,3.49.47l3.85.48c1.45.19,3,.41,4.71.67s3.46.5,5.26.79,3.62.63,5.41,1,3.59.73,5.28,1.22a41.2,41.2,0,0,1,4.78,1.69,11.12,11.12,0,0,0,8.92-.39,26.15,26.15,0,0,0,7.72-6,50,50,0,0,0,5.23-7ZM115.4,43.76c.06-.22.12-.55.26-.95a13.36,13.36,0,0,1,1.52-3.18,20.27,20.27,0,0,1,3.2-3.79,43.34,43.34,0,0,1,4.41-3.41l4.7-2.75c1.47-.87,2.91-1.57,4.06-2.32s2.15-1.31,2.79-1.8,1-.74,1-.74-.26.4-.75,1.07a20.42,20.42,0,0,1-2.35,2.54,38,38,0,0,1-3.79,3l-4.52,3a39,39,0,0,0-4.37,3,30,30,0,0,0-3.45,3A21.1,21.1,0,0,0,116,43c-.48.66-.72,1.08-.72,1.08ZM78.66,68.65A13.41,13.41,0,0,1,80.08,64a27.52,27.52,0,0,1,3.07-4.42l3.55-3.74a43.1,43.1,0,0,0,2.9-3.28A21.21,21.21,0,0,0,91.34,50a11.17,11.17,0,0,0,.57-1.09,10.9,10.9,0,0,1-.16,1.25,12.62,12.62,0,0,1-1.08,3.15,22.27,22.27,0,0,1-2.52,3.94l-3.34,3.94a26.41,26.41,0,0,0-3.06,3.9,16.28,16.28,0,0,0-1.86,3.85,11.56,11.56,0,0,0-.56,3,8,8,0,0,0,0,1.24A8.5,8.5,0,0,1,78.89,72,9.43,9.43,0,0,1,78.66,68.65ZM56.13,97.56c0-1.06,0-2.19,0-3.31s.13-2.25.15-3.3.15-2.06.17-2.91.17-1.59.2-2.1.12-.81.12-.81l.32.76a18.22,18.22,0,0,1,.62,2,23,23,0,0,1,.51,2.95c.08,1.09.14,2.26.16,3.44s-.2,2.33-.34,3.41a24.69,24.69,0,0,1-.67,2.93,17.34,17.34,0,0,1-.73,2l-.35.73-.08-.82c0-.5-.11-1.24-.09-2.1S56.07,98.61,56.13,97.56ZM50,112.81l-.49.67s0-.3.08-.83.11-1.27.26-2.12.21-1.88.41-2.93.33-2.18.44-3.32.34-2.25.44-3.31.3-2.07.36-2.94.25-1.6.29-2.12.15-.82.15-.82.1.29.29.79A16.34,16.34,0,0,1,52.78,98a20.57,20.57,0,0,1,.32,3.07c0,1.13-.06,2.34-.16,3.54s-.47,2.36-.76,3.45a19.41,19.41,0,0,1-1.1,2.87A15,15,0,0,1,50,112.81ZM34.23,153.45a14.81,14.81,0,0,1-.32,2.06c-.13.49-.21.77-.21.77s-.08-.28-.23-.76-.34-1.16-.5-2-.45-1.74-.61-2.74-.41-2.06-.68-3.11-.38-2.14-.6-3.13-.33-2-.53-2.76-.22-1.53-.32-2-.09-.79-.09-.79l.49.62a14.38,14.38,0,0,1,1.11,1.73,21.58,21.58,0,0,1,1.2,2.65c.34,1,.66,2.1.94,3.21s.32,2.26.41,3.33A21.14,21.14,0,0,1,34.23,153.45Zm1.23-8.33s-.14-.28-.4-.77-.61-1.19-.92-2.06-.76-1.87-1.06-3l-1-3.47c-.24-1.21-.47-2.42-.69-3.55s-.27-2.23-.4-3.15-.07-1.72-.11-2.26,0-.88,0-.88l.4.77c.22.5.61,1.19.92,2.06s.75,1.87,1.06,3,.64,2.29,1,3.47.47,2.41.69,3.55.27,2.22.39,3.14.08,1.73.11,2.27S35.46,145.12,35.46,145.12Zm-8.14,60.64c-.08.48-.12.75-.12.75s-.12-.25-.31-.69-.46-1.06-.7-1.8-.65-1.58-.93-2.5-.66-1.87-1.05-2.81-.67-1.93-1-2.82-.62-1.77-.94-2.49-.47-1.39-.65-1.82l-.23-.73.58.47a11.51,11.51,0,0,1,1.37,1.4A16.26,16.26,0,0,1,24.91,195c.48.89.95,1.87,1.39,2.88s.62,2.1.84,3.1a16.44,16.44,0,0,1,.29,2.8A12.09,12.09,0,0,1,27.32,205.76Zm2.51-9c-.3-.41-.82-1-1.32-1.66s-1.17-1.47-1.76-2.37-1.27-1.8-2-2.7-1.27-1.89-1.9-2.75-1.14-1.75-1.65-2.44-.85-1.38-1.14-1.81l-.41-.72.71.4A16.17,16.17,0,0,1,22.15,184,22.34,22.34,0,0,1,24.38,186c.73.82,1.49,1.73,2.22,2.67s1.25,2,1.8,3a23.41,23.41,0,0,1,1.21,2.82,15.29,15.29,0,0,1,.61,2.1c.1.52.15.82.15.82Zm-6.57,39.62c-.81-.53-1.46-1.06-2-1.36l-.75-.54.91.12a15.49,15.49,0,0,1,2.33.59A21.12,21.12,0,0,1,27,236.58c1.08.63,2.21,1.36,3.31,2.14s2,1.82,2.88,2.75a21,21,0,0,1,2.09,2.78,17.08,17.08,0,0,1,1.17,2.18l.36.87-.71-.6c-.41-.41-1.07-.92-1.78-1.59s-1.61-1.35-2.47-2.17-1.88-1.61-2.9-2.36-2-1.59-3-2.27S24.08,236.92,23.26,236.42Zm13.13,20.3c-.3-.4-.8-.92-1.29-1.6s-1.15-1.4-1.73-2.24-1.28-1.68-2-2.51-1.31-1.74-2-2.52-1.21-1.59-1.77-2.21-.93-1.25-1.26-1.62l-.46-.66.73.3a13.53,13.53,0,0,1,1.82,1,19.06,19.06,0,0,1,2.33,1.78c.77.75,1.57,1.59,2.33,2.46s1.3,1.92,1.86,2.86a17.85,17.85,0,0,1,1.22,2.72,14.15,14.15,0,0,1,.58,2c.08.51.13.81.13.81Zm1,27.84h.93a20.42,20.42,0,0,1,2.44.26,26.94,26.94,0,0,1,3.36.76c1.2.4,2.47.86,3.73,1.35s2.41,1.24,3.52,1.87a28.15,28.15,0,0,1,2.86,2,21.17,21.17,0,0,1,1.86,1.65l.65.7-.89-.31c-.53-.24-1.35-.48-2.25-.9s-2-.78-3.11-1.32-2.31-1.05-3.52-1.53-2.37-1.12-3.5-1.59-2.16-1-3.07-1.42-1.65-.83-2.19-1.07ZM60.79,304.2a8,8,0,0,1-3.22.15,11.68,11.68,0,0,1-4.32-1.63,24.8,24.8,0,0,1-4-3.39C48,298,47,296.64,45.92,295.43S44,293,43.07,292.18a22.86,22.86,0,0,0-2.28-2,11.33,11.33,0,0,0-1-.7,10.76,10.76,0,0,1,1.16.29,12.41,12.41,0,0,1,2.86,1.42A23.35,23.35,0,0,1,47.34,294c1.14,1.18,2.29,2.47,3.48,3.66a22.65,22.65,0,0,0,3.5,3.33,14.23,14.23,0,0,0,3.56,2,9.86,9.86,0,0,0,2.87.67,6.83,6.83,0,0,0,1.16,0A7.29,7.29,0,0,1,60.79,304.2Zm34.49,34a7.21,7.21,0,0,1-.79.7A8.4,8.4,0,0,1,91,340.34a12.23,12.23,0,0,1-5.37-.33,26.23,26.23,0,0,1-5.55-2.56c-1.71-1.12-3.34-2.3-4.9-3.27a28.58,28.58,0,0,0-4.35-2.41,15.11,15.11,0,0,0-3.36-1,9.63,9.63,0,0,0-1.36-.19,11.17,11.17,0,0,1,1.38-.27,11.49,11.49,0,0,1,3.71.25,20.07,20.07,0,0,1,4.94,1.91c1.69.93,3.39,2,5.09,3a24.83,24.83,0,0,0,5,2.64,13.83,13.83,0,0,0,4.68.95,9.62,9.62,0,0,0,3.41-.53,9.09,9.09,0,0,0,.93-.39l.32-.17Zm2.13-4.33a7.62,7.62,0,0,1-1.47,1,9.37,9.37,0,0,1-2.35.82,17.49,17.49,0,0,1-2.84.21,18.35,18.35,0,0,1-2.79-.62,9.92,9.92,0,0,1-2.21-1.15,7.31,7.31,0,0,1-1.34-1.16L84,332.4l.65.13c.38.13,1,.19,1.61.36s1.42.22,2.19.39a15.31,15.31,0,0,0,2.47.25,14.92,14.92,0,0,0,2.48.1c.79-.06,1.57,0,2.23-.07s1.24-.05,1.64-.11l.66,0Zm27.18,29.22a10,10,0,0,1,1.43-.18,16,16,0,0,1,2,0l2.22.23,2.17.55a14.61,14.61,0,0,1,1.86.69,11.19,11.19,0,0,1,1.28.66l.48.32-.55.13a11.49,11.49,0,0,1-1.42.18,14.4,14.4,0,0,1-2,0l-2.22-.24-2.17-.54a18.23,18.23,0,0,1-1.85-.69,12.34,12.34,0,0,1-1.29-.66l-.48-.32Zm15.79,3.72c-.18.18-.46.43-.83.73a10.42,10.42,0,0,1-3.53,1.72,15.37,15.37,0,0,1-5.55.47,35.54,35.54,0,0,1-6.15-1.37c-2-.71-3.93-1.49-5.75-2.09a36.05,36.05,0,0,0-5-1.44,20.36,20.36,0,0,0-3.67-.43,13.65,13.65,0,0,0-1.43,0,13.45,13.45,0,0,1,1.38-.48,14.23,14.23,0,0,1,3.85-.43,23.91,23.91,0,0,1,5.42.81c1.93.53,3.92,1.21,5.89,1.8a32.57,32.57,0,0,0,5.72,1.59,18.54,18.54,0,0,0,5.06.25,13.26,13.26,0,0,0,3.56-.83,9.32,9.32,0,0,0,1-.43l.34-.17Z"/><path class="cls-1" d="M100.43,315s0-.33,0-.9c-1.27-1.14-2.52-2.29-3.75-3.47-.08.21-.14.43-.23.64-1,2.47-.55,5.13.72,7.86a19,19,0,0,0,2.49,4,45,45,0,0,0,3.28,3.63,38.19,38.19,0,0,0,3.54,3c1.16.89,2.26,1.68,3.2,2.33,1.94,1.22,3.27,1.9,3.27,1.9a19.25,19.25,0,0,1-.42-4.25,32.86,32.86,0,0,1,.44-5.46q-6.36-4.65-12.24-9.9Z"/><path class="cls-1" d="M72.68,283.34a4.47,4.47,0,0,0,0,1,5.28,5.28,0,0,1-.44-.91,6.22,6.22,0,0,1-.23-2.74s0-.05,0-.08q-1.41-2.23-2.76-4.53c-.21.31-.41.63-.63.92-1.53,2-1.73,4.65-1.2,7.61.14.74.32,1.49.54,2.26s.54,1.49.85,2.24A47.74,47.74,0,0,0,71,293.51a43.72,43.72,0,0,0,2.61,3.92c.87,1.2,1.7,2.29,2.44,3.18,1.54,1.73,2.62,2.79,2.62,2.79a18.78,18.78,0,0,1,.62-4.1,30.87,30.87,0,0,1,2-5.59q-4.44-5.65-8.36-11.72A6.11,6.11,0,0,0,72.68,283.34Z"/><path class="cls-1" d="M55.34,246.26l.21-.25c-.52-1.53-1-3.07-1.47-4.61a3.85,3.85,0,0,0-.84.93,2.37,2.37,0,0,0-.36.69,2.83,2.83,0,0,1-.05-.84,4.68,4.68,0,0,1,.8-2.08l0-.07c-.5-1.7-1-3.4-1.42-5.12-.34.3-.67.6-1,.86-1.86,1.42-2.73,3.91-3,6.89a20.82,20.82,0,0,0,.19,4.7,48.84,48.84,0,0,0,.91,4.89c.45,1.58,1,3.11,1.47,4.52s1,2.71,1.49,3.76c1,2.12,1.73,3.45,1.73,3.45a17.94,17.94,0,0,1,1.58-3.69A28.84,28.84,0,0,1,59,255.35q-1.83-4.5-3.4-9.13Z"/><path class="cls-1" d="M46,198.24a10.9,10.9,0,0,0-1.64,1.66,6,6,0,0,0-.56.74,7,7,0,0,1,.18-.95,7.47,7.47,0,0,1,1.09-2.34A13.23,13.23,0,0,1,47.25,195c0-1.59,0-3.18.07-4.76a14.24,14.24,0,0,1-1.54.73,6.32,6.32,0,0,0-2.65,2.15,11.81,11.81,0,0,0-1.81,3.62,30.2,30.2,0,0,0-1,4.58c-.12.81-.22,1.63-.3,2.47s-.06,1.66-.07,2.48c0,1.66,0,3.28.13,4.78a37.19,37.19,0,0,0,.46,4c.35,2.34.66,3.84.66,3.84a17.45,17.45,0,0,1,2.39-3.06,29.25,29.25,0,0,1,4.58-3.94c-.51-4.81-.8-9.7-.86-14.63A9.61,9.61,0,0,0,46,198.24Z"/><path class="cls-1" d="M51.84,152.52a11.8,11.8,0,0,0-1.81,1,8.31,8.31,0,0,0-.68.49,6.57,6.57,0,0,1,.36-.79,6.85,6.85,0,0,1,1.44-1.82,11.63,11.63,0,0,1,2.62-1.76q.58-2,1.23-4a16.4,16.4,0,0,1-2.4.51,5.71,5.71,0,0,0-3,1.34,13.2,13.2,0,0,0-2.64,3,32.23,32.23,0,0,0-2.15,4.11,35.87,35.87,0,0,0-1.64,4.67,42.23,42.23,0,0,0-1.15,4.63c-.28,1.48-.5,2.84-.68,4s-.23,2.15-.29,2.82-.08,1.06-.08,1.06a16.48,16.48,0,0,1,2.91-2.28,27,27,0,0,1,5.8-2.69q1.34-7.54,3.37-14.83A9.58,9.58,0,0,0,51.84,152.52Z"/><path class="cls-1" d="M69.78,112.76a17.35,17.35,0,0,0-2.69,1,11,11,0,0,0-1.8,1.08c-.43.3-.67.51-.67.51a7.33,7.33,0,0,1,.35-.81,6.54,6.54,0,0,1,1.42-1.86,10.17,10.17,0,0,1,2.74-1.8,19.09,19.09,0,0,1,2.52-.84c1-1.61,2-3.21,3.11-4.78a14.53,14.53,0,0,1-3.33-.11,5.49,5.49,0,0,0-3.1.5,14.08,14.08,0,0,0-3.22,2.18c-.54.47-1.08,1-1.62,1.54s-1,1.18-1.52,1.81a42.39,42.39,0,0,0-2.84,4c-.85,1.4-1.64,2.8-2.35,4.12s-1.24,2.59-1.72,3.66-.85,2-1.1,2.6-.35,1-.35,1a13.51,13.51,0,0,1,3.29-1.39,25.85,25.85,0,0,1,6.9-1.09q2.88-5.82,6.2-11.35Z"/><path class="cls-1" d="M100.36,75.91c-.28-.06-.56-.13-.83-.17a18.41,18.41,0,0,0-2.87-.31,16,16,0,0,0-2.11.08,8.1,8.1,0,0,0-.83.1,7.33,7.33,0,0,1,.69-.53,8,8,0,0,1,2.09-1,10.53,10.53,0,0,1,3.21-.4,18.15,18.15,0,0,1,2.68.37l2.3-1.94c-.35-.06-.7-.11-1-.18a14.14,14.14,0,0,1-2.92-.88,5.39,5.39,0,0,0-3-.28,12.09,12.09,0,0,0-3.63,1.23,32.12,32.12,0,0,0-3.88,2.35,45.54,45.54,0,0,0-3.77,3.07,43.76,43.76,0,0,0-3.36,3.28c-1,1.09-1.94,2.09-2.67,3-1.47,1.82-2.36,3-2.36,3a15.62,15.62,0,0,1,3.41-.49A23.55,23.55,0,0,1,89,87.2,159.49,159.49,0,0,1,100.36,75.91Z"/><path class="cls-1" d="M133.19,52.84A22.15,22.15,0,0,0,130,52.3a12.54,12.54,0,0,0-2.31,0c-.58,0-.92.1-.92.1s.27-.21.79-.53A7.37,7.37,0,0,1,130,51a12.33,12.33,0,0,1,3.54-.15,30.11,30.11,0,0,1,3,.56q2.6-1.29,5.24-2.48a15,15,0,0,1-3.58-2,5.06,5.06,0,0,0-2.75-1,14.37,14.37,0,0,0-3.77.25,22.93,22.93,0,0,0-4.33,1.2,39.81,39.81,0,0,0-4.45,1.85c-1.43.72-2.83,1.46-4.11,2.18s-2.39,1.49-3.35,2.13-1.75,1.17-2.29,1.56l-.82.64a12.62,12.62,0,0,1,3.33.38A23.4,23.4,0,0,1,122.82,59q5.22-3.26,10.69-6.1Z"/><path class="cls-1" d="M216,359.87s1.47.14,3.73.16c1.13,0,2.46,0,3.9-.07a38.66,38.66,0,0,0,4.54-.64,28.46,28.46,0,0,0,4.63-1.23A22,22,0,0,0,237,356a10.83,10.83,0,0,0,3.08-2.9,9.78,9.78,0,0,0,.84-1.52,159,159,0,0,1-21.53,3.08c-.26.53-.52,1-.77,1.47A20.62,20.62,0,0,1,216,359.87Z"/><path class="cls-1" d="M261.1,383c-1.66-1.53-3.46-3.16-5.3-4.79s-3.74-3.22-5.64-4.83-3.76-3.07-5.57-4.31a34.08,34.08,0,0,0-5.19-3,9.25,9.25,0,0,0-4.62-.92c-.71.07-1.4.14-2.07.18h-1.94c-1.25,0-2.41-.07-3.47-.16s-2-.2-2.91-.34-1.67-.37-2.37-.56a19.21,19.21,0,0,1-4.12-1.54,58.11,58.11,0,0,0,4.1,12.58,26.53,26.53,0,0,0,5.79,8.41c2.4,2.16,5.29,3.59,8.5,3.21a31.16,31.16,0,0,1,5.07-.17q1.33,0,2.7.18l2.74.23c1.83.18,3.69.43,5.52.73s3.61.56,5.3.85,3.31.57,4.77.85,2.77.54,3.86.72c2.19.38,3.54.67,3.54.67s-1.65-1.58-4.23-3.93Zm-33.66-12.45.84.46c.51.33,1.29.7,2.15,1.23s1.94,1,3,1.66,2.27,1.2,3.48,1.73a36.42,36.42,0,0,0,3.52,1.61c1.16.43,2.21,1,3.17,1.29s1.72.71,2.29.89l.88.37-1,.08a16,16,0,0,1-2.51-.06,22.79,22.79,0,0,1-3.49-.65,38.43,38.43,0,0,1-3.85-1.41,39,39,0,0,1-3.54-2.12,21.74,21.74,0,0,1-2.75-2.34A16.67,16.67,0,0,1,228,371.4Zm29.76,14.83a20.65,20.65,0,0,0-3.42-.92,36.28,36.28,0,0,0-5-.48c-1.82-.11-3.81-.1-5.83-.15a35.39,35.39,0,0,1-6-.89,15.52,15.52,0,0,1-4.88-2.26,10.92,10.92,0,0,1-2.69-2.71c-.25-.39-.43-.7-.54-.92l-.17-.34a10.33,10.33,0,0,0,1,.95,13.67,13.67,0,0,0,3,1.87,18.6,18.6,0,0,0,4.67,1.43,32.75,32.75,0,0,0,5.66.54c2,.16,4,.25,5.87.46a22.83,22.83,0,0,1,5.13,1.24,13.71,13.71,0,0,1,3.3,1.78c.71.57,1.08.93,1.08.93A13.26,13.26,0,0,0,257.2,385.42Z"/><path class="cls-1" d="M262.18,349.27a19.32,19.32,0,0,1-1.52,4.1l1-.2a23.58,23.58,0,0,0,2.64-.68c1.08-.34,2.35-.76,3.7-1.27a28.63,28.63,0,0,0,4.21-1.89,38.39,38.39,0,0,0,4.11-2.53,18.22,18.22,0,0,0,3.43-3.16,12.46,12.46,0,0,0,2.22-3.59,7.87,7.87,0,0,0,.49-3.65,160.47,160.47,0,0,1-19.5,8.77A37.57,37.57,0,0,1,262.18,349.27Z"/><path class="cls-1" d="M314.26,315l-.28-.63q-5.87,5.23-12.24,9.9a32.86,32.86,0,0,1,.44,5.46,19.25,19.25,0,0,1-.42,4.25s1.33-.68,3.27-1.9c.94-.65,2-1.44,3.2-2.33a38.19,38.19,0,0,0,3.54-3,45,45,0,0,0,3.28-3.63,19,19,0,0,0,2.49-4c1.27-2.73,1.76-5.39.72-7.86-.09-.21-.15-.43-.23-.64-1.23,1.18-2.48,2.33-3.75,3.47C314.27,314.71,314.26,315,314.26,315Z"/><path class="cls-1" d="M342.67,280.67a6.22,6.22,0,0,1-.23,2.74,5.28,5.28,0,0,1-.44.91,4.47,4.47,0,0,0,0-1,6.11,6.11,0,0,0-.25-1.35q-3.93,6.06-8.36,11.72a30.87,30.87,0,0,1,2,5.59,18.78,18.78,0,0,1,.62,4.1s1.08-1.06,2.62-2.79c.74-.89,1.57-2,2.44-3.18a43.72,43.72,0,0,0,2.61-3.92,47.74,47.74,0,0,0,2.19-4.42c.31-.75.61-1.5.85-2.24s.4-1.52.54-2.26c.53-3,.33-5.63-1.2-7.61-.22-.29-.42-.61-.63-.92q-1.35,2.29-2.76,4.53S342.67,280.65,342.67,280.67Z"/><path class="cls-1" d="M361.06,240.1a4.68,4.68,0,0,1,.8,2.08,2.83,2.83,0,0,1-.05.84,2.37,2.37,0,0,0-.36-.69,3.85,3.85,0,0,0-.84-.93c-.47,1.54-.95,3.08-1.47,4.61l.21.25-.28,0q-1.56,4.64-3.4,9.13a28.84,28.84,0,0,1,3.37,4.94,17.46,17.46,0,0,1,1.57,3.69s.74-1.33,1.74-3.45c.52-1,1-2.36,1.49-3.76s1-2.94,1.47-4.52a48.84,48.84,0,0,0,.91-4.89,20.82,20.82,0,0,0,.19-4.7c-.24-3-1.11-5.47-3-6.89-.34-.26-.68-.56-1-.86-.44,1.72-.92,3.42-1.42,5.12Z"/><path class="cls-1" d="M394.5,229.8,389.26,233c-1.86,1.12-3.75,2.29-5.54,3.49s-3.47,2.45-5.1,3.69A28.44,28.44,0,0,0,374.5,244a14.23,14.23,0,0,0-1.43,2,10.25,10.25,0,0,0-1,2.05c-.61,1.71-1.18,3.25-1.78,4.65.13-.38.27-.74.39-1.12,1.05-3.47,2.21-6.93,3.06-10.49A173.85,173.85,0,0,0,378,219.52c.1-.87.2-1.74.31-2.62a35.72,35.72,0,0,0,7.51-2.37,20.2,20.2,0,0,0,6.85-4.86,12.23,12.23,0,0,0,3.32-8.11,41.84,41.84,0,0,1,.46-5.08c.27-1.75.48-3.55.84-5.35s.71-3.59,1.07-5.37.74-3.48,1.12-5.11l1-4.56c.33-1.39.62-2.63.86-3.68.48-2.07.77-3.34.77-3.34s-1.26,1.34-3.21,3.5-4.62,5.1-7.32,8.27c-1.38,1.59-2.78,3.25-4.09,4.91-.66.84-1.29,1.67-1.9,2.51s-1.23,1.66-1.78,2.49a29.48,29.48,0,0,0-2.7,4.87,12.26,12.26,0,0,0-1.23,4.6c-.07,1.48-.15,2.86-.29,4.14-.11.78-.22,1.51-.34,2.22.08-1.17.17-2.33.2-3.49l.13-5.49c0-.93.06-1.8,0-2.77l-.05-2.71c0-1.81,0-3.6-.18-5.44l-.33-5.46c-.18-1.8-.36-3.61-.53-5.4-.28-2.44-.63-4.87-1-7.28l.59-.34a32.27,32.27,0,0,0,5.49-4,20.07,20.07,0,0,0,4.94-6.57,14.31,14.31,0,0,0,1.14-4.12,11.64,11.64,0,0,0-.32-4.55,44.9,44.9,0,0,1-.95-5c-.3-1.73-.53-3.52-.71-5.34s-.35-3.62-.52-5.41-.27-3.52-.39-5.18c-.3-3.27-.4-6.25-.6-8.33s-.23-3.38-.23-3.38-.79,1.63-1.93,4.19L382,125c-.74,1.67-1.53,3.49-2.31,5.37s-1.6,3.85-2.33,5.8-1.35,3.88-1.93,5.78a29.78,29.78,0,0,0-1.14,5.41,14.26,14.26,0,0,0,.16,4.74,47.24,47.24,0,0,1,1,5.26c-.19-.89-.37-1.78-.57-2.66a182.71,182.71,0,0,0-6-20c-1.56-4.27-3.29-8.4-5.13-12.42a32.13,32.13,0,0,0,4.13-5.63,19.49,19.49,0,0,0,2.6-7.54,14.26,14.26,0,0,0-.12-4.22,13.89,13.89,0,0,0-1.58-4.21c-.78-1.39-1.56-2.88-2.31-4.44S365,93,364.32,91.35s-1.38-3.31-2-5l-1.86-4.74c-.58-1.52-1.1-3-1.62-4.25S357.9,75,357.52,74s-.64-1.76-.84-2.3l-.32-.82s-.23,1.75-.57,4.43c-.15,1.36-.33,3-.53,4.7s-.37,3.68-.56,5.64-.33,4-.43,6-.18,4.06-.12,6a37.8,37.8,0,0,0,.51,5.42,15.66,15.66,0,0,0,1.53,4.45c.41.76.8,1.49,1.16,2.2-2-3.51-4-6.91-6.17-10.16A160,160,0,0,0,340.4,85c-.86-1-1.71-2-2.57-3,.05-.1.1-.19.14-.29a28.07,28.07,0,0,0,2-6,20.44,20.44,0,0,0,.21-7.71,14,14,0,0,0-4-7.41,46.42,46.42,0,0,1-3.4-3.55c-1.13-1.28-2.29-2.58-3.39-3.95l-1.65-2.06-1.64-2L323,45.11c-2-2.45-3.67-4.74-4.93-6.3l-2-2.55s.27,1.64.77,4.18,1.15,6.1,2,9.79c.44,1.84.85,3.82,1.35,5.71s1.07,3.74,1.65,5.55a30.08,30.08,0,0,0,2.08,4.89,14.51,14.51,0,0,0,2.68,3.79c.65.61,1.24,1.22,1.8,1.83a154.28,154.28,0,0,0-22.06-18c-1.44-1-2.85-1.87-4.25-2.74a27.9,27.9,0,0,0,.17-6.49,18,18,0,0,0-2.08-7.08,13.18,13.18,0,0,0-5.89-5.76c-.69-.36-1.38-.74-2.08-1.15s-1.42-.79-2.14-1.22c-1.44-.85-2.87-1.83-4.31-2.76s-2.89-1.89-4.27-2.86-2.77-1.85-4-2.74-2.47-1.75-3.57-2.48l-2.87-2L268.38,15s.72,1.4,1.92,3.56l2.11,3.77c.81,1.43,1.69,3,2.59,4.54s1.93,3.17,2.94,4.77,2.07,3.19,3.16,4.63a40.76,40.76,0,0,0,3.38,4A17.17,17.17,0,0,0,288.12,43a57.18,57.18,0,0,1,6.4,3.91l.08.06c-2.77-1.5-5.4-2.81-7.81-3.93a142.67,142.67,0,0,0-13.35-5.25c-1.57-.51-2.78-.88-3.59-1.13l-1.24-.38,1.18.54c.78.36,1.93.89,3.44,1.54,3,1.35,7.35,3.49,12.76,6.39a190.82,190.82,0,0,1,18.76,11.75,168.07,168.07,0,0,1,22,18.55l2.8,2.87c.94,1,1.84,2,2.77,3,1.89,2,3.66,4.21,5.51,6.39.91,1.1,1.78,2.26,2.68,3.4s1.8,2.31,2.65,3.52l2.62,3.63,2.54,3.77a169.47,169.47,0,0,1,17.35,34.35,181.46,181.46,0,0,1,5.94,19.57,179.62,179.62,0,0,1,3.59,20.7c.16,1.76.33,3.52.5,5.29s.21,3.54.32,5.31.12,3.58.17,5.38l.05,2.71c0,.83,0,1.77-.05,2.65l-.13,5.38c-.06,1.79-.24,3.58-.35,5.38-.19,3.59-.7,7.15-1.12,10.72a169.93,169.93,0,0,1-4.4,21c-.87,3.46-2.05,6.82-3.12,10.2-.55,1.68-1.23,3.32-1.83,5s-1.21,3.31-1.94,4.91L361.23,265c-.71,1.59-1.52,3.14-2.27,4.7-1.47,3.16-3.23,6.12-4.85,9.14A169.65,169.65,0,0,1,343,295.68c-1.93,2.69-4,5.19-6.09,7.71-1,1.29-2.13,2.43-3.18,3.65s-2.1,2.41-3.22,3.54c-2.24,2.23-4.35,4.56-6.66,6.61l-3.37,3.13L317,323.26a163.3,163.3,0,0,1-53.69,30.39c-2,.77-3.94,1.31-5.81,1.93l-2.77.88c-.91.29-1.82.48-2.69.75L247,358.62l-4.67,1.1c-3,.78-5.62,1.21-7.94,1.71-1.16.23-2.23.47-3.23.65l-2.72.45c-1.62.26-2.87.51-3.7.66l-1.28.24,1.29.05c.86,0,2.12.09,3.76.11l2.76.06c1,0,2.12-.09,3.32-.13,2.4-.1,5.18-.23,8.24-.63a125.53,125.53,0,0,0,21.94-4.44l.15-.05.31.5a50,50,0,0,0,5.23,7,26,26,0,0,0,7.72,6,11.12,11.12,0,0,0,8.92.39,41.2,41.2,0,0,1,4.78-1.69c1.69-.49,3.48-.85,5.28-1.22s3.61-.74,5.41-1,3.6-.5,5.26-.79,3.26-.48,4.71-.67l3.85-.48c2.15-.32,3.49-.47,3.49-.47s-1.95-.94-5-2.31l-5.27-2.44c-2-.9-4.07-1.85-6.23-2.78L300.11,357c-1.11-.48-2.22-.94-3.32-1.38-2.2-.88-4.35-1.65-6.38-2.24a32.3,32.3,0,0,0-5.73-1.2,10.05,10.05,0,0,0-4,.37l4-1.76,7.05-3.54,7.17-4.06c2.36-1.53,4.8-3,7.2-4.65l1.27-.9.1.08a42.78,42.78,0,0,0,6.69,4.82,24,24,0,0,0,8.78,3.18,11.05,11.05,0,0,0,8.51-2.35c1.28-1,2.62-2,4.09-3s3.05-1.88,4.67-2.74,3.21-1.78,4.83-2.6,3.26-1.55,4.74-2.33c3-1.51,5.73-2.78,7.73-3.68l3.14-1.5s-2-.28-5.19-.63-7.54-.93-12-1.33c-2.23-.17-4.59-.42-6.86-.55s-4.5-.19-6.55-.1a28.87,28.87,0,0,0-5.71.64,11.49,11.49,0,0,0-2.89,1.09A167.1,167.1,0,0,0,342,305l.22.09a38.39,38.39,0,0,0,7.44,2.44,22.53,22.53,0,0,0,9,.26A11.38,11.38,0,0,0,366,303c.94-1.32,2-2.7,3.09-4.06s2.37-2.69,3.66-4,2.54-2.66,3.85-3.92,2.61-2.47,3.83-3.63c2.39-2.35,4.61-4.38,6.22-5.84.83-.72,1.42-1.33,1.87-1.74l.68-.63-4.95,1c-3.06.6-7.18,1.44-11.42,2.45-2.11.52-4.38,1-6.51,1.59s-4.2,1.22-6.08,1.94A26.65,26.65,0,0,0,355,288.5a12,12,0,0,0-3.49,3.14l0,0c2.2-3.43,4.29-7,6.33-10.57,1.61-3.14,3.35-6.23,4.79-9.5.74-1.62,1.53-3.22,2.23-4.87l1.29-3.13.58.06a36.06,36.06,0,0,0,7.46,0,21.68,21.68,0,0,0,8.28-2.52,11.79,11.79,0,0,0,5.57-6.8c.5-1.55,1.18-3.14,1.84-4.78s1.48-3.28,2.33-4.92,1.7-3.25,2.55-4.87,1.73-3.14,2.57-4.6,1.57-2.86,2.29-4.11l1.89-3.3,1.3-2.2c.32-.51.46-.79.46-.79L399,227.2Zm-1.39-38.22c-.18.43-.35,1.1-.65,1.82s-.55,1.62-.94,2.49-.72,1.85-1,2.82-.75,1.9-1.06,2.81-.69,1.75-.92,2.5-.55,1.35-.7,1.8l-.31.69s0-.27-.12-.75a12.09,12.09,0,0,1-.11-2,16.44,16.44,0,0,1,.29-2.8c.22-1,.51-2.06.84-3.1s.91-2,1.39-2.88a16.26,16.26,0,0,1,1.61-2.27,11.51,11.51,0,0,1,1.37-1.4l.58-.47S393.26,191.12,393.11,191.58Zm-8.64,5a15.29,15.29,0,0,1,.61-2.1,23.41,23.41,0,0,1,1.21-2.82c.55-1,1.16-2,1.8-3s1.49-1.85,2.22-2.67a22.34,22.34,0,0,1,2.23-2.05,15.24,15.24,0,0,1,1.75-1.22l.71-.4-.41.72c-.29.43-.64,1.1-1.14,1.81s-1,1.59-1.65,2.44-1.28,1.8-1.9,2.75-1.36,1.82-2,2.7-1.27,1.65-1.76,2.37-1,1.25-1.32,1.66l-.54.62S384.37,197.12,384.47,196.6Zm-.41-57,.49-.62s0,.29-.09.79-.15,1.21-.32,2-.28,1.78-.53,2.76-.43,2.06-.6,3.13-.5,2.11-.68,3.11-.47,1.93-.61,2.74-.4,1.5-.5,2-.23.76-.23.76-.08-.28-.21-.77a14.81,14.81,0,0,1-.32-2.06,21.14,21.14,0,0,1-.06-2.92c.09-1.07.23-2.2.41-3.33s.6-2.2.94-3.21a20.18,20.18,0,0,1,1.2-2.65A14.38,14.38,0,0,1,384.06,139.61ZM379.32,142c.12-.92.16-2,.39-3.14s.46-2.34.69-3.55.67-2.37,1-3.47.76-2.11,1.06-3,.7-1.56.92-2.06l.4-.77s0,.32,0,.88,0,1.34-.11,2.26-.17,2-.4,3.15-.45,2.34-.69,3.55l-1,3.47c-.3,1.11-.76,2.11-1.06,3s-.7,1.56-.92,2.06-.4.77-.4.77,0-.32,0-.88S379.2,142.89,379.32,142ZM298.65,43a21.1,21.1,0,0,0-2.12-2.57,30,30,0,0,0-3.45-3,39,39,0,0,0-4.37-3l-4.52-3a38,38,0,0,1-3.79-3,20.42,20.42,0,0,1-2.35-2.54c-.5-.67-.75-1.07-.75-1.07s.37.28,1.05.74,1.65,1.07,2.79,1.8,2.59,1.45,4.06,2.32l4.7,2.75a43.34,43.34,0,0,1,4.41,3.41,20.27,20.27,0,0,1,3.2,3.79A13.36,13.36,0,0,1,299,42.81c.14.4.2.73.26.95l.08.34S299.13,43.68,298.65,43ZM335.8,72a8.5,8.5,0,0,1-.44,1.18,8,8,0,0,0,0-1.24,11.56,11.56,0,0,0-.56-3,16.28,16.28,0,0,0-1.86-3.85,26.41,26.41,0,0,0-3.06-3.9l-3.34-3.94A22.27,22.27,0,0,1,324,53.29a12.62,12.62,0,0,1-1.08-3.15,10.9,10.9,0,0,1-.16-1.25,11.17,11.17,0,0,0,.57,1.09,21.21,21.21,0,0,0,1.74,2.61,43.1,43.1,0,0,0,2.9,3.28l3.55,3.74A27.52,27.52,0,0,1,334.61,64,13.41,13.41,0,0,1,336,68.65,9.43,9.43,0,0,1,335.8,72Zm22.74,28.44c0,.86-.09,1.6-.09,2.1l-.08.82s-.12-.27-.35-.73a17.34,17.34,0,0,1-.73-2,24.69,24.69,0,0,1-.67-2.93c-.14-1.08-.25-2.25-.34-3.41s.08-2.35.16-3.44a23,23,0,0,1,.51-2.95,16.32,16.32,0,0,1,.62-2l.32-.76s0,.3.12.81.17,1.24.2,2.1.17,1.85.17,2.91.07,2.18.14,3.3,0,2.25,0,3.31S358.51,99.62,358.54,100.47Zm4,7.58c-.29-1.09-.55-2.26-.76-3.45s-.16-2.41-.16-3.54a20.57,20.57,0,0,1,.32-3.07,16.34,16.34,0,0,1,.53-2.11c.19-.5.29-.79.29-.79s.06.3.15.82.21,1.26.29,2.12.28,1.87.36,2.94.25,2.19.44,3.31.26,2.27.44,3.32.24,2.07.41,2.93.17,1.61.26,2.12.08.83.08.83l-.49-.67a15,15,0,0,1-1.06-1.89A19.41,19.41,0,0,1,362.51,108.05ZM301,363.52a14.23,14.23,0,0,1,3.85.43,13.45,13.45,0,0,1,1.38.48,13.65,13.65,0,0,0-1.43,0,20.55,20.55,0,0,0-3.68.43,36.35,36.35,0,0,0-5,1.44c-1.82.6-3.75,1.38-5.75,2.09a35.54,35.54,0,0,1-6.15,1.37,15.37,15.37,0,0,1-5.55-.47,10.42,10.42,0,0,1-3.53-1.72c-.37-.3-.65-.55-.83-.73l-.27-.27.34.17a9.32,9.32,0,0,0,1,.43,13.26,13.26,0,0,0,3.56.83,18.54,18.54,0,0,0,5.06-.25,32.57,32.57,0,0,0,5.72-1.59c2-.59,4-1.27,5.89-1.8A23.91,23.91,0,0,1,301,363.52Zm-18.69.16,2.17-.55,2.22-.23a16,16,0,0,1,2,0,10,10,0,0,1,1.43.18l.55.13-.48.32a12.34,12.34,0,0,1-1.29.66,18.23,18.23,0,0,1-1.85.69l-2.17.54-2.22.24a14.4,14.4,0,0,1-2,0,11.49,11.49,0,0,1-1.42-.18l-.55-.13.48-.32a11.19,11.19,0,0,1,1.28-.66A14.61,14.61,0,0,1,282.31,363.68Zm51.17-28.24c1.7-1,3.4-2.09,5.09-3a20.07,20.07,0,0,1,4.94-1.91,11.49,11.49,0,0,1,3.71-.25,11.74,11.74,0,0,1,1.38.27,9.63,9.63,0,0,0-1.36.19,15.11,15.11,0,0,0-3.36,1,28.58,28.58,0,0,0-4.35,2.41c-1.56,1-3.19,2.15-4.9,3.27a26.46,26.46,0,0,1-5.55,2.56,12.27,12.27,0,0,1-5.38.33,8.41,8.41,0,0,1-3.5-1.44,7.21,7.21,0,0,1-.79-.7l-.26-.26.32.17a9.09,9.09,0,0,0,.93.39,9.62,9.62,0,0,0,3.41.53,13.83,13.83,0,0,0,4.68-.95A24.83,24.83,0,0,0,333.48,335.44Zm-9.69-1.91a15.31,15.31,0,0,0,2.47-.25c.77-.17,1.56-.2,2.19-.39s1.23-.23,1.61-.36l.65-.13-.43.53a7.31,7.31,0,0,1-1.34,1.16,9.92,9.92,0,0,1-2.21,1.15,18.35,18.35,0,0,1-2.79.62,17.49,17.49,0,0,1-2.84-.21,9.37,9.37,0,0,1-2.35-.82,7.32,7.32,0,0,1-1.47-1l-.5-.46.66,0c.4.06,1,0,1.64.11s1.44,0,2.22.07A15,15,0,0,0,323.79,333.53Zm34.85-41.08a21.17,21.17,0,0,1,1.86-1.65,28.15,28.15,0,0,1,2.86-2c1.11-.63,2.3-1.27,3.52-1.87s2.53-.95,3.73-1.35a26.94,26.94,0,0,1,3.36-.76,20.42,20.42,0,0,1,2.44-.26h.93l-.83.45c-.53.24-1.27.68-2.18,1.07s-1.93,1-3.07,1.42-2.32,1-3.5,1.59-2.41,1-3.52,1.53-2.21.9-3.11,1.32-1.72.66-2.25.9l-.89.31Zm-4.7,11.29a9.86,9.86,0,0,0,2.87-.67,14.23,14.23,0,0,0,3.56-2,22.65,22.65,0,0,0,3.5-3.33c1.19-1.19,2.34-2.48,3.48-3.66a22.86,22.86,0,0,1,3.49-2.89,12.41,12.41,0,0,1,2.86-1.42,10.76,10.76,0,0,1,1.16-.29,11.33,11.33,0,0,0-1,.7,22.86,22.86,0,0,0-2.28,2c-.91.86-1.81,2-2.85,3.25s-2.12,2.57-3.29,3.9a24.8,24.8,0,0,1-4,3.39,11.68,11.68,0,0,1-4.32,1.63,8,8,0,0,1-3.22-.15,7.29,7.29,0,0,1-1.12-.43A6.83,6.83,0,0,0,353.94,303.74ZM388.32,244c-.33.37-.72,1-1.26,1.62s-1.1,1.45-1.77,2.21-1.34,1.64-2,2.52-1.38,1.68-2,2.51-1.26,1.55-1.73,2.24-1,1.2-1.29,1.6l-.52.61s.05-.3.13-.81a14.15,14.15,0,0,1,.58-2,17.85,17.85,0,0,1,1.22-2.72c.56-.94,1.19-1.91,1.86-2.86s1.56-1.71,2.33-2.46a19.06,19.06,0,0,1,2.33-1.78,13.53,13.53,0,0,1,1.82-1l.73-.3Zm5.06-9c-.49.3-1.14.83-1.95,1.36s-1.69,1.24-2.68,1.89-2,1.45-3,2.27-2,1.56-2.9,2.36-1.79,1.48-2.47,2.17-1.37,1.18-1.78,1.59l-.71.6.36-.87a15.89,15.89,0,0,1,1.17-2.18,21,21,0,0,1,2.09-2.78c.88-.93,1.86-1.86,2.88-2.75s2.23-1.51,3.31-2.14a21.49,21.49,0,0,1,3.14-1.35,15.87,15.87,0,0,1,2.34-.59l.9-.12Z"/><path class="cls-1" d="M369.63,197.35a7.47,7.47,0,0,1,1.09,2.34,7,7,0,0,1,.18.95,6,6,0,0,0-.56-.74,10.9,10.9,0,0,0-1.64-1.66,9.61,9.61,0,0,0-1.29-1c-.06,4.93-.35,9.82-.86,14.63a29.25,29.25,0,0,1,4.58,3.94,17.45,17.45,0,0,1,2.39,3.06s.31-1.5.66-3.84a37.19,37.19,0,0,0,.46-4c.08-1.5.14-3.12.13-4.78,0-.82,0-1.66-.07-2.48s-.18-1.66-.31-2.47a29.06,29.06,0,0,0-1-4.58,11.81,11.81,0,0,0-1.81-3.62,6.32,6.32,0,0,0-2.65-2.15,14.24,14.24,0,0,1-1.54-.73c0,1.58.07,3.17.07,4.76A13.23,13.23,0,0,1,369.63,197.35Z"/><path class="cls-1" d="M363.54,151.43a6.85,6.85,0,0,1,1.44,1.82,6.57,6.57,0,0,1,.36.79,8.31,8.31,0,0,0-.68-.49,11.8,11.8,0,0,0-1.81-1,9.58,9.58,0,0,0-1.25-.51q2,7.28,3.37,14.83a27,27,0,0,1,5.8,2.69,16.48,16.48,0,0,1,2.91,2.28s0-.38-.08-1.06-.1-1.65-.29-2.82-.4-2.53-.68-4a42.23,42.23,0,0,0-1.15-4.63,35.87,35.87,0,0,0-1.64-4.67,32.23,32.23,0,0,0-2.15-4.11,13.2,13.2,0,0,0-2.64-3,5.75,5.75,0,0,0-3-1.34,16.4,16.4,0,0,1-2.4-.51q.65,2,1.23,4A11.63,11.63,0,0,1,363.54,151.43Z"/><path class="cls-1" d="M345.56,110.86a10.17,10.17,0,0,1,2.74,1.8,6.54,6.54,0,0,1,1.42,1.86,7.33,7.33,0,0,1,.35.81s-.24-.21-.67-.51a11,11,0,0,0-1.8-1.08,17.12,17.12,0,0,0-2.7-1l-.21-.05q3.33,5.54,6.2,11.35a25.85,25.85,0,0,1,6.9,1.09,13.51,13.51,0,0,1,3.29,1.39s-.12-.36-.35-1-.63-1.52-1.1-2.6-1-2.34-1.72-3.66-1.5-2.72-2.35-4.12a42.39,42.39,0,0,0-2.84-4c-.5-.63-1-1.24-1.52-1.81s-1.08-1.07-1.62-1.54a14.08,14.08,0,0,0-3.22-2.18,5.49,5.49,0,0,0-3.1-.5,14.53,14.53,0,0,1-3.33.11c1.07,1.57,2.1,3.17,3.11,4.78A19.09,19.09,0,0,1,345.56,110.86Z"/><path class="cls-1" d="M315,73.73a10.53,10.53,0,0,1,3.21.4,8,8,0,0,1,2.09,1,7.33,7.33,0,0,1,.69.53,8.1,8.1,0,0,0-.84-.1,15.72,15.72,0,0,0-2.1-.08,18.41,18.41,0,0,0-2.87.31c-.28,0-.55.11-.83.17A159.49,159.49,0,0,1,325.71,87.2a23.55,23.55,0,0,1,7.51-.91,15.62,15.62,0,0,1,3.41.49s-.89-1.22-2.36-3c-.74-.9-1.67-1.9-2.68-3a41.83,41.83,0,0,0-3.35-3.28,45.54,45.54,0,0,0-3.77-3.07,32.12,32.12,0,0,0-3.88-2.35A12.18,12.18,0,0,0,317,70.82a5.39,5.39,0,0,0-3,.28A14.14,14.14,0,0,1,311,72c-.34.07-.69.12-1,.18l2.3,1.94A18.15,18.15,0,0,1,315,73.73Z"/><path class="cls-1" d="M281.2,50.84a12.33,12.33,0,0,1,3.54.15,7.37,7.37,0,0,1,2.35.88c.52.32.79.53.79.53s-.34-.06-.92-.1a12.54,12.54,0,0,0-2.31,0,22.15,22.15,0,0,0-3.15.54l-.32.08q5.47,2.85,10.68,6.1a23.54,23.54,0,0,1,7.2-2.93,12.62,12.62,0,0,1,3.33-.38l-.82-.64c-.54-.39-1.33-.92-2.29-1.56s-2.09-1.39-3.35-2.13-2.68-1.46-4.11-2.18a39.81,39.81,0,0,0-4.45-1.85,22.93,22.93,0,0,0-4.33-1.2,14.37,14.37,0,0,0-3.77-.25,5.06,5.06,0,0,0-2.75,1,15,15,0,0,1-3.58,2q2.64,1.19,5.24,2.48A30.11,30.11,0,0,1,281.2,50.84Z"/><path class="cls-1" d="M263,345.17a160.39,160.39,0,0,0,38.77-20.86q6.36-4.65,12.24-9.9l.3-.27c1.27-1.14,2.52-2.29,3.75-3.47a161.55,161.55,0,0,0,15.37-17q4.43-5.65,8.36-11.72l.9-1.4q1.41-2.23,2.76-4.53a160.09,160.09,0,0,0,10.25-20.71q1.83-4.5,3.4-9.13a1.72,1.72,0,0,0,.07-.21c.52-1.53,1-3.07,1.47-4.61.13-.46.27-.91.4-1.37.5-1.7,1-3.4,1.42-5.12a159.86,159.86,0,0,0,4.12-23c.51-4.81.8-9.7.86-14.63,0-.76,0-1.52,0-2.28v0c0-1.59,0-3.18-.07-4.76a162,162,0,0,0-2.4-23.38q-1.34-7.54-3.37-14.83c-.22-.79-.45-1.57-.68-2.34q-.59-2-1.23-4a158.38,158.38,0,0,0-8.8-21.62q-2.88-5.82-6.2-11.35c-.54-.91-1.09-1.8-1.65-2.69-1-1.61-2-3.21-3.11-4.78a160.17,160.17,0,0,0-25.6-29.33c-.67-.61-1.35-1.21-2-1.81L310,72.16A159.83,159.83,0,0,0,291.86,59q-5.21-3.26-10.68-6.1c-1-.52-2-1-3-1.52q-2.6-1.29-5.24-2.48a160.46,160.46,0,0,0-131.19,0q-2.64,1.19-5.24,2.48c-1,.5-2,1-3,1.52Q128,55.77,122.82,59a160.61,160.61,0,0,0-18.13,13.14l-2.3,1.94c-.68.6-1.36,1.2-2,1.81a160.17,160.17,0,0,0-25.6,29.33c-1.07,1.57-2.1,3.17-3.11,4.78-.56.89-1.11,1.78-1.65,2.69q-3.33,5.54-6.2,11.35A158.38,158.38,0,0,0,55,145.68q-.64,2-1.23,4c-.23.77-.46,1.55-.68,2.34q-2,7.28-3.37,14.83a162,162,0,0,0-2.4,23.38c0,1.58-.07,3.17-.07,4.76v0q0,1.14,0,2.28c.06,4.93.35,9.82.86,14.63a159.86,159.86,0,0,0,4.12,23c.44,1.72.92,3.42,1.42,5.12.13.46.27.91.4,1.37.47,1.54,1,3.08,1.47,4.61a1.72,1.72,0,0,0,.07.21q1.56,4.64,3.4,9.13a160.09,160.09,0,0,0,10.25,20.71q1.35,2.29,2.76,4.53l.9,1.4q3.93,6.06,8.36,11.72a161.55,161.55,0,0,0,15.37,17c1.23,1.18,2.48,2.33,3.75,3.47l.3.27q5.87,5.23,12.24,9.9a159.44,159.44,0,0,0,82.4,30.34q5.94.45,12,.45t12-.45A160.22,160.22,0,0,0,263,345.17ZM56.9,195c0-82.95,67.49-150.45,150.44-150.45S357.79,112.05,357.79,195,290.3,345.45,207.34,345.45,56.9,278,56.9,195Z"/><path class="cls-1" d="M207.34,338.47A143.69,143.69,0,1,0,63.66,194.79,143.69,143.69,0,0,0,207.34,338.47Z"/><path class="cls-2" d="M135.32,103c-14,0-23.06,9.16-23.06,21.21s8.84,21.18,22.67,21.18h.29c14.22,0,23.06-9.42,23.06-21.18S149.28,103,135.32,103Z"/><rect class="cls-2" x="114.66" y="162.08" width="40.77" height="122.65"/><path class="cls-2" d="M255.5,159.2a40.41,40.41,0,0,0-36.72,20.24V162.08H178c.52,11.53,0,122.68,0,122.68h40.78v-68.5a28.33,28.33,0,0,1,1.32-10A22.34,22.34,0,0,1,241,191.39c14.73,0,20.66,11.24,20.66,27.72v65.65h40.74V214.42C302.43,176.75,282.32,159.2,255.5,159.2Z"/></svg>