<svg id="Слой_1" data-name="Слой 1" xmlns="http://www.w3.org/2000/svg" viewBox="0 0 406.02 406.02"><defs><style>.cls-1{fill:#12100b;}.cls-2{fill:#fff;}</style></defs><path class="cls-1" d="M171.12,350.93a11.3,11.3,0,0,0,3.09,2.9,22.21,22.21,0,0,0,4.13,2.1,29.52,29.52,0,0,0,4.63,1.23,38.86,38.86,0,0,0,4.54.63c1.44.08,2.77.09,3.9.08,2.27,0,3.73-.17,3.73-.17a21,21,0,0,1-2.55-3.75c-.25-.44-.51-.94-.77-1.46a160.37,160.37,0,0,1-21.53-3.08A9,9,0,0,0,171.12,350.93Z"/><path class="cls-1" d="M186.77,362.73c-.88.13-1.85.25-2.91.34s-2.22.14-3.47.16c-.63,0-1.28,0-1.95,0s-1.35-.1-2.07-.18a9.32,9.32,0,0,0-4.61.92,34.19,34.19,0,0,0-5.19,3c-1.81,1.24-3.68,2.71-5.58,4.3s-3.78,3.18-5.63,4.83-3.64,3.27-5.3,4.79L145.59,385c-2.57,2.35-4.22,3.92-4.22,3.92s1.35-.28,3.53-.67c1.09-.18,2.4-.41,3.87-.71s3.07-.58,4.76-.86,3.47-.51,5.31-.84,3.68-.56,5.52-.74l2.74-.22c.91-.09,1.81-.15,2.69-.19a31.26,31.26,0,0,1,5.08.18c3.21.38,6.1-1.06,8.49-3.22a26.44,26.44,0,0,0,5.8-8.41,57.93,57.93,0,0,0,4.1-12.58,18.55,18.55,0,0,1-4.12,1.54Q188.09,362.46,186.77,362.73Zm-4.53,12.19q-.17.33-.54.93a10.81,10.81,0,0,1-2.7,2.7,15.47,15.47,0,0,1-4.87,2.27,36.4,36.4,0,0,1-6,.89c-2,.05-4,0-5.83.15a33.37,33.37,0,0,0-5,.48,21.09,21.09,0,0,0-3.43.92,10.9,10.9,0,0,0-1.28.53,11.48,11.48,0,0,1,1.08-.93,13.18,13.18,0,0,1,3.3-1.78,22.34,22.34,0,0,1,5.12-1.24c1.9-.21,3.91-.31,5.88-.46a35,35,0,0,0,5.66-.54,19.46,19.46,0,0,0,4.67-1.43,14.18,14.18,0,0,0,3-1.87,10.33,10.33,0,0,0,1-1Zm.92-5.69a16.63,16.63,0,0,1-1.68,1.94,22.59,22.59,0,0,1-2.75,2.34c-1.09.73-2.3,1.45-3.54,2.11s-2.6,1-3.85,1.42a21.45,21.45,0,0,1-3.5.64,16.15,16.15,0,0,1-2.51.07l-1-.08.89-.37c.56-.18,1.35-.56,2.29-.9s2-.85,3.17-1.28,2.35-1,3.52-1.61a38.72,38.72,0,0,0,3.47-1.74c1.07-.63,2.15-1.11,3-1.66s1.65-.9,2.15-1.22l.85-.46Z"/><path class="cls-1" d="M129.18,337.88a12.5,12.5,0,0,0,2.22,3.6,18.49,18.49,0,0,0,3.42,3.16,40.22,40.22,0,0,0,4.12,2.53,28.55,28.55,0,0,0,4.21,1.88c1.35.51,2.62.94,3.7,1.28a21.2,21.2,0,0,0,2.64.67l1,.2a19.75,19.75,0,0,1-1.51-4.1,37.11,37.11,0,0,1-.79-4.1,159,159,0,0,1-19.5-8.76A7.83,7.83,0,0,0,129.18,337.88Z"/><path class="cls-1" d="M146.28,356.24l.16,0a123.79,123.79,0,0,0,21.93,4.44c3.07.4,5.85.54,8.25.63,1.2,0,2.31.12,3.32.14l2.75-.06c1.65,0,2.91-.09,3.76-.12l1.29-.05-1.27-.23c-.84-.16-2.08-.4-3.71-.66l-2.72-.46c-1-.17-2.06-.41-3.22-.64-2.32-.5-5-.93-7.94-1.71l-4.67-1.1L159.14,355c-.88-.26-1.79-.45-2.69-.75l-2.77-.87c-1.88-.62-3.84-1.16-5.81-1.93a163.69,163.69,0,0,1-53.7-30.39l-3.45-2.94L87.35,315c-2.31-2-4.42-4.37-6.67-6.61-1.11-1.12-2.13-2.36-3.21-3.54s-2.19-2.36-3.19-3.64c-2-2.52-4.16-5-6.09-7.71a167.84,167.84,0,0,1-11.14-16.86c-1.62-3-3.39-6-4.85-9.14-.75-1.57-1.56-3.11-2.27-4.71s-1.39-3.21-2.08-4.82-1.32-3.27-1.94-4.92-1.28-3.29-1.83-5c-1.08-3.38-2.26-6.73-3.12-10.2a171,171,0,0,1-4.41-21c-.42-3.57-.93-7.13-1.11-10.72-.11-1.79-.3-3.58-.35-5.37L35,195.39c0-.88-.06-1.82,0-2.66L35,190c0-1.8,0-3.62.17-5.38s.21-3.54.31-5.3L36,174a167.42,167.42,0,0,1,9.53-40.27A169.13,169.13,0,0,1,62.83,99.43l2.53-3.77L68,92c.85-1.22,1.75-2.38,2.65-3.52s1.77-2.3,2.68-3.41c1.85-2.18,3.62-4.37,5.5-6.38.94-1,1.83-2,2.77-3l2.81-2.86a167.9,167.9,0,0,1,22-18.55,189,189,0,0,1,18.77-11.75c5.4-2.91,9.75-5,12.76-6.39,1.51-.66,2.66-1.19,3.44-1.54l1.18-.54-1.24.38c-.81.25-2,.61-3.59,1.13a138.86,138.86,0,0,0-13.35,5.25c-2.42,1.12-5,2.43-7.81,3.93l.08-.06a57.18,57.18,0,0,1,6.4-3.91A17.23,17.23,0,0,0,126.68,38a39.54,39.54,0,0,0,3.37-4c1.1-1.43,2.15-3,3.16-4.62s2-3.19,2.94-4.78l2.6-4.53,2.1-3.78c1.2-2.16,1.92-3.56,1.92-3.56l-2.6,1.79-2.87,2c-1.1.73-2.29,1.6-3.57,2.47s-2.66,1.76-4,2.74-2.82,1.94-4.27,2.86-2.88,1.91-4.31,2.76c-.72.43-1.43.84-2.14,1.22s-1.39.8-2.08,1.15a14.61,14.61,0,0,0-3.52,2.53A14.86,14.86,0,0,0,111,35.52a18.14,18.14,0,0,0-2.07,7.09,28,28,0,0,0,.16,6.49q-2.08,1.29-4.25,2.74a154.67,154.67,0,0,0-22,18c.56-.6,1.14-1.21,1.79-1.82a14.42,14.42,0,0,0,2.69-3.8,30.59,30.59,0,0,0,2.07-4.89c.59-1.8,1.16-3.64,1.65-5.55s.92-3.87,1.35-5.71c.86-3.68,1.49-7.26,2-9.78s.76-4.18.76-4.18l-2,2.55c-1.27,1.55-2.94,3.84-4.93,6.29L85.1,46.88l-1.64,2L81.81,51c-1.1,1.37-2.27,2.67-3.39,4S76.16,57.4,75,58.47a13.93,13.93,0,0,0-4,7.4,20.3,20.3,0,0,0,.2,7.72,28.93,28.93,0,0,0,2,5.94c0,.11.1.2.14.3l-2.57,3A163.65,163.65,0,0,0,60,97.4c-2.14,3.25-4.19,6.66-6.17,10.17.37-.71.75-1.44,1.17-2.21a15.28,15.28,0,0,0,1.52-4.44A39.25,39.25,0,0,0,57,95.5c.06-1.91,0-3.93-.13-6s-.23-4-.42-6-.39-3.86-.56-5.64-.38-3.34-.53-4.7c-.35-2.68-.57-4.42-.57-4.42s-.12.29-.32.82l-.85,2.29c-.37,1-.81,2.12-1.31,3.41s-1,2.73-1.61,4.24-1.23,3.12-1.86,4.75-1.3,3.32-2,5-1.38,3.3-2.13,4.86-1.54,3-2.31,4.44a14.14,14.14,0,0,0-1.59,4.2,14.61,14.61,0,0,0-.11,4.22,19.64,19.64,0,0,0,2.59,7.54,32.37,32.37,0,0,0,4.14,5.64c-1.84,4-3.57,8.15-5.14,12.42a184.73,184.73,0,0,0-6,20c-.2.89-.38,1.78-.57,2.67a44.89,44.89,0,0,1,1-5.26,14,14,0,0,0,.16-4.74,29.72,29.72,0,0,0-1.13-5.41c-.58-1.9-1.18-3.82-1.94-5.78s-1.57-3.93-2.32-5.8-1.57-3.7-2.31-5.38l-2-4.47c-1.14-2.57-1.93-4.2-1.93-4.2s-.09,1.29-.23,3.39-.3,5-.6,8.33c-.13,1.66-.26,3.4-.39,5.18s-.35,3.61-.52,5.41-.41,3.61-.71,5.33a42.45,42.45,0,0,1-1,5,11.78,11.78,0,0,0-.31,4.54,14.59,14.59,0,0,0,1.13,4.13A20.45,20.45,0,0,0,27.58,162a32,32,0,0,0,5.49,4l.6.34c-.37,2.42-.71,4.84-1,7.28-.18,1.8-.35,3.6-.53,5.41l-.33,5.46c-.14,1.84-.14,3.62-.18,5.43l-.06,2.71c0,1,0,1.85,0,2.77l.13,5.49c0,1.17.11,2.33.2,3.49-.12-.7-.24-1.43-.35-2.21-.13-1.29-.21-2.67-.28-4.15a12.5,12.5,0,0,0-1.23-4.6,29.41,29.41,0,0,0-2.7-4.86c-.56-.83-1.16-1.66-1.79-2.5s-1.24-1.67-1.89-2.5c-1.31-1.66-2.71-3.32-4.1-4.91-2.69-3.18-5.33-6.12-7.32-8.28s-3.2-3.5-3.2-3.5l.76,3.35c.25,1,.54,2.29.87,3.68s.65,2.93,1,4.55.77,3.36,1.13,5.12.71,3.59,1.07,5.37.57,3.6.84,5.35a41.77,41.77,0,0,1,.45,5.08,12.25,12.25,0,0,0,3.32,8.1,20.06,20.06,0,0,0,6.86,4.86,35.66,35.66,0,0,0,7.51,2.38c.1.87.21,1.74.3,2.62a176.1,176.1,0,0,0,4.23,21.55c.84,3.56,2,7,3.06,10.49.12.37.26.74.38,1.11-.59-1.4-1.16-2.94-1.77-4.64a10.53,10.53,0,0,0-1-2.05,13.76,13.76,0,0,0-1.44-2A27.47,27.47,0,0,0,32.53,238c-1.63-1.23-3.27-2.49-5.09-3.68s-3.68-2.38-5.54-3.49l-5.25-3.17L12.16,225l-4.3-2.41s.15.29.47.8.75,1.27,1.3,2.2,1.17,2,1.89,3.3,1.41,2.65,2.28,4.1,1.72,3,2.58,4.61l2.55,4.87c.85,1.64,1.64,3.28,2.33,4.92s1.34,3.22,1.84,4.78A11.76,11.76,0,0,0,28.67,259,21.34,21.34,0,0,0,37,261.51a35.46,35.46,0,0,0,7.46,0l.58-.06,1.29,3.12c.7,1.65,1.49,3.26,2.23,4.88,1.44,3.27,3.18,6.35,4.79,9.49,2,3.61,4.13,7.14,6.33,10.58l0,0a12.17,12.17,0,0,0-3.49-3.15A27.89,27.89,0,0,0,51,284c-1.88-.72-4-1.35-6.09-1.93s-4.39-1.08-6.5-1.59c-4.25-1-8.36-1.85-11.42-2.46l-5-1,.68.63c.44.41,1,1,1.86,1.74,1.62,1.45,3.84,3.49,6.23,5.83,1.21,1.17,2.54,2.37,3.83,3.64s2.56,2.6,3.84,3.91,2.54,2.65,3.67,4,2.15,2.73,3.09,4.06a11.34,11.34,0,0,0,7.36,4.8,22.17,22.17,0,0,0,9-.26A38.43,38.43,0,0,0,69,302.93l.22-.1a167.84,167.84,0,0,0,20.61,21.66,11.58,11.58,0,0,0-2.9-1.1,28.8,28.8,0,0,0-5.7-.63,63.12,63.12,0,0,0-6.55.1c-2.27.13-4.64.37-6.87.55-4.49.4-8.82.92-12,1.33s-5.19.63-5.19.63l3.14,1.5c2,.9,4.74,2.17,7.73,3.68,1.48.77,3.14,1.49,4.74,2.33s3.24,1.69,4.82,2.6,3.2,1.77,4.67,2.73,2.82,2,4.09,3a11.08,11.08,0,0,0,8.51,2.35A23.94,23.94,0,0,0,97,340.39a43.76,43.76,0,0,0,6.7-4.82l.1-.09,1.27.91c2.4,1.64,4.84,3.12,7.2,4.65l7.16,4.06,7.06,3.53,4,1.76a10.08,10.08,0,0,0-4-.36,31.43,31.43,0,0,0-5.73,1.2,67.2,67.2,0,0,0-6.38,2.24c-1.1.44-2.21.9-3.32,1.38l-3.27,1.38c-2.16.93-4.27,1.88-6.22,2.77l-5.27,2.44c-3,1.38-5,2.32-5,2.32s1.33.15,3.49.46l3.85.48c1.45.19,3,.41,4.71.68s3.45.5,5.25.79,3.63.62,5.41,1,3.6.74,5.29,1.22a43.15,43.15,0,0,1,4.78,1.69,11.06,11.06,0,0,0,8.91-.39,25.74,25.74,0,0,0,7.72-6,49,49,0,0,0,5.23-6.94ZM111.87,41.6c0-.22.12-.55.25-1a13.4,13.4,0,0,1,1.52-3.19,20.62,20.62,0,0,1,3.2-3.78,43.56,43.56,0,0,1,4.42-3.42l4.7-2.74c1.47-.88,2.9-1.58,4-2.32s2.15-1.31,2.8-1.81,1.05-.74,1.05-.74-.26.4-.76,1.08a18.87,18.87,0,0,1-2.34,2.53,37.1,37.1,0,0,1-3.8,3l-4.52,3a39.73,39.73,0,0,0-4.36,3,31.19,31.19,0,0,0-3.46,3,21.87,21.87,0,0,0-2.11,2.56c-.48.67-.73,1.08-.73,1.08ZM75.13,66.48a13.33,13.33,0,0,1,1.41-4.61,28.74,28.74,0,0,1,3.07-4.43l3.56-3.73a41.27,41.27,0,0,0,2.9-3.29,22,22,0,0,0,1.74-2.6,11.17,11.17,0,0,0,.57-1.09s0,.45-.16,1.25a12.72,12.72,0,0,1-1.09,3.15,21.57,21.57,0,0,1-2.51,3.93L81.28,59a25.07,25.07,0,0,0-3.06,3.89,16.08,16.08,0,0,0-1.86,3.85,12.13,12.13,0,0,0-.57,3.06,8.52,8.52,0,0,0,0,1.23,8.5,8.5,0,0,1-.44-1.18A9,9,0,0,1,75.13,66.48ZM52.59,95.39c0-1,.06-2.18,0-3.3s.13-2.25.14-3.31.16-2,.18-2.91.17-1.58.2-2.09.12-.81.12-.81l.31.75a16.87,16.87,0,0,1,.62,2,25,25,0,0,1,.52,3c.08,1.09.13,2.26.16,3.43s-.2,2.33-.34,3.42a24,24,0,0,1-.67,2.92,18.62,18.62,0,0,1-.73,2l-.36.74s0-.3-.07-.82-.11-1.25-.1-2.1S52.54,96.44,52.59,95.39Zm-6.11,15.26-.48.67s0-.3.07-.83.12-1.27.27-2.13.21-1.88.41-2.92.33-2.19.43-3.32.35-2.25.44-3.32.31-2.06.37-2.93.24-1.6.29-2.12l.14-.82s.11.28.29.78a14.83,14.83,0,0,1,.54,2.12,22,22,0,0,1,.32,3.07c0,1.13-.06,2.33-.16,3.54s-.47,2.36-.76,3.45a20.43,20.43,0,0,1-1.1,2.86A14.45,14.45,0,0,1,46.48,110.65ZM30.7,151.29a13.29,13.29,0,0,1-.33,2.05c-.13.49-.2.77-.2.77s-.09-.27-.23-.76-.35-1.16-.5-2-.45-1.74-.62-2.74-.41-2.07-.67-3.12-.38-2.13-.61-3.12-.33-2-.52-2.77-.22-1.53-.32-2-.09-.79-.09-.79l.49.61a14.33,14.33,0,0,1,1.1,1.74,20.14,20.14,0,0,1,1.21,2.65c.33,1,.65,2.1.94,3.21s.31,2.26.41,3.32A21.25,21.25,0,0,1,30.7,151.29ZM31.93,143l-.41-.76c-.21-.5-.6-1.19-.91-2.07s-.76-1.86-1.06-3-.65-2.29-1-3.48-.47-2.41-.69-3.54-.27-2.23-.39-3.15-.08-1.72-.11-2.27,0-.88,0-.88l.41.77c.21.5.6,1.2.92,2.07s.75,1.86,1.06,3l1,3.48c.24,1.2.47,2.41.69,3.54s.27,2.23.4,3.15.07,1.72.11,2.27S31.93,143,31.93,143Zm-8.14,60.64c-.08.48-.13.76-.13.76l-.3-.7c-.15-.44-.46-1.05-.71-1.8s-.64-1.58-.92-2.49-.66-1.88-1.06-2.81-.67-1.94-1-2.82-.62-1.78-.94-2.49-.47-1.39-.65-1.82l-.22-.73.58.47a12.3,12.3,0,0,1,1.37,1.4,17,17,0,0,1,1.6,2.26c.49.9,1,1.88,1.4,2.88s.61,2.11.84,3.11a18.77,18.77,0,0,1,.29,2.79A13.14,13.14,0,0,1,23.79,203.59Zm2.51-9c-.31-.42-.83-1-1.32-1.67s-1.18-1.47-1.76-2.36-1.27-1.8-2-2.7S20,186,19.36,185.16s-1.14-1.75-1.65-2.45-.85-1.38-1.14-1.8l-.41-.72.71.39a15.14,15.14,0,0,1,1.75,1.23,23.38,23.38,0,0,1,2.22,2c.74.83,1.49,1.74,2.23,2.67s1.25,2,1.79,3a21.39,21.39,0,0,1,1.22,2.81,15.7,15.7,0,0,1,.61,2.1c.09.53.15.83.15.83Zm-6.57,39.61c-.81-.52-1.46-1.05-1.95-1.35l-.75-.55.91.13a14.35,14.35,0,0,1,2.33.59,20,20,0,0,1,3.14,1.35,37.84,37.84,0,0,1,3.32,2.14c1,.89,2,1.82,2.87,2.74a21.83,21.83,0,0,1,2.1,2.78,17.08,17.08,0,0,1,1.17,2.18l.35.88-.7-.6c-.41-.41-1.08-.92-1.78-1.59s-1.61-1.36-2.48-2.18-1.87-1.6-2.89-2.35-2-1.59-3-2.27S20.55,234.75,19.73,234.25Zm13.12,20.31c-.29-.41-.79-.93-1.28-1.6s-1.15-1.4-1.74-2.24-1.28-1.69-2-2.51-1.32-1.74-2-2.52-1.21-1.6-1.77-2.21-.93-1.25-1.26-1.63-.46-.65-.46-.65l.73.3a12.48,12.48,0,0,1,1.82,1,18.82,18.82,0,0,1,2.33,1.78c.77.75,1.56,1.59,2.32,2.46s1.31,1.92,1.87,2.85a20.14,20.14,0,0,1,1.22,2.73,14.15,14.15,0,0,1,.58,2.05c.08.51.13.8.13.8Zm1,27.84h.93a19.92,19.92,0,0,1,2.43.25,28.71,28.71,0,0,1,3.37.77c1.2.39,2.47.85,3.73,1.35s2.41,1.23,3.51,1.86a27.05,27.05,0,0,1,2.86,2,18.58,18.58,0,0,1,1.86,1.65l.66.69-.89-.31c-.54-.23-1.35-.48-2.25-.89s-2-.79-3.11-1.33-2.31-1-3.53-1.53-2.36-1.11-3.49-1.59-2.16-1-3.08-1.41-1.64-.84-2.18-1.07ZM57.25,302a7.62,7.62,0,0,1-3.21.15,11.41,11.41,0,0,1-4.32-1.62,24.38,24.38,0,0,1-4-3.39c-1.18-1.33-2.25-2.69-3.29-3.9s-1.94-2.39-2.85-3.25a21.94,21.94,0,0,0-2.28-2c-.59-.46-1-.7-1-.7s.43.08,1.16.3A12,12,0,0,1,40.31,289a21.74,21.74,0,0,1,3.49,2.89c1.15,1.18,2.3,2.47,3.49,3.66a22.59,22.59,0,0,0,3.5,3.32,14.42,14.42,0,0,0,3.55,2.05,10.64,10.64,0,0,0,2.87.67,7,7,0,0,0,1.17,0A6.74,6.74,0,0,1,57.25,302Zm34.5,34a8.7,8.7,0,0,1-.8.7,8.35,8.35,0,0,1-3.5,1.44,12.23,12.23,0,0,1-5.37-.33,26.73,26.73,0,0,1-5.55-2.56c-1.71-1.13-3.34-2.3-4.9-3.28a29.48,29.48,0,0,0-4.35-2.41,16,16,0,0,0-3.36-1.05,10.37,10.37,0,0,0-1.36-.18,9.2,9.2,0,0,1,1.37-.27,11.55,11.55,0,0,1,3.72.25,20.42,20.42,0,0,1,4.94,1.9c1.69.94,3.38,2,5.09,3a24.56,24.56,0,0,0,5,2.64,14,14,0,0,0,4.68.95,9.58,9.58,0,0,0,3.4-.54,5.29,5.29,0,0,0,.93-.39l.33-.16Zm2.13-4.34a7,7,0,0,1-1.48,1,10,10,0,0,1-2.34.82,17.55,17.55,0,0,1-2.85.2,17.09,17.09,0,0,1-2.78-.61,10,10,0,0,1-2.22-1.15,7.57,7.57,0,0,1-1.33-1.17l-.43-.52.64.13c.39.12,1,.19,1.62.35s1.41.22,2.19.39a15.19,15.19,0,0,0,2.47.26,16,16,0,0,0,2.48.1c.79-.06,1.57,0,2.22-.07s1.25,0,1.65-.12l.65,0Zm27.18,29.23a11.15,11.15,0,0,1,1.43-.19,18.26,18.26,0,0,1,2,0l2.22.24,2.17.54a17.06,17.06,0,0,1,1.86.69,11,11,0,0,1,1.28.67l.48.31-.55.13a9.8,9.8,0,0,1-1.43.19,16,16,0,0,1-2,0l-2.22-.24-2.17-.54a17,17,0,0,1-1.86-.7,11.19,11.19,0,0,1-1.28-.66l-.48-.31Zm15.78,3.72a10.91,10.91,0,0,1-.82.73,10.67,10.67,0,0,1-3.54,1.72,15.16,15.16,0,0,1-5.55.46,34.79,34.79,0,0,1-6.15-1.36c-2-.72-3.92-1.49-5.74-2.09a38.08,38.08,0,0,0-5-1.45,20.3,20.3,0,0,0-3.67-.42,12.59,12.59,0,0,0-1.44,0,13.2,13.2,0,0,1,1.39-.47,13.84,13.84,0,0,1,3.85-.43,23.86,23.86,0,0,1,5.42.8c1.93.53,3.91,1.22,5.88,1.81a32.75,32.75,0,0,0,5.72,1.58,18.63,18.63,0,0,0,5.07.26,13.26,13.26,0,0,0,3.56-.83,10.41,10.41,0,0,0,1-.43l.34-.17Z"/><path class="cls-1" d="M96.9,312.87s0-.33,0-.89q-1.91-1.71-3.75-3.47c-.08.21-.15.43-.23.63-1.05,2.48-.55,5.13.72,7.86a18.4,18.4,0,0,0,2.49,4,40.13,40.13,0,0,0,3.27,3.63,35.42,35.42,0,0,0,3.55,3c1.16.9,2.25,1.68,3.2,2.33,1.93,1.23,3.26,1.91,3.26,1.91a19.08,19.08,0,0,1-.41-4.25,32.86,32.86,0,0,1,.44-5.46q-6.37-4.66-12.24-9.91Z"/><path class="cls-1" d="M69.15,281.18a4.35,4.35,0,0,0,0,1,4.15,4.15,0,0,1-.44-.91,6.3,6.3,0,0,1-.24-2.73.31.31,0,0,0,0-.08c-1-1.49-1.87-3-2.76-4.53-.21.31-.42.63-.64.91-1.52,2-1.72,4.66-1.19,7.62.14.73.32,1.49.54,2.25s.53,1.49.85,2.24a44.42,44.42,0,0,0,2.19,4.43,46.79,46.79,0,0,0,2.61,3.92c.87,1.2,1.7,2.28,2.44,3.17,1.54,1.74,2.61,2.79,2.61,2.79a19.4,19.4,0,0,1,.63-4.1,31.07,31.07,0,0,1,2-5.58c-3-3.77-5.75-7.69-8.36-11.72A5.58,5.58,0,0,0,69.15,281.18Z"/><path class="cls-1" d="M51.8,244.1l.21-.26c-.51-1.52-1-3.06-1.46-4.61a4.16,4.16,0,0,0-.85.94,2.47,2.47,0,0,0-.35.69,2.63,2.63,0,0,1-.06-.84,4.74,4.74,0,0,1,.81-2.09l0-.06c-.49-1.7-1-3.41-1.41-5.13-.34.3-.67.61-1,.87-1.86,1.41-2.73,3.91-3,6.89a21.49,21.49,0,0,0,.2,4.7,48.13,48.13,0,0,0,.91,4.88c.45,1.58,1,3.12,1.46,4.53s1,2.7,1.5,3.75c1,2.12,1.73,3.46,1.73,3.46a18.17,18.17,0,0,1,1.57-3.69,29.6,29.6,0,0,1,3.38-4.95q-1.83-4.5-3.41-9.12Z"/><path class="cls-1" d="M42.46,196.08a10.89,10.89,0,0,0-1.64,1.65,7.64,7.64,0,0,0-.57.75,9.72,9.72,0,0,1,.18-1,7.39,7.39,0,0,1,1.1-2.33,13.57,13.57,0,0,1,2.18-2.38c0-1.59,0-3.18.08-4.76a15.58,15.58,0,0,1-1.55.74,6.28,6.28,0,0,0-2.65,2.14,12,12,0,0,0-1.81,3.63,31.34,31.34,0,0,0-1,4.57c-.12.81-.22,1.64-.3,2.47s-.06,1.66-.07,2.49c0,1.65,0,3.27.13,4.78a37.66,37.66,0,0,0,.45,4c.35,2.33.67,3.83.67,3.83A17.63,17.63,0,0,1,40,213.68a29.74,29.74,0,0,1,4.58-3.93q-.75-7.23-.86-14.64A9.73,9.73,0,0,0,42.46,196.08Z"/><path class="cls-1" d="M48.31,150.36a11,11,0,0,0-1.81,1,5.07,5.07,0,0,0-.68.49,6.19,6.19,0,0,1,.36-.8,6.8,6.8,0,0,1,1.44-1.82,12.08,12.08,0,0,1,2.62-1.76q.59-2,1.23-4a16.68,16.68,0,0,1-2.4.51,5.79,5.79,0,0,0-3,1.34,13.18,13.18,0,0,0-2.64,3,31.14,31.14,0,0,0-2.15,4.12,37.31,37.31,0,0,0-1.65,4.66,44.68,44.68,0,0,0-1.14,4.64c-.28,1.47-.51,2.84-.68,4s-.23,2.14-.3,2.82-.07,1.06-.07,1.06a15.93,15.93,0,0,1,2.91-2.28,27.12,27.12,0,0,1,5.79-2.69q1.35-7.55,3.38-14.84A9,9,0,0,0,48.31,150.36Z"/><path class="cls-1" d="M66.25,110.6a17.35,17.35,0,0,0-2.69,1,11.06,11.06,0,0,0-1.8,1.07,5.71,5.71,0,0,0-.67.52s.1-.3.34-.82a6.94,6.94,0,0,1,1.42-1.86,10.74,10.74,0,0,1,2.75-1.8,21.89,21.89,0,0,1,2.52-.84c1-1.61,2-3.2,3.11-4.77A15.08,15.08,0,0,1,67.9,103a5.4,5.4,0,0,0-3.1.5,13.6,13.6,0,0,0-3.22,2.17c-.54.48-1.09,1-1.62,1.55s-1,1.17-1.52,1.8a39.62,39.62,0,0,0-2.84,4c-.85,1.4-1.65,2.8-2.35,4.11s-1.24,2.6-1.72,3.67-.85,2-1.1,2.6l-.36,1a13.45,13.45,0,0,1,3.3-1.4,26.1,26.1,0,0,1,6.89-1.09q2.88-5.81,6.2-11.35Z"/><path class="cls-1" d="M96.83,73.74c-.28,0-.56-.12-.83-.16a17.38,17.38,0,0,0-2.87-.31,15.88,15.88,0,0,0-2.11.08,5.38,5.38,0,0,0-.83.1,7.33,7.33,0,0,1,.69-.53A7.72,7.72,0,0,1,93,72a10.62,10.62,0,0,1,3.22-.41,18.19,18.19,0,0,1,2.68.38c.76-.66,1.52-1.3,2.29-2-.34,0-.7-.1-1-.17a15.08,15.08,0,0,1-2.93-.89,5.27,5.27,0,0,0-3-.27,12.33,12.33,0,0,0-3.63,1.22,34.55,34.55,0,0,0-3.89,2.36,47,47,0,0,0-3.76,3.06,42,42,0,0,0-3.36,3.29c-1,1.08-1.94,2.08-2.67,3-1.47,1.81-2.36,3-2.36,3a15.17,15.17,0,0,1,3.41-.5,23.61,23.61,0,0,1,7.51.92Q90.85,79.12,96.83,73.74Z"/><path class="cls-1" d="M129.66,50.68a19.93,19.93,0,0,0-3.16-.54,12.56,12.56,0,0,0-2.31,0,6.74,6.74,0,0,0-.91.1,8.23,8.23,0,0,1,.78-.53,7.54,7.54,0,0,1,2.36-.88,12,12,0,0,1,3.54-.15,29.92,29.92,0,0,1,3,.56c1.74-.86,3.48-1.69,5.25-2.49a15.24,15.24,0,0,1-3.59-2,5,5,0,0,0-2.75-1,14.73,14.73,0,0,0-3.76.24,24.53,24.53,0,0,0-4.33,1.2A39.88,39.88,0,0,0,119.34,47c-1.44.71-2.83,1.46-4.11,2.18s-2.39,1.49-3.36,2.12-1.75,1.17-2.28,1.57l-.83.64a12.26,12.26,0,0,1,3.33.37,23.66,23.66,0,0,1,7.2,2.94q5.22-3.26,10.69-6.11Z"/><path class="cls-1" d="M212.48,357.7s1.47.14,3.73.17c1.13,0,2.46,0,3.9-.08a38.57,38.57,0,0,0,4.54-.63,29.52,29.52,0,0,0,4.63-1.23,22.21,22.21,0,0,0,4.13-2.1,11,11,0,0,0,3.09-2.9,9,9,0,0,0,.83-1.52,160.22,160.22,0,0,1-21.52,3.08c-.27.52-.53,1-.78,1.46A20.35,20.35,0,0,1,212.48,357.7Z"/><path class="cls-1" d="M257.57,380.87c-1.66-1.52-3.46-3.16-5.31-4.79s-3.73-3.21-5.63-4.83-3.77-3.06-5.57-4.3a34.68,34.68,0,0,0-5.19-3,9.36,9.36,0,0,0-4.62-.92c-.71.08-1.4.15-2.07.18s-1.32,0-1.94,0c-1.25,0-2.41-.08-3.47-.16s-2-.21-2.92-.34-1.67-.37-2.36-.57a18.82,18.82,0,0,1-4.13-1.54,58.58,58.58,0,0,0,4.1,12.58,26.44,26.44,0,0,0,5.8,8.41c2.39,2.16,5.28,3.6,8.49,3.22a31.3,31.3,0,0,1,5.08-.18c.88,0,1.78.1,2.69.19l2.74.22c1.84.18,3.7.44,5.53.74s3.6.56,5.3.84,3.31.58,4.77.86,2.77.53,3.86.71c2.19.39,3.53.67,3.53.67S264.6,387.31,262,385Zm-33.66-12.44.84.46c.51.32,1.29.7,2.15,1.22s1.93,1,3,1.66,2.27,1.21,3.47,1.74,2.38,1.15,3.53,1.61,2.21,1,3.16,1.28,1.73.72,2.3.9l.88.37-1,.08a16.17,16.17,0,0,1-2.51-.07,21.64,21.64,0,0,1-3.5-.64c-1.24-.39-2.56-.87-3.85-1.42s-2.44-1.38-3.53-2.11a21.85,21.85,0,0,1-2.75-2.34,15.71,15.71,0,0,1-1.68-1.94Zm29.76,14.83a20.53,20.53,0,0,0-3.43-.92,33.23,33.23,0,0,0-5-.48c-1.83-.11-3.81-.1-5.83-.15a36.72,36.72,0,0,1-6-.89,15.47,15.47,0,0,1-4.87-2.27,11,11,0,0,1-2.7-2.7c-.24-.4-.43-.71-.53-.93l-.17-.33a9.38,9.38,0,0,0,1,1,14,14,0,0,0,3,1.87,19.32,19.32,0,0,0,4.67,1.43,34.84,34.84,0,0,0,5.66.54c2,.15,4,.25,5.87.46a22.21,22.21,0,0,1,5.12,1.24,13.46,13.46,0,0,1,3.31,1.78,12,12,0,0,1,1.07.93A10.9,10.9,0,0,0,253.67,383.26Z"/><path class="cls-1" d="M258.64,347.1a19,19,0,0,1-1.51,4.1l1-.2a20.7,20.7,0,0,0,2.63-.67c1.09-.34,2.35-.77,3.71-1.28a28.55,28.55,0,0,0,4.21-1.88,40.08,40.08,0,0,0,4.11-2.53,18.88,18.88,0,0,0,3.43-3.16,12.72,12.72,0,0,0,2.22-3.6,8.1,8.1,0,0,0,.49-3.64A159.87,159.87,0,0,1,259.43,343,37.11,37.11,0,0,1,258.64,347.1Z"/><path class="cls-1" d="M310.72,312.87l-.27-.63q-5.86,5.25-12.24,9.91a32.86,32.86,0,0,1,.44,5.46,19.37,19.37,0,0,1-.42,4.25s1.33-.68,3.27-1.91c.94-.65,2-1.43,3.2-2.33a35.34,35.34,0,0,0,3.54-3,41.8,41.8,0,0,0,3.28-3.63,18.79,18.79,0,0,0,2.49-4c1.27-2.73,1.76-5.38.71-7.86-.08-.2-.15-.42-.22-.63-1.23,1.17-2.49,2.33-3.75,3.47C310.73,312.54,310.72,312.87,310.72,312.87Z"/><path class="cls-1" d="M339.14,278.51a6.32,6.32,0,0,1-.23,2.73,4.81,4.81,0,0,1-.44.91,4.89,4.89,0,0,0,0-1,5.51,5.51,0,0,0-.24-1.35c-2.62,4-5.41,7.95-8.37,11.72a31.07,31.07,0,0,1,2,5.58,18.59,18.59,0,0,1,.63,4.1s1.07-1.05,2.62-2.79c.74-.89,1.56-2,2.44-3.17a37.1,37.1,0,0,0,4.79-8.35c.32-.75.61-1.49.86-2.24a22.07,22.07,0,0,0,.53-2.25c.54-3,.34-5.64-1.19-7.62-.22-.28-.42-.6-.63-.91-.9,1.52-1.82,3-2.77,4.53A.19.19,0,0,1,339.14,278.51Z"/><path class="cls-1" d="M357.52,237.93a4.74,4.74,0,0,1,.81,2.09,2.89,2.89,0,0,1-.05.84,2.74,2.74,0,0,0-.36-.69,3.94,3.94,0,0,0-.85-.94q-.69,2.33-1.46,4.61l.21.26-.28,0q-1.56,4.62-3.41,9.12a28.43,28.43,0,0,1,3.38,4.95,18.17,18.17,0,0,1,1.57,3.69s.74-1.34,1.74-3.46c.52-1.05,1-2.35,1.49-3.75s1-3,1.46-4.53a48.17,48.17,0,0,0,.92-4.88,20.86,20.86,0,0,0,.19-4.7c-.25-3-1.11-5.48-3-6.89-.33-.26-.67-.57-1-.87q-.67,2.58-1.42,5.13Z"/><path class="cls-1" d="M391,227.64l-5.25,3.17c-1.86,1.11-3.74,2.28-5.54,3.49s-3.46,2.45-5.09,3.68a27.47,27.47,0,0,0-4.12,3.84,13.76,13.76,0,0,0-1.44,2,10.48,10.48,0,0,0-1,2.05c-.61,1.7-1.19,3.24-1.78,4.64.13-.37.27-.74.38-1.11,1.06-3.48,2.22-6.93,3.06-10.49a172.41,172.41,0,0,0,4.23-21.55c.1-.88.2-1.75.31-2.62a35.84,35.84,0,0,0,7.51-2.38,20,20,0,0,0,6.85-4.86,12.2,12.2,0,0,0,3.32-8.1,41.84,41.84,0,0,1,.46-5.08c.27-1.75.48-3.55.83-5.35s.72-3.59,1.08-5.37.74-3.48,1.12-5.12l1-4.55c.32-1.39.62-2.64.86-3.68l.76-3.35s-1.26,1.35-3.2,3.5-4.62,5.1-7.32,8.28c-1.39,1.59-2.78,3.25-4.09,4.91-.66.83-1.29,1.67-1.9,2.5s-1.23,1.67-1.78,2.5a29.5,29.5,0,0,0-2.71,4.86,12.7,12.7,0,0,0-1.23,4.6c-.06,1.48-.14,2.86-.28,4.15-.11.78-.23,1.51-.35,2.21.09-1.16.17-2.32.21-3.49l.12-5.49c0-.92.07-1.79,0-2.77L376,190c-.05-1.81,0-3.59-.18-5.43s-.22-3.65-.34-5.46-.35-3.61-.52-5.41c-.29-2.44-.63-4.86-1-7.28l.6-.34a31.62,31.62,0,0,0,5.49-4,20.31,20.31,0,0,0,4.94-6.57,14.59,14.59,0,0,0,1.13-4.13,11.59,11.59,0,0,0-.31-4.54,47,47,0,0,1-1-5c-.29-1.72-.53-3.52-.71-5.33s-.34-3.62-.51-5.41-.27-3.52-.39-5.18c-.31-3.28-.41-6.25-.61-8.33s-.23-3.39-.23-3.39-.78,1.63-1.93,4.2c-.57,1.29-1.25,2.82-2,4.47s-1.54,3.5-2.31,5.38-1.6,3.85-2.33,5.8-1.35,3.88-1.94,5.78a30.59,30.59,0,0,0-1.13,5.41,14.27,14.27,0,0,0,.16,4.74,47.24,47.24,0,0,1,1,5.26c-.2-.89-.37-1.78-.58-2.67a184.73,184.73,0,0,0-6-20c-1.56-4.27-3.29-8.41-5.14-12.42a31.86,31.86,0,0,0,4.14-5.64,19.66,19.66,0,0,0,2.6-7.54,14.28,14.28,0,0,0-.12-4.22,13.61,13.61,0,0,0-1.59-4.2c-.77-1.4-1.55-2.88-2.3-4.44s-1.42-3.23-2.14-4.86-1.37-3.32-2-5-1.27-3.23-1.86-4.75-1.1-3-1.62-4.24-.94-2.44-1.31-3.41l-.85-2.29-.31-.82s-.23,1.74-.57,4.42c-.16,1.36-.34,3-.53,4.7s-.37,3.69-.57,5.64-.33,4-.42,6-.18,4.07-.12,6a37.8,37.8,0,0,0,.51,5.42,15.58,15.58,0,0,0,1.52,4.44c.42.77.8,1.5,1.17,2.21-2-3.51-4-6.92-6.17-10.17a159.82,159.82,0,0,0-10.78-14.57l-2.57-3,.14-.3a27.77,27.77,0,0,0,2-5.94,20.3,20.3,0,0,0,.2-7.72,14,14,0,0,0-4-7.4,48.26,48.26,0,0,1-3.4-3.55c-1.13-1.28-2.29-2.58-3.4-4l-1.64-2.07-1.65-2c-1-1.35-2.09-2.67-3.07-3.94-2-2.45-3.67-4.74-4.93-6.29l-2-2.55s.27,1.64.77,4.18,1.14,6.1,2,9.78c.44,1.84.84,3.82,1.35,5.71s1.07,3.75,1.65,5.55a29.71,29.71,0,0,0,2.08,4.89,14.17,14.17,0,0,0,2.68,3.8c.65.61,1.24,1.22,1.8,1.82a154.72,154.72,0,0,0-22.06-18q-2.16-1.46-4.25-2.74a27.92,27.92,0,0,0,.17-6.49,18.16,18.16,0,0,0-2.08-7.09,13.27,13.27,0,0,0-5.9-5.76c-.68-.35-1.37-.74-2.07-1.15s-1.43-.79-2.14-1.22c-1.44-.85-2.87-1.82-4.32-2.76s-2.88-1.89-4.27-2.86-2.76-1.84-4-2.74-2.48-1.74-3.57-2.47l-2.88-2-2.6-1.79s.72,1.4,1.92,3.56l2.11,3.78,2.59,4.53c.92,1.59,1.92,3.18,2.94,4.78s2.07,3.19,3.16,4.62a39.54,39.54,0,0,0,3.37,4,17.49,17.49,0,0,0,3.64,2.76A55.4,55.4,0,0,1,291,44.7l.08.06c-2.77-1.5-5.39-2.81-7.81-3.93a138.89,138.89,0,0,0-13.34-5.25c-1.57-.52-2.78-.88-3.6-1.13l-1.23-.38,1.18.54c.78.35,1.93.88,3.44,1.54,3,1.35,7.35,3.48,12.76,6.39a188.93,188.93,0,0,1,18.76,11.75,166.6,166.6,0,0,1,22,18.55L326,75.7c.94,1,1.84,2,2.77,3,1.89,2,3.66,4.2,5.51,6.38.91,1.11,1.77,2.27,2.68,3.41s1.8,2.3,2.64,3.52l2.63,3.63q1.26,1.86,2.53,3.77a169.13,169.13,0,0,1,17.35,34.34A167.42,167.42,0,0,1,371.67,174l.51,5.3c.11,1.76.21,3.53.32,5.3s.12,3.58.16,5.38l0,2.71c0,.84,0,1.78,0,2.66l-.13,5.38c-.06,1.79-.24,3.58-.35,5.37-.19,3.59-.7,7.15-1.12,10.72a169.17,169.17,0,0,1-4.4,21c-.87,3.47-2.05,6.82-3.12,10.2-.55,1.69-1.23,3.33-1.83,5s-1.22,3.32-1.94,4.92-1.39,3.22-2.08,4.82-1.52,3.14-2.28,4.71c-1.46,3.15-3.22,6.12-4.85,9.14a167.84,167.84,0,0,1-11.14,16.86c-1.93,2.69-4.05,5.19-6.09,7.71-1,1.28-2.13,2.43-3.18,3.64s-2.11,2.42-3.22,3.54c-2.24,2.24-4.35,4.56-6.66,6.61l-3.37,3.14-3.46,2.94a163.69,163.69,0,0,1-53.7,30.39c-2,.77-3.93,1.31-5.8,1.93l-2.77.87c-.91.3-1.82.49-2.7.75l-5.06,1.42-4.67,1.1c-3,.78-5.62,1.21-7.94,1.71-1.16.23-2.24.47-3.23.64l-2.72.46c-1.62.26-2.87.5-3.71.66l-1.27.23,1.29.05c.85,0,2.12.1,3.76.12l2.76.06c1,0,2.12-.09,3.32-.14,2.4-.09,5.17-.23,8.24-.63a124.05,124.05,0,0,0,21.94-4.44l.15,0,.31.5a49.73,49.73,0,0,0,5.23,6.94,25.87,25.87,0,0,0,7.72,6,11.08,11.08,0,0,0,8.92.39,42.43,42.43,0,0,1,4.78-1.69c1.69-.48,3.48-.85,5.28-1.22s3.61-.73,5.41-1,3.6-.5,5.25-.79,3.27-.49,4.72-.68l3.84-.48c2.16-.31,3.5-.46,3.5-.46s-1.95-.94-5-2.32L306.06,359c-1.95-.89-4.06-1.84-6.22-2.77l-3.27-1.38c-1.11-.48-2.21-.94-3.31-1.38a67.35,67.35,0,0,0-6.39-2.24,31.17,31.17,0,0,0-5.72-1.2,10.13,10.13,0,0,0-4,.36l4-1.76,7.05-3.53,7.17-4.06c2.35-1.53,4.8-3,7.2-4.65l1.27-.91.09.09a44.27,44.27,0,0,0,6.7,4.82,23.94,23.94,0,0,0,8.78,3.18,11.05,11.05,0,0,0,8.51-2.35c1.27-1,2.61-2.05,4.09-3s3-1.87,4.67-2.73,3.2-1.79,4.82-2.6,3.26-1.56,4.74-2.33c3-1.51,5.74-2.78,7.73-3.68l3.15-1.5s-2-.28-5.2-.63-7.53-.93-12-1.33c-2.23-.18-4.6-.42-6.87-.55a63,63,0,0,0-6.54-.1,28.9,28.9,0,0,0-5.71.63,11.36,11.36,0,0,0-2.89,1.1,168.52,168.52,0,0,0,20.61-21.66l.22.1a38.43,38.43,0,0,0,7.44,2.43,22.17,22.17,0,0,0,9,.26,11.39,11.39,0,0,0,7.36-4.8c.94-1.33,2-2.7,3.08-4.06s2.37-2.7,3.67-4,2.54-2.65,3.84-3.91,2.62-2.47,3.84-3.64c2.39-2.34,4.6-4.38,6.22-5.83.82-.72,1.42-1.33,1.87-1.74s.68-.63.68-.63l-5,1c-3.05.61-7.17,1.45-11.42,2.46-2.11.51-4.37,1-6.5,1.59a63,63,0,0,0-6.08,1.93,27.89,27.89,0,0,0-5.17,2.36,12,12,0,0,0-3.49,3.15l0,0c2.19-3.44,4.29-7,6.33-10.58,1.6-3.14,3.35-6.22,4.78-9.49.74-1.62,1.54-3.23,2.24-4.88.42-1,.86-2.08,1.29-3.12l.57.06a35.46,35.46,0,0,0,7.46,0A21.28,21.28,0,0,0,379,259a11.76,11.76,0,0,0,5.57-6.79c.51-1.56,1.19-3.14,1.84-4.78s1.48-3.28,2.34-4.92,1.7-3.26,2.55-4.87,1.72-3.15,2.57-4.61,1.57-2.85,2.29-4.1,1.35-2.36,1.89-3.3l1.3-2.2c.31-.51.46-.8.46-.8l-4.3,2.41Zm-1.39-38.22c-.18.43-.35,1.1-.65,1.82s-.55,1.61-.94,2.49-.72,1.84-1,2.82-.76,1.89-1.06,2.81-.69,1.74-.92,2.49-.56,1.36-.7,1.8l-.31.7s0-.28-.13-.76a12.13,12.13,0,0,1-.1-2,16.43,16.43,0,0,1,.29-2.79c.22-1,.51-2.06.84-3.11s.91-2,1.39-2.88a17,17,0,0,1,1.6-2.26,12.3,12.3,0,0,1,1.37-1.4l.59-.47S389.72,189,389.58,189.42Zm-8.64,5a17,17,0,0,1,.6-2.1,22.82,22.82,0,0,1,1.22-2.81c.54-1,1.16-2,1.8-3s1.49-1.84,2.22-2.67a24.67,24.67,0,0,1,2.22-2,16.05,16.05,0,0,1,1.75-1.23l.72-.39-.41.72c-.3.42-.64,1.1-1.14,1.8s-1,1.6-1.65,2.45-1.28,1.79-1.9,2.75-1.36,1.82-2,2.7-1.27,1.65-1.75,2.36-1,1.25-1.32,1.67l-.55.62S380.84,195,380.94,194.43Zm-.42-57,.49-.61s0,.29-.09.79-.14,1.2-.32,2-.28,1.78-.52,2.77-.43,2.06-.61,3.12-.49,2.11-.67,3.12-.47,1.92-.61,2.74-.4,1.49-.5,2l-.23.76s-.08-.28-.21-.77a14.88,14.88,0,0,1-.32-2.05,18.5,18.5,0,0,1-.06-2.93c.09-1.06.23-2.19.41-3.32s.6-2.2.93-3.21a21.53,21.53,0,0,1,1.21-2.65A15.69,15.69,0,0,1,380.52,137.44Zm-4.73,2.37c.12-.92.16-2,.39-3.15s.46-2.34.69-3.54.67-2.37,1-3.48.76-2.1,1.06-3,.7-1.57.91-2.07l.41-.77s0,.32,0,.88,0,1.35-.12,2.27-.17,2-.39,3.15-.45,2.34-.69,3.54-.66,2.37-1,3.48-.75,2.1-1.05,3-.71,1.57-.92,2.07l-.41.76s0-.31,0-.87S375.67,140.73,375.79,139.81Zm-80.68-99A20.89,20.89,0,0,0,293,38.29a31,31,0,0,0-3.45-3,40.86,40.86,0,0,0-4.37-3l-4.52-3a36.91,36.91,0,0,1-3.79-3,19.76,19.76,0,0,1-2.35-2.53c-.5-.68-.76-1.08-.76-1.08s.38.29,1.06.74,1.64,1.07,2.79,1.81,2.58,1.44,4.06,2.32l4.69,2.74a42.47,42.47,0,0,1,4.42,3.42,20.23,20.23,0,0,1,3.2,3.78,13.4,13.4,0,0,1,1.52,3.19c.14.4.2.73.26,1l.08.33S295.6,41.52,295.11,40.85Zm37.15,29a8.5,8.5,0,0,1-.44,1.18,8.52,8.52,0,0,0,0-1.23,12.13,12.13,0,0,0-.57-3.06,16,16,0,0,0-1.85-3.85A25.78,25.78,0,0,0,326.34,59c-1.13-1.35-2.27-2.69-3.34-3.95a22.71,22.71,0,0,1-2.51-3.93A13.15,13.15,0,0,1,319.4,48c-.13-.8-.16-1.25-.16-1.25s.19.42.57,1.09a22.31,22.31,0,0,0,1.75,2.6,39.36,39.36,0,0,0,2.9,3.29L328,57.44a28.06,28.06,0,0,1,3.07,4.43,13.36,13.36,0,0,1,1.42,4.61A9.13,9.13,0,0,1,332.26,69.86ZM355,98.31c0,.85-.09,1.59-.09,2.1l-.08.82-.35-.74a15.09,15.09,0,0,1-.73-2,20.79,20.79,0,0,1-.67-2.92c-.14-1.09-.26-2.25-.34-3.42s.07-2.34.16-3.43a23.19,23.19,0,0,1,.51-3,16.87,16.87,0,0,1,.62-2l.31-.75s0,.29.12.81.17,1.24.21,2.09.17,1.86.17,2.91.07,2.19.14,3.31,0,2.25,0,3.3S355,97.45,355,98.31Zm4,7.58c-.28-1.09-.54-2.27-.75-3.45s-.16-2.41-.17-3.54a20.48,20.48,0,0,1,.33-3.07,15,15,0,0,1,.53-2.12c.18-.5.29-.78.29-.78l.14.82c.05.52.22,1.26.3,2.12s.28,1.87.36,2.93.25,2.2.44,3.32.25,2.26.44,3.32.24,2.07.41,2.92.17,1.62.26,2.13.07.83.07.83-.17-.25-.48-.67a14.58,14.58,0,0,1-1.06-1.9A20.39,20.39,0,0,1,359,105.89ZM297.46,361.36a13.87,13.87,0,0,1,3.86.43,12.37,12.37,0,0,1,1.38.47,12.59,12.59,0,0,0-1.44,0,20.3,20.3,0,0,0-3.67.42,37.54,37.54,0,0,0-5,1.45c-1.82.6-3.76,1.37-5.75,2.09a34.79,34.79,0,0,1-6.15,1.36,15.16,15.16,0,0,1-5.55-.46,10.61,10.61,0,0,1-3.53-1.72c-.37-.31-.65-.55-.83-.73l-.27-.27.34.17a10,10,0,0,0,1,.43,13.36,13.36,0,0,0,3.56.83,18.63,18.63,0,0,0,5.07-.26,32.75,32.75,0,0,0,5.72-1.58c2-.59,4-1.28,5.88-1.81A24,24,0,0,1,297.46,361.36Zm-18.68.15L281,361l2.22-.24a18.3,18.3,0,0,1,2,0,11,11,0,0,1,1.42.19l.55.13-.47.31a12.42,12.42,0,0,1-1.29.66,15.57,15.57,0,0,1-1.86.7l-2.17.54-2.22.24a16,16,0,0,1-2,0,9.44,9.44,0,0,1-1.42-.19l-.55-.13.47-.31a10.49,10.49,0,0,1,1.29-.67A15.63,15.63,0,0,1,278.78,361.51ZM330,333.28c1.7-1,3.4-2.09,5.09-3a20.36,20.36,0,0,1,4.93-1.9,11.56,11.56,0,0,1,3.72-.25,9.2,9.2,0,0,1,1.37.27,10.59,10.59,0,0,0-1.36.18,16,16,0,0,0-3.36,1.05A30,30,0,0,0,336,332c-1.56,1-3.18,2.15-4.9,3.28a26.9,26.9,0,0,1-5.54,2.56,12.27,12.27,0,0,1-5.38.33,8.35,8.35,0,0,1-3.5-1.44,8.7,8.7,0,0,1-.8-.7l-.26-.26.33.16a6.06,6.06,0,0,0,.93.39,9.6,9.6,0,0,0,3.41.54,14.13,14.13,0,0,0,4.68-.95A25.1,25.1,0,0,0,330,333.28Zm-9.7-1.91a15.31,15.31,0,0,0,2.48-.26c.77-.17,1.55-.2,2.19-.39s1.22-.23,1.61-.35l.65-.13-.43.52a8.1,8.1,0,0,1-1.34,1.17,9.92,9.92,0,0,1-2.21,1.15,10,10,0,0,1-5.63.41,10.24,10.24,0,0,1-2.35-.82,7.27,7.27,0,0,1-1.48-1l-.49-.46.66,0c.39.07,1,.05,1.64.12s1.43,0,2.22.07A16,16,0,0,0,320.25,331.37Zm34.86-41.08a19.79,19.79,0,0,1,1.86-1.65,28.13,28.13,0,0,1,2.86-2c1.1-.63,2.3-1.26,3.52-1.86s2.52-1,3.72-1.35a29.18,29.18,0,0,1,3.37-.77,20.12,20.12,0,0,1,2.43-.25h.94l-.83.45c-.53.23-1.27.67-2.18,1.07s-1.94.95-3.07,1.41-2.33,1-3.5,1.59-2.41,1-3.53,1.53-2.21.9-3.1,1.33-1.72.66-2.26.89l-.88.31Zm-4.7,11.29a10.64,10.64,0,0,0,2.87-.67,14.29,14.29,0,0,0,3.56-2.05,23,23,0,0,0,3.5-3.32c1.19-1.19,2.34-2.48,3.48-3.66a21.74,21.74,0,0,1,3.49-2.89,12,12,0,0,1,2.86-1.42c.74-.22,1.16-.3,1.16-.3s-.37.24-1,.7a21,21,0,0,0-2.28,2c-.92.86-1.82,2-2.86,3.25s-2.11,2.57-3.28,3.9a24.8,24.8,0,0,1-4,3.39,11.45,11.45,0,0,1-4.33,1.62,7.65,7.65,0,0,1-3.21-.15,7.25,7.25,0,0,1-1.13-.42A7,7,0,0,0,350.41,301.58Zm34.37-59.73c-.32.38-.72,1-1.26,1.63s-1.09,1.44-1.76,2.21-1.34,1.63-2,2.52-1.39,1.68-2,2.51-1.26,1.55-1.73,2.24-1,1.19-1.29,1.6l-.53.6.14-.8a15.28,15.28,0,0,1,.57-2.05,19.1,19.1,0,0,1,1.23-2.73c.55-.93,1.19-1.9,1.86-2.85s1.55-1.71,2.33-2.46a18.1,18.1,0,0,1,2.33-1.78,12.48,12.48,0,0,1,1.82-1l.73-.3Zm5.07-8.95c-.49.3-1.15.83-2,1.35s-1.7,1.24-2.69,1.9-2,1.45-2.95,2.27-2,1.55-2.9,2.35-1.79,1.49-2.48,2.18-1.37,1.18-1.78,1.59l-.7.6.36-.88a14.85,14.85,0,0,1,1.17-2.18A21.68,21.68,0,0,1,378,239.3c.87-.92,1.85-1.85,2.88-2.74a36.29,36.29,0,0,1,3.31-2.14,20.45,20.45,0,0,1,3.14-1.35,14.18,14.18,0,0,1,2.34-.59l.9-.13Z"/><path class="cls-1" d="M366.1,195.19a7.56,7.56,0,0,1,1.09,2.33,7,7,0,0,1,.18,1,8.4,8.4,0,0,0-.56-.75,11.93,11.93,0,0,0-1.64-1.65,10.58,10.58,0,0,0-1.29-1q-.11,7.41-.86,14.64a29.26,29.26,0,0,1,4.58,3.93,17,17,0,0,1,2.38,3.06s.32-1.5.67-3.83a37.49,37.49,0,0,0,.46-4c.08-1.51.13-3.13.12-4.78,0-.83,0-1.66-.07-2.49s-.18-1.66-.3-2.47a28.93,28.93,0,0,0-1-4.57,11.75,11.75,0,0,0-1.81-3.63,6.28,6.28,0,0,0-2.65-2.14,16.71,16.71,0,0,1-1.55-.74c.05,1.58.08,3.17.08,4.76A14.06,14.06,0,0,1,366.1,195.19Z"/><path class="cls-1" d="M360,149.26a7,7,0,0,1,1.44,1.82,8.69,8.69,0,0,1,.36.8,6.11,6.11,0,0,0-.68-.49,11.63,11.63,0,0,0-1.82-1,8.55,8.55,0,0,0-1.25-.52c1.35,4.86,2.49,9.81,3.38,14.84a27.23,27.23,0,0,1,5.8,2.69,16,16,0,0,1,2.9,2.28s0-.38-.07-1.06-.11-1.66-.3-2.82-.39-2.54-.68-4a40.11,40.11,0,0,0-1.14-4.64,35.77,35.77,0,0,0-1.65-4.66,30,30,0,0,0-2.15-4.12,13.15,13.15,0,0,0-2.63-3,5.83,5.83,0,0,0-3-1.34,16.8,16.8,0,0,1-2.41-.51c.43,1.32.84,2.65,1.24,4A12.33,12.33,0,0,1,360,149.26Z"/><path class="cls-1" d="M342,108.69a10.67,10.67,0,0,1,2.74,1.8,6.54,6.54,0,0,1,1.42,1.86,6.32,6.32,0,0,1,.34.82,5.71,5.71,0,0,0-.67-.52,10.25,10.25,0,0,0-1.8-1.07,16.62,16.62,0,0,0-2.69-1l-.21-.06q3.31,5.53,6.2,11.35a26.26,26.26,0,0,1,6.9,1.09,13.47,13.47,0,0,1,3.29,1.4s-.13-.36-.35-1-.63-1.53-1.1-2.6-1-2.34-1.72-3.67-1.5-2.71-2.35-4.11a41.28,41.28,0,0,0-2.84-4c-.51-.63-1-1.23-1.53-1.8s-1.08-1.07-1.62-1.55a13.76,13.76,0,0,0-3.21-2.17,5.42,5.42,0,0,0-3.1-.5,15.12,15.12,0,0,1-3.33.11q1.59,2.36,3.1,4.77A22.06,22.06,0,0,1,342,108.69Z"/><path class="cls-1" d="M311.44,71.56a10.58,10.58,0,0,1,3.22.41,7.66,7.66,0,0,1,2.09,1c.45.32.69.53.69.53a5.67,5.67,0,0,0-.84-.1,15.8,15.8,0,0,0-2.11-.08,17.5,17.5,0,0,0-2.87.31c-.27,0-.55.11-.82.16,4,3.58,7.78,7.35,11.38,11.3a23.58,23.58,0,0,1,7.5-.92,15.2,15.2,0,0,1,3.42.5s-.9-1.23-2.36-3c-.74-.91-1.67-1.91-2.68-3a41.87,41.87,0,0,0-3.35-3.29,47.12,47.12,0,0,0-3.77-3.06,33.59,33.59,0,0,0-3.88-2.36,12.53,12.53,0,0,0-3.63-1.22,5.29,5.29,0,0,0-3,.27,14.77,14.77,0,0,1-2.92.89c-.34.07-.69.12-1,.17.77.65,1.54,1.29,2.29,2A18.19,18.19,0,0,1,311.44,71.56Z"/><path class="cls-1" d="M277.66,48.68a12,12,0,0,1,3.54.15,7.44,7.44,0,0,1,2.36.88,8.23,8.23,0,0,1,.78.53,6.46,6.46,0,0,0-.91-.1,12.55,12.55,0,0,0-2.31,0,19.93,19.93,0,0,0-3.16.54l-.31.07c3.64,1.9,7.21,3.94,10.68,6.11a23.86,23.86,0,0,1,7.2-2.94,12.26,12.26,0,0,1,3.33-.37l-.82-.64c-.54-.4-1.33-.93-2.29-1.57s-2.09-1.38-3.36-2.12-2.67-1.47-4.11-2.18a39.74,39.74,0,0,0-4.44-1.86A24.63,24.63,0,0,0,279.5,44a14.7,14.7,0,0,0-3.76-.24,5,5,0,0,0-2.75,1,14.85,14.85,0,0,1-3.59,2q2.66,1.2,5.25,2.49A30.45,30.45,0,0,1,277.66,48.68Z"/><path class="cls-1" d="M259.43,343a159.69,159.69,0,0,0,38.78-20.85q6.36-4.66,12.24-9.91l.3-.26c1.26-1.14,2.52-2.3,3.75-3.47a161.35,161.35,0,0,0,15.36-17c3-3.77,5.75-7.69,8.37-11.72.3-.47.6-.93.89-1.4.95-1.49,1.87-3,2.77-4.53a159.52,159.52,0,0,0,10.24-20.72q1.85-4.5,3.41-9.12l.07-.22q.76-2.28,1.46-4.61c.14-.45.28-.91.41-1.36q.75-2.55,1.42-5.13a159.48,159.48,0,0,0,4.12-23q.76-7.23.86-14.64c0-.76,0-1.51,0-2.27v0c0-1.59,0-3.18-.08-4.76a160.34,160.34,0,0,0-2.39-23.37c-.89-5-2-10-3.38-14.84-.22-.78-.44-1.56-.67-2.34-.4-1.34-.81-2.67-1.24-4a159.37,159.37,0,0,0-8.79-21.62q-2.88-5.81-6.2-11.35c-.54-.9-1.1-1.8-1.66-2.69q-1.51-2.41-3.1-4.77a162,162,0,0,0-14.22-18c-3.6-4-7.41-7.72-11.38-11.3-.68-.6-1.35-1.21-2-1.8s-1.52-1.3-2.29-2a161,161,0,0,0-18.14-13.13c-3.47-2.17-7-4.21-10.68-6.11-1-.51-2-1-3-1.51q-2.59-1.29-5.25-2.49a160.54,160.54,0,0,0-131.18,0c-1.77.8-3.51,1.63-5.25,2.49-1,.49-2,1-3,1.51q-5.47,2.85-10.69,6.11A161,161,0,0,0,101.15,70c-.77.65-1.53,1.29-2.29,2s-1.36,1.2-2,1.8q-6,5.37-11.38,11.3a160.87,160.87,0,0,0-14.22,18c-1.07,1.57-2.1,3.16-3.11,4.77-.56.89-1.11,1.79-1.66,2.69q-3.31,5.53-6.2,11.35a159.37,159.37,0,0,0-8.79,21.62q-.64,2-1.23,4c-.23.78-.46,1.56-.68,2.34q-2,7.29-3.38,14.84a160.34,160.34,0,0,0-2.39,23.37c0,1.58-.08,3.17-.08,4.76v0c0,.76,0,1.51,0,2.27q.1,7.41.86,14.64a159.49,159.49,0,0,0,4.13,23c.44,1.72.92,3.43,1.41,5.13.14.45.27.91.41,1.36.47,1.55,1,3.09,1.46,4.61a1.87,1.87,0,0,1,.07.22q1.58,4.62,3.41,9.12A158.31,158.31,0,0,0,65.74,273.9c.89,1.52,1.81,3,2.76,4.53l.9,1.4c2.61,4,5.4,7.95,8.36,11.72a161.45,161.45,0,0,0,15.37,17Q95,310.27,96.88,312l.3.26q5.86,5.25,12.24,9.91a160.68,160.68,0,0,0,19.27,12.09,159.43,159.43,0,0,0,63.13,18.25c4,.29,8,.45,12,.45s8-.16,12-.45A159.79,159.79,0,0,0,259.43,343ZM53.37,192.84c0-83,67.49-150.45,150.44-150.45s150.45,67.49,150.45,150.45S286.77,343.28,203.81,343.28,53.37,275.79,53.37,192.84Z"/><path class="cls-1" d="M203.81,336.31A143.69,143.69,0,1,0,60.13,192.62,143.69,143.69,0,0,0,203.81,336.31Z"/><path class="cls-2" d="M186.25,234.77c-4-.71-7.73-1.25-11.39-2a67.65,67.65,0,0,1-24.47-9.41c-13-8.57-19.49-21.21-21.94-36.17a77.82,77.82,0,0,1-.64-23.89,47,47,0,0,1,11.32-24.7,3.37,3.37,0,0,0,.78-3.6,44.8,44.8,0,0,1,1.47-30.72,3.06,3.06,0,0,1,2.49-1.48,56.25,56.25,0,0,1,13,2.66c6.72,2.69,12.67,6.39,19,9.58a5.66,5.66,0,0,0,3.36.57,124.91,124.91,0,0,1,61.23,0,4.82,4.82,0,0,0,4.17-.84,71.45,71.45,0,0,1,24.7-11.29c10.42-2,8.81-1.75,11.2,6.72a43.76,43.76,0,0,1-.37,25.07,3.3,3.3,0,0,0,.37,2.55,51.5,51.5,0,0,1,12.26,39.39,72.69,72.69,0,0,1-6.45,27.12c-6.92,14.12-18.69,22.19-33.41,26.29-6.11,1.71-12.43,2.68-18.72,4v.2c6.42,6.72,8.07,15.19,8.07,24.13,0,10.89,0,21.78-.24,32.67,0,4.54.64,5.51,5.25,7.49H173c.67-.33,1.58-.47,2.05-1,1-1.21,2.65-2.55,2.69-3.89.27-7.5,0-15,0-22.66-3.16.41-6.05.88-9,1.11a35.73,35.73,0,0,1-26.89-7.22,26.62,26.62,0,0,1-8-10.89A38.23,38.23,0,0,0,118.5,235a12.57,12.57,0,0,1-2.72-2.32c-2.12-2.22-1.62-4.13,1.44-4.37a22.6,22.6,0,0,1,8.23.71,26.7,26.7,0,0,1,15.2,12.53A26.1,26.1,0,0,0,157,254.23a32.2,32.2,0,0,0,20.16-2.09,2.4,2.4,0,0,0,1.24-1.51A29.43,29.43,0,0,1,186.25,234.77Z"/></svg>