<svg id="Слой_1" data-name="Слой 1" xmlns="http://www.w3.org/2000/svg" viewBox="0 0 82 82"><defs><style>.cls-1{fill:#f3e600;}.cls-2{fill:#12100b;}</style></defs><circle class="cls-1" cx="41" cy="41" r="41"/><path class="cls-2" d="M40.58,6.53l3.64,4.18q7.78,9,15.57,18a3.09,3.09,0,0,1,.52.79c2.56,5.94,5.13,11.87,7.65,17.82a1.93,1.93,0,0,1,0,1.34q-3.57,9.06-7.22,18.08a1.83,1.83,0,0,1-.89.89q-9,3.91-18.05,7.76a1.44,1.44,0,0,1-1,0q-9.13-3.6-18.25-7.27a1.7,1.7,0,0,1-.85-.82q-3.91-9-7.76-18a1.49,1.49,0,0,1,0-1q3.58-9.11,7.22-18.17a2.64,2.64,0,0,1,.44-.74L40.25,7.09A4.15,4.15,0,0,0,40.58,6.53ZM53,48.21c0-.13-.07-.23-.11-.33-1.11-2.58-2.21-5.17-3.34-7.74a1.27,1.27,0,0,0-.63-.53c-2.51-1-5-2-7.54-3a1.41,1.41,0,0,0-1,0c-2.45,1-4.89,2.06-7.31,3.14a1.62,1.62,0,0,0-.79.78c-1,2.42-2,4.86-2.92,7.31a1.85,1.85,0,0,0,0,1.25q1.52,3.68,3.15,7.31a1.67,1.67,0,0,0,.83.74c2.43,1,4.87,2,7.32,2.9a1.49,1.49,0,0,0,1,0q3.7-1.53,7.38-3.17a1.56,1.56,0,0,0,.74-.74c1-2.42,2-4.86,2.93-7.3C52.81,48.64,52.88,48.42,53,48.21Zm11.7,2.59c-.37.18-.53.25-.69.34L56.59,55.4c-2,1.12-3.85,2.36-5.88,3.32-2.9,1.38-5.88,2.58-8.84,3.8a2,2,0,0,1-1.34,0c-2.38-.9-4.69-2-7.12-2.76a4.86,4.86,0,0,1-3.62-3.62,10.59,10.59,0,0,0-.66-1.52c-.15.14-.18.22-.18.3,0,4.21,0,8.43,0,12.65,0,.51.25.67.65.83q5.55,2.19,11.08,4.42a1.59,1.59,0,0,0,1.35,0c5.35-2.32,10.72-4.6,16.06-6.94a1.91,1.91,0,0,0,.93-1c1.42-3.45,2.79-6.92,4.18-10.39C63.65,53.36,64.1,52.18,64.65,50.8ZM24.48,29.55c7.83,2.38,15.85,3.66,23.21,7.13l.11-.22L37.3,14.24ZM40.69,10.21a18.69,18.69,0,0,0-1.36,1.64,1.17,1.17,0,0,0-.12,1c1,2.29,2.15,4.56,3.21,6.84Q47.8,31.22,53.17,42.79c.24.52.47,1,.78,1.73.14-.38.22-.56.27-.75,1.15-4.3,2.28-8.61,3.46-12.9a1.44,1.44,0,0,0-.36-1.49c-3-3.47-6-7-9.08-10.46Zm-14.06,57V66.17c0-5.09.05-10.18,0-15.27a11.16,11.16,0,0,1,1-5.13c.55-1.18,1-2.43,1.44-3.65L28.94,42l-12.4,7.17a2.55,2.55,0,0,0,.08.31q3.47,8.07,6.93,16.13a1,1,0,0,0,.36.5C24.75,66.48,25.61,66.81,26.63,67.23ZM36.9,35.35a4.71,4.71,0,0,0-.48-.17C32.24,34.07,28.06,33,23.9,31.82c-.69-.19-.92,0-1.15.61-1.67,4.23-3.38,8.46-5.06,12.69a7.8,7.8,0,0,0-.26.85c3.34-1.93,6.46-3.83,9.66-5.57S33.63,37,36.9,35.35Zm16,19.25.22.13,12.45-7.2c-2-4.71-4-9.32-6.09-14.16C57.22,40.62,56.09,47.93,52.87,54.6Z"/></svg>