<svg id="Слой_1" data-name="Слой 1" xmlns="http://www.w3.org/2000/svg" viewBox="0 0 82 82"><defs><style>.cls-1{fill:#fff;}.cls-2{fill:#12100b;}</style></defs><circle class="cls-1" cx="41" cy="41" r="41"/><path class="cls-2" d="M12.85,40,26.3,45l5.2,16.74a1.59,1.59,0,0,0,2.52.76l7.49-6.11a2.22,2.22,0,0,1,2.73-.08l13.52,9.82a1.6,1.6,0,0,0,2.49-1l9.9-47.65A1.58,1.58,0,0,0,68,15.7L12.83,37A1.59,1.59,0,0,0,12.85,40Zm17.81,2.35L57,26.12a.45.45,0,0,1,.55.72L35.81,47a4.52,4.52,0,0,0-1.4,2.69l-.74,5.47a.68.68,0,0,1-1.32.1l-2.84-10A2.62,2.62,0,0,1,30.66,42.31Z"/></svg>