<svg id="Слой_1" data-name="Слой 1" xmlns="http://www.w3.org/2000/svg" viewBox="0 0 82 82"><defs><style>.cls-1{fill:#fff;}.cls-2{fill:#12100b;}</style></defs><circle class="cls-1" cx="41" cy="41" r="41"/><path class="cls-2" d="M30.11,64.86c22.16,0,34.28-18.36,34.28-34.28,0-.52,0-1,0-1.55a24.75,24.75,0,0,0,6-6.24,24,24,0,0,1-6.92,1.89A12.08,12.08,0,0,0,68.74,18a24.09,24.09,0,0,1-7.65,2.92,12.05,12.05,0,0,0-20.84,8.24,11.83,11.83,0,0,0,.31,2.75A34.23,34.23,0,0,1,15.72,19.34a12.07,12.07,0,0,0,3.73,16.09A12,12,0,0,1,14,33.92v.15a12.06,12.06,0,0,0,9.66,11.82,12.3,12.3,0,0,1-3.17.42,12.05,12.05,0,0,1-2.27-.22,12.06,12.06,0,0,0,11.26,8.37,24.21,24.21,0,0,1-15,5.16,24.71,24.71,0,0,1-2.87-.17,34.07,34.07,0,0,0,18.47,5.41"/></svg>