<svg id="Слой_1" data-name="Слой 1" xmlns="http://www.w3.org/2000/svg" viewBox="0 0 443.52 356.74"><defs><style>.cls-1{fill:#f3e600;}.cls-2{fill:#12100b;}</style></defs><path class="cls-1" d="M187.14,275.89l2.42-2.43.32.32.37-.37-.32-.32.14-.13a.22.22,0,0,1,.34,0l.14.16.32-.33a1.71,1.71,0,0,0-.32-.41.7.7,0,0,0-.5-.23.72.72,0,0,0-.51.24l-.15.16-.25-.25-.37.37.24.24-2.42,2.43Z"/><path class="cls-1" d="M242,288.31l-.84-.84a3.71,3.71,0,0,1,1.21-.42,7.62,7.62,0,0,0,.9-.21,2.15,2.15,0,0,0,.9-.55,1.9,1.9,0,0,0,.51-.84.86.86,0,0,0,0-.42.88.88,0,0,0-.24-.4,1.81,1.81,0,0,0-.34-.26.82.82,0,0,0-.64-.07,2.73,2.73,0,0,0-1,.73l-.21.21.53.53.43-.43a2.68,2.68,0,0,1,.28-.25q.28-.19.45,0t-.24.63a1.71,1.71,0,0,1-.85.53,5,5,0,0,0-.53.11l-.39.09a4.31,4.31,0,0,0-.88.29,2.14,2.14,0,0,0-.62.43l-.21.21,1.38,1.37Z"/><path class="cls-1" d="M200.08,288.32a1.13,1.13,0,0,0,.77-.39l2.55-2.55-.55-.55-.25.26a.56.56,0,0,0-.12-.7h0c-.39-.4-.88-.3-1.47.29l-.94.93a1.83,1.83,0,0,0-.48.73.68.68,0,0,0,.23.68.91.91,0,0,0,.33.22.48.48,0,0,0,.35,0l-.23.23a.59.59,0,0,1-.35.19.53.53,0,0,1-.4-.2,1.27,1.27,0,0,1-.32-.61l-.51.13a1.67,1.67,0,0,0,.53.95A1.24,1.24,0,0,0,200.08,288.32Zm.32-1.5a.26.26,0,0,1-.06-.29,1.36,1.36,0,0,1,.3-.4l1-.95a1.43,1.43,0,0,1,.35-.27.22.22,0,0,1,.28.06.27.27,0,0,1,.08.3,1,1,0,0,1-.26.36l-1,.95a1.26,1.26,0,0,1-.42.32A.24.24,0,0,1,200.4,286.82Z"/><path class="cls-1" d="M213.48,297.88a.63.63,0,0,1,.33-.19.3.3,0,0,1,.29.1c.15.14.13.31-.06.5l-2.24,2.24.55.55,2.29-2.29a1.07,1.07,0,0,0,.34-.63.72.72,0,0,0-.24-.58.64.64,0,0,0-.42-.2.65.65,0,0,0-.43.09l.87-.87-.55-.55-3.45,3.44.55.55Z"/><path class="cls-1" d="M229.12,300.85l3.41-3.41-.43-.43a1.08,1.08,0,0,1-1-.15l-.38.38a1.14,1.14,0,0,0,.3.21.66.66,0,0,0,.32.08l-2.77,2.77Z"/><path class="cls-1" d="M255.8,80.84a1.63,1.63,0,0,0-1.09.62l-.94.94a1.89,1.89,0,0,0-.58.91,1,1,0,0,0,.37.89.93.93,0,0,0,.79.33,1.53,1.53,0,0,0,.83-.48l.3-.3-.54-.53-.34.35,0,0-.14.12q-.27.22-.45,0a.24.24,0,0,1-.08-.28.92.92,0,0,1,.27-.36l1.31-1.31a1,1,0,0,1,.36-.26.25.25,0,0,1,.27.07.28.28,0,0,1,.1.24.9.9,0,0,1-.28.39l-.34.33.53.53.33-.32a1.38,1.38,0,0,0,.45-.79.93.93,0,0,0-.34-.77A1.15,1.15,0,0,0,255.8,80.84Z"/><path class="cls-1" d="M201.43,68.47l1,1-.13.06-.32.15-.69.31c-.33.15-.73.36-1.21.61a8.76,8.76,0,0,0-1.43,1l.61.6a10.78,10.78,0,0,1,3-1.85l.51-.22a1.65,1.65,0,0,0,.31-.17l.37-.38L201.89,68Z"/><path class="cls-1" d="M146.62,55.72l41.84,22.41,33.3-33.3,4.75,4.75,28.55,28.55L296.9,55.72a122.51,122.51,0,0,0-150.28,0Z"/><path class="cls-1" d="M189.88,80.76c-.38-.12-.81.07-1.3.56l-1.41,1.41a2.73,2.73,0,0,0-.56.75,1,1,0,0,0,.33,1.13,1,1,0,0,0,.87.39,1.85,1.85,0,0,0,.9-.57l.19-.19a2.26,2.26,0,0,0,.63-.91.72.72,0,0,0-.23-.71.79.79,0,0,0-.61-.29l.48-.49a1.89,1.89,0,0,1,.48-.38.27.27,0,0,1,.3.09.25.25,0,0,1,.09.29,2.43,2.43,0,0,1-.38.45l-.07.07.52.52.18-.18a1.44,1.44,0,0,0,.49-.84.92.92,0,0,0-.34-.73A1.36,1.36,0,0,0,189.88,80.76Zm-1.19,2.15a.27.27,0,0,1,.06.3,1.51,1.51,0,0,1-.35.45l-.33.33a1,1,0,0,1-.39.28.29.29,0,0,1-.29-.11.31.31,0,0,1-.1-.32,1.29,1.29,0,0,1,.31-.42l.62-.62a.25.25,0,0,1,.21,0A.44.44,0,0,1,188.69,82.91Z"/><path class="cls-1" d="M243.8,69.12a.49.49,0,0,0-.34,0l.74-.74-.55-.55-3.44,3.44.55.55.27-.27a.62.62,0,0,0,.14.74h0a.72.72,0,0,0,.33.2c.31.09.68-.08,1.1-.5h0l1.24-1.23a2.15,2.15,0,0,0,.45-.62.71.71,0,0,0-.19-.86A.73.73,0,0,0,243.8,69.12Zm-.5,1.09-1.19,1.19a1.81,1.81,0,0,1-.43.36.25.25,0,0,1-.3-.07.27.27,0,0,1-.07-.31,1.63,1.63,0,0,1,.33-.43l1.2-1.2a1,1,0,0,1,.41-.29.28.28,0,0,1,.29.09.28.28,0,0,1,.08.15C243.64,69.81,243.53,70,243.3,70.21Z"/><rect class="cls-1" x="213.04" y="57.94" width="17.43" height="17.43" transform="translate(17.82 176.33) rotate(-45)"/><path class="cls-1" d="M214.26,56.06a1.34,1.34,0,0,0-.84.47,1.15,1.15,0,0,0-.44,1,.83.83,0,0,0-.54.08,1.63,1.63,0,0,0-.54.37l-.26.27a1.44,1.44,0,0,0-.46.86,1.13,1.13,0,0,0,.38.82,1.08,1.08,0,0,0,.81.37,1.48,1.48,0,0,0,.87-.47l.23-.24a1.84,1.84,0,0,0,.4-.55.88.88,0,0,0,.09-.53,1.16,1.16,0,0,0,1-.44,1.34,1.34,0,0,0,.47-.84,1.08,1.08,0,0,0-.4-.8A1.11,1.11,0,0,0,214.26,56.06ZM213,59l-.28.28a1.53,1.53,0,0,1-.39.31.25.25,0,0,1-.29-.09.28.28,0,0,1-.1-.29,1.15,1.15,0,0,1,.3-.4l.28-.29a1.28,1.28,0,0,1,.46-.32.3.3,0,0,1,.32,0Q213.49,58.49,213,59Zm1.72-1.77a2.46,2.46,0,0,1-.3.35,2.61,2.61,0,0,1-.37.31.51.51,0,0,1-.24.09.25.25,0,0,1-.17-.08h0a.27.27,0,0,1-.08-.17q0-.2.39-.6c.26-.26.45-.39.56-.37a.26.26,0,0,1,.18.09.34.34,0,0,1,.1.17A.36.36,0,0,1,214.69,57.24Z"/><path class="cls-1" d="M265.64,263.45l.49.49.61-.6.28.28.42-.42-.28-.28,2.39-2.39-.59-.6-3.24,1.63-.38.38.9.9Zm.55-1.5,2.15-1.21-1.68,1.68Z"/><polygon class="cls-1" points="269.89 104.77 272.2 104.77 271.05 103.62 269.89 104.77"/><path class="cls-1" d="M304.48,104.77h30.25a123.1,123.1,0,0,0-15.81-27Z"/><path class="cls-1" d="M334,253.25H305.17l13.63,25.46A122.92,122.92,0,0,0,334,253.25Z"/><polygon class="cls-1" points="261.24 84.31 281.7 104.77 294.99 104.77 323.93 50.74 261.24 84.31"/><polygon class="cls-1" points="246.4 277.76 258.72 265.44 246.53 253.25 246.27 253.25 234.08 265.44 246.4 277.76"/><polygon class="cls-1" points="221.76 277.76 234.08 265.44 221.89 253.25 221.63 253.25 209.44 265.44 221.76 277.76"/><polygon class="cls-1" points="197.11 277.76 209.44 265.44 197.24 253.25 196.99 253.25 184.79 265.44 197.11 277.76"/><path class="cls-1" d="M266.14,96.67l-.27.27.55.55,3.44-3.44-.55-.55-.71.71a.7.7,0,0,0,0-.32.67.67,0,0,0-.18-.3.72.72,0,0,0-.71-.24,1.67,1.67,0,0,0-.74.46L265.78,95a4.77,4.77,0,0,0-.46.53.88.88,0,0,0-.17.5.68.68,0,0,0,.24.5A.63.63,0,0,0,266.14,96.67ZM266,96a1.37,1.37,0,0,1,.31-.41l1.2-1.2a1.49,1.49,0,0,1,.4-.31.27.27,0,0,1,.3.07.3.3,0,0,1,.09.15c0,.13-.08.31-.32.55l-1.16,1.17a1.62,1.62,0,0,1-.45.34.25.25,0,0,1-.3-.06A.27.27,0,0,1,266,96Z"/><path class="cls-1" d="M254.07,276.09a1.78,1.78,0,0,0,1-.57,1.86,1.86,0,0,0,.46-.63.74.74,0,0,0,0-.6.72.72,0,0,0,.54,0,1.47,1.47,0,0,0,.56-.38,1.35,1.35,0,0,0,.48-.87,1.11,1.11,0,0,0-.38-.84,1,1,0,0,0-.81-.37,1.45,1.45,0,0,0-.86.51l-.11.1.54.54.1-.1a1.16,1.16,0,0,1,.41-.3.26.26,0,0,1,.29.08.31.31,0,0,1,.1.29,1.16,1.16,0,0,1-.32.44,1.14,1.14,0,0,1-.48.33.38.38,0,0,1-.39-.14l-.15-.16-.4.4.16.16a.38.38,0,0,1,.13.41,1.75,1.75,0,0,1-.4.53,2,2,0,0,1-.51.41.31.31,0,0,1-.35-.08.29.29,0,0,1-.09-.31,1.43,1.43,0,0,1,.34-.44l.24-.24-.52-.52-.23.22a1.8,1.8,0,0,0-.55.9,1,1,0,0,0,.36.83A1,1,0,0,0,254.07,276.09Z"/><rect class="cls-1" x="213.05" y="281.37" width="17.43" height="17.43" transform="translate(-140.17 241.78) rotate(-45)"/><path class="cls-1" d="M231.07,56.19a1.45,1.45,0,0,0-.8.46l-.09.09.55.54.13-.13a1,1,0,0,1,.34-.25.27.27,0,0,1,.27.08.24.24,0,0,1,.08.25,1.33,1.33,0,0,1-.29.36l-.25.25-.2-.09-.23-.11a1.94,1.94,0,0,0-.72-.23,1,1,0,0,0-.78.35l-.18.18a1.63,1.63,0,0,0-.46.73.69.69,0,0,0,.24.64.63.63,0,0,0,.37.19.65.65,0,0,0,.39-.07l-.29.29.55.56,2.08-2.08a1.4,1.4,0,0,0,.47-.83,1,1,0,0,0-.38-.81A1,1,0,0,0,231.07,56.19Zm-1.34,2.93a.35.35,0,0,1-.23.07.33.33,0,0,1-.23-.11.2.2,0,0,1-.06-.23.9.9,0,0,1,.25-.34l.31-.31a.55.55,0,0,1,.39-.21,1.43,1.43,0,0,1,.56.14Z"/><path class="cls-1" d="M108.79,104.77H139l-14.45-27A123.46,123.46,0,0,0,108.79,104.77Z"/><path class="cls-1" d="M138.35,253.25H109.51a122.88,122.88,0,0,0,15.2,25.46Z"/><polygon class="cls-1" points="171.32 104.77 173.62 104.77 172.47 103.62 171.32 104.77"/><polygon class="cls-1" points="119.59 50.74 148.53 104.77 161.82 104.77 182.28 84.31 119.59 50.74"/><path class="cls-1" d="M175.62,94.48l.47.51c.22-.23.4-.26.55-.12a.23.23,0,0,1,.07.25,1.15,1.15,0,0,1-.24.32l-.87.88c-.23.22-.4.27-.52.15h0a.33.33,0,0,1-.1-.14c0-.11,0-.24.19-.39l.38-.38L175,95l-.43.43a.9.9,0,0,0,0,1.43.92.92,0,0,0,.81.35,1.21,1.21,0,0,0,.46-.21,7.45,7.45,0,0,0,.84-.75,2.83,2.83,0,0,0,.7-1,.62.62,0,0,0-.18-.71.8.8,0,0,0-.27-.18.41.41,0,0,0-.26,0l.7-.69.84.84.46-.46-1.35-1.36Z"/><path class="cls-1" d="M176.13,260.23l-1.08,1.08a2.26,2.26,0,0,0-.53.73.91.91,0,0,0,.3,1,1.12,1.12,0,0,0,.71.38.87.87,0,0,0,.41-.09,2.51,2.51,0,0,0,.63-.51l.16-.15-.55-.55-.25.26-.26.24a.55.55,0,0,1-.23.11c-.06,0-.12,0-.2-.1a.27.27,0,0,1-.08-.25,1,1,0,0,1,.32-.44l.58-.57,1,1,.62-.63a1.52,1.52,0,0,0,.5-.83.94.94,0,0,0-.35-.82C177.29,259.6,176.73,259.63,176.13,260.23Zm1.34.57a1.34,1.34,0,0,1-.3.39l-.37.37-.44-.45.35-.36.16-.14c.22-.2.4-.22.54-.08h0A.21.21,0,0,1,177.47,260.8Z"/><path class="cls-1" d="M118.71,66.82a133.34,133.34,0,0,0-22.34,38h7.21A127.6,127.6,0,0,1,122.1,73.15Z"/><rect class="cls-1" x="237.69" y="82.58" width="17.43" height="17.43" transform="translate(7.61 200.97) rotate(-45)"/><path class="cls-1" d="M321.42,73.15a127.26,127.26,0,0,1,18.51,31.62h7.22A133.37,133.37,0,0,0,324.8,66.82Z"/><polygon class="cls-1" points="323.93 306 295.67 253.25 280.42 253.25 261.24 272.42 323.93 306"/><path class="cls-1" d="M122.22,283.36a127.53,127.53,0,0,1-18-30.11H96.88a133.16,133.16,0,0,0,21.83,36.66Z"/><polygon class="cls-1" points="182.28 272.42 163.1 253.25 147.84 253.25 119.59 306 182.28 272.42"/><path class="cls-1" d="M221.76,331.17a127,127,0,0,1-79.5-27.82l-6.58,3.52a134.25,134.25,0,0,0,172.16,0l-6.58-3.52A127,127,0,0,1,221.76,331.17Z"/><path class="cls-1" d="M324.8,289.91a133,133,0,0,0,21.84-36.66h-7.39a127.23,127.23,0,0,1-18,30.11Z"/><rect class="cls-1" x="213.04" y="82.58" width="17.43" height="17.43" transform="translate(0.4 183.55) rotate(-45)"/><polygon class="cls-1" points="220.6 104.77 222.91 104.77 221.76 103.62 220.6 104.77"/><polygon class="cls-1" points="245.25 104.77 247.55 104.77 246.4 103.62 245.25 104.77"/><rect class="cls-1" x="188.4" y="82.58" width="17.43" height="17.43" transform="translate(-6.82 166.12) rotate(-45)"/><path class="cls-1" d="M221.76,25.19a127,127,0,0,1,79.78,28l6.3-3.37a134.29,134.29,0,0,0-172.17,0l6.3,3.37A127,127,0,0,1,221.76,25.19Z"/><polygon class="cls-1" points="195.96 104.77 198.27 104.77 197.11 103.62 195.96 104.77"/><path class="cls-1" d="M296.6,300.86,255.06,278.6l-33.3,33.3L217,307.15h0L188.46,278.6l-41.55,22.26a122.47,122.47,0,0,0,149.69,0Z"/><path class="cls-2" d="M324.8,289.91l-3.51-6.55a127.23,127.23,0,0,0,18-30.11H334a122.92,122.92,0,0,1-15.21,25.46l-13.63-25.46h-9.5L323.93,306l-62.69-33.58,19.18-19.17H246.53l12.19,12.19L246.4,277.76l-12.32-12.32-12.32,12.32,12.32,12.32L221.76,302.4l-12.32-12.32,12.32-12.32-12.32-12.32-12.33,12.32-12.32-12.32L197,253.25H163.1l19.18,19.17L119.59,306l28.25-52.75h-9.49l-13.64,25.46a122.88,122.88,0,0,1-15.2-25.46h-5.24a127.53,127.53,0,0,0,18,30.11l-3.51,6.55a133.16,133.16,0,0,1-21.83-36.66H88.54a142,142,0,0,0,26.22,44L99.15,326.44l29.15-15.62a142,142,0,0,0,186.92,0l29.15,15.62-15.62-29.15a142.07,142.07,0,0,0,26.23-44h-8.34A133,133,0,0,1,324.8,289.91Zm-59.08-28.35,3.24-1.63.59.6-2.39,2.39.28.28-.42.42-.28-.28-.61.6-.49-.49.6-.61-.9-.9ZM178.17,261a1.52,1.52,0,0,1-.5.83l-.62.63-1-1-.58.57a1,1,0,0,0-.32.44.27.27,0,0,0,.08.25c.08.07.14.11.2.1a.55.55,0,0,0,.23-.11l.26-.24.25-.26.55.55-.16.15a2.51,2.51,0,0,1-.63.51.87.87,0,0,1-.41.09,1.12,1.12,0,0,1-.71-.38.91.91,0,0,1-.3-1,2.26,2.26,0,0,1,.53-.73l1.08-1.08c.6-.6,1.16-.63,1.69-.1A.94.94,0,0,1,178.17,261Zm75.21,13,.23-.22.52.52-.24.24a1.43,1.43,0,0,0-.34.44.29.29,0,0,0,.09.31.31.31,0,0,0,.35.08,2,2,0,0,0,.51-.41,1.75,1.75,0,0,0,.4-.53.38.38,0,0,0-.13-.41l-.16-.16.4-.4.15.16a.38.38,0,0,0,.39.14,1.14,1.14,0,0,0,.48-.33,1.16,1.16,0,0,0,.32-.44.31.31,0,0,0-.1-.29.26.26,0,0,0-.29-.08,1.16,1.16,0,0,0-.41.3l-.1.1-.54-.54.11-.1a1.45,1.45,0,0,1,.86-.51,1,1,0,0,1,.81.37,1.11,1.11,0,0,1,.38.84,1.35,1.35,0,0,1-.48.87,1.47,1.47,0,0,1-.56.38.72.72,0,0,1-.54,0,.74.74,0,0,1,0,.6,1.86,1.86,0,0,1-.46.63,1.78,1.78,0,0,1-1,.57,1,1,0,0,1-.88-.37,1,1,0,0,1-.36-.83A1.8,1.8,0,0,1,253.38,274Zm-13,13.15a2.14,2.14,0,0,1,.62-.43,4.31,4.31,0,0,1,.88-.29l.39-.09a5,5,0,0,1,.53-.11,1.71,1.71,0,0,0,.85-.53q.45-.44.24-.63t-.45,0a2.68,2.68,0,0,0-.28.25l-.43.43-.53-.53.21-.21a2.73,2.73,0,0,1,1-.73.82.82,0,0,1,.64.07,1.81,1.81,0,0,1,.34.26.88.88,0,0,1,.24.4.86.86,0,0,1,0,.42,1.9,1.9,0,0,1-.51.84,2.15,2.15,0,0,1-.9.55,7.62,7.62,0,0,1-.9.21,3.71,3.71,0,0,0-1.21.42l.84.84-.4.41-1.38-1.37ZM231,297.45a1.14,1.14,0,0,1-.3-.21l.38-.38a1.08,1.08,0,0,0,1,.15l.43.43-3.41,3.41-.56-.55,2.77-2.77A.66.66,0,0,1,231,297.45Zm-16.8-1.4.55.55-.87.87a.65.65,0,0,1,.43-.09.64.64,0,0,1,.42.2.72.72,0,0,1,.24.58,1.07,1.07,0,0,1-.34.63l-2.29,2.29-.55-.55,2.24-2.24c.19-.19.21-.36.06-.5a.3.3,0,0,0-.29-.1.63.63,0,0,0-.33.19L211.31,300l-.55-.55Zm-15-9.25a1.27,1.27,0,0,0,.32.61.53.53,0,0,0,.4.2.59.59,0,0,0,.35-.19l.23-.23a.48.48,0,0,1-.35,0,.91.91,0,0,1-.33-.22.68.68,0,0,1-.23-.68,1.83,1.83,0,0,1,.48-.73l.94-.93c.59-.59,1.08-.69,1.47-.29h0a.56.56,0,0,1,.12.7l.25-.26.55.55-2.55,2.55a1.13,1.13,0,0,1-.77.39,1.24,1.24,0,0,1-.87-.44,1.67,1.67,0,0,1-.53-.95Zm-10.42-14.13.37-.37.25.25.15-.16a.72.72,0,0,1,.51-.24.7.7,0,0,1,.5.23,1.71,1.71,0,0,1,.32.41l-.32.33-.14-.16a.22.22,0,0,0-.34,0l-.14.13.32.32-.37.37-.32-.32-2.42,2.43-.55-.55,2.42-2.43Zm-.31,5.93L217,307.15h0l4.75,4.75,33.3-33.3,41.54,22.26a122.47,122.47,0,0,1-149.69,0Zm33.3,59.5a133.23,133.23,0,0,1-86.08-31.23l6.58-3.52a127.5,127.5,0,0,0,159,0l6.58,3.52A133.27,133.27,0,0,1,221.76,338.1Z"/><polygon class="cls-2" points="234.08 91.3 221.76 103.62 222.91 104.77 245.25 104.77 246.4 103.62 234.08 91.3"/><polygon class="cls-2" points="209.44 91.3 197.11 103.62 198.27 104.77 220.6 104.77 221.76 103.62 209.44 91.3"/><polygon class="cls-2" points="221.63 253.25 197.24 253.25 209.44 265.44 221.63 253.25"/><path class="cls-2" d="M118.71,66.82l3.39,6.33a127.6,127.6,0,0,0-18.52,31.62h5.21a123.46,123.46,0,0,1,15.8-27l14.45,27h9.49l-28.94-54,62.69,33.57-20.46,20.46h9.5l1.15-1.15,1.15,1.15H196l1.15-1.15L184.79,91.3,197.11,79,209.44,91.3,221.76,79,209.44,66.65l12.32-12.32,12.32,12.32L221.76,79,234.08,91.3,246.4,79,258.72,91.3,246.4,103.62l1.15,1.15h22.34l1.16-1.15,1.15,1.15h9.5L261.24,84.31l62.69-33.57-28.94,54h9.49l14.44-27a123.1,123.1,0,0,1,15.81,27h5.2a127.26,127.26,0,0,0-18.51-31.62l3.38-6.33a133.37,133.37,0,0,1,22.35,38h8.3a142,142,0,0,0-26.7-45.32L344.37,30.3,315.21,45.91a142.06,142.06,0,0,0-186.91,0L99.15,30.3l15.61,29.15a142,142,0,0,0-26.69,45.32h8.3A133.34,133.34,0,0,1,118.71,66.82Zm59.54,27.73-.84-.84-.7.69a.41.41,0,0,1,.26,0,.8.8,0,0,1,.27.18.62.62,0,0,1,.18.71,2.83,2.83,0,0,1-.7,1,7.45,7.45,0,0,1-.84.75,1.21,1.21,0,0,1-.46.21.92.92,0,0,1-.81-.35.9.9,0,0,1,0-1.43L175,95l.52.52-.38.38c-.15.15-.22.28-.19.39a.33.33,0,0,0,.1.14h0c.12.12.29.07.52-.15l.87-.88a1.15,1.15,0,0,0,.24-.32.23.23,0,0,0-.07-.25c-.15-.14-.33-.11-.55.12l-.47-.51,1.74-1.75,1.35,1.36Zm87.07,1a4.77,4.77,0,0,1,.46-.53L267,93.81a1.67,1.67,0,0,1,.74-.46.72.72,0,0,1,.71.24.67.67,0,0,1,.18.3.7.7,0,0,1,0,.32l.71-.71.55.55-3.44,3.44-.55-.55.27-.27a.63.63,0,0,1-.75-.15.68.68,0,0,1-.24-.5A.88.88,0,0,1,265.32,95.52Zm-75-12.82-.18.18-.52-.52.07-.07a2.43,2.43,0,0,0,.38-.45.25.25,0,0,0-.09-.29.27.27,0,0,0-.3-.09,1.89,1.89,0,0,0-.48.38l-.48.49a.79.79,0,0,1,.61.29.72.72,0,0,1,.23.71,2.26,2.26,0,0,1-.63.91l-.19.19a1.85,1.85,0,0,1-.9.57,1,1,0,0,1-.87-.39,1,1,0,0,1-.33-1.13,2.73,2.73,0,0,1,.56-.75l1.41-1.41c.49-.49.92-.68,1.3-.56a1.36,1.36,0,0,1,.56.37.92.92,0,0,1,.34.73A1.44,1.44,0,0,1,190.29,82.7ZM203.13,70a1.65,1.65,0,0,1-.31.17l-.51.22a10.78,10.78,0,0,0-3,1.85l-.61-.6a8.76,8.76,0,0,1,1.43-1c.48-.25.88-.46,1.21-.61l.69-.31.32-.15.13-.06-1-1,.46-.45,1.61,1.61ZM215,58.1a1.16,1.16,0,0,1-1,.44.88.88,0,0,1-.09.53,1.84,1.84,0,0,1-.4.55l-.23.24a1.48,1.48,0,0,1-.87.47,1.08,1.08,0,0,1-.81-.37,1.13,1.13,0,0,1-.38-.82,1.44,1.44,0,0,1,.46-.86l.26-.27a1.63,1.63,0,0,1,.54-.37.83.83,0,0,1,.54-.08,1.15,1.15,0,0,1,.44-1,1.34,1.34,0,0,1,.84-.47,1.11,1.11,0,0,1,.8.4,1.08,1.08,0,0,1,.4.8A1.34,1.34,0,0,1,215,58.1Zm16.79.1-2.08,2.08-.55-.56.29-.29a.65.65,0,0,1-.39.07.63.63,0,0,1-.37-.19.69.69,0,0,1-.24-.64,1.63,1.63,0,0,1,.46-.73l.18-.18a1,1,0,0,1,.78-.35,1.94,1.94,0,0,1,.72.23l.23.11.2.09.25-.25a1.33,1.33,0,0,0,.29-.36.24.24,0,0,0-.08-.25.27.27,0,0,0-.27-.08,1,1,0,0,0-.34.25l-.13.13-.55-.54.09-.09a1.45,1.45,0,0,1,.8-.46,1,1,0,0,1,.8.37,1,1,0,0,1,.38.81A1.4,1.4,0,0,1,231.78,58.2Zm12.52,12a2.15,2.15,0,0,1-.45.62L242.61,72h0c-.42.42-.79.59-1.1.5a.72.72,0,0,1-.33-.2h0a.62.62,0,0,1-.14-.74l-.27.27-.55-.55,3.44-3.44.55.55-.74.74a.49.49,0,0,1,.34,0,.73.73,0,0,1,.31.17A.71.71,0,0,1,244.3,70.15Zm12.14,12.64-.33.32-.53-.53.34-.33a.9.9,0,0,0,.28-.39.28.28,0,0,0-.1-.24.25.25,0,0,0-.27-.07,1,1,0,0,0-.36.26l-1.31,1.31a.92.92,0,0,0-.27.36.24.24,0,0,0,.08.28q.18.19.45,0l.14-.12,0,0,.34-.35.54.53-.3.3a1.53,1.53,0,0,1-.83.48.93.93,0,0,1-.79-.33,1,1,0,0,1-.37-.89,1.89,1.89,0,0,1,.58-.91l.94-.94a1.63,1.63,0,0,1,1.09-.62,1.15,1.15,0,0,1,.75.39.93.93,0,0,1,.34.77A1.38,1.38,0,0,1,256.44,82.79Zm-1.38-4.66L226.51,49.58l-4.75-4.75-33.3,33.3L146.62,55.72a122.51,122.51,0,0,1,150.28,0Zm-33.3-59.49a133.26,133.26,0,0,1,86.08,31.22l-6.3,3.37a127.53,127.53,0,0,0-159.57,0l-6.3-3.37A133.26,133.26,0,0,1,221.76,18.64Z"/><polygon class="cls-2" points="246.27 253.25 221.89 253.25 234.08 265.44 246.27 253.25"/><polygon class="cls-2" points="268.34 260.74 266.19 261.95 266.66 262.42 268.34 260.74"/><path class="cls-2" d="M200.68,286.9a1.26,1.26,0,0,0,.42-.32l1-.95a1,1,0,0,0,.26-.36.27.27,0,0,0-.08-.3.22.22,0,0,0-.28-.06,1.43,1.43,0,0,0-.35.27l-1,.95a1.36,1.36,0,0,0-.3.4.26.26,0,0,0,.06.29A.24.24,0,0,0,200.68,286.9Z"/><path class="cls-2" d="M177.41,260.53c-.14-.14-.32-.12-.54.08l-.16.14-.35.36.44.45.37-.37a1.34,1.34,0,0,0,.3-.39.21.21,0,0,0-.06-.27Z"/><path class="cls-2" d="M214.48,56.77c-.11,0-.3.11-.56.37s-.4.47-.39.6a.27.27,0,0,0,.08.17h0a.25.25,0,0,0,.17.08.51.51,0,0,0,.24-.09,2.61,2.61,0,0,0,.37-.31,2.46,2.46,0,0,0,.3-.35.36.36,0,0,0,.07-.21.34.34,0,0,0-.1-.17A.26.26,0,0,0,214.48,56.77Z"/><path class="cls-2" d="M243.25,69.46a1,1,0,0,0-.41.29l-1.2,1.2a1.63,1.63,0,0,0-.33.43.27.27,0,0,0,.07.31.25.25,0,0,0,.3.07,1.81,1.81,0,0,0,.43-.36l1.19-1.19c.23-.23.34-.4.32-.51a.28.28,0,0,0-.08-.15A.28.28,0,0,0,243.25,69.46Z"/><path class="cls-2" d="M213,58.21a1.28,1.28,0,0,0-.46.32l-.28.29a1.15,1.15,0,0,0-.3.4.28.28,0,0,0,.1.29.25.25,0,0,0,.29.09,1.53,1.53,0,0,0,.39-.31L213,59q.53-.52.3-.75A.3.3,0,0,0,213,58.21Z"/><path class="cls-2" d="M229.77,58.2l-.31.31a.9.9,0,0,0-.25.34.2.2,0,0,0,.06.23.33.33,0,0,0,.23.11.35.35,0,0,0,.23-.07l1-1a1.43,1.43,0,0,0-.56-.14A.55.55,0,0,0,229.77,58.2Z"/><path class="cls-2" d="M188.22,82.8l-.62.62a1.29,1.29,0,0,0-.31.42.31.31,0,0,0,.1.32.29.29,0,0,0,.29.11,1,1,0,0,0,.39-.28l.33-.33a1.51,1.51,0,0,0,.35-.45.27.27,0,0,0-.06-.3.44.44,0,0,0-.26-.15A.25.25,0,0,0,188.22,82.8Z"/><path class="cls-2" d="M266.32,96.39a1.62,1.62,0,0,0,.45-.34l1.16-1.17c.24-.24.35-.42.32-.55a.3.3,0,0,0-.09-.15.27.27,0,0,0-.3-.07,1.49,1.49,0,0,0-.4.31l-1.2,1.2A1.37,1.37,0,0,0,266,96a.27.27,0,0,0,.07.3A.25.25,0,0,0,266.32,96.39Z"/></svg>