<svg id="Слой_1" data-name="Слой 1" xmlns="http://www.w3.org/2000/svg" xmlns:xlink="http://www.w3.org/1999/xlink" viewBox="0 0 200 100"><defs><style>.cls-1,.cls-6{fill:none;}.cls-2{clip-path:url(#clip-path);}.cls-3{clip-path:url(#clip-path-2);}.cls-4{clip-path:url(#clip-path-3);}.cls-5{clip-path:url(#clip-path-4);}.cls-6{stroke:#fff;stroke-miterlimit:10;stroke-width:0.78px;}.cls-7{clip-path:url(#clip-path-5);}.cls-8{clip-path:url(#clip-path-6);}.cls-9{clip-path:url(#clip-path-7);}.cls-10{fill:#fff;}.cls-11,.cls-12{font-size:34.5px;font-family:ComicSansMS-Bold, Comic Sans MS;font-weight:700;}.cls-11,.cls-13{fill:#f9e010;}.cls-12{fill:#686867;letter-spacing:0.16em;}</style><clipPath id="clip-path"><rect class="cls-1" x="177.24" y="-419.24" width="399.62" height="269.45"/></clipPath><clipPath id="clip-path-2"><rect class="cls-1" x="173.94" y="-536.24" width="981.54" height="521.22"/></clipPath><clipPath id="clip-path-3"><rect class="cls-1" x="-247.07" y="-419.24" width="399.62" height="269.45"/></clipPath><clipPath id="clip-path-4"><rect class="cls-1" x="-250.37" y="-536.24" width="981.54" height="521.22"/></clipPath><clipPath id="clip-path-5"><rect class="cls-1" x="-669.18" y="-419.24" width="399.62" height="269.45"/></clipPath><clipPath id="clip-path-6"><rect class="cls-1" x="-672.47" y="-536.24" width="981.54" height="521.22"/></clipPath><clipPath id="clip-path-7"><rect id="SVGID" class="cls-1" x="-184.68" y="-547.74" width="531.89" height="535.36" transform="translate(162.53 -560.13) rotate(-180)"/></clipPath></defs><g class="cls-4"><g class="cls-5"><polygon class="cls-6" points="182.25 51.17 178.63 51.17 176.81 54.31 178.63 57.45 182.25 57.45 184.06 54.31 182.25 51.17"/></g></g><g class="cls-7"><g class="cls-8"><g class="cls-9"><rect class="cls-10" x="-193.73" y="-129.63" width="585.09" height="136.62" transform="translate(197.64 -122.64) rotate(-180)"/></g><polygon class="cls-6" points="108.21 -10.66 98.73 -10.66 94 -2.46 98.73 5.75 108.21 5.75 112.94 -2.46 108.21 -10.66"/></g></g><rect class="cls-10" x="-7.07" y="-2.28" width="216.72" height="104.56"/><text class="cls-11" transform="translate(5.65 47.32)">biblioteka</text><text class="cls-12" transform="translate(5.65 77.84)">sopocka</text><rect class="cls-13" x="179.94" y="10.06" width="4.75" height="69.95" rx="2.37" transform="translate(-4.94 59.26) rotate(-18.22)"/><rect class="cls-13" x="189.33" y="10.54" width="4.75" height="69.95" rx="2.37" transform="translate(-4.62 62.22) rotate(-18.22)"/></svg>