<svg xmlns="http://www.w3.org/2000/svg" xmlns:xlink="http://www.w3.org/1999/xlink" viewBox="0 0 200 100"><defs><style>.cls-1,.cls-12,.cls-15,.cls-6,.cls-7{fill:none;}.cls-2{isolation:isolate;}.cls-3{clip-path:url(#clip-path);}.cls-4{clip-path:url(#clip-path-2);}.cls-13,.cls-5{fill:#fff;}.cls-12,.cls-13,.cls-15,.cls-16,.cls-6{stroke:#fff;}.cls-12,.cls-13,.cls-15,.cls-16,.cls-6,.cls-7{stroke-miterlimit:10;}.cls-12,.cls-6,.cls-7{stroke-width:0.78px;}.cls-7{stroke:#f1e511;}.cls-8{clip-path:url(#clip-path-3);}.cls-9{clip-path:url(#clip-path-4);}.cls-10{clip-path:url(#clip-path-5);}.cls-11{fill:#f3e600;}.cls-12,.cls-14{opacity:0.5;}.cls-13,.cls-16{stroke-width:1.21px;}.cls-14{mix-blend-mode:soft-light;}.cls-15{stroke-width:20.39px;stroke-dasharray:0.31 6.29;}.cls-16{fill:#9a9999;}.cls-17{fill:#343434;}</style><clipPath id="clip-path"><rect class="cls-1" x="203.89" y="-307.12" width="399.62" height="269.45"/></clipPath><clipPath id="clip-path-2"><rect class="cls-1" x="200.6" y="-424.12" width="981.54" height="521.22"/></clipPath><clipPath id="clip-path-3"><rect class="cls-1" x="-218.21" y="-307.12" width="399.62" height="269.45"/></clipPath><clipPath id="clip-path-4"><rect class="cls-1" x="-221.51" y="-424.12" width="981.54" height="521.22"/></clipPath><clipPath id="clip-path-5"><rect id="SVGID" class="cls-1" x="-537.65" y="-432.99" width="806.99" height="537.99"/></clipPath></defs><g class="cls-2"><g id="Слой_1" data-name="Слой 1"><g class="cls-3"><g class="cls-4"><rect class="cls-5" x="115.68" y="-27.06" width="585.09" height="136.62"/><polygon class="cls-6" points="175.93 50.37 167.23 50.37 162.87 57.91 167.23 65.45 175.93 65.45 180.29 57.91 175.93 50.37"/><circle class="cls-7" cx="236.31" cy="-14.77" r="42.25"/></g></g><g class="cls-8"><g class="cls-9"><rect class="cls-5" x="-306.43" y="-27.06" width="585.09" height="136.62"/><g class="cls-10"><rect class="cls-5" x="-89.27" y="15.35" width="89.65" height="89.65" rx="44.83"/><rect class="cls-5" x="-89.27" y="-74.31" width="89.65" height="89.65"/><rect class="cls-11" x="0.38" y="-74.31" width="89.65" height="89.65"/><path class="cls-5" d="M.38-74.31H90a0,0,0,0,1,0,0V15.35a0,0,0,0,1,0,0h0A89.65,89.65,0,0,1,.38-74.31v0A0,0,0,0,1,.38-74.31Z"/><path class="cls-5" d="M90-74.31h89.65a0,0,0,0,1,0,0v0A89.65,89.65,0,0,1,90,15.35h0a0,0,0,0,1,0,0V-74.31A0,0,0,0,1,90-74.31Z"/></g><path class="cls-5" d="M179.69-74.31h98.78a0,0,0,0,1,0,0V24.48a0,0,0,0,1,0,0h0a98.78,98.78,0,0,1-98.78-98.78v0A0,0,0,0,1,179.69-74.31Z"/><polygon class="cls-6" points="21.91 62.03 16.47 62.03 13.75 66.74 16.47 71.45 21.91 71.45 24.63 66.74 21.91 62.03"/><circle class="cls-6" cx="267.83" cy="-167.16" r="256.96"/><path class="cls-12" d="M59.81,11.91A273.42,273.42,0,0,1-6.64-167.16a274.19,274.19,0,0,1,120.12-227"/><path class="cls-13" d="M268.9,84.08l-.12-12.55A238.06,238.06,0,0,0,373.26,46.14l5.66,11.2A250.7,250.7,0,0,1,268.9,84.08ZM432.15-334.45a234.51,234.51,0,0,0-91.61-55.82l3.92-11.92a246.85,246.85,0,0,1,96.43,58.74l.24.23-8.78,9ZM33.16-91.67a250.8,250.8,0,0,1-8.88-112.87l12.41,1.87A238.09,238.09,0,0,0,45.12-95.48Z"/><g class="cls-14"><path class="cls-15" d="M478-167.16C478-51.09,383.9,43,267.83,43c-278.78-11.07-278.7-409.31,0-420.34C383.9-377.32,478-283.23,478-167.16Z"/></g><circle class="cls-16" cx="60.02" cy="11.91" r="2.35"/></g></g><rect class="cls-5" x="-8.36" y="-2.28" width="216.72" height="104.56"/><path class="cls-17" d="M47.3,29.51A17.71,17.71,0,0,0,30.19,42.66c-.07.26-.13.52-.19.78a17.87,17.87,0,0,0-.06,7.23c0,.18.07.35.11.53A17.7,17.7,0,1,0,47.3,29.51Zm0,30.59A12.89,12.89,0,1,1,60.19,47.21,12.89,12.89,0,0,1,47.3,60.1Z"/><path class="cls-17" d="M19.84,54.58H24.7L32,47.3,24.7,40H10.12L5.37,35.13H27.14L39.28,47.3,27.12,59.45H19.83ZM17.4,59.44v-17H11.34v17Z"/><path class="cls-17" d="M66.06,40l-4.65-4.86h18l7.28,7.29-3.64,3.65H75.78l3.64-3.64L77,40Zm7.28,19.45H67.26v-17h6.08Zm2.43-10.94v4.86h4.86l6.08,6.08H94L83.07,48.54Z"/><path class="cls-17" d="M87.92,59.48V35.17H94v24.3Zm11-14.58,9.72-9.72h7.29L103.73,47.33l12.14,12.16h-7.29l-9.72-9.73H96.43V44.9Z"/><path class="cls-17" d="M46.58,40H39.29l-4.72-4.87H49L73.3,59.47H66ZM40.5,42.44v17h6.08V53.38H57.51l-4.86-4.86H46.57V42.44Z"/><path class="cls-17" d="M126.57,54.58h4.86l7.3-7.28L131.44,40H116.85l-4.75-4.86h21.77L146,47.3,133.86,59.45h-7.29Zm-2.43,4.86v-17h-6.07v17Z"/><path class="cls-17" d="M146,40l-4.68-4.87,33.85,0L170.32,40Zm1.21,19.44H169.1l-4.86-4.86H153.3V49.73h6.07l4.87-4.86H153.31V42.44h-6.08Z"/><path class="cls-17" d="M176.4,35.16V46.1l10.94-10.93h7.29L170.31,59.46l0-24.3Z"/><polygon class="cls-17" points="194.48 45.22 194.48 59.66 180.04 59.66 184.42 55.28 190.1 55.28 190.1 49.6 194.48 45.22"/><path class="cls-17" d="M66.72,65.38v4.9H65.9V64.56h3.68a1.64,1.64,0,0,1,0,3.27h-.65l2.45,2.45H70.22L67,67h2.63a.82.82,0,0,0,.81-.81.78.78,0,0,0-.24-.58.76.76,0,0,0-.57-.24Z"/><path class="cls-17" d="M76.82,64.56v.82H72.74v4.08h4.08v.82h-4.9V64.56Zm0,3.27H73.56V67h3.26Z"/><path class="cls-17" d="M78.46,65.38v4.9h-.82V64.56h4.9v.82Zm4.08,2.45H79.27V67h3.27Z"/><path class="cls-17" d="M83.36,64.56h.82v4.9h4.08v.82h-4.9Z"/><path class="cls-17" d="M93.82,64.56v.82H89.74v4.08h4.08v.82h-4.9V64.56Zm0,3.27H90.56V67h3.26Z"/><path class="cls-17" d="M97.29,64.56h2.45v.82H97.29a2.05,2.05,0,0,0-1.45,3.49,2,2,0,0,0,1.45.59h2.45v.82H97.29a2.86,2.86,0,0,1,0-5.72Z"/><path class="cls-17" d="M105.46,65.38h-4.9v-.82h4.9Zm-2,4.9h-.82V66.2h.82Z"/><path class="cls-17" d="M107.09,70.28h-.81v-.82h.81Z"/><path class="cls-17" d="M112.84,64.56h2.46v.82h-2.46a2,2,0,0,0-1.44,3.49,2,2,0,0,0,1.44.59h1.64V67.83h-1.64V67h2.46v3.27h-2.46a2.86,2.86,0,0,1,0-5.72Z"/><path class="cls-17" d="M117,69.46h2.75v.82h-4.06l3-6.22,3,6.22h-.91l-2.12-4.36Z"/><path class="cls-17" d="M123.06,65.79v4.49h-.82V64.56h.82l2,2,2-2H128v5.72h-.82V65.79l-2,2Z"/><path class="cls-17" d="M129.59,70.28h-.81V64.56h.81Z"/><path class="cls-17" d="M131.23,65.38v4.9h-.82V64.56h4.9v.82Zm4.08,2.45H132V67h3.27Z"/><path class="cls-17" d="M138.15,67.57l-2.55-3h1.07l1.89,2.23,1.89-2.23h1.07l-2.55,3v2.71h-.82Z"/><path class="cls-17" d="M142.85,70.28H142v-.82h.82Z"/><path class="cls-17" d="M145.74,64.56h3.68a1.64,1.64,0,0,1,0,3.27h-2.86v2.45h-.82Zm.82.82V67h2.86a.8.8,0,0,0,.58-.24.79.79,0,0,0,.23-.57.82.82,0,0,0-.23-.58.8.8,0,0,0-.58-.24Z"/><path class="cls-17" d="M152.52,65.38v4.9h-.82V64.56h3.68a1.64,1.64,0,0,1,0,3.27h-.65l2.45,2.45H156L152.75,67h2.63a.82.82,0,0,0,.81-.81.78.78,0,0,0-.24-.58.76.76,0,0,0-.57-.24Z"/><path class="cls-17" d="M160.52,70.49a3.07,3.07,0,0,1-3.06-3.07,3.06,3.06,0,1,1,3.06,3.07Zm0-.82a2.25,2.25,0,1,0-1.59-3.84,2.27,2.27,0,0,0,0,3.18A2.17,2.17,0,0,0,160.52,69.67Z"/><path class="cls-17" d="M167.06,64.56h2.45v.82h-2.45a2,2,0,0,0-2,2,2,2,0,0,0,2,2h1.63V67.83h-1.63V67h2.45v3.27h-2.45a2.86,2.86,0,0,1,0-5.72Z"/><path class="cls-17" d="M171.14,65.38v4.9h-.81V64.56H174a1.64,1.64,0,1,1,0,3.27h-.64l2.45,2.45h-1.16L171.38,67H174a.78.78,0,0,0,.58-.24.76.76,0,0,0,.24-.57.82.82,0,0,0-.82-.82Z"/><path class="cls-17" d="M181.25,64.56v.82h-4.08v4.08h4.08v.82h-4.9V64.56Zm0,3.27H178V67h3.27Z"/><path class="cls-17" d="M183.47,64.56h3.68v.82h-3.68a.82.82,0,0,0-.82.82.76.76,0,0,0,.24.57.78.78,0,0,0,.58.24h2a1.64,1.64,0,0,1,1.64,1.64,1.56,1.56,0,0,1-.48,1.15,1.59,1.59,0,0,1-1.16.48h-3.67v-.82h3.67a.82.82,0,0,0,.58-.23.8.8,0,0,0,.24-.58.82.82,0,0,0-.82-.82h-2a1.59,1.59,0,0,1-1.16-.48,1.65,1.65,0,0,1,0-2.31A1.59,1.59,0,0,1,183.47,64.56Z"/><path class="cls-17" d="M189.26,64.56h3.68v.82h-3.68a.8.8,0,0,0-.58.24.78.78,0,0,0-.24.58.76.76,0,0,0,.24.57.8.8,0,0,0,.58.24h2a1.57,1.57,0,0,1,1.16.48,1.59,1.59,0,0,1,.48,1.16,1.64,1.64,0,0,1-1.64,1.63h-3.67v-.82h3.67a.82.82,0,0,0,.58-.23.8.8,0,0,0,.24-.58.82.82,0,0,0-.82-.82h-2a1.55,1.55,0,0,1-1.15-.48,1.63,1.63,0,0,1,0-2.31A1.55,1.55,0,0,1,189.26,64.56Z"/><path class="cls-17" d="M194.57,70.28h-.82v-.82h.82Z"/></g></g></svg>