<svg id="Слой_1" data-name="Слой 1" xmlns="http://www.w3.org/2000/svg" xmlns:xlink="http://www.w3.org/1999/xlink" viewBox="0 0 200 100"><defs><style>.cls-1{fill:none;}.cls-2{clip-path:url(#clip-path);}.cls-3{clip-path:url(#clip-path-2);}.cls-4{clip-path:url(#clip-path-3);}.cls-5{clip-path:url(#clip-path-4);}.cls-6{fill:#482682;}.cls-7{fill:#fec707;}.cls-8{fill:#fec703;}</style><clipPath id="clip-path"><rect class="cls-1" x="203.89" y="-419.24" width="399.62" height="269.45"/></clipPath><clipPath id="clip-path-2"><rect class="cls-1" x="200.6" y="-536.24" width="981.54" height="521.22"/></clipPath><clipPath id="clip-path-3"><rect class="cls-1" x="-218.21" y="-419.24" width="399.62" height="269.45"/></clipPath><clipPath id="clip-path-4"><rect class="cls-1" x="-221.51" y="-536.24" width="981.54" height="521.22"/></clipPath></defs><rect class="cls-6" x="-3.48" y="-5.45" width="217.14" height="108.49"/><path class="cls-7" d="M53,71.19c-.3.08-.72-.08-1.25-.47a14.75,14.75,0,0,1-1.59-1.33,7.28,7.28,0,0,1-1.22-1.51c-.3-.5-.34-.84-.11-1A74.52,74.52,0,0,1,56,63.77c2.63-1,5.3-1.85,8-2.59-.78-.67-1.11-1.22-1-1.67a93.19,93.19,0,0,1,5.65-9.23q2.91-4.17,6.09-8t6.64-7.68c2.32-2.55,4.76-5.34,7.32-8.34a51.93,51.93,0,0,0-11.91,6,121,121,0,0,0-12.29,9.59c-.26.15-.78.09-1.56-.19a16.29,16.29,0,0,1-2.39-1.11,14.7,14.7,0,0,1-2.08-1.42c-.58-.48-.77-.84-.59-1.06A99.44,99.44,0,0,1,70,28.75a71.79,71.79,0,0,1,12.65-6.5,65.29,65.29,0,0,1,13.52-3.7,72.4,72.4,0,0,1,14.74-.81c.26.07.48.41.66,1a8.72,8.72,0,0,1,.37,1.92,7.23,7.23,0,0,1-.09,1.89c-.11.58-.31.9-.61,1a75.68,75.68,0,0,0-11.57.31,52.21,52.21,0,0,0-10,2.09,3.75,3.75,0,0,1,1.12.64A7.35,7.35,0,0,1,92,27.61a8,8,0,0,1,.81,1.12.92.92,0,0,1,.14.86q-3.51,4.11-6.54,7.73t-5.7,7.17Q78,48.06,75.6,51.75t-4.68,8c.52-.07,1-.12,1.51-.16l1.44-.11c.34,0,.65.31.95.94a11,11,0,0,1,.72,2.14,9.65,9.65,0,0,1,.28,2.23c0,.69-.17,1.06-.5,1.14A74.64,74.64,0,0,0,64,67.38,44.87,44.87,0,0,0,53,71.19Z"/><path class="cls-7" d="M118.65,22c.22-.18.54-.09,1,.28a8.62,8.62,0,0,1,1.25,1.39Q127,22.52,133.8,21.8a116.54,116.54,0,0,1,14.66-.56c.26.08.62.47,1.09,1.17a24.71,24.71,0,0,1,1.3,2.28,13.43,13.43,0,0,1,.92,2.28c.2.71.18,1.08-.08,1.12-3.82-.12-7.27-.14-10.35-.09s-5.92.19-8.54.39-5.06.48-7.34.84-4.5.77-6.65,1.25q-4.17,4.73-8.39,9.76t-8,10.4a108.52,108.52,0,0,0-6.73,11A61.89,61.89,0,0,0,91,73.25c-.15.3-.53.27-1.16-.08a11.66,11.66,0,0,1-2-1.45,12.71,12.71,0,0,1-1.78-1.92c-.5-.66-.69-1.17-.58-1.5A59.45,59.45,0,0,1,89.56,59,88.75,88.75,0,0,1,95,50.17q3-4.34,6.45-8.54t7-8.2c-2.45.74-5,1.58-7.79,2.53s-5.8,1.95-9.18,3a1.81,1.81,0,0,1-1.33-.06A10.68,10.68,0,0,1,88.08,38a22.83,22.83,0,0,1-2.31-1.44,18,18,0,0,1-2-1.7,5.88,5.88,0,0,1-1.22-1.67,1.17,1.17,0,0,1,.14-1.36A53.72,53.72,0,0,0,90.11,31c2.56-.48,5.22-1.08,8-1.78L106.77,27q4.53-1.2,9.54-2.31Z"/><path class="cls-7" d="M114.53,44.11c.19-.23.49-.21.92,0a6,6,0,0,1,1.31,1.14A11.74,11.74,0,0,1,118,46.91a3,3,0,0,1,.53,1.48,4,4,0,0,1-.64,1.22c-.43.67-.94,1.47-1.56,2.39l-2,3q-1.07,1.59-1.92,3c-.58.93-1,1.73-1.39,2.4s-.47,1.07-.36,1.22.4,0,.86-.33a18.27,18.27,0,0,0,1.72-1.64c.69-.73,1.46-1.57,2.31-2.54s1.72-2,2.59-3,1.71-2,2.53-3,1.54-1.85,2.17-2.59c.48-.37.9-.42,1.25-.14s.4.7.14,1.25c-.59.82-1.31,1.79-2.14,2.92s-1.74,2.3-2.7,3.51-2,2.4-3,3.58-2.08,2.24-3.06,3.15a18.47,18.47,0,0,1-2.78,2.17,3.64,3.64,0,0,1-2.25.69,3.91,3.91,0,0,1-1.17-.33,5.54,5.54,0,0,1-1.14-.7,3.8,3.8,0,0,1-.86-.94,1.74,1.74,0,0,1-.28-1.14,11.92,11.92,0,0,1,.8-3.23,38.28,38.28,0,0,1,1.7-3.78q1-1.95,2.17-3.9c.78-1.29,1.51-2.46,2.2-3.5s1.29-1.92,1.83-2.64S114.38,44.29,114.53,44.11Zm5.34-9.29a1.16,1.16,0,0,1,1.28-.17,4.7,4.7,0,0,1,1.56.89,4.06,4.06,0,0,1,1.08,1.39,1,1,0,0,1-.14,1.28c-.29.41-.64.88-1,1.42s-.77,1.1-1.16,1.69-.75,1.19-1.09,1.78a15,15,0,0,0-.83,1.73c-.08.18-.3.21-.67.08a3.14,3.14,0,0,1-1.14-.78,4.44,4.44,0,0,1-1-1.53,3.81,3.81,0,0,1-.13-2.11c.11-.3.26-.68.47-1.14s.44-1,.72-1.47.59-1.05.92-1.59A9.14,9.14,0,0,1,119.87,34.82Z"/><path class="cls-7" d="M140.9,47.72a9.52,9.52,0,0,1-.89,3.42,26.17,26.17,0,0,1-1.84,3.23c-.7,1.05-1.46,2.09-2.25,3.11s-1.53,2-2.2,3a2.77,2.77,0,0,0-.5,1.06c.11.15.4,0,.86-.33a18.18,18.18,0,0,0,1.73-1.64c.68-.73,1.45-1.57,2.3-2.54s1.72-2,2.59-3,1.72-2,2.53-3,1.54-1.85,2.17-2.59a1,1,0,0,1,1.28-.14c.37.28.43.7.17,1.25-.6.82-1.32,1.79-2.17,2.92s-1.77,2.3-2.76,3.51-2,2.4-3,3.58a42.16,42.16,0,0,1-3,3.15,18.47,18.47,0,0,1-2.78,2.17,3.64,3.64,0,0,1-2.25.69,3.77,3.77,0,0,1-1.23-.39,7.69,7.69,0,0,1-1.25-.78,4.37,4.37,0,0,1-1-1,1.7,1.7,0,0,1-.33-1.17,6.6,6.6,0,0,1,.58-2.28,24,24,0,0,1,1.31-2.56A33.25,33.25,0,0,1,131.27,54a30.43,30.43,0,0,0,2.23-3.31c.37-.63.66-1.16.86-1.59s.27-.69.19-.8-.41-.05-.91.3a18.89,18.89,0,0,0-1.87,1.59c-.74.7-1.56,1.53-2.47,2.47s-1.83,1.92-2.75,2.92-1.83,2-2.7,2.95-1.62,1.82-2.26,2.56c-.74,1.22-1.33,2.27-1.78,3.14a8.54,8.54,0,0,1-.94,1.59c-.19.22-.48.21-.89,0a4.76,4.76,0,0,1-1.22-1.08,9.92,9.92,0,0,1-1.09-1.59,3.26,3.26,0,0,1-.47-1.47,4,4,0,0,1,.53-1.39c.35-.71.79-1.54,1.33-2.51s1.13-2,1.78-3.11,1.28-2.18,1.89-3.2l1.62-2.73,1-1.75.92-1.75c.21-.39.4-.73.59-1v.06c.18-.26.49-.26.91,0a5.55,5.55,0,0,1,1.28,1.11,8.4,8.4,0,0,1,1.12,1.61,2.81,2.81,0,0,1,.41,1.5.82.82,0,0,1-.22.45l-.47.55-.5.56a4.09,4.09,0,0,1-.31.33c-.3.49-.55.91-.75,1.28l-.58,1.06c.92-1.11,1.88-2.21,2.86-3.28a40,40,0,0,1,2.84-2.84A16.53,16.53,0,0,1,134,44.63a3.44,3.44,0,0,1,2.08-.58,7.91,7.91,0,0,1,1.39.44,8.63,8.63,0,0,1,1.59.84,6.55,6.55,0,0,1,1.31,1.14A1.71,1.71,0,0,1,140.9,47.72Z"/><path class="cls-7" d="M165.26,55.4a67.42,67.42,0,0,1-6.09,5.89q-3,2.51-6.09,4.79c-.63,1-1.32,2.17-2.06,3.42s-1.54,2.62-2.39,4.14c-.63,1.11-1.16,2-1.59,2.78s-.81,1.36-1.14,1.86a13.14,13.14,0,0,1-1,1.31q-.48.55-1.14,1.23a7.86,7.86,0,0,1-3,1.44,3.49,3.49,0,0,1-2.2-.22,3.11,3.11,0,0,1-1.39-1.45,5.69,5.69,0,0,1-.59-2.19,7.9,7.9,0,0,1,.25-2.48,7,7,0,0,1,1.06-2.28,17,17,0,0,1,4-4.17,58.78,58.78,0,0,1,5-3.23c.37-.63.73-1.27,1.09-1.92s.69-1.28,1-1.92c-.34.3-.72.64-1.14,1s-.87.75-1.31,1.09a11.17,11.17,0,0,1-1.34.86,3.36,3.36,0,0,1-1.16.42,2.72,2.72,0,0,1-1.26-.09,4.57,4.57,0,0,1-1.14-.52,9.1,9.1,0,0,1-2.39-1.92,4,4,0,0,1-1.05-2.7,10.14,10.14,0,0,1,.77-3.39,23.89,23.89,0,0,1,1.9-3.73,25,25,0,0,1,2.72-3.64,24.28,24.28,0,0,1,3.28-3.09,15.92,15.92,0,0,1,3.59-2.11,7.85,7.85,0,0,1,3.59-.67,5.14,5.14,0,0,1,2.08.55A9.71,9.71,0,0,1,158,45.77a5.37,5.37,0,0,1,.89,1.34L160,45.88c.15-.22.45-.2.89.06a5.65,5.65,0,0,1,1.34,1.14,10.14,10.14,0,0,1,1.17,1.64,3.32,3.32,0,0,1,.5,1.5,6.53,6.53,0,0,1-.7,1.06c-.39.52-.86,1.14-1.42,1.86s-1.14,1.51-1.75,2.34-1.18,1.64-1.7,2.42a5.15,5.15,0,0,1-.5.75,9.47,9.47,0,0,0-.55.81l-.17.27a66.14,66.14,0,0,0,6.73-5.89q2.4-2.4,4.84-5.34c.48-.37.9-.42,1.25-.14s.4.7.14,1.25c-.52.74-1.2,1.62-2.06,2.64S166.22,54.32,165.26,55.4Zm-26.87,24c.22.14.56-.06,1-.62s1.06-1.39,1.84-2.5L143,73.42l-1.33,1.11a14.57,14.57,0,0,0-1.5,1.2,12,12,0,0,0-1.37,1.41,3.83,3.83,0,0,0-.75,1.34A.78.78,0,0,0,138.39,79.43Zm6-16.86a2.94,2.94,0,0,0,1.22-.58c.6-.39,1.29-.89,2.09-1.5s1.64-1.3,2.53-2.06,1.74-1.51,2.56-2.25l1.61-2.73a3.32,3.32,0,0,1-1.19,0c-.28-.07-.27-.22,0-.45a8.6,8.6,0,0,0,1.2-1.19,21.22,21.22,0,0,0,1.36-1.75,6.15,6.15,0,0,0,.84-1.62c.14-.48,0-.76-.34-.83a4.1,4.1,0,0,0-2.47,1,25,25,0,0,0-3.37,2.84,42.47,42.47,0,0,0-3.25,3.58,15.82,15.82,0,0,0-2.14,3.23c-.19.37-.4.81-.64,1.33a10.39,10.39,0,0,0-.56,1.45,2.78,2.78,0,0,0-.14,1.11C143.77,62.48,144,62.61,144.4,62.57Z"/><path class="cls-7" d="M188.67,51.06l-1.39,1.56c-.85,1-1.74,1.91-2.67,2.83a16.24,16.24,0,0,1-3.11,2.45l-1.28.81a2.8,2.8,0,0,1-1.39.52,1.61,1.61,0,0,1-.53,0c-.17,0-.34,0-.53-.08A23,23,0,0,1,176,61.1a15.41,15.41,0,0,1-2,1.64l-1.22.83a18.1,18.1,0,0,1-1.59,1,17.42,17.42,0,0,1-1.75.83,5.57,5.57,0,0,1-1.61.42,3.71,3.71,0,0,1-2.45-.61A8.94,8.94,0,0,1,163,63.27a3.72,3.72,0,0,1-1-2.7,12.28,12.28,0,0,1,1.55-5.26,26.6,26.6,0,0,1,3.79-5.5,22,22,0,0,1,5.06-4.29,9.49,9.49,0,0,1,5.39-1.58,5.12,5.12,0,0,1,2.12.55,9.78,9.78,0,0,1,1.83,1.28,4.48,4.48,0,0,1,1.11,1.7,2.46,2.46,0,0,1,0,1.47,2.27,2.27,0,0,1,.31,1.67A5.16,5.16,0,0,1,182.06,53c-.52.67-1,1.23-1.34,1.7s-.64.81-.81,1.05-.2.38-.11.42.34-.06.75-.28a9.82,9.82,0,0,0,1.51-1c.55-.43,1.14-.92,1.75-1.48s1.21-1.14,1.8-1.75,1.15-1.19,1.67-1.75l1.23-1.39a1,1,0,0,1,1.28-.14c.37.28.42.7.16,1.25ZM168.09,62.57a2.46,2.46,0,0,0,1.48,0,8.41,8.41,0,0,0,2-.8,18.65,18.65,0,0,0,2.23-1.48A25.15,25.15,0,0,0,176,58.4a3.88,3.88,0,0,1-1.25-2.5,4.89,4.89,0,0,1,.64-3.06,5.54,5.54,0,0,1,.83-1.17,12.45,12.45,0,0,1,1.23-1.17,12.2,12.2,0,0,1,1.39-1,6.51,6.51,0,0,1,1.39-.67c.3-.7.22-1.11-.22-1.22a4.12,4.12,0,0,0-2.48,1,25.64,25.64,0,0,0-3.36,2.84,42.59,42.59,0,0,0-3.26,3.58,16.25,16.25,0,0,0-2.14,3.23c-.18.37-.39.78-.61,1.22a9.43,9.43,0,0,0-.53,1.28,2.31,2.31,0,0,0-.11,1.11A.8.8,0,0,0,168.09,62.57Z"/><path class="cls-8" d="M40.78,57.46H32.86V45.54c0-1.22-.51-1.82-1.5-1.82s-1.49.6-1.49,1.82V57.46H22V45.67a9.65,9.65,0,0,1,2.73-7,9,9,0,0,1,6.68-2.8,8.93,8.93,0,0,1,7.26,3.29c1.43,1.7,2.14,4.09,2.14,7.14V57.46Z"/><path class="cls-8" d="M31.71,21a10.44,10.44,0,0,1,7.69,3.24A10.61,10.61,0,0,1,42.62,32a10.49,10.49,0,0,1-3.26,7.79A10.79,10.79,0,0,1,31.5,43a10.75,10.75,0,0,1-7.83-3.24A10.46,10.46,0,0,1,20.41,32a10.42,10.42,0,0,1,3.26-7.81A11.11,11.11,0,0,1,31.71,21Zm-.21,7.81a2.87,2.87,0,0,0-2.16.92A3.09,3.09,0,0,0,28.45,32a3.12,3.12,0,0,0,.89,2.25,3,3,0,0,0,4.32,0,3.13,3.13,0,0,0,.9-2.25,3.1,3.1,0,0,0-.9-2.25A2.9,2.9,0,0,0,31.5,28.79Z"/><path class="cls-8" d="M45.08,40.71a3.82,3.82,0,0,1,1.12-2.78,3.78,3.78,0,0,1,5.4-.07,4.36,4.36,0,0,1,0,5.7,3.58,3.58,0,0,1-2.71,1.1,3.64,3.64,0,0,1-2.69-1.17A3.94,3.94,0,0,1,45.08,40.71Z"/><path class="cls-8" d="M9.89,40.71A3.82,3.82,0,0,1,11,37.93a3.78,3.78,0,0,1,5.4-.07,4.36,4.36,0,0,1,0,5.7,3.58,3.58,0,0,1-2.71,1.1A3.64,3.64,0,0,1,11,43.49,3.94,3.94,0,0,1,9.89,40.71Z"/><path class="cls-8" d="M44.41,66.92H18.32V59.16H44.41Z"/></svg>