<svg id="Слой_1" data-name="Слой 1" xmlns="http://www.w3.org/2000/svg" xmlns:xlink="http://www.w3.org/1999/xlink" viewBox="0 0 200 100"><defs><style>.cls-1,.cls-6{fill:none;}.cls-2{clip-path:url(#clip-path);}.cls-3{clip-path:url(#clip-path-2);}.cls-4{clip-path:url(#clip-path-3);}.cls-5{clip-path:url(#clip-path-4);}.cls-6{stroke:#fff;stroke-miterlimit:10;stroke-width:0.78px;}.cls-7{clip-path:url(#clip-path-5);}.cls-8{clip-path:url(#clip-path-6);}.cls-9{clip-path:url(#clip-path-7);}.cls-10{fill:#fff;}.cls-11{fill:#f3c322;}.cls-12{fill:#1a94c9;}.cls-13{fill:#1d94c9;}.cls-14{fill:#1f95c9;}.cls-15{fill:#1994c9;}.cls-16{fill:#1b94c9;}</style><clipPath id="clip-path"><rect class="cls-1" x="399.01" y="-419.24" width="399.62" height="269.45"/></clipPath><clipPath id="clip-path-2"><rect class="cls-1" x="395.71" y="-536.24" width="981.54" height="521.22"/></clipPath><clipPath id="clip-path-3"><rect class="cls-1" x="-25.3" y="-419.24" width="399.62" height="269.45"/></clipPath><clipPath id="clip-path-4"><rect class="cls-1" x="-28.6" y="-536.24" width="981.54" height="521.22"/></clipPath><clipPath id="clip-path-5"><rect class="cls-1" x="-447.4" y="-419.24" width="399.62" height="269.45"/></clipPath><clipPath id="clip-path-6"><rect class="cls-1" x="-450.7" y="-536.24" width="981.54" height="521.22"/></clipPath><clipPath id="clip-path-7"><rect id="SVGID" class="cls-1" x="37.09" y="-547.74" width="531.89" height="535.36" transform="translate(606.07 -560.13) rotate(-180)"/></clipPath></defs><g class="cls-4"><g class="cls-5"><polygon class="cls-6" points="127.83 44.8 124.32 44.8 122.57 47.83 124.32 50.87 127.83 50.87 129.59 47.83 127.83 44.8"/></g></g><g class="cls-7"><g class="cls-8"><g class="cls-9"><rect class="cls-10" x="28.04" y="-129.63" width="585.09" height="136.62" transform="translate(641.18 -122.64) rotate(-180)"/></g><polygon class="cls-6" points="132.37 37.62 120.58 37.62 114.68 47.83 120.58 58.05 132.37 58.05 138.27 47.83 132.37 37.62"/></g></g><rect class="cls-10" x="-7.07" y="-2.28" width="216.72" height="104.56"/><path class="cls-11" d="M136.65,5l16.45,1.6.06.65C134.4,14,117.82,24.19,104,38.81a62.6,62.6,0,0,0-18.61-14.4C78.41,21,71.17,18,64.16,14.94A157.37,157.37,0,0,1,112.6,5L114,5h1.86l2.86-.41h9.89l4.27.41h3.74Z"/><path class="cls-12" d="M88.06,95.28a2.42,2.42,0,0,1-2-.22c-1.6-1.31.55-5.83,2.8-12.75,2.11-6.49,3.07-11.86,3.79-14.42,1.25-4.44,1.8-9.07,2.65-13.62.28-1.54.53-3.09,1-4.59a12.49,12.49,0,0,1,1.45-3.42c1.33-2,10.74.46,12.24.6A5.91,5.91,0,0,1,115.17,54c-1.59,9.76-6.48,17-15.91,20.69a6.52,6.52,0,0,0-3.84,4.16c-1.57,4.42-3.2,8.82-4.85,13.2A29,29,0,0,1,89.11,95Z"/><path class="cls-13" d="M38.45,29a10.82,10.82,0,0,1,1.69-3.39c2-2.91,3.48-4.73,6-6.5s5.55-1.88,8.52-1.75a1.81,1.81,0,0,1,1.18,1,7.35,7.35,0,0,1,.69,2.46c.18,2-1.16,8.36-5.85,10.18-1.07.41-2.83.78-3.42.06s.18-2-.48-2.46a1.06,1.06,0,0,0-1.13.06,1,1,0,0,0-.33.46,7.38,7.38,0,0,0-.19,4.62,7.42,7.42,0,0,0,2.57,3.44c4.9,4,9.36,8.35,12.09,14.19,3.36,7.14,1.72,14.88-4.7,19.49-3.85,2.75-8.22,4.78-12.43,7a2.66,2.66,0,0,1-1.93.5,2,2,0,0,1-1.05-.73,1,1,0,0,1-.1-.37c-.06-.91,1.17-1.7,3.31-2.86,1.14-.62,2.59-1.38,4.32-2.2.89-.44,1.61-.85,2.13-1.16a20.84,20.84,0,0,0,5.46-4.37A10.89,10.89,0,0,0,56,64.89a5.37,5.37,0,0,0,.56-1.54,5.24,5.24,0,0,0,.09-1.07,15.57,15.57,0,0,0-.15-2.18,21.8,21.8,0,0,0-2.78-7.25,69.61,69.61,0,0,0-6.59-7c-2.08-2.12-4.33-4.08-6.24-6.33a7.2,7.2,0,0,1-.68-1,18.37,18.37,0,0,1-1.62-3.19c-.15-.71-.29-1.41-.43-2.11l-.09-1.86A10.32,10.32,0,0,1,38.45,29Z"/><path class="cls-14" d="M161.31,34.19c-1.68.55-2.94.91-3.83,1.16a3.57,3.57,0,0,0-1.95,1,3,3,0,0,0-.67,1.46c-1.77,9.3-3.19,20.5-3.19,20.5a18.33,18.33,0,0,0-.36,4.07,42.26,42.26,0,0,1,.15,5.69c-.05.88-1,1.47-1.65.58a15,15,0,0,1-2.35-4c-1.11-4.84,0-13.84.12-15,.13-1,.52-3.83,1.29-9.5.2-1.45.39-2.79.54-3.9l-3.27.39a2.08,2.08,0,0,1-1.66-.21,1.72,1.72,0,0,1-.52-1c-.23-1.35.79-1.8,1.8-2a25.25,25.25,0,0,1,3-.28c1.43-.13,1.82-.93,2-2.34.61-4.47,1.72-8.86,2.33-13.33.36-2.71.68-4.69,2-5.19a2.25,2.25,0,0,1,1.48,0c2.69.89,3.69,2.42,3.12,5.51-.7,3.83-1.74,7.59-2.61,11.39-.2.91-.28,1.84-.42,2.78l4.88.84a.78.78,0,0,1,.36.68A.75.75,0,0,1,161.31,34.19Z"/><path class="cls-15" d="M86.16,58.2c-2.22,3.84-4.11,7.91-6.72,11.45-3.16,4.28-7.58,4.28-11.31.71-1.55-1.49-1.68-3.35-1.47-5.2a24.89,24.89,0,0,1,8.21-15.37,10.08,10.08,0,0,1,4-2.17,7.36,7.36,0,0,1,5.39.43,6.89,6.89,0,0,1,2.24,2.07,7,7,0,0,1,1.06,2.4A10.92,10.92,0,0,1,87.35,55,11.16,11.16,0,0,1,86.16,58.2Z"/><path class="cls-16" d="M139.4,50.47c-.08.53-.23,1.32-.47,2.26a30.66,30.66,0,0,1-2.17,5.62,25.43,25.43,0,0,1-2,3.74,20.49,20.49,0,0,1-6.28,5.82c-1.59,1-3.41,1.86-5.27.64-2.06-1.35-3.71-2.86-3.47-5.82a25.57,25.57,0,0,1,1.09-5.61,20,20,0,0,1,4.47-8.31A18,18,0,0,1,128.63,46a12.46,12.46,0,0,1,3.36-.54,12.61,12.61,0,0,1,4.85.87,4.7,4.7,0,0,1,1.72,1.53A4.84,4.84,0,0,1,139.4,50.47Z"/></svg>