<?xml version="1.0" encoding="utf-8"?>
<!-- Generator: Adobe Illustrator 26.0.3, SVG Export Plug-In . SVG Version: 6.00 Build 0)  -->
<svg version="1.1" id="Слой_1" xmlns="http://www.w3.org/2000/svg" xmlns:xlink="http://www.w3.org/1999/xlink" x="0px" y="0px"
	 viewBox="0 0 200 100" style="enable-background:new 0 0 200 100;" xml:space="preserve">
<style type="text/css">
	.st0{fill:#FFFFFF;}
</style>
<rect x="-1.7" y="-3.1" class="st0" width="208.3" height="107.7"/>
<g>
	<path d="M18.5,36.3c0,0.7-0.1,1.2-0.1,1.9c-1.6,0.1-3.1,0.1-4.7,0c0-9.6,0-19.2,0-28.9c1.6-0.1,3.2,0,4.9,0c0,3.4,0,6.7,0,10.1
		c0.3-0.2,0.5-0.3,0.7-0.4c3.2-2.2,6.7-2.1,10.1-0.7c1.8,0.8,3,2.3,3.5,4.1c1,3.6,1,7.2,0,10.8c-0.6,2.1-1.9,3.7-4,4.5
		c-2.9,1.1-5.9,1.2-8.7-0.3C19.6,37.2,19.1,36.7,18.5,36.3z M18.4,28.1c0.2,1.2,0.3,2.6,0.7,3.9c0.5,1.6,1.7,2.4,3.3,2.6
		c0.5,0.1,1.1,0.1,1.6,0.1c2.2-0.1,3.6-1.2,4.2-3.4c0.5-2,0.5-4,0.2-5.9c-0.5-3.3-2.1-4.5-5.5-4.3c-2.1,0.1-3.5,1.2-4,3.2
		C18.7,25.5,18.6,26.7,18.4,28.1z"/>
	<path d="M58.5,36.4c-0.1,0.5-0.2,1.1-0.3,1.7c-1.5,0-3,0-4.5,0c0-9.6,0-19.1,0-28.8c1.5,0,3.1,0,4.8,0c0,3.3,0,6.6,0,9.9
		c0.2,0,0.3,0,0.4-0.1C61.8,17,65,17,68.4,18c2.2,0.6,3.6,2.2,4.3,4.3c0.8,2.5,0.9,5.1,0.7,7.7c-0.1,1.2-0.3,2.3-0.6,3.5
		c-0.6,2.3-2.2,3.9-4.5,4.6c-2.2,0.7-4.4,0.8-6.6,0.1C60.5,37.7,59.5,37,58.5,36.4C58.4,36.4,58.4,36.4,58.5,36.4
		C58.4,36.4,58.5,36.4,58.5,36.4z M68.5,27.9L68.5,27.9c-0.1-0.6-0.1-1.2-0.1-1.8c-0.2-3.7-2-5.2-5.7-5c-2,0.2-3.4,1.3-3.9,3.2
		c-0.5,2.3-0.5,4.7,0,7c0.4,1.9,1.8,3.1,3.8,3.2c0.5,0,0.9,0,1.4,0c2.3-0.1,3.6-1.2,4.1-3.4C68.4,30.2,68.4,29.1,68.5,27.9z"/>
	<path d="M172.3,83.6c-1.3-0.1-2.1-0.8-2.5-1.9c-0.5-1.4-1.1-2.8-1.6-4.1c-3.9-10-7.7-19.9-11.6-29.9c-3.7-9.5-7.4-18.9-11.1-28.3
		c-0.7-1.7-1.3-3.5-2-5.2c-0.2-0.6-0.3-1.2,0.2-1.6c0.5-0.5,1.1-0.3,1.7-0.1c0.8,0.3,1.3,1,1.7,1.8c1.3,3.4,2.6,6.8,4,10.2
		c3.1,8.1,6.3,16.1,9.4,24.2c2.8,7.3,5.7,14.6,8.5,21.9c1.4,3.7,2.8,7.3,4.3,11c0.1,0.2,0.2,0.5,0.3,0.7
		C173.6,82.9,173.1,83.6,172.3,83.6z"/>
	<path d="M185.1,83.6c-1.3-0.2-2-0.9-2.5-2c-1.1-2.8-2.2-5.6-3.3-8.4c-2.3-5.9-4.6-11.8-6.9-17.7c-2-5.3-4.1-10.6-6.2-15.8
		c-2.9-7.4-5.8-14.8-8.7-22.2c-0.4-1.1-0.9-2.3-1.3-3.4c-0.2-0.6-0.3-1.1,0.2-1.5c0.5-0.5,1.1-0.4,1.7-0.2c0.9,0.3,1.4,1,1.8,1.9
		c1.4,3.5,2.7,7.1,4.1,10.6c2,5.2,4,10.3,6,15.5c2.2,5.7,4.5,11.5,6.7,17.3c2.3,5.9,4.6,11.9,6.9,17.8c0.8,2.1,1.7,4.3,2.5,6.4
		C186.6,82.8,186.1,83.6,185.1,83.6z"/>
	<path d="M128,28c-0.2,1.5-0.3,3-0.6,4.4c-0.8,2.9-2.8,4.7-5.6,5.6c-2.6,0.9-5.3,0.9-8,0c-3.4-1.2-5.5-3.5-5.9-7.2
		c-0.2-2-0.2-4,0.1-6.1c0.5-3.1,2.2-5.2,5-6.4c3.1-1.3,6.4-1.3,9.5,0c3.4,1.4,5.1,4,5.3,7.7c0,0.7,0,1.4,0,2
		C127.8,27.9,127.9,27.9,128,28z M112.4,27.9c0.1,1.1,0.2,2.2,0.5,3.3c0.3,1.4,1.2,2.4,2.5,3c1.6,0.7,3.2,0.6,4.8-0.1
		c1.3-0.6,2.1-1.6,2.4-2.9c0.5-2.2,0.5-4.5,0-6.7c-0.4-1.9-1.9-3.2-3.8-3.4c-0.6-0.1-1.3-0.1-1.9,0c-2.2,0.2-3.6,1.4-4.1,3.6
		C112.6,25.8,112.6,26.8,112.4,27.9z"/>
	<path d="M120.3,67.2c-1.5,0-2.8,0-4.1,0c-0.5,0-0.7-0.4-1-0.7c-1.3-1.8-2.6-3.6-3.8-5.4c-0.2-0.3-0.4-0.5-0.7-0.9
		c-0.8,0.8-1.6,1.5-2.3,2.2c-0.2,0.3-0.3,0.8-0.3,1.2c0,1.1,0,2.3,0,3.5c-1.3,0-2.4,0-3.5,0c-0.3-0.9-0.3-19.3-0.1-21.4
		c1.1,0,2.3,0,3.6,0c0,4.3,0,8.6,0,13.1c0.5-0.4,0.8-0.7,1-0.9c1.6-1.6,3.2-3.2,4.8-4.9c0.7-0.8,1.5-1.3,2.6-1.1
		c0.9,0.1,1.7,0,2.6,0c0,0.1,0.1,0.2,0.1,0.3c-2,1.9-3.9,3.8-6,5.8C115.6,61,117.9,64,120.3,67.2z"/>
	<path d="M89.9,34.7c0,1.3,0,2.3,0,3.5c-2.4,0.1-4.8,0.4-7-0.9c-1.5-0.9-2.3-2.2-2.5-3.9c-0.1-0.4,0-0.8,0-1.3c0-7.2,0-14.4,0-21.6
		c0-0.4,0-0.7,0-1.2c1.6,0,3.2,0,4.9,0c0,0.5,0,0.9,0,1.4c0,6.9,0,13.9,0,20.8c0,2.6,0.5,3.1,3.1,3.1C88.8,34.7,89.3,34.7,89.9,34.7
		z"/>
	<path d="M140.3,58.2c0.4-2.4-0.5-3.6-2.7-3.8c-0.7,0-1.4,0-2.2,0c-1,0.1-1.3,0.2-2.9,1.3c-0.7-0.6-1.5-1.2-2.3-1.8
		c0.8-1,1.8-1.6,2.9-1.8c2.7-0.7,5.4-0.7,8.1,0.4c1.6,0.6,2.7,1.9,2.8,3.6c0.1,3.6,0,7.3,0,11c-1.1,0.3-2.3,0.1-3.4,0.1
		c-0.1-0.4-0.2-0.6-0.3-1c-0.2,0.1-0.5,0.2-0.7,0.3c-2.6,1.4-5.3,1.3-7.9,0.1c-1.7-0.8-2.4-2.3-2.3-4.2c0.1-1.7,1.1-2.9,2.7-3.5
		c1-0.4,2.1-0.5,3.2-0.6c1.2-0.1,2.4,0,3.7,0C139.5,58.3,139.9,58.2,140.3,58.2z M140.4,60.6c-1.8,0-3.5,0-5.3,0
		c-0.2,0-0.3,0.1-0.5,0.1c-1.1,0.3-1.6,1-1.5,2c0,1,0.5,1.6,1.6,1.8c0.8,0.2,1.7,0.2,2.5,0.2c2.6-0.2,3.4-1.3,3.3-3.5
		C140.4,61.1,140.4,60.9,140.4,60.6z"/>
	<path d="M92.7,60.5c-3.9,0-7.7,0-11.5,0c0,2.3,1.2,3.8,3.3,4.1c2,0.2,3.9,0.1,5.5-1.5c0.8,0.6,1.5,1.2,2.2,1.8
		c-0.8,1-1.8,1.6-3,1.9c-2.4,0.8-4.9,0.8-7.4,0c-2.2-0.7-3.6-2.3-4.2-4.6c-0.4-1.4-0.4-2.8-0.2-4.2c0.8-5.1,4.6-6.7,8.5-6.4
		c3,0.3,5.2,1.7,6.3,4.6C92.9,57.6,92.8,59,92.7,60.5z M81.3,58.1c1.2,0.2,6.9,0.2,7.9,0c-0.1-2.4-1.7-3.9-4.1-3.8
		C82.6,54.4,81,56.1,81.3,58.1z"/>
	<path d="M45.2,38.2c-1.6,0-3.1,0-4.7,0c0-6.8,0-13.6,0-20.5c1.5-0.1,3.1,0,4.6,0C45.4,18.6,45.5,36.5,45.2,38.2z"/>
	<path d="M100.5,38.2c-1.6,0-3.1,0-4.7,0c0-6.8,0-13.6,0-20.5c0.8,0,1.5,0,2.3-0.1c0.8,0,1.5,0,2.2,0
		C100.7,18.6,100.8,36.4,100.5,38.2z"/>
	<path d="M59.9,54.6c-0.7-0.1-1.2-0.1-1.9-0.2c0-0.7,0-1.4,0-2.2c0.6,0,1.2-0.1,1.9-0.1c0-1.5,0-2.9,0-4.4c1.3-0.3,2.4-0.1,3.7-0.2
		c0,1.5,0,3,0,4.6c1.2,0,2.3,0,3.4,0c0,0.9,0,1.5,0,2.4c-1.1,0-2.2,0-3.3,0c-0.1,0.4-0.1,0.8-0.1,1.1c0,2.2,0,4.5,0,6.7
		c0,1.7,0.5,2.2,2.2,2.2c0.4,0,0.7,0,1.2,0.1c0,0.8,0,1.6,0,2.5c-1.3,0.1-2.6,0.2-3.8-0.1c-2-0.5-3.2-2-3.2-4.1c0-2.3,0-4.7,0-7
		C59.9,55.5,59.9,55.1,59.9,54.6z"/>
	<path d="M69.3,87.4c-0.1,1.2-0.1,2.2-0.2,3.3c-0.5,0-0.9,0-1.4,0.1c0-3.3,0-6.4,0-9.6c0.7-0.3,1.2-0.2,1.7,0.4
		c0.8-0.6,1.7-0.7,2.7-0.6c1.2,0.2,1.9,0.8,2.1,1.9c0.1,0.9,0.2,1.8,0.1,2.7c-0.2,2.4-2.3,2.7-3.9,2.3C70,87.7,69.7,87.6,69.3,87.4z
		 M72.8,84.4c0-0.2,0-0.5,0-0.8c-0.1-1-0.6-1.4-1.6-1.5c-1,0-1.6,0.4-1.8,1.2c-0.1,0.7-0.1,1.4,0,2.1c0.2,1,0.8,1.4,1.9,1.3
		c0.9-0.1,1.3-0.5,1.5-1.6C72.8,84.9,72.8,84.7,72.8,84.4z"/>
	<path d="M100.1,78.2c0.6,0,1,0,1.5,0c0,2,0,3.9,0,5.8c0.1,0,0.2,0.1,0.3,0.1c0.8-0.8,1.6-1.5,2.3-2.3c0.7-0.7,1.4-1,2.5-0.7
		c-0.9,0.9-1.7,1.7-2.6,2.6c1,1.4,2,2.7,3,4.1c-1.5,0.4-1.6,0.4-2.4-0.7c-0.5-0.7-1.1-1.5-1.6-2.2c-1.5,0.5-1.5,1.8-1.4,3.1
		c-0.5,0-0.9,0.1-1.4,0.1C100,84.7,100.2,81.5,100.1,78.2z"/>
	<path d="M115.6,83.7c0.1-1.9-1.2-2.3-3.8-1.1c-0.2-0.2-0.4-0.5-0.7-0.7c1.4-1.1,3.9-1.3,5.2-0.5c0.7,0.4,1,1,1.1,1.8
		c0.1,1.6,0,3.1,0,4.7c-0.7,0.3-1.3,0.2-1.8-0.3c-0.9,0.6-1.9,0.6-2.9,0.5c-1.2-0.1-1.9-0.9-1.9-2c0-1,0.3-1.5,1.3-1.8
		c0.5-0.2,1.1-0.2,1.6-0.2s1.1,0,1.6-0.1C115.3,83.9,115.4,83.8,115.6,83.7z M115.5,84.9c-0.9,0-1.7-0.1-2.5,0s-1.1,1-0.6,1.5
		c0.4,0.5,1.7,0.6,2.5,0.2C115.6,86.4,115.7,86.1,115.5,84.9z"/>
	<path d="M85.4,84.5c0.1,1.4-0.3,2.5-1.7,3.1c-1.3,0.6-2.6,0.6-3.8-0.3c-0.4-0.3-0.8-0.8-1-1.2c-0.4-0.9-0.4-1.9-0.2-2.9
		c0.4-1.7,1.7-2.5,3.7-2.4c1.7,0.1,2.9,1.2,3,2.8C85.4,84,85.4,84.2,85.4,84.5z M83.9,84.4c0-1.3-0.4-2-1.2-2.3
		c-1.1-0.4-2.1,0.1-2.4,1.2c-0.5,1.6,0,3,1.1,3.3c0.1,0,0.2,0,0.2,0C83.1,87,83.8,86.1,83.9,84.4z"/>
	<path d="M63.1,84.5c0,2.8-2.6,4.4-5.1,3.1c-0.9-0.4-1.5-1.1-1.6-2.1c0-0.5-0.1-1-0.1-1.5c0.2-2.1,1.4-3.1,3.6-3.1
		C62,81,63,82,63.1,84.2C63.1,84.3,63.1,84.4,63.1,84.5z M57.9,84.5L57.9,84.5c0,0.1,0,0.3,0,0.4c0.1,1.3,0.6,1.9,1.7,1.9
		c1.2,0.1,1.8-0.5,1.9-1.8c0-0.5,0-0.9,0-1.4c-0.2-1-0.8-1.5-1.9-1.5c-1,0-1.6,0.6-1.7,1.6C57.9,84,57.9,84.2,57.9,84.5z"/>
	<path d="M51.8,81.6c-0.4,0.8-0.9,0.8-1.5,0.6c-0.6-0.2-1.3-0.1-2-0.1c-0.4,0-0.8,0.3-0.8,0.8s0.4,0.7,0.8,0.8
		c0.5,0.1,1.1,0.1,1.6,0.2c0.4,0.1,0.8,0.1,1.2,0.3c1.3,0.5,1.6,2.1,0.6,3c-0.2,0.2-0.5,0.3-0.8,0.5c-1.5,0.7-3.8,0.5-5.3-0.6
		c0.3-0.3,0.5-0.5,0.8-0.7c0.7,0.2,1.4,0.5,2,0.5c0.5,0.1,1.1,0,1.6-0.2c0.4-0.1,0.8-0.4,0.7-0.9c0-0.5-0.4-0.7-0.9-0.8
		c-0.4-0.1-0.8-0.1-1.3-0.1c-0.5-0.1-1-0.1-1.5-0.3c-0.6-0.2-1.1-0.6-1.2-1.3c-0.1-0.7,0.1-1.4,0.7-1.8c0.4-0.2,0.8-0.5,1.3-0.5
		C49.3,80.8,50.6,80.8,51.8,81.6z"/>
	<path d="M45.5,9.3c0,1.5,0,2.8,0,4.2c-1.7,0-3.4,0-5.1,0c0-1.4,0-2.8,0-4.2C42.1,9.3,43.7,9.3,45.5,9.3z"/>
	<path d="M95.6,13.5c0-1.3,0-2.5,0-3.7c0-0.2,0.1-0.3,0.1-0.6c1.7,0,3.3,0,5.1,0c0,1.4,0,2.8,0,4.2C99,13.5,97.3,13.5,95.6,13.5z"/>
	<path d="M95.8,81.8c-0.3,0.3-0.6,0.6-0.9,0.8c-1.7-0.7-2.8-0.6-3.4,0.3s-0.6,2.6,0.1,3.3c0.7,0.8,1.8,0.8,3.2,0.1
		c0.3,0.2,0.6,0.5,0.9,0.8c-1.6,1.3-4.1,1.2-5.3,0c-1.2-1.2-1.3-3.7-0.1-5C91.5,80.6,93.9,80.5,95.8,81.8z"/>
</g>
</svg>
