<?xml version="1.0" encoding="utf-8"?>
<!-- Generator: Adobe Illustrator 26.0.3, SVG Export Plug-In . SVG Version: 6.00 Build 0)  -->
<svg version="1.1" id="Слой_1" xmlns="http://www.w3.org/2000/svg" xmlns:xlink="http://www.w3.org/1999/xlink" x="0px" y="0px"
	 viewBox="0 0 200 100" style="enable-background:new 0 0 200 100;" xml:space="preserve">
<style type="text/css">
	.st0{clip-path:url(#SVGID_00000136409907996000388520000004450486232698761605_);}
	.st1{clip-path:url(#SVGID_00000016036412825107827080000018324815227332630431_);}
	.st2{fill:#FFFFFF;}
	.st3{clip-path:url(#SVGID_00000181047645184922145810000013127646628685575296_);}
	.st4{fill:#F3E600;}
	.st5{fill:none;stroke:#FFFFFF;stroke-width:0.78;stroke-miterlimit:10;}
	.st6{fill:none;stroke:#F1E511;stroke-width:0.78;stroke-miterlimit:10;}
	.st7{fill:#303031;}
</style>
<g>
	<defs>
		<rect id="SVGID_1_" x="6" y="-307.1" width="399.6" height="269.5"/>
	</defs>
	<clipPath id="SVGID_00000101066532175886553780000015244786141445427129_">
		<use xlink:href="#SVGID_1_"  style="overflow:visible;"/>
	</clipPath>
	<g style="clip-path:url(#SVGID_00000101066532175886553780000015244786141445427129_);">
		<g>
			<defs>
				<rect id="SVGID_00000013160111484359771560000014813065803941777563_" x="2.7" y="-424.1" width="981.5" height="521.2"/>
			</defs>
			<clipPath id="SVGID_00000181080195620776387830000013325838026236337318_">
				<use xlink:href="#SVGID_00000013160111484359771560000014813065803941777563_"  style="overflow:visible;"/>
			</clipPath>
			<g style="clip-path:url(#SVGID_00000181080195620776387830000013325838026236337318_);">
				<rect x="-82.2" y="-27.1" class="st2" width="585.1" height="136.6"/>
				<g>
					<defs>
						<rect id="SVGID_00000070100121686510321210000007322143895346835893_" x="-313.4" y="-433" width="807" height="538"/>
					</defs>
					<clipPath id="SVGID_00000048465090380907906280000006267968053870504096_">
						<use xlink:href="#SVGID_00000070100121686510321210000007322143895346835893_"  style="overflow:visible;"/>
					</clipPath>
					<g style="clip-path:url(#SVGID_00000048465090380907906280000006267968053870504096_);">
						<path class="st4" d="M135,15.4H45.3c0,49.5,40.1,89.7,89.7,89.7c0,0,0,0,0,0l0,0V15.4z"/>
						<path class="st4" d="M134.9,5.8L134.9,5.8V97l75.6-5.3c1.5-3.7,2.7-7.5,3.3-11.4c4-24.3-11.5-44.2-14.4-47.8
							C177.3,4.1,138.9,5.5,134.9,5.8z"/>
						<path class="st2" d="M179.8,15.4L179.8,15.4c24.8,0,44.8,20.1,44.8,44.8v0c0,24.8-20.1,44.8-44.8,44.8l0,0
							C155,105,135,84.9,135,60.2v0C135,35.4,155,15.4,179.8,15.4z"/>
						<path class="st4" d="M179.8,40.2L179.8,40.2c-11,0-20,9-20,20l0,0c0,11,9,20,20,20l0,0l0,0c11,0,20-9,20-20l0,0
							C199.8,49.1,190.8,40.2,179.8,40.2L179.8,40.2z"/>
						<path class="st2" d="M135-74.3L135-74.3c-49.5,0-89.7,40.1-89.7,89.6c0,0,0,0,0,0H135V-74.3z"/>
						<path class="st4" d="M135-35.6L135-35.6c-28.2,0-51,22.8-51,51h51V-35.6z"/>
						<rect x="135" y="-74.3" class="st2" width="89.6" height="89.7"/>
					</g>
				</g>
				<polygon class="st5" points="189.4,5.1 181.6,5.1 177.7,11.9 181.6,18.7 189.4,18.7 193.3,11.9 				"/>
				<circle class="st6" cx="38.5" cy="-14.8" r="42.2"/>
			</g>
		</g>
	</g>
</g>
<rect x="-8.4" y="-2.3" class="st2" width="216.7" height="104.6"/>
<path class="st7" d="M26.3,17.7h15l-4.2,20.1l10.4,6.9l-4.1,19.5L19.9,48L26.3,17.7z M55.9,16.9H71L56.5,85.1L44.3,71.7L55.9,16.9z"
	/>
<path class="st7" d="M75,17.7h15l-4.2,20.1l10.4,6.9L92,64.3L68.6,48L75,17.7z M104.6,16.9h15.1l-14.5,68.2L93,71.7L104.6,16.9z"/>
<path class="st7" d="M116.6,54l7.2-34.1c0.4-2.1,2.1-3.7,4.3-4.1l35.6-6.2c3.7-0.6,7.4,1.2,9.1,4.6l13.8,27.1
	c1.1,2.1,1.5,4.4,1.4,6.7L186,78.6c-0.3,4.5-4,8.1-8.5,8.2L145,87.5c-3.8,0.1-7.5-1.6-9.9-4.6l-16.4-20.2
	C116.7,60.3,115.9,57.1,116.6,54z"/>
<ellipse transform="matrix(0.3798 -0.9251 0.9251 0.3798 21.3726 164.796)" class="st2" cx="133.6" cy="66.5" rx="2.3" ry="5.2"/>
<path class="st2" d="M186.3,81c-0.5,1.5-1.3,2.8-2.4,3.9c-1.7,1.6-4,2.6-6.3,2.6l-32.4,0.7c-4.1,0.1-7.9-1.7-10.5-4.9l-16.4-20.2
	c-2.1-2.6-3-6-2.3-9.3l7.2-34.1c0.5-2.4,2.4-4.2,4.8-4.6l35.6-6.2c4-0.7,8,1.3,9.9,5L187.1,41c1.1,2.2,1.6,4.6,1.5,7.1l-1.8,30.6
	C186.7,79.5,186.6,80.2,186.3,81z M116.6,54l0.7,0.2c-0.6,2.9,0.1,5.9,2,8.2l16.4,20.2c2.3,2.8,5.7,4.4,9.4,4.3l32.4-0.7
	c4.2-0.1,7.5-3.4,7.8-7.5l1.8-30.6c0.1-2.2-0.3-4.4-1.3-6.4l-13.8-27.1c-1.6-3.1-5-4.8-8.4-4.2l-35.6,6.2c-1.8,0.3-3.3,1.7-3.7,3.5
	l-7.2,34.1L116.6,54z"/>
<path class="st2" d="M180.1,85.6c-0.1,0.2-0.1,0.3-0.2,0.5c-0.5,0.8-1.4,1.3-2.3,1.3L145.8,88c-3.8,0-7.7-0.5-10.7-4.4l-15.9-20.7
	c-1-1.3-0.7-3.2,0.6-4.2c0.4-0.3,1-0.5,1.5-0.6l36.9-3c2.7-0.2,5.3,1.1,6.7,3.4l14.9,24.8l0,0C180.2,84,180.3,84.8,180.1,85.6z
	 M119.6,60.4c-0.2,0.6-0.1,1.3,0.3,1.8L135.8,83c2.6,3.4,5.8,4.1,9.9,4l31.7-0.7c0.6,0,1.2-0.3,1.6-0.8c0.3-0.6,0.2-1.3-0.1-1.8
	L164.1,59c-1.2-2-3.4-3.2-5.8-3l-36.9,3c-0.7,0.1-1.4,0.5-1.7,1.2C119.6,60.3,119.6,60.3,119.6,60.4z"/>
<path class="st2" d="M186.2,80.5c-0.5,1.4-2,2.2-3.4,1.7c-0.6-0.2-1.1-0.6-1.4-1.2l-14.2-24.4c-1.1-1.8-1.5-4-1.2-6.1l4.5-36
	c0.1-0.6,0.7-1.1,1.3-1.2c0.6-0.1,1.2,0.1,1.5,0.6c3.5,6.7,13.2,26.1,14.1,27.8c0.6,1.4,1,3,1.1,4.5v0.1l-2,33.5
	C186.3,80.1,186.3,80.3,186.2,80.5z M171.3,14.7l-4.5,36c-0.2,1.9,0.2,3.8,1.1,5.5l14.2,24.4c0.5,0.8,1.6,1.1,2.4,0.6
	c0.5-0.3,0.8-0.8,0.8-1.4l2-33.5c-0.1-1.4-0.4-2.8-1-4.1c-0.9-1.8-10.6-21.1-14.1-27.8c-0.1-0.1-0.3-0.2-0.5-0.1
	S171.3,14.5,171.3,14.7L171.3,14.7z"/>
<path class="st2" d="M162.7,49.6c-0.5,1.6-2,2.8-3.7,2.9l-39,2.8c-1.8,0.1-3.3-1.2-3.4-3c0-0.3,0-0.6,0.1-0.9l7-31.9
	c0.5-2.3,2.3-4,4.6-4.4l36-5.9c1.6-0.3,3.2,0.8,3.5,2.4c0.1,0.3,0.1,0.6,0,0.9l-4.9,36.2C162.8,49.2,162.8,49.4,162.7,49.6z
	 M124.7,19.4c0,0.1-0.1,0.3-0.1,0.4l-7,31.9c-0.2,0.7,0,1.4,0.5,1.9c0.5,0.5,1.1,0.8,1.8,0.8l39-2.8c1.5-0.1,2.8-1.3,3-2.8l4.9-36.3
	c0.1-0.6-0.1-1.3-0.6-1.8c-0.5-0.5-1.1-0.7-1.8-0.6l-36,5.9C126.7,16.5,125.2,17.7,124.7,19.4L124.7,19.4z"/>
<ellipse transform="matrix(0.5746 -0.8185 0.8185 0.5746 36.441 118.8896)" class="st2" cx="132.6" cy="24.4" rx="4.8" ry="3.3"/>
<path class="st2" d="M137,20.3c0.3,0.2,0.6,0.5,0.8,0.9c0.2,0.3,0.3,0.7,0.4,1.1c0.2,0.8,0.2,1.6,0.1,2.4c0,0.2-0.1,0.4-0.1,0.6
	l-0.1,0.3l-0.1,0.3l-0.1,0.3c0,0.1-0.1,0.2-0.1,0.3l-0.1,0.3l-0.1,0.3c-0.1,0.1-0.1,0.2-0.1,0.3l-0.1,0.2c-0.1,0.2-0.2,0.3-0.3,0.5
	c-0.2,0.3-0.5,0.6-0.8,0.9c-0.3,0.3-0.6,0.6-0.9,0.8c-0.3,0.2-0.7,0.5-1,0.6c-0.4,0.2-0.7,0.4-1.1,0.5l-0.3,0.1l-0.3,0.1
	c-0.2,0-0.4,0.1-0.6,0.1h-0.3h-0.3c-0.2,0-0.4,0-0.6-0.1c-0.4-0.1-0.8-0.3-1.2-0.5c-0.3-0.2-0.6-0.5-0.9-0.9
	c-0.2-0.3-0.3-0.7-0.4-1.1c0.2,0.3,0.4,0.6,0.6,0.8c0.3,0.2,0.5,0.4,0.9,0.6c0.6,0.2,1.3,0.3,2,0.2c0.7-0.1,1.3-0.4,1.9-0.8
	c0.6-0.4,1.1-0.8,1.6-1.3c0.2-0.3,0.5-0.5,0.7-0.8c0.1-0.1,0.2-0.3,0.3-0.4l0.1-0.2c0-0.1,0.1-0.1,0.1-0.2c0.4-0.6,0.6-1.2,0.8-1.9
	c0.1-0.2,0.1-0.3,0.1-0.5c0-0.2,0.1-0.3,0.1-0.5c0-0.3,0-0.7,0-1c0-0.3-0.1-0.7-0.1-1C137.3,21,137.2,20.6,137,20.3z"/>
<ellipse transform="matrix(0.5746 -0.8185 0.8185 0.5746 49.0991 136.1821)" class="st2" cx="155.5" cy="20.9" rx="4.8" ry="3.3"/>
<path class="st2" d="M152.6,17.2c0.7-1.2,1.8-2.1,3.1-2.6c0.7-0.3,1.5-0.4,2.2-0.3c0.8,0.1,1.6,0.5,2.2,1c0.3,0.3,0.6,0.6,0.8,0.9
	c0.2,0.3,0.4,0.7,0.6,1.1c0.4,1.1,0.5,2.3,0.2,3.5c-0.1,0.4-0.2,0.7-0.3,1.1c-0.5,1.4-1.3,2.7-2.4,3.7c-0.6,0.5-1.2,0.9-1.9,1.2
	c-0.7,0.4-1.5,0.6-2.2,0.7c-0.4,0-0.8,0-1.2,0c-0.4,0-0.8-0.2-1.2-0.3c-0.8-0.3-1.4-0.8-1.9-1.5c-0.1-0.1-0.1-0.2-0.2-0.2l-0.1-0.3
	l-0.1-0.1l-0.1-0.1l-0.1-0.3c0-0.1-0.1-0.2-0.1-0.3s0-0.2-0.1-0.3c0-0.2-0.1-0.4-0.1-0.5v-0.3v-0.3c0-0.2,0-0.4,0-0.5
	c0-0.3,0.1-0.7,0.2-1c0-0.2,0.1-0.3,0.2-0.5s0.1-0.3,0.2-0.5l0.2-0.5l0.3-0.4c-0.3,0.6-0.4,1.2-0.5,1.9c-0.1,0.6-0.1,1.3,0.1,1.9
	c0,0.2,0.1,0.3,0.1,0.5c0,0.1,0.1,0.2,0.1,0.2c0,0.1,0.1,0.2,0.1,0.2l0.1,0.2l0.1,0.1l0.1,0.1l0.1,0.2l0.1,0.2
	c0.4,0.5,1,0.9,1.6,1.1c0.6,0.2,1.3,0.2,1.9,0.1c0.6-0.1,1.3-0.3,1.8-0.6c1.1-0.6,2.1-1.5,2.8-2.6c0.7-1.1,1.2-2.3,1.3-3.6
	c0-0.7,0-1.3-0.2-1.9c-0.2-0.6-0.5-1.2-1-1.6c-0.5-0.4-1.1-0.8-1.7-0.9c-0.6-0.1-1.3-0.1-1.9,0C154.6,15.6,153.5,16.3,152.6,17.2z"
	/>
<ellipse transform="matrix(0.5746 -0.8185 0.8185 0.5746 29.7868 142.552)" class="st2" cx="152" cy="42.6" rx="4.8" ry="3.3"/>
<path class="st2" d="M156.4,38.5c0.3,0.2,0.6,0.5,0.8,0.9c0.2,0.3,0.3,0.7,0.4,1.1c0.1,0.4,0.1,0.8,0.2,1.2c0,0.4,0,0.8-0.1,1.2
	c0,0.2-0.1,0.4-0.1,0.6s-0.1,0.2-0.1,0.3l-0.1,0.3l-0.1,0.3c0,0.1-0.1,0.2-0.1,0.3l-0.1,0.3l-0.1,0.3c-0.1,0.1-0.1,0.2-0.1,0.3
	l-0.1,0.3c-0.1,0.2-0.2,0.3-0.3,0.5c-0.2,0.3-0.5,0.6-0.8,0.9c-0.3,0.3-0.6,0.6-0.9,0.8c-0.3,0.2-0.7,0.5-1,0.7
	c-0.4,0.2-0.7,0.4-1.1,0.5l-0.3,0.1c-0.1,0-0.2,0-0.3,0.1c-0.2,0-0.4,0.1-0.6,0.1h-0.6c-0.2,0-0.4,0-0.6-0.1
	c-0.4-0.1-0.8-0.3-1.2-0.5c-0.3-0.2-0.6-0.5-0.9-0.9c-0.2-0.3-0.3-0.7-0.4-1.1c0.3,0.6,0.8,1.1,1.5,1.4c0.6,0.2,1.3,0.3,2,0.2
	c0.7-0.1,1.3-0.4,1.9-0.8c0.6-0.4,1.1-0.8,1.6-1.3c0.2-0.3,0.5-0.5,0.7-0.8c0.1-0.1,0.2-0.3,0.3-0.4l0.1-0.2c0-0.1,0.1-0.1,0.1-0.2
	c0.4-0.6,0.6-1.2,0.8-1.9c0.1-0.2,0.1-0.3,0.1-0.5s0.1-0.3,0.1-0.5c0-0.3,0-0.7,0-1c0-0.3-0.1-0.7-0.1-1
	C156.7,39.2,156.6,38.9,156.4,38.5z"/>
<ellipse transform="matrix(0.5746 -0.8185 0.8185 0.5746 17.7836 124.8487)" class="st2" cx="129" cy="45.3" rx="4.8" ry="3.3"/>
<path class="st2" d="M133.4,41.2c0.3,0.2,0.6,0.5,0.8,0.9c0.2,0.3,0.3,0.7,0.4,1.1c0.1,0.4,0.2,0.8,0.2,1.2c0,0.4,0,0.8-0.1,1.2
	c0,0.2-0.1,0.4-0.1,0.6s-0.1,0.2-0.1,0.3l-0.1,0.3l-0.1,0.3l-0.1,0.3c0,0.1-0.1,0.2-0.1,0.3l-0.1,0.3c0,0.1-0.1,0.2-0.1,0.3
	l-0.2,0.3c-0.1,0.2-0.2,0.3-0.3,0.5c-0.2,0.3-0.5,0.6-0.8,0.9c-0.3,0.3-0.6,0.6-0.9,0.8c-0.3,0.2-0.7,0.5-1,0.7
	c-0.4,0.2-0.7,0.4-1.1,0.5l-0.3,0.1l-0.3,0.1c-0.2,0-0.4,0.1-0.6,0.1h-0.6c-0.2,0-0.4,0-0.6-0.1c-0.4-0.1-0.8-0.3-1.2-0.5
	c-0.3-0.2-0.6-0.5-0.9-0.9c-0.2-0.3-0.3-0.7-0.4-1.1c0.2,0.3,0.4,0.6,0.6,0.8c0.3,0.2,0.5,0.4,0.9,0.6c0.6,0.2,1.3,0.3,2,0.2
	c0.7-0.1,1.3-0.4,1.9-0.8c0.6-0.4,1.1-0.8,1.6-1.3c0.2-0.2,0.5-0.5,0.7-0.8l0.3-0.4l0.1-0.2c0-0.1,0.1-0.1,0.1-0.2
	c0.3-0.6,0.6-1.2,0.8-1.9c0.1-0.2,0.1-0.3,0.1-0.5s0.1-0.3,0.1-0.5c0-0.3,0.1-0.7,0.1-1c0-0.3-0.1-0.7-0.2-1
	C133.7,41.9,133.6,41.6,133.4,41.2z"/>
<ellipse transform="matrix(0.5746 -0.8185 0.8185 0.5746 32.6129 130.4789)" class="st2" cx="141.8" cy="33.9" rx="4.8" ry="3.3"/>
<path class="st2" d="M143.6,27.9c0.2-0.1,0.4-0.1,0.6-0.1c0.2,0,0.4,0,0.6,0c0.4,0.1,0.9,0.2,1.3,0.4c0.4,0.2,0.8,0.5,1.1,0.9
	c0.1,0.1,0.1,0.2,0.2,0.3c0.1,0.1,0.1,0.2,0.2,0.3c0.1,0.1,0.1,0.2,0.2,0.3c0.1,0.1,0.1,0.2,0.1,0.3c0.1,0.2,0.2,0.4,0.2,0.7
	c0,0.1,0.1,0.2,0.1,0.3l0.1,0.4c0.1,0.5,0.1,0.9,0.1,1.4c0,0.5-0.1,0.9-0.2,1.3c-0.1,0.4-0.3,0.9-0.4,1.3c-0.2,0.4-0.4,0.8-0.6,1.2
	l-0.2,0.3l-0.2,0.3l-0.2,0.3l-0.1,0.1l-0.1,0.1c-0.1,0.2-0.3,0.3-0.5,0.5l-0.2,0.2l-0.3,0.2L145,39l-0.3,0.2l-0.3,0.2l-0.3,0.2
	c-0.4,0.2-0.8,0.4-1.2,0.5c-0.4,0.1-0.9,0.2-1.3,0.2c-0.2,0-0.4,0-0.6,0h-0.3c-0.1,0-0.2,0-0.3-0.1l-0.3-0.1l-0.3-0.1l-0.1-0.1
	l-0.1-0.1l-0.3-0.2c0.8,0.2,1.5,0.2,2.3,0c0.4-0.1,0.7-0.2,1.1-0.4l0.5-0.3c0.2-0.1,0.3-0.2,0.5-0.3c0.6-0.4,1.2-1,1.7-1.5
	c0.5-0.6,0.9-1.3,1.2-2c0.3-0.7,0.5-1.5,0.6-2.2c0.1-0.8,0-1.6-0.2-2.3c-0.1-0.4-0.3-0.7-0.5-1c-0.2-0.3-0.5-0.6-0.8-0.9
	c-0.3-0.2-0.6-0.4-1-0.6C144.4,28,144,28,143.6,27.9z"/>
<path class="st2" d="M125.6,52.5l-5.7,0.4c-0.2,0-0.4-0.1-0.6-0.2c-0.1-0.2-0.2-0.4-0.2-0.6l1.6-7.4c-0.1,0.5-1,6.3-0.5,7.1
	S125.3,52.5,125.6,52.5z"/>
<path class="st2" d="M137.4,16.2c-0.3,0.1-9,2.3-10,4.1s-3.9,11.4-3.9,11.4l2.5-11.6c0-0.1,0-0.2,0.1-0.3c0.4-1.1,1.3-2,2.5-2.2
	L137.4,16.2z"/>
<polygon class="st2" points="142.5,18.3 137.8,22.1 138,23.5 "/>
<path class="st2" d="M130.2,30.2c0,0-2.2,1.9-3,2.6c-0.3,0.2-0.4,0.6-0.2,0.9c0.2,0.3,0.5,0.4,0.7,0.3l-3.8,3.6l-1.3,6
	c0,0,10-9.5,10.9-10.3c0.4-0.3,0.5-1,0.2-1.4c-0.1-0.1-0.2-0.2-0.4-0.3l2.4-2.5l-3.4,1.3L130.2,30.2z"/>
<path class="st2" d="M148,32l5.2-5.1c0,0-2.3-0.8-2.7-2.3l-4.1,4.1C147.2,29.6,147.8,30.8,148,32z"/>
<path class="st2" d="M162.4,33.7l-2,14.9c0,0.1,0,0.2-0.1,0.3c-0.2,0.7-0.8,1.1-1.5,1.2l-16.6,1.2l8.4-1.5l-4.5-0.3l4.8-0.9
	c0,0,3.2-0.4,4.5-2.2c0.9-1.6,1.6-3.2,2-5c0,0,0.4,0.4,0.1,2c-0.3,1.3-0.7,2.5-1.2,3.8c0,0,2.6-1.8,2.3-6.5l1.6-2.9L162.4,33.7z"/>
<path class="st2" d="M165.1,11.9c0.1,0.1,0.2,0.3,0.1,0.5l-2.1,15.9l-0.1-3.5l-5.8,6.7l-0.4-1.5l-7.6,7.1l9.4-10.8l0.4,1.1
	c1.7-2,2.6-4.5,2.5-7.1c0,0,0.3-3.7-2.1-5s-8.4,0.5-8.5,0.6l2.9-1.4l-8.1,0.4l19.2-3.2C164.9,11.7,165,11.8,165.1,11.9z"/>
<polygon class="st2" points="132.8,52 136.4,50.8 145.9,41.3 137.8,51 140.1,51.4 "/>
<path class="st2" d="M176.8,32.1c0.5,0.3,0.9,0.7,1.3,1.2c0.4,0.5,0.7,1,0.9,1.5c0.5,1.1,0.8,2.2,0.9,3.4c0.1,1.2,0.1,2.4-0.2,3.5
	c-0.1,0.6-0.3,1.2-0.6,1.7c-0.1,0.3-0.3,0.5-0.5,0.8c-0.1,0.1-0.2,0.2-0.3,0.3c-0.1,0.1-0.2,0.2-0.4,0.3c0.4-0.4,0.7-0.9,0.9-1.5
	c0.2-0.5,0.3-1.1,0.4-1.7c0.1-1.1,0.1-2.3,0-3.4c-0.1-1.1-0.4-2.2-0.7-3.3C178.1,33.9,177.5,32.9,176.8,32.1z"/>
<path class="st2" d="M179.8,51.6c0.2,0.1,0.3,0.2,0.5,0.3c0.1,0.1,0.2,0.1,0.2,0.2l0.2,0.2l0.2,0.2l0.2,0.2c0.1,0.1,0.2,0.3,0.4,0.4
	c0.4,0.6,0.8,1.2,1.1,1.9c0.6,1.4,0.9,2.8,1,4.3c0,0.4,0,0.8,0,1.1c0,0.4,0,0.7-0.1,1.1c-0.1,0.8-0.3,1.5-0.6,2.2
	c-0.2,0.4-0.3,0.7-0.6,1c-0.1,0.2-0.3,0.3-0.4,0.5c-0.2,0.1-0.3,0.3-0.5,0.4c-0.4,0.2-0.8,0.3-1.2,0.2c-0.4-0.1-0.7-0.3-1-0.6
	c0.3,0.2,0.6,0.3,1,0.4h0.3l0.3-0.1c0.2-0.1,0.3-0.1,0.5-0.2c0.3-0.2,0.5-0.5,0.7-0.8c0.2-0.3,0.3-0.7,0.4-1
	c0.2-0.7,0.4-1.4,0.4-2.1c0.1-0.7,0.1-1.4,0-2.1c-0.1-1.4-0.4-2.8-0.8-4.2c-0.2-0.7-0.5-1.3-0.9-1.9
	C180.7,52.6,180.3,52.1,179.8,51.6z"/>
<path class="st2" d="M184,64.7L183.2,77c0,0,0,0.1,0,0.1s-0.2,0.1-0.2,0.1c-0.1,0-0.2,0-0.2-0.1c0,0,0,0,0,0l-6.4-11l5.9,8.2
	L184,64.7z"/>
<path class="st2" d="M169.5,46.8c0.3,1.8,0.7,4.6,0.8,5.7c0.2,1.6,4.1,10.1,4.2,10.2L170,55c-0.8-1.4-1.1-3-0.9-4.5L169.5,46.8z"/>
<path class="st2" d="M173.6,22c1.2,2.3,2.6,5.1,4,7.9l-3.8-5.1l-2.6,10l1.6-12.8c0-0.2,0.2-0.4,0.4-0.4
	C173.4,21.7,173.6,21.8,173.6,22z"/>
<path class="st2" d="M179.6,82.3c-1-1.3-2-2.6-2.9-4s-1.7-2.7-2.6-4.1s-1.6-2.8-2.4-4.2s-1.5-2.9-2.1-4.4c1,1.3,2,2.6,2.9,4
	s1.8,2.7,2.6,4.1s1.6,2.8,2.4,4.3S179,80.8,179.6,82.3z"/>
<path class="st2" d="M180.4,81.9c-1-1.3-2-2.6-2.9-4s-1.8-2.7-2.6-4.1s-1.6-2.8-2.4-4.3s-1.5-2.9-2.1-4.4c1,1.3,2,2.6,2.9,4
	s1.8,2.7,2.6,4.1s1.6,2.8,2.4,4.3S179.8,80.4,180.4,81.9z"/>
<path class="st2" d="M181.1,81.5c-1-1.3-2-2.6-2.9-4s-1.8-2.7-2.6-4.1s-1.6-2.8-2.4-4.3c-0.8-1.4-1.5-2.9-2.1-4.4c1,1.3,2,2.6,2.9,4
	s1.8,2.7,2.6,4.1s1.6,2.8,2.4,4.2S180.5,80,181.1,81.5z"/>
<path class="st2" d="M139.1,59.1l-15.9,2.3c-0.2,0-0.3,0.2-0.3,0.4c0,0,0,0.1,0,0.1l5.3,8.5l0.2,0.3l-7.1-9.1
	c-0.2-0.2-0.2-0.5-0.1-0.8c0.1-0.3,0.4-0.6,0.7-0.6L139.1,59.1z"/>
<path class="st2" d="M162.8,59.8l14.6,24.2c0.1,0.2,0.1,0.4,0.1,0.6c-0.1,0.2-0.4,0.2-0.6,0.2l-18.9,0.4l7.4-1.2l-4.5-0.8l7-0.4
	c0,0,5.8-0.3,5.4-2.7c-0.4-1.7-1.2-3.4-2.2-4.8l-2.8-2.1l0.3-1.8c-1.8-3.5-3.9-6.9-6.1-10.1c-0.6-1-1.5-1.9-2.6-2.4
	c-0.8-0.3-1.5-0.4-2.3-0.5c-1.4-0.2-2.2-0.2-5.5-0.4l-1.2-0.1l7.2-0.6C160.1,57.3,161.9,58.2,162.8,59.8z"/>
<path class="st2" d="M150.3,85.5l-4.5,0.1c-2.2,0.2-4.4-0.3-6.4-1.3c-0.9-0.6-1.7-1.4-2.4-2.2c-1.8-2-3.4-4.1-4.8-6.3
	c1.7,1.8,3.6,3.4,5.6,4.8c2.6,1.9,5.2,3.9,9.1,4.5C147.9,85.3,149,85.4,150.3,85.5z"/>
<polygon class="st2" points="154.1,58.2 152.7,63.9 153.2,58 "/>
<path class="st2" d="M138.8,68.5c-0.2,0.5-0.5,0.8-1,1c-1.2,0.6-3.1,0.4-5.2-0.4c-3-1.2-4.8-3.2-4.4-4.7l0,0c0.2-0.5,0.5-0.8,1-1
	c1.2-0.6,3.1-0.4,5.2,0.4l0,0C137.5,65,139.3,67,138.8,68.5L138.8,68.5z M129.2,64.7L129.2,64.7c-0.3,0.9,1.2,2.5,3.8,3.5
	c1.4,0.7,2.9,0.8,4.4,0.4c0.2-0.1,0.4-0.3,0.5-0.5l0,0c0.3-0.9-1.2-2.5-3.8-3.5l0,0c-1.4-0.7-2.9-0.8-4.4-0.4
	C129.5,64.3,129.3,64.5,129.2,64.7L129.2,64.7z"/>
<path class="st2" d="M129.9,62c0.3-0.1,0.5-0.2,0.8-0.3c0.3-0.1,0.6-0.1,0.9-0.1c0.3,0,0.6,0,0.9,0c0.3,0,0.6,0,0.9,0.1
	c1.2,0.2,2.3,0.5,3.4,1c0.6,0.3,1.1,0.6,1.6,0.9c0.5,0.4,1,0.8,1.4,1.2c0.1,0.1,0.2,0.2,0.3,0.4l0.1,0.2l0.1,0.2
	c0.2,0.3,0.4,0.6,0.5,0.9c0.3,0.7,0.4,1.5,0.2,2.2c-0.2,0.8-0.5,1.5-1.1,2c-0.3,0.3-0.6,0.5-0.9,0.7c-0.2,0.1-0.3,0.2-0.5,0.2
	c-0.2,0.1-0.3,0.1-0.5,0.2c-0.7,0.2-1.3,0.2-2,0.2c-0.3,0-0.6,0-0.9-0.1l-0.4-0.1l-0.4-0.1l-0.4-0.1l-0.4-0.1
	c-0.3-0.1-0.6-0.2-0.8-0.3c-0.1-0.1-0.3-0.1-0.4-0.2l-0.4-0.2c-0.3-0.2-0.5-0.3-0.8-0.4s-0.5-0.3-0.7-0.5c-0.2-0.2-0.5-0.4-0.7-0.6
	c-0.2-0.2-0.4-0.4-0.6-0.6c-0.2-0.2-0.4-0.4-0.5-0.7c0.8,0.8,1.8,1.4,2.8,1.9c0.5,0.2,1,0.5,1.6,0.6c0.5,0.2,1.1,0.3,1.6,0.4
	c0.6,0.1,1.1,0.2,1.7,0.2c0.6,0,1.1-0.1,1.7-0.2c0.1,0,0.3-0.1,0.4-0.1s0.3-0.1,0.4-0.2c0.2-0.1,0.5-0.3,0.7-0.5
	c0.4-0.4,0.7-0.9,0.8-1.5c0.1-0.6,0-1.1-0.2-1.7c-0.2-0.5-0.5-1-0.9-1.4c-0.4-0.4-0.8-0.8-1.2-1.2c-0.5-0.3-0.9-0.6-1.4-0.9
	c-1-0.5-2.1-0.9-3.1-1.2C132.1,61.9,131,61.8,129.9,62z"/>
<ellipse transform="matrix(0.3798 -0.9251 0.9251 0.3798 26.8573 183.6514)" class="st2" cx="150.4" cy="71.8" rx="2.3" ry="5.2"/>
<path class="st2" d="M155.6,73.8c-0.2,0.5-0.5,0.8-1,1c-1.1,0.6-3.1,0.4-5.2-0.4c-3-1.2-4.9-3.2-4.4-4.7l0,0c0.2-0.5,0.5-0.8,1-1
	c1.2-0.6,3.1-0.4,5.2,0.4l0,0C154.3,70.3,156.1,72.3,155.6,73.8z M146,70.1L146,70.1c-0.3,0.9,1.2,2.5,3.8,3.5
	c1.4,0.7,2.9,0.8,4.4,0.4c0.2-0.1,0.4-0.3,0.5-0.5l0,0c0.3-0.9-1.2-2.5-3.8-3.5l0,0c-1.4-0.7-2.9-0.8-4.4-0.4
	C146.3,69.7,146.1,69.9,146,70.1z"/>
<path class="st2" d="M146.7,67.3c0.3-0.1,0.5-0.2,0.8-0.3c0.3,0,0.6-0.1,0.9-0.1c0.3,0,0.6,0,0.9,0c0.3,0,0.6,0,0.9,0.1
	c1.2,0.2,2.4,0.5,3.4,1c0.6,0.3,1.1,0.6,1.6,0.9c0.5,0.4,1,0.8,1.4,1.2c0.1,0.1,0.2,0.2,0.3,0.4l0.1,0.2l0.1,0.2
	c0.2,0.3,0.4,0.6,0.5,0.9c0.3,0.7,0.4,1.5,0.2,2.2c-0.2,1.1-1,2.1-2,2.7c-0.2,0.1-0.3,0.2-0.5,0.2c-0.2,0.1-0.3,0.1-0.5,0.2
	c-0.7,0.2-1.3,0.2-2,0.2c-0.3,0-0.6,0-0.9-0.1l-0.5-0.1l-0.4-0.1l-0.4-0.1l-0.4-0.1c-0.3-0.1-0.6-0.2-0.8-0.3
	c-0.1,0-0.3-0.1-0.4-0.2l-0.4-0.2c-0.3-0.2-0.5-0.3-0.8-0.4s-0.5-0.3-0.7-0.5c-0.2-0.2-0.5-0.4-0.7-0.6c-0.2-0.2-0.4-0.4-0.6-0.6
	c-0.2-0.2-0.4-0.4-0.5-0.7c0.8,0.8,1.7,1.4,2.8,1.9c0.5,0.2,1,0.5,1.6,0.6c0.5,0.2,1.1,0.3,1.6,0.4c0.6,0.1,1.1,0.2,1.7,0.2
	c0.6,0,1.1-0.1,1.7-0.2c0.1-0.1,0.3-0.1,0.4-0.2c0.1-0.1,0.3-0.1,0.4-0.2c0.2-0.1,0.5-0.3,0.7-0.5c0.4-0.4,0.7-0.9,0.8-1.5
	c0.1-0.6,0-1.1-0.2-1.7c-0.2-0.5-0.5-1-0.9-1.4c-0.4-0.4-0.8-0.8-1.2-1.2c-0.5-0.3-0.9-0.6-1.4-0.9c-1-0.5-2-0.9-3.1-1.2
	C148.9,67.2,147.8,67.1,146.7,67.3z"/>
<ellipse transform="matrix(0.3798 -0.9251 0.9251 0.3798 30.8863 202.0778)" class="st2" cx="166.1" cy="78" rx="2.3" ry="5.2"/>
<path class="st2" d="M171.4,80c-0.2,0.5-0.5,0.8-1,1c-1.2,0.6-3.1,0.4-5.2-0.4c-3-1.2-4.9-3.2-4.4-4.7l0,0c0.2-0.5,0.5-0.8,1-1
	c1.2-0.6,3.1-0.4,5.2,0.4l0,0C170,76.5,171.9,78.5,171.4,80L171.4,80z M161.8,76.2L161.8,76.2c-0.3,0.9,1.2,2.5,3.8,3.5
	c1.4,0.7,2.9,0.8,4.4,0.4c0.2-0.1,0.4-0.3,0.5-0.5l0,0c0.3-0.9-1.2-2.5-3.8-3.5l0,0c-1.4-0.7-2.9-0.8-4.4-0.4
	C162,75.9,161.9,76,161.8,76.2L161.8,76.2z"/>
<path class="st2" d="M162.4,73.5c0.3-0.1,0.5-0.2,0.8-0.2c0.3-0.1,0.6-0.1,0.9-0.1c0.3,0,0.6,0,0.9,0c0.3,0,0.6,0,0.9,0.1
	c1.2,0.2,2.3,0.5,3.4,1c0.6,0.3,1.1,0.6,1.6,0.9c0.5,0.4,1,0.8,1.4,1.2c0.1,0.1,0.2,0.2,0.3,0.4l0.1,0.2l0.1,0.2
	c0.2,0.3,0.4,0.6,0.5,0.9c0.3,0.7,0.4,1.5,0.2,2.2c-0.2,0.8-0.5,1.5-1.1,2c-0.3,0.3-0.6,0.5-0.9,0.7c-0.2,0.1-0.3,0.2-0.5,0.2
	c-0.2,0.1-0.3,0.1-0.5,0.2c-0.7,0.2-1.3,0.2-2,0.2c-0.3,0-0.6,0-0.9-0.1l-0.4-0.1l-0.4-0.1l-0.4-0.1L166,83
	c-0.3-0.1-0.6-0.2-0.8-0.3l-0.4-0.2c-0.1-0.1-0.3-0.1-0.4-0.2s-0.5-0.3-0.8-0.4s-0.5-0.3-0.7-0.5c-0.2-0.2-0.5-0.4-0.7-0.6
	c-0.2-0.2-0.4-0.4-0.6-0.6c-0.2-0.2-0.4-0.4-0.5-0.7c0.8,0.8,1.7,1.4,2.8,1.9c0.5,0.2,1,0.5,1.6,0.7c0.5,0.2,1.1,0.3,1.6,0.4
	c0.6,0.1,1.1,0.2,1.7,0.2c0.6,0,1.1-0.1,1.7-0.2c0.1,0,0.3-0.1,0.4-0.1c0.1,0,0.3-0.1,0.4-0.2c0.2-0.1,0.5-0.3,0.7-0.5
	c0.4-0.4,0.7-0.9,0.8-1.5c0.1-0.6,0-1.1-0.2-1.7c-0.2-0.5-0.5-1-0.9-1.4c-0.4-0.4-0.8-0.8-1.2-1.2c-0.5-0.3-0.9-0.7-1.4-0.9
	c-1-0.5-2.1-0.9-3.1-1.2C164.7,73.4,163.5,73.4,162.4,73.5z"/>
<polygon class="st2" points="142.6,84.7 143.9,73.7 144,84.8 "/>
<path class="st2" d="M141.6,84.2l1.7-15c0.1-0.5-0.3-1-0.8-1c-0.2,0-0.4,0-0.5,0.1l-1.3,0.3c0,0-0.3,2.4-1.9,2.7s-1.3,3-0.9,3.1
	c0.8,0.1,2.2-1.8,2.2-1.8c-0.2,0.7-0.6,1.4-1,2.1l-0.9,7.4L141.6,84.2z"/>
<path class="st2" d="M138.6,63.8l0.6-3.3l3-0.3l-1.3,8.8C140.5,67.1,139.7,65.3,138.6,63.8z"/>
<path class="st2" d="M155.2,58.2L153,68c1.5,0.5,2.9,1.5,3.8,2.8c1.2,2,0.6,2,0.6,2s1.6,0.2-1.1-4.3c0.7,0.5,1.4,1.1,1.9,1.8
	l2.7-11.8L155.2,58.2z"/>
<polygon class="st2" points="162.1,59.9 160,69.9 163.7,67 164.4,62.9 "/>
<polygon class="st2" points="156.1,76.4 154,84.3 151.5,84.4 153.5,77 "/>
<path class="st2" d="M177.2,54.8c-0.2,1.4-0.1,2.8,0.1,4.1c0.5,2.8,1.7,5.7,3,5.5c0.5-0.1,0.8-0.5,1.1-1.2c0.4-1.6,0.4-3.3,0.1-5
	c-0.2-1.4-0.6-2.7-1.2-3.9c-0.6-1.1-1.2-1.7-1.8-1.6S177.4,53.5,177.2,54.8z M178.6,53.3h-0.1H178.6L178.6,53.3z"/>
<path class="st2" d="M173.9,32.7c-0.7,0.9-0.9,3.2-0.4,5.7c0.5,2.9,1.8,5.8,3.2,5.7c0.3,0,0.6-0.2,0.8-0.5c0.2-0.2,0.3-0.5,0.4-0.8
	c0.4-1.6,0.4-3.3,0-4.9c-0.5-2.9-1.8-5.8-3.2-5.7C174.3,32.3,174.1,32.5,173.9,32.7z"/>
</svg>
