<svg id="Слой_1" data-name="Слой 1" xmlns="http://www.w3.org/2000/svg" xmlns:xlink="http://www.w3.org/1999/xlink" viewBox="0 0 200 100"><defs><style>.cls-1,.cls-6{fill:none;}.cls-2{clip-path:url(#clip-path);}.cls-3{clip-path:url(#clip-path-2);}.cls-4{clip-path:url(#clip-path-3);}.cls-5{clip-path:url(#clip-path-4);}.cls-6{stroke:#fff;stroke-miterlimit:10;stroke-width:0.78px;}.cls-7{clip-path:url(#clip-path-5);}.cls-8{clip-path:url(#clip-path-6);}.cls-9{clip-path:url(#clip-path-7);}.cls-10{fill:#fff;}.cls-11{fill:#f9e010;}.cls-12{fill:#686867;}</style><clipPath id="clip-path"><rect class="cls-1" x="177.24" y="-419.24" width="399.62" height="269.45"/></clipPath><clipPath id="clip-path-2"><rect class="cls-1" x="173.94" y="-536.24" width="981.54" height="521.22"/></clipPath><clipPath id="clip-path-3"><rect class="cls-1" x="-247.07" y="-419.24" width="399.62" height="269.45"/></clipPath><clipPath id="clip-path-4"><rect class="cls-1" x="-250.37" y="-536.24" width="981.54" height="521.22"/></clipPath><clipPath id="clip-path-5"><rect class="cls-1" x="-669.18" y="-419.24" width="399.62" height="269.45"/></clipPath><clipPath id="clip-path-6"><rect class="cls-1" x="-672.47" y="-536.24" width="981.54" height="521.22"/></clipPath><clipPath id="clip-path-7"><rect id="SVGID" class="cls-1" x="-184.68" y="-547.74" width="531.89" height="535.36" transform="translate(162.53 -560.13) rotate(-180)"/></clipPath></defs><g class="cls-4"><g class="cls-5"><polygon class="cls-6" points="182.25 51.17 178.63 51.17 176.81 54.31 178.63 57.45 182.25 57.45 184.06 54.31 182.25 51.17"/></g></g><g class="cls-7"><g class="cls-8"><g class="cls-9"><rect class="cls-10" x="-193.73" y="-129.63" width="585.09" height="136.62" transform="translate(197.64 -122.64) rotate(-180)"/></g><polygon class="cls-6" points="108.21 -10.66 98.73 -10.66 94 -2.46 98.73 5.75 108.21 5.75 112.94 -2.46 108.21 -10.66"/></g></g><rect class="cls-10" x="-7.07" y="-2.28" width="216.72" height="104.56"/><path class="cls-11" d="M15.37,48a12.21,12.21,0,0,1-4.48-.83,2.06,2.06,0,0,1-1.52.63,2.22,2.22,0,0,1-1.56-.61,2,2,0,0,1-.65-1.52c0-.27,0-.68,0-1.23s.06-1,.06-1.24V24.14A4.26,4.26,0,0,1,7.8,22a2.11,2.11,0,0,1,1.92-1.2c1.21,0,1.81.65,1.81,2a6.15,6.15,0,0,1-.06.69,6.47,6.47,0,0,0-.06.7v6.45a12.31,12.31,0,0,1,2.39-1A7.64,7.64,0,0,1,16,29.21a8,8,0,0,1,6.4,2.88,9.84,9.84,0,0,1,2.27,6.54A9.15,9.15,0,0,1,22,45.25,8.94,8.94,0,0,1,15.37,48ZM16,33.53a5,5,0,0,0-2,.5,14.77,14.77,0,0,0-2.58,1.52q0,1.59,0,7.16a10.39,10.39,0,0,0,4,1,4.67,4.67,0,0,0,3.52-1.44,5,5,0,0,0,1.38-3.63A5.67,5.67,0,0,0,19.14,35,3.8,3.8,0,0,0,16,33.53Z"/><path class="cls-11" d="M33.1,39.42c0,.64,0,1.67.06,3.08s.06,2.45.06,3.09a2.11,2.11,0,0,1-.66,1.6,2.25,2.25,0,0,1-1.66.64,2.28,2.28,0,0,1-1.67-.64,2.11,2.11,0,0,1-.66-1.6q0-1-.06-3.09c0-1.41-.06-2.44-.06-3.08,0-1,.06-2.25.17-3.75s.17-2.76.17-3.76a2.13,2.13,0,0,1,.66-1.61,2.31,2.31,0,0,1,1.67-.63,2.29,2.29,0,0,1,1.66.63,2.13,2.13,0,0,1,.66,1.61c0,1-.06,2.25-.17,3.76S33.1,38.42,33.1,39.42ZM31.67,27.07a2.69,2.69,0,0,1-1.87-.72A2.29,2.29,0,0,1,29,24.58a2.32,2.32,0,0,1,.79-1.77,2.69,2.69,0,0,1,1.87-.72,2.65,2.65,0,0,1,1.86.72,2.35,2.35,0,0,1,.79,1.77,2.32,2.32,0,0,1-.79,1.77A2.65,2.65,0,0,1,31.67,27.07Z"/><path class="cls-11" d="M45.5,48A12.25,12.25,0,0,1,41,47.2a2.06,2.06,0,0,1-1.52.63,2.25,2.25,0,0,1-1.56-.61,2,2,0,0,1-.64-1.52c0-.27,0-.68.05-1.23s0-1,0-1.24V24.14A4.26,4.26,0,0,1,37.94,22a2.11,2.11,0,0,1,1.92-1.2c1.2,0,1.8.65,1.8,2a6.15,6.15,0,0,1-.06.69,6.47,6.47,0,0,0-.06.7v6.45a12.31,12.31,0,0,1,2.39-1,7.7,7.7,0,0,1,2.21-.35,8,8,0,0,1,6.4,2.88,9.79,9.79,0,0,1,2.27,6.54,9.15,9.15,0,0,1-2.64,6.62A8.94,8.94,0,0,1,45.5,48Zm.64-14.5a5,5,0,0,0-2,.5,15.14,15.14,0,0,0-2.58,1.52q0,1.59,0,7.16a10.39,10.39,0,0,0,4,1A4.66,4.66,0,0,0,49,42.26a5,5,0,0,0,1.38-3.63A5.67,5.67,0,0,0,49.27,35,3.79,3.79,0,0,0,46.14,33.53Z"/><path class="cls-11" d="M63.15,44.84c0,2.14-.77,3.2-2.32,3.2a2.28,2.28,0,0,1-1.67-.64,2.18,2.18,0,0,1-.66-1.65V22.46a2,2,0,0,1,.71-1.6,2.51,2.51,0,0,1,1.67-.57,2.33,2.33,0,0,1,1.63.59,2.06,2.06,0,0,1,.64,1.58Z"/><path class="cls-11" d="M72.69,39.42c0,.64,0,1.67,0,3.08s.06,2.45.06,3.09a2.14,2.14,0,0,1-.65,1.6,2.5,2.5,0,0,1-3.34,0,2.11,2.11,0,0,1-.66-1.6c0-.64,0-1.67-.05-3.09S68,40.06,68,39.42c0-1,0-2.25.16-3.75s.17-2.76.17-3.76A2.13,2.13,0,0,1,69,30.3a2.31,2.31,0,0,1,1.67-.63,2.29,2.29,0,0,1,1.66.63A2.13,2.13,0,0,1,73,31.91c0,1,0,2.25-.17,3.76S72.69,38.42,72.69,39.42ZM71.25,27.07a2.69,2.69,0,0,1-1.87-.72,2.32,2.32,0,0,1-.79-1.77,2.35,2.35,0,0,1,.79-1.77,2.69,2.69,0,0,1,1.87-.72,2.65,2.65,0,0,1,1.86.72,2.32,2.32,0,0,1,.79,1.77,2.29,2.29,0,0,1-.79,1.77A2.65,2.65,0,0,1,71.25,27.07Z"/><path class="cls-11" d="M84,48.31a7.48,7.48,0,0,1-5.36-2.14,8.59,8.59,0,0,1-2.57-6.24,10.26,10.26,0,0,1,2-6.64,8.37,8.37,0,0,1,7.12-3.44,6.32,6.32,0,0,1,5.36,2.7,9.87,9.87,0,0,1,1.78,6,10.74,10.74,0,0,1-2.09,6.67A7.46,7.46,0,0,1,84,48.31Zm1-14a3.66,3.66,0,0,0-3.27,1.89,6.86,6.86,0,0,0-1,3.74A4,4,0,0,0,81.9,43a3,3,0,0,0,2.12.85,3.61,3.61,0,0,0,2.54-1,4.4,4.4,0,0,0,1.32-3.15C88,36.13,87.07,34.31,85,34.3Z"/><path class="cls-11" d="M107.11,33.76l-.83,0-.83,0a11,11,0,0,0-1.6.14c.2,4.53.3,7.5.3,8.89,0,.14,0,.42,0,.82s0,.72,0,1q0,3.88-2.44,3.88a2.39,2.39,0,0,1-1.6-.57,1.9,1.9,0,0,1-.74-1.52c0-.4,0-1,0-1.82s0-1.41,0-1.82q0-2-.3-8.72c-.7,0-1.75-.13-3.16-.28a2,2,0,0,1-2.12-2.18,2.22,2.22,0,0,1,2.3-2.26c.41,0,1.37.07,2.86.2,0-.36,0-.95-.09-1.78s-.06-1.28-.06-1.67a2,2,0,0,1,.69-1.57,2.41,2.41,0,0,1,1.66-.62q2.5,0,2.5,4.19l0,1.39a11.38,11.38,0,0,1,1.71-.16,9,9,0,0,1,2.64.26,2,2,0,0,1,1.35,2.05,2.14,2.14,0,0,1-.66,1.6A2.28,2.28,0,0,1,107.11,33.76Z"/><path class="cls-11" d="M120,48.09a10.62,10.62,0,0,1-6.58-1.92,7,7,0,0,1-2.83-6A11.56,11.56,0,0,1,112.79,33a8,8,0,0,1,6.72-3.27,11.1,11.1,0,0,1,4.87.94,4.09,4.09,0,0,1,2.54,3.88,4,4,0,0,1-2.07,3.28,26.27,26.27,0,0,1-3.79,1.92l-5.68,2.51a5.09,5.09,0,0,0,2,1.31A7.13,7.13,0,0,0,120,44a7.49,7.49,0,0,0,3.83-.92,4.85,4.85,0,0,1,2.24-.83,1.53,1.53,0,0,1,1.75,1.7c0,1.28-.94,2.33-2.81,3.14A12.66,12.66,0,0,1,120,48.09Zm-.45-14.3a3.77,3.77,0,0,0-2.68,1.05A7.33,7.33,0,0,0,115.05,38l3.79-1.63a28.17,28.17,0,0,0,3.62-1.91A6.06,6.06,0,0,0,119.51,33.79Z"/><path class="cls-11" d="M144.93,48a2.19,2.19,0,0,1-2-1.28,26.9,26.9,0,0,0-2.48-3.62l-2.71-3.45c-.9.66-1.64,1.16-2.23,1.51-.11,1.56-.16,3.06-.16,4.48a2.17,2.17,0,0,1-.66,1.62,2.28,2.28,0,0,1-1.67.64c-1.58,0-2.37-.94-2.37-2.83,0-.89.06-2.21.19-4s.19-3.1.19-4c0-1.62,0-3.49.08-5.58s.08-3.94.08-5.55c0-.48,0-1.05-.08-1.71S131,23,131,22.56a2.13,2.13,0,0,1,.66-1.61A2.53,2.53,0,0,1,135,21a2.16,2.16,0,0,1,.65,1.61c0,.49,0,1.08.09,1.75s.08,1.26.08,1.75c0,1.34,0,2.92-.1,4.75s-.09,3.32-.08,4.69a87.06,87.06,0,0,0,7-6.44,2.32,2.32,0,0,1,1.68-.74A2.35,2.35,0,0,1,146,29a2.16,2.16,0,0,1,.73,1.6,2.21,2.21,0,0,1-.66,1.5,58.39,58.39,0,0,1-4.73,4.65l3.5,4.51q2.53,3.39,2.54,4.52a2,2,0,0,1-.74,1.57A2.48,2.48,0,0,1,144.93,48Z"/><path class="cls-11" d="M163.93,48.25a4.86,4.86,0,0,1-2.46-1.5,23.39,23.39,0,0,1-2.73,1.12,6.9,6.9,0,0,1-2,.38q-4,0-6.09-2.18t-2-6.5a9.31,9.31,0,0,1,3-7,10,10,0,0,1,7.18-2.88,9.59,9.59,0,0,1,3.7.9c1.7.72,2.55,1.56,2.55,2.51a1.58,1.58,0,0,1-.39,1.06,11.14,11.14,0,0,0-.26,1.67c-.06.67-.09,1.46-.09,2.36a16.63,16.63,0,0,0,.45,4.59c0,.1.29.67.78,1.73a9,9,0,0,1,.65,1.64,1.82,1.82,0,0,1-.68,1.46A2.34,2.34,0,0,1,163.93,48.25Zm-4.18-11.37a11.71,11.71,0,0,1,.07-1.24c.06-.47.13-1,.23-1.56a3.4,3.4,0,0,0-.6-.24,1.65,1.65,0,0,0-.44-.08,5.39,5.39,0,0,0-4,1.79,5.82,5.82,0,0,0-1.72,4.16,5.85,5.85,0,0,0,.81,3.39,2.78,2.78,0,0,0,2.43,1.14,5.63,5.63,0,0,0,2-.35,6,6,0,0,0,1.76-1A54,54,0,0,1,159.75,36.88Z"/><path class="cls-12" d="M19.22,65.51a1.79,1.79,0,0,1-2-1.39A7.87,7.87,0,0,0,15.84,64c-2.71,0-4.06.37-4.06,1.11,0,.44.81,1,2.44,1.77a30.75,30.75,0,0,1,4.52,2.39,5,5,0,0,1,2.44,4,4.77,4.77,0,0,1-2.7,4.4,10.92,10.92,0,0,1-5.34,1.19,11.66,11.66,0,0,1-4.09-.69c-1.68-.63-2.53-1.55-2.53-2.78s.67-1.68,2-1.68a7.7,7.7,0,0,1,2.24.49,8,8,0,0,0,2.26.49c2.28,0,3.42-.46,3.43-1.39,0-.57-.79-1.2-2.37-1.9a34.73,34.73,0,0,1-4.45-2.2,4.88,4.88,0,0,1-2.37-4.06q0-3.39,3.58-4.57a22.07,22.07,0,0,1,6.4-.69,5.48,5.48,0,0,1,2.5.44,2.23,2.23,0,0,1,1.11,2.17C20.86,64.5,20.31,65.51,19.22,65.51Z"/><path class="cls-12" d="M36.79,78.84a7.53,7.53,0,0,1-5.36-2.14,8.61,8.61,0,0,1-2.57-6.25,10.33,10.33,0,0,1,2-6.64A8.4,8.4,0,0,1,38,60.38a6.31,6.31,0,0,1,5.36,2.69,9.87,9.87,0,0,1,1.78,6,10.74,10.74,0,0,1-2.09,6.67A7.47,7.47,0,0,1,36.79,78.84Zm1-14a3.66,3.66,0,0,0-3.27,1.89,6.89,6.89,0,0,0-1,3.74,4,4,0,0,0,1.15,3.1,3,3,0,0,0,2.12.86,3.59,3.59,0,0,0,2.54-1,4.4,4.4,0,0,0,1.32-3.15C40.79,66.65,39.84,64.83,37.8,64.82Z"/><path class="cls-12" d="M61.47,78.84a15.07,15.07,0,0,1-3-.34l0,6.87A2.17,2.17,0,0,1,57.74,87a2.49,2.49,0,0,1-3.33,0,2.17,2.17,0,0,1-.66-1.62q0-.8,0-6.28,0-4.08,0-6.65,0-3.64-.23-6.27c-.17-2.41-.25-3.52-.25-3.32a4.36,4.36,0,0,1,.62-2.39,2.22,2.22,0,0,1,1.95-1.13,2.16,2.16,0,0,1,1.59.64,2.13,2.13,0,0,1,.64,1.53l0,.17a10.25,10.25,0,0,1,2.27-1,8.41,8.41,0,0,1,2.28-.31,6,6,0,0,1,5.66,3.28,13.61,13.61,0,0,1,1.33,6.42,9,9,0,0,1-2.11,6.12A7.58,7.58,0,0,1,61.47,78.84Zm1.16-13.93a5.21,5.21,0,0,0-2.16.49,9.1,9.1,0,0,0-2.2,1.49q.19,3.48.2,7a9.52,9.52,0,0,0,3,.49,3.14,3.14,0,0,0,2.66-1.23,4.86,4.86,0,0,0,.84-3,16.87,16.87,0,0,0-.2-3.15C64.44,65.59,63.73,64.91,62.63,64.91Z"/><path class="cls-12" d="M84.76,78.84A7.51,7.51,0,0,1,79.4,76.7a8.62,8.62,0,0,1-2.58-6.25,10.4,10.4,0,0,1,2-6.64A8.38,8.38,0,0,1,86,60.38a6.29,6.29,0,0,1,5.35,2.69,9.87,9.87,0,0,1,1.79,6A10.74,10.74,0,0,1,91,75.75,7.47,7.47,0,0,1,84.76,78.84Zm1-14a3.66,3.66,0,0,0-3.27,1.89,6.89,6.89,0,0,0-1,3.74,4,4,0,0,0,1.15,3.1,3,3,0,0,0,2.12.86,3.61,3.61,0,0,0,2.54-1,4.35,4.35,0,0,0,1.31-3.15C88.76,66.65,87.81,64.83,85.77,64.82Z"/><path class="cls-12" d="M109.4,78.9a9.38,9.38,0,0,1-6.22-2.1,7.29,7.29,0,0,1-2.64-5.86A12.55,12.55,0,0,1,102.91,64q2.7-4.07,6.27-4.07a11.15,11.15,0,0,1,4.09.94c1.9.78,2.85,1.67,2.85,2.68a2.12,2.12,0,0,1-.57,1.46,2,2,0,0,1-1.57.7,3.12,3.12,0,0,1-1.74-.79,5,5,0,0,0-3.06-.78c-.87,0-1.8.85-2.81,2.54a8.72,8.72,0,0,0-1.45,4.25,3.34,3.34,0,0,0,1.28,2.78,5,5,0,0,0,3.2,1,6.27,6.27,0,0,0,2.76-.86,6.62,6.62,0,0,1,2.07-.86,2.1,2.1,0,0,1,1.56.66,2.06,2.06,0,0,1,.65,1.49c0,.88-1,1.76-2.86,2.63A10.66,10.66,0,0,1,109.4,78.9Z"/><path class="cls-12" d="M139.23,78.53a2.17,2.17,0,0,1-2-1.28,26,26,0,0,0-2.48-3.62L132,70.18c-.9.66-1.64,1.17-2.22,1.52-.12,1.56-.17,3-.17,4.47a2.14,2.14,0,0,1-.66,1.62,2.28,2.28,0,0,1-1.67.64c-1.58,0-2.37-.94-2.37-2.83,0-.88.06-2.21.19-4s.19-3.1.19-4c0-1.63,0-3.49.08-5.59s.08-3.94.08-5.55c0-.48,0-1-.08-1.71s-.08-1.22-.08-1.71a2.15,2.15,0,0,1,.66-1.61,2.53,2.53,0,0,1,3.34,0,2.18,2.18,0,0,1,.65,1.61c0,.5,0,1.08.09,1.76s.08,1.25.08,1.75c0,1.33,0,2.92-.1,4.75s-.09,3.31-.08,4.68a85.16,85.16,0,0,0,7-6.44,2.32,2.32,0,0,1,3.35,0,2.17,2.17,0,0,1,.73,1.6,2.21,2.21,0,0,1-.66,1.5,55.26,55.26,0,0,1-4.73,4.65l3.5,4.52c1.7,2.25,2.54,3.76,2.54,4.51a2,2,0,0,1-.74,1.57A2.43,2.43,0,0,1,139.23,78.53Z"/><path class="cls-12" d="M163.92,78.77a4.86,4.86,0,0,1-2.46-1.5,22,22,0,0,1-2.73,1.12,6.84,6.84,0,0,1-2,.38c-2.71,0-4.74-.73-6.09-2.17s-2-3.62-2-6.51a9.28,9.28,0,0,1,3-6.94,9.94,9.94,0,0,1,7.17-2.89,9.67,9.67,0,0,1,3.71.9c1.69.72,2.54,1.56,2.54,2.52a1.55,1.55,0,0,1-.39,1.05,11.14,11.14,0,0,0-.26,1.67c-.06.68-.09,1.46-.09,2.36a16.53,16.53,0,0,0,.45,4.59c0,.1.3.68.78,1.73a9,9,0,0,1,.66,1.64,1.85,1.85,0,0,1-.69,1.47A2.38,2.38,0,0,1,163.92,78.77ZM159.74,67.4a12,12,0,0,1,.08-1.24c.05-.46.12-1,.22-1.56a3.66,3.66,0,0,0-.59-.24,1.78,1.78,0,0,0-.45-.08,5.38,5.38,0,0,0-4,1.8,6.47,6.47,0,0,0-.91,7.54,2.78,2.78,0,0,0,2.43,1.14,5.72,5.72,0,0,0,2-.34,6.16,6.16,0,0,0,1.76-1A52.49,52.49,0,0,1,159.74,67.4Z"/><rect class="cls-11" x="179.94" y="10.06" width="4.75" height="69.95" rx="2.37" transform="translate(-4.94 59.26) rotate(-18.22)"/><rect class="cls-11" x="189.33" y="10.54" width="4.75" height="69.95" rx="2.37" transform="translate(-4.62 62.22) rotate(-18.22)"/></svg>