<svg id="Слой_1" data-name="Слой 1" xmlns="http://www.w3.org/2000/svg" xmlns:xlink="http://www.w3.org/1999/xlink" viewBox="0 0 200 100"><defs><style>.cls-1,.cls-10,.cls-9{fill:none;}.cls-2{clip-path:url(#clip-path);}.cls-3{clip-path:url(#clip-path-2);}.cls-4{clip-path:url(#clip-path-3);}.cls-5{clip-path:url(#clip-path-4);}.cls-6{fill:#fff;}.cls-7{clip-path:url(#clip-path-5);}.cls-8{fill:#f3e600;}.cls-9{stroke:#fff;}.cls-10,.cls-9{stroke-miterlimit:10;stroke-width:0.78px;}.cls-10{stroke:#f1e511;}.cls-11{font-size:84.23px;fill:#11182a;font-family:AmazObitaemOstrovItalic;}.cls-12{fill:#303031;}</style><clipPath id="clip-path"><rect class="cls-1" x="428.14" y="-307.12" width="399.62" height="269.45"/></clipPath><clipPath id="clip-path-2"><rect class="cls-1" x="424.84" y="-424.12" width="981.54" height="521.22"/></clipPath><clipPath id="clip-path-3"><rect class="cls-1" x="6.03" y="-307.12" width="399.62" height="269.45"/></clipPath><clipPath id="clip-path-4"><rect class="cls-1" x="2.73" y="-424.12" width="981.54" height="521.22"/></clipPath><clipPath id="clip-path-5"><rect id="SVGID" class="cls-1" x="-313.41" y="-432.99" width="806.99" height="537.99"/></clipPath></defs><g class="cls-4"><g class="cls-5"><rect class="cls-6" x="-82.19" y="-27.06" width="585.09" height="136.62"/><g class="cls-7"><path class="cls-8" d="M135,15.35H45.32A89.65,89.65,0,0,0,135,105h0Z"/><path class="cls-8" d="M134.89,5.76h0V97l75.57-5.26a51.08,51.08,0,0,0,3.32-11.45c4-24.32-11.49-44.17-14.35-47.83C177.28,4.09,138.92,5.54,134.89,5.76Z"/><rect class="cls-6" x="134.97" y="15.35" width="89.65" height="89.65" rx="44.83"/><path class="cls-8" d="M179.8,40.16h0a20,20,0,0,0-20,20h0a20,20,0,0,0,20,20h0a20,20,0,0,0,20-20h0A20,20,0,0,0,179.8,40.16Z"/><path class="cls-6" d="M135-74.31h0A89.66,89.66,0,0,0,45.32,15.35H135Z"/><path class="cls-8" d="M135-35.63h0a51,51,0,0,0-51,51h51Z"/><rect class="cls-6" x="134.97" y="-74.31" width="89.65" height="89.65"/></g><polygon class="cls-9" points="189.41 5.14 181.59 5.14 177.68 11.91 181.59 18.68 189.41 18.68 193.32 11.91 189.41 5.14"/><circle class="cls-10" cx="38.45" cy="-14.77" r="42.25"/></g></g><rect class="cls-6" x="-8.36" y="-2.28" width="216.72" height="104.56"/><text class="cls-11" transform="translate(11.58 75.78)">44</text><path class="cls-12" d="M116.57,54l7.17-34.08A5.27,5.27,0,0,1,128,15.82l35.61-6.19a8.59,8.59,0,0,1,9.12,4.57l13.76,27.12a13.08,13.08,0,0,1,1.4,6.73L186,78.62a8.73,8.73,0,0,1-8.52,8.2l-32.44.7a12.49,12.49,0,0,1-9.94-4.59L118.69,62.74A10.46,10.46,0,0,1,116.57,54Z"/><ellipse class="cls-6" cx="133.59" cy="66.46" rx="2.34" ry="5.16" transform="translate(21.37 164.8) rotate(-67.68)"/><path class="cls-6" d="M186.31,81a9.33,9.33,0,0,1-2.45,3.93,9.43,9.43,0,0,1-6.33,2.64l-32.45.7a13.11,13.11,0,0,1-10.5-4.86L118.14,63.18a11.09,11.09,0,0,1-2.26-9.33l7.17-34.08a5.94,5.94,0,0,1,4.81-4.65l35.61-6.19a9.29,9.29,0,0,1,9.87,5L187.1,41a14,14,0,0,1,1.48,7.1l-1.84,30.56A9.35,9.35,0,0,1,186.31,81ZM116.57,54l.7.15a9.7,9.7,0,0,0,2,8.15l16.44,20.19a11.69,11.69,0,0,0,9.37,4.33l32.45-.7a8.06,8.06,0,0,0,7.82-7.53L187.16,48a12.45,12.45,0,0,0-1.32-6.37L172.08,14.52a7.84,7.84,0,0,0-8.37-4.19L128.1,16.52a4.51,4.51,0,0,0-3.66,3.54l-7.17,34.08Z"/><path class="cls-6" d="M180.08,85.55a2.29,2.29,0,0,1-.21.47,2.88,2.88,0,0,1-2.34,1.27L145.78,88c-3.79,0-7.7-.47-10.69-4.41L119.16,62.84a3,3,0,0,1,2.13-4.79l36.94-3a7.05,7.05,0,0,1,6.66,3.42L179.8,83.28v0A3,3,0,0,1,180.08,85.55Zm-60.5-25.14a2,2,0,0,0,.33,1.85L135.84,83c2.59,3.41,5.84,4.08,9.92,4l31.74-.68a2,2,0,0,0,1.56-.82,1.85,1.85,0,0,0-.1-1.8L164.08,59a6.11,6.11,0,0,0-5.77-3l-36.95,3a2,2,0,0,0-1.7,1.2C119.63,60.27,119.6,60.34,119.58,60.41Z"/><path class="cls-6" d="M186.19,80.53a2.69,2.69,0,0,1-4.86.51L167.11,56.68a9.72,9.72,0,0,1-1.25-6.08l4.47-36a1.51,1.51,0,0,1,1.3-1.2,1.36,1.36,0,0,1,1.5.61c3.51,6.71,13.22,26.06,14.09,27.82a14,14,0,0,1,1.11,4.51v.06l-2,33.48A3.14,3.14,0,0,1,186.19,80.53ZM171.27,14.68l-4.47,36a8.74,8.74,0,0,0,1.12,5.48l14.22,24.36a1.74,1.74,0,0,0,3.23-.77l2-33.45a13.3,13.3,0,0,0-1-4.12c-.87-1.76-10.57-21.1-14.08-27.8-.07-.13-.3-.16-.49-.12s-.51.22-.53.38Z"/><path class="cls-6" d="M162.7,49.63A4.2,4.2,0,0,1,159,52.54l-39,2.85a3.19,3.19,0,0,1-3.34-3.85l7-31.9a5.66,5.66,0,0,1,4.63-4.4l36-5.94a3,3,0,0,1,3.48,3.38l-4.89,36.25A3.24,3.24,0,0,1,162.7,49.63Zm-38-30.23c0,.14-.08.29-.11.44l-7,31.9a2.2,2.2,0,0,0,.49,1.94,2.22,2.22,0,0,0,1.85.77l39-2.85a3.25,3.25,0,0,0,3-2.79l4.9-36.26a2.09,2.09,0,0,0-.61-1.76,2.06,2.06,0,0,0-1.78-.56l-36,5.94A4.73,4.73,0,0,0,124.69,19.4Z"/><ellipse class="cls-6" cx="132.59" cy="24.4" rx="4.79" ry="3.28" transform="translate(36.43 118.89) rotate(-54.93)"/><path class="cls-6" d="M137,20.32a3,3,0,0,1,.76.86,4.7,4.7,0,0,1,.44,1.09,5.87,5.87,0,0,1,.08,2.36,5.4,5.4,0,0,1-.11.58l-.08.29-.09.28-.1.28a2.33,2.33,0,0,1-.11.28l-.12.27-.13.26c-.05.09-.08.18-.14.27l-.15.25c-.1.17-.21.33-.32.5a9.39,9.39,0,0,1-.76.91,8.55,8.55,0,0,1-.89.81,7.67,7.67,0,0,1-1,.65,6,6,0,0,1-1.14.47l-.3.09-.31.07c-.21,0-.42.06-.63.07l-.32,0-.32,0a3.41,3.41,0,0,1-.64-.1,3.31,3.31,0,0,1-1.19-.5,3.16,3.16,0,0,1-.86-.89,2.4,2.4,0,0,1-.37-1.1,3.16,3.16,0,0,0,.62.83,2.93,2.93,0,0,0,.86.57,3.64,3.64,0,0,0,2,.19,6,6,0,0,0,1.92-.75,7.52,7.52,0,0,0,1.61-1.3,10.13,10.13,0,0,0,.68-.79c.1-.14.2-.28.29-.43l.15-.22a1.59,1.59,0,0,0,.13-.22,8.21,8.21,0,0,0,.82-1.9,4.07,4.07,0,0,0,.13-.5c0-.17.06-.34.09-.51a5.18,5.18,0,0,0,0-1,3.87,3.87,0,0,0-.15-1A3.71,3.71,0,0,0,137,20.32Z"/><ellipse class="cls-6" cx="155.55" cy="20.87" rx="4.79" ry="3.28" transform="translate(49.09 136.18) rotate(-54.93)"/><path class="cls-6" d="M152.57,17.25a6.31,6.31,0,0,1,3.15-2.6,4.83,4.83,0,0,1,2.25-.26,4.18,4.18,0,0,1,2.24,1,5,5,0,0,1,.84.93,5.26,5.26,0,0,1,.56,1.11,6.77,6.77,0,0,1,.22,3.49,8.19,8.19,0,0,1-.28,1.11,9.25,9.25,0,0,1-2.45,3.73A8.15,8.15,0,0,1,157.22,27a6.61,6.61,0,0,1-2.24.67,5.53,5.53,0,0,1-1.22,0,5,5,0,0,1-1.2-.3,4.25,4.25,0,0,1-1.92-1.52,2.2,2.2,0,0,1-.17-.25l-.14-.26-.07-.13-.06-.13-.1-.28c0-.09-.06-.18-.09-.27s0-.18-.07-.28a4.85,4.85,0,0,1-.09-.55l0-.27v-.28a3.26,3.26,0,0,1,0-.54,5.06,5.06,0,0,1,.19-1c0-.17.11-.33.16-.49s.13-.32.2-.47l.24-.45.27-.42a7.17,7.17,0,0,0-.51,1.88,5.69,5.69,0,0,0,.07,1.93,3.23,3.23,0,0,0,.12.47,1.57,1.57,0,0,0,.09.23,2.18,2.18,0,0,0,.09.23l.11.21.06.11.06.11.14.2.15.19a3.42,3.42,0,0,0,1.58,1.09,4.07,4.07,0,0,0,1.93.14,5.43,5.43,0,0,0,1.83-.62,7.82,7.82,0,0,0,2.83-2.62,7.69,7.69,0,0,0,1.27-3.64,5.47,5.47,0,0,0-.22-1.93,3.78,3.78,0,0,0-1-1.64,3.47,3.47,0,0,0-1.71-.88,4.34,4.34,0,0,0-1.93,0A6.82,6.82,0,0,0,152.57,17.25Z"/><ellipse class="cls-6" cx="152.02" cy="42.63" rx="4.79" ry="3.28" transform="translate(29.78 142.55) rotate(-54.93)"/><path class="cls-6" d="M156.42,38.55a3,3,0,0,1,.76.86,4.53,4.53,0,0,1,.44,1.09,5.78,5.78,0,0,1,.16,1.18,6.69,6.69,0,0,1-.08,1.18c0,.19-.07.39-.12.58s-.05.19-.07.29l-.09.28-.1.28c0,.09-.07.18-.11.28l-.12.27-.13.26c-.05.09-.09.18-.14.26l-.15.26c-.1.17-.21.33-.32.5a9.39,9.39,0,0,1-.76.91,8.55,8.55,0,0,1-.89.81,8.38,8.38,0,0,1-1,.65,6,6,0,0,1-1.14.47l-.31.09c-.1,0-.2.05-.3.06a4.52,4.52,0,0,1-.63.08h-.64a3.65,3.65,0,0,1-.65-.1,3.34,3.34,0,0,1-1.18-.5,2.94,2.94,0,0,1-.86-.9,2.36,2.36,0,0,1-.37-1.09,3,3,0,0,0,1.48,1.4,3.64,3.64,0,0,0,2,.19,6,6,0,0,0,1.92-.75,7.78,7.78,0,0,0,1.61-1.3,10.27,10.27,0,0,0,.68-.8,4.43,4.43,0,0,0,.29-.42l.15-.22a2.53,2.53,0,0,1,.13-.22,8.4,8.4,0,0,0,.82-1.9c.06-.17.09-.34.13-.5s.06-.35.09-.52a5.92,5.92,0,0,0,0-1,5.12,5.12,0,0,0-.15-1A3.79,3.79,0,0,0,156.42,38.55Z"/><ellipse class="cls-6" cx="128.99" cy="45.32" rx="4.79" ry="3.28" transform="translate(17.78 124.85) rotate(-54.93)"/><path class="cls-6" d="M133.4,41.24a3,3,0,0,1,.75.86,4.15,4.15,0,0,1,.44,1.09,5.8,5.8,0,0,1,.17,1.17,7.84,7.84,0,0,1-.08,1.19c0,.19-.07.39-.12.58s-.05.19-.08.29l-.09.28-.09.28-.12.27c0,.09-.07.19-.12.28l-.13.26a2.1,2.1,0,0,1-.13.26l-.16.26c-.1.17-.21.33-.32.49a9.41,9.41,0,0,1-.75.92,7.57,7.57,0,0,1-.9.8,7.73,7.73,0,0,1-1,.66,5.7,5.7,0,0,1-1.14.47l-.3.08-.31.07a4.52,4.52,0,0,1-.63.08h-.64a3.41,3.41,0,0,1-.64-.1,3.49,3.49,0,0,1-1.19-.51,2.92,2.92,0,0,1-.86-.89,2.62,2.62,0,0,1-.37-1.09,3.16,3.16,0,0,0,.62.83,3.07,3.07,0,0,0,.86.57,3.64,3.64,0,0,0,2,.19,5.94,5.94,0,0,0,1.93-.76,7.41,7.41,0,0,0,1.61-1.3,8.47,8.47,0,0,0,.67-.79l.3-.42.14-.22a2.53,2.53,0,0,0,.13-.22,8.9,8.9,0,0,0,.83-1.9c.05-.17.08-.34.12-.51s.06-.34.09-.51a5.93,5.93,0,0,0,.05-1,4.51,4.51,0,0,0-.16-1A4.16,4.16,0,0,0,133.4,41.24Z"/><ellipse class="cls-6" cx="141.82" cy="33.87" rx="4.79" ry="3.28" transform="translate(32.61 130.48) rotate(-54.93)"/><path class="cls-6" d="M143.62,27.94a2.52,2.52,0,0,1,.61-.11,2.85,2.85,0,0,1,.65,0,3.36,3.36,0,0,1,1.27.43,4.21,4.21,0,0,1,1.08.9,3.06,3.06,0,0,1,.21.29,2.23,2.23,0,0,1,.2.3,3.07,3.07,0,0,1,.17.31,3.13,3.13,0,0,1,.15.32,5.82,5.82,0,0,1,.22.67,2.09,2.09,0,0,1,.08.34l.06.35a7.08,7.08,0,0,1,.05,1.38,7.36,7.36,0,0,1-.23,1.34,8,8,0,0,1-.45,1.27,7.42,7.42,0,0,1-.65,1.17l-.19.27-.2.27-.21.26-.1.12-.12.12a5.21,5.21,0,0,1-.47.47l-.24.23-.26.2-.27.2-.27.19-.29.17-.29.16a6.8,6.8,0,0,1-1.22.5,6.41,6.41,0,0,1-1.31.22c-.21,0-.44,0-.65,0l-.33,0a1.7,1.7,0,0,1-.31-.06l-.31-.09-.3-.12-.14-.07-.14-.08-.26-.16a4.59,4.59,0,0,0,2.3,0,5.86,5.86,0,0,0,1.09-.38l.52-.26a4.07,4.07,0,0,0,.49-.31,8.19,8.19,0,0,0,1.72-1.55,9.09,9.09,0,0,0,1.23-2,7.91,7.91,0,0,0,.64-2.23,5.78,5.78,0,0,0-.17-2.3,4.32,4.32,0,0,0-.47-1.05,3.75,3.75,0,0,0-.76-.87,3.61,3.61,0,0,0-1-.59A3.68,3.68,0,0,0,143.62,27.94Z"/><path class="cls-6" d="M125.55,52.5l-5.69.42a.7.7,0,0,1-.58-.24.69.69,0,0,1-.15-.61l1.61-7.38c-.09.47-1,6.34-.54,7.08S125.29,52.51,125.55,52.5Z"/><path class="cls-6" d="M137.4,16.25c-.27.07-9,2.29-10,4.1s-3.9,11.43-3.9,11.43l2.53-11.62c0-.09,0-.19.08-.28a3.17,3.17,0,0,1,2.52-2.19Z"/><polygon class="cls-6" points="142.49 18.32 137.82 22.13 138.02 23.55 142.49 18.32"/><path class="cls-6" d="M130.24,30.23s-2.2,1.91-3,2.56a.69.69,0,0,0,.52,1.26L124,37.63l-1.34,6s10-9.47,10.92-10.29a1,1,0,0,0-.23-1.71l2.45-2.53-3.44,1.27Z"/><path class="cls-6" d="M148,32l5.17-5.15s-2.3-.75-2.66-2.3l-4.15,4.13A6.49,6.49,0,0,1,148,32Z"/><path class="cls-6" d="M162.41,33.7l-2,14.9a1.36,1.36,0,0,1-.06.29,1.69,1.69,0,0,1-1.49,1.17l-16.57,1.22,8.37-1.48-4.46-.29,4.83-.88s3.25-.43,4.5-2.23a18,18,0,0,0,2-5s.42.43.13,2a25.77,25.77,0,0,1-1.19,3.75s2.57-1.77,2.28-6.45l1.61-2.86Z"/><path class="cls-6" d="M165.14,11.89a.53.53,0,0,1,.15.46l-2.14,15.86L163,24.74l-5.82,6.72L156.79,30l-7.64,7.14,9.45-10.82.38,1.09a9.9,9.9,0,0,0,2.46-7.12s.26-3.7-2.14-5-8.35.53-8.53.58l2.87-1.41-8.12.41,19.16-3.16A.52.52,0,0,1,165.14,11.89Z"/><polygon class="cls-6" points="132.75 51.97 136.44 50.77 145.88 41.31 137.81 50.95 140.13 51.43 132.75 51.97"/><path class="cls-6" d="M176.8,32.08a5.35,5.35,0,0,1,1.3,1.21,8.22,8.22,0,0,1,.93,1.53,10.19,10.19,0,0,1,.95,3.43,10.61,10.61,0,0,1-.19,3.55,6.86,6.86,0,0,1-.62,1.69,4.34,4.34,0,0,1-.5.76,3.22,3.22,0,0,1-.32.32,1.83,1.83,0,0,1-.36.26,3.76,3.76,0,0,0,.86-1.45,8.7,8.7,0,0,0,.39-1.66,13.34,13.34,0,0,0,0-3.4A14,14,0,0,0,178.5,35,9.07,9.07,0,0,0,176.8,32.08Z"/><path class="cls-6" d="M179.79,51.61a4.57,4.57,0,0,1,.47.29,1.84,1.84,0,0,1,.22.17l.21.18.21.2.18.2c.13.14.24.29.36.43A9.83,9.83,0,0,1,182.55,55a13.07,13.07,0,0,1,1,4.31c0,.37,0,.75,0,1.12a10.54,10.54,0,0,1-.08,1.12,8.32,8.32,0,0,1-.56,2.22,5,5,0,0,1-.57,1,3.47,3.47,0,0,1-.4.46,2.71,2.71,0,0,1-.51.38,1.7,1.7,0,0,1-1.24.19,2,2,0,0,1-1-.59,2.07,2.07,0,0,0,1,.38h.26l.26-.05a1.8,1.8,0,0,0,.48-.24,2.53,2.53,0,0,0,.7-.79,4.69,4.69,0,0,0,.43-1,8.79,8.79,0,0,0,.41-2.09,15.14,15.14,0,0,0,0-2.13,16.17,16.17,0,0,0-.84-4.17,11.57,11.57,0,0,0-.86-1.94A6.28,6.28,0,0,0,179.79,51.61Z"/><path class="cls-6" d="M184,64.7,183.21,77s0,.06,0,.08-.17.1-.17.1a.14.14,0,0,1-.18-.09l-6.44-11,5.93,8.15Z"/><path class="cls-6" d="M169.51,46.84c.26,1.79.67,4.64.81,5.71.21,1.6,4.14,10.1,4.2,10.23L170,55a7.21,7.21,0,0,1-.92-4.52Z"/><path class="cls-6" d="M173.61,22c1.2,2.34,2.61,5.11,4,7.93l-3.84-5.07-2.55,10,1.58-12.76A.41.41,0,0,1,173.61,22Z"/><path class="cls-6" d="M179.61,82.29c-1-1.28-2-2.61-2.87-4S175,75.6,174.16,74.2s-1.62-2.81-2.37-4.25-1.46-2.91-2.07-4.43c1,1.27,2,2.6,2.87,4s1.76,2.73,2.58,4.13,1.62,2.82,2.37,4.26S179,80.76,179.61,82.29Z"/><path class="cls-6" d="M180.36,81.89c-1-1.27-2-2.6-2.87-4s-1.76-2.73-2.58-4.13-1.62-2.82-2.37-4.26-1.46-2.9-2.07-4.42c1,1.27,2,2.6,2.87,4s1.76,2.73,2.59,4.13,1.61,2.81,2.36,4.26S179.75,80.37,180.36,81.89Z"/><path class="cls-6" d="M181.12,81.5c-1-1.27-2-2.61-2.88-4s-1.75-2.73-2.58-4.12-1.61-2.82-2.36-4.26a48.42,48.42,0,0,1-2.08-4.43c1,1.28,2,2.61,2.88,4s1.75,2.73,2.58,4.13,1.61,2.81,2.36,4.25S180.5,80,181.12,81.5Z"/><path class="cls-6" d="M139.05,59.11l-15.86,2.35a.33.33,0,0,0-.23.5l5.31,8.49.22.33-7.13-9.08a.81.81,0,0,1-.13-.75.83.83,0,0,1,.72-.58Z"/><path class="cls-6" d="M162.83,59.82l14.59,24.24a1.12,1.12,0,0,1,.13.6.75.75,0,0,1-.57.24l-18.85.44,7.45-1.16-4.49-.76,7-.43s5.82-.33,5.4-2.65a14.42,14.42,0,0,0-2.25-4.83l-2.79-2.1.31-1.84a100.51,100.51,0,0,0-6.08-10.12A6.72,6.72,0,0,0,160.06,59a9.26,9.26,0,0,0-2.33-.48c-1.38-.19-2.24-.21-5.49-.39l-1.2-.07,7.22-.58A4.84,4.84,0,0,1,162.83,59.82Z"/><path class="cls-6" d="M150.33,85.48l-4.52.09a11.76,11.76,0,0,1-6.39-1.29,10.66,10.66,0,0,1-2.4-2.21,53.35,53.35,0,0,1-4.81-6.26,39.54,39.54,0,0,0,5.58,4.85c2.64,1.9,5.22,3.9,9.07,4.49C147.89,85.3,149,85.42,150.33,85.48Z"/><polygon class="cls-6" points="154.13 58.2 152.73 63.9 153.2 58.05 154.13 58.2"/><path class="cls-6" d="M138.84,68.49a1.73,1.73,0,0,1-1,1c-1.16.56-3.14.41-5.17-.38-3-1.16-4.85-3.18-4.37-4.69h0a1.73,1.73,0,0,1,1-1c1.16-.56,3.14-.41,5.17.38h0c3,1.16,4.85,3.18,4.38,4.69Zm-9.6-3.76h0c-.27.86,1.23,2.52,3.82,3.53a6.29,6.29,0,0,0,4.41.41.83.83,0,0,0,.47-.47h0c.27-.86-1.23-2.52-3.82-3.53h0a6.29,6.29,0,0,0-4.41-.41A.83.83,0,0,0,129.24,64.73Z"/><path class="cls-6" d="M129.85,62a6.13,6.13,0,0,1,.83-.26,8.66,8.66,0,0,1,.87-.12,6.61,6.61,0,0,1,.89,0,8.87,8.87,0,0,1,.89.06,11.59,11.59,0,0,1,3.43,1,10.45,10.45,0,0,1,1.59.9,8.37,8.37,0,0,1,1.44,1.24c.1.12.22.24.32.38l.15.2.14.21a4.8,4.8,0,0,1,.48.93,4.19,4.19,0,0,1,.24,2.23,3.82,3.82,0,0,1-1.09,2,4.05,4.05,0,0,1-.91.66,4.37,4.37,0,0,1-.49.23c-.16.07-.33.11-.5.17a6.64,6.64,0,0,1-2,.2,7.3,7.3,0,0,1-.94-.09l-.45-.08-.45-.1-.44-.13-.43-.14a8.6,8.6,0,0,1-.84-.33c-.14-.05-.27-.12-.4-.18l-.4-.2c-.26-.15-.52-.29-.77-.45s-.49-.33-.72-.51a6.22,6.22,0,0,1-.68-.57c-.21-.2-.42-.4-.61-.62a7,7,0,0,1-.53-.69,10.64,10.64,0,0,0,2.77,1.92,12.6,12.6,0,0,0,1.57.64,11.5,11.5,0,0,0,1.63.43,8,8,0,0,0,1.69.16,5.91,5.91,0,0,0,1.67-.23c.13,0,.27-.08.39-.14s.26-.12.38-.19a3.41,3.41,0,0,0,.68-.5,2.81,2.81,0,0,0,.78-1.48,3.15,3.15,0,0,0-.17-1.66,4.65,4.65,0,0,0-.88-1.44,8.38,8.38,0,0,0-1.23-1.15,11.16,11.16,0,0,0-1.43-.91,12.67,12.67,0,0,0-3.15-1.21A8.29,8.29,0,0,0,129.85,62Z"/><ellipse class="cls-6" cx="150.4" cy="71.8" rx="2.34" ry="5.16" transform="translate(26.85 183.66) rotate(-67.68)"/><path class="cls-6" d="M155.65,73.83a1.74,1.74,0,0,1-1,1c-1.15.56-3.13.41-5.16-.38-3-1.16-4.86-3.18-4.38-4.69h0a1.74,1.74,0,0,1,1-1c1.16-.56,3.14-.41,5.16.38h0c3,1.16,4.86,3.18,4.38,4.69ZM146,70.07h0c-.27.86,1.23,2.52,3.82,3.53a6.32,6.32,0,0,0,4.42.41.83.83,0,0,0,.47-.47h0c.27-.86-1.23-2.52-3.82-3.53h0a6.32,6.32,0,0,0-4.42-.41A.83.83,0,0,0,146,70.07Z"/><path class="cls-6" d="M146.66,67.32a5.36,5.36,0,0,1,.83-.26c.28,0,.58-.09.87-.12a6.58,6.58,0,0,1,.89,0,8.67,8.67,0,0,1,.88.06,11.65,11.65,0,0,1,3.44,1,11,11,0,0,1,1.59.9,8.31,8.31,0,0,1,1.43,1.24,4,4,0,0,1,.32.38l.15.2.15.21a5.18,5.18,0,0,1,.48.94,4.14,4.14,0,0,1,.23,2.22,3.89,3.89,0,0,1-2,2.68,5.4,5.4,0,0,1-.49.23c-.17.07-.34.11-.5.17a6.67,6.67,0,0,1-2,.2,7.3,7.3,0,0,1-.94-.09l-.46-.08-.44-.1-.44-.13-.44-.14a8.43,8.43,0,0,1-.83-.33c-.14,0-.27-.12-.41-.18l-.4-.2c-.26-.15-.51-.29-.76-.45s-.49-.33-.73-.51a7.21,7.21,0,0,1-.67-.57c-.22-.2-.42-.4-.62-.62a6.92,6.92,0,0,1-.52-.69,10.41,10.41,0,0,0,2.77,1.92,12.46,12.46,0,0,0,1.56.64,11.64,11.64,0,0,0,1.64.43,7.91,7.91,0,0,0,1.68.16,5.57,5.57,0,0,0,1.67-.23A2.7,2.7,0,0,0,155,76c.13-.06.26-.12.38-.19a3.31,3.31,0,0,0,.68-.5,2.81,2.81,0,0,0,.78-1.48,3.15,3.15,0,0,0-.17-1.66,5.07,5.07,0,0,0-.88-1.44,8.45,8.45,0,0,0-1.24-1.15,11.79,11.79,0,0,0-1.42-.91A12.74,12.74,0,0,0,150,67.48,8.23,8.23,0,0,0,146.66,67.32Z"/><ellipse class="cls-6" cx="166.15" cy="78.01" rx="2.34" ry="5.16" transform="translate(30.88 202.08) rotate(-67.68)"/><path class="cls-6" d="M171.4,80a1.77,1.77,0,0,1-1,1c-1.16.55-3.14.4-5.17-.39-3-1.16-4.85-3.18-4.37-4.69h0a1.72,1.72,0,0,1,1-1c1.16-.56,3.14-.41,5.17.38h0c3,1.17,4.85,3.18,4.38,4.7Zm-9.6-3.76h0c-.27.86,1.23,2.52,3.82,3.53a6.29,6.29,0,0,0,4.41.41.83.83,0,0,0,.47-.47h0c.27-.86-1.23-2.51-3.82-3.53h0a6.29,6.29,0,0,0-4.41-.41A.83.83,0,0,0,161.8,76.27Z"/><path class="cls-6" d="M162.41,73.52a6.09,6.09,0,0,1,.83-.25,8.7,8.7,0,0,1,.87-.13,6.61,6.61,0,0,1,.89,0c.3,0,.59,0,.89.06a11.59,11.59,0,0,1,3.43,1,10.45,10.45,0,0,1,1.59.9,8.37,8.37,0,0,1,1.44,1.24c.1.13.22.24.32.38l.15.2.14.21a4.89,4.89,0,0,1,.48.94,4.14,4.14,0,0,1,.24,2.22,3.85,3.85,0,0,1-1.09,2,4.34,4.34,0,0,1-.91.65,3.12,3.12,0,0,1-.49.23,4.2,4.2,0,0,1-.5.17,6.32,6.32,0,0,1-2,.2,7.3,7.3,0,0,1-.94-.09l-.45-.08-.45-.1-.44-.12L166,83c-.28-.1-.57-.21-.84-.33l-.4-.19c-.14-.06-.27-.13-.4-.2s-.52-.29-.77-.45-.49-.33-.72-.51a7.5,7.5,0,0,1-.68-.56c-.21-.2-.42-.41-.61-.63a7,7,0,0,1-.53-.69,10.41,10.41,0,0,0,2.77,1.92,14.4,14.4,0,0,0,1.57.65,13,13,0,0,0,1.63.43,9.58,9.58,0,0,0,1.69.16,5.92,5.92,0,0,0,1.67-.24,2.58,2.58,0,0,0,.39-.14c.13,0,.26-.12.38-.18a3.1,3.1,0,0,0,.68-.51,2.82,2.82,0,0,0,.78-1.47,3.17,3.17,0,0,0-.17-1.67,4.61,4.61,0,0,0-.88-1.43,7.87,7.87,0,0,0-1.23-1.15,10.23,10.23,0,0,0-1.43-.92,13.08,13.08,0,0,0-3.15-1.21A8.47,8.47,0,0,0,162.41,73.52Z"/><polygon class="cls-6" points="142.56 84.7 143.94 73.68 143.97 84.79 142.56 84.7"/><path class="cls-6" d="M141.62,84.22l1.69-15a.94.94,0,0,0-1.38-.93l-1.26.27s-.33,2.44-1.9,2.72-1.27,3-.86,3.1c.76.11,2.24-1.85,2.24-1.85a7,7,0,0,1-1,2.06L138.23,82Z"/><path class="cls-6" d="M138.57,63.81l.59-3.28,3-.32L140.89,69A12.35,12.35,0,0,0,138.57,63.81Z"/><path class="cls-6" d="M155.18,58.18,153,68a7.7,7.7,0,0,1,3.8,2.83c1.21,2,.58,2,.58,2s1.62.17-1.12-4.33a9.66,9.66,0,0,1,1.93,1.77l2.73-11.83Z"/><polygon class="cls-6" points="162.14 59.93 160.03 69.92 163.66 67.03 164.42 62.86 162.14 59.93"/><polygon class="cls-6" points="156.1 76.38 154.02 84.28 151.54 84.43 153.5 77.03 156.1 76.38"/><path class="cls-6" d="M177.2,54.8a14.1,14.1,0,0,0,.11,4.11c.46,2.84,1.68,5.74,3,5.52.49-.08.83-.54,1.05-1.23a11.81,11.81,0,0,0,.08-5,13.72,13.72,0,0,0-1.19-3.93c-.58-1.14-1.22-1.68-1.84-1.58S177.39,53.54,177.2,54.8Zm1.35-1.5-.1,0,.09,0Z"/><path class="cls-6" d="M173.91,32.7c-.71.94-.88,3.19-.44,5.73.49,2.87,1.79,5.84,3.22,5.69a1.14,1.14,0,0,0,.78-.48,2.84,2.84,0,0,0,.39-.8,11.35,11.35,0,0,0,0-4.92c-.49-2.87-1.79-5.84-3.23-5.69A1.11,1.11,0,0,0,173.91,32.7Z"/></svg>